M48
;DRILL file {KiCad 5.0.2-bee76a0~70~ubuntu18.04.1} date Sat 29 Feb 2020 05:16:50 PM PST
;FORMAT={-:-/ absolute / inch / decimal}
FMAT,2
INCH,TZ
T1C0.0118
T2C0.0157
T3C0.0197
T4C0.0236
%
G90
G05
T1
X4.025Y-2.63
X4.025Y-2.655
X4.16Y-2.82
X4.2075Y-2.5243
X4.2139Y-2.5777
X4.2475Y-2.445
X4.2907Y-2.4986
X4.2907Y-2.5476
X4.315Y-2.41
X4.3167Y-2.6336
X4.3171Y-2.5215
X4.3407Y-2.5476
X4.341Y-2.4976
X4.4009Y-2.41
X4.465Y-2.7775
X4.5Y-2.5075
X4.51Y-1.98
X4.5775Y-2.395
X4.597Y-2.3114
X4.63Y-2.4475
X4.63Y-2.5075
X4.7275Y-2.6125
X4.7288Y-2.3379
X4.735Y-2.4254
X4.74Y-2.37
X4.8Y-1.85
X4.8051Y-2.3563
X4.8125Y-2.455
X4.815Y-2.8775
X4.8327Y-1.9272
X4.8525Y-2.455
X4.855Y-2.7625
X4.865Y-2.9475
X4.8825Y-2.815
X4.8825Y-2.89
X4.9025Y-2.9475
X4.9567Y-2.9744
X4.97Y-2.8406
X4.9724Y-2.8071
X4.9725Y-2.775
X5.01Y-2.7475
X5.01Y-2.8825
T2
X3.6Y-2.3
X3.6Y-2.365
X3.95Y-2.465
X3.95Y-2.535
X3.95Y-2.605
T3
X4.0975Y-3.
X4.98Y-2.685
X4.84Y-2.1275
X4.095Y-2.915
X4.585Y-2.1275
T4
X4.3228Y-2.0276
X4.3602Y-2.0276
X4.3976Y-2.0276
X4.5945Y-2.0276
X4.6319Y-2.0276
X4.6693Y-2.0276
T0
M30
