%TF.GenerationSoftware,KiCad,Pcbnew,5.0.2-bee76a0~70~ubuntu18.04.1*%
%TF.CreationDate,2020-02-29T17:16:54-08:00*%
%TF.ProjectId,SolarCellZ_v1,536f6c61-7243-4656-9c6c-5a5f76312e6b,rev?*%
%TF.SameCoordinates,Original*%
%TF.FileFunction,Copper,L4,Inr*%
%TF.FilePolarity,Positive*%
%FSLAX46Y46*%
G04 Gerber Fmt 4.6, Leading zero omitted, Abs format (unit mm)*
G04 Created by KiCad (PCBNEW 5.0.2-bee76a0~70~ubuntu18.04.1) date Sat 29 Feb 2020 05:16:54 PM PST*
%MOMM*%
%LPD*%
G01*
G04 APERTURE LIST*
%ADD10C,0.200000*%
%ADD11C,1.016000*%
%ADD12C,1.000000*%
%ADD13C,0.600000*%
%ADD14C,0.800000*%
%ADD15C,0.190000*%
%ADD16C,0.088900*%
G04 APERTURE END LIST*
D10*
X136007500Y-73391000D02*
G75*
G03X136007500Y-73391000I-1100000J0D01*
G01*
X96207500Y-73391000D02*
G75*
G03X96207500Y-73391000I-1100000J0D01*
G01*
X107407500Y-52841000D02*
G75*
G02X106407500Y-53841000I-1000000J0D01*
G01*
X100207500Y-53841000D02*
G75*
G02X99207500Y-52841000I0J1000000D01*
G01*
X106407500Y-50041000D02*
G75*
G02X107407500Y-51041000I0J-1000000D01*
G01*
X99207500Y-51041000D02*
G75*
G02X100207500Y-50041000I1000000J0D01*
G01*
X96207500Y-54991000D02*
G75*
G03X96207500Y-54991000I-1100000J0D01*
G01*
X106407500Y-50041000D02*
X100207500Y-50041000D01*
X138407500Y-39991000D02*
X138407500Y-88391000D01*
X138407500Y-88391000D02*
X90007500Y-88391000D01*
X90007500Y-88391000D02*
X90007500Y-39991000D01*
X90007500Y-39991000D02*
X138407500Y-39991000D01*
X100207500Y-53841000D02*
X106407500Y-53841000D01*
X136007500Y-54991000D02*
G75*
G03X136007500Y-54991000I-1100000J0D01*
G01*
X107407500Y-52841000D02*
X107407500Y-51041000D01*
X99207500Y-51041000D02*
X99207500Y-52841000D01*
D11*
X116700000Y-51500000D03*
X117650000Y-51500000D03*
X111700000Y-51500000D03*
X110750000Y-51500000D03*
X118600000Y-51500000D03*
X109800000Y-51500000D03*
D12*
X116459000Y-54038500D03*
X122936000Y-54038500D03*
X126492000Y-68199000D03*
X104013000Y-74041000D03*
X104076500Y-76200000D03*
D13*
X126300000Y-71300000D03*
X124015500Y-71501000D03*
X120268110Y-61604791D03*
X120078500Y-66357500D03*
X127254000Y-69786500D03*
X123317000Y-70167500D03*
X107032512Y-65473693D03*
X109654340Y-64046100D03*
X110253760Y-64708256D03*
X108983760Y-64708256D03*
X110261400Y-63439040D03*
X108983760Y-63463656D03*
X122237500Y-62357000D03*
X123253500Y-62357000D03*
X122301000Y-73088500D03*
X127254000Y-73215500D03*
X113411000Y-70548500D03*
X122750000Y-48950000D03*
X126301500Y-70485000D03*
X120111294Y-59382647D03*
X126238000Y-72150000D03*
X120396000Y-60198000D03*
X121920000Y-46990000D03*
X122050000Y-59850000D03*
X116763500Y-58710000D03*
X114554000Y-50292000D03*
X124015500Y-73406000D03*
X117602000Y-62166500D03*
X116268500Y-60833000D03*
X109644160Y-66892656D03*
X107886500Y-62103000D03*
X114299990Y-63690500D03*
X117602000Y-63690500D03*
X125900000Y-75550000D03*
X109601000Y-61214000D03*
X111783650Y-61214000D03*
X105664000Y-71628000D03*
X106871078Y-64116433D03*
D14*
X91440000Y-58420000D03*
X91440000Y-60071000D03*
X100330000Y-64389000D03*
X100330000Y-62611000D03*
X100330000Y-66167000D03*
D13*
X123571000Y-74866500D03*
X124523500Y-74866500D03*
X102235000Y-67437000D03*
X102235000Y-66802000D03*
D15*
X102550000Y-57700000D02*
X98550000Y-61700000D01*
X111100000Y-54550000D02*
X107950000Y-57700000D01*
X113900000Y-48400000D02*
X115400000Y-49900000D01*
X110150000Y-48400000D02*
X113900000Y-48400000D01*
X108400000Y-46600000D02*
X108400000Y-46650000D01*
X98550000Y-62609000D02*
X100330000Y-64389000D01*
X121395998Y-46600000D02*
X108400000Y-46600000D01*
X121397999Y-47240561D02*
X121397999Y-46602001D01*
X121669439Y-47512001D02*
X121397999Y-47240561D01*
X131800000Y-47900000D02*
X131800000Y-46600000D01*
X127200000Y-57450000D02*
X127200000Y-52500000D01*
X128000000Y-69100000D02*
X128500000Y-69600000D01*
X126838561Y-67476999D02*
X128000000Y-68638438D01*
X126145439Y-67476999D02*
X126838561Y-67476999D01*
X125350000Y-72750000D02*
X125350000Y-68272438D01*
X126050000Y-73250000D02*
X125850000Y-73250000D01*
X127200000Y-75800000D02*
X127200000Y-74400000D01*
X131800000Y-80400000D02*
X127200000Y-75800000D01*
X96600000Y-81800000D02*
X131800000Y-81800000D01*
X96600000Y-81250000D02*
X96600000Y-81800000D01*
X102750000Y-75950000D02*
X97450000Y-81250000D01*
X97550000Y-65700000D02*
X102750000Y-70900000D01*
X96600000Y-65700000D02*
X97550000Y-65700000D01*
X96600000Y-63500000D02*
X96600000Y-65700000D01*
X98200000Y-61900000D02*
X96600000Y-63500000D01*
X98200000Y-61600000D02*
X98200000Y-61900000D01*
X102450000Y-57350000D02*
X98200000Y-61600000D01*
X115076001Y-50041439D02*
X115076001Y-51823999D01*
X110050000Y-48750000D02*
X113784562Y-48750000D01*
X98400000Y-46600000D02*
X107900000Y-46600000D01*
X96300000Y-47600000D02*
X97400000Y-47600000D01*
X113784562Y-48750000D02*
X115076001Y-50041439D01*
X132150000Y-46250000D02*
X96300000Y-46250000D01*
X132150000Y-48000000D02*
X132150000Y-46250000D01*
X127550000Y-57350000D02*
X127550000Y-52600000D01*
X132150000Y-61950000D02*
X127550000Y-57350000D01*
X125700000Y-70313938D02*
X126749439Y-69264499D01*
X125987439Y-72912001D02*
X125700000Y-72624562D01*
X126177939Y-72912001D02*
X125987439Y-72912001D01*
X127215938Y-73950000D02*
X126177939Y-72912001D01*
X127550000Y-73950000D02*
X127215938Y-73950000D01*
X96250000Y-80900000D02*
X96250000Y-82150000D01*
X97450000Y-66050000D02*
X102400000Y-71000000D01*
X97850000Y-61800000D02*
X96250000Y-63400000D01*
X97850000Y-61500000D02*
X97850000Y-61800000D01*
X102100000Y-57000000D02*
X102100000Y-57250000D01*
X107750000Y-57000000D02*
X102100000Y-57000000D01*
X110500000Y-54250000D02*
X107750000Y-57000000D01*
X114000000Y-52300000D02*
X112450000Y-53850000D01*
X112450000Y-49100000D02*
X114000000Y-50650000D01*
X98500000Y-46950000D02*
X107800000Y-46950000D01*
X95950000Y-47950000D02*
X97500000Y-47950000D01*
X95950000Y-45900000D02*
X95950000Y-47950000D01*
X127900000Y-75600000D02*
X127900000Y-71100000D01*
X132500000Y-80200000D02*
X127900000Y-75600000D01*
X97250000Y-80550000D02*
X95900000Y-80550000D01*
X102050000Y-75750000D02*
X97250000Y-80550000D01*
X102050000Y-71100000D02*
X102050000Y-75750000D01*
X97350000Y-66400000D02*
X102050000Y-71100000D01*
X95900000Y-66400000D02*
X97350000Y-66400000D01*
X95900000Y-63300000D02*
X95900000Y-66400000D01*
X97500000Y-61700000D02*
X95900000Y-63300000D01*
X97500000Y-61400000D02*
X97500000Y-61700000D01*
X101750000Y-57150000D02*
X97500000Y-61400000D01*
X107650000Y-56650000D02*
X101750000Y-56650000D01*
X95900000Y-80550000D02*
X95900000Y-82500000D01*
X110150000Y-54150000D02*
X107650000Y-56650000D01*
X112350000Y-53500000D02*
X110150000Y-53500000D01*
X97600000Y-48300000D02*
X98600000Y-47300000D01*
X107700000Y-47300000D02*
X109850000Y-49450000D01*
X95600000Y-45550000D02*
X95600000Y-48300000D01*
X132850000Y-48300000D02*
X132850000Y-45550000D01*
X132750000Y-48300000D02*
X132850000Y-48300000D01*
X128250000Y-52800000D02*
X132750000Y-48300000D01*
X128250000Y-57150000D02*
X128250000Y-52800000D01*
X132850000Y-61700000D02*
X132800000Y-61700000D01*
X132850000Y-66700000D02*
X132850000Y-61700000D01*
X128250000Y-75500000D02*
X128250000Y-71200000D01*
X132850000Y-80100000D02*
X128250000Y-75500000D01*
X132850000Y-82850000D02*
X132850000Y-80100000D01*
X95550000Y-82850000D02*
X132850000Y-82850000D01*
X95550000Y-80200000D02*
X95550000Y-82850000D01*
X101700000Y-75650000D02*
X97150000Y-80200000D01*
X101700000Y-71200000D02*
X101700000Y-75650000D01*
X95550000Y-66750000D02*
X97250000Y-66750000D01*
X95550000Y-63200000D02*
X95550000Y-66750000D01*
X97150000Y-61600000D02*
X95550000Y-63200000D01*
X97150000Y-61300000D02*
X97150000Y-61600000D01*
X101400000Y-57050000D02*
X97150000Y-61300000D01*
X107550000Y-56300000D02*
X101400000Y-56300000D01*
X109800000Y-54050000D02*
X107550000Y-56300000D01*
X109800000Y-53150000D02*
X109800000Y-54050000D01*
X113300000Y-52100000D02*
X112250000Y-53150000D01*
X112250000Y-49800000D02*
X113300000Y-50850000D01*
X98700000Y-47650000D02*
X107600000Y-47650000D01*
X95250000Y-45200000D02*
X95250000Y-48650000D01*
X133200000Y-45200000D02*
X95250000Y-45200000D01*
X133200000Y-48650000D02*
X133200000Y-45200000D01*
X132850000Y-48650000D02*
X133200000Y-48650000D01*
X132900000Y-61350000D02*
X128600000Y-57050000D01*
X133200000Y-61350000D02*
X132900000Y-61350000D01*
X128600000Y-71300000D02*
X132850000Y-67050000D01*
X96250000Y-82150000D02*
X132150000Y-82150000D01*
X128600000Y-75400000D02*
X128600000Y-71300000D01*
X133000000Y-79800000D02*
X128600000Y-75400000D01*
X113300000Y-50850000D02*
X113300000Y-52100000D01*
X133200000Y-79800000D02*
X133000000Y-79800000D01*
X110150000Y-53500000D02*
X110150000Y-54150000D01*
X133200000Y-83200000D02*
X133200000Y-79800000D01*
X95200000Y-79850000D02*
X95200000Y-83200000D01*
X97050000Y-79850000D02*
X95200000Y-79850000D01*
X101400000Y-56300000D02*
X101400000Y-57050000D01*
X101350000Y-75550000D02*
X97050000Y-79850000D01*
X101350000Y-71300000D02*
X101350000Y-75550000D01*
X95200000Y-67100000D02*
X97150000Y-67100000D01*
X128500000Y-69600000D02*
X131800000Y-66300000D01*
X96750000Y-60950000D02*
X96750000Y-61550000D01*
X109450000Y-53950000D02*
X107450000Y-55950000D01*
X121397999Y-46602001D02*
X121395998Y-46600000D01*
X112950000Y-50950000D02*
X112950000Y-52000000D01*
X112150000Y-50150000D02*
X112950000Y-50950000D01*
X109450000Y-50150000D02*
X112150000Y-50150000D01*
X109450000Y-49950000D02*
X109450000Y-50150000D01*
X97800000Y-49000000D02*
X98800000Y-48000000D01*
X94900000Y-49000000D02*
X97800000Y-49000000D01*
X94900000Y-44850000D02*
X94900000Y-49000000D01*
X132150000Y-80300000D02*
X127550000Y-75700000D01*
X132950000Y-49000000D02*
X133550000Y-49000000D01*
X128950000Y-53000000D02*
X132950000Y-49000000D01*
X102400000Y-71000000D02*
X102400000Y-75850000D01*
X128950000Y-56950000D02*
X128950000Y-53000000D01*
X133550000Y-61000000D02*
X133000000Y-61000000D01*
X133550000Y-67400000D02*
X133550000Y-61000000D01*
X132950000Y-67400000D02*
X133550000Y-67400000D01*
X128950000Y-71400000D02*
X132950000Y-67400000D01*
X128950000Y-75300000D02*
X128950000Y-71400000D01*
X96250000Y-63400000D02*
X96250000Y-66050000D01*
X133550000Y-79450000D02*
X133100000Y-79450000D01*
X133550000Y-83550000D02*
X133550000Y-79450000D01*
X107450000Y-55950000D02*
X101050000Y-55950000D01*
X94850000Y-83550000D02*
X133550000Y-83550000D01*
X94850000Y-79500000D02*
X94850000Y-83550000D01*
X97500000Y-47950000D02*
X98500000Y-46950000D01*
X96950000Y-79500000D02*
X94850000Y-79500000D01*
X97050000Y-67450000D02*
X101000000Y-71400000D01*
X94850000Y-67450000D02*
X97050000Y-67450000D01*
X96400000Y-61450000D02*
X94850000Y-63000000D01*
X96400000Y-60600000D02*
X96400000Y-61450000D01*
X96950000Y-60600000D02*
X96400000Y-60600000D01*
X100700000Y-56850000D02*
X96950000Y-60600000D01*
X133550000Y-49000000D02*
X133550000Y-44850000D01*
X100700000Y-55600000D02*
X100700000Y-56850000D01*
X107350000Y-55600000D02*
X100700000Y-55600000D01*
X109100000Y-53850000D02*
X107350000Y-55600000D01*
X109100000Y-52450000D02*
X109100000Y-53850000D01*
X112050000Y-52450000D02*
X109100000Y-52450000D01*
X112050000Y-50500000D02*
X112600000Y-51050000D01*
X109100000Y-50500000D02*
X112050000Y-50500000D01*
X109100000Y-50050000D02*
X109100000Y-50500000D01*
X98900000Y-48350000D02*
X107400000Y-48350000D01*
X94550000Y-49350000D02*
X97900000Y-49350000D01*
X95900000Y-82500000D02*
X132500000Y-82500000D01*
X94550000Y-44500000D02*
X94550000Y-49350000D01*
X133900000Y-44500000D02*
X94550000Y-44500000D01*
X122800000Y-46600000D02*
X122800000Y-46882562D01*
X133900000Y-49350000D02*
X133900000Y-44500000D01*
X132750000Y-66700000D02*
X132850000Y-66700000D01*
X133050000Y-49350000D02*
X133900000Y-49350000D01*
X129300000Y-53100000D02*
X133050000Y-49350000D01*
X127900000Y-52700000D02*
X132500000Y-48100000D01*
X129300000Y-56850000D02*
X129300000Y-53100000D01*
X113650000Y-50750000D02*
X113650000Y-52200000D01*
X133100000Y-60650000D02*
X129300000Y-56850000D01*
X133900000Y-60650000D02*
X133100000Y-60650000D01*
X133900000Y-67750000D02*
X133900000Y-60650000D01*
X133050000Y-67750000D02*
X133900000Y-67750000D01*
X129300000Y-71500000D02*
X133050000Y-67750000D01*
X133200000Y-79100000D02*
X129300000Y-75200000D01*
X108050000Y-53550000D02*
X107050000Y-54550000D01*
X96050000Y-60250000D02*
X96050000Y-61350000D01*
X128600000Y-52900000D02*
X132850000Y-48650000D01*
X107250000Y-55250000D02*
X100350000Y-55250000D01*
X130000000Y-56650000D02*
X130000000Y-53300000D01*
X93250000Y-57450000D02*
X93250000Y-60550000D01*
X99000000Y-48700000D02*
X107300000Y-48700000D01*
X98000000Y-49700000D02*
X99000000Y-48700000D01*
X94200000Y-44150000D02*
X94200000Y-49700000D01*
X134250000Y-49700000D02*
X134250000Y-44150000D01*
X134250000Y-44150000D02*
X94200000Y-44150000D01*
X114000000Y-50650000D02*
X114000000Y-52300000D01*
X134250000Y-68100000D02*
X134250000Y-60300000D01*
X128500000Y-70050000D02*
X132150000Y-66400000D01*
X93850000Y-50050000D02*
X98100000Y-50050000D01*
X133150000Y-68100000D02*
X134250000Y-68100000D01*
X112700000Y-54200000D02*
X110850000Y-54200000D01*
X94650000Y-60950000D02*
X93100000Y-62500000D01*
X107300000Y-48700000D02*
X108750000Y-50150000D01*
X129650000Y-71600000D02*
X133150000Y-68100000D01*
X125850000Y-73250000D02*
X125350000Y-72750000D01*
X132150000Y-66400000D02*
X132150000Y-61950000D01*
X94300000Y-60850000D02*
X92750000Y-62400000D01*
X94150000Y-84250000D02*
X134250000Y-84250000D01*
X108400000Y-46650000D02*
X110150000Y-48400000D01*
X94150000Y-78800000D02*
X94150000Y-84250000D01*
X112250000Y-53150000D02*
X109800000Y-53150000D01*
X96750000Y-78800000D02*
X94150000Y-78800000D01*
X100300000Y-75250000D02*
X96750000Y-78800000D01*
X129300000Y-75200000D02*
X129300000Y-71500000D01*
X94150000Y-62800000D02*
X94150000Y-68150000D01*
X95700000Y-61250000D02*
X94150000Y-62800000D01*
X98950000Y-56350000D02*
X96450000Y-58850000D01*
X134600000Y-84600000D02*
X134600000Y-78400000D01*
X108750000Y-50150000D02*
X108750000Y-53750000D01*
X95700000Y-59900000D02*
X95700000Y-61250000D01*
X96750000Y-59900000D02*
X95700000Y-59900000D01*
X100000000Y-56650000D02*
X96750000Y-59900000D01*
X136350000Y-70200000D02*
X136350000Y-58200000D01*
X99100000Y-49050000D02*
X107200000Y-49050000D01*
X108400000Y-53650000D02*
X107150000Y-54900000D01*
X108400000Y-50250000D02*
X108400000Y-53650000D01*
X96850000Y-79150000D02*
X94500000Y-79150000D01*
X138085490Y-71960246D02*
X138085490Y-56450000D01*
X132100000Y-74400000D02*
X132100000Y-72300000D01*
X136700000Y-76300000D02*
X134000000Y-76300000D01*
X93850000Y-43800000D02*
X93850000Y-50050000D01*
X122170561Y-47512001D02*
X121669439Y-47512001D01*
X98800000Y-48000000D02*
X107500000Y-48000000D01*
X138085490Y-40313010D02*
X90336990Y-40313010D01*
X134600000Y-68450000D02*
X134600000Y-59950000D01*
X138085490Y-56450000D02*
X134351509Y-56450000D01*
X90750000Y-40650000D02*
X90700000Y-40700000D01*
X130000000Y-71700000D02*
X133250000Y-68450000D01*
X97900000Y-53900000D02*
X97900000Y-56050000D01*
X130000000Y-75000000D02*
X130000000Y-71700000D01*
X93500000Y-43450000D02*
X93500000Y-50400000D01*
X133400000Y-78400000D02*
X130000000Y-75000000D01*
X93800000Y-84600000D02*
X134600000Y-84600000D01*
X98100000Y-50050000D02*
X99100000Y-49050000D01*
X93800000Y-78450000D02*
X93800000Y-84600000D01*
X133100000Y-79450000D02*
X128950000Y-75300000D01*
X134250000Y-60300000D02*
X133200000Y-60300000D01*
X99950000Y-71700000D02*
X99950000Y-75150000D01*
X125350000Y-68272438D02*
X126145439Y-67476999D01*
X112350000Y-49450000D02*
X113650000Y-50750000D01*
X95350000Y-59550000D02*
X95350000Y-61150000D01*
X128000000Y-68638438D02*
X128000000Y-69100000D01*
X99650000Y-56550000D02*
X96650000Y-59550000D01*
X92400000Y-69900000D02*
X96350000Y-69900000D01*
X133900000Y-57850000D02*
X132100000Y-56050000D01*
X99650000Y-54550000D02*
X99650000Y-56550000D01*
X133550000Y-69500000D02*
X135650000Y-69500000D01*
X108050000Y-50350000D02*
X108050000Y-53550000D01*
X134250000Y-84250000D02*
X134250000Y-78750000D01*
X99200000Y-49400000D02*
X107100000Y-49400000D01*
X90336990Y-41186990D02*
X90350000Y-41200000D01*
X134950000Y-50400000D02*
X134950000Y-43450000D01*
X133350000Y-50400000D02*
X134950000Y-50400000D01*
X130350000Y-53400000D02*
X133350000Y-50400000D01*
X107900000Y-46600000D02*
X110050000Y-48750000D01*
X90329510Y-74950000D02*
X90329510Y-88068990D01*
X136350000Y-86350000D02*
X136350000Y-76650000D01*
X134950000Y-68800000D02*
X134950000Y-59600000D01*
X135650000Y-51100000D02*
X135650000Y-42750000D01*
X133350000Y-68800000D02*
X134950000Y-68800000D01*
X130350000Y-74900000D02*
X130350000Y-71800000D01*
X107050000Y-54550000D02*
X99650000Y-54550000D01*
X133500000Y-78050000D02*
X130350000Y-74900000D01*
X134950000Y-84950000D02*
X134950000Y-78050000D01*
X107500000Y-48000000D02*
X109450000Y-49950000D01*
X93450000Y-84950000D02*
X134950000Y-84950000D01*
X131800000Y-62050000D02*
X127200000Y-57450000D01*
X99600000Y-75050000D02*
X96550000Y-78100000D01*
X115076001Y-51823999D02*
X112700000Y-54200000D01*
X134000000Y-76300000D02*
X132100000Y-74400000D01*
X99600000Y-71800000D02*
X99600000Y-75050000D01*
X96650000Y-68850000D02*
X99600000Y-71800000D01*
X96950000Y-67800000D02*
X100650000Y-71500000D01*
X97400000Y-47600000D02*
X98400000Y-46600000D01*
X132450000Y-54000000D02*
X133950000Y-52500000D01*
X95000000Y-61050000D02*
X93450000Y-62600000D01*
X96550000Y-59200000D02*
X95000000Y-59200000D01*
X109750000Y-49800000D02*
X112250000Y-49800000D01*
X95250000Y-48650000D02*
X97700000Y-48650000D01*
X99300000Y-56450000D02*
X96550000Y-59200000D01*
X99300000Y-54200000D02*
X99300000Y-56450000D01*
X122800000Y-46882562D02*
X122170561Y-47512001D01*
X94850000Y-63000000D02*
X94850000Y-67450000D01*
X106954396Y-49718990D02*
X107729510Y-50494104D01*
X110850000Y-54200000D02*
X110850000Y-54350000D01*
X133300000Y-78750000D02*
X129650000Y-75100000D01*
X132500000Y-66500000D02*
X132500000Y-61850000D01*
X91000000Y-71300000D02*
X95950000Y-71300000D01*
X99331010Y-49718990D02*
X106954396Y-49718990D01*
X92050000Y-86350000D02*
X136350000Y-86350000D01*
X98300000Y-50750000D02*
X99331010Y-49718990D01*
X132100000Y-56050000D02*
X132100000Y-53900000D01*
X93150000Y-50750000D02*
X98300000Y-50750000D01*
X100650000Y-75350000D02*
X96850000Y-79150000D01*
X102750000Y-70900000D02*
X102750000Y-75950000D01*
X133300000Y-59950000D02*
X130000000Y-56650000D01*
X131750000Y-53800000D02*
X133750000Y-51800000D01*
X97550000Y-54000000D02*
X97550000Y-55950000D01*
X107729510Y-50494104D02*
X107729510Y-53402367D01*
X93150000Y-43100000D02*
X93150000Y-50750000D01*
X135300000Y-50750000D02*
X135300000Y-43100000D01*
X101750000Y-56650000D02*
X101750000Y-57150000D01*
X133400000Y-59600000D02*
X130350000Y-56550000D01*
X131800000Y-66300000D02*
X131800000Y-62050000D01*
X133450000Y-50750000D02*
X135300000Y-50750000D01*
X90329510Y-72029510D02*
X90392833Y-71966187D01*
X93600000Y-60650000D02*
X92050000Y-62200000D01*
X130700000Y-53500000D02*
X133450000Y-50750000D01*
X134200000Y-53200000D02*
X137750000Y-53200000D01*
X130700000Y-56450000D02*
X130700000Y-53500000D01*
X92100000Y-51800000D02*
X96250000Y-51800000D01*
X135300000Y-59250000D02*
X133500000Y-59250000D01*
X95950000Y-71300000D02*
X97150000Y-72500000D01*
X135300000Y-69150000D02*
X135300000Y-59250000D01*
X130700000Y-71900000D02*
X133450000Y-69150000D01*
X127714499Y-69264499D02*
X128500000Y-70050000D01*
X92400000Y-86000000D02*
X136000000Y-86000000D01*
X96850000Y-68150000D02*
X100300000Y-71600000D01*
X130700000Y-74800000D02*
X130700000Y-71900000D01*
X131050000Y-53600000D02*
X133550000Y-51100000D01*
X135300000Y-85300000D02*
X135300000Y-77700000D01*
X93100000Y-85300000D02*
X135300000Y-85300000D01*
X96450000Y-77750000D02*
X93100000Y-77750000D01*
X94500000Y-67800000D02*
X96950000Y-67800000D01*
X133250000Y-50050000D02*
X134600000Y-50050000D01*
X90329510Y-59530490D02*
X90329510Y-72029510D01*
X99250000Y-74950000D02*
X96450000Y-77750000D01*
X99250000Y-71900000D02*
X99250000Y-74950000D01*
X101000000Y-75450000D02*
X96950000Y-79500000D01*
X96350000Y-51450000D02*
X98600000Y-53700000D01*
X96550000Y-69200000D02*
X99250000Y-71900000D01*
X90392833Y-71966187D02*
X95705566Y-71966187D01*
X93450000Y-68850000D02*
X96650000Y-68850000D01*
X132500000Y-48100000D02*
X132500000Y-45900000D01*
X93100000Y-69200000D02*
X96550000Y-69200000D01*
X92100000Y-56350000D02*
X92100000Y-60300000D01*
X93100000Y-62500000D02*
X93100000Y-69200000D01*
X97150000Y-80200000D02*
X95550000Y-80200000D01*
X96450000Y-58850000D02*
X94650000Y-58850000D01*
X107729510Y-53402367D02*
X106931877Y-54200000D01*
X91750000Y-41700000D02*
X91750000Y-52150000D01*
X98950000Y-53600000D02*
X98950000Y-56350000D01*
X96450000Y-51100000D02*
X98950000Y-53600000D01*
X92800000Y-51100000D02*
X96450000Y-51100000D01*
X94650000Y-58850000D02*
X94650000Y-60950000D01*
X134950000Y-59600000D02*
X133400000Y-59600000D01*
X92800000Y-42750000D02*
X92800000Y-51100000D01*
X132800000Y-61700000D02*
X128250000Y-57150000D01*
X94150000Y-68150000D02*
X96850000Y-68150000D01*
X135650000Y-42750000D02*
X92800000Y-42750000D01*
X135300000Y-77700000D02*
X133600000Y-77700000D01*
X131050000Y-56350000D02*
X131050000Y-53600000D01*
X135650000Y-69500000D02*
X135650000Y-58900000D01*
X112950000Y-52000000D02*
X112150000Y-52800000D01*
X133200000Y-60300000D02*
X129650000Y-56750000D01*
X131050000Y-74700000D02*
X131050000Y-72000000D01*
X133700000Y-77350000D02*
X131050000Y-74700000D01*
X131800000Y-81800000D02*
X131800000Y-80400000D01*
X92750000Y-85650000D02*
X135650000Y-85650000D01*
X94500000Y-83900000D02*
X133900000Y-83900000D01*
X94500000Y-79150000D02*
X94500000Y-83900000D01*
X92750000Y-77400000D02*
X92750000Y-85650000D01*
X96350000Y-77400000D02*
X92750000Y-77400000D01*
X137750000Y-40650000D02*
X90750000Y-40650000D01*
X98900000Y-74850000D02*
X96350000Y-77400000D01*
X90350000Y-53550000D02*
X95681491Y-53550000D01*
X96450000Y-69550000D02*
X98900000Y-72000000D01*
X92750000Y-62400000D02*
X92750000Y-69550000D01*
X97450000Y-81250000D02*
X96600000Y-81250000D01*
X134250000Y-78750000D02*
X133300000Y-78750000D01*
X107600000Y-47650000D02*
X109750000Y-49800000D01*
X94300000Y-58500000D02*
X94300000Y-60850000D01*
X97350000Y-80900000D02*
X96250000Y-80900000D01*
X96350000Y-58500000D02*
X94300000Y-58500000D01*
X133550000Y-51100000D02*
X135650000Y-51100000D01*
X98600000Y-53700000D02*
X98600000Y-56250000D01*
X98200000Y-50400000D02*
X99200000Y-49400000D01*
X92450000Y-51450000D02*
X96350000Y-51450000D01*
X95850000Y-71650000D02*
X96850000Y-72650000D01*
X99950000Y-75150000D02*
X96650000Y-78450000D01*
X95200000Y-83200000D02*
X133200000Y-83200000D01*
X131400000Y-53700000D02*
X133650000Y-51450000D01*
X131400000Y-56250000D02*
X131400000Y-53700000D01*
X97850000Y-72300000D02*
X97850000Y-74550000D01*
X136000000Y-69850000D02*
X136000000Y-58550000D01*
X92900000Y-60450000D02*
X91350000Y-62000000D01*
X133600000Y-77700000D02*
X130700000Y-74800000D01*
X133650000Y-69850000D02*
X136000000Y-69850000D01*
X133800000Y-77000000D02*
X131400000Y-74600000D01*
X107850000Y-57350000D02*
X102450000Y-57350000D01*
X136000000Y-86000000D02*
X136000000Y-77000000D01*
X133000000Y-61000000D02*
X128950000Y-56950000D01*
X96250000Y-77050000D02*
X92400000Y-77050000D01*
X98550000Y-74750000D02*
X96250000Y-77050000D01*
X91400000Y-41350000D02*
X91400000Y-52500000D01*
X98550000Y-72100000D02*
X98550000Y-74750000D01*
X133150000Y-49700000D02*
X134250000Y-49700000D01*
X93450000Y-78100000D02*
X93450000Y-84950000D01*
X92400000Y-62300000D02*
X92400000Y-69900000D01*
X128600000Y-57050000D02*
X128600000Y-52900000D01*
X98250000Y-56150000D02*
X96250000Y-58150000D01*
X110850000Y-54350000D02*
X107850000Y-57350000D01*
X130000000Y-53300000D02*
X133250000Y-50050000D01*
X96250000Y-58150000D02*
X93950000Y-58150000D01*
X136350000Y-51800000D02*
X136350000Y-42050000D01*
X96250000Y-51800000D02*
X98250000Y-53800000D01*
X91350000Y-87050000D02*
X137050000Y-87050000D01*
X132150000Y-82150000D02*
X132150000Y-80300000D01*
X102400000Y-75850000D02*
X97350000Y-80900000D01*
X133800000Y-58200000D02*
X131750000Y-56150000D01*
X112600000Y-51050000D02*
X112600000Y-51900000D01*
X136350000Y-58200000D02*
X133800000Y-58200000D01*
X96050000Y-61350000D02*
X94500000Y-62900000D01*
X131750000Y-74500000D02*
X131750000Y-72200000D01*
X113650000Y-52200000D02*
X112350000Y-53500000D01*
X131400000Y-74600000D02*
X131400000Y-72100000D01*
X137050000Y-41350000D02*
X91400000Y-41350000D01*
X96250000Y-66050000D02*
X97450000Y-66050000D01*
X96750000Y-61550000D02*
X95200000Y-63100000D01*
X93950000Y-58150000D02*
X93950000Y-60750000D01*
X127900000Y-71100000D02*
X132500000Y-66500000D01*
X135300000Y-43100000D02*
X93150000Y-43100000D01*
X91350000Y-62000000D02*
X91350000Y-70950000D01*
X98200000Y-72200000D02*
X98200000Y-74650000D01*
X93600000Y-57800000D02*
X93600000Y-60650000D01*
X133900000Y-76650000D02*
X131750000Y-74500000D01*
X91750000Y-52150000D02*
X96150000Y-52150000D01*
X136700000Y-41700000D02*
X91750000Y-41700000D01*
X98900000Y-72000000D02*
X98900000Y-74850000D01*
X132100000Y-53900000D02*
X133850000Y-52150000D01*
X107200000Y-49050000D02*
X108400000Y-50250000D01*
X98250000Y-53800000D02*
X98250000Y-56150000D01*
X136350000Y-42050000D02*
X92100000Y-42050000D01*
X98200000Y-74650000D02*
X96150000Y-76700000D01*
X100350000Y-55250000D02*
X100350000Y-56750000D01*
X134300000Y-75250000D02*
X133150000Y-74100000D01*
X136700000Y-57850000D02*
X133900000Y-57850000D01*
X136700000Y-70550000D02*
X136700000Y-57850000D01*
X132100000Y-72300000D02*
X133850000Y-70550000D01*
X95697678Y-56415812D02*
X92165812Y-56415812D01*
X97550000Y-55950000D02*
X96050000Y-57450000D01*
X136700000Y-86700000D02*
X136700000Y-76300000D01*
X96750000Y-68500000D02*
X99950000Y-71700000D01*
X97850000Y-74550000D02*
X96050000Y-76350000D01*
X92750000Y-69550000D02*
X96450000Y-69550000D01*
X134393112Y-74900000D02*
X133481611Y-73988499D01*
X134600000Y-59950000D02*
X133300000Y-59950000D01*
X101000000Y-71400000D02*
X101000000Y-75450000D01*
X91700000Y-70600000D02*
X96150000Y-70600000D01*
X132450000Y-74300000D02*
X132450000Y-72400000D01*
X137400000Y-71250000D02*
X137400000Y-57150000D01*
X109850000Y-49450000D02*
X112350000Y-49450000D01*
X96150000Y-70600000D02*
X97850000Y-72300000D01*
X132450000Y-55950000D02*
X132450000Y-54000000D01*
X93800000Y-68500000D02*
X96750000Y-68500000D01*
X95000000Y-59200000D02*
X95000000Y-61050000D01*
X134000000Y-57500000D02*
X132450000Y-55950000D01*
X133200000Y-67050000D02*
X133200000Y-61350000D01*
X133150000Y-54250000D02*
X134200000Y-53200000D01*
X134050000Y-52850000D02*
X137400000Y-52850000D01*
X96850000Y-72650000D02*
X96850000Y-74150000D01*
X137050000Y-57500000D02*
X134000000Y-57500000D01*
X107150000Y-54900000D02*
X100000000Y-54900000D01*
X93950000Y-60750000D02*
X92400000Y-62300000D01*
X96550000Y-78100000D02*
X93450000Y-78100000D01*
X95800000Y-75650000D02*
X91000000Y-75650000D01*
X137050000Y-70900000D02*
X137050000Y-57500000D01*
X93500000Y-50400000D02*
X98200000Y-50400000D01*
X134100000Y-57150000D02*
X132800000Y-55850000D01*
X133950000Y-70900000D02*
X137050000Y-70900000D01*
X132450000Y-72400000D02*
X133950000Y-70900000D01*
X137050000Y-75950000D02*
X134100000Y-75950000D01*
X137750000Y-53200000D02*
X137750000Y-40650000D01*
X96850000Y-55750000D02*
X95850000Y-56750000D01*
X92050000Y-62200000D02*
X92050000Y-70250000D01*
X134100000Y-71250000D02*
X137400000Y-71250000D01*
X137050000Y-87050000D02*
X137050000Y-75950000D01*
X91350000Y-76000000D02*
X91350000Y-87050000D01*
X97500000Y-74450000D02*
X95950000Y-76000000D01*
X133550000Y-44850000D02*
X94900000Y-44850000D01*
X95950000Y-76000000D02*
X91350000Y-76000000D01*
X92400000Y-77050000D02*
X92400000Y-86000000D01*
X115400000Y-49900000D02*
X115400000Y-51950000D01*
X96050000Y-70950000D02*
X97500000Y-72400000D01*
X97900000Y-56050000D02*
X96150000Y-57800000D01*
X137750000Y-75250000D02*
X134300000Y-75250000D01*
X131750000Y-56150000D02*
X131750000Y-53800000D01*
X98600000Y-47300000D02*
X107700000Y-47300000D01*
X137750000Y-71600000D02*
X137750000Y-56800000D01*
X127900000Y-57250000D02*
X127900000Y-52700000D01*
X138085490Y-53600000D02*
X138085490Y-40313010D01*
X107950000Y-57700000D02*
X102550000Y-57700000D01*
X131750000Y-72200000D02*
X133750000Y-70200000D01*
X95950000Y-57100000D02*
X92900000Y-57100000D01*
X97200000Y-55850000D02*
X95950000Y-57100000D01*
X133500000Y-59250000D02*
X130700000Y-56450000D01*
X95900000Y-52850000D02*
X97200000Y-54150000D01*
X97150000Y-72500000D02*
X97150000Y-74300000D01*
X91050000Y-41050000D02*
X91050000Y-52850000D01*
X136700000Y-52150000D02*
X136700000Y-41700000D01*
X91100000Y-41000000D02*
X91050000Y-41050000D01*
X131800000Y-46600000D02*
X122800000Y-46600000D01*
X91000000Y-87400000D02*
X137400000Y-87400000D01*
X137400000Y-41000000D02*
X91100000Y-41000000D01*
X133750000Y-70200000D02*
X136350000Y-70200000D01*
X132800000Y-54100000D02*
X134050000Y-52850000D01*
X133481611Y-72801897D02*
X134323262Y-71960246D01*
X134250000Y-56800000D02*
X133150000Y-55700000D01*
X132800000Y-55850000D02*
X132800000Y-54100000D01*
X107400000Y-48350000D02*
X109100000Y-50050000D01*
X92500000Y-60350000D02*
X91000000Y-61850000D01*
X96150000Y-76700000D02*
X92050000Y-76700000D01*
X136000000Y-42400000D02*
X92450000Y-42400000D01*
X137400000Y-57150000D02*
X134100000Y-57150000D01*
X133900000Y-79100000D02*
X133200000Y-79100000D01*
X134950000Y-43450000D02*
X93500000Y-43450000D01*
X94500000Y-62900000D02*
X94500000Y-67800000D01*
X106931877Y-54200000D02*
X99300000Y-54200000D01*
X91050000Y-52850000D02*
X95900000Y-52850000D01*
X137050000Y-52500000D02*
X137050000Y-41350000D01*
X93450000Y-62600000D02*
X93450000Y-68850000D01*
X131400000Y-72100000D02*
X133650000Y-69850000D01*
X95350000Y-61150000D02*
X93800000Y-62700000D01*
X96538253Y-73976762D02*
X95565015Y-74950000D01*
X112450000Y-53850000D02*
X110500000Y-53850000D01*
X96650000Y-59550000D02*
X95350000Y-59550000D01*
X129650000Y-56750000D02*
X129650000Y-53200000D01*
X129650000Y-53200000D02*
X133150000Y-49700000D01*
X96850000Y-74150000D02*
X95700000Y-75300000D01*
X98600000Y-56250000D02*
X96350000Y-58500000D01*
X90700000Y-53200000D02*
X95800000Y-53200000D01*
X132800000Y-72550000D02*
X134100000Y-71250000D01*
X95600000Y-48300000D02*
X97600000Y-48300000D01*
X96050000Y-57450000D02*
X93250000Y-57450000D01*
X90329510Y-88068990D02*
X138085490Y-88068990D01*
X93800000Y-62700000D02*
X93800000Y-68500000D01*
X96050000Y-52500000D02*
X97550000Y-54000000D01*
X137400000Y-75600000D02*
X134200000Y-75600000D01*
X135650000Y-85650000D02*
X135650000Y-77350000D01*
X125700000Y-72624562D02*
X125700000Y-70313938D01*
X95705566Y-71966187D02*
X96538253Y-72798874D01*
X137400000Y-87400000D02*
X137400000Y-75600000D01*
X96050000Y-76350000D02*
X91700000Y-76350000D01*
X91000000Y-75650000D02*
X91000000Y-87400000D01*
X132800000Y-74200000D02*
X132800000Y-72550000D01*
X133650000Y-51450000D02*
X136000000Y-51450000D01*
X96150000Y-52150000D02*
X97900000Y-53900000D01*
X96538253Y-55575237D02*
X95697678Y-56415812D01*
X133150000Y-72650000D02*
X134200000Y-71600000D01*
X133482687Y-55581178D02*
X133482687Y-54392933D01*
X96850000Y-54250000D02*
X96850000Y-55750000D01*
X134100000Y-75950000D02*
X132450000Y-74300000D01*
X109450000Y-52800000D02*
X109450000Y-53950000D01*
X95800000Y-53200000D02*
X96850000Y-54250000D01*
X100300000Y-71600000D02*
X100300000Y-75250000D01*
X92050000Y-70250000D02*
X96250000Y-70250000D01*
X108750000Y-53750000D02*
X107250000Y-55250000D01*
X93250000Y-60550000D02*
X91700000Y-62100000D01*
X91400000Y-52500000D02*
X96050000Y-52500000D01*
X134950000Y-78050000D02*
X133500000Y-78050000D01*
X134200000Y-75600000D02*
X132800000Y-74200000D01*
X91350000Y-70950000D02*
X96050000Y-70950000D01*
X100000000Y-54900000D02*
X100000000Y-56650000D01*
X90700000Y-40700000D02*
X90700000Y-53200000D01*
X127550000Y-52600000D02*
X132150000Y-48000000D01*
X96350000Y-69900000D02*
X98550000Y-72100000D01*
X107100000Y-49400000D02*
X108050000Y-50350000D01*
X133150000Y-55700000D02*
X133150000Y-54250000D01*
X132500000Y-61850000D02*
X127900000Y-57250000D01*
X91700000Y-86700000D02*
X136700000Y-86700000D01*
X133900000Y-83900000D02*
X133900000Y-79100000D01*
X133150000Y-74100000D02*
X133150000Y-72650000D01*
X97150000Y-67100000D02*
X101350000Y-71300000D01*
X137750000Y-56800000D02*
X134250000Y-56800000D01*
X97050000Y-60950000D02*
X96750000Y-60950000D01*
X136000000Y-51450000D02*
X136000000Y-42400000D01*
X92165812Y-56415812D02*
X92100000Y-56350000D01*
X136350000Y-76650000D02*
X133900000Y-76650000D01*
X134600000Y-78400000D02*
X133400000Y-78400000D01*
X135650000Y-58900000D02*
X133600000Y-58900000D01*
X135650000Y-77350000D02*
X133700000Y-77350000D01*
X136000000Y-58550000D02*
X133700000Y-58550000D01*
X115400000Y-51950000D02*
X112800000Y-54550000D01*
X107800000Y-46950000D02*
X109950000Y-49100000D01*
X90336990Y-40313010D02*
X90336990Y-41186990D01*
X96850000Y-60250000D02*
X96050000Y-60250000D01*
X134315374Y-53560246D02*
X138045736Y-53560246D01*
X132850000Y-45550000D02*
X95600000Y-45550000D01*
X136000000Y-77000000D02*
X133800000Y-77000000D01*
X127200000Y-52500000D02*
X131800000Y-47900000D01*
X132500000Y-45900000D02*
X95950000Y-45900000D01*
X91000000Y-61850000D02*
X91000000Y-71300000D01*
X134600000Y-50050000D02*
X134600000Y-43800000D01*
X133600000Y-58900000D02*
X131050000Y-56350000D01*
X110500000Y-53850000D02*
X110500000Y-54250000D01*
X131050000Y-72000000D02*
X133550000Y-69500000D01*
X134200000Y-71600000D02*
X137750000Y-71600000D01*
X112150000Y-52800000D02*
X109450000Y-52800000D01*
X130350000Y-56550000D02*
X130350000Y-53400000D01*
X92900000Y-57100000D02*
X92900000Y-60450000D01*
X92450000Y-42400000D02*
X92450000Y-51450000D01*
X96538253Y-72798874D02*
X96538253Y-73976762D01*
X133950000Y-52500000D02*
X137050000Y-52500000D01*
X96250000Y-70250000D02*
X98200000Y-72200000D01*
X127200000Y-74400000D02*
X126050000Y-73250000D01*
X132850000Y-67050000D02*
X133200000Y-67050000D01*
X133450000Y-69150000D02*
X135300000Y-69150000D01*
X95200000Y-63100000D02*
X95200000Y-67100000D01*
X97900000Y-49350000D02*
X98900000Y-48350000D01*
X133482687Y-54392933D02*
X134315374Y-53560246D01*
X133750000Y-51800000D02*
X136350000Y-51800000D01*
X91700000Y-76350000D02*
X91700000Y-86700000D01*
X127550000Y-75700000D02*
X127550000Y-73950000D01*
X138085490Y-88068990D02*
X138085490Y-74900000D01*
X137750000Y-87750000D02*
X137750000Y-75250000D01*
X97250000Y-66750000D02*
X101700000Y-71200000D01*
X133850000Y-70550000D02*
X136700000Y-70550000D01*
X102100000Y-57250000D02*
X97850000Y-61500000D01*
X134600000Y-43800000D02*
X93850000Y-43800000D01*
X137400000Y-52850000D02*
X137400000Y-41000000D01*
X96300000Y-46250000D02*
X96300000Y-47600000D01*
X129650000Y-75100000D02*
X129650000Y-71600000D01*
X128250000Y-71200000D02*
X132750000Y-66700000D01*
X90650000Y-87750000D02*
X137750000Y-87750000D01*
X112800000Y-54550000D02*
X111100000Y-54550000D01*
X90650000Y-75300000D02*
X90650000Y-87750000D01*
X133250000Y-68450000D02*
X134600000Y-68450000D01*
X133700000Y-58550000D02*
X131400000Y-56250000D01*
X101050000Y-55950000D02*
X101050000Y-56950000D01*
X95700000Y-75300000D02*
X90650000Y-75300000D01*
X126749439Y-69264499D02*
X127714499Y-69264499D01*
X95850000Y-56750000D02*
X92500000Y-56750000D01*
X91440000Y-58420000D02*
X90329510Y-59530490D01*
X94200000Y-49700000D02*
X98000000Y-49700000D01*
X133481611Y-73988499D02*
X133481611Y-72801897D01*
X92100000Y-60300000D02*
X90650000Y-61750000D01*
X92100000Y-42050000D02*
X92100000Y-51800000D01*
X101050000Y-56950000D02*
X97050000Y-60950000D01*
X97500000Y-72400000D02*
X97500000Y-74450000D01*
X96150000Y-57800000D02*
X93600000Y-57800000D01*
X95681491Y-53550000D02*
X96538253Y-54406762D01*
X92500000Y-56750000D02*
X92500000Y-60350000D01*
X132500000Y-82500000D02*
X132500000Y-80200000D01*
X96538253Y-54406762D02*
X96538253Y-55575237D01*
X98550000Y-61700000D02*
X98550000Y-62609000D01*
X90350000Y-41200000D02*
X90350000Y-53550000D01*
X93100000Y-77750000D02*
X93100000Y-85300000D01*
X138085490Y-74900000D02*
X134393112Y-74900000D01*
X100350000Y-56750000D02*
X96850000Y-60250000D01*
X95565015Y-74950000D02*
X90329510Y-74950000D01*
X90650000Y-71650000D02*
X95850000Y-71650000D01*
X97700000Y-48650000D02*
X98700000Y-47650000D01*
X138045736Y-53560246D02*
X138085490Y-53600000D01*
X112600000Y-51900000D02*
X112050000Y-52450000D01*
X134351509Y-56450000D02*
X133482687Y-55581178D01*
X100650000Y-71500000D02*
X100650000Y-75350000D01*
X134323262Y-71960246D02*
X138085490Y-71960246D01*
X133850000Y-52150000D02*
X136700000Y-52150000D01*
X92050000Y-76700000D02*
X92050000Y-86350000D01*
X130350000Y-71800000D02*
X133350000Y-68800000D01*
X97200000Y-54150000D02*
X97200000Y-55850000D01*
X96650000Y-78450000D02*
X93800000Y-78450000D01*
X109950000Y-49100000D02*
X112450000Y-49100000D01*
X97150000Y-74300000D02*
X95800000Y-75650000D01*
X91700000Y-62100000D02*
X91700000Y-70600000D01*
X90650000Y-61750000D02*
X90650000Y-71650000D01*
D16*
G36*
X124161550Y-71051203D02*
X124153017Y-71047668D01*
X124061934Y-71029550D01*
X123969066Y-71029550D01*
X123877983Y-71047668D01*
X123792185Y-71083207D01*
X123714968Y-71134801D01*
X123649301Y-71200468D01*
X123597707Y-71277685D01*
X123562168Y-71363483D01*
X123544050Y-71454566D01*
X123544050Y-71547434D01*
X123562168Y-71638517D01*
X123597707Y-71724315D01*
X123649301Y-71801532D01*
X123714968Y-71867199D01*
X123792185Y-71918793D01*
X123877983Y-71954332D01*
X123969066Y-71972450D01*
X124061934Y-71972450D01*
X124131632Y-71958586D01*
X122472613Y-73679050D01*
X104558630Y-73679050D01*
X104506429Y-73646354D01*
X104473733Y-73679050D01*
X104276167Y-73679050D01*
X104407646Y-73547571D01*
X104350938Y-73457033D01*
X104230518Y-73402325D01*
X104101740Y-73372161D01*
X103969550Y-73367701D01*
X103839031Y-73389115D01*
X103715197Y-73435580D01*
X103675062Y-73457033D01*
X103618354Y-73547571D01*
X103749833Y-73679050D01*
X103552267Y-73679050D01*
X103519571Y-73646354D01*
X103467370Y-73679050D01*
X103016450Y-73679050D01*
X103016450Y-71581566D01*
X105192550Y-71581566D01*
X105192550Y-71674434D01*
X105210668Y-71765517D01*
X105246207Y-71851315D01*
X105297801Y-71928532D01*
X105363468Y-71994199D01*
X105440685Y-72045793D01*
X105526483Y-72081332D01*
X105617566Y-72099450D01*
X105710434Y-72099450D01*
X105801517Y-72081332D01*
X105887315Y-72045793D01*
X105964532Y-71994199D01*
X106030199Y-71928532D01*
X106081793Y-71851315D01*
X106117332Y-71765517D01*
X106135450Y-71674434D01*
X106135450Y-71581566D01*
X106117332Y-71490483D01*
X106081793Y-71404685D01*
X106030199Y-71327468D01*
X105964532Y-71261801D01*
X105887315Y-71210207D01*
X105801517Y-71174668D01*
X105710434Y-71156550D01*
X105617566Y-71156550D01*
X105526483Y-71174668D01*
X105440685Y-71210207D01*
X105363468Y-71261801D01*
X105297801Y-71327468D01*
X105246207Y-71404685D01*
X105210668Y-71490483D01*
X105192550Y-71581566D01*
X103016450Y-71581566D01*
X103016450Y-70913089D01*
X103017739Y-70900000D01*
X103012595Y-70847767D01*
X102997359Y-70797540D01*
X102986584Y-70777383D01*
X102972617Y-70751252D01*
X102956150Y-70731188D01*
X102947662Y-70720844D01*
X102947659Y-70720841D01*
X102939320Y-70710680D01*
X102929159Y-70702341D01*
X102347884Y-70121066D01*
X122845550Y-70121066D01*
X122845550Y-70213934D01*
X122863668Y-70305017D01*
X122899207Y-70390815D01*
X122950801Y-70468032D01*
X123016468Y-70533699D01*
X123093685Y-70585293D01*
X123179483Y-70620832D01*
X123270566Y-70638950D01*
X123363434Y-70638950D01*
X123454517Y-70620832D01*
X123540315Y-70585293D01*
X123617532Y-70533699D01*
X123683199Y-70468032D01*
X123734793Y-70390815D01*
X123770332Y-70305017D01*
X123788450Y-70213934D01*
X123788450Y-70121066D01*
X123770332Y-70029983D01*
X123734793Y-69944185D01*
X123683199Y-69866968D01*
X123617532Y-69801301D01*
X123540315Y-69749707D01*
X123454517Y-69714168D01*
X123363434Y-69696050D01*
X123270566Y-69696050D01*
X123179483Y-69714168D01*
X123093685Y-69749707D01*
X123016468Y-69801301D01*
X122950801Y-69866968D01*
X122899207Y-69944185D01*
X122863668Y-70029983D01*
X122845550Y-70121066D01*
X102347884Y-70121066D01*
X100818950Y-68592133D01*
X100818950Y-66757279D01*
X100820711Y-66755566D01*
X101763550Y-66755566D01*
X101763550Y-66848434D01*
X101781668Y-66939517D01*
X101817207Y-67025315D01*
X101868801Y-67102532D01*
X101885769Y-67119500D01*
X101868801Y-67136468D01*
X101817207Y-67213685D01*
X101781668Y-67299483D01*
X101763550Y-67390566D01*
X101763550Y-67483434D01*
X101781668Y-67574517D01*
X101817207Y-67660315D01*
X101868801Y-67737532D01*
X101934468Y-67803199D01*
X102011685Y-67854793D01*
X102097483Y-67890332D01*
X102188566Y-67908450D01*
X102281434Y-67908450D01*
X102372517Y-67890332D01*
X102458315Y-67854793D01*
X102535532Y-67803199D01*
X102601199Y-67737532D01*
X102652793Y-67660315D01*
X102688332Y-67574517D01*
X102706450Y-67483434D01*
X102706450Y-67390566D01*
X102688332Y-67299483D01*
X102652793Y-67213685D01*
X102601199Y-67136468D01*
X102584231Y-67119500D01*
X102601199Y-67102532D01*
X102652793Y-67025315D01*
X102688332Y-66939517D01*
X102706450Y-66848434D01*
X102706450Y-66846222D01*
X109172710Y-66846222D01*
X109172710Y-66939090D01*
X109190828Y-67030173D01*
X109226367Y-67115971D01*
X109277961Y-67193188D01*
X109343628Y-67258855D01*
X109420845Y-67310449D01*
X109506643Y-67345988D01*
X109597726Y-67364106D01*
X109690594Y-67364106D01*
X109781677Y-67345988D01*
X109867475Y-67310449D01*
X109944692Y-67258855D01*
X110010359Y-67193188D01*
X110061953Y-67115971D01*
X110097492Y-67030173D01*
X110115610Y-66939090D01*
X110115610Y-66846222D01*
X110097492Y-66755139D01*
X110061953Y-66669341D01*
X110010359Y-66592124D01*
X109944692Y-66526457D01*
X109867475Y-66474863D01*
X109781677Y-66439324D01*
X109690594Y-66421206D01*
X109597726Y-66421206D01*
X109506643Y-66439324D01*
X109420845Y-66474863D01*
X109343628Y-66526457D01*
X109277961Y-66592124D01*
X109226367Y-66669341D01*
X109190828Y-66755139D01*
X109172710Y-66846222D01*
X102706450Y-66846222D01*
X102706450Y-66755566D01*
X102688332Y-66664483D01*
X102652793Y-66578685D01*
X102601199Y-66501468D01*
X102535532Y-66435801D01*
X102458315Y-66384207D01*
X102372517Y-66348668D01*
X102281434Y-66330550D01*
X102188566Y-66330550D01*
X102097483Y-66348668D01*
X102011685Y-66384207D01*
X101934468Y-66435801D01*
X101868801Y-66501468D01*
X101817207Y-66578685D01*
X101781668Y-66664483D01*
X101763550Y-66755566D01*
X100820711Y-66755566D01*
X101277911Y-66311066D01*
X119607050Y-66311066D01*
X119607050Y-66403934D01*
X119625168Y-66495017D01*
X119660707Y-66580815D01*
X119712301Y-66658032D01*
X119777968Y-66723699D01*
X119855185Y-66775293D01*
X119940983Y-66810832D01*
X120032066Y-66828950D01*
X120124934Y-66828950D01*
X120216017Y-66810832D01*
X120301815Y-66775293D01*
X120379032Y-66723699D01*
X120444699Y-66658032D01*
X120496293Y-66580815D01*
X120531832Y-66495017D01*
X120549950Y-66403934D01*
X120549950Y-66311066D01*
X120531832Y-66219983D01*
X120496293Y-66134185D01*
X120444699Y-66056968D01*
X120379032Y-65991301D01*
X120301815Y-65939707D01*
X120216017Y-65904168D01*
X120124934Y-65886050D01*
X120032066Y-65886050D01*
X119940983Y-65904168D01*
X119855185Y-65939707D01*
X119777968Y-65991301D01*
X119712301Y-66056968D01*
X119660707Y-66134185D01*
X119625168Y-66219983D01*
X119607050Y-66311066D01*
X101277911Y-66311066D01*
X103091485Y-64547870D01*
X103097107Y-64541213D01*
X103101323Y-64533587D01*
X103103969Y-64525285D01*
X103104950Y-64516000D01*
X103104950Y-64069999D01*
X106399628Y-64069999D01*
X106399628Y-64162867D01*
X106417746Y-64253950D01*
X106453285Y-64339748D01*
X106504879Y-64416965D01*
X106570546Y-64482632D01*
X106647763Y-64534226D01*
X106733561Y-64569765D01*
X106824644Y-64587883D01*
X106917512Y-64587883D01*
X107008595Y-64569765D01*
X107094393Y-64534226D01*
X107171610Y-64482632D01*
X107237277Y-64416965D01*
X107288871Y-64339748D01*
X107324410Y-64253950D01*
X107342528Y-64162867D01*
X107342528Y-64069999D01*
X107324410Y-63978916D01*
X107288871Y-63893118D01*
X107237277Y-63815901D01*
X107171610Y-63750234D01*
X107094393Y-63698640D01*
X107008595Y-63663101D01*
X106917512Y-63644983D01*
X106824644Y-63644983D01*
X106733561Y-63663101D01*
X106647763Y-63698640D01*
X106570546Y-63750234D01*
X106504879Y-63815901D01*
X106453285Y-63893118D01*
X106417746Y-63978916D01*
X106399628Y-64069999D01*
X103104950Y-64069999D01*
X103104950Y-63644066D01*
X113828540Y-63644066D01*
X113828540Y-63736934D01*
X113846658Y-63828017D01*
X113882197Y-63913815D01*
X113933791Y-63991032D01*
X113999458Y-64056699D01*
X114076675Y-64108293D01*
X114162473Y-64143832D01*
X114253556Y-64161950D01*
X114346424Y-64161950D01*
X114437507Y-64143832D01*
X114523305Y-64108293D01*
X114600522Y-64056699D01*
X114666189Y-63991032D01*
X114717783Y-63913815D01*
X114753322Y-63828017D01*
X114771440Y-63736934D01*
X114771440Y-63644066D01*
X117130550Y-63644066D01*
X117130550Y-63736934D01*
X117148668Y-63828017D01*
X117184207Y-63913815D01*
X117235801Y-63991032D01*
X117301468Y-64056699D01*
X117378685Y-64108293D01*
X117464483Y-64143832D01*
X117555566Y-64161950D01*
X117648434Y-64161950D01*
X117739517Y-64143832D01*
X117825315Y-64108293D01*
X117902532Y-64056699D01*
X117968199Y-63991032D01*
X118019793Y-63913815D01*
X118055332Y-63828017D01*
X118073450Y-63736934D01*
X118073450Y-63644066D01*
X118055332Y-63552983D01*
X118019793Y-63467185D01*
X117968199Y-63389968D01*
X117902532Y-63324301D01*
X117825315Y-63272707D01*
X117739517Y-63237168D01*
X117648434Y-63219050D01*
X117555566Y-63219050D01*
X117464483Y-63237168D01*
X117378685Y-63272707D01*
X117301468Y-63324301D01*
X117235801Y-63389968D01*
X117184207Y-63467185D01*
X117148668Y-63552983D01*
X117130550Y-63644066D01*
X114771440Y-63644066D01*
X114753322Y-63552983D01*
X114717783Y-63467185D01*
X114666189Y-63389968D01*
X114600522Y-63324301D01*
X114523305Y-63272707D01*
X114437507Y-63237168D01*
X114346424Y-63219050D01*
X114253556Y-63219050D01*
X114162473Y-63237168D01*
X114076675Y-63272707D01*
X113999458Y-63324301D01*
X113933791Y-63389968D01*
X113882197Y-63467185D01*
X113846658Y-63552983D01*
X113828540Y-63644066D01*
X103104950Y-63644066D01*
X103104950Y-62056566D01*
X107415050Y-62056566D01*
X107415050Y-62149434D01*
X107433168Y-62240517D01*
X107468707Y-62326315D01*
X107520301Y-62403532D01*
X107585968Y-62469199D01*
X107663185Y-62520793D01*
X107748983Y-62556332D01*
X107840066Y-62574450D01*
X107932934Y-62574450D01*
X108024017Y-62556332D01*
X108109815Y-62520793D01*
X108187032Y-62469199D01*
X108252699Y-62403532D01*
X108304293Y-62326315D01*
X108339832Y-62240517D01*
X108357950Y-62149434D01*
X108357950Y-62120066D01*
X117130550Y-62120066D01*
X117130550Y-62212934D01*
X117148668Y-62304017D01*
X117184207Y-62389815D01*
X117235801Y-62467032D01*
X117301468Y-62532699D01*
X117378685Y-62584293D01*
X117464483Y-62619832D01*
X117555566Y-62637950D01*
X117648434Y-62637950D01*
X117739517Y-62619832D01*
X117825315Y-62584293D01*
X117902532Y-62532699D01*
X117968199Y-62467032D01*
X118019793Y-62389815D01*
X118055332Y-62304017D01*
X118073450Y-62212934D01*
X118073450Y-62120066D01*
X118055332Y-62028983D01*
X118019793Y-61943185D01*
X117968199Y-61865968D01*
X117902532Y-61800301D01*
X117825315Y-61748707D01*
X117739517Y-61713168D01*
X117648434Y-61695050D01*
X117555566Y-61695050D01*
X117464483Y-61713168D01*
X117378685Y-61748707D01*
X117301468Y-61800301D01*
X117235801Y-61865968D01*
X117184207Y-61943185D01*
X117148668Y-62028983D01*
X117130550Y-62120066D01*
X108357950Y-62120066D01*
X108357950Y-62056566D01*
X108339832Y-61965483D01*
X108304293Y-61879685D01*
X108252699Y-61802468D01*
X108187032Y-61736801D01*
X108109815Y-61685207D01*
X108024017Y-61649668D01*
X107932934Y-61631550D01*
X107840066Y-61631550D01*
X107748983Y-61649668D01*
X107663185Y-61685207D01*
X107585968Y-61736801D01*
X107520301Y-61802468D01*
X107468707Y-61879685D01*
X107433168Y-61965483D01*
X107415050Y-62056566D01*
X103104950Y-62056566D01*
X103104950Y-61167566D01*
X109129550Y-61167566D01*
X109129550Y-61260434D01*
X109147668Y-61351517D01*
X109183207Y-61437315D01*
X109234801Y-61514532D01*
X109300468Y-61580199D01*
X109377685Y-61631793D01*
X109463483Y-61667332D01*
X109554566Y-61685450D01*
X109647434Y-61685450D01*
X109738517Y-61667332D01*
X109824315Y-61631793D01*
X109901532Y-61580199D01*
X109967199Y-61514532D01*
X110018793Y-61437315D01*
X110054332Y-61351517D01*
X110072450Y-61260434D01*
X110072450Y-61167566D01*
X111312200Y-61167566D01*
X111312200Y-61260434D01*
X111330318Y-61351517D01*
X111365857Y-61437315D01*
X111417451Y-61514532D01*
X111483118Y-61580199D01*
X111560335Y-61631793D01*
X111646133Y-61667332D01*
X111737216Y-61685450D01*
X111830084Y-61685450D01*
X111921167Y-61667332D01*
X112006965Y-61631793D01*
X112084182Y-61580199D01*
X112106024Y-61558357D01*
X119796660Y-61558357D01*
X119796660Y-61651225D01*
X119814778Y-61742308D01*
X119850317Y-61828106D01*
X119901911Y-61905323D01*
X119967578Y-61970990D01*
X120044795Y-62022584D01*
X120130593Y-62058123D01*
X120221676Y-62076241D01*
X120314544Y-62076241D01*
X120405627Y-62058123D01*
X120491425Y-62022584D01*
X120568642Y-61970990D01*
X120634309Y-61905323D01*
X120685903Y-61828106D01*
X120721442Y-61742308D01*
X120739560Y-61651225D01*
X120739560Y-61558357D01*
X120721442Y-61467274D01*
X120685903Y-61381476D01*
X120634309Y-61304259D01*
X120568642Y-61238592D01*
X120491425Y-61186998D01*
X120405627Y-61151459D01*
X120314544Y-61133341D01*
X120221676Y-61133341D01*
X120130593Y-61151459D01*
X120044795Y-61186998D01*
X119967578Y-61238592D01*
X119901911Y-61304259D01*
X119850317Y-61381476D01*
X119814778Y-61467274D01*
X119796660Y-61558357D01*
X112106024Y-61558357D01*
X112149849Y-61514532D01*
X112201443Y-61437315D01*
X112236982Y-61351517D01*
X112255100Y-61260434D01*
X112255100Y-61167566D01*
X112236982Y-61076483D01*
X112201443Y-60990685D01*
X112149849Y-60913468D01*
X112084182Y-60847801D01*
X112006965Y-60796207D01*
X111983690Y-60786566D01*
X115797050Y-60786566D01*
X115797050Y-60879434D01*
X115815168Y-60970517D01*
X115850707Y-61056315D01*
X115902301Y-61133532D01*
X115967968Y-61199199D01*
X116045185Y-61250793D01*
X116130983Y-61286332D01*
X116222066Y-61304450D01*
X116314934Y-61304450D01*
X116406017Y-61286332D01*
X116491815Y-61250793D01*
X116569032Y-61199199D01*
X116634699Y-61133532D01*
X116686293Y-61056315D01*
X116721832Y-60970517D01*
X116739950Y-60879434D01*
X116739950Y-60786566D01*
X116721832Y-60695483D01*
X116686293Y-60609685D01*
X116634699Y-60532468D01*
X116569032Y-60466801D01*
X116491815Y-60415207D01*
X116406017Y-60379668D01*
X116314934Y-60361550D01*
X116222066Y-60361550D01*
X116130983Y-60379668D01*
X116045185Y-60415207D01*
X115967968Y-60466801D01*
X115902301Y-60532468D01*
X115850707Y-60609685D01*
X115815168Y-60695483D01*
X115797050Y-60786566D01*
X111983690Y-60786566D01*
X111921167Y-60760668D01*
X111830084Y-60742550D01*
X111737216Y-60742550D01*
X111646133Y-60760668D01*
X111560335Y-60796207D01*
X111483118Y-60847801D01*
X111417451Y-60913468D01*
X111365857Y-60990685D01*
X111330318Y-61076483D01*
X111312200Y-61167566D01*
X110072450Y-61167566D01*
X110054332Y-61076483D01*
X110018793Y-60990685D01*
X109967199Y-60913468D01*
X109901532Y-60847801D01*
X109824315Y-60796207D01*
X109738517Y-60760668D01*
X109647434Y-60742550D01*
X109554566Y-60742550D01*
X109463483Y-60760668D01*
X109377685Y-60796207D01*
X109300468Y-60847801D01*
X109234801Y-60913468D01*
X109183207Y-60990685D01*
X109147668Y-61076483D01*
X109129550Y-61167566D01*
X103104950Y-61167566D01*
X103104950Y-60178950D01*
X114046000Y-60178950D01*
X114054672Y-60178096D01*
X114063010Y-60175566D01*
X114070695Y-60171459D01*
X114077431Y-60165931D01*
X114082959Y-60159195D01*
X114087066Y-60151510D01*
X114089596Y-60143172D01*
X114090450Y-60134500D01*
X114090450Y-59336213D01*
X119639844Y-59336213D01*
X119639844Y-59429081D01*
X119657962Y-59520164D01*
X119693501Y-59605962D01*
X119745095Y-59683179D01*
X119810762Y-59748846D01*
X119887979Y-59800440D01*
X119973777Y-59835979D01*
X120064860Y-59854097D01*
X120073172Y-59854097D01*
X120029801Y-59897468D01*
X119978207Y-59974685D01*
X119942668Y-60060483D01*
X119924550Y-60151566D01*
X119924550Y-60244434D01*
X119942668Y-60335517D01*
X119978207Y-60421315D01*
X120029801Y-60498532D01*
X120095468Y-60564199D01*
X120172685Y-60615793D01*
X120258483Y-60651332D01*
X120349566Y-60669450D01*
X120442434Y-60669450D01*
X120533517Y-60651332D01*
X120619315Y-60615793D01*
X120696532Y-60564199D01*
X120762199Y-60498532D01*
X120813793Y-60421315D01*
X120849332Y-60335517D01*
X120867450Y-60244434D01*
X120867450Y-60151566D01*
X120849332Y-60060483D01*
X120813793Y-59974685D01*
X120762199Y-59897468D01*
X120696532Y-59831801D01*
X120654275Y-59803566D01*
X121578550Y-59803566D01*
X121578550Y-59896434D01*
X121596668Y-59987517D01*
X121632207Y-60073315D01*
X121683801Y-60150532D01*
X121749468Y-60216199D01*
X121826685Y-60267793D01*
X121912483Y-60303332D01*
X122003566Y-60321450D01*
X122096434Y-60321450D01*
X122187517Y-60303332D01*
X122273315Y-60267793D01*
X122350532Y-60216199D01*
X122416199Y-60150532D01*
X122467793Y-60073315D01*
X122503332Y-59987517D01*
X122521450Y-59896434D01*
X122521450Y-59803566D01*
X122503332Y-59712483D01*
X122467793Y-59626685D01*
X122416199Y-59549468D01*
X122350532Y-59483801D01*
X122273315Y-59432207D01*
X122187517Y-59396668D01*
X122096434Y-59378550D01*
X122003566Y-59378550D01*
X121912483Y-59396668D01*
X121826685Y-59432207D01*
X121749468Y-59483801D01*
X121683801Y-59549468D01*
X121632207Y-59626685D01*
X121596668Y-59712483D01*
X121578550Y-59803566D01*
X120654275Y-59803566D01*
X120619315Y-59780207D01*
X120533517Y-59744668D01*
X120442434Y-59726550D01*
X120434122Y-59726550D01*
X120477493Y-59683179D01*
X120529087Y-59605962D01*
X120564626Y-59520164D01*
X120582744Y-59429081D01*
X120582744Y-59336213D01*
X120564626Y-59245130D01*
X120529087Y-59159332D01*
X120477493Y-59082115D01*
X120411826Y-59016448D01*
X120334609Y-58964854D01*
X120248811Y-58929315D01*
X120157728Y-58911197D01*
X120064860Y-58911197D01*
X119973777Y-58929315D01*
X119887979Y-58964854D01*
X119810762Y-59016448D01*
X119745095Y-59082115D01*
X119693501Y-59159332D01*
X119657962Y-59245130D01*
X119639844Y-59336213D01*
X114090450Y-59336213D01*
X114090450Y-58663566D01*
X116292050Y-58663566D01*
X116292050Y-58756434D01*
X116310168Y-58847517D01*
X116345707Y-58933315D01*
X116397301Y-59010532D01*
X116462968Y-59076199D01*
X116540185Y-59127793D01*
X116625983Y-59163332D01*
X116717066Y-59181450D01*
X116809934Y-59181450D01*
X116901017Y-59163332D01*
X116986815Y-59127793D01*
X117064032Y-59076199D01*
X117129699Y-59010532D01*
X117181293Y-58933315D01*
X117216832Y-58847517D01*
X117234950Y-58756434D01*
X117234950Y-58663566D01*
X117216832Y-58572483D01*
X117181293Y-58486685D01*
X117129699Y-58409468D01*
X117064032Y-58343801D01*
X116986815Y-58292207D01*
X116901017Y-58256668D01*
X116809934Y-58238550D01*
X116717066Y-58238550D01*
X116625983Y-58256668D01*
X116540185Y-58292207D01*
X116462968Y-58343801D01*
X116397301Y-58409468D01*
X116345707Y-58486685D01*
X116310168Y-58572483D01*
X116292050Y-58663566D01*
X114090450Y-58663566D01*
X114090450Y-54654450D01*
X115062000Y-54654450D01*
X115070672Y-54653596D01*
X115079010Y-54651066D01*
X115086695Y-54646959D01*
X115093431Y-54641431D01*
X115098959Y-54634695D01*
X115103066Y-54627010D01*
X115105596Y-54618672D01*
X115106450Y-54610000D01*
X115106450Y-53972368D01*
X115787550Y-53972368D01*
X115787550Y-54104632D01*
X115813353Y-54234355D01*
X115863969Y-54356551D01*
X115937451Y-54466525D01*
X116030975Y-54560049D01*
X116140949Y-54633531D01*
X116263145Y-54684147D01*
X116392868Y-54709950D01*
X116525132Y-54709950D01*
X116654855Y-54684147D01*
X116777051Y-54633531D01*
X116887025Y-54560049D01*
X116980549Y-54466525D01*
X117054031Y-54356551D01*
X117104647Y-54234355D01*
X117130450Y-54104632D01*
X117130450Y-53972368D01*
X122264550Y-53972368D01*
X122264550Y-54104632D01*
X122290353Y-54234355D01*
X122340969Y-54356551D01*
X122414451Y-54466525D01*
X122507975Y-54560049D01*
X122617949Y-54633531D01*
X122740145Y-54684147D01*
X122869868Y-54709950D01*
X123002132Y-54709950D01*
X123131855Y-54684147D01*
X123254051Y-54633531D01*
X123364025Y-54560049D01*
X123457549Y-54466525D01*
X123531031Y-54356551D01*
X123581647Y-54234355D01*
X123607450Y-54104632D01*
X123607450Y-53972368D01*
X123581647Y-53842645D01*
X123531031Y-53720449D01*
X123457549Y-53610475D01*
X123364025Y-53516951D01*
X123254051Y-53443469D01*
X123131855Y-53392853D01*
X123002132Y-53367050D01*
X122869868Y-53367050D01*
X122740145Y-53392853D01*
X122617949Y-53443469D01*
X122507975Y-53516951D01*
X122414451Y-53610475D01*
X122340969Y-53720449D01*
X122290353Y-53842645D01*
X122264550Y-53972368D01*
X117130450Y-53972368D01*
X117104647Y-53842645D01*
X117054031Y-53720449D01*
X116980549Y-53610475D01*
X116887025Y-53516951D01*
X116777051Y-53443469D01*
X116654855Y-53392853D01*
X116525132Y-53367050D01*
X116392868Y-53367050D01*
X116263145Y-53392853D01*
X116140949Y-53443469D01*
X116030975Y-53516951D01*
X115937451Y-53610475D01*
X115863969Y-53720449D01*
X115813353Y-53842645D01*
X115787550Y-53972368D01*
X115106450Y-53972368D01*
X115106450Y-52620367D01*
X115579153Y-52147664D01*
X115589320Y-52139320D01*
X115622617Y-52098748D01*
X115647359Y-52052459D01*
X115660032Y-52010680D01*
X115662594Y-52002234D01*
X115662897Y-51999148D01*
X116299635Y-51999148D01*
X116357312Y-52090505D01*
X116479098Y-52146014D01*
X116609374Y-52176697D01*
X116743133Y-52181374D01*
X116875233Y-52159867D01*
X117000600Y-52113002D01*
X117042688Y-52090505D01*
X117100365Y-51999148D01*
X117249635Y-51999148D01*
X117307312Y-52090505D01*
X117429098Y-52146014D01*
X117559374Y-52176697D01*
X117693133Y-52181374D01*
X117825233Y-52159867D01*
X117950600Y-52113002D01*
X117992688Y-52090505D01*
X118050365Y-51999148D01*
X118199635Y-51999148D01*
X118257312Y-52090505D01*
X118379098Y-52146014D01*
X118509374Y-52176697D01*
X118643133Y-52181374D01*
X118775233Y-52159867D01*
X118900600Y-52113002D01*
X118942688Y-52090505D01*
X119000365Y-51999148D01*
X118600000Y-51598783D01*
X118199635Y-51999148D01*
X118050365Y-51999148D01*
X117650000Y-51598783D01*
X117249635Y-51999148D01*
X117100365Y-51999148D01*
X116700000Y-51598783D01*
X116299635Y-51999148D01*
X115662897Y-51999148D01*
X115663112Y-51996972D01*
X115666450Y-51963086D01*
X115666450Y-51963080D01*
X115667738Y-51950001D01*
X115666450Y-51936922D01*
X115666450Y-51543133D01*
X116018626Y-51543133D01*
X116040133Y-51675233D01*
X116086998Y-51800600D01*
X116109495Y-51842688D01*
X116200852Y-51900365D01*
X116601217Y-51500000D01*
X116798783Y-51500000D01*
X116999755Y-51700972D01*
X117036998Y-51800600D01*
X117059495Y-51842688D01*
X117150852Y-51900365D01*
X117175000Y-51876217D01*
X117199148Y-51900365D01*
X117290505Y-51842688D01*
X117346014Y-51720902D01*
X117350851Y-51700366D01*
X117551217Y-51500000D01*
X117748783Y-51500000D01*
X117949755Y-51700972D01*
X117986998Y-51800600D01*
X118009495Y-51842688D01*
X118100852Y-51900365D01*
X118125000Y-51876217D01*
X118149148Y-51900365D01*
X118240505Y-51842688D01*
X118296014Y-51720902D01*
X118300851Y-51700366D01*
X118501217Y-51500000D01*
X118698783Y-51500000D01*
X119099148Y-51900365D01*
X119190505Y-51842688D01*
X119246014Y-51720902D01*
X119276697Y-51590626D01*
X119281374Y-51456867D01*
X119259867Y-51324767D01*
X119213002Y-51199400D01*
X119190505Y-51157312D01*
X119099148Y-51099635D01*
X118698783Y-51500000D01*
X118501217Y-51500000D01*
X118300245Y-51299028D01*
X118263002Y-51199400D01*
X118240505Y-51157312D01*
X118149148Y-51099635D01*
X118125000Y-51123783D01*
X118100852Y-51099635D01*
X118009495Y-51157312D01*
X117953986Y-51279098D01*
X117949149Y-51299634D01*
X117748783Y-51500000D01*
X117551217Y-51500000D01*
X117350245Y-51299028D01*
X117313002Y-51199400D01*
X117290505Y-51157312D01*
X117199148Y-51099635D01*
X117175000Y-51123783D01*
X117150852Y-51099635D01*
X117059495Y-51157312D01*
X117003986Y-51279098D01*
X116999149Y-51299634D01*
X116798783Y-51500000D01*
X116601217Y-51500000D01*
X116200852Y-51099635D01*
X116109495Y-51157312D01*
X116053986Y-51279098D01*
X116023303Y-51409374D01*
X116018626Y-51543133D01*
X115666450Y-51543133D01*
X115666450Y-51000852D01*
X116299635Y-51000852D01*
X116700000Y-51401217D01*
X117100365Y-51000852D01*
X117249635Y-51000852D01*
X117650000Y-51401217D01*
X118050365Y-51000852D01*
X118199635Y-51000852D01*
X118600000Y-51401217D01*
X119000365Y-51000852D01*
X118942688Y-50909495D01*
X118820902Y-50853986D01*
X118690626Y-50823303D01*
X118556867Y-50818626D01*
X118424767Y-50840133D01*
X118299400Y-50886998D01*
X118257312Y-50909495D01*
X118199635Y-51000852D01*
X118050365Y-51000852D01*
X117992688Y-50909495D01*
X117870902Y-50853986D01*
X117740626Y-50823303D01*
X117606867Y-50818626D01*
X117474767Y-50840133D01*
X117349400Y-50886998D01*
X117307312Y-50909495D01*
X117249635Y-51000852D01*
X117100365Y-51000852D01*
X117042688Y-50909495D01*
X116920902Y-50853986D01*
X116790626Y-50823303D01*
X116656867Y-50818626D01*
X116524767Y-50840133D01*
X116399400Y-50886998D01*
X116357312Y-50909495D01*
X116299635Y-51000852D01*
X115666450Y-51000852D01*
X115666450Y-49913078D01*
X115667738Y-49899999D01*
X115666450Y-49886920D01*
X115666450Y-49886914D01*
X115662696Y-49848804D01*
X115662594Y-49847766D01*
X115648506Y-49801324D01*
X115647359Y-49797541D01*
X115622617Y-49751252D01*
X115589320Y-49710680D01*
X115579153Y-49702336D01*
X115106450Y-49229633D01*
X115106450Y-48050450D01*
X124161550Y-48050450D01*
X124161550Y-71051203D01*
X124161550Y-71051203D01*
G37*
X124161550Y-71051203D02*
X124153017Y-71047668D01*
X124061934Y-71029550D01*
X123969066Y-71029550D01*
X123877983Y-71047668D01*
X123792185Y-71083207D01*
X123714968Y-71134801D01*
X123649301Y-71200468D01*
X123597707Y-71277685D01*
X123562168Y-71363483D01*
X123544050Y-71454566D01*
X123544050Y-71547434D01*
X123562168Y-71638517D01*
X123597707Y-71724315D01*
X123649301Y-71801532D01*
X123714968Y-71867199D01*
X123792185Y-71918793D01*
X123877983Y-71954332D01*
X123969066Y-71972450D01*
X124061934Y-71972450D01*
X124131632Y-71958586D01*
X122472613Y-73679050D01*
X104558630Y-73679050D01*
X104506429Y-73646354D01*
X104473733Y-73679050D01*
X104276167Y-73679050D01*
X104407646Y-73547571D01*
X104350938Y-73457033D01*
X104230518Y-73402325D01*
X104101740Y-73372161D01*
X103969550Y-73367701D01*
X103839031Y-73389115D01*
X103715197Y-73435580D01*
X103675062Y-73457033D01*
X103618354Y-73547571D01*
X103749833Y-73679050D01*
X103552267Y-73679050D01*
X103519571Y-73646354D01*
X103467370Y-73679050D01*
X103016450Y-73679050D01*
X103016450Y-71581566D01*
X105192550Y-71581566D01*
X105192550Y-71674434D01*
X105210668Y-71765517D01*
X105246207Y-71851315D01*
X105297801Y-71928532D01*
X105363468Y-71994199D01*
X105440685Y-72045793D01*
X105526483Y-72081332D01*
X105617566Y-72099450D01*
X105710434Y-72099450D01*
X105801517Y-72081332D01*
X105887315Y-72045793D01*
X105964532Y-71994199D01*
X106030199Y-71928532D01*
X106081793Y-71851315D01*
X106117332Y-71765517D01*
X106135450Y-71674434D01*
X106135450Y-71581566D01*
X106117332Y-71490483D01*
X106081793Y-71404685D01*
X106030199Y-71327468D01*
X105964532Y-71261801D01*
X105887315Y-71210207D01*
X105801517Y-71174668D01*
X105710434Y-71156550D01*
X105617566Y-71156550D01*
X105526483Y-71174668D01*
X105440685Y-71210207D01*
X105363468Y-71261801D01*
X105297801Y-71327468D01*
X105246207Y-71404685D01*
X105210668Y-71490483D01*
X105192550Y-71581566D01*
X103016450Y-71581566D01*
X103016450Y-70913089D01*
X103017739Y-70900000D01*
X103012595Y-70847767D01*
X102997359Y-70797540D01*
X102986584Y-70777383D01*
X102972617Y-70751252D01*
X102956150Y-70731188D01*
X102947662Y-70720844D01*
X102947659Y-70720841D01*
X102939320Y-70710680D01*
X102929159Y-70702341D01*
X102347884Y-70121066D01*
X122845550Y-70121066D01*
X122845550Y-70213934D01*
X122863668Y-70305017D01*
X122899207Y-70390815D01*
X122950801Y-70468032D01*
X123016468Y-70533699D01*
X123093685Y-70585293D01*
X123179483Y-70620832D01*
X123270566Y-70638950D01*
X123363434Y-70638950D01*
X123454517Y-70620832D01*
X123540315Y-70585293D01*
X123617532Y-70533699D01*
X123683199Y-70468032D01*
X123734793Y-70390815D01*
X123770332Y-70305017D01*
X123788450Y-70213934D01*
X123788450Y-70121066D01*
X123770332Y-70029983D01*
X123734793Y-69944185D01*
X123683199Y-69866968D01*
X123617532Y-69801301D01*
X123540315Y-69749707D01*
X123454517Y-69714168D01*
X123363434Y-69696050D01*
X123270566Y-69696050D01*
X123179483Y-69714168D01*
X123093685Y-69749707D01*
X123016468Y-69801301D01*
X122950801Y-69866968D01*
X122899207Y-69944185D01*
X122863668Y-70029983D01*
X122845550Y-70121066D01*
X102347884Y-70121066D01*
X100818950Y-68592133D01*
X100818950Y-66757279D01*
X100820711Y-66755566D01*
X101763550Y-66755566D01*
X101763550Y-66848434D01*
X101781668Y-66939517D01*
X101817207Y-67025315D01*
X101868801Y-67102532D01*
X101885769Y-67119500D01*
X101868801Y-67136468D01*
X101817207Y-67213685D01*
X101781668Y-67299483D01*
X101763550Y-67390566D01*
X101763550Y-67483434D01*
X101781668Y-67574517D01*
X101817207Y-67660315D01*
X101868801Y-67737532D01*
X101934468Y-67803199D01*
X102011685Y-67854793D01*
X102097483Y-67890332D01*
X102188566Y-67908450D01*
X102281434Y-67908450D01*
X102372517Y-67890332D01*
X102458315Y-67854793D01*
X102535532Y-67803199D01*
X102601199Y-67737532D01*
X102652793Y-67660315D01*
X102688332Y-67574517D01*
X102706450Y-67483434D01*
X102706450Y-67390566D01*
X102688332Y-67299483D01*
X102652793Y-67213685D01*
X102601199Y-67136468D01*
X102584231Y-67119500D01*
X102601199Y-67102532D01*
X102652793Y-67025315D01*
X102688332Y-66939517D01*
X102706450Y-66848434D01*
X102706450Y-66846222D01*
X109172710Y-66846222D01*
X109172710Y-66939090D01*
X109190828Y-67030173D01*
X109226367Y-67115971D01*
X109277961Y-67193188D01*
X109343628Y-67258855D01*
X109420845Y-67310449D01*
X109506643Y-67345988D01*
X109597726Y-67364106D01*
X109690594Y-67364106D01*
X109781677Y-67345988D01*
X109867475Y-67310449D01*
X109944692Y-67258855D01*
X110010359Y-67193188D01*
X110061953Y-67115971D01*
X110097492Y-67030173D01*
X110115610Y-66939090D01*
X110115610Y-66846222D01*
X110097492Y-66755139D01*
X110061953Y-66669341D01*
X110010359Y-66592124D01*
X109944692Y-66526457D01*
X109867475Y-66474863D01*
X109781677Y-66439324D01*
X109690594Y-66421206D01*
X109597726Y-66421206D01*
X109506643Y-66439324D01*
X109420845Y-66474863D01*
X109343628Y-66526457D01*
X109277961Y-66592124D01*
X109226367Y-66669341D01*
X109190828Y-66755139D01*
X109172710Y-66846222D01*
X102706450Y-66846222D01*
X102706450Y-66755566D01*
X102688332Y-66664483D01*
X102652793Y-66578685D01*
X102601199Y-66501468D01*
X102535532Y-66435801D01*
X102458315Y-66384207D01*
X102372517Y-66348668D01*
X102281434Y-66330550D01*
X102188566Y-66330550D01*
X102097483Y-66348668D01*
X102011685Y-66384207D01*
X101934468Y-66435801D01*
X101868801Y-66501468D01*
X101817207Y-66578685D01*
X101781668Y-66664483D01*
X101763550Y-66755566D01*
X100820711Y-66755566D01*
X101277911Y-66311066D01*
X119607050Y-66311066D01*
X119607050Y-66403934D01*
X119625168Y-66495017D01*
X119660707Y-66580815D01*
X119712301Y-66658032D01*
X119777968Y-66723699D01*
X119855185Y-66775293D01*
X119940983Y-66810832D01*
X120032066Y-66828950D01*
X120124934Y-66828950D01*
X120216017Y-66810832D01*
X120301815Y-66775293D01*
X120379032Y-66723699D01*
X120444699Y-66658032D01*
X120496293Y-66580815D01*
X120531832Y-66495017D01*
X120549950Y-66403934D01*
X120549950Y-66311066D01*
X120531832Y-66219983D01*
X120496293Y-66134185D01*
X120444699Y-66056968D01*
X120379032Y-65991301D01*
X120301815Y-65939707D01*
X120216017Y-65904168D01*
X120124934Y-65886050D01*
X120032066Y-65886050D01*
X119940983Y-65904168D01*
X119855185Y-65939707D01*
X119777968Y-65991301D01*
X119712301Y-66056968D01*
X119660707Y-66134185D01*
X119625168Y-66219983D01*
X119607050Y-66311066D01*
X101277911Y-66311066D01*
X103091485Y-64547870D01*
X103097107Y-64541213D01*
X103101323Y-64533587D01*
X103103969Y-64525285D01*
X103104950Y-64516000D01*
X103104950Y-64069999D01*
X106399628Y-64069999D01*
X106399628Y-64162867D01*
X106417746Y-64253950D01*
X106453285Y-64339748D01*
X106504879Y-64416965D01*
X106570546Y-64482632D01*
X106647763Y-64534226D01*
X106733561Y-64569765D01*
X106824644Y-64587883D01*
X106917512Y-64587883D01*
X107008595Y-64569765D01*
X107094393Y-64534226D01*
X107171610Y-64482632D01*
X107237277Y-64416965D01*
X107288871Y-64339748D01*
X107324410Y-64253950D01*
X107342528Y-64162867D01*
X107342528Y-64069999D01*
X107324410Y-63978916D01*
X107288871Y-63893118D01*
X107237277Y-63815901D01*
X107171610Y-63750234D01*
X107094393Y-63698640D01*
X107008595Y-63663101D01*
X106917512Y-63644983D01*
X106824644Y-63644983D01*
X106733561Y-63663101D01*
X106647763Y-63698640D01*
X106570546Y-63750234D01*
X106504879Y-63815901D01*
X106453285Y-63893118D01*
X106417746Y-63978916D01*
X106399628Y-64069999D01*
X103104950Y-64069999D01*
X103104950Y-63644066D01*
X113828540Y-63644066D01*
X113828540Y-63736934D01*
X113846658Y-63828017D01*
X113882197Y-63913815D01*
X113933791Y-63991032D01*
X113999458Y-64056699D01*
X114076675Y-64108293D01*
X114162473Y-64143832D01*
X114253556Y-64161950D01*
X114346424Y-64161950D01*
X114437507Y-64143832D01*
X114523305Y-64108293D01*
X114600522Y-64056699D01*
X114666189Y-63991032D01*
X114717783Y-63913815D01*
X114753322Y-63828017D01*
X114771440Y-63736934D01*
X114771440Y-63644066D01*
X117130550Y-63644066D01*
X117130550Y-63736934D01*
X117148668Y-63828017D01*
X117184207Y-63913815D01*
X117235801Y-63991032D01*
X117301468Y-64056699D01*
X117378685Y-64108293D01*
X117464483Y-64143832D01*
X117555566Y-64161950D01*
X117648434Y-64161950D01*
X117739517Y-64143832D01*
X117825315Y-64108293D01*
X117902532Y-64056699D01*
X117968199Y-63991032D01*
X118019793Y-63913815D01*
X118055332Y-63828017D01*
X118073450Y-63736934D01*
X118073450Y-63644066D01*
X118055332Y-63552983D01*
X118019793Y-63467185D01*
X117968199Y-63389968D01*
X117902532Y-63324301D01*
X117825315Y-63272707D01*
X117739517Y-63237168D01*
X117648434Y-63219050D01*
X117555566Y-63219050D01*
X117464483Y-63237168D01*
X117378685Y-63272707D01*
X117301468Y-63324301D01*
X117235801Y-63389968D01*
X117184207Y-63467185D01*
X117148668Y-63552983D01*
X117130550Y-63644066D01*
X114771440Y-63644066D01*
X114753322Y-63552983D01*
X114717783Y-63467185D01*
X114666189Y-63389968D01*
X114600522Y-63324301D01*
X114523305Y-63272707D01*
X114437507Y-63237168D01*
X114346424Y-63219050D01*
X114253556Y-63219050D01*
X114162473Y-63237168D01*
X114076675Y-63272707D01*
X113999458Y-63324301D01*
X113933791Y-63389968D01*
X113882197Y-63467185D01*
X113846658Y-63552983D01*
X113828540Y-63644066D01*
X103104950Y-63644066D01*
X103104950Y-62056566D01*
X107415050Y-62056566D01*
X107415050Y-62149434D01*
X107433168Y-62240517D01*
X107468707Y-62326315D01*
X107520301Y-62403532D01*
X107585968Y-62469199D01*
X107663185Y-62520793D01*
X107748983Y-62556332D01*
X107840066Y-62574450D01*
X107932934Y-62574450D01*
X108024017Y-62556332D01*
X108109815Y-62520793D01*
X108187032Y-62469199D01*
X108252699Y-62403532D01*
X108304293Y-62326315D01*
X108339832Y-62240517D01*
X108357950Y-62149434D01*
X108357950Y-62120066D01*
X117130550Y-62120066D01*
X117130550Y-62212934D01*
X117148668Y-62304017D01*
X117184207Y-62389815D01*
X117235801Y-62467032D01*
X117301468Y-62532699D01*
X117378685Y-62584293D01*
X117464483Y-62619832D01*
X117555566Y-62637950D01*
X117648434Y-62637950D01*
X117739517Y-62619832D01*
X117825315Y-62584293D01*
X117902532Y-62532699D01*
X117968199Y-62467032D01*
X118019793Y-62389815D01*
X118055332Y-62304017D01*
X118073450Y-62212934D01*
X118073450Y-62120066D01*
X118055332Y-62028983D01*
X118019793Y-61943185D01*
X117968199Y-61865968D01*
X117902532Y-61800301D01*
X117825315Y-61748707D01*
X117739517Y-61713168D01*
X117648434Y-61695050D01*
X117555566Y-61695050D01*
X117464483Y-61713168D01*
X117378685Y-61748707D01*
X117301468Y-61800301D01*
X117235801Y-61865968D01*
X117184207Y-61943185D01*
X117148668Y-62028983D01*
X117130550Y-62120066D01*
X108357950Y-62120066D01*
X108357950Y-62056566D01*
X108339832Y-61965483D01*
X108304293Y-61879685D01*
X108252699Y-61802468D01*
X108187032Y-61736801D01*
X108109815Y-61685207D01*
X108024017Y-61649668D01*
X107932934Y-61631550D01*
X107840066Y-61631550D01*
X107748983Y-61649668D01*
X107663185Y-61685207D01*
X107585968Y-61736801D01*
X107520301Y-61802468D01*
X107468707Y-61879685D01*
X107433168Y-61965483D01*
X107415050Y-62056566D01*
X103104950Y-62056566D01*
X103104950Y-61167566D01*
X109129550Y-61167566D01*
X109129550Y-61260434D01*
X109147668Y-61351517D01*
X109183207Y-61437315D01*
X109234801Y-61514532D01*
X109300468Y-61580199D01*
X109377685Y-61631793D01*
X109463483Y-61667332D01*
X109554566Y-61685450D01*
X109647434Y-61685450D01*
X109738517Y-61667332D01*
X109824315Y-61631793D01*
X109901532Y-61580199D01*
X109967199Y-61514532D01*
X110018793Y-61437315D01*
X110054332Y-61351517D01*
X110072450Y-61260434D01*
X110072450Y-61167566D01*
X111312200Y-61167566D01*
X111312200Y-61260434D01*
X111330318Y-61351517D01*
X111365857Y-61437315D01*
X111417451Y-61514532D01*
X111483118Y-61580199D01*
X111560335Y-61631793D01*
X111646133Y-61667332D01*
X111737216Y-61685450D01*
X111830084Y-61685450D01*
X111921167Y-61667332D01*
X112006965Y-61631793D01*
X112084182Y-61580199D01*
X112106024Y-61558357D01*
X119796660Y-61558357D01*
X119796660Y-61651225D01*
X119814778Y-61742308D01*
X119850317Y-61828106D01*
X119901911Y-61905323D01*
X119967578Y-61970990D01*
X120044795Y-62022584D01*
X120130593Y-62058123D01*
X120221676Y-62076241D01*
X120314544Y-62076241D01*
X120405627Y-62058123D01*
X120491425Y-62022584D01*
X120568642Y-61970990D01*
X120634309Y-61905323D01*
X120685903Y-61828106D01*
X120721442Y-61742308D01*
X120739560Y-61651225D01*
X120739560Y-61558357D01*
X120721442Y-61467274D01*
X120685903Y-61381476D01*
X120634309Y-61304259D01*
X120568642Y-61238592D01*
X120491425Y-61186998D01*
X120405627Y-61151459D01*
X120314544Y-61133341D01*
X120221676Y-61133341D01*
X120130593Y-61151459D01*
X120044795Y-61186998D01*
X119967578Y-61238592D01*
X119901911Y-61304259D01*
X119850317Y-61381476D01*
X119814778Y-61467274D01*
X119796660Y-61558357D01*
X112106024Y-61558357D01*
X112149849Y-61514532D01*
X112201443Y-61437315D01*
X112236982Y-61351517D01*
X112255100Y-61260434D01*
X112255100Y-61167566D01*
X112236982Y-61076483D01*
X112201443Y-60990685D01*
X112149849Y-60913468D01*
X112084182Y-60847801D01*
X112006965Y-60796207D01*
X111983690Y-60786566D01*
X115797050Y-60786566D01*
X115797050Y-60879434D01*
X115815168Y-60970517D01*
X115850707Y-61056315D01*
X115902301Y-61133532D01*
X115967968Y-61199199D01*
X116045185Y-61250793D01*
X116130983Y-61286332D01*
X116222066Y-61304450D01*
X116314934Y-61304450D01*
X116406017Y-61286332D01*
X116491815Y-61250793D01*
X116569032Y-61199199D01*
X116634699Y-61133532D01*
X116686293Y-61056315D01*
X116721832Y-60970517D01*
X116739950Y-60879434D01*
X116739950Y-60786566D01*
X116721832Y-60695483D01*
X116686293Y-60609685D01*
X116634699Y-60532468D01*
X116569032Y-60466801D01*
X116491815Y-60415207D01*
X116406017Y-60379668D01*
X116314934Y-60361550D01*
X116222066Y-60361550D01*
X116130983Y-60379668D01*
X116045185Y-60415207D01*
X115967968Y-60466801D01*
X115902301Y-60532468D01*
X115850707Y-60609685D01*
X115815168Y-60695483D01*
X115797050Y-60786566D01*
X111983690Y-60786566D01*
X111921167Y-60760668D01*
X111830084Y-60742550D01*
X111737216Y-60742550D01*
X111646133Y-60760668D01*
X111560335Y-60796207D01*
X111483118Y-60847801D01*
X111417451Y-60913468D01*
X111365857Y-60990685D01*
X111330318Y-61076483D01*
X111312200Y-61167566D01*
X110072450Y-61167566D01*
X110054332Y-61076483D01*
X110018793Y-60990685D01*
X109967199Y-60913468D01*
X109901532Y-60847801D01*
X109824315Y-60796207D01*
X109738517Y-60760668D01*
X109647434Y-60742550D01*
X109554566Y-60742550D01*
X109463483Y-60760668D01*
X109377685Y-60796207D01*
X109300468Y-60847801D01*
X109234801Y-60913468D01*
X109183207Y-60990685D01*
X109147668Y-61076483D01*
X109129550Y-61167566D01*
X103104950Y-61167566D01*
X103104950Y-60178950D01*
X114046000Y-60178950D01*
X114054672Y-60178096D01*
X114063010Y-60175566D01*
X114070695Y-60171459D01*
X114077431Y-60165931D01*
X114082959Y-60159195D01*
X114087066Y-60151510D01*
X114089596Y-60143172D01*
X114090450Y-60134500D01*
X114090450Y-59336213D01*
X119639844Y-59336213D01*
X119639844Y-59429081D01*
X119657962Y-59520164D01*
X119693501Y-59605962D01*
X119745095Y-59683179D01*
X119810762Y-59748846D01*
X119887979Y-59800440D01*
X119973777Y-59835979D01*
X120064860Y-59854097D01*
X120073172Y-59854097D01*
X120029801Y-59897468D01*
X119978207Y-59974685D01*
X119942668Y-60060483D01*
X119924550Y-60151566D01*
X119924550Y-60244434D01*
X119942668Y-60335517D01*
X119978207Y-60421315D01*
X120029801Y-60498532D01*
X120095468Y-60564199D01*
X120172685Y-60615793D01*
X120258483Y-60651332D01*
X120349566Y-60669450D01*
X120442434Y-60669450D01*
X120533517Y-60651332D01*
X120619315Y-60615793D01*
X120696532Y-60564199D01*
X120762199Y-60498532D01*
X120813793Y-60421315D01*
X120849332Y-60335517D01*
X120867450Y-60244434D01*
X120867450Y-60151566D01*
X120849332Y-60060483D01*
X120813793Y-59974685D01*
X120762199Y-59897468D01*
X120696532Y-59831801D01*
X120654275Y-59803566D01*
X121578550Y-59803566D01*
X121578550Y-59896434D01*
X121596668Y-59987517D01*
X121632207Y-60073315D01*
X121683801Y-60150532D01*
X121749468Y-60216199D01*
X121826685Y-60267793D01*
X121912483Y-60303332D01*
X122003566Y-60321450D01*
X122096434Y-60321450D01*
X122187517Y-60303332D01*
X122273315Y-60267793D01*
X122350532Y-60216199D01*
X122416199Y-60150532D01*
X122467793Y-60073315D01*
X122503332Y-59987517D01*
X122521450Y-59896434D01*
X122521450Y-59803566D01*
X122503332Y-59712483D01*
X122467793Y-59626685D01*
X122416199Y-59549468D01*
X122350532Y-59483801D01*
X122273315Y-59432207D01*
X122187517Y-59396668D01*
X122096434Y-59378550D01*
X122003566Y-59378550D01*
X121912483Y-59396668D01*
X121826685Y-59432207D01*
X121749468Y-59483801D01*
X121683801Y-59549468D01*
X121632207Y-59626685D01*
X121596668Y-59712483D01*
X121578550Y-59803566D01*
X120654275Y-59803566D01*
X120619315Y-59780207D01*
X120533517Y-59744668D01*
X120442434Y-59726550D01*
X120434122Y-59726550D01*
X120477493Y-59683179D01*
X120529087Y-59605962D01*
X120564626Y-59520164D01*
X120582744Y-59429081D01*
X120582744Y-59336213D01*
X120564626Y-59245130D01*
X120529087Y-59159332D01*
X120477493Y-59082115D01*
X120411826Y-59016448D01*
X120334609Y-58964854D01*
X120248811Y-58929315D01*
X120157728Y-58911197D01*
X120064860Y-58911197D01*
X119973777Y-58929315D01*
X119887979Y-58964854D01*
X119810762Y-59016448D01*
X119745095Y-59082115D01*
X119693501Y-59159332D01*
X119657962Y-59245130D01*
X119639844Y-59336213D01*
X114090450Y-59336213D01*
X114090450Y-58663566D01*
X116292050Y-58663566D01*
X116292050Y-58756434D01*
X116310168Y-58847517D01*
X116345707Y-58933315D01*
X116397301Y-59010532D01*
X116462968Y-59076199D01*
X116540185Y-59127793D01*
X116625983Y-59163332D01*
X116717066Y-59181450D01*
X116809934Y-59181450D01*
X116901017Y-59163332D01*
X116986815Y-59127793D01*
X117064032Y-59076199D01*
X117129699Y-59010532D01*
X117181293Y-58933315D01*
X117216832Y-58847517D01*
X117234950Y-58756434D01*
X117234950Y-58663566D01*
X117216832Y-58572483D01*
X117181293Y-58486685D01*
X117129699Y-58409468D01*
X117064032Y-58343801D01*
X116986815Y-58292207D01*
X116901017Y-58256668D01*
X116809934Y-58238550D01*
X116717066Y-58238550D01*
X116625983Y-58256668D01*
X116540185Y-58292207D01*
X116462968Y-58343801D01*
X116397301Y-58409468D01*
X116345707Y-58486685D01*
X116310168Y-58572483D01*
X116292050Y-58663566D01*
X114090450Y-58663566D01*
X114090450Y-54654450D01*
X115062000Y-54654450D01*
X115070672Y-54653596D01*
X115079010Y-54651066D01*
X115086695Y-54646959D01*
X115093431Y-54641431D01*
X115098959Y-54634695D01*
X115103066Y-54627010D01*
X115105596Y-54618672D01*
X115106450Y-54610000D01*
X115106450Y-53972368D01*
X115787550Y-53972368D01*
X115787550Y-54104632D01*
X115813353Y-54234355D01*
X115863969Y-54356551D01*
X115937451Y-54466525D01*
X116030975Y-54560049D01*
X116140949Y-54633531D01*
X116263145Y-54684147D01*
X116392868Y-54709950D01*
X116525132Y-54709950D01*
X116654855Y-54684147D01*
X116777051Y-54633531D01*
X116887025Y-54560049D01*
X116980549Y-54466525D01*
X117054031Y-54356551D01*
X117104647Y-54234355D01*
X117130450Y-54104632D01*
X117130450Y-53972368D01*
X122264550Y-53972368D01*
X122264550Y-54104632D01*
X122290353Y-54234355D01*
X122340969Y-54356551D01*
X122414451Y-54466525D01*
X122507975Y-54560049D01*
X122617949Y-54633531D01*
X122740145Y-54684147D01*
X122869868Y-54709950D01*
X123002132Y-54709950D01*
X123131855Y-54684147D01*
X123254051Y-54633531D01*
X123364025Y-54560049D01*
X123457549Y-54466525D01*
X123531031Y-54356551D01*
X123581647Y-54234355D01*
X123607450Y-54104632D01*
X123607450Y-53972368D01*
X123581647Y-53842645D01*
X123531031Y-53720449D01*
X123457549Y-53610475D01*
X123364025Y-53516951D01*
X123254051Y-53443469D01*
X123131855Y-53392853D01*
X123002132Y-53367050D01*
X122869868Y-53367050D01*
X122740145Y-53392853D01*
X122617949Y-53443469D01*
X122507975Y-53516951D01*
X122414451Y-53610475D01*
X122340969Y-53720449D01*
X122290353Y-53842645D01*
X122264550Y-53972368D01*
X117130450Y-53972368D01*
X117104647Y-53842645D01*
X117054031Y-53720449D01*
X116980549Y-53610475D01*
X116887025Y-53516951D01*
X116777051Y-53443469D01*
X116654855Y-53392853D01*
X116525132Y-53367050D01*
X116392868Y-53367050D01*
X116263145Y-53392853D01*
X116140949Y-53443469D01*
X116030975Y-53516951D01*
X115937451Y-53610475D01*
X115863969Y-53720449D01*
X115813353Y-53842645D01*
X115787550Y-53972368D01*
X115106450Y-53972368D01*
X115106450Y-52620367D01*
X115579153Y-52147664D01*
X115589320Y-52139320D01*
X115622617Y-52098748D01*
X115647359Y-52052459D01*
X115660032Y-52010680D01*
X115662594Y-52002234D01*
X115662897Y-51999148D01*
X116299635Y-51999148D01*
X116357312Y-52090505D01*
X116479098Y-52146014D01*
X116609374Y-52176697D01*
X116743133Y-52181374D01*
X116875233Y-52159867D01*
X117000600Y-52113002D01*
X117042688Y-52090505D01*
X117100365Y-51999148D01*
X117249635Y-51999148D01*
X117307312Y-52090505D01*
X117429098Y-52146014D01*
X117559374Y-52176697D01*
X117693133Y-52181374D01*
X117825233Y-52159867D01*
X117950600Y-52113002D01*
X117992688Y-52090505D01*
X118050365Y-51999148D01*
X118199635Y-51999148D01*
X118257312Y-52090505D01*
X118379098Y-52146014D01*
X118509374Y-52176697D01*
X118643133Y-52181374D01*
X118775233Y-52159867D01*
X118900600Y-52113002D01*
X118942688Y-52090505D01*
X119000365Y-51999148D01*
X118600000Y-51598783D01*
X118199635Y-51999148D01*
X118050365Y-51999148D01*
X117650000Y-51598783D01*
X117249635Y-51999148D01*
X117100365Y-51999148D01*
X116700000Y-51598783D01*
X116299635Y-51999148D01*
X115662897Y-51999148D01*
X115663112Y-51996972D01*
X115666450Y-51963086D01*
X115666450Y-51963080D01*
X115667738Y-51950001D01*
X115666450Y-51936922D01*
X115666450Y-51543133D01*
X116018626Y-51543133D01*
X116040133Y-51675233D01*
X116086998Y-51800600D01*
X116109495Y-51842688D01*
X116200852Y-51900365D01*
X116601217Y-51500000D01*
X116798783Y-51500000D01*
X116999755Y-51700972D01*
X117036998Y-51800600D01*
X117059495Y-51842688D01*
X117150852Y-51900365D01*
X117175000Y-51876217D01*
X117199148Y-51900365D01*
X117290505Y-51842688D01*
X117346014Y-51720902D01*
X117350851Y-51700366D01*
X117551217Y-51500000D01*
X117748783Y-51500000D01*
X117949755Y-51700972D01*
X117986998Y-51800600D01*
X118009495Y-51842688D01*
X118100852Y-51900365D01*
X118125000Y-51876217D01*
X118149148Y-51900365D01*
X118240505Y-51842688D01*
X118296014Y-51720902D01*
X118300851Y-51700366D01*
X118501217Y-51500000D01*
X118698783Y-51500000D01*
X119099148Y-51900365D01*
X119190505Y-51842688D01*
X119246014Y-51720902D01*
X119276697Y-51590626D01*
X119281374Y-51456867D01*
X119259867Y-51324767D01*
X119213002Y-51199400D01*
X119190505Y-51157312D01*
X119099148Y-51099635D01*
X118698783Y-51500000D01*
X118501217Y-51500000D01*
X118300245Y-51299028D01*
X118263002Y-51199400D01*
X118240505Y-51157312D01*
X118149148Y-51099635D01*
X118125000Y-51123783D01*
X118100852Y-51099635D01*
X118009495Y-51157312D01*
X117953986Y-51279098D01*
X117949149Y-51299634D01*
X117748783Y-51500000D01*
X117551217Y-51500000D01*
X117350245Y-51299028D01*
X117313002Y-51199400D01*
X117290505Y-51157312D01*
X117199148Y-51099635D01*
X117175000Y-51123783D01*
X117150852Y-51099635D01*
X117059495Y-51157312D01*
X117003986Y-51279098D01*
X116999149Y-51299634D01*
X116798783Y-51500000D01*
X116601217Y-51500000D01*
X116200852Y-51099635D01*
X116109495Y-51157312D01*
X116053986Y-51279098D01*
X116023303Y-51409374D01*
X116018626Y-51543133D01*
X115666450Y-51543133D01*
X115666450Y-51000852D01*
X116299635Y-51000852D01*
X116700000Y-51401217D01*
X117100365Y-51000852D01*
X117249635Y-51000852D01*
X117650000Y-51401217D01*
X118050365Y-51000852D01*
X118199635Y-51000852D01*
X118600000Y-51401217D01*
X119000365Y-51000852D01*
X118942688Y-50909495D01*
X118820902Y-50853986D01*
X118690626Y-50823303D01*
X118556867Y-50818626D01*
X118424767Y-50840133D01*
X118299400Y-50886998D01*
X118257312Y-50909495D01*
X118199635Y-51000852D01*
X118050365Y-51000852D01*
X117992688Y-50909495D01*
X117870902Y-50853986D01*
X117740626Y-50823303D01*
X117606867Y-50818626D01*
X117474767Y-50840133D01*
X117349400Y-50886998D01*
X117307312Y-50909495D01*
X117249635Y-51000852D01*
X117100365Y-51000852D01*
X117042688Y-50909495D01*
X116920902Y-50853986D01*
X116790626Y-50823303D01*
X116656867Y-50818626D01*
X116524767Y-50840133D01*
X116399400Y-50886998D01*
X116357312Y-50909495D01*
X116299635Y-51000852D01*
X115666450Y-51000852D01*
X115666450Y-49913078D01*
X115667738Y-49899999D01*
X115666450Y-49886920D01*
X115666450Y-49886914D01*
X115662696Y-49848804D01*
X115662594Y-49847766D01*
X115648506Y-49801324D01*
X115647359Y-49797541D01*
X115622617Y-49751252D01*
X115589320Y-49710680D01*
X115579153Y-49702336D01*
X115106450Y-49229633D01*
X115106450Y-48050450D01*
X124161550Y-48050450D01*
X124161550Y-71051203D01*
M02*
