%TF.GenerationSoftware,KiCad,Pcbnew,5.0.2-bee76a0~70~ubuntu18.04.1*%
%TF.CreationDate,2020-02-29T17:16:54-08:00*%
%TF.ProjectId,SolarCellZ_v1,536f6c61-7243-4656-9c6c-5a5f76312e6b,rev?*%
%TF.SameCoordinates,Original*%
%TF.FileFunction,Legend,Top*%
%TF.FilePolarity,Positive*%
%FSLAX46Y46*%
G04 Gerber Fmt 4.6, Leading zero omitted, Abs format (unit mm)*
G04 Created by KiCad (PCBNEW 5.0.2-bee76a0~70~ubuntu18.04.1) date Sat 29 Feb 2020 05:16:54 PM PST*
%MOMM*%
%LPD*%
G01*
G04 APERTURE LIST*
%ADD10C,0.200000*%
%ADD11C,0.127000*%
%ADD12C,0.203200*%
%ADD13C,0.120000*%
%ADD14C,0.050000*%
%ADD15C,0.100000*%
%ADD16C,0.101600*%
G04 APERTURE END LIST*
D10*
X136007500Y-73391000D02*
G75*
G03X136007500Y-73391000I-1100000J0D01*
G01*
X96207500Y-73391000D02*
G75*
G03X96207500Y-73391000I-1100000J0D01*
G01*
X107407500Y-52841000D02*
G75*
G02X106407500Y-53841000I-1000000J0D01*
G01*
X100207500Y-53841000D02*
G75*
G02X99207500Y-52841000I0J1000000D01*
G01*
X106407500Y-50041000D02*
G75*
G02X107407500Y-51041000I0J-1000000D01*
G01*
X99207500Y-51041000D02*
G75*
G02X100207500Y-50041000I1000000J0D01*
G01*
X96207500Y-54991000D02*
G75*
G03X96207500Y-54991000I-1100000J0D01*
G01*
X106407500Y-50041000D02*
X100207500Y-50041000D01*
X138407500Y-39991000D02*
X138407500Y-88391000D01*
X138407500Y-88391000D02*
X90007500Y-88391000D01*
X90007500Y-88391000D02*
X90007500Y-39991000D01*
X90007500Y-39991000D02*
X138407500Y-39991000D01*
X100207500Y-53841000D02*
X106407500Y-53841000D01*
X136007500Y-54991000D02*
G75*
G03X136007500Y-54991000I-1100000J0D01*
G01*
X107407500Y-52841000D02*
X107407500Y-51041000D01*
X99207500Y-51041000D02*
X99207500Y-52841000D01*
D11*
X127928309Y-70137261D02*
X128321404Y-70137261D01*
X128109738Y-70379166D01*
X128200452Y-70379166D01*
X128260928Y-70409404D01*
X128291166Y-70439642D01*
X128321404Y-70500119D01*
X128321404Y-70651309D01*
X128291166Y-70711785D01*
X128260928Y-70742023D01*
X128200452Y-70772261D01*
X128019023Y-70772261D01*
X127958547Y-70742023D01*
X127928309Y-70711785D01*
X128502833Y-70137261D02*
X128714500Y-70772261D01*
X128926166Y-70137261D01*
X129077357Y-70137261D02*
X129470452Y-70137261D01*
X129258785Y-70379166D01*
X129349500Y-70379166D01*
X129409976Y-70409404D01*
X129440214Y-70439642D01*
X129470452Y-70500119D01*
X129470452Y-70651309D01*
X129440214Y-70711785D01*
X129409976Y-70742023D01*
X129349500Y-70772261D01*
X129168071Y-70772261D01*
X129107595Y-70742023D01*
X129077357Y-70711785D01*
D12*
X121484571Y-74757642D02*
X122355428Y-74757642D01*
X121920000Y-75193071D02*
X121920000Y-74322214D01*
D11*
X128294190Y-72199500D02*
X128233714Y-72169261D01*
X128143000Y-72169261D01*
X128052285Y-72199500D01*
X127991809Y-72259976D01*
X127961571Y-72320452D01*
X127931333Y-72441404D01*
X127931333Y-72532119D01*
X127961571Y-72653071D01*
X127991809Y-72713547D01*
X128052285Y-72774023D01*
X128143000Y-72804261D01*
X128203476Y-72804261D01*
X128294190Y-72774023D01*
X128324428Y-72743785D01*
X128324428Y-72532119D01*
X128203476Y-72532119D01*
X128596571Y-72804261D02*
X128596571Y-72169261D01*
X128959428Y-72804261D01*
X128959428Y-72169261D01*
X129261809Y-72804261D02*
X129261809Y-72169261D01*
X129413000Y-72169261D01*
X129503714Y-72199500D01*
X129564190Y-72259976D01*
X129594428Y-72320452D01*
X129624666Y-72441404D01*
X129624666Y-72532119D01*
X129594428Y-72653071D01*
X129564190Y-72713547D01*
X129503714Y-72774023D01*
X129413000Y-72804261D01*
X129261809Y-72804261D01*
X123625428Y-72864738D02*
X123625428Y-73499738D01*
X123262571Y-72864738D01*
X123262571Y-73499738D01*
X123912690Y-77439761D02*
X123912690Y-76804761D01*
X124154595Y-76804761D01*
X124215071Y-76835000D01*
X124245309Y-76865238D01*
X124275547Y-76925714D01*
X124275547Y-77016428D01*
X124245309Y-77076904D01*
X124215071Y-77107142D01*
X124154595Y-77137380D01*
X123912690Y-77137380D01*
D12*
X125739071Y-74757642D02*
X126609928Y-74757642D01*
D13*
X124079000Y-74866500D02*
X123761500Y-74866500D01*
X123126500Y-74866500D02*
X123444000Y-74866500D01*
X122872500Y-74866500D02*
X122555000Y-74866500D01*
X125412500Y-74866500D02*
X125095000Y-74866500D01*
X124460000Y-74866500D02*
X124777500Y-74866500D01*
D14*
X97100000Y-73400000D02*
G75*
G03X97100000Y-73400000I-2000000J0D01*
G01*
X136900000Y-73400000D02*
G75*
G03X136900000Y-73400000I-2000000J0D01*
G01*
X136900000Y-55000000D02*
G75*
G03X136900000Y-55000000I-2000000J0D01*
G01*
D13*
X97100000Y-55000000D02*
G75*
G03X97100000Y-55000000I-2000000J0D01*
G01*
D12*
X116750000Y-41850000D02*
X114850000Y-41850000D01*
X116750000Y-41850000D02*
X116750000Y-41950000D01*
X116750000Y-41950000D02*
X114850000Y-41950000D01*
X116750000Y-49550000D02*
X116750000Y-49650000D01*
X116750000Y-49650000D02*
X114850000Y-49650000D01*
X116750000Y-49550000D02*
X114850000Y-49550000D01*
D13*
X132750000Y-45750000D02*
X134750000Y-45750000D01*
X117450000Y-45750000D02*
X119450000Y-45750000D01*
X118450000Y-44750000D02*
X118450000Y-46750000D01*
X114750000Y-49750000D02*
X114750000Y-41750000D01*
X137750000Y-49750000D02*
X114750000Y-49750000D01*
X137750000Y-41750000D02*
X137750000Y-49750000D01*
X114750000Y-41750000D02*
X137750000Y-41750000D01*
D12*
X111500000Y-49650000D02*
X113400000Y-49650000D01*
X111500000Y-49650000D02*
X111500000Y-49550000D01*
X111500000Y-49550000D02*
X113400000Y-49550000D01*
X111500000Y-41950000D02*
X111500000Y-41850000D01*
X111500000Y-41850000D02*
X113400000Y-41850000D01*
X111500000Y-41950000D02*
X113400000Y-41950000D01*
D13*
X95500000Y-45750000D02*
X93500000Y-45750000D01*
X110800000Y-45750000D02*
X108800000Y-45750000D01*
X109800000Y-46750000D02*
X109800000Y-44750000D01*
X113500000Y-41750000D02*
X113500000Y-49750000D01*
X90500000Y-41750000D02*
X113500000Y-41750000D01*
X90500000Y-49750000D02*
X90500000Y-41750000D01*
X113500000Y-49750000D02*
X90500000Y-49750000D01*
D12*
X111250000Y-53100000D02*
X109350000Y-53100000D01*
X111250000Y-53100000D02*
X111250000Y-53200000D01*
X111250000Y-53200000D02*
X109350000Y-53200000D01*
X111250000Y-60800000D02*
X111250000Y-60900000D01*
X111250000Y-60900000D02*
X109350000Y-60900000D01*
X111250000Y-60800000D02*
X109350000Y-60800000D01*
D13*
X127250000Y-57000000D02*
X129250000Y-57000000D01*
X111950000Y-57000000D02*
X113950000Y-57000000D01*
X112950000Y-56000000D02*
X112950000Y-58000000D01*
X109250000Y-61000000D02*
X109250000Y-53000000D01*
X132250000Y-61000000D02*
X109250000Y-61000000D01*
X132250000Y-53000000D02*
X132250000Y-61000000D01*
X109250000Y-53000000D02*
X132250000Y-53000000D01*
D12*
X116750000Y-61600000D02*
X114850000Y-61600000D01*
X116750000Y-61600000D02*
X116750000Y-61700000D01*
X116750000Y-61700000D02*
X114850000Y-61700000D01*
X116750000Y-69300000D02*
X116750000Y-69400000D01*
X116750000Y-69400000D02*
X114850000Y-69400000D01*
X116750000Y-69300000D02*
X114850000Y-69300000D01*
D13*
X132750000Y-65500000D02*
X134750000Y-65500000D01*
X117450000Y-65500000D02*
X119450000Y-65500000D01*
X118450000Y-64500000D02*
X118450000Y-66500000D01*
X114750000Y-69500000D02*
X114750000Y-61500000D01*
X137750000Y-69500000D02*
X114750000Y-69500000D01*
X137750000Y-61500000D02*
X137750000Y-69500000D01*
X114750000Y-61500000D02*
X137750000Y-61500000D01*
D12*
X92500000Y-61600000D02*
X90600000Y-61600000D01*
X92500000Y-61600000D02*
X92500000Y-61700000D01*
X92500000Y-61700000D02*
X90600000Y-61700000D01*
X92500000Y-69300000D02*
X92500000Y-69400000D01*
X92500000Y-69400000D02*
X90600000Y-69400000D01*
X92500000Y-69300000D02*
X90600000Y-69300000D01*
D13*
X108500000Y-65500000D02*
X110500000Y-65500000D01*
X93200000Y-65500000D02*
X95200000Y-65500000D01*
X94200000Y-64500000D02*
X94200000Y-66500000D01*
X90500000Y-69500000D02*
X90500000Y-61500000D01*
X113500000Y-69500000D02*
X90500000Y-69500000D01*
X113500000Y-61500000D02*
X113500000Y-69500000D01*
X90500000Y-61500000D02*
X113500000Y-61500000D01*
D12*
X100187000Y-70100000D02*
X98287000Y-70100000D01*
X100187000Y-70100000D02*
X100187000Y-70200000D01*
X100187000Y-70200000D02*
X98287000Y-70200000D01*
X100187000Y-77800000D02*
X100187000Y-77900000D01*
X100187000Y-77900000D02*
X98287000Y-77900000D01*
X100187000Y-77800000D02*
X98287000Y-77800000D01*
D13*
X116187000Y-74000000D02*
X118187000Y-74000000D01*
X100887000Y-74000000D02*
X102887000Y-74000000D01*
X101887000Y-73000000D02*
X101887000Y-75000000D01*
X98187000Y-78000000D02*
X98187000Y-70000000D01*
X121187000Y-78000000D02*
X98187000Y-78000000D01*
X121187000Y-70000000D02*
X121187000Y-78000000D01*
X98187000Y-70000000D02*
X121187000Y-70000000D01*
D12*
X135750000Y-86400000D02*
X137650000Y-86400000D01*
X135750000Y-86400000D02*
X135750000Y-86300000D01*
X135750000Y-86300000D02*
X137650000Y-86300000D01*
X135750000Y-78700000D02*
X135750000Y-78600000D01*
X135750000Y-78600000D02*
X137650000Y-78600000D01*
X135750000Y-78700000D02*
X137650000Y-78700000D01*
D13*
X119750000Y-82500000D02*
X117750000Y-82500000D01*
X135050000Y-82500000D02*
X133050000Y-82500000D01*
X134050000Y-83500000D02*
X134050000Y-81500000D01*
X137750000Y-78500000D02*
X137750000Y-86500000D01*
X114750000Y-78500000D02*
X137750000Y-78500000D01*
X114750000Y-86500000D02*
X114750000Y-78500000D01*
X137750000Y-86500000D02*
X114750000Y-86500000D01*
D12*
X92750000Y-78600000D02*
X90850000Y-78600000D01*
X92750000Y-78600000D02*
X92750000Y-78700000D01*
X92750000Y-78700000D02*
X90850000Y-78700000D01*
X92750000Y-86300000D02*
X92750000Y-86400000D01*
X92750000Y-86400000D02*
X90850000Y-86400000D01*
X92750000Y-86300000D02*
X90850000Y-86300000D01*
D13*
X108750000Y-82500000D02*
X110750000Y-82500000D01*
X93450000Y-82500000D02*
X95450000Y-82500000D01*
X94450000Y-81500000D02*
X94450000Y-83500000D01*
X90750000Y-86500000D02*
X90750000Y-78500000D01*
X113750000Y-86500000D02*
X90750000Y-86500000D01*
X113750000Y-78500000D02*
X113750000Y-86500000D01*
X90750000Y-78500000D02*
X113750000Y-78500000D01*
D15*
X123261500Y-70137500D02*
X124261500Y-70134500D01*
X123261500Y-72737500D02*
X124261500Y-72744500D01*
X121561500Y-70487500D02*
X121561500Y-70487500D01*
X121461500Y-70487500D02*
X121461500Y-70487500D01*
X121461500Y-70487500D02*
G75*
G02X121561500Y-70487500I50000J0D01*
G01*
X121561500Y-70487500D02*
G75*
G02X121461500Y-70487500I-50000J0D01*
G01*
D13*
X127192000Y-68199000D02*
G75*
G03X127192000Y-68199000I-700000J0D01*
G01*
X126200000Y-52250000D02*
X126600000Y-52250000D01*
X125600000Y-50350000D02*
X128400000Y-50350000D01*
X125600000Y-52150000D02*
X125600000Y-50350000D01*
X128400000Y-52150000D02*
X125600000Y-52150000D01*
X128400000Y-50350000D02*
X128400000Y-52150000D01*
X130035200Y-76152500D02*
X129635200Y-76152500D01*
X130635200Y-78052500D02*
X127835200Y-78052500D01*
X130635200Y-76252500D02*
X130635200Y-78052500D01*
X127835200Y-76252500D02*
X130635200Y-76252500D01*
X127835200Y-78052500D02*
X127835200Y-76252500D01*
D16*
X124106214Y-72183357D02*
X123344214Y-72183357D01*
X124033642Y-71385071D02*
X124069928Y-71421357D01*
X124106214Y-71530214D01*
X124106214Y-71602785D01*
X124069928Y-71711642D01*
X123997357Y-71784214D01*
X123924785Y-71820500D01*
X123779642Y-71856785D01*
X123670785Y-71856785D01*
X123525642Y-71820500D01*
X123453071Y-71784214D01*
X123380500Y-71711642D01*
X123344214Y-71602785D01*
X123344214Y-71530214D01*
X123380500Y-71421357D01*
X123416785Y-71385071D01*
X124106214Y-70659357D02*
X124106214Y-71094785D01*
X124106214Y-70877071D02*
X123344214Y-70877071D01*
X123453071Y-70949642D01*
X123525642Y-71022214D01*
X123561928Y-71094785D01*
D11*
X131474633Y-51608566D02*
X131474633Y-50719566D01*
X131686300Y-50719566D01*
X131813300Y-50761900D01*
X131897966Y-50846566D01*
X131940300Y-50931233D01*
X131982633Y-51100566D01*
X131982633Y-51227566D01*
X131940300Y-51396900D01*
X131897966Y-51481566D01*
X131813300Y-51566233D01*
X131686300Y-51608566D01*
X131474633Y-51608566D01*
X132786966Y-50719566D02*
X132363633Y-50719566D01*
X132321300Y-51142900D01*
X132363633Y-51100566D01*
X132448300Y-51058233D01*
X132659966Y-51058233D01*
X132744633Y-51100566D01*
X132786966Y-51142900D01*
X132829300Y-51227566D01*
X132829300Y-51439233D01*
X132786966Y-51523900D01*
X132744633Y-51566233D01*
X132659966Y-51608566D01*
X132448300Y-51608566D01*
X132363633Y-51566233D01*
X132321300Y-51523900D01*
X133029033Y-77554666D02*
X133029033Y-76665666D01*
X133240700Y-76665666D01*
X133367700Y-76708000D01*
X133452366Y-76792666D01*
X133494700Y-76877333D01*
X133537033Y-77046666D01*
X133537033Y-77173666D01*
X133494700Y-77343000D01*
X133452366Y-77427666D01*
X133367700Y-77512333D01*
X133240700Y-77554666D01*
X133029033Y-77554666D01*
X134299033Y-76962000D02*
X134299033Y-77554666D01*
X134087366Y-76623333D02*
X133875700Y-77258333D01*
X134426033Y-77258333D01*
M02*
