%TF.GenerationSoftware,KiCad,Pcbnew,5.0.2-bee76a0~70~ubuntu18.04.1*%
%TF.CreationDate,2020-02-29T17:16:54-08:00*%
%TF.ProjectId,SolarCellZ_v1,536f6c61-7243-4656-9c6c-5a5f76312e6b,rev?*%
%TF.SameCoordinates,Original*%
%TF.FileFunction,Legend,Bot*%
%TF.FilePolarity,Positive*%
%FSLAX46Y46*%
G04 Gerber Fmt 4.6, Leading zero omitted, Abs format (unit mm)*
G04 Created by KiCad (PCBNEW 5.0.2-bee76a0~70~ubuntu18.04.1) date Sat 29 Feb 2020 05:16:54 PM PST*
%MOMM*%
%LPD*%
G01*
G04 APERTURE LIST*
%ADD10C,0.300000*%
%ADD11C,0.200000*%
%ADD12C,0.120000*%
%ADD13C,0.076200*%
%ADD14C,0.101600*%
%ADD15C,0.150000*%
%ADD16C,0.203200*%
%ADD17C,0.250000*%
%ADD18C,0.254000*%
%ADD19C,0.127000*%
G04 APERTURE END LIST*
D10*
X120021428Y-55878571D02*
X120878571Y-55878571D01*
X120450000Y-55878571D02*
X120450000Y-54378571D01*
X120592857Y-54592857D01*
X120735714Y-54735714D01*
X120878571Y-54807142D01*
D11*
X136007500Y-73391000D02*
G75*
G03X136007500Y-73391000I-1100000J0D01*
G01*
X96207500Y-73391000D02*
G75*
G03X96207500Y-73391000I-1100000J0D01*
G01*
D12*
X103428800Y-64312800D02*
X104521000Y-64312800D01*
D13*
X128886422Y-55533285D02*
X128916660Y-55563523D01*
X129007374Y-55593761D01*
X129067850Y-55593761D01*
X129158565Y-55563523D01*
X129219041Y-55503047D01*
X129249279Y-55442571D01*
X129279517Y-55321619D01*
X129279517Y-55230904D01*
X129249279Y-55109952D01*
X129219041Y-55049476D01*
X129158565Y-54989000D01*
X129067850Y-54958761D01*
X129007374Y-54958761D01*
X128916660Y-54989000D01*
X128886422Y-55019238D01*
X128342136Y-55593761D02*
X128342136Y-55261142D01*
X128372374Y-55200666D01*
X128432850Y-55170428D01*
X128553803Y-55170428D01*
X128614279Y-55200666D01*
X128342136Y-55563523D02*
X128402612Y-55593761D01*
X128553803Y-55593761D01*
X128614279Y-55563523D01*
X128644517Y-55503047D01*
X128644517Y-55442571D01*
X128614279Y-55382095D01*
X128553803Y-55351857D01*
X128402612Y-55351857D01*
X128342136Y-55321619D01*
X128039755Y-55593761D02*
X128039755Y-54958761D01*
X128039755Y-55200666D02*
X127979279Y-55170428D01*
X127858327Y-55170428D01*
X127797850Y-55200666D01*
X127767612Y-55230904D01*
X127737374Y-55291380D01*
X127737374Y-55472809D01*
X127767612Y-55533285D01*
X127797850Y-55563523D01*
X127858327Y-55593761D01*
X127979279Y-55593761D01*
X128039755Y-55563523D01*
X127374517Y-55593761D02*
X127434993Y-55563523D01*
X127465231Y-55503047D01*
X127465231Y-54958761D01*
X126890708Y-55563523D02*
X126951184Y-55593761D01*
X127072136Y-55593761D01*
X127132612Y-55563523D01*
X127162850Y-55503047D01*
X127162850Y-55261142D01*
X127132612Y-55200666D01*
X127072136Y-55170428D01*
X126951184Y-55170428D01*
X126890708Y-55200666D01*
X126860470Y-55261142D01*
X126860470Y-55321619D01*
X127162850Y-55382095D01*
X126104517Y-55593761D02*
X126104517Y-54958761D01*
X125862612Y-54958761D01*
X125802136Y-54989000D01*
X125771898Y-55019238D01*
X125741660Y-55079714D01*
X125741660Y-55170428D01*
X125771898Y-55230904D01*
X125802136Y-55261142D01*
X125862612Y-55291380D01*
X126104517Y-55291380D01*
X125469517Y-55593761D02*
X125469517Y-55170428D01*
X125469517Y-54958761D02*
X125499755Y-54989000D01*
X125469517Y-55019238D01*
X125439279Y-54989000D01*
X125469517Y-54958761D01*
X125469517Y-55019238D01*
X125167136Y-55170428D02*
X125167136Y-55593761D01*
X125167136Y-55230904D02*
X125136898Y-55200666D01*
X125076422Y-55170428D01*
X124985708Y-55170428D01*
X124925231Y-55200666D01*
X124894993Y-55261142D01*
X124894993Y-55593761D01*
X124501898Y-55593761D02*
X124562374Y-55563523D01*
X124592612Y-55533285D01*
X124622850Y-55472809D01*
X124622850Y-55291380D01*
X124592612Y-55230904D01*
X124562374Y-55200666D01*
X124501898Y-55170428D01*
X124411184Y-55170428D01*
X124350708Y-55200666D01*
X124320470Y-55230904D01*
X124290231Y-55291380D01*
X124290231Y-55472809D01*
X124320470Y-55533285D01*
X124350708Y-55563523D01*
X124411184Y-55593761D01*
X124501898Y-55593761D01*
X123745946Y-55170428D02*
X123745946Y-55593761D01*
X124018089Y-55170428D02*
X124018089Y-55503047D01*
X123987850Y-55563523D01*
X123927374Y-55593761D01*
X123836660Y-55593761D01*
X123776184Y-55563523D01*
X123745946Y-55533285D01*
X123534279Y-55170428D02*
X123292374Y-55170428D01*
X123443565Y-54958761D02*
X123443565Y-55503047D01*
X123413327Y-55563523D01*
X123352850Y-55593761D01*
X123292374Y-55593761D01*
X128916660Y-56622461D02*
X129279517Y-56622461D01*
X129098089Y-56622461D02*
X129098089Y-55987461D01*
X129158565Y-56078176D01*
X129219041Y-56138652D01*
X129279517Y-56168890D01*
X128644517Y-56561985D02*
X128614279Y-56592223D01*
X128644517Y-56622461D01*
X128674755Y-56592223D01*
X128644517Y-56561985D01*
X128644517Y-56622461D01*
X128130470Y-56289842D02*
X128039755Y-56320080D01*
X128009517Y-56350319D01*
X127979279Y-56410795D01*
X127979279Y-56501509D01*
X128009517Y-56561985D01*
X128039755Y-56592223D01*
X128100231Y-56622461D01*
X128342136Y-56622461D01*
X128342136Y-55987461D01*
X128130470Y-55987461D01*
X128069993Y-56017700D01*
X128039755Y-56047938D01*
X128009517Y-56108414D01*
X128009517Y-56168890D01*
X128039755Y-56229366D01*
X128069993Y-56259604D01*
X128130470Y-56289842D01*
X128342136Y-56289842D01*
X127737374Y-56441033D02*
X127434993Y-56441033D01*
X127797850Y-56622461D02*
X127586184Y-55987461D01*
X127374517Y-56622461D01*
X127253565Y-55987461D02*
X126890708Y-55987461D01*
X127072136Y-56622461D02*
X127072136Y-55987461D01*
X126769755Y-55987461D02*
X126406898Y-55987461D01*
X126588327Y-56622461D02*
X126588327Y-55987461D01*
X126346422Y-56682938D02*
X125862612Y-56682938D01*
X125711422Y-56622461D02*
X125711422Y-55987461D01*
X125469517Y-55987461D01*
X125409041Y-56017700D01*
X125378803Y-56047938D01*
X125348565Y-56108414D01*
X125348565Y-56199128D01*
X125378803Y-56259604D01*
X125409041Y-56289842D01*
X125469517Y-56320080D01*
X125711422Y-56320080D01*
X129279517Y-57076638D02*
X129249279Y-57046400D01*
X129188803Y-57016161D01*
X129037612Y-57016161D01*
X128977136Y-57046400D01*
X128946898Y-57076638D01*
X128916660Y-57137114D01*
X128916660Y-57197590D01*
X128946898Y-57288304D01*
X129309755Y-57651161D01*
X128916660Y-57651161D01*
X128644517Y-57590685D02*
X128614279Y-57620923D01*
X128644517Y-57651161D01*
X128674755Y-57620923D01*
X128644517Y-57590685D01*
X128644517Y-57651161D01*
X128130470Y-57318542D02*
X128039755Y-57348780D01*
X128009517Y-57379019D01*
X127979279Y-57439495D01*
X127979279Y-57530209D01*
X128009517Y-57590685D01*
X128039755Y-57620923D01*
X128100231Y-57651161D01*
X128342136Y-57651161D01*
X128342136Y-57016161D01*
X128130470Y-57016161D01*
X128069993Y-57046400D01*
X128039755Y-57076638D01*
X128009517Y-57137114D01*
X128009517Y-57197590D01*
X128039755Y-57258066D01*
X128069993Y-57288304D01*
X128130470Y-57318542D01*
X128342136Y-57318542D01*
X127737374Y-57469733D02*
X127434993Y-57469733D01*
X127797850Y-57651161D02*
X127586184Y-57016161D01*
X127374517Y-57651161D01*
X127253565Y-57016161D02*
X126890708Y-57016161D01*
X127072136Y-57651161D02*
X127072136Y-57016161D01*
X126769755Y-57016161D02*
X126406898Y-57016161D01*
X126588327Y-57651161D02*
X126588327Y-57016161D01*
X126346422Y-57711638D02*
X125862612Y-57711638D01*
X125711422Y-57651161D02*
X125711422Y-57016161D01*
X125348565Y-57651161D01*
X125348565Y-57016161D01*
X129309755Y-58044861D02*
X128916660Y-58044861D01*
X129128327Y-58286766D01*
X129037612Y-58286766D01*
X128977136Y-58317004D01*
X128946898Y-58347242D01*
X128916660Y-58407719D01*
X128916660Y-58558909D01*
X128946898Y-58619385D01*
X128977136Y-58649623D01*
X129037612Y-58679861D01*
X129219041Y-58679861D01*
X129279517Y-58649623D01*
X129309755Y-58619385D01*
X128644517Y-58619385D02*
X128614279Y-58649623D01*
X128644517Y-58679861D01*
X128674755Y-58649623D01*
X128644517Y-58619385D01*
X128644517Y-58679861D01*
X128372374Y-58649623D02*
X128281660Y-58679861D01*
X128130470Y-58679861D01*
X128069993Y-58649623D01*
X128039755Y-58619385D01*
X128009517Y-58558909D01*
X128009517Y-58498433D01*
X128039755Y-58437957D01*
X128069993Y-58407719D01*
X128130470Y-58377480D01*
X128251422Y-58347242D01*
X128311898Y-58317004D01*
X128342136Y-58286766D01*
X128372374Y-58226290D01*
X128372374Y-58165814D01*
X128342136Y-58105338D01*
X128311898Y-58075100D01*
X128251422Y-58044861D01*
X128100231Y-58044861D01*
X128009517Y-58075100D01*
X127737374Y-58679861D02*
X127737374Y-58044861D01*
X127586184Y-58044861D01*
X127495470Y-58075100D01*
X127434993Y-58135576D01*
X127404755Y-58196052D01*
X127374517Y-58317004D01*
X127374517Y-58407719D01*
X127404755Y-58528671D01*
X127434993Y-58589147D01*
X127495470Y-58649623D01*
X127586184Y-58679861D01*
X127737374Y-58679861D01*
X127132612Y-58498433D02*
X126830231Y-58498433D01*
X127193089Y-58679861D02*
X126981422Y-58044861D01*
X126769755Y-58679861D01*
X128977136Y-59285228D02*
X128977136Y-59708561D01*
X129128327Y-59043323D02*
X129279517Y-59496895D01*
X128886422Y-59496895D01*
X128644517Y-59648085D02*
X128614279Y-59678323D01*
X128644517Y-59708561D01*
X128674755Y-59678323D01*
X128644517Y-59648085D01*
X128644517Y-59708561D01*
X128372374Y-59678323D02*
X128281660Y-59708561D01*
X128130470Y-59708561D01*
X128069993Y-59678323D01*
X128039755Y-59648085D01*
X128009517Y-59587609D01*
X128009517Y-59527133D01*
X128039755Y-59466657D01*
X128069993Y-59436419D01*
X128130470Y-59406180D01*
X128251422Y-59375942D01*
X128311898Y-59345704D01*
X128342136Y-59315466D01*
X128372374Y-59254990D01*
X128372374Y-59194514D01*
X128342136Y-59134038D01*
X128311898Y-59103800D01*
X128251422Y-59073561D01*
X128100231Y-59073561D01*
X128009517Y-59103800D01*
X127374517Y-59648085D02*
X127404755Y-59678323D01*
X127495469Y-59708561D01*
X127555946Y-59708561D01*
X127646660Y-59678323D01*
X127707136Y-59617847D01*
X127737374Y-59557371D01*
X127767612Y-59436419D01*
X127767612Y-59345704D01*
X127737374Y-59224752D01*
X127707136Y-59164276D01*
X127646660Y-59103800D01*
X127555946Y-59073561D01*
X127495469Y-59073561D01*
X127404755Y-59103800D01*
X127374517Y-59134038D01*
X126799993Y-59708561D02*
X127102374Y-59708561D01*
X127102374Y-59073561D01*
X128946898Y-60102261D02*
X129249279Y-60102261D01*
X129279517Y-60404642D01*
X129249279Y-60374404D01*
X129188803Y-60344166D01*
X129037612Y-60344166D01*
X128977136Y-60374404D01*
X128946898Y-60404642D01*
X128916660Y-60465119D01*
X128916660Y-60616309D01*
X128946898Y-60676785D01*
X128977136Y-60707023D01*
X129037612Y-60737261D01*
X129188803Y-60737261D01*
X129249279Y-60707023D01*
X129279517Y-60676785D01*
X128644517Y-60676785D02*
X128614279Y-60707023D01*
X128644517Y-60737261D01*
X128674755Y-60707023D01*
X128644517Y-60676785D01*
X128644517Y-60737261D01*
X128130470Y-60404642D02*
X128039755Y-60434880D01*
X128009517Y-60465119D01*
X127979279Y-60525595D01*
X127979279Y-60616309D01*
X128009517Y-60676785D01*
X128039755Y-60707023D01*
X128100231Y-60737261D01*
X128342136Y-60737261D01*
X128342136Y-60102261D01*
X128130470Y-60102261D01*
X128069993Y-60132500D01*
X128039755Y-60162738D01*
X128009517Y-60223214D01*
X128009517Y-60283690D01*
X128039755Y-60344166D01*
X128069993Y-60374404D01*
X128130470Y-60404642D01*
X128342136Y-60404642D01*
X127707136Y-60102261D02*
X127707136Y-60616309D01*
X127676898Y-60676785D01*
X127646660Y-60707023D01*
X127586184Y-60737261D01*
X127465231Y-60737261D01*
X127404755Y-60707023D01*
X127374517Y-60676785D01*
X127344279Y-60616309D01*
X127344279Y-60102261D01*
X126679041Y-60737261D02*
X126890708Y-60434880D01*
X127041898Y-60737261D02*
X127041898Y-60102261D01*
X126799993Y-60102261D01*
X126739517Y-60132500D01*
X126709279Y-60162738D01*
X126679041Y-60223214D01*
X126679041Y-60313928D01*
X126709279Y-60374404D01*
X126739517Y-60404642D01*
X126799993Y-60434880D01*
X127041898Y-60434880D01*
X126406898Y-60737261D02*
X126406898Y-60102261D01*
X126044041Y-60737261D01*
X126044041Y-60102261D01*
X128977136Y-61130961D02*
X129098089Y-61130961D01*
X129158565Y-61161200D01*
X129188803Y-61191438D01*
X129249279Y-61282152D01*
X129279517Y-61403104D01*
X129279517Y-61645009D01*
X129249279Y-61705485D01*
X129219041Y-61735723D01*
X129158565Y-61765961D01*
X129037612Y-61765961D01*
X128977136Y-61735723D01*
X128946898Y-61705485D01*
X128916660Y-61645009D01*
X128916660Y-61493819D01*
X128946898Y-61433342D01*
X128977136Y-61403104D01*
X129037612Y-61372866D01*
X129158565Y-61372866D01*
X129219041Y-61403104D01*
X129249279Y-61433342D01*
X129279517Y-61493819D01*
X128644517Y-61705485D02*
X128614279Y-61735723D01*
X128644517Y-61765961D01*
X128674755Y-61735723D01*
X128644517Y-61705485D01*
X128644517Y-61765961D01*
X128402612Y-61130961D02*
X128009517Y-61130961D01*
X128221184Y-61372866D01*
X128130470Y-61372866D01*
X128069993Y-61403104D01*
X128039755Y-61433342D01*
X128009517Y-61493819D01*
X128009517Y-61645009D01*
X128039755Y-61705485D01*
X128069993Y-61735723D01*
X128130470Y-61765961D01*
X128311898Y-61765961D01*
X128372374Y-61735723D01*
X128402612Y-61705485D01*
X127828089Y-61130961D02*
X127616422Y-61765961D01*
X127404755Y-61130961D01*
X127253565Y-61130961D02*
X126860469Y-61130961D01*
X127072136Y-61372866D01*
X126981422Y-61372866D01*
X126920946Y-61403104D01*
X126890708Y-61433342D01*
X126860469Y-61493819D01*
X126860469Y-61645009D01*
X126890708Y-61705485D01*
X126920946Y-61735723D01*
X126981422Y-61765961D01*
X127162850Y-61765961D01*
X127223327Y-61735723D01*
X127253565Y-61705485D01*
X129309755Y-62159661D02*
X128886422Y-62159661D01*
X129158565Y-62794661D01*
X128644517Y-62734185D02*
X128614279Y-62764423D01*
X128644517Y-62794661D01*
X128674755Y-62764423D01*
X128644517Y-62734185D01*
X128644517Y-62794661D01*
X128009517Y-62189900D02*
X128069993Y-62159661D01*
X128160708Y-62159661D01*
X128251422Y-62189900D01*
X128311898Y-62250376D01*
X128342136Y-62310852D01*
X128372374Y-62431804D01*
X128372374Y-62522519D01*
X128342136Y-62643471D01*
X128311898Y-62703947D01*
X128251422Y-62764423D01*
X128160708Y-62794661D01*
X128100231Y-62794661D01*
X128009517Y-62764423D01*
X127979279Y-62734185D01*
X127979279Y-62522519D01*
X128100231Y-62522519D01*
X127707136Y-62794661D02*
X127707136Y-62159661D01*
X127344279Y-62794661D01*
X127344279Y-62159661D01*
X127041898Y-62794661D02*
X127041898Y-62159661D01*
X126890708Y-62159661D01*
X126799993Y-62189900D01*
X126739517Y-62250376D01*
X126709279Y-62310852D01*
X126679041Y-62431804D01*
X126679041Y-62522519D01*
X126709279Y-62643471D01*
X126739517Y-62703947D01*
X126799993Y-62764423D01*
X126890708Y-62794661D01*
X127041898Y-62794661D01*
X129158565Y-63460504D02*
X129219041Y-63430266D01*
X129249279Y-63400028D01*
X129279517Y-63339552D01*
X129279517Y-63309314D01*
X129249279Y-63248838D01*
X129219041Y-63218600D01*
X129158565Y-63188361D01*
X129037612Y-63188361D01*
X128977136Y-63218600D01*
X128946898Y-63248838D01*
X128916660Y-63309314D01*
X128916660Y-63339552D01*
X128946898Y-63400028D01*
X128977136Y-63430266D01*
X129037612Y-63460504D01*
X129158565Y-63460504D01*
X129219041Y-63490742D01*
X129249279Y-63520980D01*
X129279517Y-63581457D01*
X129279517Y-63702409D01*
X129249279Y-63762885D01*
X129219041Y-63793123D01*
X129158565Y-63823361D01*
X129037612Y-63823361D01*
X128977136Y-63793123D01*
X128946898Y-63762885D01*
X128916660Y-63702409D01*
X128916660Y-63581457D01*
X128946898Y-63520980D01*
X128977136Y-63490742D01*
X129037612Y-63460504D01*
X128644517Y-63762885D02*
X128614279Y-63793123D01*
X128644517Y-63823361D01*
X128674755Y-63793123D01*
X128644517Y-63762885D01*
X128644517Y-63823361D01*
X128009517Y-63218600D02*
X128069993Y-63188361D01*
X128160708Y-63188361D01*
X128251422Y-63218600D01*
X128311898Y-63279076D01*
X128342136Y-63339552D01*
X128372374Y-63460504D01*
X128372374Y-63551219D01*
X128342136Y-63672171D01*
X128311898Y-63732647D01*
X128251422Y-63793123D01*
X128160708Y-63823361D01*
X128100231Y-63823361D01*
X128009517Y-63793123D01*
X127979279Y-63762885D01*
X127979279Y-63551219D01*
X128100231Y-63551219D01*
X127707136Y-63823361D02*
X127707136Y-63188361D01*
X127344279Y-63823361D01*
X127344279Y-63188361D01*
X127041898Y-63823361D02*
X127041898Y-63188361D01*
X126890708Y-63188361D01*
X126799993Y-63218600D01*
X126739517Y-63279076D01*
X126709279Y-63339552D01*
X126679041Y-63460504D01*
X126679041Y-63551219D01*
X126709279Y-63672171D01*
X126739517Y-63732647D01*
X126799993Y-63793123D01*
X126890708Y-63823361D01*
X127041898Y-63823361D01*
X129219041Y-64852061D02*
X129098089Y-64852061D01*
X129037612Y-64821823D01*
X129007374Y-64791585D01*
X128946898Y-64700871D01*
X128916660Y-64579919D01*
X128916660Y-64338014D01*
X128946898Y-64277538D01*
X128977136Y-64247300D01*
X129037612Y-64217061D01*
X129158565Y-64217061D01*
X129219041Y-64247300D01*
X129249279Y-64277538D01*
X129279517Y-64338014D01*
X129279517Y-64489204D01*
X129249279Y-64549680D01*
X129219041Y-64579919D01*
X129158565Y-64610157D01*
X129037612Y-64610157D01*
X128977136Y-64579919D01*
X128946898Y-64549680D01*
X128916660Y-64489204D01*
X128644517Y-64791585D02*
X128614279Y-64821823D01*
X128644517Y-64852061D01*
X128674755Y-64821823D01*
X128644517Y-64791585D01*
X128644517Y-64852061D01*
X127979279Y-64791585D02*
X128009517Y-64821823D01*
X128100231Y-64852061D01*
X128160708Y-64852061D01*
X128251422Y-64821823D01*
X128311898Y-64761347D01*
X128342136Y-64700871D01*
X128372374Y-64579919D01*
X128372374Y-64489204D01*
X128342136Y-64368252D01*
X128311898Y-64307776D01*
X128251422Y-64247300D01*
X128160708Y-64217061D01*
X128100231Y-64217061D01*
X128009517Y-64247300D01*
X127979279Y-64277538D01*
X127586184Y-64217061D02*
X127465231Y-64217061D01*
X127404755Y-64247300D01*
X127344279Y-64307776D01*
X127314041Y-64428728D01*
X127314041Y-64640395D01*
X127344279Y-64761347D01*
X127404755Y-64821823D01*
X127465231Y-64852061D01*
X127586184Y-64852061D01*
X127646660Y-64821823D01*
X127707136Y-64761347D01*
X127737374Y-64640395D01*
X127737374Y-64428728D01*
X127707136Y-64307776D01*
X127646660Y-64247300D01*
X127586184Y-64217061D01*
X127041898Y-64852061D02*
X127041898Y-64217061D01*
X126437136Y-64852061D02*
X126739517Y-64852061D01*
X126739517Y-64217061D01*
X126376660Y-64912538D02*
X125892850Y-64912538D01*
X125741660Y-64852061D02*
X125741660Y-64217061D01*
X125378803Y-64852061D01*
X125378803Y-64217061D01*
X128916660Y-65880761D02*
X129279517Y-65880761D01*
X129098089Y-65880761D02*
X129098089Y-65245761D01*
X129158565Y-65336476D01*
X129219041Y-65396952D01*
X129279517Y-65427190D01*
X128523565Y-65245761D02*
X128463089Y-65245761D01*
X128402612Y-65276000D01*
X128372374Y-65306238D01*
X128342136Y-65366714D01*
X128311898Y-65487666D01*
X128311898Y-65638857D01*
X128342136Y-65759809D01*
X128372374Y-65820285D01*
X128402612Y-65850523D01*
X128463089Y-65880761D01*
X128523565Y-65880761D01*
X128584041Y-65850523D01*
X128614279Y-65820285D01*
X128644517Y-65759809D01*
X128674755Y-65638857D01*
X128674755Y-65487666D01*
X128644517Y-65366714D01*
X128614279Y-65306238D01*
X128584041Y-65276000D01*
X128523565Y-65245761D01*
X128039755Y-65820285D02*
X128009517Y-65850523D01*
X128039755Y-65880761D01*
X128069993Y-65850523D01*
X128039755Y-65820285D01*
X128039755Y-65880761D01*
X127374517Y-65820285D02*
X127404755Y-65850523D01*
X127495470Y-65880761D01*
X127555946Y-65880761D01*
X127646660Y-65850523D01*
X127707136Y-65790047D01*
X127737374Y-65729571D01*
X127767612Y-65608619D01*
X127767612Y-65517904D01*
X127737374Y-65396952D01*
X127707136Y-65336476D01*
X127646660Y-65276000D01*
X127555946Y-65245761D01*
X127495470Y-65245761D01*
X127404755Y-65276000D01*
X127374517Y-65306238D01*
X126981422Y-65245761D02*
X126860470Y-65245761D01*
X126799993Y-65276000D01*
X126739517Y-65336476D01*
X126709279Y-65457428D01*
X126709279Y-65669095D01*
X126739517Y-65790047D01*
X126799993Y-65850523D01*
X126860470Y-65880761D01*
X126981422Y-65880761D01*
X127041898Y-65850523D01*
X127102374Y-65790047D01*
X127132612Y-65669095D01*
X127132612Y-65457428D01*
X127102374Y-65336476D01*
X127041898Y-65276000D01*
X126981422Y-65245761D01*
X126437136Y-65880761D02*
X126437136Y-65245761D01*
X125832374Y-65880761D02*
X126134755Y-65880761D01*
X126134755Y-65245761D01*
X125771898Y-65941238D02*
X125288089Y-65941238D01*
X125136898Y-65880761D02*
X125136898Y-65245761D01*
X124894993Y-65245761D01*
X124834517Y-65276000D01*
X124804279Y-65306238D01*
X124774041Y-65366714D01*
X124774041Y-65457428D01*
X124804279Y-65517904D01*
X124834517Y-65548142D01*
X124894993Y-65578380D01*
X125136898Y-65578380D01*
D11*
X107407500Y-52841000D02*
G75*
G02X106407500Y-53841000I-1000000J0D01*
G01*
X100207500Y-53841000D02*
G75*
G02X99207500Y-52841000I0J1000000D01*
G01*
X106407500Y-50041000D02*
G75*
G02X107407500Y-51041000I0J-1000000D01*
G01*
X99207500Y-51041000D02*
G75*
G02X100207500Y-50041000I1000000J0D01*
G01*
X96207500Y-54991000D02*
G75*
G03X96207500Y-54991000I-1100000J0D01*
G01*
X106407500Y-50041000D02*
X100207500Y-50041000D01*
X138407500Y-39991000D02*
X138407500Y-88391000D01*
X138407500Y-88391000D02*
X90007500Y-88391000D01*
X90007500Y-88391000D02*
X90007500Y-39991000D01*
X90007500Y-39991000D02*
X138407500Y-39991000D01*
X100207500Y-53841000D02*
X106407500Y-53841000D01*
X136007500Y-54991000D02*
G75*
G03X136007500Y-54991000I-1100000J0D01*
G01*
X107407500Y-52841000D02*
X107407500Y-51041000D01*
X99207500Y-51041000D02*
X99207500Y-52841000D01*
D14*
X123974857Y-52645571D02*
X123866000Y-52681857D01*
X123829714Y-52718142D01*
X123793428Y-52790714D01*
X123793428Y-52899571D01*
X123829714Y-52972142D01*
X123866000Y-53008428D01*
X123938571Y-53044714D01*
X124228857Y-53044714D01*
X124228857Y-52282714D01*
X123974857Y-52282714D01*
X123902285Y-52319000D01*
X123866000Y-52355285D01*
X123829714Y-52427857D01*
X123829714Y-52500428D01*
X123866000Y-52573000D01*
X123902285Y-52609285D01*
X123974857Y-52645571D01*
X124228857Y-52645571D01*
X123466857Y-52282714D02*
X123466857Y-52899571D01*
X123430571Y-52972142D01*
X123394285Y-53008428D01*
X123321714Y-53044714D01*
X123176571Y-53044714D01*
X123104000Y-53008428D01*
X123067714Y-52972142D01*
X123031428Y-52899571D01*
X123031428Y-52282714D01*
X122233142Y-53044714D02*
X122487142Y-52681857D01*
X122668571Y-53044714D02*
X122668571Y-52282714D01*
X122378285Y-52282714D01*
X122305714Y-52319000D01*
X122269428Y-52355285D01*
X122233142Y-52427857D01*
X122233142Y-52536714D01*
X122269428Y-52609285D01*
X122305714Y-52645571D01*
X122378285Y-52681857D01*
X122668571Y-52681857D01*
X121906571Y-53044714D02*
X121906571Y-52282714D01*
X121471142Y-53044714D01*
X121471142Y-52282714D01*
X118074000Y-55345571D02*
X117965142Y-55381857D01*
X117928857Y-55418142D01*
X117892571Y-55490714D01*
X117892571Y-55599571D01*
X117928857Y-55672142D01*
X117965142Y-55708428D01*
X118037714Y-55744714D01*
X118328000Y-55744714D01*
X118328000Y-54982714D01*
X118074000Y-54982714D01*
X118001428Y-55019000D01*
X117965142Y-55055285D01*
X117928857Y-55127857D01*
X117928857Y-55200428D01*
X117965142Y-55273000D01*
X118001428Y-55309285D01*
X118074000Y-55345571D01*
X118328000Y-55345571D01*
X117602285Y-55527000D02*
X117239428Y-55527000D01*
X117674857Y-55744714D02*
X117420857Y-54982714D01*
X117166857Y-55744714D01*
X117021714Y-54982714D02*
X116586285Y-54982714D01*
X116804000Y-55744714D02*
X116804000Y-54982714D01*
X116441142Y-54982714D02*
X116005714Y-54982714D01*
X116223428Y-55744714D02*
X116223428Y-54982714D01*
X115933142Y-55817285D02*
X115352571Y-55817285D01*
X115171142Y-55744714D02*
X115171142Y-54982714D01*
X114880857Y-54982714D01*
X114808285Y-55019000D01*
X114772000Y-55055285D01*
X114735714Y-55127857D01*
X114735714Y-55236714D01*
X114772000Y-55309285D01*
X114808285Y-55345571D01*
X114880857Y-55381857D01*
X115171142Y-55381857D01*
X127333102Y-66638714D02*
X126861388Y-66638714D01*
X127115388Y-66929000D01*
X127006531Y-66929000D01*
X126933960Y-66965285D01*
X126897674Y-67001571D01*
X126861388Y-67074142D01*
X126861388Y-67255571D01*
X126897674Y-67328142D01*
X126933960Y-67364428D01*
X127006531Y-67400714D01*
X127224245Y-67400714D01*
X127296817Y-67364428D01*
X127333102Y-67328142D01*
X126643674Y-66638714D02*
X126389674Y-67400714D01*
X126135674Y-66638714D01*
X125954245Y-66638714D02*
X125482531Y-66638714D01*
X125736531Y-66929000D01*
X125627674Y-66929000D01*
X125555102Y-66965285D01*
X125518817Y-67001571D01*
X125482531Y-67074142D01*
X125482531Y-67255571D01*
X125518817Y-67328142D01*
X125555102Y-67364428D01*
X125627674Y-67400714D01*
X125845388Y-67400714D01*
X125917960Y-67364428D01*
X125954245Y-67328142D01*
X103124000Y-75846214D02*
X102870000Y-76608214D01*
X102616000Y-75846214D01*
X102398285Y-76571928D02*
X102289428Y-76608214D01*
X102108000Y-76608214D01*
X102035428Y-76571928D01*
X101999142Y-76535642D01*
X101962857Y-76463071D01*
X101962857Y-76390500D01*
X101999142Y-76317928D01*
X102035428Y-76281642D01*
X102108000Y-76245357D01*
X102253142Y-76209071D01*
X102325714Y-76172785D01*
X102362000Y-76136500D01*
X102398285Y-76063928D01*
X102398285Y-75991357D01*
X102362000Y-75918785D01*
X102325714Y-75882500D01*
X102253142Y-75846214D01*
X102071714Y-75846214D01*
X101962857Y-75882500D01*
X101491142Y-75846214D02*
X101346000Y-75846214D01*
X101273428Y-75882500D01*
X101200857Y-75955071D01*
X101164571Y-76100214D01*
X101164571Y-76354214D01*
X101200857Y-76499357D01*
X101273428Y-76571928D01*
X101346000Y-76608214D01*
X101491142Y-76608214D01*
X101563714Y-76571928D01*
X101636285Y-76499357D01*
X101672571Y-76354214D01*
X101672571Y-76100214D01*
X101636285Y-75955071D01*
X101563714Y-75882500D01*
X101491142Y-75846214D01*
X100475142Y-76608214D02*
X100838000Y-76608214D01*
X100838000Y-75846214D01*
X100257428Y-76390500D02*
X99894571Y-76390500D01*
X100330000Y-76608214D02*
X100076000Y-75846214D01*
X99822000Y-76608214D01*
X99132571Y-76608214D02*
X99386571Y-76245357D01*
X99568000Y-76608214D02*
X99568000Y-75846214D01*
X99277714Y-75846214D01*
X99205142Y-75882500D01*
X99168857Y-75918785D01*
X99132571Y-75991357D01*
X99132571Y-76100214D01*
X99168857Y-76172785D01*
X99205142Y-76209071D01*
X99277714Y-76245357D01*
X99568000Y-76245357D01*
X102625071Y-73660000D02*
X102697642Y-73623714D01*
X102806500Y-73623714D01*
X102915357Y-73660000D01*
X102987928Y-73732571D01*
X103024214Y-73805142D01*
X103060500Y-73950285D01*
X103060500Y-74059142D01*
X103024214Y-74204285D01*
X102987928Y-74276857D01*
X102915357Y-74349428D01*
X102806500Y-74385714D01*
X102733928Y-74385714D01*
X102625071Y-74349428D01*
X102588785Y-74313142D01*
X102588785Y-74059142D01*
X102733928Y-74059142D01*
X102262214Y-74385714D02*
X102262214Y-73623714D01*
X101826785Y-74385714D01*
X101826785Y-73623714D01*
X101463928Y-74385714D02*
X101463928Y-73623714D01*
X101282500Y-73623714D01*
X101173642Y-73660000D01*
X101101071Y-73732571D01*
X101064785Y-73805142D01*
X101028500Y-73950285D01*
X101028500Y-74059142D01*
X101064785Y-74204285D01*
X101101071Y-74276857D01*
X101173642Y-74349428D01*
X101282500Y-74385714D01*
X101463928Y-74385714D01*
D12*
X104775000Y-63182500D02*
X104343200Y-62661800D01*
X104775000Y-64198500D02*
X104775000Y-63182500D01*
X106680000Y-64198500D02*
X104775000Y-64198500D01*
X106680000Y-63182500D02*
X106680000Y-64198500D01*
X104775000Y-63182500D02*
X106680000Y-63182500D01*
X103568500Y-72771000D02*
X103568500Y-71755000D01*
X105473500Y-72771000D02*
X103568500Y-72771000D01*
X105473500Y-71755000D02*
X105473500Y-72771000D01*
X103568500Y-71755000D02*
X105473500Y-71755000D01*
D15*
X98670857Y-66524142D02*
X98718476Y-66571761D01*
X98861333Y-66619380D01*
X98956571Y-66619380D01*
X99099428Y-66571761D01*
X99194666Y-66476523D01*
X99242285Y-66381285D01*
X99289904Y-66190809D01*
X99289904Y-66047952D01*
X99242285Y-65857476D01*
X99194666Y-65762238D01*
X99099428Y-65667000D01*
X98956571Y-65619380D01*
X98861333Y-65619380D01*
X98718476Y-65667000D01*
X98670857Y-65714619D01*
X98099428Y-66619380D02*
X98194666Y-66571761D01*
X98242285Y-66524142D01*
X98289904Y-66428904D01*
X98289904Y-66143190D01*
X98242285Y-66047952D01*
X98194666Y-66000333D01*
X98099428Y-65952714D01*
X97956571Y-65952714D01*
X97861333Y-66000333D01*
X97813714Y-66047952D01*
X97766095Y-66143190D01*
X97766095Y-66428904D01*
X97813714Y-66524142D01*
X97861333Y-66571761D01*
X97956571Y-66619380D01*
X98099428Y-66619380D01*
X97337523Y-66619380D02*
X97337523Y-65952714D01*
X97337523Y-65619380D02*
X97385142Y-65667000D01*
X97337523Y-65714619D01*
X97289904Y-65667000D01*
X97337523Y-65619380D01*
X97337523Y-65714619D01*
X96718476Y-66619380D02*
X96813714Y-66571761D01*
X96861333Y-66476523D01*
X96861333Y-65619380D01*
X95575619Y-66238428D02*
X94813714Y-66238428D01*
X98797857Y-62904642D02*
X98845476Y-62952261D01*
X98988333Y-62999880D01*
X99083571Y-62999880D01*
X99226428Y-62952261D01*
X99321666Y-62857023D01*
X99369285Y-62761785D01*
X99416904Y-62571309D01*
X99416904Y-62428452D01*
X99369285Y-62237976D01*
X99321666Y-62142738D01*
X99226428Y-62047500D01*
X99083571Y-61999880D01*
X98988333Y-61999880D01*
X98845476Y-62047500D01*
X98797857Y-62095119D01*
X98226428Y-62999880D02*
X98321666Y-62952261D01*
X98369285Y-62904642D01*
X98416904Y-62809404D01*
X98416904Y-62523690D01*
X98369285Y-62428452D01*
X98321666Y-62380833D01*
X98226428Y-62333214D01*
X98083571Y-62333214D01*
X97988333Y-62380833D01*
X97940714Y-62428452D01*
X97893095Y-62523690D01*
X97893095Y-62809404D01*
X97940714Y-62904642D01*
X97988333Y-62952261D01*
X98083571Y-62999880D01*
X98226428Y-62999880D01*
X97464523Y-62999880D02*
X97464523Y-62333214D01*
X97464523Y-61999880D02*
X97512142Y-62047500D01*
X97464523Y-62095119D01*
X97416904Y-62047500D01*
X97464523Y-61999880D01*
X97464523Y-62095119D01*
X96845476Y-62999880D02*
X96940714Y-62952261D01*
X96988333Y-62857023D01*
X96988333Y-61999880D01*
X95702619Y-62618928D02*
X94940714Y-62618928D01*
X95321666Y-62999880D02*
X95321666Y-62237976D01*
D11*
X123815500Y-56710000D02*
X123815500Y-65210000D01*
X118935500Y-56710000D02*
X121785500Y-56710000D01*
X118935500Y-65210000D02*
X121785500Y-65210000D01*
X118935500Y-56710000D02*
X118935500Y-58260000D01*
X118935500Y-65210000D02*
X118935500Y-63660000D01*
D12*
X117159000Y-54038500D02*
G75*
G03X117159000Y-54038500I-700000J0D01*
G01*
X123636000Y-54038500D02*
G75*
G03X123636000Y-54038500I-700000J0D01*
G01*
X104713000Y-74041000D02*
G75*
G03X104713000Y-74041000I-700000J0D01*
G01*
X104776500Y-76200000D02*
G75*
G03X104776500Y-76200000I-700000J0D01*
G01*
D16*
X114354700Y-42265600D02*
G75*
G03X114354700Y-42265600I-143600J0D01*
G01*
D12*
X118556500Y-47236500D02*
X120016500Y-47236500D01*
X118556500Y-44076500D02*
X120716500Y-44076500D01*
X118556500Y-44076500D02*
X118556500Y-45006500D01*
X118556500Y-47236500D02*
X118556500Y-46306500D01*
X115508500Y-60797221D02*
X115508500Y-61122779D01*
X114488500Y-60797221D02*
X114488500Y-61122779D01*
X120741221Y-66800000D02*
X121066779Y-66800000D01*
X120741221Y-67820000D02*
X121066779Y-67820000D01*
D17*
X107599160Y-65848656D02*
G75*
G03X107599160Y-65848656I-125000J0D01*
G01*
D12*
X120614221Y-69213000D02*
X120939779Y-69213000D01*
X120614221Y-70233000D02*
X120939779Y-70233000D01*
D18*
X111013240Y-68927980D02*
G75*
G03X111013240Y-68927980I-127000J0D01*
G01*
D19*
X114105690Y-70877430D02*
X112746790Y-70877430D01*
X112746790Y-66978530D02*
X114105690Y-66978530D01*
D18*
X103124000Y-68961000D02*
G75*
G03X103124000Y-68961000I-127000J0D01*
G01*
D19*
X106216450Y-70910450D02*
X104857550Y-70910450D01*
X104857550Y-67011550D02*
X106216450Y-67011550D01*
D12*
X109438221Y-71753000D02*
X109763779Y-71753000D01*
X109438221Y-72773000D02*
X109763779Y-72773000D01*
D11*
X116833000Y-66622000D02*
G75*
G03X116833000Y-66622000I-19000J0D01*
G01*
X102280000Y-71300000D02*
G75*
G03X102280000Y-71300000I-19000J0D01*
G01*
D18*
X120924063Y-60164806D02*
X121831206Y-60164806D01*
X122012635Y-60104330D01*
X122133587Y-59983378D01*
X122194063Y-59801949D01*
X122194063Y-59680997D01*
X122194063Y-61434806D02*
X122194063Y-60709092D01*
X122194063Y-61071949D02*
X120924063Y-61071949D01*
X121105492Y-60950997D01*
X121226444Y-60830044D01*
X121286920Y-60709092D01*
D19*
X112530375Y-42934260D02*
X113250042Y-42934260D01*
X113334709Y-42976594D01*
X113377042Y-43018927D01*
X113419375Y-43103594D01*
X113419375Y-43272927D01*
X113377042Y-43357594D01*
X113334709Y-43399927D01*
X113250042Y-43442260D01*
X112530375Y-43442260D01*
X113419375Y-44331260D02*
X113419375Y-43823260D01*
X113419375Y-44077260D02*
X112530375Y-44077260D01*
X112657375Y-43992594D01*
X112742042Y-43907927D01*
X112784375Y-43823260D01*
X122152166Y-42128500D02*
X121728833Y-41832166D01*
X122152166Y-41620500D02*
X121263166Y-41620500D01*
X121263166Y-41959166D01*
X121305500Y-42043833D01*
X121347833Y-42086166D01*
X121432500Y-42128500D01*
X121559500Y-42128500D01*
X121644166Y-42086166D01*
X121686500Y-42043833D01*
X121728833Y-41959166D01*
X121728833Y-41620500D01*
X122152166Y-42975166D02*
X122152166Y-42467166D01*
X122152166Y-42721166D02*
X121263166Y-42721166D01*
X121390166Y-42636500D01*
X121474833Y-42551833D01*
X121517166Y-42467166D01*
X122152166Y-43398500D02*
X122152166Y-43567833D01*
X122109833Y-43652500D01*
X122067500Y-43694833D01*
X121940500Y-43779500D01*
X121771166Y-43821833D01*
X121432500Y-43821833D01*
X121347833Y-43779500D01*
X121305500Y-43737166D01*
X121263166Y-43652500D01*
X121263166Y-43483166D01*
X121305500Y-43398500D01*
X121347833Y-43356166D01*
X121432500Y-43313833D01*
X121644166Y-43313833D01*
X121728833Y-43356166D01*
X121771166Y-43398500D01*
X121813500Y-43483166D01*
X121813500Y-43652500D01*
X121771166Y-43737166D01*
X121728833Y-43779500D01*
X121644166Y-43821833D01*
X123402166Y-42151833D02*
X122978833Y-41855500D01*
X123402166Y-41643833D02*
X122513166Y-41643833D01*
X122513166Y-41982500D01*
X122555500Y-42067166D01*
X122597833Y-42109500D01*
X122682500Y-42151833D01*
X122809500Y-42151833D01*
X122894166Y-42109500D01*
X122936500Y-42067166D01*
X122978833Y-41982500D01*
X122978833Y-41643833D01*
X122809500Y-42913833D02*
X123402166Y-42913833D01*
X122470833Y-42702166D02*
X123105833Y-42490500D01*
X123105833Y-43040833D01*
X123592166Y-48111833D02*
X123168833Y-47815500D01*
X123592166Y-47603833D02*
X122703166Y-47603833D01*
X122703166Y-47942500D01*
X122745500Y-48027166D01*
X122787833Y-48069500D01*
X122872500Y-48111833D01*
X122999500Y-48111833D01*
X123084166Y-48069500D01*
X123126500Y-48027166D01*
X123168833Y-47942500D01*
X123168833Y-47603833D01*
X122703166Y-48408166D02*
X122703166Y-48958500D01*
X123041833Y-48662166D01*
X123041833Y-48789166D01*
X123084166Y-48873833D01*
X123126500Y-48916166D01*
X123211166Y-48958500D01*
X123422833Y-48958500D01*
X123507500Y-48916166D01*
X123549833Y-48873833D01*
X123592166Y-48789166D01*
X123592166Y-48535166D01*
X123549833Y-48450500D01*
X123507500Y-48408166D01*
X119210666Y-48492833D02*
X119295333Y-48450500D01*
X119380000Y-48365833D01*
X119507000Y-48238833D01*
X119591666Y-48196500D01*
X119676333Y-48196500D01*
X119634000Y-48408166D02*
X119718666Y-48365833D01*
X119803333Y-48281166D01*
X119845666Y-48111833D01*
X119845666Y-47815500D01*
X119803333Y-47646166D01*
X119718666Y-47561500D01*
X119634000Y-47519166D01*
X119464666Y-47519166D01*
X119380000Y-47561500D01*
X119295333Y-47646166D01*
X119253000Y-47815500D01*
X119253000Y-48111833D01*
X119295333Y-48281166D01*
X119380000Y-48365833D01*
X119464666Y-48408166D01*
X119634000Y-48408166D01*
X118406333Y-48408166D02*
X118914333Y-48408166D01*
X118660333Y-48408166D02*
X118660333Y-47519166D01*
X118745000Y-47646166D01*
X118829666Y-47730833D01*
X118914333Y-47773166D01*
X123634500Y-71225833D02*
X123676833Y-71183500D01*
X123719166Y-71056500D01*
X123719166Y-70971833D01*
X123676833Y-70844833D01*
X123592166Y-70760166D01*
X123507500Y-70717833D01*
X123338166Y-70675500D01*
X123211166Y-70675500D01*
X123041833Y-70717833D01*
X122957166Y-70760166D01*
X122872500Y-70844833D01*
X122830166Y-70971833D01*
X122830166Y-71056500D01*
X122872500Y-71183500D01*
X122914833Y-71225833D01*
X122830166Y-72030166D02*
X122830166Y-71606833D01*
X123253500Y-71564500D01*
X123211166Y-71606833D01*
X123168833Y-71691500D01*
X123168833Y-71903166D01*
X123211166Y-71987833D01*
X123253500Y-72030166D01*
X123338166Y-72072500D01*
X123549833Y-72072500D01*
X123634500Y-72030166D01*
X123676833Y-71987833D01*
X123719166Y-71903166D01*
X123719166Y-71691500D01*
X123676833Y-71606833D01*
X123634500Y-71564500D01*
X115379500Y-58652833D02*
X115421833Y-58610500D01*
X115464166Y-58483500D01*
X115464166Y-58398833D01*
X115421833Y-58271833D01*
X115337166Y-58187166D01*
X115252500Y-58144833D01*
X115083166Y-58102500D01*
X114956166Y-58102500D01*
X114786833Y-58144833D01*
X114702166Y-58187166D01*
X114617500Y-58271833D01*
X114575166Y-58398833D01*
X114575166Y-58483500D01*
X114617500Y-58610500D01*
X114659833Y-58652833D01*
X114575166Y-59414833D02*
X114575166Y-59245500D01*
X114617500Y-59160833D01*
X114659833Y-59118500D01*
X114786833Y-59033833D01*
X114956166Y-58991500D01*
X115294833Y-58991500D01*
X115379500Y-59033833D01*
X115421833Y-59076166D01*
X115464166Y-59160833D01*
X115464166Y-59330166D01*
X115421833Y-59414833D01*
X115379500Y-59457166D01*
X115294833Y-59499500D01*
X115083166Y-59499500D01*
X114998500Y-59457166D01*
X114956166Y-59414833D01*
X114913833Y-59330166D01*
X114913833Y-59160833D01*
X114956166Y-59076166D01*
X114998500Y-59033833D01*
X115083166Y-58991500D01*
X109812666Y-70104000D02*
X109855000Y-70146333D01*
X109982000Y-70188666D01*
X110066666Y-70188666D01*
X110193666Y-70146333D01*
X110278333Y-70061666D01*
X110320666Y-69977000D01*
X110363000Y-69807666D01*
X110363000Y-69680666D01*
X110320666Y-69511333D01*
X110278333Y-69426666D01*
X110193666Y-69342000D01*
X110066666Y-69299666D01*
X109982000Y-69299666D01*
X109855000Y-69342000D01*
X109812666Y-69384333D01*
X109389333Y-70188666D02*
X109220000Y-70188666D01*
X109135333Y-70146333D01*
X109093000Y-70104000D01*
X109008333Y-69977000D01*
X108966000Y-69807666D01*
X108966000Y-69469000D01*
X109008333Y-69384333D01*
X109050666Y-69342000D01*
X109135333Y-69299666D01*
X109304666Y-69299666D01*
X109389333Y-69342000D01*
X109431666Y-69384333D01*
X109474000Y-69469000D01*
X109474000Y-69680666D01*
X109431666Y-69765333D01*
X109389333Y-69807666D01*
X109304666Y-69850000D01*
X109135333Y-69850000D01*
X109050666Y-69807666D01*
X109008333Y-69765333D01*
X108966000Y-69680666D01*
X124206000Y-67500500D02*
X124248333Y-67542833D01*
X124375333Y-67585166D01*
X124460000Y-67585166D01*
X124587000Y-67542833D01*
X124671666Y-67458166D01*
X124714000Y-67373500D01*
X124756333Y-67204166D01*
X124756333Y-67077166D01*
X124714000Y-66907833D01*
X124671666Y-66823166D01*
X124587000Y-66738500D01*
X124460000Y-66696166D01*
X124375333Y-66696166D01*
X124248333Y-66738500D01*
X124206000Y-66780833D01*
X123359333Y-67585166D02*
X123867333Y-67585166D01*
X123613333Y-67585166D02*
X123613333Y-66696166D01*
X123698000Y-66823166D01*
X123782666Y-66907833D01*
X123867333Y-66950166D01*
X122597333Y-66992500D02*
X122597333Y-67585166D01*
X122809000Y-66653833D02*
X123020666Y-67288833D01*
X122470333Y-67288833D01*
X102649866Y-63353950D02*
X101760866Y-63353950D01*
X101760866Y-63565616D01*
X101803200Y-63692616D01*
X101887866Y-63777283D01*
X101972533Y-63819616D01*
X102141866Y-63861950D01*
X102268866Y-63861950D01*
X102438200Y-63819616D01*
X102522866Y-63777283D01*
X102607533Y-63692616D01*
X102649866Y-63565616D01*
X102649866Y-63353950D01*
X102649866Y-64708616D02*
X102649866Y-64200616D01*
X102649866Y-64454616D02*
X101760866Y-64454616D01*
X101887866Y-64369950D01*
X101972533Y-64285283D01*
X102014866Y-64200616D01*
X111421333Y-60854166D02*
X111421333Y-61573833D01*
X111379000Y-61658500D01*
X111336666Y-61700833D01*
X111252000Y-61743166D01*
X111082666Y-61743166D01*
X110998000Y-61700833D01*
X110955666Y-61658500D01*
X110913333Y-61573833D01*
X110913333Y-60854166D01*
X110532333Y-60938833D02*
X110490000Y-60896500D01*
X110405333Y-60854166D01*
X110193666Y-60854166D01*
X110109000Y-60896500D01*
X110066666Y-60938833D01*
X110024333Y-61023500D01*
X110024333Y-61108166D01*
X110066666Y-61235166D01*
X110574666Y-61743166D01*
X110024333Y-61743166D01*
X106383666Y-59838166D02*
X106680000Y-59414833D01*
X106891666Y-59838166D02*
X106891666Y-58949166D01*
X106553000Y-58949166D01*
X106468333Y-58991500D01*
X106426000Y-59033833D01*
X106383666Y-59118500D01*
X106383666Y-59245500D01*
X106426000Y-59330166D01*
X106468333Y-59372500D01*
X106553000Y-59414833D01*
X106891666Y-59414833D01*
X105621666Y-58949166D02*
X105791000Y-58949166D01*
X105875666Y-58991500D01*
X105918000Y-59033833D01*
X106002666Y-59160833D01*
X106045000Y-59330166D01*
X106045000Y-59668833D01*
X106002666Y-59753500D01*
X105960333Y-59795833D01*
X105875666Y-59838166D01*
X105706333Y-59838166D01*
X105621666Y-59795833D01*
X105579333Y-59753500D01*
X105537000Y-59668833D01*
X105537000Y-59457166D01*
X105579333Y-59372500D01*
X105621666Y-59330166D01*
X105706333Y-59287833D01*
X105875666Y-59287833D01*
X105960333Y-59330166D01*
X106002666Y-59372500D01*
X106045000Y-59457166D01*
X108352166Y-57890833D02*
X107928833Y-57594500D01*
X108352166Y-57382833D02*
X107463166Y-57382833D01*
X107463166Y-57721500D01*
X107505500Y-57806166D01*
X107547833Y-57848500D01*
X107632500Y-57890833D01*
X107759500Y-57890833D01*
X107844166Y-57848500D01*
X107886500Y-57806166D01*
X107928833Y-57721500D01*
X107928833Y-57382833D01*
X107463166Y-58695166D02*
X107463166Y-58271833D01*
X107886500Y-58229500D01*
X107844166Y-58271833D01*
X107801833Y-58356500D01*
X107801833Y-58568166D01*
X107844166Y-58652833D01*
X107886500Y-58695166D01*
X107971166Y-58737500D01*
X108182833Y-58737500D01*
X108267500Y-58695166D01*
X108309833Y-58652833D01*
X108352166Y-58568166D01*
X108352166Y-58356500D01*
X108309833Y-58271833D01*
X108267500Y-58229500D01*
X107336166Y-73596500D02*
X106912833Y-73300166D01*
X107336166Y-73088500D02*
X106447166Y-73088500D01*
X106447166Y-73427166D01*
X106489500Y-73511833D01*
X106531833Y-73554166D01*
X106616500Y-73596500D01*
X106743500Y-73596500D01*
X106828166Y-73554166D01*
X106870500Y-73511833D01*
X106912833Y-73427166D01*
X106912833Y-73088500D01*
X107336166Y-74443166D02*
X107336166Y-73935166D01*
X107336166Y-74189166D02*
X106447166Y-74189166D01*
X106574166Y-74104500D01*
X106658833Y-74019833D01*
X106701166Y-73935166D01*
X106447166Y-75205166D02*
X106447166Y-75035833D01*
X106489500Y-74951166D01*
X106531833Y-74908833D01*
X106658833Y-74824166D01*
X106828166Y-74781833D01*
X107166833Y-74781833D01*
X107251500Y-74824166D01*
X107293833Y-74866500D01*
X107336166Y-74951166D01*
X107336166Y-75120500D01*
X107293833Y-75205166D01*
X107251500Y-75247500D01*
X107166833Y-75289833D01*
X106955166Y-75289833D01*
X106870500Y-75247500D01*
X106828166Y-75205166D01*
X106785833Y-75120500D01*
X106785833Y-74951166D01*
X106828166Y-74866500D01*
X106870500Y-74824166D01*
X106955166Y-74781833D01*
X109812666Y-68135500D02*
X109855000Y-68177833D01*
X109982000Y-68220166D01*
X110066666Y-68220166D01*
X110193666Y-68177833D01*
X110278333Y-68093166D01*
X110320666Y-68008500D01*
X110363000Y-67839166D01*
X110363000Y-67712166D01*
X110320666Y-67542833D01*
X110278333Y-67458166D01*
X110193666Y-67373500D01*
X110066666Y-67331166D01*
X109982000Y-67331166D01*
X109855000Y-67373500D01*
X109812666Y-67415833D01*
X109304666Y-67712166D02*
X109389333Y-67669833D01*
X109431666Y-67627500D01*
X109474000Y-67542833D01*
X109474000Y-67500500D01*
X109431666Y-67415833D01*
X109389333Y-67373500D01*
X109304666Y-67331166D01*
X109135333Y-67331166D01*
X109050666Y-67373500D01*
X109008333Y-67415833D01*
X108966000Y-67500500D01*
X108966000Y-67542833D01*
X109008333Y-67627500D01*
X109050666Y-67669833D01*
X109135333Y-67712166D01*
X109304666Y-67712166D01*
X109389333Y-67754500D01*
X109431666Y-67796833D01*
X109474000Y-67881500D01*
X109474000Y-68050833D01*
X109431666Y-68135500D01*
X109389333Y-68177833D01*
X109304666Y-68220166D01*
X109135333Y-68220166D01*
X109050666Y-68177833D01*
X109008333Y-68135500D01*
X108966000Y-68050833D01*
X108966000Y-67881500D01*
X109008333Y-67796833D01*
X109050666Y-67754500D01*
X109135333Y-67712166D01*
X121475500Y-71437500D02*
X121517833Y-71479833D01*
X121644833Y-71522166D01*
X121729500Y-71522166D01*
X121856500Y-71479833D01*
X121941166Y-71395166D01*
X121983500Y-71310500D01*
X122025833Y-71141166D01*
X122025833Y-71014166D01*
X121983500Y-70844833D01*
X121941166Y-70760166D01*
X121856500Y-70675500D01*
X121729500Y-70633166D01*
X121644833Y-70633166D01*
X121517833Y-70675500D01*
X121475500Y-70717833D01*
X120628833Y-71522166D02*
X121136833Y-71522166D01*
X120882833Y-71522166D02*
X120882833Y-70633166D01*
X120967500Y-70760166D01*
X121052166Y-70844833D01*
X121136833Y-70887166D01*
X120290166Y-70717833D02*
X120247833Y-70675500D01*
X120163166Y-70633166D01*
X119951500Y-70633166D01*
X119866833Y-70675500D01*
X119824500Y-70717833D01*
X119782166Y-70802500D01*
X119782166Y-70887166D01*
X119824500Y-71014166D01*
X120332500Y-71522166D01*
X119782166Y-71522166D01*
X117919500Y-64833500D02*
X117961833Y-64791166D01*
X118004166Y-64664166D01*
X118004166Y-64579500D01*
X117961833Y-64452500D01*
X117877166Y-64367833D01*
X117792500Y-64325500D01*
X117623166Y-64283166D01*
X117496166Y-64283166D01*
X117326833Y-64325500D01*
X117242166Y-64367833D01*
X117157500Y-64452500D01*
X117115166Y-64579500D01*
X117115166Y-64664166D01*
X117157500Y-64791166D01*
X117199833Y-64833500D01*
X118004166Y-65680166D02*
X118004166Y-65172166D01*
X118004166Y-65426166D02*
X117115166Y-65426166D01*
X117242166Y-65341500D01*
X117326833Y-65256833D01*
X117369166Y-65172166D01*
X117115166Y-65976500D02*
X117115166Y-66526833D01*
X117453833Y-66230500D01*
X117453833Y-66357500D01*
X117496166Y-66442166D01*
X117538500Y-66484500D01*
X117623166Y-66526833D01*
X117834833Y-66526833D01*
X117919500Y-66484500D01*
X117961833Y-66442166D01*
X118004166Y-66357500D01*
X118004166Y-66103500D01*
X117961833Y-66018833D01*
X117919500Y-65976500D01*
X109622166Y-57890833D02*
X109198833Y-57594500D01*
X109622166Y-57382833D02*
X108733166Y-57382833D01*
X108733166Y-57721500D01*
X108775500Y-57806166D01*
X108817833Y-57848500D01*
X108902500Y-57890833D01*
X109029500Y-57890833D01*
X109114166Y-57848500D01*
X109156500Y-57806166D01*
X109198833Y-57721500D01*
X109198833Y-57382833D01*
X108733166Y-58187166D02*
X108733166Y-58779833D01*
X109622166Y-58398833D01*
X113665000Y-59747666D02*
X113961333Y-59324333D01*
X114173000Y-59747666D02*
X114173000Y-58858666D01*
X113834333Y-58858666D01*
X113749666Y-58901000D01*
X113707333Y-58943333D01*
X113665000Y-59028000D01*
X113665000Y-59155000D01*
X113707333Y-59239666D01*
X113749666Y-59282000D01*
X113834333Y-59324333D01*
X114173000Y-59324333D01*
X112818333Y-59747666D02*
X113326333Y-59747666D01*
X113072333Y-59747666D02*
X113072333Y-58858666D01*
X113157000Y-58985666D01*
X113241666Y-59070333D01*
X113326333Y-59112666D01*
X111971666Y-59747666D02*
X112479666Y-59747666D01*
X112225666Y-59747666D02*
X112225666Y-58858666D01*
X112310333Y-58985666D01*
X112395000Y-59070333D01*
X112479666Y-59112666D01*
X113241666Y-57207666D02*
X113538000Y-56784333D01*
X113749666Y-57207666D02*
X113749666Y-56318666D01*
X113411000Y-56318666D01*
X113326333Y-56361000D01*
X113284000Y-56403333D01*
X113241666Y-56488000D01*
X113241666Y-56615000D01*
X113284000Y-56699666D01*
X113326333Y-56742000D01*
X113411000Y-56784333D01*
X113749666Y-56784333D01*
X112818333Y-57207666D02*
X112649000Y-57207666D01*
X112564333Y-57165333D01*
X112522000Y-57123000D01*
X112437333Y-56996000D01*
X112395000Y-56826666D01*
X112395000Y-56488000D01*
X112437333Y-56403333D01*
X112479666Y-56361000D01*
X112564333Y-56318666D01*
X112733666Y-56318666D01*
X112818333Y-56361000D01*
X112860666Y-56403333D01*
X112903000Y-56488000D01*
X112903000Y-56699666D01*
X112860666Y-56784333D01*
X112818333Y-56826666D01*
X112733666Y-56869000D01*
X112564333Y-56869000D01*
X112479666Y-56826666D01*
X112437333Y-56784333D01*
X112395000Y-56699666D01*
X113665000Y-58477666D02*
X113961333Y-58054333D01*
X114173000Y-58477666D02*
X114173000Y-57588666D01*
X113834333Y-57588666D01*
X113749666Y-57631000D01*
X113707333Y-57673333D01*
X113665000Y-57758000D01*
X113665000Y-57885000D01*
X113707333Y-57969666D01*
X113749666Y-58012000D01*
X113834333Y-58054333D01*
X114173000Y-58054333D01*
X112818333Y-58477666D02*
X113326333Y-58477666D01*
X113072333Y-58477666D02*
X113072333Y-57588666D01*
X113157000Y-57715666D01*
X113241666Y-57800333D01*
X113326333Y-57842666D01*
X112268000Y-57588666D02*
X112183333Y-57588666D01*
X112098666Y-57631000D01*
X112056333Y-57673333D01*
X112014000Y-57758000D01*
X111971666Y-57927333D01*
X111971666Y-58139000D01*
X112014000Y-58308333D01*
X112056333Y-58393000D01*
X112098666Y-58435333D01*
X112183333Y-58477666D01*
X112268000Y-58477666D01*
X112352666Y-58435333D01*
X112395000Y-58393000D01*
X112437333Y-58308333D01*
X112479666Y-58139000D01*
X112479666Y-57927333D01*
X112437333Y-57758000D01*
X112395000Y-57673333D01*
X112352666Y-57631000D01*
X112268000Y-57588666D01*
X111019166Y-59620666D02*
X111315500Y-59197333D01*
X111527166Y-59620666D02*
X111527166Y-58731666D01*
X111188500Y-58731666D01*
X111103833Y-58774000D01*
X111061500Y-58816333D01*
X111019166Y-58901000D01*
X111019166Y-59028000D01*
X111061500Y-59112666D01*
X111103833Y-59155000D01*
X111188500Y-59197333D01*
X111527166Y-59197333D01*
X110511166Y-59112666D02*
X110595833Y-59070333D01*
X110638166Y-59028000D01*
X110680500Y-58943333D01*
X110680500Y-58901000D01*
X110638166Y-58816333D01*
X110595833Y-58774000D01*
X110511166Y-58731666D01*
X110341833Y-58731666D01*
X110257166Y-58774000D01*
X110214833Y-58816333D01*
X110172500Y-58901000D01*
X110172500Y-58943333D01*
X110214833Y-59028000D01*
X110257166Y-59070333D01*
X110341833Y-59112666D01*
X110511166Y-59112666D01*
X110595833Y-59155000D01*
X110638166Y-59197333D01*
X110680500Y-59282000D01*
X110680500Y-59451333D01*
X110638166Y-59536000D01*
X110595833Y-59578333D01*
X110511166Y-59620666D01*
X110341833Y-59620666D01*
X110257166Y-59578333D01*
X110214833Y-59536000D01*
X110172500Y-59451333D01*
X110172500Y-59282000D01*
X110214833Y-59197333D01*
X110257166Y-59155000D01*
X110341833Y-59112666D01*
X103746300Y-62403566D02*
X104042633Y-61980233D01*
X104254300Y-62403566D02*
X104254300Y-61514566D01*
X103915633Y-61514566D01*
X103830966Y-61556900D01*
X103788633Y-61599233D01*
X103746300Y-61683900D01*
X103746300Y-61810900D01*
X103788633Y-61895566D01*
X103830966Y-61937900D01*
X103915633Y-61980233D01*
X104254300Y-61980233D01*
X102899633Y-62403566D02*
X103407633Y-62403566D01*
X103153633Y-62403566D02*
X103153633Y-61514566D01*
X103238300Y-61641566D01*
X103322966Y-61726233D01*
X103407633Y-61768566D01*
X102137633Y-61810900D02*
X102137633Y-62403566D01*
X102349300Y-61472233D02*
X102560966Y-62107233D01*
X102010633Y-62107233D01*
X105939166Y-73596500D02*
X105515833Y-73300166D01*
X105939166Y-73088500D02*
X105050166Y-73088500D01*
X105050166Y-73427166D01*
X105092500Y-73511833D01*
X105134833Y-73554166D01*
X105219500Y-73596500D01*
X105346500Y-73596500D01*
X105431166Y-73554166D01*
X105473500Y-73511833D01*
X105515833Y-73427166D01*
X105515833Y-73088500D01*
X105939166Y-74443166D02*
X105939166Y-73935166D01*
X105939166Y-74189166D02*
X105050166Y-74189166D01*
X105177166Y-74104500D01*
X105261833Y-74019833D01*
X105304166Y-73935166D01*
X105050166Y-75247500D02*
X105050166Y-74824166D01*
X105473500Y-74781833D01*
X105431166Y-74824166D01*
X105388833Y-74908833D01*
X105388833Y-75120500D01*
X105431166Y-75205166D01*
X105473500Y-75247500D01*
X105558166Y-75289833D01*
X105769833Y-75289833D01*
X105854500Y-75247500D01*
X105896833Y-75205166D01*
X105939166Y-75120500D01*
X105939166Y-74908833D01*
X105896833Y-74824166D01*
X105854500Y-74781833D01*
X116670666Y-56959500D02*
X116247333Y-56663166D01*
X116670666Y-56451500D02*
X115781666Y-56451500D01*
X115781666Y-56790166D01*
X115824000Y-56874833D01*
X115866333Y-56917166D01*
X115951000Y-56959500D01*
X116078000Y-56959500D01*
X116162666Y-56917166D01*
X116205000Y-56874833D01*
X116247333Y-56790166D01*
X116247333Y-56451500D01*
X116670666Y-57806166D02*
X116670666Y-57298166D01*
X116670666Y-57552166D02*
X115781666Y-57552166D01*
X115908666Y-57467500D01*
X115993333Y-57382833D01*
X116035666Y-57298166D01*
X115781666Y-58102500D02*
X115781666Y-58695166D01*
X116670666Y-58314166D01*
X117877166Y-56959500D02*
X117453833Y-56663166D01*
X117877166Y-56451500D02*
X116988166Y-56451500D01*
X116988166Y-56790166D01*
X117030500Y-56874833D01*
X117072833Y-56917166D01*
X117157500Y-56959500D01*
X117284500Y-56959500D01*
X117369166Y-56917166D01*
X117411500Y-56874833D01*
X117453833Y-56790166D01*
X117453833Y-56451500D01*
X117877166Y-57806166D02*
X117877166Y-57298166D01*
X117877166Y-57552166D02*
X116988166Y-57552166D01*
X117115166Y-57467500D01*
X117199833Y-57382833D01*
X117242166Y-57298166D01*
X117369166Y-58314166D02*
X117326833Y-58229500D01*
X117284500Y-58187166D01*
X117199833Y-58144833D01*
X117157500Y-58144833D01*
X117072833Y-58187166D01*
X117030500Y-58229500D01*
X116988166Y-58314166D01*
X116988166Y-58483500D01*
X117030500Y-58568166D01*
X117072833Y-58610500D01*
X117157500Y-58652833D01*
X117199833Y-58652833D01*
X117284500Y-58610500D01*
X117326833Y-58568166D01*
X117369166Y-58483500D01*
X117369166Y-58314166D01*
X117411500Y-58229500D01*
X117453833Y-58187166D01*
X117538500Y-58144833D01*
X117707833Y-58144833D01*
X117792500Y-58187166D01*
X117834833Y-58229500D01*
X117877166Y-58314166D01*
X117877166Y-58483500D01*
X117834833Y-58568166D01*
X117792500Y-58610500D01*
X117707833Y-58652833D01*
X117538500Y-58652833D01*
X117453833Y-58610500D01*
X117411500Y-58568166D01*
X117369166Y-58483500D01*
X113241666Y-65172166D02*
X113538000Y-64748833D01*
X113749666Y-65172166D02*
X113749666Y-64283166D01*
X113411000Y-64283166D01*
X113326333Y-64325500D01*
X113284000Y-64367833D01*
X113241666Y-64452500D01*
X113241666Y-64579500D01*
X113284000Y-64664166D01*
X113326333Y-64706500D01*
X113411000Y-64748833D01*
X113749666Y-64748833D01*
X112395000Y-65172166D02*
X112903000Y-65172166D01*
X112649000Y-65172166D02*
X112649000Y-64283166D01*
X112733666Y-64410166D01*
X112818333Y-64494833D01*
X112903000Y-64537166D01*
X112839500Y-72707500D02*
X112881833Y-72749833D01*
X113008833Y-72792166D01*
X113093500Y-72792166D01*
X113220500Y-72749833D01*
X113305166Y-72665166D01*
X113347500Y-72580500D01*
X113389833Y-72411166D01*
X113389833Y-72284166D01*
X113347500Y-72114833D01*
X113305166Y-72030166D01*
X113220500Y-71945500D01*
X113093500Y-71903166D01*
X113008833Y-71903166D01*
X112881833Y-71945500D01*
X112839500Y-71987833D01*
X111992833Y-72792166D02*
X112500833Y-72792166D01*
X112246833Y-72792166D02*
X112246833Y-71903166D01*
X112331500Y-72030166D01*
X112416166Y-72114833D01*
X112500833Y-72157166D01*
X111146166Y-72792166D02*
X111654166Y-72792166D01*
X111400166Y-72792166D02*
X111400166Y-71903166D01*
X111484833Y-72030166D01*
X111569500Y-72114833D01*
X111654166Y-72157166D01*
X112479666Y-66484500D02*
X112522000Y-66526833D01*
X112649000Y-66569166D01*
X112733666Y-66569166D01*
X112860666Y-66526833D01*
X112945333Y-66442166D01*
X112987666Y-66357500D01*
X113030000Y-66188166D01*
X113030000Y-66061166D01*
X112987666Y-65891833D01*
X112945333Y-65807166D01*
X112860666Y-65722500D01*
X112733666Y-65680166D01*
X112649000Y-65680166D01*
X112522000Y-65722500D01*
X112479666Y-65764833D01*
X112183333Y-65680166D02*
X111590666Y-65680166D01*
X111971666Y-66569166D01*
X105913766Y-61861700D02*
X105956100Y-61904033D01*
X106083100Y-61946366D01*
X106167766Y-61946366D01*
X106294766Y-61904033D01*
X106379433Y-61819366D01*
X106421766Y-61734700D01*
X106464100Y-61565366D01*
X106464100Y-61438366D01*
X106421766Y-61269033D01*
X106379433Y-61184366D01*
X106294766Y-61099700D01*
X106167766Y-61057366D01*
X106083100Y-61057366D01*
X105956100Y-61099700D01*
X105913766Y-61142033D01*
X105151766Y-61353700D02*
X105151766Y-61946366D01*
X105363433Y-61015033D02*
X105575100Y-61650033D01*
X105024766Y-61650033D01*
X100732166Y-72580500D02*
X100774500Y-72622833D01*
X100901500Y-72665166D01*
X100986166Y-72665166D01*
X101113166Y-72622833D01*
X101197833Y-72538166D01*
X101240166Y-72453500D01*
X101282500Y-72284166D01*
X101282500Y-72157166D01*
X101240166Y-71987833D01*
X101197833Y-71903166D01*
X101113166Y-71818500D01*
X100986166Y-71776166D01*
X100901500Y-71776166D01*
X100774500Y-71818500D01*
X100732166Y-71860833D01*
X100393500Y-71860833D02*
X100351166Y-71818500D01*
X100266500Y-71776166D01*
X100054833Y-71776166D01*
X99970166Y-71818500D01*
X99927833Y-71860833D01*
X99885500Y-71945500D01*
X99885500Y-72030166D01*
X99927833Y-72157166D01*
X100435833Y-72665166D01*
X99885500Y-72665166D01*
X118808500Y-70993000D02*
X118850833Y-70950666D01*
X118893166Y-70823666D01*
X118893166Y-70739000D01*
X118850833Y-70612000D01*
X118766166Y-70527333D01*
X118681500Y-70485000D01*
X118512166Y-70442666D01*
X118385166Y-70442666D01*
X118215833Y-70485000D01*
X118131166Y-70527333D01*
X118046500Y-70612000D01*
X118004166Y-70739000D01*
X118004166Y-70823666D01*
X118046500Y-70950666D01*
X118088833Y-70993000D01*
X118893166Y-71839666D02*
X118893166Y-71331666D01*
X118893166Y-71585666D02*
X118004166Y-71585666D01*
X118131166Y-71501000D01*
X118215833Y-71416333D01*
X118258166Y-71331666D01*
X118004166Y-72390000D02*
X118004166Y-72474666D01*
X118046500Y-72559333D01*
X118088833Y-72601666D01*
X118173500Y-72644000D01*
X118342833Y-72686333D01*
X118554500Y-72686333D01*
X118723833Y-72644000D01*
X118808500Y-72601666D01*
X118850833Y-72559333D01*
X118893166Y-72474666D01*
X118893166Y-72390000D01*
X118850833Y-72305333D01*
X118808500Y-72263000D01*
X118723833Y-72220666D01*
X118554500Y-72178333D01*
X118342833Y-72178333D01*
X118173500Y-72220666D01*
X118088833Y-72263000D01*
X118046500Y-72305333D01*
X118004166Y-72390000D01*
X105875666Y-66294000D02*
X105918000Y-66336333D01*
X106045000Y-66378666D01*
X106129666Y-66378666D01*
X106256666Y-66336333D01*
X106341333Y-66251666D01*
X106383666Y-66167000D01*
X106426000Y-65997666D01*
X106426000Y-65870666D01*
X106383666Y-65701333D01*
X106341333Y-65616666D01*
X106256666Y-65532000D01*
X106129666Y-65489666D01*
X106045000Y-65489666D01*
X105918000Y-65532000D01*
X105875666Y-65574333D01*
X105579333Y-65489666D02*
X105029000Y-65489666D01*
X105325333Y-65828333D01*
X105198333Y-65828333D01*
X105113666Y-65870666D01*
X105071333Y-65913000D01*
X105029000Y-65997666D01*
X105029000Y-66209333D01*
X105071333Y-66294000D01*
X105113666Y-66336333D01*
X105198333Y-66378666D01*
X105452333Y-66378666D01*
X105537000Y-66336333D01*
X105579333Y-66294000D01*
X115273666Y-64416000D02*
X115316000Y-64458333D01*
X115443000Y-64500666D01*
X115527666Y-64500666D01*
X115654666Y-64458333D01*
X115739333Y-64373666D01*
X115781666Y-64289000D01*
X115824000Y-64119666D01*
X115824000Y-63992666D01*
X115781666Y-63823333D01*
X115739333Y-63738666D01*
X115654666Y-63654000D01*
X115527666Y-63611666D01*
X115443000Y-63611666D01*
X115316000Y-63654000D01*
X115273666Y-63696333D01*
X114427000Y-64500666D02*
X114935000Y-64500666D01*
X114681000Y-64500666D02*
X114681000Y-63611666D01*
X114765666Y-63738666D01*
X114850333Y-63823333D01*
X114935000Y-63865666D01*
X116861166Y-65002833D02*
X115972166Y-65002833D01*
X115972166Y-65214500D01*
X116014500Y-65341500D01*
X116099166Y-65426166D01*
X116183833Y-65468500D01*
X116353166Y-65510833D01*
X116480166Y-65510833D01*
X116649500Y-65468500D01*
X116734166Y-65426166D01*
X116818833Y-65341500D01*
X116861166Y-65214500D01*
X116861166Y-65002833D01*
X116056833Y-65849500D02*
X116014500Y-65891833D01*
X115972166Y-65976500D01*
X115972166Y-66188166D01*
X116014500Y-66272833D01*
X116056833Y-66315166D01*
X116141500Y-66357500D01*
X116226166Y-66357500D01*
X116353166Y-66315166D01*
X116861166Y-65807166D01*
X116861166Y-66357500D01*
X101240166Y-68812833D02*
X100351166Y-68812833D01*
X100351166Y-69024500D01*
X100393500Y-69151500D01*
X100478166Y-69236166D01*
X100562833Y-69278500D01*
X100732166Y-69320833D01*
X100859166Y-69320833D01*
X101028500Y-69278500D01*
X101113166Y-69236166D01*
X101197833Y-69151500D01*
X101240166Y-69024500D01*
X101240166Y-68812833D01*
X100351166Y-69617166D02*
X100351166Y-70167500D01*
X100689833Y-69871166D01*
X100689833Y-69998166D01*
X100732166Y-70082833D01*
X100774500Y-70125166D01*
X100859166Y-70167500D01*
X101070833Y-70167500D01*
X101155500Y-70125166D01*
X101197833Y-70082833D01*
X101240166Y-69998166D01*
X101240166Y-69744166D01*
X101197833Y-69659500D01*
X101155500Y-69617166D01*
M02*
