0
SECTION
2
HEADER
9
$INSUNITS
70
4
9
$ACADVER
1
AC1014
9
$HANDSEED
5
FFFF
0
ENDSEC
0
SECTION
2
TABLES
0
TABLE
2
VPORT
5
8
100
AcDbSymbolTable
0
ENDTAB
0
TABLE
2
LTYPE
5
5
100
AcDbSymbolTable
0
LTYPE
5
14
100
AcDbSymbolTableRecord
100
AcDbLinetypeTableRecord
2
BYBLOCK
70
0
0
LTYPE
5
15
100
AcDbSymbolTableRecord
100
AcDbLinetypeTableRecord
2
BYLAYER
70
0
0
ENDTAB
0
TABLE
2
LAYER
5
2
100
AcDbSymbolTable
70
2
0
LAYER
5
50
100
AcDbSymbolTableRecord
100
AcDbLayerTableRecord
2
0
70
0
6
CONTINUOUS
0
ENDTAB
0
TABLE
2
STYLE
5
3
100
AcDbSymbolTable
70
1
0
STYLE
5
11
100
AcDbSymbolTableRecord
100
AcDbTextStyleTableRecord
2
STANDARD
70
0
0
ENDTAB
0
TABLE
2
VIEW
5
6
100
AcDbSymbolTable
70
0
0
ENDTAB
0
TABLE
2
UCS
5
7
100
AcDbSymbolTable
70
0
0
ENDTAB
0
TABLE
2
APPID
5
9
100
AcDbSymbolTable
70
2
0
APPID
5
12
100
AcDbSymbolTableRecord
100
AcDbRegAppTableRecord
2
ACAD
70
0
0
ENDTAB
0
TABLE
2
DIMSTYLE
5
A
100
AcDbSymbolTable
70
1
0
ENDTAB
0
TABLE
2
BLOCK_RECORD
5
1
100
AcDbSymbolTable
70
1
0
BLOCK_RECORD
5
1F
100
AcDbSymbolTableRecord
100
AcDbBlockTableRecord
2
*MODEL_SPACE
0
BLOCK_RECORD
5
1B
100
AcDbSymbolTableRecord
100
AcDbBlockTableRecord
2
*PAPER_SPACE
0
ENDTAB
0
ENDSEC
0
SECTION
2
BLOCKS
0
BLOCK
5
20
100
AcDbEntity
100
AcDbBlockBegin
2
*MODEL_SPACE
0
ENDBLK
5
21
100
AcDbEntity
100
AcDbBlockEnd
0
BLOCK
5
1C
100
AcDbEntity
100
AcDbBlockBegin
2
*PAPER_SPACE
0
ENDBLK
5
1D
100
AcDbEntity
100
AcDbBlockEnd
0
ENDSEC
0
SECTION
2
ENTITIES
0
LINE
5
100
100
AcDbEntity
8
0
100
AcDbLine
10
14.411339999999599
20
78.449999999999932
30
3.5527136788005009e-14
11
14.411339999999589
21
30.049999999999848
31
3.5527136788005009e-14
0
LINE
5
101
100
AcDbEntity
8
0
100
AcDbLine
10
62.811339999999618
20
30.049999999999827
30
3.5527136788005009e-14
11
62.811339999999625
21
78.449999999999932
31
3.5527136788005009e-14
0
CIRCLE
5
102
100
AcDbEntity
8
0
100
AcDbCircle
10
17.911339999999587
20
71.449999999999918
30
0
40
1.1000000000000016
210
-6.6336905378377598e-33
220
-1.2325951644078309e-32
230
1
0
CIRCLE
5
103
100
AcDbEntity
8
0
100
AcDbCircle
10
57.711339999999623
20
71.449999999999918
30
0
40
1.1000000000000016
210
-6.6336905378377598e-33
220
-1.2325951644078309e-32
230
1
0
CIRCLE
5
104
100
AcDbEntity
8
0
100
AcDbCircle
10
57.711339999999623
20
37.049999999999855
30
0
40
1.1000000000000016
210
-6.6336905378377598e-33
220
-1.2325951644078309e-32
230
1
0
CIRCLE
5
105
100
AcDbEntity
8
0
100
AcDbCircle
10
17.911339999999587
20
37.049999999999855
30
0
40
1.1000000000000016
210
-6.6336905378377598e-33
220
-1.2325951644078309e-32
230
1
0
LWPOLYLINE
5
106
100
AcDbEntity
8
0
100
AcDbPolyline
90
4
70
1
43
0.0
10
61.111339999999579
20
78.449999999999847
10
54.311339999999568
20
78.449999999999847
10
54.311339999999568
20
30.049999999999848
10
61.111339999999579
20
30.049999999999848
0
CIRCLE
5
107
100
AcDbEntity
8
0
100
AcDbCircle
10
57.711339999999581
20
71.449999999999847
30
0
40
0.75000000000000355
210
3.4476363988150886e-26
220
-3.9568300241700298e-42
230
1
0
CIRCLE
5
108
100
AcDbEntity
8
0
100
AcDbCircle
10
57.711339999999574
20
37.049999999999848
30
0
40
0.75000000000000355
210
3.4476363988150886e-26
220
-3.9568300241700298e-42
230
1
0
LWPOLYLINE
5
109
100
AcDbEntity
8
0
100
AcDbPolyline
90
4
70
1
43
0.0
10
21.509139850259722
20
30.399999999999924
10
54.309139999999907
20
30.399999999999924
10
54.309139999999907
20
53.399999999999928
10
21.509139850259707
20
53.399999999999928
0
CIRCLE
5
110
100
AcDbEntity
8
0
100
AcDbCircle
10
17.911339999999477
20
71.449999999999847
30
0
40
0.75000000000000133
210
-1.3013628211357385e-32
220
1.4935657033839896e-48
230
1
0
CIRCLE
5
111
100
AcDbEntity
8
0
100
AcDbCircle
10
17.711339999999474
20
37.049999999999855
30
0
40
0.75000000000000133
210
-1.3013628211357385e-32
220
1.4935657033839896e-48
230
1
0
LWPOLYLINE
5
112
100
AcDbEntity
8
0
100
AcDbPolyline
90
4
70
1
43
0.0
10
21.111339999999494
20
78.449999999999861
10
14.311339999999468
20
78.449999999999861
10
14.311339999999459
20
30.049999999999855
10
21.111339999999487
20
30.049999999999855
0
LWPOLYLINE
5
113
100
AcDbEntity
8
0
100
AcDbPolyline
90
4
70
1
43
0.0
10
62.709139999999302
20
78.449999999999719
10
61.1091399999993
20
78.449999999999719
10
61.109139999999307
20
30.049999999999724
10
62.709139999999309
20
30.049999999999724
0
CIRCLE
5
114
100
AcDbEntity
8
0
100
AcDbCircle
10
17.811339999999586
20
37.049999999999841
30
0
40
1.9000000000000048
210
-8.0187454026244205e-31
220
9.2030675562681813e-47
230
1
0
CIRCLE
5
115
100
AcDbEntity
8
0
100
AcDbCircle
10
17.811339999999586
20
71.449999999999818
30
0
40
1.9000000000000048
210
-8.0187454026244205e-31
220
9.2030675562681774e-47
230
1
0
CIRCLE
5
116
100
AcDbEntity
8
0
100
AcDbCircle
10
57.611339999999629
20
71.449999999999832
30
0
40
1.9000000000000041
210
-1.3013635041429665e-32
220
1.2325951644078312e-32
230
1
0
CIRCLE
5
117
100
AcDbEntity
8
0
100
AcDbCircle
10
57.611339999999565
20
37.049999999999841
30
0
40
1.9000000000000048
210
7.7584727017958156e-31
220
-8.9043540881994578e-47
230
1
0
ENDSEC
0
SECTION
2
OBJECTS
0
DICTIONARY
5
C
100
AcDbDictionary
3
ACAD_GROUP
350
D
3
ACAD_MLINESTYLE
350
17
0
DICTIONARY
5
D
100
AcDbDictionary
0
DICTIONARY
5
1A
330
C
100
AcDbDictionary
0
DICTIONARY
5
17
100
AcDbDictionary
0
ENDSEC
0
EOF
