0
SECTION
2
HEADER
9
$INSUNITS
70
4
9
$ACADVER
1
AC1014
9
$HANDSEED
5
FFFF
0
ENDSEC
0
SECTION
2
TABLES
0
TABLE
2
VPORT
5
8
100
AcDbSymbolTable
0
ENDTAB
0
TABLE
2
LTYPE
5
5
100
AcDbSymbolTable
0
LTYPE
5
14
100
AcDbSymbolTableRecord
100
AcDbLinetypeTableRecord
2
BYBLOCK
70
0
0
LTYPE
5
15
100
AcDbSymbolTableRecord
100
AcDbLinetypeTableRecord
2
BYLAYER
70
0
0
ENDTAB
0
TABLE
2
LAYER
5
2
100
AcDbSymbolTable
70
2
0
LAYER
5
50
100
AcDbSymbolTableRecord
100
AcDbLayerTableRecord
2
0
70
0
6
CONTINUOUS
0
ENDTAB
0
TABLE
2
STYLE
5
3
100
AcDbSymbolTable
70
1
0
STYLE
5
11
100
AcDbSymbolTableRecord
100
AcDbTextStyleTableRecord
2
STANDARD
70
0
0
ENDTAB
0
TABLE
2
VIEW
5
6
100
AcDbSymbolTable
70
0
0
ENDTAB
0
TABLE
2
UCS
5
7
100
AcDbSymbolTable
70
0
0
ENDTAB
0
TABLE
2
APPID
5
9
100
AcDbSymbolTable
70
2
0
APPID
5
12
100
AcDbSymbolTableRecord
100
AcDbRegAppTableRecord
2
ACAD
70
0
0
ENDTAB
0
TABLE
2
DIMSTYLE
5
A
100
AcDbSymbolTable
70
1
0
ENDTAB
0
TABLE
2
BLOCK_RECORD
5
1
100
AcDbSymbolTable
70
1
0
BLOCK_RECORD
5
1F
100
AcDbSymbolTableRecord
100
AcDbBlockTableRecord
2
*MODEL_SPACE
0
BLOCK_RECORD
5
1B
100
AcDbSymbolTableRecord
100
AcDbBlockTableRecord
2
*PAPER_SPACE
0
ENDTAB
0
ENDSEC
0
SECTION
2
BLOCKS
0
BLOCK
5
20
100
AcDbEntity
100
AcDbBlockBegin
2
*MODEL_SPACE
0
ENDBLK
5
21
100
AcDbEntity
100
AcDbBlockEnd
0
BLOCK
5
1C
100
AcDbEntity
100
AcDbBlockBegin
2
*PAPER_SPACE
0
ENDBLK
5
1D
100
AcDbEntity
100
AcDbBlockEnd
0
ENDSEC
0
SECTION
2
ENTITIES
0
LWPOLYLINE
5
100
100
AcDbEntity
8
0
100
AcDbPolyline
90
4
70
1
43
0.0
10
154.1903410000001
20
78.449999999999932
10
202.59034100000019
20
78.449999999999932
10
202.59034100000022
20
30.049999999999851
10
154.1903410000001
20
30.049999999999848
0
LWPOLYLINE
5
101
100
AcDbEntity
8
0
100
AcDbPolyline
90
8
70
1
43
0.0
10
186.19034100000019
20
64.599999999999909
42
-0.41421356237307161
10
185.19034100000016
20
65.599999999999909
10
185.19034100000016
20
67.39999999999992
42
-0.41421356237307422
10
186.19034100000019
20
68.399999999999935
10
192.39034100000021
20
68.399999999999935
42
-0.41421356237306117
10
193.39034100000018
20
67.399999999999935
10
193.39034100000018
20
65.599999999999923
42
-0.41421356237307422
10
192.39034100000015
20
64.599999999999909
0
CIRCLE
5
102
100
AcDbEntity
8
0
100
AcDbCircle
10
197.4903410000002
20
45.049999999999876
30
0
40
1.1000000000000021
210
1.3013635041431206e-32
220
2.4651903288156619e-32
230
1
0
CIRCLE
5
103
100
AcDbEntity
8
0
100
AcDbCircle
10
197.4903410000002
20
63.449999999999918
30
0
40
1.1000000000000021
210
1.3013635041431206e-32
220
2.4651903288156619e-32
230
1
0
CIRCLE
5
104
100
AcDbEntity
8
0
100
AcDbCircle
10
157.69034100000013
20
45.049999999999869
30
-2.2204460492503131e-15
40
1.1000000000000021
210
1.3013635041431206e-32
220
2.4651903288156619e-32
230
1
0
CIRCLE
5
105
100
AcDbEntity
8
0
100
AcDbCircle
10
157.6903410000001
20
63.44999999999991
30
-2.2204460492503131e-15
40
1.1000000000000021
210
1.3013635041431206e-32
220
2.4651903288156619e-32
230
1
0
CIRCLE
5
106
100
AcDbEntity
8
0
100
AcDbCircle
10
197.49034100000011
20
63.449999999999882
30
0
40
0.75000000000000333
210
1.5907354454834547e-30
220
2.4651903288156816e-32
230
1
0
CIRCLE
5
107
100
AcDbEntity
8
0
100
AcDbCircle
10
197.49034100000011
20
45.049999999999883
30
0
40
0.75000000000000333
210
1.5907354454834547e-30
220
2.4651903288156816e-32
230
1
0
LWPOLYLINE
5
108
100
AcDbEntity
8
0
100
AcDbPolyline
90
4
70
1
43
0.0
10
200.99034100000011
20
78.449999999999889
10
193.99034100000009
20
78.449999999999889
10
193.99034100000009
20
30.049999999999891
10
200.99034100000011
20
30.049999999999891
0
LWPOLYLINE
5
109
100
AcDbEntity
8
0
100
AcDbPolyline
90
4
70
1
43
0.0
10
161.34034099993389
20
30.399999999999938
10
194.14034099993381
20
30.399999999999956
10
194.14034099993376
20
45.149999999999949
10
161.34034099993386
20
45.149999999999935
0
CIRCLE
5
110
100
AcDbEntity
8
0
100
AcDbCircle
10
157.6903409999338
20
45.049999999999883
30
-2.2204460492503131e-15
40
0.75000000000000111
210
1.3013635041431124e-32
220
2.4651903288156619e-32
230
1
0
CIRCLE
5
111
100
AcDbEntity
8
0
100
AcDbCircle
10
157.69034099993377
20
63.449999999999882
30
-2.2204460492503131e-15
40
0.75000000000000111
210
1.3013635041431124e-32
220
2.4651903288156619e-32
230
1
0
LWPOLYLINE
5
112
100
AcDbEntity
8
0
100
AcDbPolyline
90
4
70
1
43
0.0
10
161.19034100006633
20
78.449999999999875
10
154.19034100444065
20
78.449999999999875
10
154.19034100444065
20
30.049999999999883
10
161.19034100006633
20
30.049999999999883
0
CIRCLE
5
113
100
AcDbEntity
8
0
100
AcDbCircle
10
157.69034099993382
20
63.449999999999882
30
-2.2204460492503131e-15
40
1.7100000000000035
210
1.5907354454834554e-30
220
-2.4651903288156425e-32
230
1
0
CIRCLE
5
114
100
AcDbEntity
8
0
100
AcDbCircle
10
157.69034099993382
20
45.049999999999848
30
-2.2204460492503131e-15
40
1.7100000000000035
210
1.5907354454834551e-30
220
2.4651903288156816e-32
230
1
0
CIRCLE
5
115
100
AcDbEntity
8
0
100
AcDbCircle
10
197.490341
20
45.049999999999848
30
-2.2204460492503131e-15
40
1.7100000000000035
210
1.5907354454834551e-30
220
2.4651903288156816e-32
230
1
0
CIRCLE
5
116
100
AcDbEntity
8
0
100
AcDbCircle
10
197.49034100000014
20
63.449999999999882
30
0
40
1.7100000000000035
210
1.5907354454834547e-30
220
2.4651903288156816e-32
230
1
0
LWPOLYLINE
5
117
100
AcDbEntity
8
0
100
AcDbPolyline
90
4
70
1
43
0.0
10
200.990341
20
30.049999999999866
10
202.59034100000002
20
30.049999999999866
10
202.59034100000002
20
78.44999999999996
10
200.990341
20
78.449999999999946
0
ENDSEC
0
SECTION
2
OBJECTS
0
DICTIONARY
5
C
100
AcDbDictionary
3
ACAD_GROUP
350
D
3
ACAD_MLINESTYLE
350
17
0
DICTIONARY
5
D
100
AcDbDictionary
0
DICTIONARY
5
1A
330
C
100
AcDbDictionary
0
DICTIONARY
5
17
100
AcDbDictionary
0
ENDSEC
0
EOF
