0
SECTION
2
HEADER
9
$INSUNITS
70
4
9
$ACADVER
1
AC1014
9
$HANDSEED
5
FFFF
0
ENDSEC
0
SECTION
2
TABLES
0
TABLE
2
VPORT
5
8
100
AcDbSymbolTable
0
ENDTAB
0
TABLE
2
LTYPE
5
5
100
AcDbSymbolTable
0
LTYPE
5
14
100
AcDbSymbolTableRecord
100
AcDbLinetypeTableRecord
2
BYBLOCK
70
0
0
LTYPE
5
15
100
AcDbSymbolTableRecord
100
AcDbLinetypeTableRecord
2
BYLAYER
70
0
0
ENDTAB
0
TABLE
2
LAYER
5
2
100
AcDbSymbolTable
70
2
0
LAYER
5
50
100
AcDbSymbolTableRecord
100
AcDbLayerTableRecord
2
0
70
0
6
CONTINUOUS
0
ENDTAB
0
TABLE
2
STYLE
5
3
100
AcDbSymbolTable
70
1
0
STYLE
5
11
100
AcDbSymbolTableRecord
100
AcDbTextStyleTableRecord
2
STANDARD
70
0
0
ENDTAB
0
TABLE
2
VIEW
5
6
100
AcDbSymbolTable
70
0
0
ENDTAB
0
TABLE
2
UCS
5
7
100
AcDbSymbolTable
70
0
0
ENDTAB
0
TABLE
2
APPID
5
9
100
AcDbSymbolTable
70
2
0
APPID
5
12
100
AcDbSymbolTableRecord
100
AcDbRegAppTableRecord
2
ACAD
70
0
0
ENDTAB
0
TABLE
2
DIMSTYLE
5
A
100
AcDbSymbolTable
70
1
0
ENDTAB
0
TABLE
2
BLOCK_RECORD
5
1
100
AcDbSymbolTable
70
1
0
BLOCK_RECORD
5
1F
100
AcDbSymbolTableRecord
100
AcDbBlockTableRecord
2
*MODEL_SPACE
0
BLOCK_RECORD
5
1B
100
AcDbSymbolTableRecord
100
AcDbBlockTableRecord
2
*PAPER_SPACE
0
ENDTAB
0
ENDSEC
0
SECTION
2
BLOCKS
0
BLOCK
5
20
100
AcDbEntity
100
AcDbBlockBegin
2
*MODEL_SPACE
0
ENDBLK
5
21
100
AcDbEntity
100
AcDbBlockEnd
0
BLOCK
5
1C
100
AcDbEntity
100
AcDbBlockBegin
2
*PAPER_SPACE
0
ENDBLK
5
1D
100
AcDbEntity
100
AcDbBlockEnd
0
ENDSEC
0
SECTION
2
ENTITIES
0
CIRCLE
5
100
100
AcDbEntity
8
0
100
AcDbCircle
10
11.600000000000001
20
3.0000000447034836
30
0
40
1.25
210
0
220
0
230
1
0
CIRCLE
5
101
100
AcDbEntity
8
0
100
AcDbCircle
10
11.600000000000001
20
45.399999999999999
30
0
40
1.25
210
0
220
0
230
1
0
CIRCLE
5
102
100
AcDbEntity
8
0
100
AcDbCircle
10
38.399999999999999
20
45.399999999999999
30
0
40
1.25
210
0
220
0
230
1
0
CIRCLE
5
103
100
AcDbEntity
8
0
100
AcDbCircle
10
38.399999999999999
20
3.0000000447034836
30
0
40
1.25
210
0
220
0
230
1
0
LWPOLYLINE
5
104
100
AcDbEntity
8
0
100
AcDbPolyline
90
4
70
1
43
0.0
10
0
20
0
10
0
20
48.399999999999999
10
48.399999999999999
20
48.399999999999999
10
48.399999999999999
20
0
0
LWPOLYLINE
5
105
100
AcDbEntity
8
0
100
AcDbPolyline
90
4
70
1
43
0.0
10
8.5999999999999996
20
7.9999999999999982
10
8.5999999999999979
20
42.400000000000006
10
41.399999999999999
20
42.400000000000006
10
41.399999999999999
20
7.9999999999999982
0
LINE
5
106
100
AcDbEntity
8
0
100
AcDbLine
10
20.600000000000001
20
28.899999999999999
30
0
11
36.899999999999991
21
28.899999999999999
31
0
0
LINE
5
107
100
AcDbEntity
8
0
100
AcDbLine
10
36.899999999999991
20
28.899999999999999
30
0
11
36.899999999999991
21
14.500000000000002
31
0
0
LINE
5
108
100
AcDbEntity
8
0
100
AcDbLine
10
36.899999999999991
20
14.500000000000002
30
0
11
20.600000000000001
21
14.500000000000002
31
0
0
LINE
5
109
100
AcDbEntity
8
0
100
AcDbLine
10
20.600000000000001
20
14.500000000000002
30
0
11
20.600000000000001
21
28.899999999999999
31
0
0
LINE
5
110
100
AcDbEntity
8
0
100
AcDbLine
10
20.600000000000001
20
28.899999999999999
30
0
11
36.899999999999991
21
14.500000000000002
31
0
0
LINE
5
111
100
AcDbEntity
8
0
100
AcDbLine
10
20.600000000000001
20
14.500000000000002
30
0
11
36.899999999999991
21
28.899999999999999
31
0
0
LINE
5
112
100
AcDbEntity
8
0
100
AcDbLine
10
18.600000000000001
20
42.400000000000006
30
0
11
0
21
42.400000000000006
31
0
0
LINE
5
113
100
AcDbEntity
8
0
100
AcDbLine
10
0
20
42.400000000000006
30
0
11
0
21
40.799999999999997
31
0
0
LINE
5
114
100
AcDbEntity
8
0
100
AcDbLine
10
0
20
40.799999999999997
30
0
11
18.600000000000001
21
40.799999999999997
31
0
0
LINE
5
115
100
AcDbEntity
8
0
100
AcDbLine
10
18.600000000000001
20
40.799999999999997
30
0
11
18.600000000000001
21
42.400000000000006
31
0
0
LINE
5
116
100
AcDbEntity
8
0
100
AcDbLine
10
18.600000000000001
20
34.799999999999997
30
0
11
0
21
34.799999999999997
31
0
0
LINE
5
117
100
AcDbEntity
8
0
100
AcDbLine
10
0
20
34.799999999999997
30
0
11
0
21
33.199999999999996
31
0
0
LINE
5
118
100
AcDbEntity
8
0
100
AcDbLine
10
0
20
33.199999999999996
30
0
11
18.600000000000001
21
33.199999999999996
31
0
0
LINE
5
119
100
AcDbEntity
8
0
100
AcDbLine
10
18.600000000000001
20
33.199999999999996
30
0
11
18.600000000000001
21
34.799999999999997
31
0
0
LINE
5
120
100
AcDbEntity
8
0
100
AcDbLine
10
18.600000000000001
20
27.199999999999996
30
0
11
0
21
27.199999999999996
31
0
0
LINE
5
121
100
AcDbEntity
8
0
100
AcDbLine
10
0
20
27.199999999999996
30
0
11
0
21
25.599999999999994
31
0
0
LINE
5
122
100
AcDbEntity
8
0
100
AcDbLine
10
0
20
25.599999999999994
30
0
11
18.600000000000001
21
25.599999999999994
31
0
0
LINE
5
123
100
AcDbEntity
8
0
100
AcDbLine
10
18.600000000000001
20
25.599999999999994
30
0
11
18.600000000000001
21
27.199999999999996
31
0
0
LINE
5
124
100
AcDbEntity
8
0
100
AcDbLine
10
0
20
42.400000000000006
30
0
11
18.600000000000001
21
40.799999999999997
31
0
0
LINE
5
125
100
AcDbEntity
8
0
100
AcDbLine
10
18.600000000000001
20
42.400000000000006
30
0
11
0
21
40.799999999999997
31
0
0
LINE
5
126
100
AcDbEntity
8
0
100
AcDbLine
10
0
20
34.799999999999997
30
0
11
18.600000000000001
21
33.199999999999996
31
0
0
LINE
5
127
100
AcDbEntity
8
0
100
AcDbLine
10
18.600000000000001
20
34.799999999999997
30
0
11
0
21
33.199999999999996
31
0
0
LINE
5
128
100
AcDbEntity
8
0
100
AcDbLine
10
0
20
27.199999999999996
30
0
11
18.600000000000001
21
25.599999999999994
31
0
0
LINE
5
129
100
AcDbEntity
8
0
100
AcDbLine
10
18.600000000000001
20
27.199999999999996
30
0
11
0
21
25.599999999999994
31
0
0
LINE
5
130
100
AcDbEntity
8
0
100
AcDbLine
10
0
20
48.399999999999999
30
0
11
0
21
0
31
0
0
LINE
5
131
100
AcDbEntity
8
0
100
AcDbLine
10
0
20
0
30
0
11
48.399999999999999
21
0
31
0
0
LINE
5
132
100
AcDbEntity
8
0
100
AcDbLine
10
48.399999999999999
20
0
30
0
11
48.399999999999999
21
48.399999999999999
31
0
0
LINE
5
133
100
AcDbEntity
8
0
100
AcDbLine
10
48.399999999999999
20
48.399999999999999
30
0
11
0
21
48.399999999999999
31
0
0
CIRCLE
5
134
100
AcDbEntity
8
0
100
AcDbCircle
10
11.600000000000001
20
45.399999999999999
30
0
40
1.25
210
0
220
0
230
1
0
CIRCLE
5
135
100
AcDbEntity
8
0
100
AcDbCircle
10
38.399999999999999
20
45.399999999999999
30
0
40
1.25
210
0
220
0
230
1
0
CIRCLE
5
136
100
AcDbEntity
8
0
100
AcDbCircle
10
38.399999999999999
20
3.0000000447034836
30
0
40
1.25
210
0
220
0
230
1
0
CIRCLE
5
137
100
AcDbEntity
8
0
100
AcDbCircle
10
11.600000000000001
20
3.0000000447034836
30
0
40
1.25
210
0
220
0
230
1
0
ENDSEC
0
SECTION
2
OBJECTS
0
DICTIONARY
5
C
100
AcDbDictionary
3
ACAD_GROUP
350
D
3
ACAD_MLINESTYLE
350
17
0
DICTIONARY
5
D
100
AcDbDictionary
0
DICTIONARY
5
1A
330
C
100
AcDbDictionary
0
DICTIONARY
5
17
100
AcDbDictionary
0
ENDSEC
0
EOF
