0
SECTION
2
HEADER
9
$INSUNITS
70
4
9
$ACADVER
1
AC1014
9
$HANDSEED
5
FFFF
0
ENDSEC
0
SECTION
2
TABLES
0
TABLE
2
VPORT
5
8
100
AcDbSymbolTable
0
ENDTAB
0
TABLE
2
LTYPE
5
5
100
AcDbSymbolTable
0
LTYPE
5
14
100
AcDbSymbolTableRecord
100
AcDbLinetypeTableRecord
2
BYBLOCK
70
0
0
LTYPE
5
15
100
AcDbSymbolTableRecord
100
AcDbLinetypeTableRecord
2
BYLAYER
70
0
0
ENDTAB
0
TABLE
2
LAYER
5
2
100
AcDbSymbolTable
70
2
0
LAYER
5
50
100
AcDbSymbolTableRecord
100
AcDbLayerTableRecord
2
0
70
0
6
CONTINUOUS
0
ENDTAB
0
TABLE
2
STYLE
5
3
100
AcDbSymbolTable
70
1
0
STYLE
5
11
100
AcDbSymbolTableRecord
100
AcDbTextStyleTableRecord
2
STANDARD
70
0
0
ENDTAB
0
TABLE
2
VIEW
5
6
100
AcDbSymbolTable
70
0
0
ENDTAB
0
TABLE
2
UCS
5
7
100
AcDbSymbolTable
70
0
0
ENDTAB
0
TABLE
2
APPID
5
9
100
AcDbSymbolTable
70
2
0
APPID
5
12
100
AcDbSymbolTableRecord
100
AcDbRegAppTableRecord
2
ACAD
70
0
0
ENDTAB
0
TABLE
2
DIMSTYLE
5
A
100
AcDbSymbolTable
70
1
0
ENDTAB
0
TABLE
2
BLOCK_RECORD
5
1
100
AcDbSymbolTable
70
1
0
BLOCK_RECORD
5
1F
100
AcDbSymbolTableRecord
100
AcDbBlockTableRecord
2
*MODEL_SPACE
0
BLOCK_RECORD
5
1B
100
AcDbSymbolTableRecord
100
AcDbBlockTableRecord
2
*PAPER_SPACE
0
ENDTAB
0
ENDSEC
0
SECTION
2
BLOCKS
0
BLOCK
5
20
100
AcDbEntity
100
AcDbBlockBegin
2
*MODEL_SPACE
0
ENDBLK
5
21
100
AcDbEntity
100
AcDbBlockEnd
0
BLOCK
5
1C
100
AcDbEntity
100
AcDbBlockBegin
2
*PAPER_SPACE
0
ENDBLK
5
1D
100
AcDbEntity
100
AcDbBlockEnd
0
ENDSEC
0
SECTION
2
ENTITIES
0
CIRCLE
5
100
100
AcDbEntity
8
0
100
AcDbCircle
10
-44.900000000000034
20
-11.600000000000051
30
0
40
1.749999999999998
210
0
220
-0
230
1
0
CIRCLE
5
101
100
AcDbEntity
8
0
100
AcDbCircle
10
-44.900000000000034
20
-33.400000000000041
30
0
40
1.749999999999998
210
0
220
-0
230
1
0
CIRCLE
5
102
100
AcDbEntity
8
0
100
AcDbCircle
10
-5.0999999999993539
20
-16.600000000000176
30
0
40
1.7500000000000004
210
0
220
-0
230
1
0
CIRCLE
5
103
100
AcDbEntity
8
0
100
AcDbCircle
10
-5.0999999999994481
20
-38.400000000000162
30
0
40
1.7500000000000004
210
0
220
-0
230
1
0
LWPOLYLINE
5
104
100
AcDbEntity
8
0
100
AcDbPolyline
90
4
70
1
43
0.0
10
0
20
0
10
0
20
-50
10
-50
20
-50
10
-50
20
0
0
LINE
5
105
100
AcDbEntity
8
0
100
AcDbLine
10
0
20
-50
30
0
11
-50
21
-50
31
0
0
LINE
5
106
100
AcDbEntity
8
0
100
AcDbLine
10
-50
20
-50
30
0
11
-50
21
-48.399999999999999
31
0
0
LINE
5
107
100
AcDbEntity
8
0
100
AcDbLine
10
-50
20
-48.399999999999999
30
0
11
0
21
-48.399999999999999
31
0
0
LINE
5
108
100
AcDbEntity
8
0
100
AcDbLine
10
0
20
-48.399999999999999
30
0
11
0
21
-50
31
0
0
LINE
5
109
100
AcDbEntity
8
0
100
AcDbLine
10
0
20
-50
30
0
11
-1.6000000000000003
21
-50
31
0
0
LINE
5
110
100
AcDbEntity
8
0
100
AcDbLine
10
-1.6000000000000003
20
-50
30
0
11
-1.6000000000000003
21
0
31
0
0
LINE
5
111
100
AcDbEntity
8
0
100
AcDbLine
10
-1.6000000000000003
20
0
30
0
11
0
21
0
31
0
0
LINE
5
112
100
AcDbEntity
8
0
100
AcDbLine
10
0
20
0
30
0
11
0
21
-50
31
0
0
LWPOLYLINE
5
113
100
AcDbEntity
8
0
100
AcDbPolyline
90
4
70
1
43
0.0
10
-50
20
0
10
0
20
0
10
0
20
-1.6000000000000003
10
-50
20
-1.6000000000000003
0
LWPOLYLINE
5
114
100
AcDbEntity
8
0
100
AcDbPolyline
90
4
70
1
43
0.0
10
-48.399999999999999
20
0
10
-50
20
0
10
-50
20
-50
10
-48.399999999999999
20
-50
0
LINE
5
115
100
AcDbEntity
8
0
100
AcDbLine
10
-1.6000000000000003
20
-48.399999999999999
30
0
11
-8.6000000000000014
21
-48.399999999999999
31
0
0
LINE
5
116
100
AcDbEntity
8
0
100
AcDbLine
10
-8.6000000000000014
20
-48.399999999999999
30
0
11
-8.6000000000000014
21
-41.399999999999999
31
0
0
LINE
5
117
100
AcDbEntity
8
0
100
AcDbLine
10
-8.6000000000000014
20
-41.399999999999999
30
0
11
-1.6000000000000003
21
-41.399999999999999
31
0
0
LINE
5
118
100
AcDbEntity
8
0
100
AcDbLine
10
-1.6000000000000003
20
-41.399999999999999
30
0
11
-1.6000000000000003
21
-48.399999999999999
31
0
0
LINE
5
119
100
AcDbEntity
8
0
100
AcDbLine
10
-48.399999999999999
20
-48.399999999999999
30
0
11
-41.399999999999999
21
-48.399999999999999
31
0
0
LINE
5
120
100
AcDbEntity
8
0
100
AcDbLine
10
-41.399999999999999
20
-48.399999999999999
30
0
11
-41.399999999999999
21
-41.399999999999999
31
0
0
LINE
5
121
100
AcDbEntity
8
0
100
AcDbLine
10
-41.399999999999999
20
-41.399999999999999
30
0
11
-48.399999999999999
21
-41.399999999999999
31
0
0
LINE
5
122
100
AcDbEntity
8
0
100
AcDbLine
10
-48.399999999999999
20
-41.399999999999999
30
0
11
-48.399999999999999
21
-48.399999999999999
31
0
0
LINE
5
123
100
AcDbEntity
8
0
100
AcDbLine
10
-48.399999999999999
20
-1.6000000000000003
30
0
11
-41.399999999999999
21
-1.6000000000000003
31
0
0
LINE
5
124
100
AcDbEntity
8
0
100
AcDbLine
10
-41.399999999999999
20
-1.6000000000000003
30
0
11
-41.399999999999999
21
-8.6000000000000014
31
0
0
LINE
5
125
100
AcDbEntity
8
0
100
AcDbLine
10
-41.399999999999999
20
-8.6000000000000014
30
0
11
-48.399999999999999
21
-8.6000000000000014
31
0
0
LINE
5
126
100
AcDbEntity
8
0
100
AcDbLine
10
-48.399999999999999
20
-8.6000000000000014
30
0
11
-48.399999999999999
21
-1.6000000000000003
31
0
0
LINE
5
127
100
AcDbEntity
8
0
100
AcDbLine
10
-1.6000000000000003
20
-1.6000000000000014
30
0
11
-8.6000000000000014
21
-1.6000000000000014
31
0
0
LINE
5
128
100
AcDbEntity
8
0
100
AcDbLine
10
-8.6000000000000014
20
-1.6000000000000014
30
0
11
-8.6000000000000014
21
-8.6000000000000014
31
0
0
LINE
5
129
100
AcDbEntity
8
0
100
AcDbLine
10
-8.6000000000000014
20
-8.6000000000000014
30
0
11
-1.6000000000000003
21
-8.6000000000000014
31
0
0
LINE
5
130
100
AcDbEntity
8
0
100
AcDbLine
10
-1.6000000000000003
20
-8.6000000000000014
30
0
11
-1.6000000000000003
21
-1.6000000000000014
31
0
0
LINE
5
131
100
AcDbEntity
8
0
100
AcDbLine
10
-8.6000000000000014
20
-41.399999999999999
30
0
11
-8.6000000000000014
21
-8.6000000000000014
31
0
0
LINE
5
132
100
AcDbEntity
8
0
100
AcDbLine
10
-41.399999999999999
20
-8.6000000000000014
30
0
11
-8.6000000000000014
21
-8.6000000000000014
31
0
0
LINE
5
133
100
AcDbEntity
8
0
100
AcDbLine
10
-41.399999999999999
20
-8.6000000000000014
30
0
11
-41.399999999999999
21
-41.399999999999999
31
0
0
LINE
5
134
100
AcDbEntity
8
0
100
AcDbLine
10
-41.399999999999999
20
-41.399999999999999
30
0
11
-8.6000000000000014
21
-41.399999999999999
31
0
0
ENDSEC
0
SECTION
2
OBJECTS
0
DICTIONARY
5
C
100
AcDbDictionary
3
ACAD_GROUP
350
D
3
ACAD_MLINESTYLE
350
17
0
DICTIONARY
5
D
100
AcDbDictionary
0
DICTIONARY
5
1A
330
C
100
AcDbDictionary
0
DICTIONARY
5
17
100
AcDbDictionary
0
ENDSEC
0
EOF
