0
SECTION
2
HEADER
9
$INSUNITS
70
4
9
$ACADVER
1
AC1014
9
$HANDSEED
5
FFFF
0
ENDSEC
0
SECTION
2
TABLES
0
TABLE
2
VPORT
5
8
100
AcDbSymbolTable
0
ENDTAB
0
TABLE
2
LTYPE
5
5
100
AcDbSymbolTable
0
LTYPE
5
14
100
AcDbSymbolTableRecord
100
AcDbLinetypeTableRecord
2
BYBLOCK
70
0
0
LTYPE
5
15
100
AcDbSymbolTableRecord
100
AcDbLinetypeTableRecord
2
BYLAYER
70
0
0
ENDTAB
0
TABLE
2
LAYER
5
2
100
AcDbSymbolTable
70
2
0
LAYER
5
50
100
AcDbSymbolTableRecord
100
AcDbLayerTableRecord
2
0
70
0
6
CONTINUOUS
0
ENDTAB
0
TABLE
2
STYLE
5
3
100
AcDbSymbolTable
70
1
0
STYLE
5
11
100
AcDbSymbolTableRecord
100
AcDbTextStyleTableRecord
2
STANDARD
70
0
0
ENDTAB
0
TABLE
2
VIEW
5
6
100
AcDbSymbolTable
70
0
0
ENDTAB
0
TABLE
2
UCS
5
7
100
AcDbSymbolTable
70
0
0
ENDTAB
0
TABLE
2
APPID
5
9
100
AcDbSymbolTable
70
2
0
APPID
5
12
100
AcDbSymbolTableRecord
100
AcDbRegAppTableRecord
2
ACAD
70
0
0
ENDTAB
0
TABLE
2
DIMSTYLE
5
A
100
AcDbSymbolTable
70
1
0
ENDTAB
0
TABLE
2
BLOCK_RECORD
5
1
100
AcDbSymbolTable
70
1
0
BLOCK_RECORD
5
1F
100
AcDbSymbolTableRecord
100
AcDbBlockTableRecord
2
*MODEL_SPACE
0
BLOCK_RECORD
5
1B
100
AcDbSymbolTableRecord
100
AcDbBlockTableRecord
2
*PAPER_SPACE
0
ENDTAB
0
ENDSEC
0
SECTION
2
BLOCKS
0
BLOCK
5
20
100
AcDbEntity
100
AcDbBlockBegin
2
*MODEL_SPACE
0
ENDBLK
5
21
100
AcDbEntity
100
AcDbBlockEnd
0
BLOCK
5
1C
100
AcDbEntity
100
AcDbBlockBegin
2
*PAPER_SPACE
0
ENDBLK
5
1D
100
AcDbEntity
100
AcDbBlockEnd
0
ENDSEC
0
SECTION
2
ENTITIES
0
LWPOLYLINE
5
100
100
AcDbEntity
8
0
100
AcDbPolyline
90
4
70
1
43
0.0
10
-12.811340000000364
20
202.59034099993391
10
-12.811339999999944
20
152.59034099993394
10
-62.811339999999952
20
152.59034099993352
10
-62.811340000000378
20
202.59034099993352
0
CIRCLE
5
101
100
AcDbEntity
8
0
100
AcDbCircle
10
-17.911340000000315
20
197.49034099993389
30
0
40
1.0000000000000004
210
3.0814879110195774e-33
220
2.5844607989933492e-47
230
1
0
CIRCLE
5
102
100
AcDbEntity
8
0
100
AcDbCircle
10
-57.711340000000334
20
197.49034099993352
30
0
40
1.0000000000000004
210
3.0814879110195774e-33
220
2.5844607989933492e-47
230
1
0
CIRCLE
5
103
100
AcDbEntity
8
0
100
AcDbCircle
10
-17.911339999999996
20
157.69034099993391
30
0
40
1.0000000000000004
210
3.0814879110195774e-33
220
2.5844607989933492e-47
230
1
0
CIRCLE
5
104
100
AcDbEntity
8
0
100
AcDbCircle
10
-57.71134
20
157.69034099993357
30
0
40
1.0000000000000004
210
3.0814879110195774e-33
220
2.5844607989933492e-47
230
1
0
LWPOLYLINE
5
105
100
AcDbEntity
8
0
100
AcDbPolyline
90
4
70
1
43
0.0
10
-62.709139999999842
20
152.59034099993355
10
-61.10913999999984
20
152.59034099993355
10
-61.109140000000011
20
200.99034099993355
10
-62.709140000000012
20
200.99034099993355
0
CIRCLE
5
106
100
AcDbEntity
8
0
100
AcDbCircle
10
-57.709140000000048
20
157.69034099993351
30
0
40
0.75000000000000155
210
-2.167591716529954e-46
220
2.4651903288156624e-32
230
1
0
LWPOLYLINE
5
107
100
AcDbEntity
8
0
100
AcDbPolyline
90
4
70
1
43
0.0
10
-54.309140000000006
20
154.19034099993351
10
-54.30914000000007
20
161.19034099993354
10
-61.109140000000089
20
161.19034099993348
10
-61.109140000000039
20
154.19034099993348
0
CIRCLE
5
108
100
AcDbEntity
8
0
100
AcDbCircle
10
-57.60913999999994
20
157.69034099993351
30
0
40
1.9000000000000035
210
-9.2444637330587321e-33
220
-3.6198912636741307e-46
230
1
0
LWPOLYLINE
5
109
100
AcDbEntity
8
0
100
AcDbPolyline
90
4
70
1
43
0.0
10
-61.009140000000102
20
154.19034100225448
10
-61.00914000000013
20
152.59034100225449
10
-12.609140000000069
20
152.59034100225361
10
-12.609140000000041
20
154.19034100225363
0
CIRCLE
5
110
100
AcDbEntity
8
0
100
AcDbCircle
10
-17.709139999999948
20
157.69034100000016
30
0
40
0.75000000000000155
210
-2.167591716529954e-46
220
2.4651903288156624e-32
230
1
0
LWPOLYLINE
5
111
100
AcDbEntity
8
0
100
AcDbPolyline
90
4
70
1
43
0.0
10
-21.109139999999989
20
161.19034100006641
10
-21.109139999999925
20
154.19034100006638
10
-14.309139999999905
20
154.19034100444077
10
-14.309139999999969
20
161.19034100006644
0
CIRCLE
5
112
100
AcDbEntity
8
0
100
AcDbCircle
10
-17.809139999999925
20
157.69034099993385
30
0
40
1.9000000000000037
210
-3.081487911019578e-33
220
-2.6410668038310405e-47
230
1
0
LWPOLYLINE
5
113
100
AcDbEntity
8
0
100
AcDbPolyline
90
4
70
1
43
0.0
10
-12.711340000000405
20
202.59034100000031
10
-14.311340000000408
20
202.59034100000031
10
-14.311340000000827
20
154.19034100000025
10
-12.711340000000824
20
154.19034100000022
0
CIRCLE
5
114
100
AcDbEntity
8
0
100
AcDbCircle
10
-17.711340000000163
20
197.49034100000017
30
0
40
0.75000000000000133
210
0
220
-0
230
1
0
LWPOLYLINE
5
115
100
AcDbEntity
8
0
100
AcDbPolyline
90
4
70
1
43
0.0
10
-21.111340000000197
20
200.99034100000017
10
-21.111340000000141
20
193.99034100000017
10
-14.311340000000119
20
193.9903410000002
10
-14.311340000000179
20
200.99034100000023
0
CIRCLE
5
116
100
AcDbEntity
8
0
100
AcDbCircle
10
-17.811340000000271
20
197.49034100000003
30
0
40
1.900000000000003
210
3.0814879110195774e-33
220
1.2028566908315167e-46
230
1
0
LWPOLYLINE
5
117
100
AcDbEntity
8
0
100
AcDbPolyline
90
4
70
1
43
0.0
10
-14.411340000000294
20
200.99034100000011
10
-14.411340000000301
20
202.59034100000011
10
-62.811340000000342
20
202.59034099999994
10
-62.811340000000328
20
200.99034099999994
0
CIRCLE
5
118
100
AcDbEntity
8
0
100
AcDbCircle
10
-57.711340000000249
20
197.49034099993355
30
0
40
0.75000000000000133
210
0
220
-0
230
1
0
LWPOLYLINE
5
119
100
AcDbEntity
8
0
100
AcDbPolyline
90
4
70
1
43
0.0
10
-54.311340000000214
20
193.99034099986727
10
-54.311340000000278
20
200.99034099986733
10
-61.11134000000029
20
200.99034099549294
10
-61.111340000000226
20
193.99034099986721
0
CIRCLE
5
120
100
AcDbEntity
8
0
100
AcDbCircle
10
-57.611340000000276
20
197.49034099999972
30
0
40
1.9000000000000035
210
3.0814879110193635e-33
220
2.4651903288156646e-32
230
1
0
ENDSEC
0
SECTION
2
OBJECTS
0
DICTIONARY
5
C
100
AcDbDictionary
3
ACAD_GROUP
350
D
3
ACAD_MLINESTYLE
350
17
0
DICTIONARY
5
D
100
AcDbDictionary
0
DICTIONARY
5
1A
330
C
100
AcDbDictionary
0
DICTIONARY
5
17
100
AcDbDictionary
0
ENDSEC
0
EOF
