0
SECTION
2
HEADER
9
$INSUNITS
70
4
9
$ACADVER
1
AC1014
9
$HANDSEED
5
FFFF
0
ENDSEC
0
SECTION
2
TABLES
0
TABLE
2
VPORT
5
8
100
AcDbSymbolTable
0
ENDTAB
0
TABLE
2
LTYPE
5
5
100
AcDbSymbolTable
0
LTYPE
5
14
100
AcDbSymbolTableRecord
100
AcDbLinetypeTableRecord
2
BYBLOCK
70
0
0
LTYPE
5
15
100
AcDbSymbolTableRecord
100
AcDbLinetypeTableRecord
2
BYLAYER
70
0
0
ENDTAB
0
TABLE
2
LAYER
5
2
100
AcDbSymbolTable
70
2
0
LAYER
5
50
100
AcDbSymbolTableRecord
100
AcDbLayerTableRecord
2
0
70
0
6
CONTINUOUS
0
ENDTAB
0
TABLE
2
STYLE
5
3
100
AcDbSymbolTable
70
1
0
STYLE
5
11
100
AcDbSymbolTableRecord
100
AcDbTextStyleTableRecord
2
STANDARD
70
0
0
ENDTAB
0
TABLE
2
VIEW
5
6
100
AcDbSymbolTable
70
0
0
ENDTAB
0
TABLE
2
UCS
5
7
100
AcDbSymbolTable
70
0
0
ENDTAB
0
TABLE
2
APPID
5
9
100
AcDbSymbolTable
70
2
0
APPID
5
12
100
AcDbSymbolTableRecord
100
AcDbRegAppTableRecord
2
ACAD
70
0
0
ENDTAB
0
TABLE
2
DIMSTYLE
5
A
100
AcDbSymbolTable
70
1
0
ENDTAB
0
TABLE
2
BLOCK_RECORD
5
1
100
AcDbSymbolTable
70
1
0
BLOCK_RECORD
5
1F
100
AcDbSymbolTableRecord
100
AcDbBlockTableRecord
2
*MODEL_SPACE
0
BLOCK_RECORD
5
1B
100
AcDbSymbolTableRecord
100
AcDbBlockTableRecord
2
*PAPER_SPACE
0
ENDTAB
0
ENDSEC
0
SECTION
2
BLOCKS
0
BLOCK
5
20
100
AcDbEntity
100
AcDbBlockBegin
2
*MODEL_SPACE
0
ENDBLK
5
21
100
AcDbEntity
100
AcDbBlockEnd
0
BLOCK
5
1C
100
AcDbEntity
100
AcDbBlockBegin
2
*PAPER_SPACE
0
ENDBLK
5
1D
100
AcDbEntity
100
AcDbBlockEnd
0
ENDSEC
0
SECTION
2
ENTITIES
0
LWPOLYLINE
5
100
100
AcDbEntity
8
0
100
AcDbPolyline
90
8
70
1
43
0.0
10
22.400000000000006
20
18.5
10
22.400000000000006
20
10.499999999999998
42
0.41421356237309509
10
24.400000000000006
20
8.5
10
32.399999999999991
20
8.5000000000000036
42
0.41421356237309509
10
34.399999999999991
20
10.500000000000005
10
34.400000000000006
20
18.5
42
0.41421356237309276
10
32.400000000000006
20
20.5
10
24.400000000000006
20
20.5
42
0.41421356237309409
0
CIRCLE
5
101
100
AcDbEntity
8
0
100
AcDbCircle
10
11.600000000000001
20
3.0000000447034836
30
0
40
1.25
210
0
220
0
230
1
0
CIRCLE
5
102
100
AcDbEntity
8
0
100
AcDbCircle
10
11.600000000000001
20
45.399999999999999
30
0
40
1.25
210
0
220
0
230
1
0
CIRCLE
5
103
100
AcDbEntity
8
0
100
AcDbCircle
10
38.399999999999999
20
45.399999999999999
30
0
40
1.25
210
0
220
0
230
1
0
CIRCLE
5
104
100
AcDbEntity
8
0
100
AcDbCircle
10
38.399999999999999
20
3.0000000447034836
30
0
40
1.25
210
0
220
0
230
1
0
LWPOLYLINE
5
105
100
AcDbEntity
8
0
100
AcDbPolyline
90
4
70
1
43
0.0
10
0
20
0
10
0
20
48.399999999999999
10
48.399999999999999
20
48.399999999999999
10
48.399999999999999
20
0
0
CIRCLE
5
106
100
AcDbEntity
8
0
100
AcDbCircle
10
11.600000000000001
20
45.399999999999999
30
0
40
1.2499999999999996
210
0
220
0
230
1
0
CIRCLE
5
107
100
AcDbEntity
8
0
100
AcDbCircle
10
38.399999999999999
20
45.399999999999999
30
0
40
1.249999999999998
210
0
220
0
230
1
0
LWPOLYLINE
5
108
100
AcDbEntity
8
0
100
AcDbPolyline
90
4
70
1
43
0.0
10
34.400000000000006
20
20.499999999999986
10
22.400000000000006
20
20.5
10
22.400000000000006
20
8.5000000000000036
10
34.400000000000006
20
8.5000000000000036
0
LINE
5
109
100
AcDbEntity
8
0
100
AcDbLine
10
41.399999999999999
20
0
30
0
11
48.399999999999999
21
0
31
0
0
LINE
5
110
100
AcDbEntity
8
0
100
AcDbLine
10
48.399999999999999
20
0
30
0
11
48.399999999999999
21
7.5999999999999996
31
0
0
LINE
5
111
100
AcDbEntity
8
0
100
AcDbLine
10
41.399999999999999
20
7.5999999999999979
30
0
11
9
21
7.5999999999999979
31
0
0
LINE
5
112
100
AcDbEntity
8
0
100
AcDbLine
10
0
20
7.5999999999999996
30
0
11
0
21
0
31
0
0
LINE
5
113
100
AcDbEntity
8
0
100
AcDbLine
10
48.399999999999999
20
15.600000000000001
30
0
11
48.399999999999999
21
17.200000000000003
31
0
0
LINE
5
114
100
AcDbEntity
8
0
100
AcDbLine
10
0
20
17.200000000000003
30
0
11
0
21
15.600000000000001
31
0
0
LINE
5
115
100
AcDbEntity
8
0
100
AcDbLine
10
9
20
25.200000000000003
30
0
11
41.399999999999999
21
25.200000000000003
31
0
0
LINE
5
116
100
AcDbEntity
8
0
100
AcDbLine
10
48.399999999999999
20
25.200000000000003
30
0
11
48.399999999999999
21
26.800000000000004
31
0
0
LWPOLYLINE
5
117
100
AcDbEntity
8
0
100
AcDbPolyline
90
4
70
1
43
0.0
10
9
20
26.800000000000004
10
41.399999999999999
20
26.800000000000004
10
41.399999999999999
20
32.800000000000004
10
9
20
32.800000000000004
0
LINE
5
118
100
AcDbEntity
8
0
100
AcDbLine
10
0
20
26.800000000000004
30
0
11
0
21
25.200000000000003
31
0
0
LINE
5
119
100
AcDbEntity
8
0
100
AcDbLine
10
48.399999999999999
20
32.800000000000004
30
0
11
48.399999999999999
21
34.400000000000006
31
0
0
LWPOLYLINE
5
120
100
AcDbEntity
8
0
100
AcDbPolyline
90
4
70
1
43
0.0
10
9
20
34.400000000000006
10
41.399999999999999
20
34.400000000000006
10
41.399999999999999
20
40.400000000000006
10
9
20
40.400000000000006
0
LINE
5
121
100
AcDbEntity
8
0
100
AcDbLine
10
0
20
34.400000000000006
30
0
11
0
21
32.800000000000004
31
0
0
LINE
5
122
100
AcDbEntity
8
0
100
AcDbLine
10
0
20
48.399999999999999
30
0
11
48.399999999999999
21
48.399999999999999
31
0
0
LINE
5
123
100
AcDbEntity
8
0
100
AcDbLine
10
48.399999999999999
20
48.399999999999999
30
0
11
48.399999999999999
21
40.400000000000006
31
0
0
LINE
5
124
100
AcDbEntity
8
0
100
AcDbLine
10
0
20
40.400000000000006
30
0
11
0
21
48.399999999999999
31
0
0
LINE
5
125
100
AcDbEntity
8
0
100
AcDbLine
10
0
20
48.399999999999999
30
0
11
9
21
48.399999999999999
31
0
0
LINE
5
126
100
AcDbEntity
8
0
100
AcDbLine
10
9
20
0
30
0
11
0
21
0
31
0
0
LINE
5
127
100
AcDbEntity
8
0
100
AcDbLine
10
0
20
0
30
0
11
0
21
48.399999999999999
31
0
0
LINE
5
128
100
AcDbEntity
8
0
100
AcDbLine
10
48.399999999999999
20
48.399999999999999
30
0
11
41.399999999999999
21
48.399999999999999
31
0
0
LINE
5
129
100
AcDbEntity
8
0
100
AcDbLine
10
41.399999999999999
20
0
30
0
11
48.399999999999999
21
0
31
0
0
LINE
5
130
100
AcDbEntity
8
0
100
AcDbLine
10
48.399999999999999
20
0
30
0
11
48.399999999999999
21
48.399999999999999
31
0
0
LINE
5
131
100
AcDbEntity
8
0
100
AcDbLine
10
9
20
15.600000000000001
30
0
11
22.400000000000006
21
15.599999999999998
31
0
0
LINE
5
132
100
AcDbEntity
8
0
100
AcDbLine
10
34.399999999999999
20
15.599999999999996
30
0
11
41.399999999999999
21
15.599999999999996
31
0
0
LINE
5
133
100
AcDbEntity
8
0
100
AcDbLine
10
41.399999999999999
20
17.200000000000003
30
0
11
34.400000000000006
21
17.200000000000003
31
0
0
LINE
5
134
100
AcDbEntity
8
0
100
AcDbLine
10
22.400000000000006
20
17.200000000000003
30
0
11
9
21
17.200000000000003
31
0
0
LINE
5
135
100
AcDbEntity
8
0
100
AcDbLine
10
9
20
15.600000000000001
30
0
11
9
21
7.5999999999999979
31
0
0
LINE
5
136
100
AcDbEntity
8
0
100
AcDbLine
10
9
20
25.200000000000003
30
0
11
9
21
17.200000000000003
31
0
0
LINE
5
137
100
AcDbEntity
8
0
100
AcDbLine
10
41.399999999999999
20
25.200000000000003
30
0
11
41.399999999999999
21
17.200000000000003
31
0
0
LINE
5
138
100
AcDbEntity
8
0
100
AcDbLine
10
41.399999999999999
20
15.599999999999996
30
0
11
41.399999999999999
21
7.5999999999999979
31
0
0
ENDSEC
0
SECTION
2
OBJECTS
0
DICTIONARY
5
C
100
AcDbDictionary
3
ACAD_GROUP
350
D
3
ACAD_MLINESTYLE
350
17
0
DICTIONARY
5
D
100
AcDbDictionary
0
DICTIONARY
5
1A
330
C
100
AcDbDictionary
0
DICTIONARY
5
17
100
AcDbDictionary
0
ENDSEC
0
EOF
