%TF.GenerationSoftware,KiCad,Pcbnew,(5.1.5)-3*%
%TF.CreationDate,2020-08-30T11:50:14-07:00*%
%TF.ProjectId,ypanel,7970616e-656c-42e6-9b69-6361645f7063,rev?*%
%TF.SameCoordinates,Original*%
%TF.FileFunction,Legend,Bot*%
%TF.FilePolarity,Positive*%
%FSLAX46Y46*%
G04 Gerber Fmt 4.6, Leading zero omitted, Abs format (unit mm)*
G04 Created by KiCad (PCBNEW (5.1.5)-3) date 2020-08-30 11:50:14*
%MOMM*%
%LPD*%
G04 APERTURE LIST*
%ADD10C,0.177800*%
%ADD11C,0.101600*%
%ADD12C,0.100000*%
%ADD13C,0.254000*%
%ADD14C,0.050000*%
%ADD15C,0.300000*%
%ADD16C,0.120000*%
%ADD17C,0.150000*%
%ADD18C,0.200000*%
%ADD19C,0.250000*%
%ADD20C,0.127000*%
%ADD21C,0.076200*%
G04 APERTURE END LIST*
D10*
X157662619Y-106330785D02*
X157662619Y-106902214D01*
X157662619Y-106616500D02*
X158662619Y-106616500D01*
X158519761Y-106711738D01*
X158424523Y-106806976D01*
X158376904Y-106902214D01*
D11*
X129231571Y-87757000D02*
X129304142Y-87720714D01*
X129413000Y-87720714D01*
X129521857Y-87757000D01*
X129594428Y-87829571D01*
X129630714Y-87902142D01*
X129667000Y-88047285D01*
X129667000Y-88156142D01*
X129630714Y-88301285D01*
X129594428Y-88373857D01*
X129521857Y-88446428D01*
X129413000Y-88482714D01*
X129340428Y-88482714D01*
X129231571Y-88446428D01*
X129195285Y-88410142D01*
X129195285Y-88156142D01*
X129340428Y-88156142D01*
X128868714Y-88482714D02*
X128868714Y-87720714D01*
X128433285Y-88482714D01*
X128433285Y-87720714D01*
X128070428Y-88482714D02*
X128070428Y-87720714D01*
X127889000Y-87720714D01*
X127780142Y-87757000D01*
X127707571Y-87829571D01*
X127671285Y-87902142D01*
X127635000Y-88047285D01*
X127635000Y-88156142D01*
X127671285Y-88301285D01*
X127707571Y-88373857D01*
X127780142Y-88446428D01*
X127889000Y-88482714D01*
X128070428Y-88482714D01*
D12*
X151587000Y-99000001D02*
G75*
G03X151587000Y-99000001I-8000000J0D01*
G01*
X134779564Y-114100000D02*
G75*
G03X134779564Y-114100000I-1029564J0D01*
G01*
X141279564Y-114100000D02*
G75*
G03X141279564Y-114100000I-1029564J0D01*
G01*
X126375000Y-118900000D02*
G75*
G03X126375000Y-118900000I-1300000J0D01*
G01*
X140979564Y-83920436D02*
G75*
G03X140979564Y-83920436I-1029564J0D01*
G01*
X147479564Y-83920436D02*
G75*
G03X147479564Y-83920436I-1029564J0D01*
G01*
X176975000Y-70000000D02*
X176975000Y-128000000D01*
D10*
X166187380Y-107092714D02*
X166187380Y-106521285D01*
X166187380Y-106807000D02*
X165187380Y-106807000D01*
X165330238Y-106711761D01*
X165425476Y-106616523D01*
X165473095Y-106521285D01*
X157747545Y-113166952D02*
X157759239Y-113100631D01*
X157743620Y-112995304D01*
X157607054Y-112800267D01*
X157513421Y-112749566D01*
X157447100Y-112737872D01*
X157341772Y-112753491D01*
X157263758Y-112808117D01*
X157174049Y-112929064D01*
X157033721Y-113724909D01*
X156678649Y-113217815D01*
X156510845Y-112812123D02*
X156444525Y-112800429D01*
X156432831Y-112866750D01*
X156499151Y-112878444D01*
X156510845Y-112812123D01*
X156432831Y-112866750D01*
X156459982Y-111743228D02*
X155913881Y-112125612D01*
X156908606Y-111719759D02*
X156460063Y-112324492D01*
X156104992Y-111817398D01*
X155656125Y-110097074D02*
X155749759Y-110147775D01*
X155831698Y-110264797D01*
X155874631Y-110409132D01*
X155851243Y-110541772D01*
X155800541Y-110635406D01*
X155671825Y-110783666D01*
X155554804Y-110865605D01*
X155371462Y-110935851D01*
X155266134Y-110951470D01*
X155133493Y-110928082D01*
X155012546Y-110838373D01*
X154957920Y-110760359D01*
X154914988Y-110616024D01*
X154926682Y-110549703D01*
X155199733Y-110358511D01*
X155308985Y-110514540D01*
X154602849Y-110253265D02*
X155422001Y-109679688D01*
X155031929Y-109952820D02*
X154704171Y-109484733D01*
X154275091Y-109785178D02*
X155094243Y-109211601D01*
X154602687Y-109090735D02*
X154302242Y-108661656D01*
X154056586Y-109473120D01*
X153756141Y-109044040D01*
D11*
X164682714Y-100720071D02*
X164682714Y-101191785D01*
X164973000Y-100937785D01*
X164973000Y-101046642D01*
X165009285Y-101119214D01*
X165045571Y-101155500D01*
X165118142Y-101191785D01*
X165299571Y-101191785D01*
X165372142Y-101155500D01*
X165408428Y-101119214D01*
X165444714Y-101046642D01*
X165444714Y-100828928D01*
X165408428Y-100756357D01*
X165372142Y-100720071D01*
X164682714Y-101409500D02*
X165444714Y-101663500D01*
X164682714Y-101917500D01*
X164682714Y-102098928D02*
X164682714Y-102570642D01*
X164973000Y-102316642D01*
X164973000Y-102425500D01*
X165009285Y-102498071D01*
X165045571Y-102534357D01*
X165118142Y-102570642D01*
X165299571Y-102570642D01*
X165372142Y-102534357D01*
X165408428Y-102498071D01*
X165444714Y-102425500D01*
X165444714Y-102207785D01*
X165408428Y-102135214D01*
X165372142Y-102098928D01*
X166116000Y-88228714D02*
X165862000Y-88990714D01*
X165608000Y-88228714D01*
X165390285Y-88954428D02*
X165281428Y-88990714D01*
X165100000Y-88990714D01*
X165027428Y-88954428D01*
X164991142Y-88918142D01*
X164954857Y-88845571D01*
X164954857Y-88773000D01*
X164991142Y-88700428D01*
X165027428Y-88664142D01*
X165100000Y-88627857D01*
X165245142Y-88591571D01*
X165317714Y-88555285D01*
X165354000Y-88519000D01*
X165390285Y-88446428D01*
X165390285Y-88373857D01*
X165354000Y-88301285D01*
X165317714Y-88265000D01*
X165245142Y-88228714D01*
X165063714Y-88228714D01*
X164954857Y-88265000D01*
X164483142Y-88228714D02*
X164338000Y-88228714D01*
X164265428Y-88265000D01*
X164192857Y-88337571D01*
X164156571Y-88482714D01*
X164156571Y-88736714D01*
X164192857Y-88881857D01*
X164265428Y-88954428D01*
X164338000Y-88990714D01*
X164483142Y-88990714D01*
X164555714Y-88954428D01*
X164628285Y-88881857D01*
X164664571Y-88736714D01*
X164664571Y-88482714D01*
X164628285Y-88337571D01*
X164555714Y-88265000D01*
X164483142Y-88228714D01*
X163467142Y-88990714D02*
X163830000Y-88990714D01*
X163830000Y-88228714D01*
X163249428Y-88773000D02*
X162886571Y-88773000D01*
X163322000Y-88990714D02*
X163068000Y-88228714D01*
X162814000Y-88990714D01*
X162124571Y-88990714D02*
X162378571Y-88627857D01*
X162560000Y-88990714D02*
X162560000Y-88228714D01*
X162269714Y-88228714D01*
X162197142Y-88265000D01*
X162160857Y-88301285D01*
X162124571Y-88373857D01*
X162124571Y-88482714D01*
X162160857Y-88555285D01*
X162197142Y-88591571D01*
X162269714Y-88627857D01*
X162560000Y-88627857D01*
D13*
X113000000Y-125000000D02*
X176987200Y-125000000D01*
X113030000Y-72999600D02*
X177017200Y-72999600D01*
D12*
X166200000Y-118900000D02*
G75*
G03X166200000Y-118900000I-1300000J0D01*
G01*
D14*
X126372800Y-79100000D02*
G75*
G03X126372800Y-79100000I-1300000J0D01*
G01*
D12*
X166195000Y-79102480D02*
G75*
G03X166195000Y-79102480I-1300000J0D01*
G01*
D15*
X156985714Y-78978571D02*
X156628571Y-79978571D01*
X156271428Y-78978571D01*
X155414285Y-78478571D02*
X155271428Y-78478571D01*
X155128571Y-78550000D01*
X155057142Y-78621428D01*
X154985714Y-78764285D01*
X154914285Y-79050000D01*
X154914285Y-79407142D01*
X154985714Y-79692857D01*
X155057142Y-79835714D01*
X155128571Y-79907142D01*
X155271428Y-79978571D01*
X155414285Y-79978571D01*
X155557142Y-79907142D01*
X155628571Y-79835714D01*
X155700000Y-79692857D01*
X155771428Y-79407142D01*
X155771428Y-79050000D01*
X155700000Y-78764285D01*
X155628571Y-78621428D01*
X155557142Y-78550000D01*
X155414285Y-78478571D01*
X154414285Y-78478571D02*
X153485714Y-78478571D01*
X153985714Y-79050000D01*
X153771428Y-79050000D01*
X153628571Y-79121428D01*
X153557142Y-79192857D01*
X153485714Y-79335714D01*
X153485714Y-79692857D01*
X153557142Y-79835714D01*
X153628571Y-79907142D01*
X153771428Y-79978571D01*
X154200000Y-79978571D01*
X154342857Y-79907142D01*
X154414285Y-79835714D01*
D16*
X145700520Y-117604960D02*
G75*
G02X142656774Y-117276102I-1332859J1913849D01*
G01*
X143414520Y-117198560D02*
G75*
G02X142567232Y-117005552I-390089J243807D01*
G01*
X143421578Y-117191223D02*
G75*
G02X145725919Y-117147761I1161342J-464537D01*
G01*
X148811248Y-117046117D02*
G75*
G02X145768520Y-117622360I-1899729J1709756D01*
G01*
X149028520Y-116597360D02*
G75*
G02X148012520Y-117105360I-635000J0D01*
G01*
X145707578Y-117140822D02*
G75*
G02X148011919Y-117097360I1161342J-464537D01*
G01*
D17*
X134945428Y-93051571D02*
X134945428Y-93813476D01*
X135326380Y-93432523D02*
X134564476Y-93432523D01*
X134802571Y-94623000D02*
X134850190Y-94765857D01*
X134897809Y-94813476D01*
X134993047Y-94861095D01*
X135135904Y-94861095D01*
X135231142Y-94813476D01*
X135278761Y-94765857D01*
X135326380Y-94670619D01*
X135326380Y-94289666D01*
X134326380Y-94289666D01*
X134326380Y-94623000D01*
X134374000Y-94718238D01*
X134421619Y-94765857D01*
X134516857Y-94813476D01*
X134612095Y-94813476D01*
X134707333Y-94765857D01*
X134754952Y-94718238D01*
X134802571Y-94623000D01*
X134802571Y-94289666D01*
X135040666Y-95242047D02*
X135040666Y-95718238D01*
X135326380Y-95146809D02*
X134326380Y-95480142D01*
X135326380Y-95813476D01*
X134326380Y-96003952D02*
X134326380Y-96575380D01*
X135326380Y-96289666D02*
X134326380Y-96289666D01*
X134326380Y-96765857D02*
X134326380Y-97337285D01*
X135326380Y-97051571D02*
X134326380Y-97051571D01*
X134945428Y-101560571D02*
X134945428Y-102322476D01*
X134802571Y-103132000D02*
X134850190Y-103274857D01*
X134897809Y-103322476D01*
X134993047Y-103370095D01*
X135135904Y-103370095D01*
X135231142Y-103322476D01*
X135278761Y-103274857D01*
X135326380Y-103179619D01*
X135326380Y-102798666D01*
X134326380Y-102798666D01*
X134326380Y-103132000D01*
X134374000Y-103227238D01*
X134421619Y-103274857D01*
X134516857Y-103322476D01*
X134612095Y-103322476D01*
X134707333Y-103274857D01*
X134754952Y-103227238D01*
X134802571Y-103132000D01*
X134802571Y-102798666D01*
X135040666Y-103751047D02*
X135040666Y-104227238D01*
X135326380Y-103655809D02*
X134326380Y-103989142D01*
X135326380Y-104322476D01*
X134326380Y-104512952D02*
X134326380Y-105084380D01*
X135326380Y-104798666D02*
X134326380Y-104798666D01*
X134326380Y-105274857D02*
X134326380Y-105846285D01*
X135326380Y-105560571D02*
X134326380Y-105560571D01*
D12*
X176975000Y-70000000D02*
X113000000Y-70000000D01*
X113000000Y-128000000D02*
X176975000Y-128000000D01*
X113000000Y-70000000D02*
X113000000Y-128000000D01*
D18*
X164450000Y-106750000D02*
X164450000Y-108300000D01*
X164450000Y-115250000D02*
X164450000Y-113700000D01*
X164450000Y-106750000D02*
X161600000Y-106750000D01*
X164450000Y-115250000D02*
X161600000Y-115250000D01*
X159570000Y-115250000D02*
X159570000Y-106750000D01*
D16*
X161967720Y-89773460D02*
G75*
G03X161967720Y-89773460I-700000J0D01*
G01*
X131573500Y-88138000D02*
G75*
G03X131573500Y-88138000I-700000J0D01*
G01*
X165736500Y-99568000D02*
G75*
G03X165736500Y-99568000I-700000J0D01*
G01*
X126640000Y-103585000D02*
X127490000Y-103585000D01*
X126640000Y-95415000D02*
X126640000Y-103585000D01*
X127490000Y-95415000D02*
X126640000Y-95415000D01*
X131860000Y-103585000D02*
X131860000Y-101260000D01*
X131010000Y-103585000D02*
X131860000Y-103585000D01*
X131860000Y-97740000D02*
X134250000Y-97740000D01*
X131860000Y-95415000D02*
X131860000Y-97740000D01*
X131010000Y-95415000D02*
X131860000Y-95415000D01*
D18*
X152361500Y-89026000D02*
G75*
G03X152361500Y-89026000I-19000J0D01*
G01*
D16*
X156423579Y-85244400D02*
X156098021Y-85244400D01*
X156423579Y-84224400D02*
X156098021Y-84224400D01*
D19*
X158045844Y-94570660D02*
G75*
G03X158045844Y-94570660I-125000J0D01*
G01*
D18*
X157163380Y-104070820D02*
G75*
G03X157163380Y-104070820I-19000J0D01*
G01*
D13*
X154968520Y-98210000D02*
G75*
G03X154968520Y-98210000I-127000J0D01*
G01*
D20*
X152892070Y-101429450D02*
X152892070Y-100070550D01*
X156790970Y-100070550D02*
X156790970Y-101429450D01*
D13*
X154935500Y-90093500D02*
G75*
G03X154935500Y-90093500I-127000J0D01*
G01*
D20*
X152859050Y-93312950D02*
X152859050Y-91954050D01*
X156757950Y-91954050D02*
X156757950Y-93312950D01*
D16*
X156466000Y-96484221D02*
X156466000Y-96809779D01*
X155446000Y-96484221D02*
X155446000Y-96809779D01*
X149595842Y-107260028D02*
X147384132Y-108808684D01*
X150672671Y-109826531D02*
X151034024Y-110342597D01*
X148903302Y-111065457D02*
X149427560Y-110698368D01*
X151196928Y-109459443D02*
X150672671Y-109826531D01*
D21*
X161418221Y-111160193D02*
X161871793Y-111160193D01*
X161962507Y-111129955D01*
X162022983Y-111069479D01*
X162053221Y-110978764D01*
X162053221Y-110918288D01*
X162053221Y-111795193D02*
X162053221Y-111432336D01*
X162053221Y-111613764D02*
X161418221Y-111613764D01*
X161508936Y-111553288D01*
X161569412Y-111492812D01*
X161599650Y-111432336D01*
X127431541Y-99110533D02*
X127885113Y-99110533D01*
X127975827Y-99080295D01*
X128036303Y-99019819D01*
X128066541Y-98929104D01*
X128066541Y-98868628D01*
X127643208Y-99685057D02*
X128066541Y-99685057D01*
X127401303Y-99533866D02*
X127854875Y-99382676D01*
X127854875Y-99775771D01*
X155421071Y-88137261D02*
X155421071Y-87502261D01*
X155269880Y-87502261D01*
X155179166Y-87532500D01*
X155118690Y-87592976D01*
X155088452Y-87653452D01*
X155058214Y-87774404D01*
X155058214Y-87865119D01*
X155088452Y-87986071D01*
X155118690Y-88046547D01*
X155179166Y-88107023D01*
X155269880Y-88137261D01*
X155421071Y-88137261D01*
X154846547Y-87502261D02*
X154453452Y-87502261D01*
X154665119Y-87744166D01*
X154574404Y-87744166D01*
X154513928Y-87774404D01*
X154483690Y-87804642D01*
X154453452Y-87865119D01*
X154453452Y-88016309D01*
X154483690Y-88076785D01*
X154513928Y-88107023D01*
X154574404Y-88137261D01*
X154755833Y-88137261D01*
X154816309Y-88107023D01*
X154846547Y-88076785D01*
X154060357Y-87502261D02*
X153999880Y-87502261D01*
X153939404Y-87532500D01*
X153909166Y-87562738D01*
X153878928Y-87623214D01*
X153848690Y-87744166D01*
X153848690Y-87895357D01*
X153878928Y-88016309D01*
X153909166Y-88076785D01*
X153939404Y-88107023D01*
X153999880Y-88137261D01*
X154060357Y-88137261D01*
X154120833Y-88107023D01*
X154151071Y-88076785D01*
X154181309Y-88016309D01*
X154211547Y-87895357D01*
X154211547Y-87744166D01*
X154181309Y-87623214D01*
X154151071Y-87562738D01*
X154120833Y-87532500D01*
X154060357Y-87502261D01*
X156255833Y-86276785D02*
X156286071Y-86307023D01*
X156376785Y-86337261D01*
X156437261Y-86337261D01*
X156527976Y-86307023D01*
X156588452Y-86246547D01*
X156618690Y-86186071D01*
X156648928Y-86065119D01*
X156648928Y-85974404D01*
X156618690Y-85853452D01*
X156588452Y-85792976D01*
X156527976Y-85732500D01*
X156437261Y-85702261D01*
X156376785Y-85702261D01*
X156286071Y-85732500D01*
X156255833Y-85762738D01*
X155711547Y-85702261D02*
X155832500Y-85702261D01*
X155892976Y-85732500D01*
X155923214Y-85762738D01*
X155983690Y-85853452D01*
X156013928Y-85974404D01*
X156013928Y-86216309D01*
X155983690Y-86276785D01*
X155953452Y-86307023D01*
X155892976Y-86337261D01*
X155772023Y-86337261D01*
X155711547Y-86307023D01*
X155681309Y-86276785D01*
X155651071Y-86216309D01*
X155651071Y-86065119D01*
X155681309Y-86004642D01*
X155711547Y-85974404D01*
X155772023Y-85944166D01*
X155892976Y-85944166D01*
X155953452Y-85974404D01*
X155983690Y-86004642D01*
X156013928Y-86065119D01*
X152412333Y-97926785D02*
X152442571Y-97957023D01*
X152533285Y-97987261D01*
X152593761Y-97987261D01*
X152684476Y-97957023D01*
X152744952Y-97896547D01*
X152775190Y-97836071D01*
X152805428Y-97715119D01*
X152805428Y-97624404D01*
X152775190Y-97503452D01*
X152744952Y-97442976D01*
X152684476Y-97382500D01*
X152593761Y-97352261D01*
X152533285Y-97352261D01*
X152442571Y-97382500D01*
X152412333Y-97412738D01*
X152109952Y-97987261D02*
X151989000Y-97987261D01*
X151928523Y-97957023D01*
X151898285Y-97926785D01*
X151837809Y-97836071D01*
X151807571Y-97715119D01*
X151807571Y-97473214D01*
X151837809Y-97412738D01*
X151868047Y-97382500D01*
X151928523Y-97352261D01*
X152049476Y-97352261D01*
X152109952Y-97382500D01*
X152140190Y-97412738D01*
X152170428Y-97473214D01*
X152170428Y-97624404D01*
X152140190Y-97684880D01*
X152109952Y-97715119D01*
X152049476Y-97745357D01*
X151928523Y-97745357D01*
X151868047Y-97715119D01*
X151837809Y-97684880D01*
X151807571Y-97624404D01*
X159921701Y-90075961D02*
X159921701Y-89440961D01*
X159770510Y-89440961D01*
X159679796Y-89471200D01*
X159619320Y-89531676D01*
X159589082Y-89592152D01*
X159558844Y-89713104D01*
X159558844Y-89803819D01*
X159589082Y-89924771D01*
X159619320Y-89985247D01*
X159679796Y-90045723D01*
X159770510Y-90075961D01*
X159921701Y-90075961D01*
X158954082Y-90075961D02*
X159316939Y-90075961D01*
X159135510Y-90075961D02*
X159135510Y-89440961D01*
X159195987Y-89531676D01*
X159256463Y-89592152D01*
X159316939Y-89622390D01*
X159323105Y-96236850D02*
X159837153Y-96236850D01*
X159897629Y-96267088D01*
X159927867Y-96297326D01*
X159958105Y-96357802D01*
X159958105Y-96478755D01*
X159927867Y-96539231D01*
X159897629Y-96569469D01*
X159837153Y-96599707D01*
X159323105Y-96599707D01*
X159383582Y-96871850D02*
X159353344Y-96902088D01*
X159323105Y-96962564D01*
X159323105Y-97113755D01*
X159353344Y-97174231D01*
X159383582Y-97204469D01*
X159444058Y-97234707D01*
X159504534Y-97234707D01*
X159595248Y-97204469D01*
X159958105Y-96841612D01*
X159958105Y-97234707D01*
X158465570Y-104697581D02*
X158465570Y-104062581D01*
X158314380Y-104062581D01*
X158223665Y-104092820D01*
X158163189Y-104153296D01*
X158132951Y-104213772D01*
X158102713Y-104334724D01*
X158102713Y-104425439D01*
X158132951Y-104546391D01*
X158163189Y-104606867D01*
X158223665Y-104667343D01*
X158314380Y-104697581D01*
X158465570Y-104697581D01*
X157860808Y-104123058D02*
X157830570Y-104092820D01*
X157770094Y-104062581D01*
X157618903Y-104062581D01*
X157558427Y-104092820D01*
X157528189Y-104123058D01*
X157497951Y-104183534D01*
X157497951Y-104244010D01*
X157528189Y-104334724D01*
X157891046Y-104697581D01*
X157497951Y-104697581D01*
X166078833Y-94666761D02*
X166290500Y-94364380D01*
X166441690Y-94666761D02*
X166441690Y-94031761D01*
X166199785Y-94031761D01*
X166139309Y-94062000D01*
X166109071Y-94092238D01*
X166078833Y-94152714D01*
X166078833Y-94243428D01*
X166109071Y-94303904D01*
X166139309Y-94334142D01*
X166199785Y-94364380D01*
X166441690Y-94364380D01*
X165867166Y-94031761D02*
X165474071Y-94031761D01*
X165685738Y-94273666D01*
X165595023Y-94273666D01*
X165534547Y-94303904D01*
X165504309Y-94334142D01*
X165474071Y-94394619D01*
X165474071Y-94545809D01*
X165504309Y-94606285D01*
X165534547Y-94636523D01*
X165595023Y-94666761D01*
X165776452Y-94666761D01*
X165836928Y-94636523D01*
X165867166Y-94606285D01*
X166128833Y-95716761D02*
X166340500Y-95414380D01*
X166491690Y-95716761D02*
X166491690Y-95081761D01*
X166249785Y-95081761D01*
X166189309Y-95112000D01*
X166159071Y-95142238D01*
X166128833Y-95202714D01*
X166128833Y-95293428D01*
X166159071Y-95353904D01*
X166189309Y-95384142D01*
X166249785Y-95414380D01*
X166491690Y-95414380D01*
X165886928Y-95142238D02*
X165856690Y-95112000D01*
X165796214Y-95081761D01*
X165645023Y-95081761D01*
X165584547Y-95112000D01*
X165554309Y-95142238D01*
X165524071Y-95202714D01*
X165524071Y-95263190D01*
X165554309Y-95353904D01*
X165917166Y-95716761D01*
X165524071Y-95716761D01*
X165097261Y-90241785D02*
X164794880Y-90030119D01*
X165097261Y-89878928D02*
X164462261Y-89878928D01*
X164462261Y-90120833D01*
X164492500Y-90181309D01*
X164522738Y-90211547D01*
X164583214Y-90241785D01*
X164673928Y-90241785D01*
X164734404Y-90211547D01*
X164764642Y-90181309D01*
X164794880Y-90120833D01*
X164794880Y-89878928D01*
X165097261Y-90846547D02*
X165097261Y-90483690D01*
X165097261Y-90665119D02*
X164462261Y-90665119D01*
X164552976Y-90604642D01*
X164613452Y-90544166D01*
X164643690Y-90483690D01*
X164462261Y-91058214D02*
X164462261Y-91451309D01*
X164704166Y-91239642D01*
X164704166Y-91330357D01*
X164734404Y-91390833D01*
X164764642Y-91421071D01*
X164825119Y-91451309D01*
X164976309Y-91451309D01*
X165036785Y-91421071D01*
X165067023Y-91390833D01*
X165097261Y-91330357D01*
X165097261Y-91148928D01*
X165067023Y-91088452D01*
X165036785Y-91058214D01*
X152442333Y-97064285D02*
X152472571Y-97094523D01*
X152563285Y-97124761D01*
X152623761Y-97124761D01*
X152714476Y-97094523D01*
X152774952Y-97034047D01*
X152805190Y-96973571D01*
X152835428Y-96852619D01*
X152835428Y-96761904D01*
X152805190Y-96640952D01*
X152774952Y-96580476D01*
X152714476Y-96520000D01*
X152623761Y-96489761D01*
X152563285Y-96489761D01*
X152472571Y-96520000D01*
X152442333Y-96550238D01*
X152079476Y-96761904D02*
X152139952Y-96731666D01*
X152170190Y-96701428D01*
X152200428Y-96640952D01*
X152200428Y-96610714D01*
X152170190Y-96550238D01*
X152139952Y-96520000D01*
X152079476Y-96489761D01*
X151958523Y-96489761D01*
X151898047Y-96520000D01*
X151867809Y-96550238D01*
X151837571Y-96610714D01*
X151837571Y-96640952D01*
X151867809Y-96701428D01*
X151898047Y-96731666D01*
X151958523Y-96761904D01*
X152079476Y-96761904D01*
X152139952Y-96792142D01*
X152170190Y-96822380D01*
X152200428Y-96882857D01*
X152200428Y-97003809D01*
X152170190Y-97064285D01*
X152139952Y-97094523D01*
X152079476Y-97124761D01*
X151958523Y-97124761D01*
X151898047Y-97094523D01*
X151867809Y-97064285D01*
X151837571Y-97003809D01*
X151837571Y-96882857D01*
X151867809Y-96822380D01*
X151898047Y-96792142D01*
X151958523Y-96761904D01*
X166128833Y-96716761D02*
X166340500Y-96414380D01*
X166491690Y-96716761D02*
X166491690Y-96081761D01*
X166249785Y-96081761D01*
X166189309Y-96112000D01*
X166159071Y-96142238D01*
X166128833Y-96202714D01*
X166128833Y-96293428D01*
X166159071Y-96353904D01*
X166189309Y-96384142D01*
X166249785Y-96414380D01*
X166491690Y-96414380D01*
X165584547Y-96293428D02*
X165584547Y-96716761D01*
X165735738Y-96051523D02*
X165886928Y-96505095D01*
X165493833Y-96505095D01*
X162529761Y-101811666D02*
X162227380Y-101600000D01*
X162529761Y-101448809D02*
X161894761Y-101448809D01*
X161894761Y-101690714D01*
X161925000Y-101751190D01*
X161955238Y-101781428D01*
X162015714Y-101811666D01*
X162106428Y-101811666D01*
X162166904Y-101781428D01*
X162197142Y-101751190D01*
X162227380Y-101690714D01*
X162227380Y-101448809D01*
X162166904Y-102174523D02*
X162136666Y-102114047D01*
X162106428Y-102083809D01*
X162045952Y-102053571D01*
X162015714Y-102053571D01*
X161955238Y-102083809D01*
X161925000Y-102114047D01*
X161894761Y-102174523D01*
X161894761Y-102295476D01*
X161925000Y-102355952D01*
X161955238Y-102386190D01*
X162015714Y-102416428D01*
X162045952Y-102416428D01*
X162106428Y-102386190D01*
X162136666Y-102355952D01*
X162166904Y-102295476D01*
X162166904Y-102174523D01*
X162197142Y-102114047D01*
X162227380Y-102083809D01*
X162287857Y-102053571D01*
X162408809Y-102053571D01*
X162469285Y-102083809D01*
X162499523Y-102114047D01*
X162529761Y-102174523D01*
X162529761Y-102295476D01*
X162499523Y-102355952D01*
X162469285Y-102386190D01*
X162408809Y-102416428D01*
X162287857Y-102416428D01*
X162227380Y-102386190D01*
X162197142Y-102355952D01*
X162166904Y-102295476D01*
X163672761Y-102002166D02*
X163370380Y-101790500D01*
X163672761Y-101639309D02*
X163037761Y-101639309D01*
X163037761Y-101881214D01*
X163068000Y-101941690D01*
X163098238Y-101971928D01*
X163158714Y-102002166D01*
X163249428Y-102002166D01*
X163309904Y-101971928D01*
X163340142Y-101941690D01*
X163370380Y-101881214D01*
X163370380Y-101639309D01*
X163037761Y-102546452D02*
X163037761Y-102425500D01*
X163068000Y-102365023D01*
X163098238Y-102334785D01*
X163188952Y-102274309D01*
X163309904Y-102244071D01*
X163551809Y-102244071D01*
X163612285Y-102274309D01*
X163642523Y-102304547D01*
X163672761Y-102365023D01*
X163672761Y-102485976D01*
X163642523Y-102546452D01*
X163612285Y-102576690D01*
X163551809Y-102606928D01*
X163400619Y-102606928D01*
X163340142Y-102576690D01*
X163309904Y-102546452D01*
X163279666Y-102485976D01*
X163279666Y-102365023D01*
X163309904Y-102304547D01*
X163340142Y-102274309D01*
X163400619Y-102244071D01*
X161196261Y-102002166D02*
X160893880Y-101790500D01*
X161196261Y-101639309D02*
X160561261Y-101639309D01*
X160561261Y-101881214D01*
X160591500Y-101941690D01*
X160621738Y-101971928D01*
X160682214Y-102002166D01*
X160772928Y-102002166D01*
X160833404Y-101971928D01*
X160863642Y-101941690D01*
X160893880Y-101881214D01*
X160893880Y-101639309D01*
X160561261Y-102213833D02*
X160561261Y-102637166D01*
X161196261Y-102365023D01*
X164637261Y-97824666D02*
X164334880Y-97613000D01*
X164637261Y-97461809D02*
X164002261Y-97461809D01*
X164002261Y-97703714D01*
X164032500Y-97764190D01*
X164062738Y-97794428D01*
X164123214Y-97824666D01*
X164213928Y-97824666D01*
X164274404Y-97794428D01*
X164304642Y-97764190D01*
X164334880Y-97703714D01*
X164334880Y-97461809D01*
X164002261Y-98399190D02*
X164002261Y-98096809D01*
X164304642Y-98066571D01*
X164274404Y-98096809D01*
X164244166Y-98157285D01*
X164244166Y-98308476D01*
X164274404Y-98368952D01*
X164304642Y-98399190D01*
X164365119Y-98429428D01*
X164516309Y-98429428D01*
X164576785Y-98399190D01*
X164607023Y-98368952D01*
X164637261Y-98308476D01*
X164637261Y-98157285D01*
X164607023Y-98096809D01*
X164576785Y-98066571D01*
X162714761Y-90241785D02*
X162412380Y-90030119D01*
X162714761Y-89878928D02*
X162079761Y-89878928D01*
X162079761Y-90120833D01*
X162110000Y-90181309D01*
X162140238Y-90211547D01*
X162200714Y-90241785D01*
X162291428Y-90241785D01*
X162351904Y-90211547D01*
X162382142Y-90181309D01*
X162412380Y-90120833D01*
X162412380Y-89878928D01*
X162714761Y-90846547D02*
X162714761Y-90483690D01*
X162714761Y-90665119D02*
X162079761Y-90665119D01*
X162170476Y-90604642D01*
X162230952Y-90544166D01*
X162261190Y-90483690D01*
X162714761Y-91451309D02*
X162714761Y-91088452D01*
X162714761Y-91269880D02*
X162079761Y-91269880D01*
X162170476Y-91209404D01*
X162230952Y-91148928D01*
X162261190Y-91088452D01*
X166390261Y-90241785D02*
X166087880Y-90030119D01*
X166390261Y-89878928D02*
X165755261Y-89878928D01*
X165755261Y-90120833D01*
X165785500Y-90181309D01*
X165815738Y-90211547D01*
X165876214Y-90241785D01*
X165966928Y-90241785D01*
X166027404Y-90211547D01*
X166057642Y-90181309D01*
X166087880Y-90120833D01*
X166087880Y-89878928D01*
X166390261Y-90846547D02*
X166390261Y-90483690D01*
X166390261Y-90665119D02*
X165755261Y-90665119D01*
X165845976Y-90604642D01*
X165906452Y-90544166D01*
X165936690Y-90483690D01*
X165815738Y-91088452D02*
X165785500Y-91118690D01*
X165755261Y-91179166D01*
X165755261Y-91330357D01*
X165785500Y-91390833D01*
X165815738Y-91421071D01*
X165876214Y-91451309D01*
X165936690Y-91451309D01*
X166027404Y-91421071D01*
X166390261Y-91058214D01*
X166390261Y-91451309D01*
X164008214Y-85487261D02*
X164219880Y-85184880D01*
X164371071Y-85487261D02*
X164371071Y-84852261D01*
X164129166Y-84852261D01*
X164068690Y-84882500D01*
X164038452Y-84912738D01*
X164008214Y-84973214D01*
X164008214Y-85063928D01*
X164038452Y-85124404D01*
X164068690Y-85154642D01*
X164129166Y-85184880D01*
X164371071Y-85184880D01*
X163403452Y-85487261D02*
X163766309Y-85487261D01*
X163584880Y-85487261D02*
X163584880Y-84852261D01*
X163645357Y-84942976D01*
X163705833Y-85003452D01*
X163766309Y-85033690D01*
X162859166Y-85063928D02*
X162859166Y-85487261D01*
X163010357Y-84822023D02*
X163161547Y-85275595D01*
X162768452Y-85275595D01*
X158878814Y-86317061D02*
X159090480Y-86014680D01*
X159241671Y-86317061D02*
X159241671Y-85682061D01*
X158999766Y-85682061D01*
X158939290Y-85712300D01*
X158909052Y-85742538D01*
X158878814Y-85803014D01*
X158878814Y-85893728D01*
X158909052Y-85954204D01*
X158939290Y-85984442D01*
X158999766Y-86014680D01*
X159241671Y-86014680D01*
X158274052Y-86317061D02*
X158636909Y-86317061D01*
X158455480Y-86317061D02*
X158455480Y-85682061D01*
X158515957Y-85772776D01*
X158576433Y-85833252D01*
X158636909Y-85863490D01*
X157699528Y-85682061D02*
X158001909Y-85682061D01*
X158032147Y-85984442D01*
X158001909Y-85954204D01*
X157941433Y-85923966D01*
X157790242Y-85923966D01*
X157729766Y-85954204D01*
X157699528Y-85984442D01*
X157669290Y-86044919D01*
X157669290Y-86196109D01*
X157699528Y-86256585D01*
X157729766Y-86286823D01*
X157790242Y-86317061D01*
X157941433Y-86317061D01*
X158001909Y-86286823D01*
X158032147Y-86256585D01*
X159237261Y-100194166D02*
X158934880Y-99982500D01*
X159237261Y-99831309D02*
X158602261Y-99831309D01*
X158602261Y-100073214D01*
X158632500Y-100133690D01*
X158662738Y-100163928D01*
X158723214Y-100194166D01*
X158813928Y-100194166D01*
X158874404Y-100163928D01*
X158904642Y-100133690D01*
X158934880Y-100073214D01*
X158934880Y-99831309D01*
X159237261Y-100798928D02*
X159237261Y-100436071D01*
X159237261Y-100617500D02*
X158602261Y-100617500D01*
X158692976Y-100557023D01*
X158753452Y-100496547D01*
X158783690Y-100436071D01*
X152681214Y-95730785D02*
X152711452Y-95761023D01*
X152802166Y-95791261D01*
X152862642Y-95791261D01*
X152953357Y-95761023D01*
X153013833Y-95700547D01*
X153044071Y-95640071D01*
X153074309Y-95519119D01*
X153074309Y-95428404D01*
X153044071Y-95307452D01*
X153013833Y-95246976D01*
X152953357Y-95186500D01*
X152862642Y-95156261D01*
X152802166Y-95156261D01*
X152711452Y-95186500D01*
X152681214Y-95216738D01*
X152076452Y-95791261D02*
X152439309Y-95791261D01*
X152257880Y-95791261D02*
X152257880Y-95156261D01*
X152318357Y-95246976D01*
X152378833Y-95307452D01*
X152439309Y-95337690D01*
X151471690Y-95791261D02*
X151834547Y-95791261D01*
X151653119Y-95791261D02*
X151653119Y-95156261D01*
X151713595Y-95246976D01*
X151774071Y-95307452D01*
X151834547Y-95337690D01*
X158278285Y-102510166D02*
X158308523Y-102479928D01*
X158338761Y-102389214D01*
X158338761Y-102328738D01*
X158308523Y-102238023D01*
X158248047Y-102177547D01*
X158187571Y-102147309D01*
X158066619Y-102117071D01*
X157975904Y-102117071D01*
X157854952Y-102147309D01*
X157794476Y-102177547D01*
X157734000Y-102238023D01*
X157703761Y-102328738D01*
X157703761Y-102389214D01*
X157734000Y-102479928D01*
X157764238Y-102510166D01*
X157703761Y-102721833D02*
X157703761Y-103145166D01*
X158338761Y-102873023D01*
X163826785Y-90244166D02*
X163857023Y-90213928D01*
X163887261Y-90123214D01*
X163887261Y-90062738D01*
X163857023Y-89972023D01*
X163796547Y-89911547D01*
X163736071Y-89881309D01*
X163615119Y-89851071D01*
X163524404Y-89851071D01*
X163403452Y-89881309D01*
X163342976Y-89911547D01*
X163282500Y-89972023D01*
X163252261Y-90062738D01*
X163252261Y-90123214D01*
X163282500Y-90213928D01*
X163312738Y-90244166D01*
X163463928Y-90788452D02*
X163887261Y-90788452D01*
X163222023Y-90637261D02*
X163675595Y-90486071D01*
X163675595Y-90879166D01*
X151925985Y-91172166D02*
X151956223Y-91141928D01*
X151986461Y-91051214D01*
X151986461Y-90990738D01*
X151956223Y-90900023D01*
X151895747Y-90839547D01*
X151835271Y-90809309D01*
X151714319Y-90779071D01*
X151623604Y-90779071D01*
X151502652Y-90809309D01*
X151442176Y-90839547D01*
X151381700Y-90900023D01*
X151351461Y-90990738D01*
X151351461Y-91051214D01*
X151381700Y-91141928D01*
X151411938Y-91172166D01*
X151411938Y-91414071D02*
X151381700Y-91444309D01*
X151351461Y-91504785D01*
X151351461Y-91655976D01*
X151381700Y-91716452D01*
X151411938Y-91746690D01*
X151472414Y-91776928D01*
X151532890Y-91776928D01*
X151623604Y-91746690D01*
X151986461Y-91383833D01*
X151986461Y-91776928D01*
X158019785Y-92718166D02*
X158050023Y-92687928D01*
X158080261Y-92597214D01*
X158080261Y-92536738D01*
X158050023Y-92446023D01*
X157989547Y-92385547D01*
X157929071Y-92355309D01*
X157808119Y-92325071D01*
X157717404Y-92325071D01*
X157596452Y-92355309D01*
X157535976Y-92385547D01*
X157475500Y-92446023D01*
X157445261Y-92536738D01*
X157445261Y-92597214D01*
X157475500Y-92687928D01*
X157505738Y-92718166D01*
X157445261Y-92929833D02*
X157445261Y-93322928D01*
X157687166Y-93111261D01*
X157687166Y-93201976D01*
X157717404Y-93262452D01*
X157747642Y-93292690D01*
X157808119Y-93322928D01*
X157959309Y-93322928D01*
X158019785Y-93292690D01*
X158050023Y-93262452D01*
X158080261Y-93201976D01*
X158080261Y-93020547D01*
X158050023Y-92960071D01*
X158019785Y-92929833D01*
X160051785Y-104619166D02*
X160082023Y-104588928D01*
X160112261Y-104498214D01*
X160112261Y-104437738D01*
X160082023Y-104347023D01*
X160021547Y-104286547D01*
X159961071Y-104256309D01*
X159840119Y-104226071D01*
X159749404Y-104226071D01*
X159628452Y-104256309D01*
X159567976Y-104286547D01*
X159507500Y-104347023D01*
X159477261Y-104437738D01*
X159477261Y-104498214D01*
X159507500Y-104588928D01*
X159537738Y-104619166D01*
X160112261Y-105223928D02*
X160112261Y-104861071D01*
X160112261Y-105042500D02*
X159477261Y-105042500D01*
X159567976Y-104982023D01*
X159628452Y-104921547D01*
X159658690Y-104861071D01*
X148551757Y-107352432D02*
X148180213Y-107612590D01*
X148123248Y-107689391D01*
X148108397Y-107773618D01*
X148135658Y-107865271D01*
X148170346Y-107914810D01*
X148346123Y-107164194D02*
X148353549Y-107122080D01*
X148343631Y-107055197D01*
X148256911Y-106931349D01*
X148197454Y-106899154D01*
X148155341Y-106891728D01*
X148088457Y-106901646D01*
X148038918Y-106936334D01*
X147981953Y-107013135D01*
X147892844Y-107518497D01*
X147667374Y-107196492D01*
D13*
G36*
X147547136Y-116686359D02*
G01*
X147839294Y-117027211D01*
X147845917Y-117034363D01*
X148150717Y-117339163D01*
X148169963Y-117354957D01*
X148191919Y-117366693D01*
X148215744Y-117373920D01*
X148219586Y-117374298D01*
X147641937Y-117685340D01*
X146918731Y-117781768D01*
X146096661Y-117685054D01*
X145763530Y-117494693D01*
X145740807Y-117484519D01*
X145716536Y-117478974D01*
X145691650Y-117478270D01*
X145667104Y-117482435D01*
X145639706Y-117493467D01*
X145099711Y-117788010D01*
X144526469Y-117883550D01*
X143898417Y-117835238D01*
X143225976Y-117595081D01*
X143144218Y-117523543D01*
X143175061Y-117510662D01*
X143429061Y-117358262D01*
X143449051Y-117343422D01*
X143469390Y-117319807D01*
X143759020Y-116885362D01*
X144122566Y-116658146D01*
X144588494Y-116564961D01*
X144993220Y-116609930D01*
X145306959Y-116834030D01*
X145607510Y-117218624D01*
X145624689Y-117236644D01*
X145645053Y-117250966D01*
X145667820Y-117261039D01*
X145692115Y-117266478D01*
X145717005Y-117267073D01*
X145741532Y-117262800D01*
X145764754Y-117253825D01*
X145785779Y-117240491D01*
X145803799Y-117223312D01*
X145818121Y-117202948D01*
X145829170Y-117177088D01*
X145864983Y-117058320D01*
X146181000Y-116697158D01*
X146693634Y-116510746D01*
X147193453Y-116465308D01*
X147547136Y-116686359D01*
G37*
X147547136Y-116686359D02*
X147839294Y-117027211D01*
X147845917Y-117034363D01*
X148150717Y-117339163D01*
X148169963Y-117354957D01*
X148191919Y-117366693D01*
X148215744Y-117373920D01*
X148219586Y-117374298D01*
X147641937Y-117685340D01*
X146918731Y-117781768D01*
X146096661Y-117685054D01*
X145763530Y-117494693D01*
X145740807Y-117484519D01*
X145716536Y-117478974D01*
X145691650Y-117478270D01*
X145667104Y-117482435D01*
X145639706Y-117493467D01*
X145099711Y-117788010D01*
X144526469Y-117883550D01*
X143898417Y-117835238D01*
X143225976Y-117595081D01*
X143144218Y-117523543D01*
X143175061Y-117510662D01*
X143429061Y-117358262D01*
X143449051Y-117343422D01*
X143469390Y-117319807D01*
X143759020Y-116885362D01*
X144122566Y-116658146D01*
X144588494Y-116564961D01*
X144993220Y-116609930D01*
X145306959Y-116834030D01*
X145607510Y-117218624D01*
X145624689Y-117236644D01*
X145645053Y-117250966D01*
X145667820Y-117261039D01*
X145692115Y-117266478D01*
X145717005Y-117267073D01*
X145741532Y-117262800D01*
X145764754Y-117253825D01*
X145785779Y-117240491D01*
X145803799Y-117223312D01*
X145818121Y-117202948D01*
X145829170Y-117177088D01*
X145864983Y-117058320D01*
X146181000Y-116697158D01*
X146693634Y-116510746D01*
X147193453Y-116465308D01*
X147547136Y-116686359D01*
M02*
