%TF.GenerationSoftware,KiCad,Pcbnew,(5.1.5)-3*%
%TF.CreationDate,2020-08-30T11:50:14-07:00*%
%TF.ProjectId,ypanel,7970616e-656c-42e6-9b69-6361645f7063,rev?*%
%TF.SameCoordinates,Original*%
%TF.FileFunction,Soldermask,Top*%
%TF.FilePolarity,Negative*%
%FSLAX46Y46*%
G04 Gerber Fmt 4.6, Leading zero omitted, Abs format (unit mm)*
G04 Created by KiCad (PCBNEW (5.1.5)-3) date 2020-08-30 11:50:14*
%MOMM*%
%LPD*%
G04 APERTURE LIST*
%ADD10C,0.100000*%
%ADD11C,0.050000*%
G04 APERTURE END LIST*
D10*
X151587000Y-99000001D02*
G75*
G03X151587000Y-99000001I-8000000J0D01*
G01*
X134779564Y-114100000D02*
G75*
G03X134779564Y-114100000I-1029564J0D01*
G01*
X141279564Y-114100000D02*
G75*
G03X141279564Y-114100000I-1029564J0D01*
G01*
X126375000Y-118900000D02*
G75*
G03X126375000Y-118900000I-1300000J0D01*
G01*
X140979564Y-83920436D02*
G75*
G03X140979564Y-83920436I-1029564J0D01*
G01*
X147479564Y-83920436D02*
G75*
G03X147479564Y-83920436I-1029564J0D01*
G01*
X176975000Y-70000000D02*
X176975000Y-128000000D01*
X166200000Y-118900000D02*
G75*
G03X166200000Y-118900000I-1300000J0D01*
G01*
D11*
X126372800Y-79100000D02*
G75*
G03X126372800Y-79100000I-1300000J0D01*
G01*
D10*
X166195000Y-79102480D02*
G75*
G03X166195000Y-79102480I-1300000J0D01*
G01*
X176975000Y-70000000D02*
X113000000Y-70000000D01*
X113000000Y-128000000D02*
X176975000Y-128000000D01*
X113000000Y-70000000D02*
X113000000Y-128000000D01*
G36*
X175491100Y-124112000D02*
G01*
X167993100Y-124112000D01*
X167993100Y-122014000D01*
X175491100Y-122014000D01*
X175491100Y-124112000D01*
G37*
G36*
X122749000Y-124049000D02*
G01*
X115251000Y-124049000D01*
X115251000Y-121951000D01*
X122749000Y-121951000D01*
X122749000Y-124049000D01*
G37*
G36*
X174744767Y-119393822D02*
G01*
X174881258Y-119450359D01*
X175004097Y-119532437D01*
X175108563Y-119636903D01*
X175190641Y-119759742D01*
X175247178Y-119896233D01*
X175276000Y-120041131D01*
X175276000Y-120188869D01*
X175247178Y-120333767D01*
X175190641Y-120470258D01*
X175108563Y-120593097D01*
X175004097Y-120697563D01*
X174881258Y-120779641D01*
X174744767Y-120836178D01*
X174599869Y-120865000D01*
X174452131Y-120865000D01*
X174307233Y-120836178D01*
X174170742Y-120779641D01*
X174047903Y-120697563D01*
X173943437Y-120593097D01*
X173861359Y-120470258D01*
X173804822Y-120333767D01*
X173776000Y-120188869D01*
X173776000Y-120041131D01*
X173804822Y-119896233D01*
X173861359Y-119759742D01*
X173943437Y-119636903D01*
X174047903Y-119532437D01*
X174170742Y-119450359D01*
X174307233Y-119393822D01*
X174452131Y-119365000D01*
X174599869Y-119365000D01*
X174744767Y-119393822D01*
G37*
G36*
X128903600Y-112447700D02*
G01*
X127805600Y-112447700D01*
X127805600Y-111649700D01*
X128903600Y-111649700D01*
X128903600Y-112447700D01*
G37*
G36*
X126003600Y-112447700D02*
G01*
X124905600Y-112447700D01*
X124905600Y-111649700D01*
X126003600Y-111649700D01*
X126003600Y-112447700D01*
G37*
G36*
X123916533Y-111710264D02*
G01*
X123944110Y-111718630D01*
X123969523Y-111732214D01*
X123991802Y-111750498D01*
X124010086Y-111772777D01*
X124023670Y-111798190D01*
X124032036Y-111825767D01*
X124035100Y-111856884D01*
X124035100Y-112245516D01*
X124032036Y-112276633D01*
X124023670Y-112304210D01*
X124010086Y-112329623D01*
X123991802Y-112351902D01*
X123969523Y-112370186D01*
X123944110Y-112383770D01*
X123916533Y-112392136D01*
X123885416Y-112395200D01*
X123446784Y-112395200D01*
X123415667Y-112392136D01*
X123388090Y-112383770D01*
X123362677Y-112370186D01*
X123340398Y-112351902D01*
X123322114Y-112329623D01*
X123308530Y-112304210D01*
X123300164Y-112276633D01*
X123297100Y-112245516D01*
X123297100Y-111856884D01*
X123300164Y-111825767D01*
X123308530Y-111798190D01*
X123322114Y-111772777D01*
X123340398Y-111750498D01*
X123362677Y-111732214D01*
X123388090Y-111718630D01*
X123415667Y-111710264D01*
X123446784Y-111707200D01*
X123885416Y-111707200D01*
X123916533Y-111710264D01*
G37*
G36*
X128903600Y-111497700D02*
G01*
X127805600Y-111497700D01*
X127805600Y-110699700D01*
X128903600Y-110699700D01*
X128903600Y-111497700D01*
G37*
G36*
X126003600Y-111497700D02*
G01*
X124905600Y-111497700D01*
X124905600Y-110699700D01*
X126003600Y-110699700D01*
X126003600Y-111497700D01*
G37*
G36*
X123916533Y-110734764D02*
G01*
X123944110Y-110743130D01*
X123969523Y-110756714D01*
X123991802Y-110774998D01*
X124010086Y-110797277D01*
X124023670Y-110822690D01*
X124032036Y-110850267D01*
X124035100Y-110881384D01*
X124035100Y-111275516D01*
X124032036Y-111306633D01*
X124023670Y-111334210D01*
X124010086Y-111359623D01*
X123991802Y-111381902D01*
X123969523Y-111400186D01*
X123944110Y-111413770D01*
X123916533Y-111422136D01*
X123885416Y-111425200D01*
X123446784Y-111425200D01*
X123415667Y-111422136D01*
X123388090Y-111413770D01*
X123362677Y-111400186D01*
X123340398Y-111381902D01*
X123322114Y-111359623D01*
X123308530Y-111334210D01*
X123300164Y-111306633D01*
X123297100Y-111275516D01*
X123297100Y-110881384D01*
X123300164Y-110850267D01*
X123308530Y-110822690D01*
X123322114Y-110797277D01*
X123340398Y-110774998D01*
X123362677Y-110756714D01*
X123388090Y-110743130D01*
X123415667Y-110734764D01*
X123446784Y-110731700D01*
X123885416Y-110731700D01*
X123916533Y-110734764D01*
G37*
G36*
X142192635Y-109095516D02*
G01*
X142316562Y-109120166D01*
X142433872Y-109168758D01*
X142464153Y-109181301D01*
X142484388Y-109194822D01*
X142596983Y-109270055D01*
X142709945Y-109383017D01*
X142798700Y-109515849D01*
X142859834Y-109663438D01*
X142891000Y-109820124D01*
X142891000Y-109979876D01*
X142859834Y-110136562D01*
X142801372Y-110277700D01*
X142798699Y-110284153D01*
X142780589Y-110311256D01*
X142709945Y-110416983D01*
X142596983Y-110529945D01*
X142508629Y-110588981D01*
X142464153Y-110618699D01*
X142464152Y-110618700D01*
X142464151Y-110618700D01*
X142316562Y-110679834D01*
X142216686Y-110699700D01*
X142159877Y-110711000D01*
X142000123Y-110711000D01*
X141943314Y-110699700D01*
X141843438Y-110679834D01*
X141695849Y-110618700D01*
X141695848Y-110618700D01*
X141695847Y-110618699D01*
X141651371Y-110588981D01*
X141563017Y-110529945D01*
X141450055Y-110416983D01*
X141379411Y-110311256D01*
X141361301Y-110284153D01*
X141358628Y-110277700D01*
X141300166Y-110136562D01*
X141269000Y-109979876D01*
X141269000Y-109820124D01*
X141300166Y-109663438D01*
X141361300Y-109515849D01*
X141450055Y-109383017D01*
X141563017Y-109270055D01*
X141675612Y-109194822D01*
X141695847Y-109181301D01*
X141726128Y-109168758D01*
X141843438Y-109120166D01*
X141967365Y-109095516D01*
X142000123Y-109089000D01*
X142159877Y-109089000D01*
X142192635Y-109095516D01*
G37*
G36*
X132032635Y-109095516D02*
G01*
X132156562Y-109120166D01*
X132273872Y-109168758D01*
X132304153Y-109181301D01*
X132324388Y-109194822D01*
X132436983Y-109270055D01*
X132549945Y-109383017D01*
X132638700Y-109515849D01*
X132699834Y-109663438D01*
X132731000Y-109820124D01*
X132731000Y-109979876D01*
X132699834Y-110136562D01*
X132641372Y-110277700D01*
X132638699Y-110284153D01*
X132620589Y-110311256D01*
X132549945Y-110416983D01*
X132436983Y-110529945D01*
X132348629Y-110588981D01*
X132304153Y-110618699D01*
X132304152Y-110618700D01*
X132304151Y-110618700D01*
X132156562Y-110679834D01*
X132056686Y-110699700D01*
X131999877Y-110711000D01*
X131840123Y-110711000D01*
X131783314Y-110699700D01*
X131683438Y-110679834D01*
X131535849Y-110618700D01*
X131535848Y-110618700D01*
X131535847Y-110618699D01*
X131491371Y-110588981D01*
X131403017Y-110529945D01*
X131290055Y-110416983D01*
X131219411Y-110311256D01*
X131201301Y-110284153D01*
X131198628Y-110277700D01*
X131140166Y-110136562D01*
X131109000Y-109979876D01*
X131109000Y-109820124D01*
X131140166Y-109663438D01*
X131201300Y-109515849D01*
X131290055Y-109383017D01*
X131403017Y-109270055D01*
X131515612Y-109194822D01*
X131535847Y-109181301D01*
X131566128Y-109168758D01*
X131683438Y-109120166D01*
X131807365Y-109095516D01*
X131840123Y-109089000D01*
X131999877Y-109089000D01*
X132032635Y-109095516D01*
G37*
G36*
X137112635Y-109095516D02*
G01*
X137236562Y-109120166D01*
X137353872Y-109168758D01*
X137384153Y-109181301D01*
X137404388Y-109194822D01*
X137516983Y-109270055D01*
X137629945Y-109383017D01*
X137718700Y-109515849D01*
X137779834Y-109663438D01*
X137811000Y-109820124D01*
X137811000Y-109979876D01*
X137779834Y-110136562D01*
X137721372Y-110277700D01*
X137718699Y-110284153D01*
X137700589Y-110311256D01*
X137629945Y-110416983D01*
X137516983Y-110529945D01*
X137428629Y-110588981D01*
X137384153Y-110618699D01*
X137384152Y-110618700D01*
X137384151Y-110618700D01*
X137236562Y-110679834D01*
X137136686Y-110699700D01*
X137079877Y-110711000D01*
X136920123Y-110711000D01*
X136863314Y-110699700D01*
X136763438Y-110679834D01*
X136615849Y-110618700D01*
X136615848Y-110618700D01*
X136615847Y-110618699D01*
X136571371Y-110588981D01*
X136483017Y-110529945D01*
X136370055Y-110416983D01*
X136299411Y-110311256D01*
X136281301Y-110284153D01*
X136278628Y-110277700D01*
X136220166Y-110136562D01*
X136189000Y-109979876D01*
X136189000Y-109820124D01*
X136220166Y-109663438D01*
X136281300Y-109515849D01*
X136370055Y-109383017D01*
X136483017Y-109270055D01*
X136595612Y-109194822D01*
X136615847Y-109181301D01*
X136646128Y-109168758D01*
X136763438Y-109120166D01*
X136887365Y-109095516D01*
X136920123Y-109089000D01*
X137079877Y-109089000D01*
X137112635Y-109095516D01*
G37*
G36*
X128903600Y-110547700D02*
G01*
X127805600Y-110547700D01*
X127805600Y-109749700D01*
X128903600Y-109749700D01*
X128903600Y-110547700D01*
G37*
G36*
X126003600Y-110547700D02*
G01*
X124905600Y-110547700D01*
X124905600Y-109749700D01*
X126003600Y-109749700D01*
X126003600Y-110547700D01*
G37*
G36*
X123916533Y-109764764D02*
G01*
X123944110Y-109773130D01*
X123969523Y-109786714D01*
X123991802Y-109804998D01*
X124010086Y-109827277D01*
X124023670Y-109852690D01*
X124032036Y-109880267D01*
X124035100Y-109911384D01*
X124035100Y-110300016D01*
X124032036Y-110331133D01*
X124023670Y-110358710D01*
X124010086Y-110384123D01*
X123991802Y-110406402D01*
X123969523Y-110424686D01*
X123944110Y-110438270D01*
X123916533Y-110446636D01*
X123885416Y-110449700D01*
X123446784Y-110449700D01*
X123415667Y-110446636D01*
X123388090Y-110438270D01*
X123362677Y-110424686D01*
X123340398Y-110406402D01*
X123322114Y-110384123D01*
X123308530Y-110358710D01*
X123300164Y-110331133D01*
X123297100Y-110300016D01*
X123297100Y-109911384D01*
X123300164Y-109880267D01*
X123308530Y-109852690D01*
X123322114Y-109827277D01*
X123340398Y-109804998D01*
X123362677Y-109786714D01*
X123388090Y-109773130D01*
X123415667Y-109764764D01*
X123446784Y-109761700D01*
X123885416Y-109761700D01*
X123916533Y-109764764D01*
G37*
G36*
X127742033Y-108510264D02*
G01*
X127769610Y-108518630D01*
X127795023Y-108532214D01*
X127817302Y-108550498D01*
X127835586Y-108572777D01*
X127849170Y-108598190D01*
X127857536Y-108625767D01*
X127860600Y-108656884D01*
X127860600Y-109095516D01*
X127857536Y-109126633D01*
X127849170Y-109154210D01*
X127835586Y-109179623D01*
X127817302Y-109201902D01*
X127795023Y-109220186D01*
X127769610Y-109233770D01*
X127742033Y-109242136D01*
X127710916Y-109245200D01*
X127322284Y-109245200D01*
X127291167Y-109242136D01*
X127263590Y-109233770D01*
X127238177Y-109220186D01*
X127215898Y-109201902D01*
X127197614Y-109179623D01*
X127184030Y-109154210D01*
X127175664Y-109126633D01*
X127172600Y-109095516D01*
X127172600Y-108656884D01*
X127175664Y-108625767D01*
X127184030Y-108598190D01*
X127197614Y-108572777D01*
X127215898Y-108550498D01*
X127238177Y-108532214D01*
X127263590Y-108518630D01*
X127291167Y-108510264D01*
X127322284Y-108507200D01*
X127710916Y-108507200D01*
X127742033Y-108510264D01*
G37*
G36*
X126772033Y-108510264D02*
G01*
X126799610Y-108518630D01*
X126825023Y-108532214D01*
X126847302Y-108550498D01*
X126865586Y-108572777D01*
X126879170Y-108598190D01*
X126887536Y-108625767D01*
X126890600Y-108656884D01*
X126890600Y-109095516D01*
X126887536Y-109126633D01*
X126879170Y-109154210D01*
X126865586Y-109179623D01*
X126847302Y-109201902D01*
X126825023Y-109220186D01*
X126799610Y-109233770D01*
X126772033Y-109242136D01*
X126740916Y-109245200D01*
X126352284Y-109245200D01*
X126321167Y-109242136D01*
X126293590Y-109233770D01*
X126268177Y-109220186D01*
X126245898Y-109201902D01*
X126227614Y-109179623D01*
X126214030Y-109154210D01*
X126205664Y-109126633D01*
X126202600Y-109095516D01*
X126202600Y-108656884D01*
X126205664Y-108625767D01*
X126214030Y-108598190D01*
X126227614Y-108572777D01*
X126245898Y-108550498D01*
X126268177Y-108532214D01*
X126293590Y-108518630D01*
X126321167Y-108510264D01*
X126352284Y-108507200D01*
X126740916Y-108507200D01*
X126772033Y-108510264D01*
G37*
G36*
X130800433Y-108348064D02*
G01*
X130828010Y-108356430D01*
X130853423Y-108370014D01*
X130875702Y-108388298D01*
X130893986Y-108410577D01*
X130907570Y-108435990D01*
X130915936Y-108463567D01*
X130919000Y-108494684D01*
X130919000Y-108883316D01*
X130915936Y-108914433D01*
X130907570Y-108942010D01*
X130893986Y-108967423D01*
X130875702Y-108989702D01*
X130853423Y-109007986D01*
X130828010Y-109021570D01*
X130800433Y-109029936D01*
X130769316Y-109033000D01*
X130330684Y-109033000D01*
X130299567Y-109029936D01*
X130271990Y-109021570D01*
X130246577Y-109007986D01*
X130224298Y-108989702D01*
X130206014Y-108967423D01*
X130192430Y-108942010D01*
X130184064Y-108914433D01*
X130181000Y-108883316D01*
X130181000Y-108494684D01*
X130184064Y-108463567D01*
X130192430Y-108435990D01*
X130206014Y-108410577D01*
X130224298Y-108388298D01*
X130246577Y-108370014D01*
X130271990Y-108356430D01*
X130299567Y-108348064D01*
X130330684Y-108345000D01*
X130769316Y-108345000D01*
X130800433Y-108348064D01*
G37*
G36*
X130800433Y-107378064D02*
G01*
X130828010Y-107386430D01*
X130853423Y-107400014D01*
X130875702Y-107418298D01*
X130893986Y-107440577D01*
X130907570Y-107465990D01*
X130915936Y-107493567D01*
X130919000Y-107524684D01*
X130919000Y-107913316D01*
X130915936Y-107944433D01*
X130907570Y-107972010D01*
X130893986Y-107997423D01*
X130875702Y-108019702D01*
X130853423Y-108037986D01*
X130828010Y-108051570D01*
X130800433Y-108059936D01*
X130769316Y-108063000D01*
X130330684Y-108063000D01*
X130299567Y-108059936D01*
X130271990Y-108051570D01*
X130246577Y-108037986D01*
X130224298Y-108019702D01*
X130206014Y-107997423D01*
X130192430Y-107972010D01*
X130184064Y-107944433D01*
X130181000Y-107913316D01*
X130181000Y-107524684D01*
X130184064Y-107493567D01*
X130192430Y-107465990D01*
X130206014Y-107440577D01*
X130224298Y-107418298D01*
X130246577Y-107400014D01*
X130271990Y-107386430D01*
X130299567Y-107378064D01*
X130330684Y-107375000D01*
X130769316Y-107375000D01*
X130800433Y-107378064D01*
G37*
G36*
X166847480Y-105299000D02*
G01*
X159349480Y-105299000D01*
X159349480Y-103201000D01*
X166847480Y-103201000D01*
X166847480Y-105299000D01*
G37*
G36*
X134599000Y-103699000D02*
G01*
X127101000Y-103699000D01*
X127101000Y-101601000D01*
X134599000Y-101601000D01*
X134599000Y-103699000D01*
G37*
G36*
X175491100Y-103112000D02*
G01*
X167993100Y-103112000D01*
X167993100Y-101014000D01*
X175491100Y-101014000D01*
X175491100Y-103112000D01*
G37*
G36*
X122749000Y-103049000D02*
G01*
X115251000Y-103049000D01*
X115251000Y-100951000D01*
X122749000Y-100951000D01*
X122749000Y-103049000D01*
G37*
G36*
X125844300Y-102626160D02*
G01*
X123685300Y-102626160D01*
X123685300Y-100467160D01*
X125844300Y-100467160D01*
X125844300Y-102626160D01*
G37*
G36*
X165117088Y-99024275D02*
G01*
X165196640Y-99040098D01*
X165296548Y-99081482D01*
X165386468Y-99141564D01*
X165462936Y-99218032D01*
X165523018Y-99307952D01*
X165564402Y-99407860D01*
X165585500Y-99513929D01*
X165585500Y-99622071D01*
X165564402Y-99728140D01*
X165523018Y-99828048D01*
X165462936Y-99917968D01*
X165386468Y-99994436D01*
X165296548Y-100054518D01*
X165196640Y-100095902D01*
X165117088Y-100111726D01*
X165090572Y-100117000D01*
X164982428Y-100117000D01*
X164955912Y-100111726D01*
X164876360Y-100095902D01*
X164776452Y-100054518D01*
X164686532Y-99994436D01*
X164610064Y-99917968D01*
X164549982Y-99828048D01*
X164508598Y-99728140D01*
X164487500Y-99622071D01*
X164487500Y-99513929D01*
X164508598Y-99407860D01*
X164549982Y-99307952D01*
X164610064Y-99218032D01*
X164686532Y-99141564D01*
X164776452Y-99081482D01*
X164876360Y-99040098D01*
X164955912Y-99024275D01*
X164982428Y-99019000D01*
X165090572Y-99019000D01*
X165117088Y-99024275D01*
G37*
G36*
X121344000Y-99999500D02*
G01*
X119846000Y-99999500D01*
X119846000Y-98501500D01*
X121344000Y-98501500D01*
X121344000Y-99999500D01*
G37*
G36*
X118944000Y-99999500D02*
G01*
X116146000Y-99999500D01*
X116146000Y-98501500D01*
X118944000Y-98501500D01*
X118944000Y-99999500D01*
G37*
G36*
X176462000Y-99872500D02*
G01*
X174964000Y-99872500D01*
X174964000Y-98374500D01*
X176462000Y-98374500D01*
X176462000Y-99872500D01*
G37*
G36*
X174062000Y-99872500D02*
G01*
X171264000Y-99872500D01*
X171264000Y-98374500D01*
X174062000Y-98374500D01*
X174062000Y-99872500D01*
G37*
G36*
X125075451Y-96666987D02*
G01*
X125269265Y-96747268D01*
X125269267Y-96747269D01*
X125327673Y-96786295D01*
X125443699Y-96863821D01*
X125592039Y-97012161D01*
X125708592Y-97186595D01*
X125788873Y-97380409D01*
X125829800Y-97586167D01*
X125829800Y-97795953D01*
X125788873Y-98001711D01*
X125708592Y-98195525D01*
X125592039Y-98369959D01*
X125443699Y-98518299D01*
X125327673Y-98595825D01*
X125269267Y-98634851D01*
X125269266Y-98634852D01*
X125269265Y-98634852D01*
X125075451Y-98715133D01*
X124869693Y-98756060D01*
X124659907Y-98756060D01*
X124454149Y-98715133D01*
X124260335Y-98634852D01*
X124260334Y-98634852D01*
X124260333Y-98634851D01*
X124201927Y-98595825D01*
X124085901Y-98518299D01*
X123937561Y-98369959D01*
X123821008Y-98195525D01*
X123740727Y-98001711D01*
X123699800Y-97795953D01*
X123699800Y-97586167D01*
X123740727Y-97380409D01*
X123821008Y-97186595D01*
X123937561Y-97012161D01*
X124085901Y-96863821D01*
X124201927Y-96786295D01*
X124260333Y-96747269D01*
X124260335Y-96747268D01*
X124454149Y-96666987D01*
X124659907Y-96626060D01*
X124869693Y-96626060D01*
X125075451Y-96666987D01*
G37*
G36*
X122749000Y-97049000D02*
G01*
X115251000Y-97049000D01*
X115251000Y-94951000D01*
X122749000Y-94951000D01*
X122749000Y-97049000D01*
G37*
G36*
X175435220Y-96939080D02*
G01*
X167937220Y-96939080D01*
X167937220Y-94841080D01*
X175435220Y-94841080D01*
X175435220Y-96939080D01*
G37*
G36*
X161348308Y-89229735D02*
G01*
X161427860Y-89245558D01*
X161527768Y-89286942D01*
X161617688Y-89347024D01*
X161694156Y-89423492D01*
X161754238Y-89513412D01*
X161795622Y-89613320D01*
X161816720Y-89719389D01*
X161816720Y-89827531D01*
X161795622Y-89933600D01*
X161754238Y-90033508D01*
X161694156Y-90123428D01*
X161617688Y-90199896D01*
X161527768Y-90259978D01*
X161427860Y-90301362D01*
X161348308Y-90317186D01*
X161321792Y-90322460D01*
X161213648Y-90322460D01*
X161187132Y-90317186D01*
X161107580Y-90301362D01*
X161007672Y-90259978D01*
X160917752Y-90199896D01*
X160841284Y-90123428D01*
X160781202Y-90033508D01*
X160739818Y-89933600D01*
X160718720Y-89827531D01*
X160718720Y-89719389D01*
X160739818Y-89613320D01*
X160781202Y-89513412D01*
X160841284Y-89423492D01*
X160917752Y-89347024D01*
X161007672Y-89286942D01*
X161107580Y-89245558D01*
X161187132Y-89229735D01*
X161213648Y-89224460D01*
X161321792Y-89224460D01*
X161348308Y-89229735D01*
G37*
G36*
X143332105Y-87299389D02*
G01*
X143436562Y-87320166D01*
X143584151Y-87381300D01*
X143584153Y-87381301D01*
X143628629Y-87411019D01*
X143716983Y-87470055D01*
X143829945Y-87583017D01*
X143918700Y-87715849D01*
X143979834Y-87863438D01*
X144011000Y-88020124D01*
X144011000Y-88179876D01*
X143979834Y-88336562D01*
X143918700Y-88484151D01*
X143918699Y-88484153D01*
X143916150Y-88487968D01*
X143829945Y-88616983D01*
X143716983Y-88729945D01*
X143628629Y-88788981D01*
X143584153Y-88818699D01*
X143584152Y-88818700D01*
X143584151Y-88818700D01*
X143436562Y-88879834D01*
X143332105Y-88900611D01*
X143279877Y-88911000D01*
X143120123Y-88911000D01*
X143067895Y-88900611D01*
X142963438Y-88879834D01*
X142815849Y-88818700D01*
X142815848Y-88818700D01*
X142815847Y-88818699D01*
X142771371Y-88788981D01*
X142683017Y-88729945D01*
X142570055Y-88616983D01*
X142483850Y-88487968D01*
X142481301Y-88484153D01*
X142481300Y-88484151D01*
X142420166Y-88336562D01*
X142389000Y-88179876D01*
X142389000Y-88020124D01*
X142420166Y-87863438D01*
X142481300Y-87715849D01*
X142570055Y-87583017D01*
X142683017Y-87470055D01*
X142771371Y-87411019D01*
X142815847Y-87381301D01*
X142815849Y-87381300D01*
X142963438Y-87320166D01*
X143067895Y-87299389D01*
X143120123Y-87289000D01*
X143279877Y-87289000D01*
X143332105Y-87299389D01*
G37*
G36*
X138232105Y-87299389D02*
G01*
X138336562Y-87320166D01*
X138484151Y-87381300D01*
X138484153Y-87381301D01*
X138528629Y-87411019D01*
X138616983Y-87470055D01*
X138729945Y-87583017D01*
X138818700Y-87715849D01*
X138879834Y-87863438D01*
X138911000Y-88020124D01*
X138911000Y-88179876D01*
X138879834Y-88336562D01*
X138818700Y-88484151D01*
X138818699Y-88484153D01*
X138816150Y-88487968D01*
X138729945Y-88616983D01*
X138616983Y-88729945D01*
X138528629Y-88788981D01*
X138484153Y-88818699D01*
X138484152Y-88818700D01*
X138484151Y-88818700D01*
X138336562Y-88879834D01*
X138232105Y-88900611D01*
X138179877Y-88911000D01*
X138020123Y-88911000D01*
X137967895Y-88900611D01*
X137863438Y-88879834D01*
X137715849Y-88818700D01*
X137715848Y-88818700D01*
X137715847Y-88818699D01*
X137671371Y-88788981D01*
X137583017Y-88729945D01*
X137470055Y-88616983D01*
X137383850Y-88487968D01*
X137381301Y-88484153D01*
X137381300Y-88484151D01*
X137320166Y-88336562D01*
X137289000Y-88179876D01*
X137289000Y-88020124D01*
X137320166Y-87863438D01*
X137381300Y-87715849D01*
X137470055Y-87583017D01*
X137583017Y-87470055D01*
X137671371Y-87411019D01*
X137715847Y-87381301D01*
X137715849Y-87381300D01*
X137863438Y-87320166D01*
X137967895Y-87299389D01*
X138020123Y-87289000D01*
X138179877Y-87289000D01*
X138232105Y-87299389D01*
G37*
G36*
X148432105Y-87299389D02*
G01*
X148536562Y-87320166D01*
X148684151Y-87381300D01*
X148684153Y-87381301D01*
X148728629Y-87411019D01*
X148816983Y-87470055D01*
X148929945Y-87583017D01*
X149018700Y-87715849D01*
X149079834Y-87863438D01*
X149111000Y-88020124D01*
X149111000Y-88179876D01*
X149079834Y-88336562D01*
X149018700Y-88484151D01*
X149018699Y-88484153D01*
X149016150Y-88487968D01*
X148929945Y-88616983D01*
X148816983Y-88729945D01*
X148728629Y-88788981D01*
X148684153Y-88818699D01*
X148684152Y-88818700D01*
X148684151Y-88818700D01*
X148536562Y-88879834D01*
X148432105Y-88900611D01*
X148379877Y-88911000D01*
X148220123Y-88911000D01*
X148167895Y-88900611D01*
X148063438Y-88879834D01*
X147915849Y-88818700D01*
X147915848Y-88818700D01*
X147915847Y-88818699D01*
X147871371Y-88788981D01*
X147783017Y-88729945D01*
X147670055Y-88616983D01*
X147583850Y-88487968D01*
X147581301Y-88484153D01*
X147581300Y-88484151D01*
X147520166Y-88336562D01*
X147489000Y-88179876D01*
X147489000Y-88020124D01*
X147520166Y-87863438D01*
X147581300Y-87715849D01*
X147670055Y-87583017D01*
X147783017Y-87470055D01*
X147871371Y-87411019D01*
X147915847Y-87381301D01*
X147915849Y-87381300D01*
X148063438Y-87320166D01*
X148167895Y-87299389D01*
X148220123Y-87289000D01*
X148379877Y-87289000D01*
X148432105Y-87299389D01*
G37*
G36*
X130954088Y-87594275D02*
G01*
X131033640Y-87610098D01*
X131133548Y-87651482D01*
X131223468Y-87711564D01*
X131299936Y-87788032D01*
X131360018Y-87877952D01*
X131401402Y-87977860D01*
X131422500Y-88083929D01*
X131422500Y-88192071D01*
X131401402Y-88298140D01*
X131360018Y-88398048D01*
X131299936Y-88487968D01*
X131223468Y-88564436D01*
X131133548Y-88624518D01*
X131033640Y-88665902D01*
X130954088Y-88681725D01*
X130927572Y-88687000D01*
X130819428Y-88687000D01*
X130792912Y-88681725D01*
X130713360Y-88665902D01*
X130613452Y-88624518D01*
X130523532Y-88564436D01*
X130447064Y-88487968D01*
X130386982Y-88398048D01*
X130345598Y-88298140D01*
X130324500Y-88192071D01*
X130324500Y-88083929D01*
X130345598Y-87977860D01*
X130386982Y-87877952D01*
X130447064Y-87788032D01*
X130523532Y-87711564D01*
X130613452Y-87651482D01*
X130713360Y-87610098D01*
X130792912Y-87594275D01*
X130819428Y-87589000D01*
X130927572Y-87589000D01*
X130954088Y-87594275D01*
G37*
G36*
X154557433Y-85664664D02*
G01*
X154585010Y-85673030D01*
X154610423Y-85686614D01*
X154632702Y-85704898D01*
X154650986Y-85727177D01*
X154664570Y-85752590D01*
X154672936Y-85780167D01*
X154676000Y-85811284D01*
X154676000Y-86249916D01*
X154672936Y-86281033D01*
X154664570Y-86308610D01*
X154650986Y-86334023D01*
X154632702Y-86356302D01*
X154610423Y-86374586D01*
X154585010Y-86388170D01*
X154557433Y-86396536D01*
X154526316Y-86399600D01*
X154137684Y-86399600D01*
X154106567Y-86396536D01*
X154078990Y-86388170D01*
X154053577Y-86374586D01*
X154031298Y-86356302D01*
X154013014Y-86334023D01*
X153999430Y-86308610D01*
X153991064Y-86281033D01*
X153988000Y-86249916D01*
X153988000Y-85811284D01*
X153991064Y-85780167D01*
X153999430Y-85752590D01*
X154013014Y-85727177D01*
X154031298Y-85704898D01*
X154053577Y-85686614D01*
X154078990Y-85673030D01*
X154106567Y-85664664D01*
X154137684Y-85661600D01*
X154526316Y-85661600D01*
X154557433Y-85664664D01*
G37*
G36*
X152617153Y-85664664D02*
G01*
X152644730Y-85673030D01*
X152670143Y-85686614D01*
X152692422Y-85704898D01*
X152710706Y-85727177D01*
X152724290Y-85752590D01*
X152732656Y-85780167D01*
X152735720Y-85811284D01*
X152735720Y-86249916D01*
X152732656Y-86281033D01*
X152724290Y-86308610D01*
X152710706Y-86334023D01*
X152692422Y-86356302D01*
X152670143Y-86374586D01*
X152644730Y-86388170D01*
X152617153Y-86396536D01*
X152586036Y-86399600D01*
X152197404Y-86399600D01*
X152166287Y-86396536D01*
X152138710Y-86388170D01*
X152113297Y-86374586D01*
X152091018Y-86356302D01*
X152072734Y-86334023D01*
X152059150Y-86308610D01*
X152050784Y-86281033D01*
X152047720Y-86249916D01*
X152047720Y-85811284D01*
X152050784Y-85780167D01*
X152059150Y-85752590D01*
X152072734Y-85727177D01*
X152091018Y-85704898D01*
X152113297Y-85686614D01*
X152138710Y-85673030D01*
X152166287Y-85664664D01*
X152197404Y-85661600D01*
X152586036Y-85661600D01*
X152617153Y-85664664D01*
G37*
G36*
X153587433Y-85664664D02*
G01*
X153615010Y-85673030D01*
X153640423Y-85686614D01*
X153662702Y-85704898D01*
X153680986Y-85727177D01*
X153694570Y-85752590D01*
X153702936Y-85780167D01*
X153706000Y-85811284D01*
X153706000Y-86249916D01*
X153702936Y-86281033D01*
X153694570Y-86308610D01*
X153680986Y-86334023D01*
X153662702Y-86356302D01*
X153640423Y-86374586D01*
X153615010Y-86388170D01*
X153587433Y-86396536D01*
X153556316Y-86399600D01*
X153167404Y-86399600D01*
X153136287Y-86396536D01*
X153108710Y-86388170D01*
X153083297Y-86374586D01*
X153061018Y-86356302D01*
X153042734Y-86334023D01*
X153029150Y-86308610D01*
X153020784Y-86281033D01*
X153017720Y-86249916D01*
X153017720Y-85811284D01*
X153020784Y-85780167D01*
X153029150Y-85752590D01*
X153042734Y-85727177D01*
X153061018Y-85704898D01*
X153083297Y-85686614D01*
X153108710Y-85673030D01*
X153136287Y-85664664D01*
X153167404Y-85661600D01*
X153556316Y-85661600D01*
X153587433Y-85664664D01*
G37*
G36*
X154557433Y-84267664D02*
G01*
X154585010Y-84276030D01*
X154610423Y-84289614D01*
X154632702Y-84307898D01*
X154650986Y-84330177D01*
X154664570Y-84355590D01*
X154672936Y-84383167D01*
X154676000Y-84414284D01*
X154676000Y-84852916D01*
X154672936Y-84884033D01*
X154664570Y-84911610D01*
X154650986Y-84937023D01*
X154632702Y-84959302D01*
X154610423Y-84977586D01*
X154585010Y-84991170D01*
X154557433Y-84999536D01*
X154526316Y-85002600D01*
X154137684Y-85002600D01*
X154106567Y-84999536D01*
X154078990Y-84991170D01*
X154053577Y-84977586D01*
X154031298Y-84959302D01*
X154013014Y-84937023D01*
X153999430Y-84911610D01*
X153991064Y-84884033D01*
X153988000Y-84852916D01*
X153988000Y-84414284D01*
X153991064Y-84383167D01*
X153999430Y-84355590D01*
X154013014Y-84330177D01*
X154031298Y-84307898D01*
X154053577Y-84289614D01*
X154078990Y-84276030D01*
X154106567Y-84267664D01*
X154137684Y-84264600D01*
X154526316Y-84264600D01*
X154557433Y-84267664D01*
G37*
G36*
X153587433Y-84267664D02*
G01*
X153615010Y-84276030D01*
X153640423Y-84289614D01*
X153662702Y-84307898D01*
X153680986Y-84330177D01*
X153694570Y-84355590D01*
X153702936Y-84383167D01*
X153706000Y-84414284D01*
X153706000Y-84852916D01*
X153702936Y-84884033D01*
X153694570Y-84911610D01*
X153680986Y-84937023D01*
X153662702Y-84959302D01*
X153640423Y-84977586D01*
X153615010Y-84991170D01*
X153587433Y-84999536D01*
X153556316Y-85002600D01*
X153167404Y-85002600D01*
X153136287Y-84999536D01*
X153108710Y-84991170D01*
X153083297Y-84977586D01*
X153061018Y-84959302D01*
X153042734Y-84937023D01*
X153029150Y-84911610D01*
X153020784Y-84884033D01*
X153017720Y-84852916D01*
X153017720Y-84414284D01*
X153020784Y-84383167D01*
X153029150Y-84355590D01*
X153042734Y-84330177D01*
X153061018Y-84307898D01*
X153083297Y-84289614D01*
X153108710Y-84276030D01*
X153136287Y-84267664D01*
X153167404Y-84264600D01*
X153556316Y-84264600D01*
X153587433Y-84267664D01*
G37*
G36*
X152617153Y-84267664D02*
G01*
X152644730Y-84276030D01*
X152670143Y-84289614D01*
X152692422Y-84307898D01*
X152710706Y-84330177D01*
X152724290Y-84355590D01*
X152732656Y-84383167D01*
X152735720Y-84414284D01*
X152735720Y-84852916D01*
X152732656Y-84884033D01*
X152724290Y-84911610D01*
X152710706Y-84937023D01*
X152692422Y-84959302D01*
X152670143Y-84977586D01*
X152644730Y-84991170D01*
X152617153Y-84999536D01*
X152586036Y-85002600D01*
X152197404Y-85002600D01*
X152166287Y-84999536D01*
X152138710Y-84991170D01*
X152113297Y-84977586D01*
X152091018Y-84959302D01*
X152072734Y-84937023D01*
X152059150Y-84911610D01*
X152050784Y-84884033D01*
X152047720Y-84852916D01*
X152047720Y-84414284D01*
X152050784Y-84383167D01*
X152059150Y-84355590D01*
X152072734Y-84330177D01*
X152091018Y-84307898D01*
X152113297Y-84289614D01*
X152138710Y-84276030D01*
X152166287Y-84267664D01*
X152197404Y-84264600D01*
X152586036Y-84264600D01*
X152617153Y-84267664D01*
G37*
G36*
X166847480Y-84299000D02*
G01*
X159349480Y-84299000D01*
X159349480Y-82201000D01*
X166847480Y-82201000D01*
X166847480Y-84299000D01*
G37*
G36*
X134599000Y-82699000D02*
G01*
X127101000Y-82699000D01*
X127101000Y-80601000D01*
X134599000Y-80601000D01*
X134599000Y-82699000D01*
G37*
G36*
X116899267Y-76782822D02*
G01*
X117035758Y-76839359D01*
X117158597Y-76921437D01*
X117263063Y-77025903D01*
X117345141Y-77148742D01*
X117401678Y-77285233D01*
X117430500Y-77430131D01*
X117430500Y-77577869D01*
X117401678Y-77722767D01*
X117345141Y-77859258D01*
X117263063Y-77982097D01*
X117158597Y-78086563D01*
X117035758Y-78168641D01*
X116899267Y-78225178D01*
X116754369Y-78254000D01*
X116606631Y-78254000D01*
X116461733Y-78225178D01*
X116325242Y-78168641D01*
X116202403Y-78086563D01*
X116097937Y-77982097D01*
X116015859Y-77859258D01*
X115959322Y-77722767D01*
X115930500Y-77577869D01*
X115930500Y-77430131D01*
X115959322Y-77285233D01*
X116015859Y-77148742D01*
X116097937Y-77025903D01*
X116202403Y-76921437D01*
X116325242Y-76839359D01*
X116461733Y-76782822D01*
X116606631Y-76754000D01*
X116754369Y-76754000D01*
X116899267Y-76782822D01*
G37*
G36*
X174173267Y-76782822D02*
G01*
X174309758Y-76839359D01*
X174432597Y-76921437D01*
X174537063Y-77025903D01*
X174619141Y-77148742D01*
X174675678Y-77285233D01*
X174704500Y-77430131D01*
X174704500Y-77577869D01*
X174675678Y-77722767D01*
X174619141Y-77859258D01*
X174537063Y-77982097D01*
X174432597Y-78086563D01*
X174309758Y-78168641D01*
X174173267Y-78225178D01*
X174028369Y-78254000D01*
X173880631Y-78254000D01*
X173735733Y-78225178D01*
X173599242Y-78168641D01*
X173476403Y-78086563D01*
X173371937Y-77982097D01*
X173289859Y-77859258D01*
X173233322Y-77722767D01*
X173204500Y-77577869D01*
X173204500Y-77430131D01*
X173233322Y-77285233D01*
X173289859Y-77148742D01*
X173371937Y-77025903D01*
X173476403Y-76921437D01*
X173599242Y-76839359D01*
X173735733Y-76782822D01*
X173880631Y-76754000D01*
X174028369Y-76754000D01*
X174173267Y-76782822D01*
G37*
G36*
X122749000Y-76049000D02*
G01*
X115251000Y-76049000D01*
X115251000Y-73951000D01*
X122749000Y-73951000D01*
X122749000Y-76049000D01*
G37*
G36*
X175435220Y-75939080D02*
G01*
X167937220Y-75939080D01*
X167937220Y-73841080D01*
X175435220Y-73841080D01*
X175435220Y-75939080D01*
G37*
M02*
