%TF.GenerationSoftware,KiCad,Pcbnew,(5.1.5)-3*%
%TF.CreationDate,2020-08-30T11:50:14-07:00*%
%TF.ProjectId,ypanel,7970616e-656c-42e6-9b69-6361645f7063,rev?*%
%TF.SameCoordinates,Original*%
%TF.FileFunction,Paste,Bot*%
%TF.FilePolarity,Positive*%
%FSLAX46Y46*%
G04 Gerber Fmt 4.6, Leading zero omitted, Abs format (unit mm)*
G04 Created by KiCad (PCBNEW (5.1.5)-3) date 2020-08-30 11:50:14*
%MOMM*%
%LPD*%
G04 APERTURE LIST*
%ADD10C,0.100000*%
%ADD11C,0.050000*%
%ADD12R,1.500000X1.700000*%
%ADD13R,1.100000X0.250000*%
%ADD14R,2.000000X1.100000*%
%ADD15R,0.800000X0.800000*%
%ADD16R,0.700000X0.500000*%
%ADD17R,2.150000X2.150000*%
%ADD18R,0.900000X0.300000*%
%ADD19R,0.300000X0.900000*%
%ADD20R,4.394200X1.435100*%
G04 APERTURE END LIST*
D10*
X151587000Y-99000001D02*
G75*
G03X151587000Y-99000001I-8000000J0D01*
G01*
X134779564Y-114100000D02*
G75*
G03X134779564Y-114100000I-1029564J0D01*
G01*
X141279564Y-114100000D02*
G75*
G03X141279564Y-114100000I-1029564J0D01*
G01*
X126375000Y-118900000D02*
G75*
G03X126375000Y-118900000I-1300000J0D01*
G01*
X140979564Y-83920436D02*
G75*
G03X140979564Y-83920436I-1029564J0D01*
G01*
X147479564Y-83920436D02*
G75*
G03X147479564Y-83920436I-1029564J0D01*
G01*
X176975000Y-70000000D02*
X176975000Y-128000000D01*
X166200000Y-118900000D02*
G75*
G03X166200000Y-118900000I-1300000J0D01*
G01*
D11*
X126372800Y-79100000D02*
G75*
G03X126372800Y-79100000I-1300000J0D01*
G01*
D10*
X166195000Y-79102480D02*
G75*
G03X166195000Y-79102480I-1300000J0D01*
G01*
X176975000Y-70000000D02*
X113000000Y-70000000D01*
X113000000Y-128000000D02*
X176975000Y-128000000D01*
X113000000Y-70000000D02*
X113000000Y-128000000D01*
D12*
X160550000Y-107100000D03*
X160550000Y-114900000D03*
D13*
X164450000Y-108750000D03*
X164450000Y-109250000D03*
X164450000Y-109750000D03*
X164450000Y-110250000D03*
X164450000Y-110750000D03*
X164450000Y-111250000D03*
X164450000Y-111750000D03*
X164450000Y-112250000D03*
X164450000Y-112750000D03*
X164450000Y-113250000D03*
D10*
G36*
X130524504Y-102101204D02*
G01*
X130548773Y-102104804D01*
X130572571Y-102110765D01*
X130595671Y-102119030D01*
X130617849Y-102129520D01*
X130638893Y-102142133D01*
X130658598Y-102156747D01*
X130676777Y-102173223D01*
X130693253Y-102191402D01*
X130707867Y-102211107D01*
X130720480Y-102232151D01*
X130730970Y-102254329D01*
X130739235Y-102277429D01*
X130745196Y-102301227D01*
X130748796Y-102325496D01*
X130750000Y-102350000D01*
X130750000Y-103450000D01*
X130748796Y-103474504D01*
X130745196Y-103498773D01*
X130739235Y-103522571D01*
X130730970Y-103545671D01*
X130720480Y-103567849D01*
X130707867Y-103588893D01*
X130693253Y-103608598D01*
X130676777Y-103626777D01*
X130658598Y-103643253D01*
X130638893Y-103657867D01*
X130617849Y-103670480D01*
X130595671Y-103680970D01*
X130572571Y-103689235D01*
X130548773Y-103695196D01*
X130524504Y-103698796D01*
X130500000Y-103700000D01*
X128000000Y-103700000D01*
X127975496Y-103698796D01*
X127951227Y-103695196D01*
X127927429Y-103689235D01*
X127904329Y-103680970D01*
X127882151Y-103670480D01*
X127861107Y-103657867D01*
X127841402Y-103643253D01*
X127823223Y-103626777D01*
X127806747Y-103608598D01*
X127792133Y-103588893D01*
X127779520Y-103567849D01*
X127769030Y-103545671D01*
X127760765Y-103522571D01*
X127754804Y-103498773D01*
X127751204Y-103474504D01*
X127750000Y-103450000D01*
X127750000Y-102350000D01*
X127751204Y-102325496D01*
X127754804Y-102301227D01*
X127760765Y-102277429D01*
X127769030Y-102254329D01*
X127779520Y-102232151D01*
X127792133Y-102211107D01*
X127806747Y-102191402D01*
X127823223Y-102173223D01*
X127841402Y-102156747D01*
X127861107Y-102142133D01*
X127882151Y-102129520D01*
X127904329Y-102119030D01*
X127927429Y-102110765D01*
X127951227Y-102104804D01*
X127975496Y-102101204D01*
X128000000Y-102100000D01*
X130500000Y-102100000D01*
X130524504Y-102101204D01*
G37*
G36*
X130524504Y-95301204D02*
G01*
X130548773Y-95304804D01*
X130572571Y-95310765D01*
X130595671Y-95319030D01*
X130617849Y-95329520D01*
X130638893Y-95342133D01*
X130658598Y-95356747D01*
X130676777Y-95373223D01*
X130693253Y-95391402D01*
X130707867Y-95411107D01*
X130720480Y-95432151D01*
X130730970Y-95454329D01*
X130739235Y-95477429D01*
X130745196Y-95501227D01*
X130748796Y-95525496D01*
X130750000Y-95550000D01*
X130750000Y-96650000D01*
X130748796Y-96674504D01*
X130745196Y-96698773D01*
X130739235Y-96722571D01*
X130730970Y-96745671D01*
X130720480Y-96767849D01*
X130707867Y-96788893D01*
X130693253Y-96808598D01*
X130676777Y-96826777D01*
X130658598Y-96843253D01*
X130638893Y-96857867D01*
X130617849Y-96870480D01*
X130595671Y-96880970D01*
X130572571Y-96889235D01*
X130548773Y-96895196D01*
X130524504Y-96898796D01*
X130500000Y-96900000D01*
X128000000Y-96900000D01*
X127975496Y-96898796D01*
X127951227Y-96895196D01*
X127927429Y-96889235D01*
X127904329Y-96880970D01*
X127882151Y-96870480D01*
X127861107Y-96857867D01*
X127841402Y-96843253D01*
X127823223Y-96826777D01*
X127806747Y-96808598D01*
X127792133Y-96788893D01*
X127779520Y-96767849D01*
X127769030Y-96745671D01*
X127760765Y-96722571D01*
X127754804Y-96698773D01*
X127751204Y-96674504D01*
X127750000Y-96650000D01*
X127750000Y-95550000D01*
X127751204Y-95525496D01*
X127754804Y-95501227D01*
X127760765Y-95477429D01*
X127769030Y-95454329D01*
X127779520Y-95432151D01*
X127792133Y-95411107D01*
X127806747Y-95391402D01*
X127823223Y-95373223D01*
X127841402Y-95356747D01*
X127861107Y-95342133D01*
X127882151Y-95329520D01*
X127904329Y-95319030D01*
X127927429Y-95310765D01*
X127951227Y-95304804D01*
X127975496Y-95301204D01*
X128000000Y-95300000D01*
X130500000Y-95300000D01*
X130524504Y-95301204D01*
G37*
G36*
X134024504Y-100001204D02*
G01*
X134048773Y-100004804D01*
X134072571Y-100010765D01*
X134095671Y-100019030D01*
X134117849Y-100029520D01*
X134138893Y-100042133D01*
X134158598Y-100056747D01*
X134176777Y-100073223D01*
X134193253Y-100091402D01*
X134207867Y-100111107D01*
X134220480Y-100132151D01*
X134230970Y-100154329D01*
X134239235Y-100177429D01*
X134245196Y-100201227D01*
X134248796Y-100225496D01*
X134250000Y-100250000D01*
X134250000Y-100750000D01*
X134248796Y-100774504D01*
X134245196Y-100798773D01*
X134239235Y-100822571D01*
X134230970Y-100845671D01*
X134220480Y-100867849D01*
X134207867Y-100888893D01*
X134193253Y-100908598D01*
X134176777Y-100926777D01*
X134158598Y-100943253D01*
X134138893Y-100957867D01*
X134117849Y-100970480D01*
X134095671Y-100980970D01*
X134072571Y-100989235D01*
X134048773Y-100995196D01*
X134024504Y-100998796D01*
X134000000Y-101000000D01*
X129000000Y-101000000D01*
X128975496Y-100998796D01*
X128951227Y-100995196D01*
X128927429Y-100989235D01*
X128904329Y-100980970D01*
X128882151Y-100970480D01*
X128861107Y-100957867D01*
X128841402Y-100943253D01*
X128823223Y-100926777D01*
X128806747Y-100908598D01*
X128792133Y-100888893D01*
X128779520Y-100867849D01*
X128769030Y-100845671D01*
X128760765Y-100822571D01*
X128754804Y-100798773D01*
X128751204Y-100774504D01*
X128750000Y-100750000D01*
X128750000Y-100250000D01*
X128751204Y-100225496D01*
X128754804Y-100201227D01*
X128760765Y-100177429D01*
X128769030Y-100154329D01*
X128779520Y-100132151D01*
X128792133Y-100111107D01*
X128806747Y-100091402D01*
X128823223Y-100073223D01*
X128841402Y-100056747D01*
X128861107Y-100042133D01*
X128882151Y-100029520D01*
X128904329Y-100019030D01*
X128927429Y-100010765D01*
X128951227Y-100004804D01*
X128975496Y-100001204D01*
X129000000Y-100000000D01*
X134000000Y-100000000D01*
X134024504Y-100001204D01*
G37*
G36*
X134024504Y-98001204D02*
G01*
X134048773Y-98004804D01*
X134072571Y-98010765D01*
X134095671Y-98019030D01*
X134117849Y-98029520D01*
X134138893Y-98042133D01*
X134158598Y-98056747D01*
X134176777Y-98073223D01*
X134193253Y-98091402D01*
X134207867Y-98111107D01*
X134220480Y-98132151D01*
X134230970Y-98154329D01*
X134239235Y-98177429D01*
X134245196Y-98201227D01*
X134248796Y-98225496D01*
X134250000Y-98250000D01*
X134250000Y-98750000D01*
X134248796Y-98774504D01*
X134245196Y-98798773D01*
X134239235Y-98822571D01*
X134230970Y-98845671D01*
X134220480Y-98867849D01*
X134207867Y-98888893D01*
X134193253Y-98908598D01*
X134176777Y-98926777D01*
X134158598Y-98943253D01*
X134138893Y-98957867D01*
X134117849Y-98970480D01*
X134095671Y-98980970D01*
X134072571Y-98989235D01*
X134048773Y-98995196D01*
X134024504Y-98998796D01*
X134000000Y-99000000D01*
X129000000Y-99000000D01*
X128975496Y-98998796D01*
X128951227Y-98995196D01*
X128927429Y-98989235D01*
X128904329Y-98980970D01*
X128882151Y-98970480D01*
X128861107Y-98957867D01*
X128841402Y-98943253D01*
X128823223Y-98926777D01*
X128806747Y-98908598D01*
X128792133Y-98888893D01*
X128779520Y-98867849D01*
X128769030Y-98845671D01*
X128760765Y-98822571D01*
X128754804Y-98798773D01*
X128751204Y-98774504D01*
X128750000Y-98750000D01*
X128750000Y-98250000D01*
X128751204Y-98225496D01*
X128754804Y-98201227D01*
X128760765Y-98177429D01*
X128769030Y-98154329D01*
X128779520Y-98132151D01*
X128792133Y-98111107D01*
X128806747Y-98091402D01*
X128823223Y-98073223D01*
X128841402Y-98056747D01*
X128861107Y-98042133D01*
X128882151Y-98029520D01*
X128904329Y-98019030D01*
X128927429Y-98010765D01*
X128951227Y-98004804D01*
X128975496Y-98001204D01*
X129000000Y-98000000D01*
X134000000Y-98000000D01*
X134024504Y-98001204D01*
G37*
D14*
X153523500Y-89000000D03*
D15*
X155423500Y-89000000D03*
D10*
G36*
X155713491Y-84260453D02*
G01*
X155734726Y-84263603D01*
X155755550Y-84268819D01*
X155775762Y-84276051D01*
X155795168Y-84285230D01*
X155813581Y-84296266D01*
X155830824Y-84309054D01*
X155846730Y-84323470D01*
X155861146Y-84339376D01*
X155873934Y-84356619D01*
X155884970Y-84375032D01*
X155894149Y-84394438D01*
X155901381Y-84414650D01*
X155906597Y-84435474D01*
X155909747Y-84456709D01*
X155910800Y-84478150D01*
X155910800Y-84990650D01*
X155909747Y-85012091D01*
X155906597Y-85033326D01*
X155901381Y-85054150D01*
X155894149Y-85074362D01*
X155884970Y-85093768D01*
X155873934Y-85112181D01*
X155861146Y-85129424D01*
X155846730Y-85145330D01*
X155830824Y-85159746D01*
X155813581Y-85172534D01*
X155795168Y-85183570D01*
X155775762Y-85192749D01*
X155755550Y-85199981D01*
X155734726Y-85205197D01*
X155713491Y-85208347D01*
X155692050Y-85209400D01*
X155254550Y-85209400D01*
X155233109Y-85208347D01*
X155211874Y-85205197D01*
X155191050Y-85199981D01*
X155170838Y-85192749D01*
X155151432Y-85183570D01*
X155133019Y-85172534D01*
X155115776Y-85159746D01*
X155099870Y-85145330D01*
X155085454Y-85129424D01*
X155072666Y-85112181D01*
X155061630Y-85093768D01*
X155052451Y-85074362D01*
X155045219Y-85054150D01*
X155040003Y-85033326D01*
X155036853Y-85012091D01*
X155035800Y-84990650D01*
X155035800Y-84478150D01*
X155036853Y-84456709D01*
X155040003Y-84435474D01*
X155045219Y-84414650D01*
X155052451Y-84394438D01*
X155061630Y-84375032D01*
X155072666Y-84356619D01*
X155085454Y-84339376D01*
X155099870Y-84323470D01*
X155115776Y-84309054D01*
X155133019Y-84296266D01*
X155151432Y-84285230D01*
X155170838Y-84276051D01*
X155191050Y-84268819D01*
X155211874Y-84263603D01*
X155233109Y-84260453D01*
X155254550Y-84259400D01*
X155692050Y-84259400D01*
X155713491Y-84260453D01*
G37*
G36*
X157288491Y-84260453D02*
G01*
X157309726Y-84263603D01*
X157330550Y-84268819D01*
X157350762Y-84276051D01*
X157370168Y-84285230D01*
X157388581Y-84296266D01*
X157405824Y-84309054D01*
X157421730Y-84323470D01*
X157436146Y-84339376D01*
X157448934Y-84356619D01*
X157459970Y-84375032D01*
X157469149Y-84394438D01*
X157476381Y-84414650D01*
X157481597Y-84435474D01*
X157484747Y-84456709D01*
X157485800Y-84478150D01*
X157485800Y-84990650D01*
X157484747Y-85012091D01*
X157481597Y-85033326D01*
X157476381Y-85054150D01*
X157469149Y-85074362D01*
X157459970Y-85093768D01*
X157448934Y-85112181D01*
X157436146Y-85129424D01*
X157421730Y-85145330D01*
X157405824Y-85159746D01*
X157388581Y-85172534D01*
X157370168Y-85183570D01*
X157350762Y-85192749D01*
X157330550Y-85199981D01*
X157309726Y-85205197D01*
X157288491Y-85208347D01*
X157267050Y-85209400D01*
X156829550Y-85209400D01*
X156808109Y-85208347D01*
X156786874Y-85205197D01*
X156766050Y-85199981D01*
X156745838Y-85192749D01*
X156726432Y-85183570D01*
X156708019Y-85172534D01*
X156690776Y-85159746D01*
X156674870Y-85145330D01*
X156660454Y-85129424D01*
X156647666Y-85112181D01*
X156636630Y-85093768D01*
X156627451Y-85074362D01*
X156620219Y-85054150D01*
X156615003Y-85033326D01*
X156611853Y-85012091D01*
X156610800Y-84990650D01*
X156610800Y-84478150D01*
X156611853Y-84456709D01*
X156615003Y-84435474D01*
X156620219Y-84414650D01*
X156627451Y-84394438D01*
X156636630Y-84375032D01*
X156647666Y-84356619D01*
X156660454Y-84339376D01*
X156674870Y-84323470D01*
X156690776Y-84309054D01*
X156708019Y-84296266D01*
X156726432Y-84285230D01*
X156745838Y-84276051D01*
X156766050Y-84268819D01*
X156786874Y-84263603D01*
X156808109Y-84260453D01*
X156829550Y-84259400D01*
X157267050Y-84259400D01*
X157288491Y-84260453D01*
G37*
G36*
X153793458Y-95970710D02*
G01*
X153807776Y-95972834D01*
X153821817Y-95976351D01*
X153835446Y-95981228D01*
X153848531Y-95987417D01*
X153860947Y-95994858D01*
X153872573Y-96003481D01*
X153883298Y-96013202D01*
X153893019Y-96023927D01*
X153901642Y-96035553D01*
X153909083Y-96047969D01*
X153915272Y-96061054D01*
X153920149Y-96074683D01*
X153923666Y-96088724D01*
X153925790Y-96103042D01*
X153926500Y-96117500D01*
X153926500Y-96412500D01*
X153925790Y-96426958D01*
X153923666Y-96441276D01*
X153920149Y-96455317D01*
X153915272Y-96468946D01*
X153909083Y-96482031D01*
X153901642Y-96494447D01*
X153893019Y-96506073D01*
X153883298Y-96516798D01*
X153872573Y-96526519D01*
X153860947Y-96535142D01*
X153848531Y-96542583D01*
X153835446Y-96548772D01*
X153821817Y-96553649D01*
X153807776Y-96557166D01*
X153793458Y-96559290D01*
X153779000Y-96560000D01*
X153434000Y-96560000D01*
X153419542Y-96559290D01*
X153405224Y-96557166D01*
X153391183Y-96553649D01*
X153377554Y-96548772D01*
X153364469Y-96542583D01*
X153352053Y-96535142D01*
X153340427Y-96526519D01*
X153329702Y-96516798D01*
X153319981Y-96506073D01*
X153311358Y-96494447D01*
X153303917Y-96482031D01*
X153297728Y-96468946D01*
X153292851Y-96455317D01*
X153289334Y-96441276D01*
X153287210Y-96426958D01*
X153286500Y-96412500D01*
X153286500Y-96117500D01*
X153287210Y-96103042D01*
X153289334Y-96088724D01*
X153292851Y-96074683D01*
X153297728Y-96061054D01*
X153303917Y-96047969D01*
X153311358Y-96035553D01*
X153319981Y-96023927D01*
X153329702Y-96013202D01*
X153340427Y-96003481D01*
X153352053Y-95994858D01*
X153364469Y-95987417D01*
X153377554Y-95981228D01*
X153391183Y-95976351D01*
X153405224Y-95972834D01*
X153419542Y-95970710D01*
X153434000Y-95970000D01*
X153779000Y-95970000D01*
X153793458Y-95970710D01*
G37*
G36*
X153793458Y-96940710D02*
G01*
X153807776Y-96942834D01*
X153821817Y-96946351D01*
X153835446Y-96951228D01*
X153848531Y-96957417D01*
X153860947Y-96964858D01*
X153872573Y-96973481D01*
X153883298Y-96983202D01*
X153893019Y-96993927D01*
X153901642Y-97005553D01*
X153909083Y-97017969D01*
X153915272Y-97031054D01*
X153920149Y-97044683D01*
X153923666Y-97058724D01*
X153925790Y-97073042D01*
X153926500Y-97087500D01*
X153926500Y-97382500D01*
X153925790Y-97396958D01*
X153923666Y-97411276D01*
X153920149Y-97425317D01*
X153915272Y-97438946D01*
X153909083Y-97452031D01*
X153901642Y-97464447D01*
X153893019Y-97476073D01*
X153883298Y-97486798D01*
X153872573Y-97496519D01*
X153860947Y-97505142D01*
X153848531Y-97512583D01*
X153835446Y-97518772D01*
X153821817Y-97523649D01*
X153807776Y-97527166D01*
X153793458Y-97529290D01*
X153779000Y-97530000D01*
X153434000Y-97530000D01*
X153419542Y-97529290D01*
X153405224Y-97527166D01*
X153391183Y-97523649D01*
X153377554Y-97518772D01*
X153364469Y-97512583D01*
X153352053Y-97505142D01*
X153340427Y-97496519D01*
X153329702Y-97486798D01*
X153319981Y-97476073D01*
X153311358Y-97464447D01*
X153303917Y-97452031D01*
X153297728Y-97438946D01*
X153292851Y-97425317D01*
X153289334Y-97411276D01*
X153287210Y-97396958D01*
X153286500Y-97382500D01*
X153286500Y-97087500D01*
X153287210Y-97073042D01*
X153289334Y-97058724D01*
X153292851Y-97044683D01*
X153297728Y-97031054D01*
X153303917Y-97017969D01*
X153311358Y-97005553D01*
X153319981Y-96993927D01*
X153329702Y-96983202D01*
X153340427Y-96973481D01*
X153352053Y-96964858D01*
X153364469Y-96957417D01*
X153377554Y-96951228D01*
X153391183Y-96946351D01*
X153405224Y-96942834D01*
X153419542Y-96940710D01*
X153434000Y-96940000D01*
X153779000Y-96940000D01*
X153793458Y-96940710D01*
G37*
D16*
X158999500Y-91046000D03*
X160299500Y-91046000D03*
D17*
X159670844Y-96720660D03*
D18*
X157970844Y-95720660D03*
X157970844Y-96220660D03*
X157970844Y-96720660D03*
X157970844Y-97220660D03*
X157970844Y-97720660D03*
D19*
X158670844Y-98420660D03*
X159170844Y-98420660D03*
X159670844Y-98420660D03*
X160170844Y-98420660D03*
X160670844Y-98420660D03*
D18*
X161370844Y-97720660D03*
X161370844Y-97220660D03*
X161370844Y-96720660D03*
X161370844Y-96220660D03*
X161370844Y-95720660D03*
D19*
X160670844Y-95020660D03*
X160170844Y-95020660D03*
X159670844Y-95020660D03*
X159170844Y-95020660D03*
X158670844Y-95020660D03*
D15*
X154063380Y-104096820D03*
D14*
X155963380Y-104096820D03*
D10*
G36*
X163526958Y-94030710D02*
G01*
X163541276Y-94032834D01*
X163555317Y-94036351D01*
X163568946Y-94041228D01*
X163582031Y-94047417D01*
X163594447Y-94054858D01*
X163606073Y-94063481D01*
X163616798Y-94073202D01*
X163626519Y-94083927D01*
X163635142Y-94095553D01*
X163642583Y-94107969D01*
X163648772Y-94121054D01*
X163653649Y-94134683D01*
X163657166Y-94148724D01*
X163659290Y-94163042D01*
X163660000Y-94177500D01*
X163660000Y-94522500D01*
X163659290Y-94536958D01*
X163657166Y-94551276D01*
X163653649Y-94565317D01*
X163648772Y-94578946D01*
X163642583Y-94592031D01*
X163635142Y-94604447D01*
X163626519Y-94616073D01*
X163616798Y-94626798D01*
X163606073Y-94636519D01*
X163594447Y-94645142D01*
X163582031Y-94652583D01*
X163568946Y-94658772D01*
X163555317Y-94663649D01*
X163541276Y-94667166D01*
X163526958Y-94669290D01*
X163512500Y-94670000D01*
X163217500Y-94670000D01*
X163203042Y-94669290D01*
X163188724Y-94667166D01*
X163174683Y-94663649D01*
X163161054Y-94658772D01*
X163147969Y-94652583D01*
X163135553Y-94645142D01*
X163123927Y-94636519D01*
X163113202Y-94626798D01*
X163103481Y-94616073D01*
X163094858Y-94604447D01*
X163087417Y-94592031D01*
X163081228Y-94578946D01*
X163076351Y-94565317D01*
X163072834Y-94551276D01*
X163070710Y-94536958D01*
X163070000Y-94522500D01*
X163070000Y-94177500D01*
X163070710Y-94163042D01*
X163072834Y-94148724D01*
X163076351Y-94134683D01*
X163081228Y-94121054D01*
X163087417Y-94107969D01*
X163094858Y-94095553D01*
X163103481Y-94083927D01*
X163113202Y-94073202D01*
X163123927Y-94063481D01*
X163135553Y-94054858D01*
X163147969Y-94047417D01*
X163161054Y-94041228D01*
X163174683Y-94036351D01*
X163188724Y-94032834D01*
X163203042Y-94030710D01*
X163217500Y-94030000D01*
X163512500Y-94030000D01*
X163526958Y-94030710D01*
G37*
G36*
X164496958Y-94030710D02*
G01*
X164511276Y-94032834D01*
X164525317Y-94036351D01*
X164538946Y-94041228D01*
X164552031Y-94047417D01*
X164564447Y-94054858D01*
X164576073Y-94063481D01*
X164586798Y-94073202D01*
X164596519Y-94083927D01*
X164605142Y-94095553D01*
X164612583Y-94107969D01*
X164618772Y-94121054D01*
X164623649Y-94134683D01*
X164627166Y-94148724D01*
X164629290Y-94163042D01*
X164630000Y-94177500D01*
X164630000Y-94522500D01*
X164629290Y-94536958D01*
X164627166Y-94551276D01*
X164623649Y-94565317D01*
X164618772Y-94578946D01*
X164612583Y-94592031D01*
X164605142Y-94604447D01*
X164596519Y-94616073D01*
X164586798Y-94626798D01*
X164576073Y-94636519D01*
X164564447Y-94645142D01*
X164552031Y-94652583D01*
X164538946Y-94658772D01*
X164525317Y-94663649D01*
X164511276Y-94667166D01*
X164496958Y-94669290D01*
X164482500Y-94670000D01*
X164187500Y-94670000D01*
X164173042Y-94669290D01*
X164158724Y-94667166D01*
X164144683Y-94663649D01*
X164131054Y-94658772D01*
X164117969Y-94652583D01*
X164105553Y-94645142D01*
X164093927Y-94636519D01*
X164083202Y-94626798D01*
X164073481Y-94616073D01*
X164064858Y-94604447D01*
X164057417Y-94592031D01*
X164051228Y-94578946D01*
X164046351Y-94565317D01*
X164042834Y-94551276D01*
X164040710Y-94536958D01*
X164040000Y-94522500D01*
X164040000Y-94177500D01*
X164040710Y-94163042D01*
X164042834Y-94148724D01*
X164046351Y-94134683D01*
X164051228Y-94121054D01*
X164057417Y-94107969D01*
X164064858Y-94095553D01*
X164073481Y-94083927D01*
X164083202Y-94073202D01*
X164093927Y-94063481D01*
X164105553Y-94054858D01*
X164117969Y-94047417D01*
X164131054Y-94041228D01*
X164144683Y-94036351D01*
X164158724Y-94032834D01*
X164173042Y-94030710D01*
X164187500Y-94030000D01*
X164482500Y-94030000D01*
X164496958Y-94030710D01*
G37*
G36*
X164472458Y-95030710D02*
G01*
X164486776Y-95032834D01*
X164500817Y-95036351D01*
X164514446Y-95041228D01*
X164527531Y-95047417D01*
X164539947Y-95054858D01*
X164551573Y-95063481D01*
X164562298Y-95073202D01*
X164572019Y-95083927D01*
X164580642Y-95095553D01*
X164588083Y-95107969D01*
X164594272Y-95121054D01*
X164599149Y-95134683D01*
X164602666Y-95148724D01*
X164604790Y-95163042D01*
X164605500Y-95177500D01*
X164605500Y-95522500D01*
X164604790Y-95536958D01*
X164602666Y-95551276D01*
X164599149Y-95565317D01*
X164594272Y-95578946D01*
X164588083Y-95592031D01*
X164580642Y-95604447D01*
X164572019Y-95616073D01*
X164562298Y-95626798D01*
X164551573Y-95636519D01*
X164539947Y-95645142D01*
X164527531Y-95652583D01*
X164514446Y-95658772D01*
X164500817Y-95663649D01*
X164486776Y-95667166D01*
X164472458Y-95669290D01*
X164458000Y-95670000D01*
X164163000Y-95670000D01*
X164148542Y-95669290D01*
X164134224Y-95667166D01*
X164120183Y-95663649D01*
X164106554Y-95658772D01*
X164093469Y-95652583D01*
X164081053Y-95645142D01*
X164069427Y-95636519D01*
X164058702Y-95626798D01*
X164048981Y-95616073D01*
X164040358Y-95604447D01*
X164032917Y-95592031D01*
X164026728Y-95578946D01*
X164021851Y-95565317D01*
X164018334Y-95551276D01*
X164016210Y-95536958D01*
X164015500Y-95522500D01*
X164015500Y-95177500D01*
X164016210Y-95163042D01*
X164018334Y-95148724D01*
X164021851Y-95134683D01*
X164026728Y-95121054D01*
X164032917Y-95107969D01*
X164040358Y-95095553D01*
X164048981Y-95083927D01*
X164058702Y-95073202D01*
X164069427Y-95063481D01*
X164081053Y-95054858D01*
X164093469Y-95047417D01*
X164106554Y-95041228D01*
X164120183Y-95036351D01*
X164134224Y-95032834D01*
X164148542Y-95030710D01*
X164163000Y-95030000D01*
X164458000Y-95030000D01*
X164472458Y-95030710D01*
G37*
G36*
X163502458Y-95030710D02*
G01*
X163516776Y-95032834D01*
X163530817Y-95036351D01*
X163544446Y-95041228D01*
X163557531Y-95047417D01*
X163569947Y-95054858D01*
X163581573Y-95063481D01*
X163592298Y-95073202D01*
X163602019Y-95083927D01*
X163610642Y-95095553D01*
X163618083Y-95107969D01*
X163624272Y-95121054D01*
X163629149Y-95134683D01*
X163632666Y-95148724D01*
X163634790Y-95163042D01*
X163635500Y-95177500D01*
X163635500Y-95522500D01*
X163634790Y-95536958D01*
X163632666Y-95551276D01*
X163629149Y-95565317D01*
X163624272Y-95578946D01*
X163618083Y-95592031D01*
X163610642Y-95604447D01*
X163602019Y-95616073D01*
X163592298Y-95626798D01*
X163581573Y-95636519D01*
X163569947Y-95645142D01*
X163557531Y-95652583D01*
X163544446Y-95658772D01*
X163530817Y-95663649D01*
X163516776Y-95667166D01*
X163502458Y-95669290D01*
X163488000Y-95670000D01*
X163193000Y-95670000D01*
X163178542Y-95669290D01*
X163164224Y-95667166D01*
X163150183Y-95663649D01*
X163136554Y-95658772D01*
X163123469Y-95652583D01*
X163111053Y-95645142D01*
X163099427Y-95636519D01*
X163088702Y-95626798D01*
X163078981Y-95616073D01*
X163070358Y-95604447D01*
X163062917Y-95592031D01*
X163056728Y-95578946D01*
X163051851Y-95565317D01*
X163048334Y-95551276D01*
X163046210Y-95536958D01*
X163045500Y-95522500D01*
X163045500Y-95177500D01*
X163046210Y-95163042D01*
X163048334Y-95148724D01*
X163051851Y-95134683D01*
X163056728Y-95121054D01*
X163062917Y-95107969D01*
X163070358Y-95095553D01*
X163078981Y-95083927D01*
X163088702Y-95073202D01*
X163099427Y-95063481D01*
X163111053Y-95054858D01*
X163123469Y-95047417D01*
X163136554Y-95041228D01*
X163150183Y-95036351D01*
X163164224Y-95032834D01*
X163178542Y-95030710D01*
X163193000Y-95030000D01*
X163488000Y-95030000D01*
X163502458Y-95030710D01*
G37*
G36*
X162746958Y-92990710D02*
G01*
X162761276Y-92992834D01*
X162775317Y-92996351D01*
X162788946Y-93001228D01*
X162802031Y-93007417D01*
X162814447Y-93014858D01*
X162826073Y-93023481D01*
X162836798Y-93033202D01*
X162846519Y-93043927D01*
X162855142Y-93055553D01*
X162862583Y-93067969D01*
X162868772Y-93081054D01*
X162873649Y-93094683D01*
X162877166Y-93108724D01*
X162879290Y-93123042D01*
X162880000Y-93137500D01*
X162880000Y-93432500D01*
X162879290Y-93446958D01*
X162877166Y-93461276D01*
X162873649Y-93475317D01*
X162868772Y-93488946D01*
X162862583Y-93502031D01*
X162855142Y-93514447D01*
X162846519Y-93526073D01*
X162836798Y-93536798D01*
X162826073Y-93546519D01*
X162814447Y-93555142D01*
X162802031Y-93562583D01*
X162788946Y-93568772D01*
X162775317Y-93573649D01*
X162761276Y-93577166D01*
X162746958Y-93579290D01*
X162732500Y-93580000D01*
X162387500Y-93580000D01*
X162373042Y-93579290D01*
X162358724Y-93577166D01*
X162344683Y-93573649D01*
X162331054Y-93568772D01*
X162317969Y-93562583D01*
X162305553Y-93555142D01*
X162293927Y-93546519D01*
X162283202Y-93536798D01*
X162273481Y-93526073D01*
X162264858Y-93514447D01*
X162257417Y-93502031D01*
X162251228Y-93488946D01*
X162246351Y-93475317D01*
X162242834Y-93461276D01*
X162240710Y-93446958D01*
X162240000Y-93432500D01*
X162240000Y-93137500D01*
X162240710Y-93123042D01*
X162242834Y-93108724D01*
X162246351Y-93094683D01*
X162251228Y-93081054D01*
X162257417Y-93067969D01*
X162264858Y-93055553D01*
X162273481Y-93043927D01*
X162283202Y-93033202D01*
X162293927Y-93023481D01*
X162305553Y-93014858D01*
X162317969Y-93007417D01*
X162331054Y-93001228D01*
X162344683Y-92996351D01*
X162358724Y-92992834D01*
X162373042Y-92990710D01*
X162387500Y-92990000D01*
X162732500Y-92990000D01*
X162746958Y-92990710D01*
G37*
G36*
X162746958Y-92020710D02*
G01*
X162761276Y-92022834D01*
X162775317Y-92026351D01*
X162788946Y-92031228D01*
X162802031Y-92037417D01*
X162814447Y-92044858D01*
X162826073Y-92053481D01*
X162836798Y-92063202D01*
X162846519Y-92073927D01*
X162855142Y-92085553D01*
X162862583Y-92097969D01*
X162868772Y-92111054D01*
X162873649Y-92124683D01*
X162877166Y-92138724D01*
X162879290Y-92153042D01*
X162880000Y-92167500D01*
X162880000Y-92462500D01*
X162879290Y-92476958D01*
X162877166Y-92491276D01*
X162873649Y-92505317D01*
X162868772Y-92518946D01*
X162862583Y-92532031D01*
X162855142Y-92544447D01*
X162846519Y-92556073D01*
X162836798Y-92566798D01*
X162826073Y-92576519D01*
X162814447Y-92585142D01*
X162802031Y-92592583D01*
X162788946Y-92598772D01*
X162775317Y-92603649D01*
X162761276Y-92607166D01*
X162746958Y-92609290D01*
X162732500Y-92610000D01*
X162387500Y-92610000D01*
X162373042Y-92609290D01*
X162358724Y-92607166D01*
X162344683Y-92603649D01*
X162331054Y-92598772D01*
X162317969Y-92592583D01*
X162305553Y-92585142D01*
X162293927Y-92576519D01*
X162283202Y-92566798D01*
X162273481Y-92556073D01*
X162264858Y-92544447D01*
X162257417Y-92532031D01*
X162251228Y-92518946D01*
X162246351Y-92505317D01*
X162242834Y-92491276D01*
X162240710Y-92476958D01*
X162240000Y-92462500D01*
X162240000Y-92167500D01*
X162240710Y-92153042D01*
X162242834Y-92138724D01*
X162246351Y-92124683D01*
X162251228Y-92111054D01*
X162257417Y-92097969D01*
X162264858Y-92085553D01*
X162273481Y-92073927D01*
X162283202Y-92063202D01*
X162293927Y-92053481D01*
X162305553Y-92044858D01*
X162317969Y-92037417D01*
X162331054Y-92031228D01*
X162344683Y-92026351D01*
X162358724Y-92022834D01*
X162373042Y-92020710D01*
X162387500Y-92020000D01*
X162732500Y-92020000D01*
X162746958Y-92020710D01*
G37*
G36*
X154936458Y-95961370D02*
G01*
X154950776Y-95963494D01*
X154964817Y-95967011D01*
X154978446Y-95971888D01*
X154991531Y-95978077D01*
X155003947Y-95985518D01*
X155015573Y-95994141D01*
X155026298Y-96003862D01*
X155036019Y-96014587D01*
X155044642Y-96026213D01*
X155052083Y-96038629D01*
X155058272Y-96051714D01*
X155063149Y-96065343D01*
X155066666Y-96079384D01*
X155068790Y-96093702D01*
X155069500Y-96108160D01*
X155069500Y-96403160D01*
X155068790Y-96417618D01*
X155066666Y-96431936D01*
X155063149Y-96445977D01*
X155058272Y-96459606D01*
X155052083Y-96472691D01*
X155044642Y-96485107D01*
X155036019Y-96496733D01*
X155026298Y-96507458D01*
X155015573Y-96517179D01*
X155003947Y-96525802D01*
X154991531Y-96533243D01*
X154978446Y-96539432D01*
X154964817Y-96544309D01*
X154950776Y-96547826D01*
X154936458Y-96549950D01*
X154922000Y-96550660D01*
X154577000Y-96550660D01*
X154562542Y-96549950D01*
X154548224Y-96547826D01*
X154534183Y-96544309D01*
X154520554Y-96539432D01*
X154507469Y-96533243D01*
X154495053Y-96525802D01*
X154483427Y-96517179D01*
X154472702Y-96507458D01*
X154462981Y-96496733D01*
X154454358Y-96485107D01*
X154446917Y-96472691D01*
X154440728Y-96459606D01*
X154435851Y-96445977D01*
X154432334Y-96431936D01*
X154430210Y-96417618D01*
X154429500Y-96403160D01*
X154429500Y-96108160D01*
X154430210Y-96093702D01*
X154432334Y-96079384D01*
X154435851Y-96065343D01*
X154440728Y-96051714D01*
X154446917Y-96038629D01*
X154454358Y-96026213D01*
X154462981Y-96014587D01*
X154472702Y-96003862D01*
X154483427Y-95994141D01*
X154495053Y-95985518D01*
X154507469Y-95978077D01*
X154520554Y-95971888D01*
X154534183Y-95967011D01*
X154548224Y-95963494D01*
X154562542Y-95961370D01*
X154577000Y-95960660D01*
X154922000Y-95960660D01*
X154936458Y-95961370D01*
G37*
G36*
X154936458Y-96931370D02*
G01*
X154950776Y-96933494D01*
X154964817Y-96937011D01*
X154978446Y-96941888D01*
X154991531Y-96948077D01*
X155003947Y-96955518D01*
X155015573Y-96964141D01*
X155026298Y-96973862D01*
X155036019Y-96984587D01*
X155044642Y-96996213D01*
X155052083Y-97008629D01*
X155058272Y-97021714D01*
X155063149Y-97035343D01*
X155066666Y-97049384D01*
X155068790Y-97063702D01*
X155069500Y-97078160D01*
X155069500Y-97373160D01*
X155068790Y-97387618D01*
X155066666Y-97401936D01*
X155063149Y-97415977D01*
X155058272Y-97429606D01*
X155052083Y-97442691D01*
X155044642Y-97455107D01*
X155036019Y-97466733D01*
X155026298Y-97477458D01*
X155015573Y-97487179D01*
X155003947Y-97495802D01*
X154991531Y-97503243D01*
X154978446Y-97509432D01*
X154964817Y-97514309D01*
X154950776Y-97517826D01*
X154936458Y-97519950D01*
X154922000Y-97520660D01*
X154577000Y-97520660D01*
X154562542Y-97519950D01*
X154548224Y-97517826D01*
X154534183Y-97514309D01*
X154520554Y-97509432D01*
X154507469Y-97503243D01*
X154495053Y-97495802D01*
X154483427Y-97487179D01*
X154472702Y-97477458D01*
X154462981Y-97466733D01*
X154454358Y-97455107D01*
X154446917Y-97442691D01*
X154440728Y-97429606D01*
X154435851Y-97415977D01*
X154432334Y-97401936D01*
X154430210Y-97387618D01*
X154429500Y-97373160D01*
X154429500Y-97078160D01*
X154430210Y-97063702D01*
X154432334Y-97049384D01*
X154435851Y-97035343D01*
X154440728Y-97021714D01*
X154446917Y-97008629D01*
X154454358Y-96996213D01*
X154462981Y-96984587D01*
X154472702Y-96973862D01*
X154483427Y-96964141D01*
X154495053Y-96955518D01*
X154507469Y-96948077D01*
X154520554Y-96941888D01*
X154534183Y-96937011D01*
X154548224Y-96933494D01*
X154562542Y-96931370D01*
X154577000Y-96930660D01*
X154922000Y-96930660D01*
X154936458Y-96931370D01*
G37*
G36*
X163502458Y-96060710D02*
G01*
X163516776Y-96062834D01*
X163530817Y-96066351D01*
X163544446Y-96071228D01*
X163557531Y-96077417D01*
X163569947Y-96084858D01*
X163581573Y-96093481D01*
X163592298Y-96103202D01*
X163602019Y-96113927D01*
X163610642Y-96125553D01*
X163618083Y-96137969D01*
X163624272Y-96151054D01*
X163629149Y-96164683D01*
X163632666Y-96178724D01*
X163634790Y-96193042D01*
X163635500Y-96207500D01*
X163635500Y-96552500D01*
X163634790Y-96566958D01*
X163632666Y-96581276D01*
X163629149Y-96595317D01*
X163624272Y-96608946D01*
X163618083Y-96622031D01*
X163610642Y-96634447D01*
X163602019Y-96646073D01*
X163592298Y-96656798D01*
X163581573Y-96666519D01*
X163569947Y-96675142D01*
X163557531Y-96682583D01*
X163544446Y-96688772D01*
X163530817Y-96693649D01*
X163516776Y-96697166D01*
X163502458Y-96699290D01*
X163488000Y-96700000D01*
X163193000Y-96700000D01*
X163178542Y-96699290D01*
X163164224Y-96697166D01*
X163150183Y-96693649D01*
X163136554Y-96688772D01*
X163123469Y-96682583D01*
X163111053Y-96675142D01*
X163099427Y-96666519D01*
X163088702Y-96656798D01*
X163078981Y-96646073D01*
X163070358Y-96634447D01*
X163062917Y-96622031D01*
X163056728Y-96608946D01*
X163051851Y-96595317D01*
X163048334Y-96581276D01*
X163046210Y-96566958D01*
X163045500Y-96552500D01*
X163045500Y-96207500D01*
X163046210Y-96193042D01*
X163048334Y-96178724D01*
X163051851Y-96164683D01*
X163056728Y-96151054D01*
X163062917Y-96137969D01*
X163070358Y-96125553D01*
X163078981Y-96113927D01*
X163088702Y-96103202D01*
X163099427Y-96093481D01*
X163111053Y-96084858D01*
X163123469Y-96077417D01*
X163136554Y-96071228D01*
X163150183Y-96066351D01*
X163164224Y-96062834D01*
X163178542Y-96060710D01*
X163193000Y-96060000D01*
X163488000Y-96060000D01*
X163502458Y-96060710D01*
G37*
G36*
X164472458Y-96060710D02*
G01*
X164486776Y-96062834D01*
X164500817Y-96066351D01*
X164514446Y-96071228D01*
X164527531Y-96077417D01*
X164539947Y-96084858D01*
X164551573Y-96093481D01*
X164562298Y-96103202D01*
X164572019Y-96113927D01*
X164580642Y-96125553D01*
X164588083Y-96137969D01*
X164594272Y-96151054D01*
X164599149Y-96164683D01*
X164602666Y-96178724D01*
X164604790Y-96193042D01*
X164605500Y-96207500D01*
X164605500Y-96552500D01*
X164604790Y-96566958D01*
X164602666Y-96581276D01*
X164599149Y-96595317D01*
X164594272Y-96608946D01*
X164588083Y-96622031D01*
X164580642Y-96634447D01*
X164572019Y-96646073D01*
X164562298Y-96656798D01*
X164551573Y-96666519D01*
X164539947Y-96675142D01*
X164527531Y-96682583D01*
X164514446Y-96688772D01*
X164500817Y-96693649D01*
X164486776Y-96697166D01*
X164472458Y-96699290D01*
X164458000Y-96700000D01*
X164163000Y-96700000D01*
X164148542Y-96699290D01*
X164134224Y-96697166D01*
X164120183Y-96693649D01*
X164106554Y-96688772D01*
X164093469Y-96682583D01*
X164081053Y-96675142D01*
X164069427Y-96666519D01*
X164058702Y-96656798D01*
X164048981Y-96646073D01*
X164040358Y-96634447D01*
X164032917Y-96622031D01*
X164026728Y-96608946D01*
X164021851Y-96595317D01*
X164018334Y-96581276D01*
X164016210Y-96566958D01*
X164015500Y-96552500D01*
X164015500Y-96207500D01*
X164016210Y-96193042D01*
X164018334Y-96178724D01*
X164021851Y-96164683D01*
X164026728Y-96151054D01*
X164032917Y-96137969D01*
X164040358Y-96125553D01*
X164048981Y-96113927D01*
X164058702Y-96103202D01*
X164069427Y-96093481D01*
X164081053Y-96084858D01*
X164093469Y-96077417D01*
X164106554Y-96071228D01*
X164120183Y-96066351D01*
X164134224Y-96062834D01*
X164148542Y-96060710D01*
X164163000Y-96060000D01*
X164458000Y-96060000D01*
X164472458Y-96060710D01*
G37*
G36*
X162302458Y-100440710D02*
G01*
X162316776Y-100442834D01*
X162330817Y-100446351D01*
X162344446Y-100451228D01*
X162357531Y-100457417D01*
X162369947Y-100464858D01*
X162381573Y-100473481D01*
X162392298Y-100483202D01*
X162402019Y-100493927D01*
X162410642Y-100505553D01*
X162418083Y-100517969D01*
X162424272Y-100531054D01*
X162429149Y-100544683D01*
X162432666Y-100558724D01*
X162434790Y-100573042D01*
X162435500Y-100587500D01*
X162435500Y-100882500D01*
X162434790Y-100896958D01*
X162432666Y-100911276D01*
X162429149Y-100925317D01*
X162424272Y-100938946D01*
X162418083Y-100952031D01*
X162410642Y-100964447D01*
X162402019Y-100976073D01*
X162392298Y-100986798D01*
X162381573Y-100996519D01*
X162369947Y-101005142D01*
X162357531Y-101012583D01*
X162344446Y-101018772D01*
X162330817Y-101023649D01*
X162316776Y-101027166D01*
X162302458Y-101029290D01*
X162288000Y-101030000D01*
X161943000Y-101030000D01*
X161928542Y-101029290D01*
X161914224Y-101027166D01*
X161900183Y-101023649D01*
X161886554Y-101018772D01*
X161873469Y-101012583D01*
X161861053Y-101005142D01*
X161849427Y-100996519D01*
X161838702Y-100986798D01*
X161828981Y-100976073D01*
X161820358Y-100964447D01*
X161812917Y-100952031D01*
X161806728Y-100938946D01*
X161801851Y-100925317D01*
X161798334Y-100911276D01*
X161796210Y-100896958D01*
X161795500Y-100882500D01*
X161795500Y-100587500D01*
X161796210Y-100573042D01*
X161798334Y-100558724D01*
X161801851Y-100544683D01*
X161806728Y-100531054D01*
X161812917Y-100517969D01*
X161820358Y-100505553D01*
X161828981Y-100493927D01*
X161838702Y-100483202D01*
X161849427Y-100473481D01*
X161861053Y-100464858D01*
X161873469Y-100457417D01*
X161886554Y-100451228D01*
X161900183Y-100446351D01*
X161914224Y-100442834D01*
X161928542Y-100440710D01*
X161943000Y-100440000D01*
X162288000Y-100440000D01*
X162302458Y-100440710D01*
G37*
G36*
X162302458Y-99470710D02*
G01*
X162316776Y-99472834D01*
X162330817Y-99476351D01*
X162344446Y-99481228D01*
X162357531Y-99487417D01*
X162369947Y-99494858D01*
X162381573Y-99503481D01*
X162392298Y-99513202D01*
X162402019Y-99523927D01*
X162410642Y-99535553D01*
X162418083Y-99547969D01*
X162424272Y-99561054D01*
X162429149Y-99574683D01*
X162432666Y-99588724D01*
X162434790Y-99603042D01*
X162435500Y-99617500D01*
X162435500Y-99912500D01*
X162434790Y-99926958D01*
X162432666Y-99941276D01*
X162429149Y-99955317D01*
X162424272Y-99968946D01*
X162418083Y-99982031D01*
X162410642Y-99994447D01*
X162402019Y-100006073D01*
X162392298Y-100016798D01*
X162381573Y-100026519D01*
X162369947Y-100035142D01*
X162357531Y-100042583D01*
X162344446Y-100048772D01*
X162330817Y-100053649D01*
X162316776Y-100057166D01*
X162302458Y-100059290D01*
X162288000Y-100060000D01*
X161943000Y-100060000D01*
X161928542Y-100059290D01*
X161914224Y-100057166D01*
X161900183Y-100053649D01*
X161886554Y-100048772D01*
X161873469Y-100042583D01*
X161861053Y-100035142D01*
X161849427Y-100026519D01*
X161838702Y-100016798D01*
X161828981Y-100006073D01*
X161820358Y-99994447D01*
X161812917Y-99982031D01*
X161806728Y-99968946D01*
X161801851Y-99955317D01*
X161798334Y-99941276D01*
X161796210Y-99926958D01*
X161795500Y-99912500D01*
X161795500Y-99617500D01*
X161796210Y-99603042D01*
X161798334Y-99588724D01*
X161801851Y-99574683D01*
X161806728Y-99561054D01*
X161812917Y-99547969D01*
X161820358Y-99535553D01*
X161828981Y-99523927D01*
X161838702Y-99513202D01*
X161849427Y-99503481D01*
X161861053Y-99494858D01*
X161873469Y-99487417D01*
X161886554Y-99481228D01*
X161900183Y-99476351D01*
X161914224Y-99472834D01*
X161928542Y-99470710D01*
X161943000Y-99470000D01*
X162288000Y-99470000D01*
X162302458Y-99470710D01*
G37*
G36*
X163567958Y-99474210D02*
G01*
X163582276Y-99476334D01*
X163596317Y-99479851D01*
X163609946Y-99484728D01*
X163623031Y-99490917D01*
X163635447Y-99498358D01*
X163647073Y-99506981D01*
X163657798Y-99516702D01*
X163667519Y-99527427D01*
X163676142Y-99539053D01*
X163683583Y-99551469D01*
X163689772Y-99564554D01*
X163694649Y-99578183D01*
X163698166Y-99592224D01*
X163700290Y-99606542D01*
X163701000Y-99621000D01*
X163701000Y-99916000D01*
X163700290Y-99930458D01*
X163698166Y-99944776D01*
X163694649Y-99958817D01*
X163689772Y-99972446D01*
X163683583Y-99985531D01*
X163676142Y-99997947D01*
X163667519Y-100009573D01*
X163657798Y-100020298D01*
X163647073Y-100030019D01*
X163635447Y-100038642D01*
X163623031Y-100046083D01*
X163609946Y-100052272D01*
X163596317Y-100057149D01*
X163582276Y-100060666D01*
X163567958Y-100062790D01*
X163553500Y-100063500D01*
X163208500Y-100063500D01*
X163194042Y-100062790D01*
X163179724Y-100060666D01*
X163165683Y-100057149D01*
X163152054Y-100052272D01*
X163138969Y-100046083D01*
X163126553Y-100038642D01*
X163114927Y-100030019D01*
X163104202Y-100020298D01*
X163094481Y-100009573D01*
X163085858Y-99997947D01*
X163078417Y-99985531D01*
X163072228Y-99972446D01*
X163067351Y-99958817D01*
X163063834Y-99944776D01*
X163061710Y-99930458D01*
X163061000Y-99916000D01*
X163061000Y-99621000D01*
X163061710Y-99606542D01*
X163063834Y-99592224D01*
X163067351Y-99578183D01*
X163072228Y-99564554D01*
X163078417Y-99551469D01*
X163085858Y-99539053D01*
X163094481Y-99527427D01*
X163104202Y-99516702D01*
X163114927Y-99506981D01*
X163126553Y-99498358D01*
X163138969Y-99490917D01*
X163152054Y-99484728D01*
X163165683Y-99479851D01*
X163179724Y-99476334D01*
X163194042Y-99474210D01*
X163208500Y-99473500D01*
X163553500Y-99473500D01*
X163567958Y-99474210D01*
G37*
G36*
X163567958Y-100444210D02*
G01*
X163582276Y-100446334D01*
X163596317Y-100449851D01*
X163609946Y-100454728D01*
X163623031Y-100460917D01*
X163635447Y-100468358D01*
X163647073Y-100476981D01*
X163657798Y-100486702D01*
X163667519Y-100497427D01*
X163676142Y-100509053D01*
X163683583Y-100521469D01*
X163689772Y-100534554D01*
X163694649Y-100548183D01*
X163698166Y-100562224D01*
X163700290Y-100576542D01*
X163701000Y-100591000D01*
X163701000Y-100886000D01*
X163700290Y-100900458D01*
X163698166Y-100914776D01*
X163694649Y-100928817D01*
X163689772Y-100942446D01*
X163683583Y-100955531D01*
X163676142Y-100967947D01*
X163667519Y-100979573D01*
X163657798Y-100990298D01*
X163647073Y-101000019D01*
X163635447Y-101008642D01*
X163623031Y-101016083D01*
X163609946Y-101022272D01*
X163596317Y-101027149D01*
X163582276Y-101030666D01*
X163567958Y-101032790D01*
X163553500Y-101033500D01*
X163208500Y-101033500D01*
X163194042Y-101032790D01*
X163179724Y-101030666D01*
X163165683Y-101027149D01*
X163152054Y-101022272D01*
X163138969Y-101016083D01*
X163126553Y-101008642D01*
X163114927Y-101000019D01*
X163104202Y-100990298D01*
X163094481Y-100979573D01*
X163085858Y-100967947D01*
X163078417Y-100955531D01*
X163072228Y-100942446D01*
X163067351Y-100928817D01*
X163063834Y-100914776D01*
X163061710Y-100900458D01*
X163061000Y-100886000D01*
X163061000Y-100591000D01*
X163061710Y-100576542D01*
X163063834Y-100562224D01*
X163067351Y-100548183D01*
X163072228Y-100534554D01*
X163078417Y-100521469D01*
X163085858Y-100509053D01*
X163094481Y-100497427D01*
X163104202Y-100486702D01*
X163114927Y-100476981D01*
X163126553Y-100468358D01*
X163138969Y-100460917D01*
X163152054Y-100454728D01*
X163165683Y-100449851D01*
X163179724Y-100446334D01*
X163194042Y-100444210D01*
X163208500Y-100443500D01*
X163553500Y-100443500D01*
X163567958Y-100444210D01*
G37*
G36*
X161086958Y-99470710D02*
G01*
X161101276Y-99472834D01*
X161115317Y-99476351D01*
X161128946Y-99481228D01*
X161142031Y-99487417D01*
X161154447Y-99494858D01*
X161166073Y-99503481D01*
X161176798Y-99513202D01*
X161186519Y-99523927D01*
X161195142Y-99535553D01*
X161202583Y-99547969D01*
X161208772Y-99561054D01*
X161213649Y-99574683D01*
X161217166Y-99588724D01*
X161219290Y-99603042D01*
X161220000Y-99617500D01*
X161220000Y-99912500D01*
X161219290Y-99926958D01*
X161217166Y-99941276D01*
X161213649Y-99955317D01*
X161208772Y-99968946D01*
X161202583Y-99982031D01*
X161195142Y-99994447D01*
X161186519Y-100006073D01*
X161176798Y-100016798D01*
X161166073Y-100026519D01*
X161154447Y-100035142D01*
X161142031Y-100042583D01*
X161128946Y-100048772D01*
X161115317Y-100053649D01*
X161101276Y-100057166D01*
X161086958Y-100059290D01*
X161072500Y-100060000D01*
X160727500Y-100060000D01*
X160713042Y-100059290D01*
X160698724Y-100057166D01*
X160684683Y-100053649D01*
X160671054Y-100048772D01*
X160657969Y-100042583D01*
X160645553Y-100035142D01*
X160633927Y-100026519D01*
X160623202Y-100016798D01*
X160613481Y-100006073D01*
X160604858Y-99994447D01*
X160597417Y-99982031D01*
X160591228Y-99968946D01*
X160586351Y-99955317D01*
X160582834Y-99941276D01*
X160580710Y-99926958D01*
X160580000Y-99912500D01*
X160580000Y-99617500D01*
X160580710Y-99603042D01*
X160582834Y-99588724D01*
X160586351Y-99574683D01*
X160591228Y-99561054D01*
X160597417Y-99547969D01*
X160604858Y-99535553D01*
X160613481Y-99523927D01*
X160623202Y-99513202D01*
X160633927Y-99503481D01*
X160645553Y-99494858D01*
X160657969Y-99487417D01*
X160671054Y-99481228D01*
X160684683Y-99476351D01*
X160698724Y-99472834D01*
X160713042Y-99470710D01*
X160727500Y-99470000D01*
X161072500Y-99470000D01*
X161086958Y-99470710D01*
G37*
G36*
X161086958Y-100440710D02*
G01*
X161101276Y-100442834D01*
X161115317Y-100446351D01*
X161128946Y-100451228D01*
X161142031Y-100457417D01*
X161154447Y-100464858D01*
X161166073Y-100473481D01*
X161176798Y-100483202D01*
X161186519Y-100493927D01*
X161195142Y-100505553D01*
X161202583Y-100517969D01*
X161208772Y-100531054D01*
X161213649Y-100544683D01*
X161217166Y-100558724D01*
X161219290Y-100573042D01*
X161220000Y-100587500D01*
X161220000Y-100882500D01*
X161219290Y-100896958D01*
X161217166Y-100911276D01*
X161213649Y-100925317D01*
X161208772Y-100938946D01*
X161202583Y-100952031D01*
X161195142Y-100964447D01*
X161186519Y-100976073D01*
X161176798Y-100986798D01*
X161166073Y-100996519D01*
X161154447Y-101005142D01*
X161142031Y-101012583D01*
X161128946Y-101018772D01*
X161115317Y-101023649D01*
X161101276Y-101027166D01*
X161086958Y-101029290D01*
X161072500Y-101030000D01*
X160727500Y-101030000D01*
X160713042Y-101029290D01*
X160698724Y-101027166D01*
X160684683Y-101023649D01*
X160671054Y-101018772D01*
X160657969Y-101012583D01*
X160645553Y-101005142D01*
X160633927Y-100996519D01*
X160623202Y-100986798D01*
X160613481Y-100976073D01*
X160604858Y-100964447D01*
X160597417Y-100952031D01*
X160591228Y-100938946D01*
X160586351Y-100925317D01*
X160582834Y-100911276D01*
X160580710Y-100896958D01*
X160580000Y-100882500D01*
X160580000Y-100587500D01*
X160580710Y-100573042D01*
X160582834Y-100558724D01*
X160586351Y-100544683D01*
X160591228Y-100531054D01*
X160597417Y-100517969D01*
X160604858Y-100505553D01*
X160613481Y-100493927D01*
X160623202Y-100483202D01*
X160633927Y-100473481D01*
X160645553Y-100464858D01*
X160657969Y-100457417D01*
X160671054Y-100451228D01*
X160684683Y-100446351D01*
X160698724Y-100442834D01*
X160713042Y-100440710D01*
X160727500Y-100440000D01*
X161072500Y-100440000D01*
X161086958Y-100440710D01*
G37*
G36*
X163567958Y-97518710D02*
G01*
X163582276Y-97520834D01*
X163596317Y-97524351D01*
X163609946Y-97529228D01*
X163623031Y-97535417D01*
X163635447Y-97542858D01*
X163647073Y-97551481D01*
X163657798Y-97561202D01*
X163667519Y-97571927D01*
X163676142Y-97583553D01*
X163683583Y-97595969D01*
X163689772Y-97609054D01*
X163694649Y-97622683D01*
X163698166Y-97636724D01*
X163700290Y-97651042D01*
X163701000Y-97665500D01*
X163701000Y-97960500D01*
X163700290Y-97974958D01*
X163698166Y-97989276D01*
X163694649Y-98003317D01*
X163689772Y-98016946D01*
X163683583Y-98030031D01*
X163676142Y-98042447D01*
X163667519Y-98054073D01*
X163657798Y-98064798D01*
X163647073Y-98074519D01*
X163635447Y-98083142D01*
X163623031Y-98090583D01*
X163609946Y-98096772D01*
X163596317Y-98101649D01*
X163582276Y-98105166D01*
X163567958Y-98107290D01*
X163553500Y-98108000D01*
X163208500Y-98108000D01*
X163194042Y-98107290D01*
X163179724Y-98105166D01*
X163165683Y-98101649D01*
X163152054Y-98096772D01*
X163138969Y-98090583D01*
X163126553Y-98083142D01*
X163114927Y-98074519D01*
X163104202Y-98064798D01*
X163094481Y-98054073D01*
X163085858Y-98042447D01*
X163078417Y-98030031D01*
X163072228Y-98016946D01*
X163067351Y-98003317D01*
X163063834Y-97989276D01*
X163061710Y-97974958D01*
X163061000Y-97960500D01*
X163061000Y-97665500D01*
X163061710Y-97651042D01*
X163063834Y-97636724D01*
X163067351Y-97622683D01*
X163072228Y-97609054D01*
X163078417Y-97595969D01*
X163085858Y-97583553D01*
X163094481Y-97571927D01*
X163104202Y-97561202D01*
X163114927Y-97551481D01*
X163126553Y-97542858D01*
X163138969Y-97535417D01*
X163152054Y-97529228D01*
X163165683Y-97524351D01*
X163179724Y-97520834D01*
X163194042Y-97518710D01*
X163208500Y-97518000D01*
X163553500Y-97518000D01*
X163567958Y-97518710D01*
G37*
G36*
X163567958Y-98488710D02*
G01*
X163582276Y-98490834D01*
X163596317Y-98494351D01*
X163609946Y-98499228D01*
X163623031Y-98505417D01*
X163635447Y-98512858D01*
X163647073Y-98521481D01*
X163657798Y-98531202D01*
X163667519Y-98541927D01*
X163676142Y-98553553D01*
X163683583Y-98565969D01*
X163689772Y-98579054D01*
X163694649Y-98592683D01*
X163698166Y-98606724D01*
X163700290Y-98621042D01*
X163701000Y-98635500D01*
X163701000Y-98930500D01*
X163700290Y-98944958D01*
X163698166Y-98959276D01*
X163694649Y-98973317D01*
X163689772Y-98986946D01*
X163683583Y-99000031D01*
X163676142Y-99012447D01*
X163667519Y-99024073D01*
X163657798Y-99034798D01*
X163647073Y-99044519D01*
X163635447Y-99053142D01*
X163623031Y-99060583D01*
X163609946Y-99066772D01*
X163596317Y-99071649D01*
X163582276Y-99075166D01*
X163567958Y-99077290D01*
X163553500Y-99078000D01*
X163208500Y-99078000D01*
X163194042Y-99077290D01*
X163179724Y-99075166D01*
X163165683Y-99071649D01*
X163152054Y-99066772D01*
X163138969Y-99060583D01*
X163126553Y-99053142D01*
X163114927Y-99044519D01*
X163104202Y-99034798D01*
X163094481Y-99024073D01*
X163085858Y-99012447D01*
X163078417Y-99000031D01*
X163072228Y-98986946D01*
X163067351Y-98973317D01*
X163063834Y-98959276D01*
X163061710Y-98944958D01*
X163061000Y-98930500D01*
X163061000Y-98635500D01*
X163061710Y-98621042D01*
X163063834Y-98606724D01*
X163067351Y-98592683D01*
X163072228Y-98579054D01*
X163078417Y-98565969D01*
X163085858Y-98553553D01*
X163094481Y-98541927D01*
X163104202Y-98531202D01*
X163114927Y-98521481D01*
X163126553Y-98512858D01*
X163138969Y-98505417D01*
X163152054Y-98499228D01*
X163165683Y-98494351D01*
X163179724Y-98490834D01*
X163194042Y-98488710D01*
X163208500Y-98488000D01*
X163553500Y-98488000D01*
X163567958Y-98488710D01*
G37*
G36*
X160397458Y-92044710D02*
G01*
X160411776Y-92046834D01*
X160425817Y-92050351D01*
X160439446Y-92055228D01*
X160452531Y-92061417D01*
X160464947Y-92068858D01*
X160476573Y-92077481D01*
X160487298Y-92087202D01*
X160497019Y-92097927D01*
X160505642Y-92109553D01*
X160513083Y-92121969D01*
X160519272Y-92135054D01*
X160524149Y-92148683D01*
X160527666Y-92162724D01*
X160529790Y-92177042D01*
X160530500Y-92191500D01*
X160530500Y-92486500D01*
X160529790Y-92500958D01*
X160527666Y-92515276D01*
X160524149Y-92529317D01*
X160519272Y-92542946D01*
X160513083Y-92556031D01*
X160505642Y-92568447D01*
X160497019Y-92580073D01*
X160487298Y-92590798D01*
X160476573Y-92600519D01*
X160464947Y-92609142D01*
X160452531Y-92616583D01*
X160439446Y-92622772D01*
X160425817Y-92627649D01*
X160411776Y-92631166D01*
X160397458Y-92633290D01*
X160383000Y-92634000D01*
X160038000Y-92634000D01*
X160023542Y-92633290D01*
X160009224Y-92631166D01*
X159995183Y-92627649D01*
X159981554Y-92622772D01*
X159968469Y-92616583D01*
X159956053Y-92609142D01*
X159944427Y-92600519D01*
X159933702Y-92590798D01*
X159923981Y-92580073D01*
X159915358Y-92568447D01*
X159907917Y-92556031D01*
X159901728Y-92542946D01*
X159896851Y-92529317D01*
X159893334Y-92515276D01*
X159891210Y-92500958D01*
X159890500Y-92486500D01*
X159890500Y-92191500D01*
X159891210Y-92177042D01*
X159893334Y-92162724D01*
X159896851Y-92148683D01*
X159901728Y-92135054D01*
X159907917Y-92121969D01*
X159915358Y-92109553D01*
X159923981Y-92097927D01*
X159933702Y-92087202D01*
X159944427Y-92077481D01*
X159956053Y-92068858D01*
X159968469Y-92061417D01*
X159981554Y-92055228D01*
X159995183Y-92050351D01*
X160009224Y-92046834D01*
X160023542Y-92044710D01*
X160038000Y-92044000D01*
X160383000Y-92044000D01*
X160397458Y-92044710D01*
G37*
G36*
X160397458Y-93014710D02*
G01*
X160411776Y-93016834D01*
X160425817Y-93020351D01*
X160439446Y-93025228D01*
X160452531Y-93031417D01*
X160464947Y-93038858D01*
X160476573Y-93047481D01*
X160487298Y-93057202D01*
X160497019Y-93067927D01*
X160505642Y-93079553D01*
X160513083Y-93091969D01*
X160519272Y-93105054D01*
X160524149Y-93118683D01*
X160527666Y-93132724D01*
X160529790Y-93147042D01*
X160530500Y-93161500D01*
X160530500Y-93456500D01*
X160529790Y-93470958D01*
X160527666Y-93485276D01*
X160524149Y-93499317D01*
X160519272Y-93512946D01*
X160513083Y-93526031D01*
X160505642Y-93538447D01*
X160497019Y-93550073D01*
X160487298Y-93560798D01*
X160476573Y-93570519D01*
X160464947Y-93579142D01*
X160452531Y-93586583D01*
X160439446Y-93592772D01*
X160425817Y-93597649D01*
X160411776Y-93601166D01*
X160397458Y-93603290D01*
X160383000Y-93604000D01*
X160038000Y-93604000D01*
X160023542Y-93603290D01*
X160009224Y-93601166D01*
X159995183Y-93597649D01*
X159981554Y-93592772D01*
X159968469Y-93586583D01*
X159956053Y-93579142D01*
X159944427Y-93570519D01*
X159933702Y-93560798D01*
X159923981Y-93550073D01*
X159915358Y-93538447D01*
X159907917Y-93526031D01*
X159901728Y-93512946D01*
X159896851Y-93499317D01*
X159893334Y-93485276D01*
X159891210Y-93470958D01*
X159890500Y-93456500D01*
X159890500Y-93161500D01*
X159891210Y-93147042D01*
X159893334Y-93132724D01*
X159896851Y-93118683D01*
X159901728Y-93105054D01*
X159907917Y-93091969D01*
X159915358Y-93079553D01*
X159923981Y-93067927D01*
X159933702Y-93057202D01*
X159944427Y-93047481D01*
X159956053Y-93038858D01*
X159968469Y-93031417D01*
X159981554Y-93025228D01*
X159995183Y-93020351D01*
X160009224Y-93016834D01*
X160023542Y-93014710D01*
X160038000Y-93014000D01*
X160383000Y-93014000D01*
X160397458Y-93014710D01*
G37*
G36*
X163889958Y-92990710D02*
G01*
X163904276Y-92992834D01*
X163918317Y-92996351D01*
X163931946Y-93001228D01*
X163945031Y-93007417D01*
X163957447Y-93014858D01*
X163969073Y-93023481D01*
X163979798Y-93033202D01*
X163989519Y-93043927D01*
X163998142Y-93055553D01*
X164005583Y-93067969D01*
X164011772Y-93081054D01*
X164016649Y-93094683D01*
X164020166Y-93108724D01*
X164022290Y-93123042D01*
X164023000Y-93137500D01*
X164023000Y-93432500D01*
X164022290Y-93446958D01*
X164020166Y-93461276D01*
X164016649Y-93475317D01*
X164011772Y-93488946D01*
X164005583Y-93502031D01*
X163998142Y-93514447D01*
X163989519Y-93526073D01*
X163979798Y-93536798D01*
X163969073Y-93546519D01*
X163957447Y-93555142D01*
X163945031Y-93562583D01*
X163931946Y-93568772D01*
X163918317Y-93573649D01*
X163904276Y-93577166D01*
X163889958Y-93579290D01*
X163875500Y-93580000D01*
X163530500Y-93580000D01*
X163516042Y-93579290D01*
X163501724Y-93577166D01*
X163487683Y-93573649D01*
X163474054Y-93568772D01*
X163460969Y-93562583D01*
X163448553Y-93555142D01*
X163436927Y-93546519D01*
X163426202Y-93536798D01*
X163416481Y-93526073D01*
X163407858Y-93514447D01*
X163400417Y-93502031D01*
X163394228Y-93488946D01*
X163389351Y-93475317D01*
X163385834Y-93461276D01*
X163383710Y-93446958D01*
X163383000Y-93432500D01*
X163383000Y-93137500D01*
X163383710Y-93123042D01*
X163385834Y-93108724D01*
X163389351Y-93094683D01*
X163394228Y-93081054D01*
X163400417Y-93067969D01*
X163407858Y-93055553D01*
X163416481Y-93043927D01*
X163426202Y-93033202D01*
X163436927Y-93023481D01*
X163448553Y-93014858D01*
X163460969Y-93007417D01*
X163474054Y-93001228D01*
X163487683Y-92996351D01*
X163501724Y-92992834D01*
X163516042Y-92990710D01*
X163530500Y-92990000D01*
X163875500Y-92990000D01*
X163889958Y-92990710D01*
G37*
G36*
X163889958Y-92020710D02*
G01*
X163904276Y-92022834D01*
X163918317Y-92026351D01*
X163931946Y-92031228D01*
X163945031Y-92037417D01*
X163957447Y-92044858D01*
X163969073Y-92053481D01*
X163979798Y-92063202D01*
X163989519Y-92073927D01*
X163998142Y-92085553D01*
X164005583Y-92097969D01*
X164011772Y-92111054D01*
X164016649Y-92124683D01*
X164020166Y-92138724D01*
X164022290Y-92153042D01*
X164023000Y-92167500D01*
X164023000Y-92462500D01*
X164022290Y-92476958D01*
X164020166Y-92491276D01*
X164016649Y-92505317D01*
X164011772Y-92518946D01*
X164005583Y-92532031D01*
X163998142Y-92544447D01*
X163989519Y-92556073D01*
X163979798Y-92566798D01*
X163969073Y-92576519D01*
X163957447Y-92585142D01*
X163945031Y-92592583D01*
X163931946Y-92598772D01*
X163918317Y-92603649D01*
X163904276Y-92607166D01*
X163889958Y-92609290D01*
X163875500Y-92610000D01*
X163530500Y-92610000D01*
X163516042Y-92609290D01*
X163501724Y-92607166D01*
X163487683Y-92603649D01*
X163474054Y-92598772D01*
X163460969Y-92592583D01*
X163448553Y-92585142D01*
X163436927Y-92576519D01*
X163426202Y-92566798D01*
X163416481Y-92556073D01*
X163407858Y-92544447D01*
X163400417Y-92532031D01*
X163394228Y-92518946D01*
X163389351Y-92505317D01*
X163385834Y-92491276D01*
X163383710Y-92476958D01*
X163383000Y-92462500D01*
X163383000Y-92167500D01*
X163383710Y-92153042D01*
X163385834Y-92138724D01*
X163389351Y-92124683D01*
X163394228Y-92111054D01*
X163400417Y-92097969D01*
X163407858Y-92085553D01*
X163416481Y-92073927D01*
X163426202Y-92063202D01*
X163436927Y-92053481D01*
X163448553Y-92044858D01*
X163460969Y-92037417D01*
X163474054Y-92031228D01*
X163487683Y-92026351D01*
X163501724Y-92022834D01*
X163516042Y-92020710D01*
X163530500Y-92020000D01*
X163875500Y-92020000D01*
X163889958Y-92020710D01*
G37*
G36*
X161093958Y-84389710D02*
G01*
X161108276Y-84391834D01*
X161122317Y-84395351D01*
X161135946Y-84400228D01*
X161149031Y-84406417D01*
X161161447Y-84413858D01*
X161173073Y-84422481D01*
X161183798Y-84432202D01*
X161193519Y-84442927D01*
X161202142Y-84454553D01*
X161209583Y-84466969D01*
X161215772Y-84480054D01*
X161220649Y-84493683D01*
X161224166Y-84507724D01*
X161226290Y-84522042D01*
X161227000Y-84536500D01*
X161227000Y-84881500D01*
X161226290Y-84895958D01*
X161224166Y-84910276D01*
X161220649Y-84924317D01*
X161215772Y-84937946D01*
X161209583Y-84951031D01*
X161202142Y-84963447D01*
X161193519Y-84975073D01*
X161183798Y-84985798D01*
X161173073Y-84995519D01*
X161161447Y-85004142D01*
X161149031Y-85011583D01*
X161135946Y-85017772D01*
X161122317Y-85022649D01*
X161108276Y-85026166D01*
X161093958Y-85028290D01*
X161079500Y-85029000D01*
X160784500Y-85029000D01*
X160770042Y-85028290D01*
X160755724Y-85026166D01*
X160741683Y-85022649D01*
X160728054Y-85017772D01*
X160714969Y-85011583D01*
X160702553Y-85004142D01*
X160690927Y-84995519D01*
X160680202Y-84985798D01*
X160670481Y-84975073D01*
X160661858Y-84963447D01*
X160654417Y-84951031D01*
X160648228Y-84937946D01*
X160643351Y-84924317D01*
X160639834Y-84910276D01*
X160637710Y-84895958D01*
X160637000Y-84881500D01*
X160637000Y-84536500D01*
X160637710Y-84522042D01*
X160639834Y-84507724D01*
X160643351Y-84493683D01*
X160648228Y-84480054D01*
X160654417Y-84466969D01*
X160661858Y-84454553D01*
X160670481Y-84442927D01*
X160680202Y-84432202D01*
X160690927Y-84422481D01*
X160702553Y-84413858D01*
X160714969Y-84406417D01*
X160728054Y-84400228D01*
X160741683Y-84395351D01*
X160755724Y-84391834D01*
X160770042Y-84389710D01*
X160784500Y-84389000D01*
X161079500Y-84389000D01*
X161093958Y-84389710D01*
G37*
G36*
X162063958Y-84389710D02*
G01*
X162078276Y-84391834D01*
X162092317Y-84395351D01*
X162105946Y-84400228D01*
X162119031Y-84406417D01*
X162131447Y-84413858D01*
X162143073Y-84422481D01*
X162153798Y-84432202D01*
X162163519Y-84442927D01*
X162172142Y-84454553D01*
X162179583Y-84466969D01*
X162185772Y-84480054D01*
X162190649Y-84493683D01*
X162194166Y-84507724D01*
X162196290Y-84522042D01*
X162197000Y-84536500D01*
X162197000Y-84881500D01*
X162196290Y-84895958D01*
X162194166Y-84910276D01*
X162190649Y-84924317D01*
X162185772Y-84937946D01*
X162179583Y-84951031D01*
X162172142Y-84963447D01*
X162163519Y-84975073D01*
X162153798Y-84985798D01*
X162143073Y-84995519D01*
X162131447Y-85004142D01*
X162119031Y-85011583D01*
X162105946Y-85017772D01*
X162092317Y-85022649D01*
X162078276Y-85026166D01*
X162063958Y-85028290D01*
X162049500Y-85029000D01*
X161754500Y-85029000D01*
X161740042Y-85028290D01*
X161725724Y-85026166D01*
X161711683Y-85022649D01*
X161698054Y-85017772D01*
X161684969Y-85011583D01*
X161672553Y-85004142D01*
X161660927Y-84995519D01*
X161650202Y-84985798D01*
X161640481Y-84975073D01*
X161631858Y-84963447D01*
X161624417Y-84951031D01*
X161618228Y-84937946D01*
X161613351Y-84924317D01*
X161609834Y-84910276D01*
X161607710Y-84895958D01*
X161607000Y-84881500D01*
X161607000Y-84536500D01*
X161607710Y-84522042D01*
X161609834Y-84507724D01*
X161613351Y-84493683D01*
X161618228Y-84480054D01*
X161624417Y-84466969D01*
X161631858Y-84454553D01*
X161640481Y-84442927D01*
X161650202Y-84432202D01*
X161660927Y-84422481D01*
X161672553Y-84413858D01*
X161684969Y-84406417D01*
X161698054Y-84400228D01*
X161711683Y-84395351D01*
X161725724Y-84391834D01*
X161740042Y-84389710D01*
X161754500Y-84389000D01*
X162049500Y-84389000D01*
X162063958Y-84389710D01*
G37*
G36*
X160331958Y-85659710D02*
G01*
X160346276Y-85661834D01*
X160360317Y-85665351D01*
X160373946Y-85670228D01*
X160387031Y-85676417D01*
X160399447Y-85683858D01*
X160411073Y-85692481D01*
X160421798Y-85702202D01*
X160431519Y-85712927D01*
X160440142Y-85724553D01*
X160447583Y-85736969D01*
X160453772Y-85750054D01*
X160458649Y-85763683D01*
X160462166Y-85777724D01*
X160464290Y-85792042D01*
X160465000Y-85806500D01*
X160465000Y-86151500D01*
X160464290Y-86165958D01*
X160462166Y-86180276D01*
X160458649Y-86194317D01*
X160453772Y-86207946D01*
X160447583Y-86221031D01*
X160440142Y-86233447D01*
X160431519Y-86245073D01*
X160421798Y-86255798D01*
X160411073Y-86265519D01*
X160399447Y-86274142D01*
X160387031Y-86281583D01*
X160373946Y-86287772D01*
X160360317Y-86292649D01*
X160346276Y-86296166D01*
X160331958Y-86298290D01*
X160317500Y-86299000D01*
X160022500Y-86299000D01*
X160008042Y-86298290D01*
X159993724Y-86296166D01*
X159979683Y-86292649D01*
X159966054Y-86287772D01*
X159952969Y-86281583D01*
X159940553Y-86274142D01*
X159928927Y-86265519D01*
X159918202Y-86255798D01*
X159908481Y-86245073D01*
X159899858Y-86233447D01*
X159892417Y-86221031D01*
X159886228Y-86207946D01*
X159881351Y-86194317D01*
X159877834Y-86180276D01*
X159875710Y-86165958D01*
X159875000Y-86151500D01*
X159875000Y-85806500D01*
X159875710Y-85792042D01*
X159877834Y-85777724D01*
X159881351Y-85763683D01*
X159886228Y-85750054D01*
X159892417Y-85736969D01*
X159899858Y-85724553D01*
X159908481Y-85712927D01*
X159918202Y-85702202D01*
X159928927Y-85692481D01*
X159940553Y-85683858D01*
X159952969Y-85676417D01*
X159966054Y-85670228D01*
X159979683Y-85665351D01*
X159993724Y-85661834D01*
X160008042Y-85659710D01*
X160022500Y-85659000D01*
X160317500Y-85659000D01*
X160331958Y-85659710D01*
G37*
G36*
X161301958Y-85659710D02*
G01*
X161316276Y-85661834D01*
X161330317Y-85665351D01*
X161343946Y-85670228D01*
X161357031Y-85676417D01*
X161369447Y-85683858D01*
X161381073Y-85692481D01*
X161391798Y-85702202D01*
X161401519Y-85712927D01*
X161410142Y-85724553D01*
X161417583Y-85736969D01*
X161423772Y-85750054D01*
X161428649Y-85763683D01*
X161432166Y-85777724D01*
X161434290Y-85792042D01*
X161435000Y-85806500D01*
X161435000Y-86151500D01*
X161434290Y-86165958D01*
X161432166Y-86180276D01*
X161428649Y-86194317D01*
X161423772Y-86207946D01*
X161417583Y-86221031D01*
X161410142Y-86233447D01*
X161401519Y-86245073D01*
X161391798Y-86255798D01*
X161381073Y-86265519D01*
X161369447Y-86274142D01*
X161357031Y-86281583D01*
X161343946Y-86287772D01*
X161330317Y-86292649D01*
X161316276Y-86296166D01*
X161301958Y-86298290D01*
X161287500Y-86299000D01*
X160992500Y-86299000D01*
X160978042Y-86298290D01*
X160963724Y-86296166D01*
X160949683Y-86292649D01*
X160936054Y-86287772D01*
X160922969Y-86281583D01*
X160910553Y-86274142D01*
X160898927Y-86265519D01*
X160888202Y-86255798D01*
X160878481Y-86245073D01*
X160869858Y-86233447D01*
X160862417Y-86221031D01*
X160856228Y-86207946D01*
X160851351Y-86194317D01*
X160847834Y-86180276D01*
X160845710Y-86165958D01*
X160845000Y-86151500D01*
X160845000Y-85806500D01*
X160845710Y-85792042D01*
X160847834Y-85777724D01*
X160851351Y-85763683D01*
X160856228Y-85750054D01*
X160862417Y-85736969D01*
X160869858Y-85724553D01*
X160878481Y-85712927D01*
X160888202Y-85702202D01*
X160898927Y-85692481D01*
X160910553Y-85683858D01*
X160922969Y-85676417D01*
X160936054Y-85670228D01*
X160949683Y-85665351D01*
X160963724Y-85661834D01*
X160978042Y-85659710D01*
X160992500Y-85659000D01*
X161287500Y-85659000D01*
X161301958Y-85659710D01*
G37*
G36*
X160011958Y-100444210D02*
G01*
X160026276Y-100446334D01*
X160040317Y-100449851D01*
X160053946Y-100454728D01*
X160067031Y-100460917D01*
X160079447Y-100468358D01*
X160091073Y-100476981D01*
X160101798Y-100486702D01*
X160111519Y-100497427D01*
X160120142Y-100509053D01*
X160127583Y-100521469D01*
X160133772Y-100534554D01*
X160138649Y-100548183D01*
X160142166Y-100562224D01*
X160144290Y-100576542D01*
X160145000Y-100591000D01*
X160145000Y-100886000D01*
X160144290Y-100900458D01*
X160142166Y-100914776D01*
X160138649Y-100928817D01*
X160133772Y-100942446D01*
X160127583Y-100955531D01*
X160120142Y-100967947D01*
X160111519Y-100979573D01*
X160101798Y-100990298D01*
X160091073Y-101000019D01*
X160079447Y-101008642D01*
X160067031Y-101016083D01*
X160053946Y-101022272D01*
X160040317Y-101027149D01*
X160026276Y-101030666D01*
X160011958Y-101032790D01*
X159997500Y-101033500D01*
X159652500Y-101033500D01*
X159638042Y-101032790D01*
X159623724Y-101030666D01*
X159609683Y-101027149D01*
X159596054Y-101022272D01*
X159582969Y-101016083D01*
X159570553Y-101008642D01*
X159558927Y-101000019D01*
X159548202Y-100990298D01*
X159538481Y-100979573D01*
X159529858Y-100967947D01*
X159522417Y-100955531D01*
X159516228Y-100942446D01*
X159511351Y-100928817D01*
X159507834Y-100914776D01*
X159505710Y-100900458D01*
X159505000Y-100886000D01*
X159505000Y-100591000D01*
X159505710Y-100576542D01*
X159507834Y-100562224D01*
X159511351Y-100548183D01*
X159516228Y-100534554D01*
X159522417Y-100521469D01*
X159529858Y-100509053D01*
X159538481Y-100497427D01*
X159548202Y-100486702D01*
X159558927Y-100476981D01*
X159570553Y-100468358D01*
X159582969Y-100460917D01*
X159596054Y-100454728D01*
X159609683Y-100449851D01*
X159623724Y-100446334D01*
X159638042Y-100444210D01*
X159652500Y-100443500D01*
X159997500Y-100443500D01*
X160011958Y-100444210D01*
G37*
G36*
X160011958Y-99474210D02*
G01*
X160026276Y-99476334D01*
X160040317Y-99479851D01*
X160053946Y-99484728D01*
X160067031Y-99490917D01*
X160079447Y-99498358D01*
X160091073Y-99506981D01*
X160101798Y-99516702D01*
X160111519Y-99527427D01*
X160120142Y-99539053D01*
X160127583Y-99551469D01*
X160133772Y-99564554D01*
X160138649Y-99578183D01*
X160142166Y-99592224D01*
X160144290Y-99606542D01*
X160145000Y-99621000D01*
X160145000Y-99916000D01*
X160144290Y-99930458D01*
X160142166Y-99944776D01*
X160138649Y-99958817D01*
X160133772Y-99972446D01*
X160127583Y-99985531D01*
X160120142Y-99997947D01*
X160111519Y-100009573D01*
X160101798Y-100020298D01*
X160091073Y-100030019D01*
X160079447Y-100038642D01*
X160067031Y-100046083D01*
X160053946Y-100052272D01*
X160040317Y-100057149D01*
X160026276Y-100060666D01*
X160011958Y-100062790D01*
X159997500Y-100063500D01*
X159652500Y-100063500D01*
X159638042Y-100062790D01*
X159623724Y-100060666D01*
X159609683Y-100057149D01*
X159596054Y-100052272D01*
X159582969Y-100046083D01*
X159570553Y-100038642D01*
X159558927Y-100030019D01*
X159548202Y-100020298D01*
X159538481Y-100009573D01*
X159529858Y-99997947D01*
X159522417Y-99985531D01*
X159516228Y-99972446D01*
X159511351Y-99958817D01*
X159507834Y-99944776D01*
X159505710Y-99930458D01*
X159505000Y-99916000D01*
X159505000Y-99621000D01*
X159505710Y-99606542D01*
X159507834Y-99592224D01*
X159511351Y-99578183D01*
X159516228Y-99564554D01*
X159522417Y-99551469D01*
X159529858Y-99539053D01*
X159538481Y-99527427D01*
X159548202Y-99516702D01*
X159558927Y-99506981D01*
X159570553Y-99498358D01*
X159582969Y-99490917D01*
X159596054Y-99484728D01*
X159609683Y-99479851D01*
X159623724Y-99476334D01*
X159638042Y-99474210D01*
X159652500Y-99473500D01*
X159997500Y-99473500D01*
X160011958Y-99474210D01*
G37*
D20*
X154841520Y-102229550D03*
X154841520Y-99270450D03*
X154808500Y-94113050D03*
X154808500Y-91153950D03*
D10*
G36*
X156233691Y-96998053D02*
G01*
X156254926Y-97001203D01*
X156275750Y-97006419D01*
X156295962Y-97013651D01*
X156315368Y-97022830D01*
X156333781Y-97033866D01*
X156351024Y-97046654D01*
X156366930Y-97061070D01*
X156381346Y-97076976D01*
X156394134Y-97094219D01*
X156405170Y-97112632D01*
X156414349Y-97132038D01*
X156421581Y-97152250D01*
X156426797Y-97173074D01*
X156429947Y-97194309D01*
X156431000Y-97215750D01*
X156431000Y-97653250D01*
X156429947Y-97674691D01*
X156426797Y-97695926D01*
X156421581Y-97716750D01*
X156414349Y-97736962D01*
X156405170Y-97756368D01*
X156394134Y-97774781D01*
X156381346Y-97792024D01*
X156366930Y-97807930D01*
X156351024Y-97822346D01*
X156333781Y-97835134D01*
X156315368Y-97846170D01*
X156295962Y-97855349D01*
X156275750Y-97862581D01*
X156254926Y-97867797D01*
X156233691Y-97870947D01*
X156212250Y-97872000D01*
X155699750Y-97872000D01*
X155678309Y-97870947D01*
X155657074Y-97867797D01*
X155636250Y-97862581D01*
X155616038Y-97855349D01*
X155596632Y-97846170D01*
X155578219Y-97835134D01*
X155560976Y-97822346D01*
X155545070Y-97807930D01*
X155530654Y-97792024D01*
X155517866Y-97774781D01*
X155506830Y-97756368D01*
X155497651Y-97736962D01*
X155490419Y-97716750D01*
X155485203Y-97695926D01*
X155482053Y-97674691D01*
X155481000Y-97653250D01*
X155481000Y-97215750D01*
X155482053Y-97194309D01*
X155485203Y-97173074D01*
X155490419Y-97152250D01*
X155497651Y-97132038D01*
X155506830Y-97112632D01*
X155517866Y-97094219D01*
X155530654Y-97076976D01*
X155545070Y-97061070D01*
X155560976Y-97046654D01*
X155578219Y-97033866D01*
X155596632Y-97022830D01*
X155616038Y-97013651D01*
X155636250Y-97006419D01*
X155657074Y-97001203D01*
X155678309Y-96998053D01*
X155699750Y-96997000D01*
X156212250Y-96997000D01*
X156233691Y-96998053D01*
G37*
G36*
X156233691Y-95423053D02*
G01*
X156254926Y-95426203D01*
X156275750Y-95431419D01*
X156295962Y-95438651D01*
X156315368Y-95447830D01*
X156333781Y-95458866D01*
X156351024Y-95471654D01*
X156366930Y-95486070D01*
X156381346Y-95501976D01*
X156394134Y-95519219D01*
X156405170Y-95537632D01*
X156414349Y-95557038D01*
X156421581Y-95577250D01*
X156426797Y-95598074D01*
X156429947Y-95619309D01*
X156431000Y-95640750D01*
X156431000Y-96078250D01*
X156429947Y-96099691D01*
X156426797Y-96120926D01*
X156421581Y-96141750D01*
X156414349Y-96161962D01*
X156405170Y-96181368D01*
X156394134Y-96199781D01*
X156381346Y-96217024D01*
X156366930Y-96232930D01*
X156351024Y-96247346D01*
X156333781Y-96260134D01*
X156315368Y-96271170D01*
X156295962Y-96280349D01*
X156275750Y-96287581D01*
X156254926Y-96292797D01*
X156233691Y-96295947D01*
X156212250Y-96297000D01*
X155699750Y-96297000D01*
X155678309Y-96295947D01*
X155657074Y-96292797D01*
X155636250Y-96287581D01*
X155616038Y-96280349D01*
X155596632Y-96271170D01*
X155578219Y-96260134D01*
X155560976Y-96247346D01*
X155545070Y-96232930D01*
X155530654Y-96217024D01*
X155517866Y-96199781D01*
X155506830Y-96181368D01*
X155497651Y-96161962D01*
X155490419Y-96141750D01*
X155485203Y-96120926D01*
X155482053Y-96099691D01*
X155481000Y-96078250D01*
X155481000Y-95640750D01*
X155482053Y-95619309D01*
X155485203Y-95598074D01*
X155490419Y-95577250D01*
X155497651Y-95557038D01*
X155506830Y-95537632D01*
X155517866Y-95519219D01*
X155530654Y-95501976D01*
X155545070Y-95486070D01*
X155560976Y-95471654D01*
X155578219Y-95458866D01*
X155596632Y-95447830D01*
X155616038Y-95438651D01*
X155636250Y-95431419D01*
X155657074Y-95426203D01*
X155678309Y-95423053D01*
X155699750Y-95422000D01*
X156212250Y-95422000D01*
X156233691Y-95423053D01*
G37*
G36*
X158233958Y-100236210D02*
G01*
X158248276Y-100238334D01*
X158262317Y-100241851D01*
X158275946Y-100246728D01*
X158289031Y-100252917D01*
X158301447Y-100260358D01*
X158313073Y-100268981D01*
X158323798Y-100278702D01*
X158333519Y-100289427D01*
X158342142Y-100301053D01*
X158349583Y-100313469D01*
X158355772Y-100326554D01*
X158360649Y-100340183D01*
X158364166Y-100354224D01*
X158366290Y-100368542D01*
X158367000Y-100383000D01*
X158367000Y-100678000D01*
X158366290Y-100692458D01*
X158364166Y-100706776D01*
X158360649Y-100720817D01*
X158355772Y-100734446D01*
X158349583Y-100747531D01*
X158342142Y-100759947D01*
X158333519Y-100771573D01*
X158323798Y-100782298D01*
X158313073Y-100792019D01*
X158301447Y-100800642D01*
X158289031Y-100808083D01*
X158275946Y-100814272D01*
X158262317Y-100819149D01*
X158248276Y-100822666D01*
X158233958Y-100824790D01*
X158219500Y-100825500D01*
X157874500Y-100825500D01*
X157860042Y-100824790D01*
X157845724Y-100822666D01*
X157831683Y-100819149D01*
X157818054Y-100814272D01*
X157804969Y-100808083D01*
X157792553Y-100800642D01*
X157780927Y-100792019D01*
X157770202Y-100782298D01*
X157760481Y-100771573D01*
X157751858Y-100759947D01*
X157744417Y-100747531D01*
X157738228Y-100734446D01*
X157733351Y-100720817D01*
X157729834Y-100706776D01*
X157727710Y-100692458D01*
X157727000Y-100678000D01*
X157727000Y-100383000D01*
X157727710Y-100368542D01*
X157729834Y-100354224D01*
X157733351Y-100340183D01*
X157738228Y-100326554D01*
X157744417Y-100313469D01*
X157751858Y-100301053D01*
X157760481Y-100289427D01*
X157770202Y-100278702D01*
X157780927Y-100268981D01*
X157792553Y-100260358D01*
X157804969Y-100252917D01*
X157818054Y-100246728D01*
X157831683Y-100241851D01*
X157845724Y-100238334D01*
X157860042Y-100236210D01*
X157874500Y-100235500D01*
X158219500Y-100235500D01*
X158233958Y-100236210D01*
G37*
G36*
X158233958Y-101206210D02*
G01*
X158248276Y-101208334D01*
X158262317Y-101211851D01*
X158275946Y-101216728D01*
X158289031Y-101222917D01*
X158301447Y-101230358D01*
X158313073Y-101238981D01*
X158323798Y-101248702D01*
X158333519Y-101259427D01*
X158342142Y-101271053D01*
X158349583Y-101283469D01*
X158355772Y-101296554D01*
X158360649Y-101310183D01*
X158364166Y-101324224D01*
X158366290Y-101338542D01*
X158367000Y-101353000D01*
X158367000Y-101648000D01*
X158366290Y-101662458D01*
X158364166Y-101676776D01*
X158360649Y-101690817D01*
X158355772Y-101704446D01*
X158349583Y-101717531D01*
X158342142Y-101729947D01*
X158333519Y-101741573D01*
X158323798Y-101752298D01*
X158313073Y-101762019D01*
X158301447Y-101770642D01*
X158289031Y-101778083D01*
X158275946Y-101784272D01*
X158262317Y-101789149D01*
X158248276Y-101792666D01*
X158233958Y-101794790D01*
X158219500Y-101795500D01*
X157874500Y-101795500D01*
X157860042Y-101794790D01*
X157845724Y-101792666D01*
X157831683Y-101789149D01*
X157818054Y-101784272D01*
X157804969Y-101778083D01*
X157792553Y-101770642D01*
X157780927Y-101762019D01*
X157770202Y-101752298D01*
X157760481Y-101741573D01*
X157751858Y-101729947D01*
X157744417Y-101717531D01*
X157738228Y-101704446D01*
X157733351Y-101690817D01*
X157729834Y-101676776D01*
X157727710Y-101662458D01*
X157727000Y-101648000D01*
X157727000Y-101353000D01*
X157727710Y-101338542D01*
X157729834Y-101324224D01*
X157733351Y-101310183D01*
X157738228Y-101296554D01*
X157744417Y-101283469D01*
X157751858Y-101271053D01*
X157760481Y-101259427D01*
X157770202Y-101248702D01*
X157780927Y-101238981D01*
X157792553Y-101230358D01*
X157804969Y-101222917D01*
X157818054Y-101216728D01*
X157831683Y-101211851D01*
X157845724Y-101208334D01*
X157860042Y-101206210D01*
X157874500Y-101205500D01*
X158219500Y-101205500D01*
X158233958Y-101206210D01*
G37*
G36*
X161599458Y-92044710D02*
G01*
X161613776Y-92046834D01*
X161627817Y-92050351D01*
X161641446Y-92055228D01*
X161654531Y-92061417D01*
X161666947Y-92068858D01*
X161678573Y-92077481D01*
X161689298Y-92087202D01*
X161699019Y-92097927D01*
X161707642Y-92109553D01*
X161715083Y-92121969D01*
X161721272Y-92135054D01*
X161726149Y-92148683D01*
X161729666Y-92162724D01*
X161731790Y-92177042D01*
X161732500Y-92191500D01*
X161732500Y-92486500D01*
X161731790Y-92500958D01*
X161729666Y-92515276D01*
X161726149Y-92529317D01*
X161721272Y-92542946D01*
X161715083Y-92556031D01*
X161707642Y-92568447D01*
X161699019Y-92580073D01*
X161689298Y-92590798D01*
X161678573Y-92600519D01*
X161666947Y-92609142D01*
X161654531Y-92616583D01*
X161641446Y-92622772D01*
X161627817Y-92627649D01*
X161613776Y-92631166D01*
X161599458Y-92633290D01*
X161585000Y-92634000D01*
X161240000Y-92634000D01*
X161225542Y-92633290D01*
X161211224Y-92631166D01*
X161197183Y-92627649D01*
X161183554Y-92622772D01*
X161170469Y-92616583D01*
X161158053Y-92609142D01*
X161146427Y-92600519D01*
X161135702Y-92590798D01*
X161125981Y-92580073D01*
X161117358Y-92568447D01*
X161109917Y-92556031D01*
X161103728Y-92542946D01*
X161098851Y-92529317D01*
X161095334Y-92515276D01*
X161093210Y-92500958D01*
X161092500Y-92486500D01*
X161092500Y-92191500D01*
X161093210Y-92177042D01*
X161095334Y-92162724D01*
X161098851Y-92148683D01*
X161103728Y-92135054D01*
X161109917Y-92121969D01*
X161117358Y-92109553D01*
X161125981Y-92097927D01*
X161135702Y-92087202D01*
X161146427Y-92077481D01*
X161158053Y-92068858D01*
X161170469Y-92061417D01*
X161183554Y-92055228D01*
X161197183Y-92050351D01*
X161211224Y-92046834D01*
X161225542Y-92044710D01*
X161240000Y-92044000D01*
X161585000Y-92044000D01*
X161599458Y-92044710D01*
G37*
G36*
X161599458Y-93014710D02*
G01*
X161613776Y-93016834D01*
X161627817Y-93020351D01*
X161641446Y-93025228D01*
X161654531Y-93031417D01*
X161666947Y-93038858D01*
X161678573Y-93047481D01*
X161689298Y-93057202D01*
X161699019Y-93067927D01*
X161707642Y-93079553D01*
X161715083Y-93091969D01*
X161721272Y-93105054D01*
X161726149Y-93118683D01*
X161729666Y-93132724D01*
X161731790Y-93147042D01*
X161732500Y-93161500D01*
X161732500Y-93456500D01*
X161731790Y-93470958D01*
X161729666Y-93485276D01*
X161726149Y-93499317D01*
X161721272Y-93512946D01*
X161715083Y-93526031D01*
X161707642Y-93538447D01*
X161699019Y-93550073D01*
X161689298Y-93560798D01*
X161678573Y-93570519D01*
X161666947Y-93579142D01*
X161654531Y-93586583D01*
X161641446Y-93592772D01*
X161627817Y-93597649D01*
X161613776Y-93601166D01*
X161599458Y-93603290D01*
X161585000Y-93604000D01*
X161240000Y-93604000D01*
X161225542Y-93603290D01*
X161211224Y-93601166D01*
X161197183Y-93597649D01*
X161183554Y-93592772D01*
X161170469Y-93586583D01*
X161158053Y-93579142D01*
X161146427Y-93570519D01*
X161135702Y-93560798D01*
X161125981Y-93550073D01*
X161117358Y-93538447D01*
X161109917Y-93526031D01*
X161103728Y-93512946D01*
X161098851Y-93499317D01*
X161095334Y-93485276D01*
X161093210Y-93470958D01*
X161092500Y-93456500D01*
X161092500Y-93161500D01*
X161093210Y-93147042D01*
X161095334Y-93132724D01*
X161098851Y-93118683D01*
X161103728Y-93105054D01*
X161109917Y-93091969D01*
X161117358Y-93079553D01*
X161125981Y-93067927D01*
X161135702Y-93057202D01*
X161146427Y-93047481D01*
X161158053Y-93038858D01*
X161170469Y-93031417D01*
X161183554Y-93025228D01*
X161197183Y-93020351D01*
X161211224Y-93016834D01*
X161225542Y-93014710D01*
X161240000Y-93014000D01*
X161585000Y-93014000D01*
X161599458Y-93014710D01*
G37*
G36*
X151936958Y-89690710D02*
G01*
X151951276Y-89692834D01*
X151965317Y-89696351D01*
X151978946Y-89701228D01*
X151992031Y-89707417D01*
X152004447Y-89714858D01*
X152016073Y-89723481D01*
X152026798Y-89733202D01*
X152036519Y-89743927D01*
X152045142Y-89755553D01*
X152052583Y-89767969D01*
X152058772Y-89781054D01*
X152063649Y-89794683D01*
X152067166Y-89808724D01*
X152069290Y-89823042D01*
X152070000Y-89837500D01*
X152070000Y-90132500D01*
X152069290Y-90146958D01*
X152067166Y-90161276D01*
X152063649Y-90175317D01*
X152058772Y-90188946D01*
X152052583Y-90202031D01*
X152045142Y-90214447D01*
X152036519Y-90226073D01*
X152026798Y-90236798D01*
X152016073Y-90246519D01*
X152004447Y-90255142D01*
X151992031Y-90262583D01*
X151978946Y-90268772D01*
X151965317Y-90273649D01*
X151951276Y-90277166D01*
X151936958Y-90279290D01*
X151922500Y-90280000D01*
X151577500Y-90280000D01*
X151563042Y-90279290D01*
X151548724Y-90277166D01*
X151534683Y-90273649D01*
X151521054Y-90268772D01*
X151507969Y-90262583D01*
X151495553Y-90255142D01*
X151483927Y-90246519D01*
X151473202Y-90236798D01*
X151463481Y-90226073D01*
X151454858Y-90214447D01*
X151447417Y-90202031D01*
X151441228Y-90188946D01*
X151436351Y-90175317D01*
X151432834Y-90161276D01*
X151430710Y-90146958D01*
X151430000Y-90132500D01*
X151430000Y-89837500D01*
X151430710Y-89823042D01*
X151432834Y-89808724D01*
X151436351Y-89794683D01*
X151441228Y-89781054D01*
X151447417Y-89767969D01*
X151454858Y-89755553D01*
X151463481Y-89743927D01*
X151473202Y-89733202D01*
X151483927Y-89723481D01*
X151495553Y-89714858D01*
X151507969Y-89707417D01*
X151521054Y-89701228D01*
X151534683Y-89696351D01*
X151548724Y-89692834D01*
X151563042Y-89690710D01*
X151577500Y-89690000D01*
X151922500Y-89690000D01*
X151936958Y-89690710D01*
G37*
G36*
X151936958Y-88720710D02*
G01*
X151951276Y-88722834D01*
X151965317Y-88726351D01*
X151978946Y-88731228D01*
X151992031Y-88737417D01*
X152004447Y-88744858D01*
X152016073Y-88753481D01*
X152026798Y-88763202D01*
X152036519Y-88773927D01*
X152045142Y-88785553D01*
X152052583Y-88797969D01*
X152058772Y-88811054D01*
X152063649Y-88824683D01*
X152067166Y-88838724D01*
X152069290Y-88853042D01*
X152070000Y-88867500D01*
X152070000Y-89162500D01*
X152069290Y-89176958D01*
X152067166Y-89191276D01*
X152063649Y-89205317D01*
X152058772Y-89218946D01*
X152052583Y-89232031D01*
X152045142Y-89244447D01*
X152036519Y-89256073D01*
X152026798Y-89266798D01*
X152016073Y-89276519D01*
X152004447Y-89285142D01*
X151992031Y-89292583D01*
X151978946Y-89298772D01*
X151965317Y-89303649D01*
X151951276Y-89307166D01*
X151936958Y-89309290D01*
X151922500Y-89310000D01*
X151577500Y-89310000D01*
X151563042Y-89309290D01*
X151548724Y-89307166D01*
X151534683Y-89303649D01*
X151521054Y-89298772D01*
X151507969Y-89292583D01*
X151495553Y-89285142D01*
X151483927Y-89276519D01*
X151473202Y-89266798D01*
X151463481Y-89256073D01*
X151454858Y-89244447D01*
X151447417Y-89232031D01*
X151441228Y-89218946D01*
X151436351Y-89205317D01*
X151432834Y-89191276D01*
X151430710Y-89176958D01*
X151430000Y-89162500D01*
X151430000Y-88867500D01*
X151430710Y-88853042D01*
X151432834Y-88838724D01*
X151436351Y-88824683D01*
X151441228Y-88811054D01*
X151447417Y-88797969D01*
X151454858Y-88785553D01*
X151463481Y-88773927D01*
X151473202Y-88763202D01*
X151483927Y-88753481D01*
X151495553Y-88744858D01*
X151507969Y-88737417D01*
X151521054Y-88731228D01*
X151534683Y-88726351D01*
X151548724Y-88722834D01*
X151563042Y-88720710D01*
X151577500Y-88720000D01*
X151922500Y-88720000D01*
X151936958Y-88720710D01*
G37*
G36*
X159059458Y-92044710D02*
G01*
X159073776Y-92046834D01*
X159087817Y-92050351D01*
X159101446Y-92055228D01*
X159114531Y-92061417D01*
X159126947Y-92068858D01*
X159138573Y-92077481D01*
X159149298Y-92087202D01*
X159159019Y-92097927D01*
X159167642Y-92109553D01*
X159175083Y-92121969D01*
X159181272Y-92135054D01*
X159186149Y-92148683D01*
X159189666Y-92162724D01*
X159191790Y-92177042D01*
X159192500Y-92191500D01*
X159192500Y-92486500D01*
X159191790Y-92500958D01*
X159189666Y-92515276D01*
X159186149Y-92529317D01*
X159181272Y-92542946D01*
X159175083Y-92556031D01*
X159167642Y-92568447D01*
X159159019Y-92580073D01*
X159149298Y-92590798D01*
X159138573Y-92600519D01*
X159126947Y-92609142D01*
X159114531Y-92616583D01*
X159101446Y-92622772D01*
X159087817Y-92627649D01*
X159073776Y-92631166D01*
X159059458Y-92633290D01*
X159045000Y-92634000D01*
X158700000Y-92634000D01*
X158685542Y-92633290D01*
X158671224Y-92631166D01*
X158657183Y-92627649D01*
X158643554Y-92622772D01*
X158630469Y-92616583D01*
X158618053Y-92609142D01*
X158606427Y-92600519D01*
X158595702Y-92590798D01*
X158585981Y-92580073D01*
X158577358Y-92568447D01*
X158569917Y-92556031D01*
X158563728Y-92542946D01*
X158558851Y-92529317D01*
X158555334Y-92515276D01*
X158553210Y-92500958D01*
X158552500Y-92486500D01*
X158552500Y-92191500D01*
X158553210Y-92177042D01*
X158555334Y-92162724D01*
X158558851Y-92148683D01*
X158563728Y-92135054D01*
X158569917Y-92121969D01*
X158577358Y-92109553D01*
X158585981Y-92097927D01*
X158595702Y-92087202D01*
X158606427Y-92077481D01*
X158618053Y-92068858D01*
X158630469Y-92061417D01*
X158643554Y-92055228D01*
X158657183Y-92050351D01*
X158671224Y-92046834D01*
X158685542Y-92044710D01*
X158700000Y-92044000D01*
X159045000Y-92044000D01*
X159059458Y-92044710D01*
G37*
G36*
X159059458Y-93014710D02*
G01*
X159073776Y-93016834D01*
X159087817Y-93020351D01*
X159101446Y-93025228D01*
X159114531Y-93031417D01*
X159126947Y-93038858D01*
X159138573Y-93047481D01*
X159149298Y-93057202D01*
X159159019Y-93067927D01*
X159167642Y-93079553D01*
X159175083Y-93091969D01*
X159181272Y-93105054D01*
X159186149Y-93118683D01*
X159189666Y-93132724D01*
X159191790Y-93147042D01*
X159192500Y-93161500D01*
X159192500Y-93456500D01*
X159191790Y-93470958D01*
X159189666Y-93485276D01*
X159186149Y-93499317D01*
X159181272Y-93512946D01*
X159175083Y-93526031D01*
X159167642Y-93538447D01*
X159159019Y-93550073D01*
X159149298Y-93560798D01*
X159138573Y-93570519D01*
X159126947Y-93579142D01*
X159114531Y-93586583D01*
X159101446Y-93592772D01*
X159087817Y-93597649D01*
X159073776Y-93601166D01*
X159059458Y-93603290D01*
X159045000Y-93604000D01*
X158700000Y-93604000D01*
X158685542Y-93603290D01*
X158671224Y-93601166D01*
X158657183Y-93597649D01*
X158643554Y-93592772D01*
X158630469Y-93586583D01*
X158618053Y-93579142D01*
X158606427Y-93570519D01*
X158595702Y-93560798D01*
X158585981Y-93550073D01*
X158577358Y-93538447D01*
X158569917Y-93526031D01*
X158563728Y-93512946D01*
X158558851Y-93499317D01*
X158555334Y-93485276D01*
X158553210Y-93470958D01*
X158552500Y-93456500D01*
X158552500Y-93161500D01*
X158553210Y-93147042D01*
X158555334Y-93132724D01*
X158558851Y-93118683D01*
X158563728Y-93105054D01*
X158569917Y-93091969D01*
X158577358Y-93079553D01*
X158585981Y-93067927D01*
X158595702Y-93057202D01*
X158606427Y-93047481D01*
X158618053Y-93038858D01*
X158630469Y-93031417D01*
X158643554Y-93025228D01*
X158657183Y-93020351D01*
X158671224Y-93016834D01*
X158685542Y-93014710D01*
X158700000Y-93014000D01*
X159045000Y-93014000D01*
X159059458Y-93014710D01*
G37*
G36*
X159952958Y-103187710D02*
G01*
X159967276Y-103189834D01*
X159981317Y-103193351D01*
X159994946Y-103198228D01*
X160008031Y-103204417D01*
X160020447Y-103211858D01*
X160032073Y-103220481D01*
X160042798Y-103230202D01*
X160052519Y-103240927D01*
X160061142Y-103252553D01*
X160068583Y-103264969D01*
X160074772Y-103278054D01*
X160079649Y-103291683D01*
X160083166Y-103305724D01*
X160085290Y-103320042D01*
X160086000Y-103334500D01*
X160086000Y-103629500D01*
X160085290Y-103643958D01*
X160083166Y-103658276D01*
X160079649Y-103672317D01*
X160074772Y-103685946D01*
X160068583Y-103699031D01*
X160061142Y-103711447D01*
X160052519Y-103723073D01*
X160042798Y-103733798D01*
X160032073Y-103743519D01*
X160020447Y-103752142D01*
X160008031Y-103759583D01*
X159994946Y-103765772D01*
X159981317Y-103770649D01*
X159967276Y-103774166D01*
X159952958Y-103776290D01*
X159938500Y-103777000D01*
X159593500Y-103777000D01*
X159579042Y-103776290D01*
X159564724Y-103774166D01*
X159550683Y-103770649D01*
X159537054Y-103765772D01*
X159523969Y-103759583D01*
X159511553Y-103752142D01*
X159499927Y-103743519D01*
X159489202Y-103733798D01*
X159479481Y-103723073D01*
X159470858Y-103711447D01*
X159463417Y-103699031D01*
X159457228Y-103685946D01*
X159452351Y-103672317D01*
X159448834Y-103658276D01*
X159446710Y-103643958D01*
X159446000Y-103629500D01*
X159446000Y-103334500D01*
X159446710Y-103320042D01*
X159448834Y-103305724D01*
X159452351Y-103291683D01*
X159457228Y-103278054D01*
X159463417Y-103264969D01*
X159470858Y-103252553D01*
X159479481Y-103240927D01*
X159489202Y-103230202D01*
X159499927Y-103220481D01*
X159511553Y-103211858D01*
X159523969Y-103204417D01*
X159537054Y-103198228D01*
X159550683Y-103193351D01*
X159564724Y-103189834D01*
X159579042Y-103187710D01*
X159593500Y-103187000D01*
X159938500Y-103187000D01*
X159952958Y-103187710D01*
G37*
G36*
X159952958Y-102217710D02*
G01*
X159967276Y-102219834D01*
X159981317Y-102223351D01*
X159994946Y-102228228D01*
X160008031Y-102234417D01*
X160020447Y-102241858D01*
X160032073Y-102250481D01*
X160042798Y-102260202D01*
X160052519Y-102270927D01*
X160061142Y-102282553D01*
X160068583Y-102294969D01*
X160074772Y-102308054D01*
X160079649Y-102321683D01*
X160083166Y-102335724D01*
X160085290Y-102350042D01*
X160086000Y-102364500D01*
X160086000Y-102659500D01*
X160085290Y-102673958D01*
X160083166Y-102688276D01*
X160079649Y-102702317D01*
X160074772Y-102715946D01*
X160068583Y-102729031D01*
X160061142Y-102741447D01*
X160052519Y-102753073D01*
X160042798Y-102763798D01*
X160032073Y-102773519D01*
X160020447Y-102782142D01*
X160008031Y-102789583D01*
X159994946Y-102795772D01*
X159981317Y-102800649D01*
X159967276Y-102804166D01*
X159952958Y-102806290D01*
X159938500Y-102807000D01*
X159593500Y-102807000D01*
X159579042Y-102806290D01*
X159564724Y-102804166D01*
X159550683Y-102800649D01*
X159537054Y-102795772D01*
X159523969Y-102789583D01*
X159511553Y-102782142D01*
X159499927Y-102773519D01*
X159489202Y-102763798D01*
X159479481Y-102753073D01*
X159470858Y-102741447D01*
X159463417Y-102729031D01*
X159457228Y-102715946D01*
X159452351Y-102702317D01*
X159448834Y-102688276D01*
X159446710Y-102673958D01*
X159446000Y-102659500D01*
X159446000Y-102364500D01*
X159446710Y-102350042D01*
X159448834Y-102335724D01*
X159452351Y-102321683D01*
X159457228Y-102308054D01*
X159463417Y-102294969D01*
X159470858Y-102282553D01*
X159479481Y-102270927D01*
X159489202Y-102260202D01*
X159499927Y-102250481D01*
X159511553Y-102241858D01*
X159523969Y-102234417D01*
X159537054Y-102228228D01*
X159550683Y-102223351D01*
X159564724Y-102219834D01*
X159579042Y-102217710D01*
X159593500Y-102217000D01*
X159938500Y-102217000D01*
X159952958Y-102217710D01*
G37*
G36*
X149122791Y-110594368D02*
G01*
X148262681Y-111196623D01*
X147000813Y-109394488D01*
X147860923Y-108792233D01*
X149122791Y-110594368D01*
G37*
G36*
X150855459Y-110540877D02*
G01*
X150036307Y-111114453D01*
X149434051Y-110254343D01*
X150253203Y-109680767D01*
X150855459Y-110540877D01*
G37*
G36*
X151539289Y-108902318D02*
G01*
X150679179Y-109504573D01*
X149417311Y-107702438D01*
X150277421Y-107100183D01*
X151539289Y-108902318D01*
G37*
M02*
