%TF.GenerationSoftware,KiCad,Pcbnew,(5.1.5)-3*%
%TF.CreationDate,2020-08-30T11:50:14-07:00*%
%TF.ProjectId,ypanel,7970616e-656c-42e6-9b69-6361645f7063,rev?*%
%TF.SameCoordinates,Original*%
%TF.FileFunction,Copper,L2,Inr*%
%TF.FilePolarity,Positive*%
%FSLAX46Y46*%
G04 Gerber Fmt 4.6, Leading zero omitted, Abs format (unit mm)*
G04 Created by KiCad (PCBNEW (5.1.5)-3) date 2020-08-30 11:50:14*
%MOMM*%
%LPD*%
G04 APERTURE LIST*
%ADD10C,0.100000*%
%ADD11C,0.050000*%
%ADD12C,2.032000*%
%ADD13R,2.032000X2.032000*%
%ADD14C,1.000000*%
%ADD15C,1.524000*%
%ADD16C,0.600000*%
%ADD17C,0.240000*%
%ADD18C,0.480000*%
%ADD19C,0.320000*%
%ADD20C,0.190000*%
%ADD21C,0.160000*%
G04 APERTURE END LIST*
D10*
X151587000Y-99000001D02*
G75*
G03X151587000Y-99000001I-8000000J0D01*
G01*
X134779564Y-114100000D02*
G75*
G03X134779564Y-114100000I-1029564J0D01*
G01*
X141279564Y-114100000D02*
G75*
G03X141279564Y-114100000I-1029564J0D01*
G01*
X126375000Y-118900000D02*
G75*
G03X126375000Y-118900000I-1300000J0D01*
G01*
X140979564Y-83920436D02*
G75*
G03X140979564Y-83920436I-1029564J0D01*
G01*
X147479564Y-83920436D02*
G75*
G03X147479564Y-83920436I-1029564J0D01*
G01*
X176975000Y-70000000D02*
X176975000Y-128000000D01*
X166200000Y-118900000D02*
G75*
G03X166200000Y-118900000I-1300000J0D01*
G01*
D11*
X126372800Y-79100000D02*
G75*
G03X126372800Y-79100000I-1300000J0D01*
G01*
D10*
X166195000Y-79102480D02*
G75*
G03X166195000Y-79102480I-1300000J0D01*
G01*
X176975000Y-70000000D02*
X113000000Y-70000000D01*
X113000000Y-128000000D02*
X176975000Y-128000000D01*
X113000000Y-70000000D02*
X113000000Y-128000000D01*
D12*
X124764800Y-97691060D03*
D13*
X124764800Y-101546660D03*
D14*
X161267720Y-89773460D03*
X130873500Y-88138000D03*
X165036500Y-99568000D03*
D15*
X142080000Y-109900000D03*
X137000000Y-109900000D03*
X131920000Y-109900000D03*
X148300000Y-88100000D03*
X143200000Y-88100000D03*
X138100000Y-88100000D03*
D16*
X150197820Y-86072980D03*
X159634500Y-96507000D03*
X160350000Y-96150000D03*
X159200000Y-97050000D03*
X160050000Y-97150000D03*
X163220400Y-112369600D03*
X165100000Y-94350000D03*
X121900000Y-99250000D03*
X130558000Y-106991000D03*
X131800000Y-79600000D03*
X132650000Y-79600000D03*
X120200000Y-91300000D03*
X120200000Y-92000000D03*
X121250000Y-109000000D03*
X152146000Y-107950000D03*
X145923000Y-109982000D03*
X146939000Y-111252000D03*
X149987000Y-111887000D03*
X150749000Y-113030000D03*
X151765000Y-110744000D03*
X152527000Y-111887000D03*
X152019000Y-109347000D03*
X148590000Y-111760000D03*
X151130000Y-106934000D03*
X149225000Y-113284000D03*
X147447000Y-112903000D03*
X152908000Y-110236000D03*
X153162000Y-108712000D03*
X126492000Y-112014000D03*
X127532575Y-108101584D03*
X120549010Y-109000000D03*
X162149946Y-95220946D03*
X159829500Y-101536494D03*
X157483120Y-91084100D03*
X163200000Y-111500000D03*
X156301440Y-105384600D03*
X126600000Y-108077020D03*
X157050000Y-84800000D03*
X156876844Y-96740660D03*
X162450000Y-91500000D03*
X154750000Y-95550000D03*
X163200000Y-110650000D03*
X129550000Y-112050000D03*
X127400000Y-110150000D03*
X163100000Y-109750000D03*
X166200000Y-112250000D03*
X153340597Y-83865157D03*
X161100000Y-87150000D03*
X166700000Y-109300000D03*
X166700000Y-108550000D03*
X161870307Y-87229693D03*
X167100000Y-112300000D03*
X153339000Y-86767200D03*
X124400000Y-127450000D03*
X123250000Y-127400000D03*
X121300000Y-112395000D03*
X120269000Y-88265000D03*
X152894500Y-85332100D03*
X120950000Y-86550000D03*
X153897800Y-85332100D03*
X162115500Y-101600000D03*
X162496500Y-96520000D03*
X159670844Y-93971156D03*
X164401500Y-93027500D03*
X156641703Y-89002155D03*
X157504833Y-89002155D03*
D17*
X161000000Y-96309562D02*
X161000000Y-100365994D01*
X162149946Y-95220946D02*
X162088616Y-95220946D01*
X161000000Y-100365994D02*
X159829500Y-101536494D01*
X162088616Y-95220946D02*
X161000000Y-96309562D01*
D18*
X163624264Y-111500000D02*
X164100000Y-111024264D01*
X164100000Y-111024264D02*
X164100000Y-107900000D01*
X164100000Y-107900000D02*
X158850000Y-107900000D01*
X158850000Y-107900000D02*
X156334600Y-105384600D01*
X156334600Y-105384600D02*
X156301440Y-105384600D01*
X163200000Y-111500000D02*
X163624264Y-111500000D01*
D17*
X161010600Y-104927400D02*
X156758640Y-104927400D01*
X165036500Y-100901500D02*
X161010600Y-104927400D01*
X156758640Y-104927400D02*
X156301440Y-105384600D01*
X165036500Y-99568000D02*
X165036500Y-100901500D01*
D19*
X128651000Y-108839000D02*
X127361980Y-108839000D01*
X156216839Y-105299999D02*
X149383370Y-105299999D01*
X156301440Y-105384600D02*
X156216839Y-105299999D01*
X127361980Y-108839000D02*
X126600000Y-108077020D01*
X149383370Y-105299999D02*
X147066370Y-107616999D01*
X147066370Y-107616999D02*
X129873001Y-107616999D01*
X129873001Y-107616999D02*
X128651000Y-108839000D01*
D17*
X159000000Y-93750000D02*
X161250000Y-91500000D01*
X161250000Y-91500000D02*
X162450000Y-91500000D01*
X159000000Y-95150000D02*
X159000000Y-93750000D01*
X154750000Y-95550000D02*
X158600000Y-95550000D01*
X158600000Y-95550000D02*
X159000000Y-95150000D01*
X158250000Y-109200000D02*
X161750000Y-109200000D01*
X155300000Y-106250000D02*
X158250000Y-109200000D01*
X129550000Y-110050000D02*
X131175854Y-108424146D01*
X161750000Y-109200000D02*
X163200000Y-110650000D01*
X129550000Y-112050000D02*
X129550000Y-110050000D01*
X149528000Y-106250000D02*
X155300000Y-106250000D01*
X131175854Y-108424146D02*
X147353854Y-108424146D01*
X147353854Y-108424146D02*
X149528000Y-106250000D01*
X155700000Y-105800000D02*
X158550000Y-108650000D01*
X127400000Y-110150000D02*
X128911562Y-110150000D01*
X162000000Y-108650000D02*
X163100000Y-109750000D01*
X128911562Y-110150000D02*
X131004530Y-108057032D01*
X158550000Y-108650000D02*
X162000000Y-108650000D01*
X149458969Y-105800000D02*
X155700000Y-105800000D01*
X147201955Y-108057015D02*
X149458969Y-105800000D01*
X131004530Y-108057032D02*
X147201955Y-108057015D01*
D20*
X122673000Y-127600990D02*
X122673000Y-127595562D01*
X122795010Y-127600990D02*
X123123000Y-127273000D01*
X122673000Y-127600990D02*
X122795010Y-127600990D01*
X122073000Y-123923000D02*
X121523000Y-124473000D01*
X125273000Y-123923000D02*
X122073000Y-123923000D01*
X173773000Y-73177000D02*
X173773000Y-124823000D01*
X116527000Y-124473000D02*
X116527000Y-73527000D01*
X121523000Y-124473000D02*
X116527000Y-124473000D01*
X116177000Y-73177000D02*
X120323000Y-73177000D01*
X121623000Y-124823000D02*
X116177000Y-124823000D01*
X122173000Y-124273000D02*
X121623000Y-124823000D01*
X126073000Y-125173000D02*
X125173000Y-124273000D01*
X174123000Y-125173000D02*
X126073000Y-125173000D01*
X174123000Y-72827000D02*
X174123000Y-125173000D01*
X126173000Y-124823000D02*
X125273000Y-123923000D01*
X125173000Y-124273000D02*
X122173000Y-124273000D01*
X173773000Y-124823000D02*
X126173000Y-124823000D01*
X116177000Y-124823000D02*
X116177000Y-73177000D01*
X121323000Y-72127000D02*
X121373000Y-72127000D01*
X121723000Y-125173000D02*
X115827000Y-125173000D01*
X122273000Y-124623000D02*
X121723000Y-125173000D01*
X125073000Y-124623000D02*
X122273000Y-124623000D01*
X174473000Y-72477000D02*
X174473000Y-125523000D01*
X125873000Y-125873000D02*
X124973000Y-124973000D01*
X115477000Y-72477000D02*
X174473000Y-72477000D01*
X115827000Y-125173000D02*
X115827000Y-72827000D01*
X125973000Y-125523000D02*
X125073000Y-124623000D01*
X121823000Y-125523000D02*
X115477000Y-125523000D01*
X115477000Y-125523000D02*
X115477000Y-72477000D01*
X121323000Y-72127000D02*
X174823000Y-72127000D01*
X124973000Y-124973000D02*
X122373000Y-124973000D01*
X174823000Y-125873000D02*
X125873000Y-125873000D01*
X174823000Y-72127000D02*
X174823000Y-125873000D01*
X174473000Y-125523000D02*
X125973000Y-125523000D01*
X122373000Y-124973000D02*
X121823000Y-125523000D01*
X129223000Y-72827000D02*
X120523000Y-72827000D01*
X120523000Y-72827000D02*
X120673000Y-72827000D01*
X129073000Y-72827000D02*
X129223000Y-72827000D01*
X115827000Y-72827000D02*
X120523000Y-72827000D01*
X129223000Y-72827000D02*
X174123000Y-72827000D01*
X129523000Y-73177000D02*
X173773000Y-73177000D01*
X120323000Y-73177000D02*
X129523000Y-73177000D01*
X129423000Y-73177000D02*
X129523000Y-73177000D01*
X119323000Y-73527000D02*
X119973000Y-73527000D01*
X116527000Y-73527000D02*
X119323000Y-73527000D01*
X122673000Y-127600990D02*
X113411000Y-127600990D01*
X115127000Y-125873000D02*
X115127000Y-72127000D01*
X121923000Y-125873000D02*
X115127000Y-125873000D01*
X122473000Y-125323000D02*
X121923000Y-125873000D01*
X175173000Y-71777000D02*
X175173000Y-126223000D01*
X114777000Y-71777000D02*
X175173000Y-71777000D01*
X114777000Y-126223000D02*
X114777000Y-71777000D01*
X122023000Y-126223000D02*
X114777000Y-126223000D01*
X122573000Y-125673000D02*
X122023000Y-126223000D01*
X124773000Y-125673000D02*
X122573000Y-125673000D01*
X125673000Y-126573000D02*
X124773000Y-125673000D01*
X175523000Y-126573000D02*
X125673000Y-126573000D01*
X175523000Y-71427000D02*
X175523000Y-126573000D01*
X114427000Y-71427000D02*
X175523000Y-71427000D01*
X114427000Y-126573000D02*
X114427000Y-71427000D01*
X122123000Y-126573000D02*
X114427000Y-126573000D01*
X122673000Y-126023000D02*
X122123000Y-126573000D01*
X115127000Y-72127000D02*
X121323000Y-72127000D01*
X124673000Y-126023000D02*
X122673000Y-126023000D01*
X125573000Y-126923000D02*
X124673000Y-126023000D01*
X113727000Y-127273000D02*
X113727000Y-70727000D01*
X175873000Y-126923000D02*
X125573000Y-126923000D01*
X175173000Y-126223000D02*
X125773000Y-126223000D01*
X122873000Y-126723000D02*
X122323000Y-127273000D01*
X124923000Y-127173000D02*
X124473000Y-126723000D01*
X122323000Y-127273000D02*
X113727000Y-127273000D01*
X124873000Y-125323000D02*
X122473000Y-125323000D01*
X125273000Y-127273000D02*
X125273000Y-127073000D01*
X176573000Y-70399010D02*
X176573000Y-127523000D01*
X122223000Y-126923000D02*
X114077000Y-126923000D01*
X125773000Y-126223000D02*
X124873000Y-125323000D01*
X124473000Y-126723000D02*
X122873000Y-126723000D01*
X176573000Y-127523000D02*
X176495010Y-127600990D01*
X113727000Y-70727000D02*
X176223000Y-70727000D01*
X113399010Y-70399010D02*
X176573000Y-70399010D01*
X124573000Y-126373000D02*
X122773000Y-126373000D01*
X114077000Y-126923000D02*
X114077000Y-71077000D01*
X124923000Y-127600990D02*
X124923000Y-127173000D01*
X176495010Y-127600990D02*
X124923000Y-127600990D01*
X125273000Y-127073000D02*
X124573000Y-126373000D01*
X113399010Y-127600990D02*
X113399010Y-70399010D01*
X176223000Y-70727000D02*
X176223000Y-127273000D01*
X176223000Y-127273000D02*
X125273000Y-127273000D01*
X122773000Y-126373000D02*
X122223000Y-126923000D01*
X114077000Y-71077000D02*
X175873000Y-71077000D01*
X175873000Y-71077000D02*
X175873000Y-126923000D01*
X126273000Y-124473000D02*
X173423000Y-124473000D01*
X125373000Y-123573000D02*
X126273000Y-124473000D01*
X121973000Y-123573000D02*
X125373000Y-123573000D01*
X116877000Y-73877000D02*
X116877000Y-124123000D01*
X173073000Y-73877000D02*
X116877000Y-73877000D01*
X173073000Y-124123000D02*
X173073000Y-73877000D01*
X126373000Y-124123000D02*
X173073000Y-124123000D01*
X125473000Y-123223000D02*
X126373000Y-124123000D01*
X121323000Y-123773000D02*
X121873000Y-123223000D01*
X117227000Y-123773000D02*
X121323000Y-123773000D01*
X172723000Y-123773000D02*
X172723000Y-74227000D01*
X126473000Y-123773000D02*
X172723000Y-123773000D01*
X126573000Y-123423000D02*
X172373000Y-123423000D01*
X121123000Y-123073000D02*
X121673000Y-122523000D01*
X117927000Y-123073000D02*
X121123000Y-123073000D01*
X117927000Y-74927000D02*
X117927000Y-123073000D01*
X172023000Y-74927000D02*
X117927000Y-74927000D01*
X126673000Y-123073000D02*
X172023000Y-123073000D01*
X125773000Y-122173000D02*
X126673000Y-123073000D01*
X121573000Y-122173000D02*
X125773000Y-122173000D01*
X121023000Y-122723000D02*
X121573000Y-122173000D01*
X118277000Y-122723000D02*
X121023000Y-122723000D01*
X117577000Y-74577000D02*
X117577000Y-123423000D01*
X118277000Y-75277000D02*
X118277000Y-122723000D01*
X171673000Y-75277000D02*
X118277000Y-75277000D01*
X171673000Y-122723000D02*
X171673000Y-75277000D01*
X126773000Y-122723000D02*
X171673000Y-122723000D01*
X125873000Y-121823000D02*
X126773000Y-122723000D01*
X125573000Y-122873000D02*
X126473000Y-123773000D01*
X121473000Y-121823000D02*
X125873000Y-121823000D01*
X120923000Y-122373000D02*
X121473000Y-121823000D01*
X125673000Y-122523000D02*
X126573000Y-123423000D01*
X119677000Y-121323000D02*
X120623000Y-121323000D01*
X121158000Y-120345200D02*
X123037600Y-120345200D01*
X172373000Y-123423000D02*
X172373000Y-74577000D01*
X119677000Y-76677000D02*
X119677000Y-121323000D01*
X120723000Y-121673000D02*
X121273000Y-121123000D01*
X127173000Y-121323000D02*
X170273000Y-121323000D01*
X120349562Y-92623000D02*
X120027000Y-92623000D01*
X126898400Y-121048400D02*
X127173000Y-121323000D01*
X116877000Y-124123000D02*
X121423000Y-124123000D01*
X125937557Y-117149157D02*
X126898400Y-118110000D01*
X120269000Y-90342438D02*
X120849001Y-90922439D01*
X170273000Y-76677000D02*
X119677000Y-76677000D01*
X117227000Y-74227000D02*
X117227000Y-123773000D01*
X170273000Y-121323000D02*
X170273000Y-76677000D01*
X126898400Y-118110000D02*
X126898400Y-121048400D01*
X172023000Y-123073000D02*
X172023000Y-74927000D01*
X120849001Y-90922439D02*
X120849001Y-92123561D01*
X121423000Y-124123000D02*
X121973000Y-123573000D01*
X123291600Y-118110000D02*
X124252443Y-117149157D01*
X125973000Y-121473000D02*
X126873000Y-122373000D01*
X120849001Y-92123561D02*
X120349562Y-92623000D01*
X120269000Y-89131000D02*
X120269000Y-90342438D01*
X123037600Y-120345200D02*
X123291600Y-120091200D01*
X121273000Y-121123000D02*
X126073000Y-121123000D01*
X124252443Y-117149157D02*
X125937557Y-117149157D01*
X121773000Y-122873000D02*
X125573000Y-122873000D01*
X170973000Y-75977000D02*
X118977000Y-75977000D01*
X173423000Y-124473000D02*
X173423000Y-73527000D01*
X120950000Y-88450000D02*
X120269000Y-89131000D01*
X120027000Y-120973000D02*
X120530200Y-120973000D01*
X121373000Y-121473000D02*
X125973000Y-121473000D01*
X120027000Y-92623000D02*
X120027000Y-120973000D01*
X123291600Y-120091200D02*
X123291600Y-118110000D01*
X120530200Y-120973000D02*
X121158000Y-120345200D01*
X121673000Y-122523000D02*
X125673000Y-122523000D01*
X120623000Y-121323000D02*
X121173000Y-120773000D01*
X121173000Y-120773000D02*
X126173000Y-120773000D01*
X173423000Y-73527000D02*
X119323000Y-73527000D01*
X126973000Y-122023000D02*
X170973000Y-122023000D01*
X126173000Y-120773000D02*
X127073000Y-121673000D01*
X127073000Y-121673000D02*
X170623000Y-121673000D01*
X170623000Y-121673000D02*
X170623000Y-76327000D01*
X121873000Y-123223000D02*
X125473000Y-123223000D01*
X170623000Y-76327000D02*
X119327000Y-76327000D01*
X120950000Y-86550000D02*
X120950000Y-88450000D01*
X119327000Y-76327000D02*
X119327000Y-121673000D01*
X172373000Y-74577000D02*
X117577000Y-74577000D01*
X119327000Y-121673000D02*
X120723000Y-121673000D01*
X120823000Y-122023000D02*
X121373000Y-121473000D01*
X121223000Y-123423000D02*
X121773000Y-122873000D01*
X126073000Y-121123000D02*
X126973000Y-122023000D01*
X170973000Y-122023000D02*
X170973000Y-75977000D01*
X172723000Y-74227000D02*
X117227000Y-74227000D01*
X118977000Y-75977000D02*
X118977000Y-122023000D01*
X118977000Y-122023000D02*
X120823000Y-122023000D01*
X126873000Y-122373000D02*
X171323000Y-122373000D01*
X171323000Y-122373000D02*
X171323000Y-75627000D01*
X117577000Y-123423000D02*
X121223000Y-123423000D01*
X171323000Y-75627000D02*
X118627000Y-75627000D01*
X118627000Y-75627000D02*
X118627000Y-122373000D01*
X118627000Y-122373000D02*
X120923000Y-122373000D01*
D17*
X162450000Y-96566500D02*
X162496500Y-96520000D01*
X162115500Y-101600000D02*
X162450000Y-101265500D01*
X162450000Y-101265500D02*
X162450000Y-96566500D01*
D21*
X164179000Y-93250000D02*
X164401500Y-93027500D01*
X160392000Y-93250000D02*
X164179000Y-93250000D01*
X159670844Y-93971156D02*
X160392000Y-93250000D01*
M02*
