%TF.GenerationSoftware,KiCad,Pcbnew,(5.1.5)-3*%
%TF.CreationDate,2020-08-30T11:50:14-07:00*%
%TF.ProjectId,ypanel,7970616e-656c-42e6-9b69-6361645f7063,rev?*%
%TF.SameCoordinates,Original*%
%TF.FileFunction,Legend,Top*%
%TF.FilePolarity,Positive*%
%FSLAX46Y46*%
G04 Gerber Fmt 4.6, Leading zero omitted, Abs format (unit mm)*
G04 Created by KiCad (PCBNEW (5.1.5)-3) date 2020-08-30 11:50:14*
%MOMM*%
%LPD*%
G04 APERTURE LIST*
%ADD10C,0.300000*%
%ADD11C,0.150000*%
%ADD12C,0.100000*%
%ADD13C,0.120000*%
%ADD14C,0.203200*%
%ADD15C,0.254000*%
%ADD16C,0.050000*%
%ADD17C,0.127000*%
%ADD18C,0.101600*%
%ADD19C,0.076200*%
G04 APERTURE END LIST*
D10*
X154555071Y-100785715D02*
X155555071Y-100428572D01*
X154555071Y-100071429D01*
X154055071Y-99214286D02*
X154055071Y-99071429D01*
X154126500Y-98928572D01*
X154197928Y-98857143D01*
X154340785Y-98785715D01*
X154626500Y-98714286D01*
X154983642Y-98714286D01*
X155269357Y-98785715D01*
X155412214Y-98857143D01*
X155483642Y-98928572D01*
X155555071Y-99071429D01*
X155555071Y-99214286D01*
X155483642Y-99357143D01*
X155412214Y-99428572D01*
X155269357Y-99500001D01*
X154983642Y-99571429D01*
X154626500Y-99571429D01*
X154340785Y-99500001D01*
X154197928Y-99428572D01*
X154126500Y-99357143D01*
X154055071Y-99214286D01*
X154055071Y-98214286D02*
X154055071Y-97285715D01*
X154626500Y-97785715D01*
X154626500Y-97571429D01*
X154697928Y-97428572D01*
X154769357Y-97357143D01*
X154912214Y-97285715D01*
X155269357Y-97285715D01*
X155412214Y-97357143D01*
X155483642Y-97428572D01*
X155555071Y-97571429D01*
X155555071Y-98000001D01*
X155483642Y-98142858D01*
X155412214Y-98214286D01*
D11*
X171211142Y-89501142D02*
X171854000Y-89501142D01*
X171982571Y-89544000D01*
X172068285Y-89629714D01*
X172111142Y-89758285D01*
X172111142Y-89844000D01*
X172111142Y-88644000D02*
X172111142Y-89072571D01*
X171211142Y-89072571D01*
X172025428Y-87829714D02*
X172068285Y-87872571D01*
X172111142Y-88001142D01*
X172111142Y-88086857D01*
X172068285Y-88215428D01*
X171982571Y-88301142D01*
X171896857Y-88344000D01*
X171725428Y-88386857D01*
X171596857Y-88386857D01*
X171425428Y-88344000D01*
X171339714Y-88301142D01*
X171254000Y-88215428D01*
X171211142Y-88086857D01*
X171211142Y-88001142D01*
X171254000Y-87872571D01*
X171296857Y-87829714D01*
X171211142Y-87186857D02*
X171854000Y-87186857D01*
X171982571Y-87229714D01*
X172068285Y-87315428D01*
X172111142Y-87444000D01*
X172111142Y-87529714D01*
X172111142Y-86329714D02*
X172111142Y-86758285D01*
X171211142Y-86758285D01*
X172025428Y-85515428D02*
X172068285Y-85558285D01*
X172111142Y-85686857D01*
X172111142Y-85772571D01*
X172068285Y-85901142D01*
X171982571Y-85986857D01*
X171896857Y-86029714D01*
X171725428Y-86072571D01*
X171596857Y-86072571D01*
X171425428Y-86029714D01*
X171339714Y-85986857D01*
X171254000Y-85901142D01*
X171211142Y-85772571D01*
X171211142Y-85686857D01*
X171254000Y-85558285D01*
X171296857Y-85515428D01*
X171211142Y-84872571D02*
X171854000Y-84872571D01*
X171982571Y-84915428D01*
X172068285Y-85001142D01*
X172111142Y-85129714D01*
X172111142Y-85215428D01*
X172111142Y-84015428D02*
X172111142Y-84444000D01*
X171211142Y-84444000D01*
X172025428Y-83201142D02*
X172068285Y-83244000D01*
X172111142Y-83372571D01*
X172111142Y-83458285D01*
X172068285Y-83586857D01*
X171982571Y-83672571D01*
X171896857Y-83715428D01*
X171725428Y-83758285D01*
X171596857Y-83758285D01*
X171425428Y-83715428D01*
X171339714Y-83672571D01*
X171254000Y-83586857D01*
X171211142Y-83458285D01*
X171211142Y-83372571D01*
X171254000Y-83244000D01*
X171296857Y-83201142D01*
X171211142Y-82558285D02*
X171854000Y-82558285D01*
X171982571Y-82601142D01*
X172068285Y-82686857D01*
X172111142Y-82815428D01*
X172111142Y-82901142D01*
X172111142Y-81701142D02*
X172111142Y-82129714D01*
X171211142Y-82129714D01*
X172025428Y-80886857D02*
X172068285Y-80929714D01*
X172111142Y-81058285D01*
X172111142Y-81144000D01*
X172068285Y-81272571D01*
X171982571Y-81358285D01*
X171896857Y-81401142D01*
X171725428Y-81444000D01*
X171596857Y-81444000D01*
X171425428Y-81401142D01*
X171339714Y-81358285D01*
X171254000Y-81272571D01*
X171211142Y-81144000D01*
X171211142Y-81058285D01*
X171254000Y-80929714D01*
X171296857Y-80886857D01*
D12*
X166850000Y-118950000D02*
G75*
G03X166850000Y-118950000I-2000000J0D01*
G01*
X166900000Y-79100000D02*
G75*
G03X166900000Y-79100000I-2000000J0D01*
G01*
D13*
X144800000Y-125050000D02*
X162800000Y-125050000D01*
X127050000Y-79100000D02*
G75*
G03X127050000Y-79100000I-2000000J0D01*
G01*
D12*
X127075000Y-118900000D02*
G75*
G03X127075000Y-118900000I-2000000J0D01*
G01*
X151587000Y-99000001D02*
G75*
G03X151587000Y-99000001I-8000000J0D01*
G01*
X134779564Y-114100000D02*
G75*
G03X134779564Y-114100000I-1029564J0D01*
G01*
X141279564Y-114100000D02*
G75*
G03X141279564Y-114100000I-1029564J0D01*
G01*
X126375000Y-118900000D02*
G75*
G03X126375000Y-118900000I-1300000J0D01*
G01*
X140979564Y-83920436D02*
G75*
G03X140979564Y-83920436I-1029564J0D01*
G01*
X147479564Y-83920436D02*
G75*
G03X147479564Y-83920436I-1029564J0D01*
G01*
X176975000Y-70000000D02*
X176975000Y-128000000D01*
D14*
X127914571Y-117531242D02*
X128785428Y-117531242D01*
X122114571Y-110131642D02*
X122985428Y-110131642D01*
X122550000Y-110567071D02*
X122550000Y-109696214D01*
D11*
X124785428Y-107430628D02*
X124785428Y-106668723D01*
X124642571Y-105859200D02*
X124690190Y-105716342D01*
X124737809Y-105668723D01*
X124833047Y-105621104D01*
X124975904Y-105621104D01*
X125071142Y-105668723D01*
X125118761Y-105716342D01*
X125166380Y-105811580D01*
X125166380Y-106192533D01*
X124166380Y-106192533D01*
X124166380Y-105859200D01*
X124214000Y-105763961D01*
X124261619Y-105716342D01*
X124356857Y-105668723D01*
X124452095Y-105668723D01*
X124547333Y-105716342D01*
X124594952Y-105763961D01*
X124642571Y-105859200D01*
X124642571Y-106192533D01*
X124880666Y-105240152D02*
X124880666Y-104763961D01*
X125166380Y-105335390D02*
X124166380Y-105002057D01*
X125166380Y-104668723D01*
X124166380Y-104478247D02*
X124166380Y-103906819D01*
X125166380Y-104192533D02*
X124166380Y-104192533D01*
X124166380Y-103716342D02*
X124166380Y-103144914D01*
X125166380Y-103430628D02*
X124166380Y-103430628D01*
X124734628Y-96000628D02*
X124734628Y-95238723D01*
X125115580Y-95619676D02*
X124353676Y-95619676D01*
X124591771Y-94429200D02*
X124639390Y-94286342D01*
X124687009Y-94238723D01*
X124782247Y-94191104D01*
X124925104Y-94191104D01*
X125020342Y-94238723D01*
X125067961Y-94286342D01*
X125115580Y-94381580D01*
X125115580Y-94762533D01*
X124115580Y-94762533D01*
X124115580Y-94429200D01*
X124163200Y-94333961D01*
X124210819Y-94286342D01*
X124306057Y-94238723D01*
X124401295Y-94238723D01*
X124496533Y-94286342D01*
X124544152Y-94333961D01*
X124591771Y-94429200D01*
X124591771Y-94762533D01*
X124829866Y-93810152D02*
X124829866Y-93333961D01*
X125115580Y-93905390D02*
X124115580Y-93572057D01*
X125115580Y-93238723D01*
X124115580Y-93048247D02*
X124115580Y-92476819D01*
X125115580Y-92762533D02*
X124115580Y-92762533D01*
X124115580Y-92286342D02*
X124115580Y-91714914D01*
X125115580Y-92000628D02*
X124115580Y-92000628D01*
D15*
X113030000Y-72999600D02*
X177017200Y-72999600D01*
X113000000Y-125000000D02*
X176987200Y-125000000D01*
D12*
X166200000Y-118900000D02*
G75*
G03X166200000Y-118900000I-1300000J0D01*
G01*
D16*
X126372800Y-79100000D02*
G75*
G03X126372800Y-79100000I-1300000J0D01*
G01*
D12*
X166195000Y-79102480D02*
G75*
G03X166195000Y-79102480I-1300000J0D01*
G01*
X176975000Y-70000000D02*
X113000000Y-70000000D01*
X113000000Y-128000000D02*
X176975000Y-128000000D01*
X113000000Y-70000000D02*
X113000000Y-128000000D01*
D14*
X155214571Y-85331642D02*
X156085428Y-85331642D01*
D17*
X153147290Y-87816461D02*
X153147290Y-87181461D01*
X153389195Y-87181461D01*
X153449671Y-87211700D01*
X153479909Y-87241938D01*
X153510147Y-87302414D01*
X153510147Y-87393128D01*
X153479909Y-87453604D01*
X153449671Y-87483842D01*
X153389195Y-87514080D01*
X153147290Y-87514080D01*
X153481428Y-82812738D02*
X153481428Y-83447738D01*
X153118571Y-82812738D01*
X153118571Y-83447738D01*
D14*
X150617571Y-85413742D02*
X151488428Y-85413742D01*
X151053000Y-85849171D02*
X151053000Y-84978314D01*
D13*
X152259500Y-85332100D02*
X151942000Y-85332100D01*
X153466000Y-85332100D02*
X153148500Y-85332100D01*
X152513500Y-85332100D02*
X152831000Y-85332100D01*
X153847000Y-85332100D02*
X154164500Y-85332100D01*
X154799500Y-85332100D02*
X154482000Y-85332100D01*
D11*
X162250000Y-106750000D02*
X162250000Y-124750000D01*
X144250000Y-106750000D02*
X162250000Y-106750000D01*
X144250000Y-123750000D02*
X144250000Y-106750000D01*
X145250000Y-124750000D02*
X144250000Y-123750000D01*
X162250000Y-124750000D02*
X145250000Y-124750000D01*
D13*
X117945000Y-100250500D02*
X118345000Y-100250500D01*
X117345000Y-98350500D02*
X120145000Y-98350500D01*
X117345000Y-100150500D02*
X117345000Y-98350500D01*
X120145000Y-100150500D02*
X117345000Y-100150500D01*
X120145000Y-98350500D02*
X120145000Y-100150500D01*
X173063000Y-100123500D02*
X173463000Y-100123500D01*
X172463000Y-98223500D02*
X175263000Y-98223500D01*
X172463000Y-100023500D02*
X172463000Y-98223500D01*
X175263000Y-100023500D02*
X172463000Y-100023500D01*
X175263000Y-98223500D02*
X175263000Y-100023500D01*
D14*
X159198480Y-103250000D02*
X159198480Y-105150000D01*
X159198480Y-103250000D02*
X159298480Y-103250000D01*
X159298480Y-103250000D02*
X159298480Y-105150000D01*
X166898480Y-103250000D02*
X166998480Y-103250000D01*
X166998480Y-103250000D02*
X166998480Y-105150000D01*
X166898480Y-103250000D02*
X166898480Y-105150000D01*
D13*
X163098480Y-87250000D02*
X163098480Y-85250000D01*
X163098480Y-102550000D02*
X163098480Y-100550000D01*
X162098480Y-101550000D02*
X164098480Y-101550000D01*
X167098480Y-105250000D02*
X159098480Y-105250000D01*
X167098480Y-82250000D02*
X167098480Y-105250000D01*
X159098480Y-82250000D02*
X167098480Y-82250000D01*
X159098480Y-105250000D02*
X159098480Y-82250000D01*
X142100000Y-109900000D02*
X142100000Y-112500000D01*
X137000000Y-109900000D02*
X137000000Y-112500000D01*
X131900000Y-109900000D02*
X131900000Y-112500000D01*
X143400000Y-119100000D02*
X130600000Y-119100000D01*
X130600000Y-112600000D02*
X130600000Y-119100000D01*
X130600000Y-112600000D02*
X143400000Y-112600000D01*
X143400000Y-119100000D02*
X143400000Y-112600000D01*
X134750000Y-114100000D02*
G75*
G03X134750000Y-114100000I-1000000J0D01*
G01*
X141250000Y-114100000D02*
G75*
G03X141250000Y-114100000I-1000000J0D01*
G01*
X132600000Y-123600000D02*
G75*
G03X132600000Y-123600000I-2000000J0D01*
G01*
X142080000Y-119100000D02*
X132600000Y-123600000D01*
X138100000Y-88100000D02*
X138100000Y-85500000D01*
X143200000Y-88100000D02*
X143200000Y-85500000D01*
X148300000Y-88100000D02*
X148300000Y-85500000D01*
X136800000Y-78900000D02*
X149600000Y-78900000D01*
X149600000Y-85400000D02*
X149600000Y-78900000D01*
X149600000Y-85400000D02*
X136800000Y-85400000D01*
X136800000Y-78900000D02*
X136800000Y-85400000D01*
X147450000Y-83900000D02*
G75*
G03X147450000Y-83900000I-1000000J0D01*
G01*
X140950000Y-83900000D02*
G75*
G03X140950000Y-83900000I-1000000J0D01*
G01*
X139100000Y-74130000D02*
G75*
G03X139100000Y-74130000I-2000000J0D01*
G01*
X139100000Y-74130000D02*
X148280000Y-78900000D01*
D18*
X124604600Y-109598700D02*
G75*
G02X124704600Y-109598700I50000J0D01*
G01*
X124704600Y-109598700D02*
G75*
G02X124604600Y-109598700I-50000J0D01*
G01*
D12*
X124504600Y-109598700D02*
G75*
G02X124804600Y-109598700I150000J0D01*
G01*
X124804600Y-109598700D02*
G75*
G02X124504600Y-109598700I-150000J0D01*
G01*
X126404600Y-112398700D02*
X127404600Y-112405700D01*
X126404600Y-109798700D02*
X127404600Y-109795700D01*
D14*
X115100000Y-95000000D02*
X115100000Y-96900000D01*
X115100000Y-95000000D02*
X115200000Y-95000000D01*
X115200000Y-95000000D02*
X115200000Y-96900000D01*
X122800000Y-95000000D02*
X122900000Y-95000000D01*
X122900000Y-95000000D02*
X122900000Y-96900000D01*
X122800000Y-95000000D02*
X122800000Y-96900000D01*
D13*
X119000000Y-79000000D02*
X119000000Y-77000000D01*
X119000000Y-94300000D02*
X119000000Y-92300000D01*
X118000000Y-93300000D02*
X120000000Y-93300000D01*
X123000000Y-97000000D02*
X115000000Y-97000000D01*
X123000000Y-74000000D02*
X123000000Y-97000000D01*
X115000000Y-74000000D02*
X123000000Y-74000000D01*
X115000000Y-97000000D02*
X115000000Y-74000000D01*
D14*
X167842100Y-122063000D02*
X167842100Y-123963000D01*
X167842100Y-122063000D02*
X167942100Y-122063000D01*
X167942100Y-122063000D02*
X167942100Y-123963000D01*
X175542100Y-122063000D02*
X175642100Y-122063000D01*
X175642100Y-122063000D02*
X175642100Y-123963000D01*
X175542100Y-122063000D02*
X175542100Y-123963000D01*
D13*
X171742100Y-106063000D02*
X171742100Y-104063000D01*
X171742100Y-121363000D02*
X171742100Y-119363000D01*
X170742100Y-120363000D02*
X172742100Y-120363000D01*
X175742100Y-124063000D02*
X167742100Y-124063000D01*
X175742100Y-101063000D02*
X175742100Y-124063000D01*
X167742100Y-101063000D02*
X175742100Y-101063000D01*
X167742100Y-124063000D02*
X167742100Y-101063000D01*
D14*
X126950000Y-101650000D02*
X126950000Y-103550000D01*
X126950000Y-101650000D02*
X127050000Y-101650000D01*
X127050000Y-101650000D02*
X127050000Y-103550000D01*
X134650000Y-101650000D02*
X134750000Y-101650000D01*
X134750000Y-101650000D02*
X134750000Y-103550000D01*
X134650000Y-101650000D02*
X134650000Y-103550000D01*
D13*
X130850000Y-85650000D02*
X130850000Y-83650000D01*
X130850000Y-100950000D02*
X130850000Y-98950000D01*
X129850000Y-99950000D02*
X131850000Y-99950000D01*
X134850000Y-103650000D02*
X126850000Y-103650000D01*
X134850000Y-80650000D02*
X134850000Y-103650000D01*
X126850000Y-80650000D02*
X134850000Y-80650000D01*
X126850000Y-103650000D02*
X126850000Y-80650000D01*
D14*
X122900000Y-103000000D02*
X122900000Y-101100000D01*
X122900000Y-103000000D02*
X122800000Y-103000000D01*
X122800000Y-103000000D02*
X122800000Y-101100000D01*
X115200000Y-103000000D02*
X115100000Y-103000000D01*
X115100000Y-103000000D02*
X115100000Y-101100000D01*
X115200000Y-103000000D02*
X115200000Y-101100000D01*
D13*
X119000000Y-119000000D02*
X119000000Y-121000000D01*
X119000000Y-103700000D02*
X119000000Y-105700000D01*
X120000000Y-104700000D02*
X118000000Y-104700000D01*
X115000000Y-101000000D02*
X123000000Y-101000000D01*
X115000000Y-124000000D02*
X115000000Y-101000000D01*
X123000000Y-124000000D02*
X115000000Y-124000000D01*
X123000000Y-101000000D02*
X123000000Y-124000000D01*
D14*
X167786220Y-94890080D02*
X167786220Y-96790080D01*
X167786220Y-94890080D02*
X167886220Y-94890080D01*
X167886220Y-94890080D02*
X167886220Y-96790080D01*
X175486220Y-94890080D02*
X175586220Y-94890080D01*
X175586220Y-94890080D02*
X175586220Y-96790080D01*
X175486220Y-94890080D02*
X175486220Y-96790080D01*
D13*
X171686220Y-78890080D02*
X171686220Y-76890080D01*
X171686220Y-94190080D02*
X171686220Y-92190080D01*
X170686220Y-93190080D02*
X172686220Y-93190080D01*
X175686220Y-96890080D02*
X167686220Y-96890080D01*
X175686220Y-73890080D02*
X175686220Y-96890080D01*
X167686220Y-73890080D02*
X175686220Y-73890080D01*
X167686220Y-96890080D02*
X167686220Y-73890080D01*
D19*
X118473928Y-101537761D02*
X118473928Y-100902761D01*
X118625119Y-100902761D01*
X118715833Y-100933000D01*
X118776309Y-100993476D01*
X118806547Y-101053952D01*
X118836785Y-101174904D01*
X118836785Y-101265619D01*
X118806547Y-101386571D01*
X118776309Y-101447047D01*
X118715833Y-101507523D01*
X118625119Y-101537761D01*
X118473928Y-101537761D01*
X119441547Y-101537761D02*
X119078690Y-101537761D01*
X119260119Y-101537761D02*
X119260119Y-100902761D01*
X119199642Y-100993476D01*
X119139166Y-101053952D01*
X119078690Y-101084190D01*
X119683452Y-100963238D02*
X119713690Y-100933000D01*
X119774166Y-100902761D01*
X119925357Y-100902761D01*
X119985833Y-100933000D01*
X120016071Y-100963238D01*
X120046309Y-101023714D01*
X120046309Y-101084190D01*
X120016071Y-101174904D01*
X119653214Y-101537761D01*
X120046309Y-101537761D01*
X173591928Y-101410761D02*
X173591928Y-100775761D01*
X173743119Y-100775761D01*
X173833833Y-100806000D01*
X173894309Y-100866476D01*
X173924547Y-100926952D01*
X173954785Y-101047904D01*
X173954785Y-101138619D01*
X173924547Y-101259571D01*
X173894309Y-101320047D01*
X173833833Y-101380523D01*
X173743119Y-101410761D01*
X173591928Y-101410761D01*
X174559547Y-101410761D02*
X174196690Y-101410761D01*
X174378119Y-101410761D02*
X174378119Y-100775761D01*
X174317642Y-100866476D01*
X174257166Y-100926952D01*
X174196690Y-100957190D01*
X175164309Y-101410761D02*
X174801452Y-101410761D01*
X174982880Y-101410761D02*
X174982880Y-100775761D01*
X174922404Y-100866476D01*
X174861928Y-100926952D01*
X174801452Y-100957190D01*
X136516190Y-117602261D02*
X136516190Y-118116309D01*
X136546428Y-118176785D01*
X136576666Y-118207023D01*
X136637142Y-118237261D01*
X136758095Y-118237261D01*
X136818571Y-118207023D01*
X136848809Y-118176785D01*
X136879047Y-118116309D01*
X136879047Y-117602261D01*
X137453571Y-117813928D02*
X137453571Y-118237261D01*
X137302380Y-117572023D02*
X137151190Y-118025595D01*
X137544285Y-118025595D01*
X142716190Y-79702261D02*
X142716190Y-80216309D01*
X142746428Y-80276785D01*
X142776666Y-80307023D01*
X142837142Y-80337261D01*
X142958095Y-80337261D01*
X143018571Y-80307023D01*
X143048809Y-80276785D01*
X143079047Y-80216309D01*
X143079047Y-79702261D01*
X143320952Y-79702261D02*
X143714047Y-79702261D01*
X143502380Y-79944166D01*
X143593095Y-79944166D01*
X143653571Y-79974404D01*
X143683809Y-80004642D01*
X143714047Y-80065119D01*
X143714047Y-80216309D01*
X143683809Y-80276785D01*
X143653571Y-80307023D01*
X143593095Y-80337261D01*
X143411666Y-80337261D01*
X143351190Y-80307023D01*
X143320952Y-80276785D01*
X126430119Y-113737261D02*
X126430119Y-113102261D01*
X127095357Y-113676785D02*
X127065119Y-113707023D01*
X126974404Y-113737261D01*
X126913928Y-113737261D01*
X126823214Y-113707023D01*
X126762738Y-113646547D01*
X126732500Y-113586071D01*
X126702261Y-113465119D01*
X126702261Y-113374404D01*
X126732500Y-113253452D01*
X126762738Y-113192976D01*
X126823214Y-113132500D01*
X126913928Y-113102261D01*
X126974404Y-113102261D01*
X127065119Y-113132500D01*
X127095357Y-113162738D01*
X127337261Y-113162738D02*
X127367500Y-113132500D01*
X127427976Y-113102261D01*
X127579166Y-113102261D01*
X127639642Y-113132500D01*
X127669880Y-113162738D01*
X127700119Y-113223214D01*
X127700119Y-113283690D01*
X127669880Y-113374404D01*
X127307023Y-113737261D01*
X127700119Y-113737261D01*
X126925766Y-107909185D02*
X126895528Y-107939423D01*
X126804814Y-107969661D01*
X126744338Y-107969661D01*
X126653623Y-107939423D01*
X126593147Y-107878947D01*
X126562909Y-107818471D01*
X126532671Y-107697519D01*
X126532671Y-107606804D01*
X126562909Y-107485852D01*
X126593147Y-107425376D01*
X126653623Y-107364900D01*
X126744338Y-107334661D01*
X126804814Y-107334661D01*
X126895528Y-107364900D01*
X126925766Y-107395138D01*
X127500290Y-107334661D02*
X127197909Y-107334661D01*
X127167671Y-107637042D01*
X127197909Y-107606804D01*
X127258385Y-107576566D01*
X127409576Y-107576566D01*
X127470052Y-107606804D01*
X127500290Y-107637042D01*
X127530528Y-107697519D01*
X127530528Y-107848709D01*
X127500290Y-107909185D01*
X127470052Y-107939423D01*
X127409576Y-107969661D01*
X127258385Y-107969661D01*
X127197909Y-107939423D01*
X127167671Y-107909185D01*
M02*
