%TF.GenerationSoftware,KiCad,Pcbnew,(5.1.5)-3*%
%TF.CreationDate,2020-08-30T11:50:14-07:00*%
%TF.ProjectId,ypanel,7970616e-656c-42e6-9b69-6361645f7063,rev?*%
%TF.SameCoordinates,Original*%
%TF.FileFunction,Soldermask,Bot*%
%TF.FilePolarity,Negative*%
%FSLAX46Y46*%
G04 Gerber Fmt 4.6, Leading zero omitted, Abs format (unit mm)*
G04 Created by KiCad (PCBNEW (5.1.5)-3) date 2020-08-30 11:50:14*
%MOMM*%
%LPD*%
G04 APERTURE LIST*
%ADD10C,0.100000*%
%ADD11C,0.050000*%
G04 APERTURE END LIST*
D10*
X151587000Y-99000001D02*
G75*
G03X151587000Y-99000001I-8000000J0D01*
G01*
X134779564Y-114100000D02*
G75*
G03X134779564Y-114100000I-1029564J0D01*
G01*
X141279564Y-114100000D02*
G75*
G03X141279564Y-114100000I-1029564J0D01*
G01*
X126375000Y-118900000D02*
G75*
G03X126375000Y-118900000I-1300000J0D01*
G01*
X140979564Y-83920436D02*
G75*
G03X140979564Y-83920436I-1029564J0D01*
G01*
X147479564Y-83920436D02*
G75*
G03X147479564Y-83920436I-1029564J0D01*
G01*
X176975000Y-70000000D02*
X176975000Y-128000000D01*
X166200000Y-118900000D02*
G75*
G03X166200000Y-118900000I-1300000J0D01*
G01*
D11*
X126372800Y-79100000D02*
G75*
G03X126372800Y-79100000I-1300000J0D01*
G01*
D10*
X166195000Y-79102480D02*
G75*
G03X166195000Y-79102480I-1300000J0D01*
G01*
X176975000Y-70000000D02*
X113000000Y-70000000D01*
X113000000Y-128000000D02*
X176975000Y-128000000D01*
X113000000Y-70000000D02*
X113000000Y-128000000D01*
G36*
X174744767Y-119393822D02*
G01*
X174881258Y-119450359D01*
X175004097Y-119532437D01*
X175108563Y-119636903D01*
X175190641Y-119759742D01*
X175247178Y-119896233D01*
X175276000Y-120041131D01*
X175276000Y-120188869D01*
X175247178Y-120333767D01*
X175190641Y-120470258D01*
X175108563Y-120593097D01*
X175004097Y-120697563D01*
X174881258Y-120779641D01*
X174744767Y-120836178D01*
X174599869Y-120865000D01*
X174452131Y-120865000D01*
X174307233Y-120836178D01*
X174170742Y-120779641D01*
X174047903Y-120697563D01*
X173943437Y-120593097D01*
X173861359Y-120470258D01*
X173804822Y-120333767D01*
X173776000Y-120188869D01*
X173776000Y-120041131D01*
X173804822Y-119896233D01*
X173861359Y-119759742D01*
X173943437Y-119636903D01*
X174047903Y-119532437D01*
X174170742Y-119450359D01*
X174307233Y-119393822D01*
X174452131Y-119365000D01*
X174599869Y-119365000D01*
X174744767Y-119393822D01*
G37*
G36*
X153628905Y-113500920D02*
G01*
X153726826Y-113541480D01*
X153865307Y-113598841D01*
X153865308Y-113598842D01*
X154078065Y-113741001D01*
X154258999Y-113921935D01*
X154311828Y-114001000D01*
X154401159Y-114134693D01*
X154499080Y-114371096D01*
X154549000Y-114622060D01*
X154549000Y-114877940D01*
X154499080Y-115128904D01*
X154401159Y-115365307D01*
X154401158Y-115365308D01*
X154258999Y-115578065D01*
X154078065Y-115758999D01*
X153935905Y-115853987D01*
X153865307Y-115901159D01*
X153726826Y-115958520D01*
X153628905Y-115999080D01*
X153377940Y-116049000D01*
X153122060Y-116049000D01*
X152871095Y-115999080D01*
X152773174Y-115958520D01*
X152634693Y-115901159D01*
X152564095Y-115853987D01*
X152421935Y-115758999D01*
X152241001Y-115578065D01*
X152098842Y-115365308D01*
X152098841Y-115365307D01*
X152000920Y-115128904D01*
X151951000Y-114877940D01*
X151951000Y-114622060D01*
X152000920Y-114371096D01*
X152098841Y-114134693D01*
X152188172Y-114001000D01*
X152241001Y-113921935D01*
X152421935Y-113741001D01*
X152634692Y-113598842D01*
X152634693Y-113598841D01*
X152773174Y-113541480D01*
X152871095Y-113500920D01*
X153122060Y-113451000D01*
X153377940Y-113451000D01*
X153628905Y-113500920D01*
G37*
G36*
X161349000Y-115799000D02*
G01*
X159751000Y-115799000D01*
X159751000Y-114001000D01*
X161349000Y-114001000D01*
X161349000Y-115799000D01*
G37*
G36*
X165049000Y-113424000D02*
G01*
X163851000Y-113424000D01*
X163851000Y-113076000D01*
X165049000Y-113076000D01*
X165049000Y-113424000D01*
G37*
G36*
X165049000Y-112924000D02*
G01*
X163851000Y-112924000D01*
X163851000Y-112576000D01*
X165049000Y-112576000D01*
X165049000Y-112924000D01*
G37*
G36*
X165049000Y-112424000D02*
G01*
X163851000Y-112424000D01*
X163851000Y-112076000D01*
X165049000Y-112076000D01*
X165049000Y-112424000D01*
G37*
G36*
X165049000Y-111924000D02*
G01*
X163851000Y-111924000D01*
X163851000Y-111576000D01*
X165049000Y-111576000D01*
X165049000Y-111924000D01*
G37*
G36*
X165049000Y-111424000D02*
G01*
X163851000Y-111424000D01*
X163851000Y-111076000D01*
X165049000Y-111076000D01*
X165049000Y-111424000D01*
G37*
G36*
X149191035Y-110606401D02*
G01*
X148250648Y-111264867D01*
X146932569Y-109382455D01*
X147872956Y-108723989D01*
X149191035Y-110606401D01*
G37*
G36*
X150589767Y-110076000D02*
G01*
X150923703Y-110552910D01*
X150024274Y-111182697D01*
X150024273Y-111182697D01*
X149672165Y-110679834D01*
X149365807Y-110242310D01*
X150265236Y-109612523D01*
X150265237Y-109612523D01*
X150589767Y-110076000D01*
G37*
G36*
X165049000Y-110924000D02*
G01*
X163851000Y-110924000D01*
X163851000Y-110576000D01*
X165049000Y-110576000D01*
X165049000Y-110924000D01*
G37*
G36*
X142212105Y-109099389D02*
G01*
X142316562Y-109120166D01*
X142464151Y-109181300D01*
X142464153Y-109181301D01*
X142508629Y-109211019D01*
X142596983Y-109270055D01*
X142709945Y-109383017D01*
X142798700Y-109515849D01*
X142859834Y-109663438D01*
X142891000Y-109820124D01*
X142891000Y-109979876D01*
X142859834Y-110136562D01*
X142798700Y-110284151D01*
X142709945Y-110416983D01*
X142596983Y-110529945D01*
X142562613Y-110552910D01*
X142464153Y-110618699D01*
X142464152Y-110618700D01*
X142464151Y-110618700D01*
X142316562Y-110679834D01*
X142212105Y-110700611D01*
X142159877Y-110711000D01*
X142000123Y-110711000D01*
X141947895Y-110700611D01*
X141843438Y-110679834D01*
X141695849Y-110618700D01*
X141695848Y-110618700D01*
X141695847Y-110618699D01*
X141597387Y-110552910D01*
X141563017Y-110529945D01*
X141450055Y-110416983D01*
X141361300Y-110284151D01*
X141300166Y-110136562D01*
X141269000Y-109979876D01*
X141269000Y-109820124D01*
X141300166Y-109663438D01*
X141361300Y-109515849D01*
X141450055Y-109383017D01*
X141563017Y-109270055D01*
X141651371Y-109211019D01*
X141695847Y-109181301D01*
X141695849Y-109181300D01*
X141843438Y-109120166D01*
X141947895Y-109099389D01*
X142000123Y-109089000D01*
X142159877Y-109089000D01*
X142212105Y-109099389D01*
G37*
G36*
X137132105Y-109099389D02*
G01*
X137236562Y-109120166D01*
X137384151Y-109181300D01*
X137384153Y-109181301D01*
X137428629Y-109211019D01*
X137516983Y-109270055D01*
X137629945Y-109383017D01*
X137718700Y-109515849D01*
X137779834Y-109663438D01*
X137811000Y-109820124D01*
X137811000Y-109979876D01*
X137779834Y-110136562D01*
X137718700Y-110284151D01*
X137629945Y-110416983D01*
X137516983Y-110529945D01*
X137482613Y-110552910D01*
X137384153Y-110618699D01*
X137384152Y-110618700D01*
X137384151Y-110618700D01*
X137236562Y-110679834D01*
X137132105Y-110700611D01*
X137079877Y-110711000D01*
X136920123Y-110711000D01*
X136867895Y-110700611D01*
X136763438Y-110679834D01*
X136615849Y-110618700D01*
X136615848Y-110618700D01*
X136615847Y-110618699D01*
X136517387Y-110552910D01*
X136483017Y-110529945D01*
X136370055Y-110416983D01*
X136281300Y-110284151D01*
X136220166Y-110136562D01*
X136189000Y-109979876D01*
X136189000Y-109820124D01*
X136220166Y-109663438D01*
X136281300Y-109515849D01*
X136370055Y-109383017D01*
X136483017Y-109270055D01*
X136571371Y-109211019D01*
X136615847Y-109181301D01*
X136615849Y-109181300D01*
X136763438Y-109120166D01*
X136867895Y-109099389D01*
X136920123Y-109089000D01*
X137079877Y-109089000D01*
X137132105Y-109099389D01*
G37*
G36*
X132052105Y-109099389D02*
G01*
X132156562Y-109120166D01*
X132304151Y-109181300D01*
X132304153Y-109181301D01*
X132348629Y-109211019D01*
X132436983Y-109270055D01*
X132549945Y-109383017D01*
X132638700Y-109515849D01*
X132699834Y-109663438D01*
X132731000Y-109820124D01*
X132731000Y-109979876D01*
X132699834Y-110136562D01*
X132638700Y-110284151D01*
X132549945Y-110416983D01*
X132436983Y-110529945D01*
X132402613Y-110552910D01*
X132304153Y-110618699D01*
X132304152Y-110618700D01*
X132304151Y-110618700D01*
X132156562Y-110679834D01*
X132052105Y-110700611D01*
X131999877Y-110711000D01*
X131840123Y-110711000D01*
X131787895Y-110700611D01*
X131683438Y-110679834D01*
X131535849Y-110618700D01*
X131535848Y-110618700D01*
X131535847Y-110618699D01*
X131437387Y-110552910D01*
X131403017Y-110529945D01*
X131290055Y-110416983D01*
X131201300Y-110284151D01*
X131140166Y-110136562D01*
X131109000Y-109979876D01*
X131109000Y-109820124D01*
X131140166Y-109663438D01*
X131201300Y-109515849D01*
X131290055Y-109383017D01*
X131403017Y-109270055D01*
X131491371Y-109211019D01*
X131535847Y-109181301D01*
X131535849Y-109181300D01*
X131683438Y-109120166D01*
X131787895Y-109099389D01*
X131840123Y-109089000D01*
X131999877Y-109089000D01*
X132052105Y-109099389D01*
G37*
G36*
X165049000Y-110424000D02*
G01*
X163851000Y-110424000D01*
X163851000Y-110076000D01*
X165049000Y-110076000D01*
X165049000Y-110424000D01*
G37*
G36*
X165049000Y-109924000D02*
G01*
X163851000Y-109924000D01*
X163851000Y-109576000D01*
X165049000Y-109576000D01*
X165049000Y-109924000D01*
G37*
G36*
X151607533Y-108914351D02*
G01*
X150667146Y-109572817D01*
X149349067Y-107690405D01*
X150289454Y-107031939D01*
X151607533Y-108914351D01*
G37*
G36*
X165049000Y-109424000D02*
G01*
X163851000Y-109424000D01*
X163851000Y-109076000D01*
X165049000Y-109076000D01*
X165049000Y-109424000D01*
G37*
G36*
X165049000Y-108924000D02*
G01*
X163851000Y-108924000D01*
X163851000Y-108576000D01*
X165049000Y-108576000D01*
X165049000Y-108924000D01*
G37*
G36*
X161349000Y-107999000D02*
G01*
X159751000Y-107999000D01*
X159751000Y-106201000D01*
X161349000Y-106201000D01*
X161349000Y-107999000D01*
G37*
G36*
X157012380Y-104695820D02*
G01*
X154914380Y-104695820D01*
X154914380Y-103497820D01*
X157012380Y-103497820D01*
X157012380Y-104695820D01*
G37*
G36*
X154512380Y-104545820D02*
G01*
X153614380Y-104545820D01*
X153614380Y-103647820D01*
X154512380Y-103647820D01*
X154512380Y-104545820D01*
G37*
G36*
X160016433Y-103141064D02*
G01*
X160044010Y-103149430D01*
X160069423Y-103163014D01*
X160091702Y-103181298D01*
X160109986Y-103203577D01*
X160123570Y-103228990D01*
X160131936Y-103256567D01*
X160135000Y-103287684D01*
X160135000Y-103676316D01*
X160131936Y-103707433D01*
X160123570Y-103735010D01*
X160109986Y-103760423D01*
X160091702Y-103782702D01*
X160069423Y-103800986D01*
X160044010Y-103814570D01*
X160016433Y-103822936D01*
X159985316Y-103826000D01*
X159546684Y-103826000D01*
X159515567Y-103822936D01*
X159487990Y-103814570D01*
X159462577Y-103800986D01*
X159440298Y-103782702D01*
X159422014Y-103760423D01*
X159408430Y-103735010D01*
X159400064Y-103707433D01*
X159397000Y-103676316D01*
X159397000Y-103287684D01*
X159400064Y-103256567D01*
X159408430Y-103228990D01*
X159422014Y-103203577D01*
X159440298Y-103181298D01*
X159462577Y-103163014D01*
X159487990Y-103149430D01*
X159515567Y-103141064D01*
X159546684Y-103138000D01*
X159985316Y-103138000D01*
X160016433Y-103141064D01*
G37*
G36*
X130612792Y-102055679D02*
G01*
X130656137Y-102068828D01*
X130696079Y-102090177D01*
X130731090Y-102118910D01*
X130759823Y-102153921D01*
X130781172Y-102193863D01*
X130794321Y-102237208D01*
X130799000Y-102284717D01*
X130799000Y-103515283D01*
X130794321Y-103562792D01*
X130781172Y-103606137D01*
X130759823Y-103646079D01*
X130731090Y-103681090D01*
X130696079Y-103709823D01*
X130656137Y-103731172D01*
X130612792Y-103744321D01*
X130565283Y-103749000D01*
X127934717Y-103749000D01*
X127887208Y-103744321D01*
X127843863Y-103731172D01*
X127803921Y-103709823D01*
X127768910Y-103681090D01*
X127740177Y-103646079D01*
X127718828Y-103606137D01*
X127705679Y-103562792D01*
X127701000Y-103515283D01*
X127701000Y-102284717D01*
X127705679Y-102237208D01*
X127718828Y-102193863D01*
X127740177Y-102153921D01*
X127768910Y-102118910D01*
X127803921Y-102090177D01*
X127843863Y-102068828D01*
X127887208Y-102055679D01*
X127934717Y-102051000D01*
X130565283Y-102051000D01*
X130612792Y-102055679D01*
G37*
G36*
X157102120Y-103010600D02*
G01*
X152580920Y-103010600D01*
X152580920Y-101448500D01*
X157102120Y-101448500D01*
X157102120Y-103010600D01*
G37*
G36*
X160016433Y-102171064D02*
G01*
X160044010Y-102179430D01*
X160069423Y-102193014D01*
X160091702Y-102211298D01*
X160109986Y-102233577D01*
X160123570Y-102258990D01*
X160131936Y-102286567D01*
X160135000Y-102317684D01*
X160135000Y-102706316D01*
X160131936Y-102737433D01*
X160123570Y-102765010D01*
X160109986Y-102790423D01*
X160091702Y-102812702D01*
X160069423Y-102830986D01*
X160044010Y-102844570D01*
X160016433Y-102852936D01*
X159985316Y-102856000D01*
X159546684Y-102856000D01*
X159515567Y-102852936D01*
X159487990Y-102844570D01*
X159462577Y-102830986D01*
X159440298Y-102812702D01*
X159422014Y-102790423D01*
X159408430Y-102765010D01*
X159400064Y-102737433D01*
X159397000Y-102706316D01*
X159397000Y-102317684D01*
X159400064Y-102286567D01*
X159408430Y-102258990D01*
X159422014Y-102233577D01*
X159440298Y-102211298D01*
X159462577Y-102193014D01*
X159487990Y-102179430D01*
X159515567Y-102171064D01*
X159546684Y-102168000D01*
X159985316Y-102168000D01*
X160016433Y-102171064D01*
G37*
G36*
X125844300Y-102626160D02*
G01*
X123685300Y-102626160D01*
X123685300Y-100467160D01*
X125844300Y-100467160D01*
X125844300Y-102626160D01*
G37*
G36*
X158297433Y-101159564D02*
G01*
X158325010Y-101167930D01*
X158350423Y-101181514D01*
X158372702Y-101199798D01*
X158390986Y-101222077D01*
X158404570Y-101247490D01*
X158412936Y-101275067D01*
X158416000Y-101306184D01*
X158416000Y-101694816D01*
X158412936Y-101725933D01*
X158404570Y-101753510D01*
X158390986Y-101778923D01*
X158372702Y-101801202D01*
X158350423Y-101819486D01*
X158325010Y-101833070D01*
X158297433Y-101841436D01*
X158266316Y-101844500D01*
X157827684Y-101844500D01*
X157796567Y-101841436D01*
X157768990Y-101833070D01*
X157743577Y-101819486D01*
X157721298Y-101801202D01*
X157703014Y-101778923D01*
X157689430Y-101753510D01*
X157681064Y-101725933D01*
X157678000Y-101694816D01*
X157678000Y-101306184D01*
X157681064Y-101275067D01*
X157689430Y-101247490D01*
X157703014Y-101222077D01*
X157721298Y-101199798D01*
X157743577Y-101181514D01*
X157768990Y-101167930D01*
X157796567Y-101159564D01*
X157827684Y-101156500D01*
X158266316Y-101156500D01*
X158297433Y-101159564D01*
G37*
G36*
X160075433Y-100397564D02*
G01*
X160103010Y-100405930D01*
X160128423Y-100419514D01*
X160150702Y-100437798D01*
X160168986Y-100460077D01*
X160182570Y-100485490D01*
X160190936Y-100513067D01*
X160194000Y-100544184D01*
X160194000Y-100932816D01*
X160190936Y-100963933D01*
X160182570Y-100991510D01*
X160168986Y-101016923D01*
X160150702Y-101039202D01*
X160128423Y-101057486D01*
X160103010Y-101071070D01*
X160075433Y-101079436D01*
X160044316Y-101082500D01*
X159605684Y-101082500D01*
X159574567Y-101079436D01*
X159546990Y-101071070D01*
X159521577Y-101057486D01*
X159499298Y-101039202D01*
X159481014Y-101016923D01*
X159467430Y-100991510D01*
X159459064Y-100963933D01*
X159456000Y-100932816D01*
X159456000Y-100544184D01*
X159459064Y-100513067D01*
X159467430Y-100485490D01*
X159481014Y-100460077D01*
X159499298Y-100437798D01*
X159521577Y-100419514D01*
X159546990Y-100405930D01*
X159574567Y-100397564D01*
X159605684Y-100394500D01*
X160044316Y-100394500D01*
X160075433Y-100397564D01*
G37*
G36*
X163631433Y-100397564D02*
G01*
X163659010Y-100405930D01*
X163684423Y-100419514D01*
X163706702Y-100437798D01*
X163724986Y-100460077D01*
X163738570Y-100485490D01*
X163746936Y-100513067D01*
X163750000Y-100544184D01*
X163750000Y-100932816D01*
X163746936Y-100963933D01*
X163738570Y-100991510D01*
X163724986Y-101016923D01*
X163706702Y-101039202D01*
X163684423Y-101057486D01*
X163659010Y-101071070D01*
X163631433Y-101079436D01*
X163600316Y-101082500D01*
X163161684Y-101082500D01*
X163130567Y-101079436D01*
X163102990Y-101071070D01*
X163077577Y-101057486D01*
X163055298Y-101039202D01*
X163037014Y-101016923D01*
X163023430Y-100991510D01*
X163015064Y-100963933D01*
X163012000Y-100932816D01*
X163012000Y-100544184D01*
X163015064Y-100513067D01*
X163023430Y-100485490D01*
X163037014Y-100460077D01*
X163055298Y-100437798D01*
X163077577Y-100419514D01*
X163102990Y-100405930D01*
X163130567Y-100397564D01*
X163161684Y-100394500D01*
X163600316Y-100394500D01*
X163631433Y-100397564D01*
G37*
G36*
X161150433Y-100394064D02*
G01*
X161178010Y-100402430D01*
X161203423Y-100416014D01*
X161225702Y-100434298D01*
X161243986Y-100456577D01*
X161257570Y-100481990D01*
X161265936Y-100509567D01*
X161269000Y-100540684D01*
X161269000Y-100929316D01*
X161265936Y-100960433D01*
X161257570Y-100988010D01*
X161243986Y-101013423D01*
X161225702Y-101035702D01*
X161203423Y-101053986D01*
X161178010Y-101067570D01*
X161150433Y-101075936D01*
X161119316Y-101079000D01*
X160680684Y-101079000D01*
X160649567Y-101075936D01*
X160621990Y-101067570D01*
X160596577Y-101053986D01*
X160574298Y-101035702D01*
X160556014Y-101013423D01*
X160542430Y-100988010D01*
X160534064Y-100960433D01*
X160531000Y-100929316D01*
X160531000Y-100540684D01*
X160534064Y-100509567D01*
X160542430Y-100481990D01*
X160556014Y-100456577D01*
X160574298Y-100434298D01*
X160596577Y-100416014D01*
X160621990Y-100402430D01*
X160649567Y-100394064D01*
X160680684Y-100391000D01*
X161119316Y-100391000D01*
X161150433Y-100394064D01*
G37*
G36*
X162365933Y-100394064D02*
G01*
X162393510Y-100402430D01*
X162418923Y-100416014D01*
X162441202Y-100434298D01*
X162459486Y-100456577D01*
X162473070Y-100481990D01*
X162481436Y-100509567D01*
X162484500Y-100540684D01*
X162484500Y-100929316D01*
X162481436Y-100960433D01*
X162473070Y-100988010D01*
X162459486Y-101013423D01*
X162441202Y-101035702D01*
X162418923Y-101053986D01*
X162393510Y-101067570D01*
X162365933Y-101075936D01*
X162334816Y-101079000D01*
X161896184Y-101079000D01*
X161865067Y-101075936D01*
X161837490Y-101067570D01*
X161812077Y-101053986D01*
X161789798Y-101035702D01*
X161771514Y-101013423D01*
X161757930Y-100988010D01*
X161749564Y-100960433D01*
X161746500Y-100929316D01*
X161746500Y-100540684D01*
X161749564Y-100509567D01*
X161757930Y-100481990D01*
X161771514Y-100456577D01*
X161789798Y-100434298D01*
X161812077Y-100416014D01*
X161837490Y-100402430D01*
X161865067Y-100394064D01*
X161896184Y-100391000D01*
X162334816Y-100391000D01*
X162365933Y-100394064D01*
G37*
G36*
X134097927Y-99956034D02*
G01*
X134144736Y-99970233D01*
X134187871Y-99993290D01*
X134225681Y-100024319D01*
X134256710Y-100062129D01*
X134279767Y-100105264D01*
X134293966Y-100152073D01*
X134299000Y-100203186D01*
X134299000Y-100796814D01*
X134293966Y-100847927D01*
X134279767Y-100894736D01*
X134256710Y-100937871D01*
X134225681Y-100975681D01*
X134187871Y-101006710D01*
X134144736Y-101029767D01*
X134097927Y-101043966D01*
X134046814Y-101049000D01*
X128953186Y-101049000D01*
X128902073Y-101043966D01*
X128855264Y-101029767D01*
X128812129Y-101006710D01*
X128774319Y-100975681D01*
X128743290Y-100937871D01*
X128720233Y-100894736D01*
X128706034Y-100847927D01*
X128701000Y-100796814D01*
X128701000Y-100203186D01*
X128706034Y-100152073D01*
X128720233Y-100105264D01*
X128743290Y-100062129D01*
X128774319Y-100024319D01*
X128812129Y-99993290D01*
X128855264Y-99970233D01*
X128902073Y-99956034D01*
X128953186Y-99951000D01*
X134046814Y-99951000D01*
X134097927Y-99956034D01*
G37*
G36*
X158297433Y-100189564D02*
G01*
X158325010Y-100197930D01*
X158350423Y-100211514D01*
X158372702Y-100229798D01*
X158390986Y-100252077D01*
X158404570Y-100277490D01*
X158412936Y-100305067D01*
X158416000Y-100336184D01*
X158416000Y-100724816D01*
X158412936Y-100755933D01*
X158404570Y-100783510D01*
X158390986Y-100808923D01*
X158372702Y-100831202D01*
X158350423Y-100849486D01*
X158325010Y-100863070D01*
X158297433Y-100871436D01*
X158266316Y-100874500D01*
X157827684Y-100874500D01*
X157796567Y-100871436D01*
X157768990Y-100863070D01*
X157743577Y-100849486D01*
X157721298Y-100831202D01*
X157703014Y-100808923D01*
X157689430Y-100783510D01*
X157681064Y-100755933D01*
X157678000Y-100724816D01*
X157678000Y-100336184D01*
X157681064Y-100305067D01*
X157689430Y-100277490D01*
X157703014Y-100252077D01*
X157721298Y-100229798D01*
X157743577Y-100211514D01*
X157768990Y-100197930D01*
X157796567Y-100189564D01*
X157827684Y-100186500D01*
X158266316Y-100186500D01*
X158297433Y-100189564D01*
G37*
G36*
X165117088Y-99024275D02*
G01*
X165196640Y-99040098D01*
X165296548Y-99081482D01*
X165386468Y-99141564D01*
X165462936Y-99218032D01*
X165523018Y-99307952D01*
X165564402Y-99407860D01*
X165575628Y-99464298D01*
X165585115Y-99511990D01*
X165585500Y-99513929D01*
X165585500Y-99622071D01*
X165564402Y-99728140D01*
X165523018Y-99828048D01*
X165462936Y-99917968D01*
X165386468Y-99994436D01*
X165296548Y-100054518D01*
X165196640Y-100095902D01*
X165117088Y-100111726D01*
X165090572Y-100117000D01*
X164982428Y-100117000D01*
X164955912Y-100111726D01*
X164876360Y-100095902D01*
X164776452Y-100054518D01*
X164686532Y-99994436D01*
X164610064Y-99917968D01*
X164549982Y-99828048D01*
X164508598Y-99728140D01*
X164487500Y-99622071D01*
X164487500Y-99513929D01*
X164487886Y-99511990D01*
X164497372Y-99464298D01*
X164508598Y-99407860D01*
X164549982Y-99307952D01*
X164610064Y-99218032D01*
X164686532Y-99141564D01*
X164776452Y-99081482D01*
X164876360Y-99040098D01*
X164955912Y-99024275D01*
X164982428Y-99019000D01*
X165090572Y-99019000D01*
X165117088Y-99024275D01*
G37*
G36*
X163631433Y-99427564D02*
G01*
X163659010Y-99435930D01*
X163684423Y-99449514D01*
X163706702Y-99467798D01*
X163724986Y-99490077D01*
X163738570Y-99515490D01*
X163746936Y-99543067D01*
X163750000Y-99574184D01*
X163750000Y-99962816D01*
X163746936Y-99993933D01*
X163738570Y-100021510D01*
X163724986Y-100046923D01*
X163706702Y-100069202D01*
X163684423Y-100087486D01*
X163659010Y-100101070D01*
X163631433Y-100109436D01*
X163600316Y-100112500D01*
X163161684Y-100112500D01*
X163130567Y-100109436D01*
X163102990Y-100101070D01*
X163077577Y-100087486D01*
X163055298Y-100069202D01*
X163037014Y-100046923D01*
X163023430Y-100021510D01*
X163015064Y-99993933D01*
X163012000Y-99962816D01*
X163012000Y-99574184D01*
X163015064Y-99543067D01*
X163023430Y-99515490D01*
X163037014Y-99490077D01*
X163055298Y-99467798D01*
X163077577Y-99449514D01*
X163102990Y-99435930D01*
X163130567Y-99427564D01*
X163161684Y-99424500D01*
X163600316Y-99424500D01*
X163631433Y-99427564D01*
G37*
G36*
X160075433Y-99427564D02*
G01*
X160103010Y-99435930D01*
X160128423Y-99449514D01*
X160150702Y-99467798D01*
X160168986Y-99490077D01*
X160182570Y-99515490D01*
X160190936Y-99543067D01*
X160194000Y-99574184D01*
X160194000Y-99962816D01*
X160190936Y-99993933D01*
X160182570Y-100021510D01*
X160168986Y-100046923D01*
X160150702Y-100069202D01*
X160128423Y-100087486D01*
X160103010Y-100101070D01*
X160075433Y-100109436D01*
X160044316Y-100112500D01*
X159605684Y-100112500D01*
X159574567Y-100109436D01*
X159546990Y-100101070D01*
X159521577Y-100087486D01*
X159499298Y-100069202D01*
X159481014Y-100046923D01*
X159467430Y-100021510D01*
X159459064Y-99993933D01*
X159456000Y-99962816D01*
X159456000Y-99574184D01*
X159459064Y-99543067D01*
X159467430Y-99515490D01*
X159481014Y-99490077D01*
X159499298Y-99467798D01*
X159521577Y-99449514D01*
X159546990Y-99435930D01*
X159574567Y-99427564D01*
X159605684Y-99424500D01*
X160044316Y-99424500D01*
X160075433Y-99427564D01*
G37*
G36*
X161150433Y-99424064D02*
G01*
X161178010Y-99432430D01*
X161203423Y-99446014D01*
X161225702Y-99464298D01*
X161243986Y-99486577D01*
X161257570Y-99511990D01*
X161265936Y-99539567D01*
X161269000Y-99570684D01*
X161269000Y-99959316D01*
X161265936Y-99990433D01*
X161257570Y-100018010D01*
X161243986Y-100043423D01*
X161225702Y-100065702D01*
X161203423Y-100083986D01*
X161178010Y-100097570D01*
X161150433Y-100105936D01*
X161119316Y-100109000D01*
X160680684Y-100109000D01*
X160649567Y-100105936D01*
X160621990Y-100097570D01*
X160596577Y-100083986D01*
X160574298Y-100065702D01*
X160556014Y-100043423D01*
X160542430Y-100018010D01*
X160534064Y-99990433D01*
X160531000Y-99959316D01*
X160531000Y-99570684D01*
X160534064Y-99539567D01*
X160542430Y-99511990D01*
X160556014Y-99486577D01*
X160574298Y-99464298D01*
X160596577Y-99446014D01*
X160621990Y-99432430D01*
X160649567Y-99424064D01*
X160680684Y-99421000D01*
X161119316Y-99421000D01*
X161150433Y-99424064D01*
G37*
G36*
X162365933Y-99424064D02*
G01*
X162393510Y-99432430D01*
X162418923Y-99446014D01*
X162441202Y-99464298D01*
X162459486Y-99486577D01*
X162473070Y-99511990D01*
X162481436Y-99539567D01*
X162484500Y-99570684D01*
X162484500Y-99959316D01*
X162481436Y-99990433D01*
X162473070Y-100018010D01*
X162459486Y-100043423D01*
X162441202Y-100065702D01*
X162418923Y-100083986D01*
X162393510Y-100097570D01*
X162365933Y-100105936D01*
X162334816Y-100109000D01*
X161896184Y-100109000D01*
X161865067Y-100105936D01*
X161837490Y-100097570D01*
X161812077Y-100083986D01*
X161789798Y-100065702D01*
X161771514Y-100043423D01*
X161757930Y-100018010D01*
X161749564Y-99990433D01*
X161746500Y-99959316D01*
X161746500Y-99570684D01*
X161749564Y-99539567D01*
X161757930Y-99511990D01*
X161771514Y-99486577D01*
X161789798Y-99464298D01*
X161812077Y-99446014D01*
X161837490Y-99432430D01*
X161865067Y-99424064D01*
X161896184Y-99421000D01*
X162334816Y-99421000D01*
X162365933Y-99424064D01*
G37*
G36*
X157102120Y-100051500D02*
G01*
X152580920Y-100051500D01*
X152580920Y-98489400D01*
X157102120Y-98489400D01*
X157102120Y-100051500D01*
G37*
G36*
X163631433Y-98442064D02*
G01*
X163659010Y-98450430D01*
X163684423Y-98464014D01*
X163706702Y-98482298D01*
X163724986Y-98504577D01*
X163738570Y-98529990D01*
X163746936Y-98557567D01*
X163750000Y-98588684D01*
X163750000Y-98977316D01*
X163746936Y-99008433D01*
X163738570Y-99036010D01*
X163724986Y-99061423D01*
X163706702Y-99083702D01*
X163684423Y-99101986D01*
X163659010Y-99115570D01*
X163631433Y-99123936D01*
X163600316Y-99127000D01*
X163161684Y-99127000D01*
X163130567Y-99123936D01*
X163102990Y-99115570D01*
X163077577Y-99101986D01*
X163055298Y-99083702D01*
X163037014Y-99061423D01*
X163023430Y-99036010D01*
X163015064Y-99008433D01*
X163012000Y-98977316D01*
X163012000Y-98588684D01*
X163015064Y-98557567D01*
X163023430Y-98529990D01*
X163037014Y-98504577D01*
X163055298Y-98482298D01*
X163077577Y-98464014D01*
X163102990Y-98450430D01*
X163130567Y-98442064D01*
X163161684Y-98439000D01*
X163600316Y-98439000D01*
X163631433Y-98442064D01*
G37*
G36*
X134097927Y-97956034D02*
G01*
X134144736Y-97970233D01*
X134187871Y-97993290D01*
X134225681Y-98024319D01*
X134256710Y-98062129D01*
X134279767Y-98105264D01*
X134293966Y-98152073D01*
X134299000Y-98203186D01*
X134299000Y-98796814D01*
X134293966Y-98847927D01*
X134279767Y-98894736D01*
X134256710Y-98937871D01*
X134225681Y-98975681D01*
X134187871Y-99006710D01*
X134144736Y-99029767D01*
X134097927Y-99043966D01*
X134046814Y-99049000D01*
X128953186Y-99049000D01*
X128902073Y-99043966D01*
X128855264Y-99029767D01*
X128812129Y-99006710D01*
X128774319Y-98975681D01*
X128743290Y-98937871D01*
X128720233Y-98894736D01*
X128706034Y-98847927D01*
X128701000Y-98796814D01*
X128701000Y-98203186D01*
X128706034Y-98152073D01*
X128720233Y-98105264D01*
X128743290Y-98062129D01*
X128774319Y-98024319D01*
X128812129Y-97993290D01*
X128855264Y-97970233D01*
X128902073Y-97956034D01*
X128953186Y-97951000D01*
X134046814Y-97951000D01*
X134097927Y-97956034D01*
G37*
G36*
X158869844Y-95547161D02*
G01*
X158870795Y-95556818D01*
X158873612Y-95566103D01*
X158878186Y-95574661D01*
X158884342Y-95582162D01*
X158891843Y-95588318D01*
X158900401Y-95592892D01*
X158909686Y-95595709D01*
X158919343Y-95596660D01*
X158922345Y-95596660D01*
X158932002Y-95595709D01*
X158941287Y-95592892D01*
X158949845Y-95588318D01*
X158957346Y-95582162D01*
X158963502Y-95574661D01*
X158968076Y-95566103D01*
X158970893Y-95556818D01*
X158971844Y-95547161D01*
X158971844Y-94521660D01*
X159369844Y-94521660D01*
X159369844Y-95547161D01*
X159370795Y-95556818D01*
X159373612Y-95566103D01*
X159378186Y-95574661D01*
X159384342Y-95582162D01*
X159391843Y-95588318D01*
X159400401Y-95592892D01*
X159409686Y-95595709D01*
X159419343Y-95596660D01*
X159422345Y-95596660D01*
X159432002Y-95595709D01*
X159441287Y-95592892D01*
X159449845Y-95588318D01*
X159457346Y-95582162D01*
X159463502Y-95574661D01*
X159468076Y-95566103D01*
X159470893Y-95556818D01*
X159471844Y-95547161D01*
X159471844Y-94521660D01*
X159869844Y-94521660D01*
X159869844Y-95547161D01*
X159870795Y-95556818D01*
X159873612Y-95566103D01*
X159878186Y-95574661D01*
X159884342Y-95582162D01*
X159891843Y-95588318D01*
X159900401Y-95592892D01*
X159909686Y-95595709D01*
X159919343Y-95596660D01*
X159922345Y-95596660D01*
X159932002Y-95595709D01*
X159941287Y-95592892D01*
X159949845Y-95588318D01*
X159957346Y-95582162D01*
X159963502Y-95574661D01*
X159968076Y-95566103D01*
X159970893Y-95556818D01*
X159971844Y-95547161D01*
X159971844Y-94521660D01*
X160369844Y-94521660D01*
X160369844Y-95547161D01*
X160370795Y-95556818D01*
X160373612Y-95566103D01*
X160378186Y-95574661D01*
X160384342Y-95582162D01*
X160391843Y-95588318D01*
X160400401Y-95592892D01*
X160409686Y-95595709D01*
X160419343Y-95596660D01*
X160422345Y-95596660D01*
X160432002Y-95595709D01*
X160441287Y-95592892D01*
X160449845Y-95588318D01*
X160457346Y-95582162D01*
X160463502Y-95574661D01*
X160468076Y-95566103D01*
X160470893Y-95556818D01*
X160471844Y-95547161D01*
X160471844Y-94521660D01*
X160869844Y-94521660D01*
X160869844Y-95472161D01*
X160870795Y-95481818D01*
X160873612Y-95491103D01*
X160878186Y-95499661D01*
X160884342Y-95507162D01*
X160891843Y-95513318D01*
X160900401Y-95517892D01*
X160909686Y-95520709D01*
X160919343Y-95521660D01*
X161869844Y-95521660D01*
X161869844Y-95919660D01*
X160844343Y-95919660D01*
X160834686Y-95920611D01*
X160825401Y-95923428D01*
X160816843Y-95928002D01*
X160809342Y-95934158D01*
X160803186Y-95941659D01*
X160798612Y-95950217D01*
X160795795Y-95959502D01*
X160794844Y-95969159D01*
X160794844Y-95972161D01*
X160795795Y-95981818D01*
X160798612Y-95991103D01*
X160803186Y-95999661D01*
X160809342Y-96007162D01*
X160816843Y-96013318D01*
X160825401Y-96017892D01*
X160834686Y-96020709D01*
X160844343Y-96021660D01*
X161869844Y-96021660D01*
X161869844Y-96419660D01*
X160844343Y-96419660D01*
X160834686Y-96420611D01*
X160825401Y-96423428D01*
X160816843Y-96428002D01*
X160809342Y-96434158D01*
X160803186Y-96441659D01*
X160798612Y-96450217D01*
X160795795Y-96459502D01*
X160794844Y-96469159D01*
X160794844Y-96472161D01*
X160795795Y-96481818D01*
X160798612Y-96491103D01*
X160803186Y-96499661D01*
X160809342Y-96507162D01*
X160816843Y-96513318D01*
X160825401Y-96517892D01*
X160834686Y-96520709D01*
X160844343Y-96521660D01*
X161869844Y-96521660D01*
X161869844Y-96919660D01*
X160844343Y-96919660D01*
X160834686Y-96920611D01*
X160825401Y-96923428D01*
X160816843Y-96928002D01*
X160809342Y-96934158D01*
X160803186Y-96941659D01*
X160798612Y-96950217D01*
X160795795Y-96959502D01*
X160794844Y-96969159D01*
X160794844Y-96972161D01*
X160795795Y-96981818D01*
X160798612Y-96991103D01*
X160803186Y-96999661D01*
X160809342Y-97007162D01*
X160816843Y-97013318D01*
X160825401Y-97017892D01*
X160834686Y-97020709D01*
X160844343Y-97021660D01*
X161869844Y-97021660D01*
X161869844Y-97419660D01*
X160844343Y-97419660D01*
X160834686Y-97420611D01*
X160825401Y-97423428D01*
X160816843Y-97428002D01*
X160809342Y-97434158D01*
X160803186Y-97441659D01*
X160798612Y-97450217D01*
X160795795Y-97459502D01*
X160794844Y-97469159D01*
X160794844Y-97472161D01*
X160795795Y-97481818D01*
X160798612Y-97491103D01*
X160803186Y-97499661D01*
X160809342Y-97507162D01*
X160816843Y-97513318D01*
X160825401Y-97517892D01*
X160834686Y-97520709D01*
X160844343Y-97521660D01*
X161869844Y-97521660D01*
X161869844Y-97919660D01*
X160919343Y-97919660D01*
X160909686Y-97920611D01*
X160900401Y-97923428D01*
X160891843Y-97928002D01*
X160884342Y-97934158D01*
X160878186Y-97941659D01*
X160873612Y-97950217D01*
X160870795Y-97959502D01*
X160869844Y-97969159D01*
X160869844Y-98919660D01*
X160471844Y-98919660D01*
X160471844Y-97894159D01*
X160470893Y-97884502D01*
X160468076Y-97875217D01*
X160463502Y-97866659D01*
X160457346Y-97859158D01*
X160449845Y-97853002D01*
X160441287Y-97848428D01*
X160432002Y-97845611D01*
X160422345Y-97844660D01*
X160419343Y-97844660D01*
X160409686Y-97845611D01*
X160400401Y-97848428D01*
X160391843Y-97853002D01*
X160384342Y-97859158D01*
X160378186Y-97866659D01*
X160373612Y-97875217D01*
X160370795Y-97884502D01*
X160369844Y-97894159D01*
X160369844Y-98919660D01*
X159971844Y-98919660D01*
X159971844Y-97894159D01*
X159970893Y-97884502D01*
X159968076Y-97875217D01*
X159963502Y-97866659D01*
X159957346Y-97859158D01*
X159949845Y-97853002D01*
X159941287Y-97848428D01*
X159932002Y-97845611D01*
X159922345Y-97844660D01*
X159919343Y-97844660D01*
X159909686Y-97845611D01*
X159900401Y-97848428D01*
X159891843Y-97853002D01*
X159884342Y-97859158D01*
X159878186Y-97866659D01*
X159873612Y-97875217D01*
X159870795Y-97884502D01*
X159869844Y-97894159D01*
X159869844Y-98919660D01*
X159471844Y-98919660D01*
X159471844Y-97894159D01*
X159470893Y-97884502D01*
X159468076Y-97875217D01*
X159463502Y-97866659D01*
X159457346Y-97859158D01*
X159449845Y-97853002D01*
X159441287Y-97848428D01*
X159432002Y-97845611D01*
X159422345Y-97844660D01*
X159419343Y-97844660D01*
X159409686Y-97845611D01*
X159400401Y-97848428D01*
X159391843Y-97853002D01*
X159384342Y-97859158D01*
X159378186Y-97866659D01*
X159373612Y-97875217D01*
X159370795Y-97884502D01*
X159369844Y-97894159D01*
X159369844Y-98919660D01*
X158971844Y-98919660D01*
X158971844Y-97894159D01*
X158970893Y-97884502D01*
X158968076Y-97875217D01*
X158963502Y-97866659D01*
X158957346Y-97859158D01*
X158949845Y-97853002D01*
X158941287Y-97848428D01*
X158932002Y-97845611D01*
X158922345Y-97844660D01*
X158919343Y-97844660D01*
X158909686Y-97845611D01*
X158900401Y-97848428D01*
X158891843Y-97853002D01*
X158884342Y-97859158D01*
X158878186Y-97866659D01*
X158873612Y-97875217D01*
X158870795Y-97884502D01*
X158869844Y-97894159D01*
X158869844Y-98919660D01*
X158471844Y-98919660D01*
X158471844Y-97969159D01*
X158470893Y-97959502D01*
X158468076Y-97950217D01*
X158463502Y-97941659D01*
X158457346Y-97934158D01*
X158449845Y-97928002D01*
X158441287Y-97923428D01*
X158432002Y-97920611D01*
X158422345Y-97919660D01*
X157471844Y-97919660D01*
X157471844Y-97521660D01*
X158497345Y-97521660D01*
X158507002Y-97520709D01*
X158516287Y-97517892D01*
X158524845Y-97513318D01*
X158532346Y-97507162D01*
X158538502Y-97499661D01*
X158543076Y-97491103D01*
X158545893Y-97481818D01*
X158546844Y-97472161D01*
X158546844Y-97469159D01*
X158545893Y-97459502D01*
X158543076Y-97450217D01*
X158538502Y-97441659D01*
X158532346Y-97434158D01*
X158524845Y-97428002D01*
X158516287Y-97423428D01*
X158507002Y-97420611D01*
X158497345Y-97419660D01*
X157471844Y-97419660D01*
X157471844Y-97021660D01*
X158497345Y-97021660D01*
X158507002Y-97020709D01*
X158516287Y-97017892D01*
X158524845Y-97013318D01*
X158532346Y-97007162D01*
X158538502Y-96999661D01*
X158543076Y-96991103D01*
X158545893Y-96981818D01*
X158546844Y-96972161D01*
X158546844Y-96969159D01*
X158545893Y-96959502D01*
X158543076Y-96950217D01*
X158538502Y-96941659D01*
X158532346Y-96934158D01*
X158524845Y-96928002D01*
X158516287Y-96923428D01*
X158507002Y-96920611D01*
X158497345Y-96919660D01*
X157471844Y-96919660D01*
X157471844Y-96521660D01*
X158497345Y-96521660D01*
X158507002Y-96520709D01*
X158516287Y-96517892D01*
X158524845Y-96513318D01*
X158532346Y-96507162D01*
X158538502Y-96499661D01*
X158543076Y-96491103D01*
X158545893Y-96481818D01*
X158546844Y-96472161D01*
X158546844Y-96469159D01*
X158545893Y-96459502D01*
X158543076Y-96450217D01*
X158538502Y-96441659D01*
X158532346Y-96434158D01*
X158524845Y-96428002D01*
X158516287Y-96423428D01*
X158507002Y-96420611D01*
X158497345Y-96419660D01*
X157471844Y-96419660D01*
X157471844Y-96021660D01*
X158497345Y-96021660D01*
X158507002Y-96020709D01*
X158516287Y-96017892D01*
X158524845Y-96013318D01*
X158532346Y-96007162D01*
X158538502Y-95999661D01*
X158543076Y-95991103D01*
X158545893Y-95981818D01*
X158546844Y-95972161D01*
X158546844Y-95969159D01*
X158545893Y-95959502D01*
X158543076Y-95950217D01*
X158538502Y-95941659D01*
X158532346Y-95934158D01*
X158524845Y-95928002D01*
X158516287Y-95923428D01*
X158507002Y-95920611D01*
X158497345Y-95919660D01*
X157471844Y-95919660D01*
X157471844Y-95521660D01*
X158422345Y-95521660D01*
X158432002Y-95520709D01*
X158441287Y-95517892D01*
X158449845Y-95513318D01*
X158457346Y-95507162D01*
X158463502Y-95499661D01*
X158468076Y-95491103D01*
X158470893Y-95481818D01*
X158471844Y-95472161D01*
X158471844Y-94521660D01*
X158869844Y-94521660D01*
X158869844Y-95547161D01*
G37*
G36*
X125075451Y-96666987D02*
G01*
X125240729Y-96735448D01*
X125269267Y-96747269D01*
X125326063Y-96785219D01*
X125443699Y-96863821D01*
X125592039Y-97012161D01*
X125708592Y-97186595D01*
X125788873Y-97380409D01*
X125829800Y-97586167D01*
X125829800Y-97795953D01*
X125788873Y-98001711D01*
X125718358Y-98171948D01*
X125708591Y-98195527D01*
X125669565Y-98253933D01*
X125592039Y-98369959D01*
X125443699Y-98518299D01*
X125384930Y-98557567D01*
X125269267Y-98634851D01*
X125269266Y-98634852D01*
X125269265Y-98634852D01*
X125075451Y-98715133D01*
X124869693Y-98756060D01*
X124659907Y-98756060D01*
X124454149Y-98715133D01*
X124260335Y-98634852D01*
X124260334Y-98634852D01*
X124260333Y-98634851D01*
X124144670Y-98557567D01*
X124085901Y-98518299D01*
X123937561Y-98369959D01*
X123860035Y-98253933D01*
X123821009Y-98195527D01*
X123811242Y-98171948D01*
X123740727Y-98001711D01*
X123699800Y-97795953D01*
X123699800Y-97586167D01*
X123740727Y-97380409D01*
X123821008Y-97186595D01*
X123937561Y-97012161D01*
X124085901Y-96863821D01*
X124203537Y-96785219D01*
X124260333Y-96747269D01*
X124288871Y-96735448D01*
X124454149Y-96666987D01*
X124659907Y-96626060D01*
X124869693Y-96626060D01*
X125075451Y-96666987D01*
G37*
G36*
X163631433Y-97472064D02*
G01*
X163659010Y-97480430D01*
X163684423Y-97494014D01*
X163706702Y-97512298D01*
X163724986Y-97534577D01*
X163738570Y-97559990D01*
X163746936Y-97587567D01*
X163750000Y-97618684D01*
X163750000Y-98007316D01*
X163746936Y-98038433D01*
X163738570Y-98066010D01*
X163724986Y-98091423D01*
X163706702Y-98113702D01*
X163684423Y-98131986D01*
X163659010Y-98145570D01*
X163631433Y-98153936D01*
X163600316Y-98157000D01*
X163161684Y-98157000D01*
X163130567Y-98153936D01*
X163102990Y-98145570D01*
X163077577Y-98131986D01*
X163055298Y-98113702D01*
X163037014Y-98091423D01*
X163023430Y-98066010D01*
X163015064Y-98038433D01*
X163012000Y-98007316D01*
X163012000Y-97618684D01*
X163015064Y-97587567D01*
X163023430Y-97559990D01*
X163037014Y-97534577D01*
X163055298Y-97512298D01*
X163077577Y-97494014D01*
X163102990Y-97480430D01*
X163130567Y-97472064D01*
X163161684Y-97469000D01*
X163600316Y-97469000D01*
X163631433Y-97472064D01*
G37*
G36*
X156304082Y-96952434D02*
G01*
X156345026Y-96964854D01*
X156382759Y-96985023D01*
X156415834Y-97012166D01*
X156442977Y-97045241D01*
X156463146Y-97082974D01*
X156475566Y-97123918D01*
X156480000Y-97168936D01*
X156480000Y-97700064D01*
X156475566Y-97745082D01*
X156463146Y-97786026D01*
X156442977Y-97823759D01*
X156415834Y-97856834D01*
X156382759Y-97883977D01*
X156345026Y-97904146D01*
X156304082Y-97916566D01*
X156259064Y-97921000D01*
X155652936Y-97921000D01*
X155607918Y-97916566D01*
X155566974Y-97904146D01*
X155529241Y-97883977D01*
X155496166Y-97856834D01*
X155469023Y-97823759D01*
X155448854Y-97786026D01*
X155436434Y-97745082D01*
X155432000Y-97700064D01*
X155432000Y-97168936D01*
X155436434Y-97123918D01*
X155448854Y-97082974D01*
X155469023Y-97045241D01*
X155496166Y-97012166D01*
X155529241Y-96985023D01*
X155566974Y-96964854D01*
X155607918Y-96952434D01*
X155652936Y-96948000D01*
X156259064Y-96948000D01*
X156304082Y-96952434D01*
G37*
G36*
X153856933Y-96894064D02*
G01*
X153884510Y-96902430D01*
X153909923Y-96916014D01*
X153932202Y-96934298D01*
X153950486Y-96956577D01*
X153964070Y-96981990D01*
X153972436Y-97009567D01*
X153975500Y-97040684D01*
X153975500Y-97429316D01*
X153972436Y-97460433D01*
X153964070Y-97488010D01*
X153950486Y-97513423D01*
X153932202Y-97535702D01*
X153909923Y-97553986D01*
X153884510Y-97567570D01*
X153856933Y-97575936D01*
X153825816Y-97579000D01*
X153387184Y-97579000D01*
X153356067Y-97575936D01*
X153328490Y-97567570D01*
X153303077Y-97553986D01*
X153280798Y-97535702D01*
X153262514Y-97513423D01*
X153248930Y-97488010D01*
X153240564Y-97460433D01*
X153237500Y-97429316D01*
X153237500Y-97040684D01*
X153240564Y-97009567D01*
X153248930Y-96981990D01*
X153262514Y-96956577D01*
X153280798Y-96934298D01*
X153303077Y-96916014D01*
X153328490Y-96902430D01*
X153356067Y-96894064D01*
X153387184Y-96891000D01*
X153825816Y-96891000D01*
X153856933Y-96894064D01*
G37*
G36*
X154999933Y-96884724D02*
G01*
X155027510Y-96893090D01*
X155052923Y-96906674D01*
X155075202Y-96924958D01*
X155093486Y-96947237D01*
X155107070Y-96972650D01*
X155115436Y-97000227D01*
X155118500Y-97031344D01*
X155118500Y-97419976D01*
X155115436Y-97451093D01*
X155107070Y-97478670D01*
X155093486Y-97504083D01*
X155075202Y-97526362D01*
X155052923Y-97544646D01*
X155027510Y-97558230D01*
X154999933Y-97566596D01*
X154968816Y-97569660D01*
X154530184Y-97569660D01*
X154499067Y-97566596D01*
X154471490Y-97558230D01*
X154446077Y-97544646D01*
X154423798Y-97526362D01*
X154405514Y-97504083D01*
X154391930Y-97478670D01*
X154383564Y-97451093D01*
X154380500Y-97419976D01*
X154380500Y-97031344D01*
X154383564Y-97000227D01*
X154391930Y-96972650D01*
X154405514Y-96947237D01*
X154423798Y-96924958D01*
X154446077Y-96906674D01*
X154471490Y-96893090D01*
X154499067Y-96884724D01*
X154530184Y-96881660D01*
X154968816Y-96881660D01*
X154999933Y-96884724D01*
G37*
G36*
X130612792Y-95255679D02*
G01*
X130656137Y-95268828D01*
X130696079Y-95290177D01*
X130731090Y-95318910D01*
X130759823Y-95353921D01*
X130781172Y-95393863D01*
X130794321Y-95437208D01*
X130799000Y-95484717D01*
X130799000Y-96715283D01*
X130794321Y-96762792D01*
X130781172Y-96806137D01*
X130759823Y-96846079D01*
X130731090Y-96881090D01*
X130696079Y-96909823D01*
X130656137Y-96931172D01*
X130612792Y-96944321D01*
X130565283Y-96949000D01*
X127934717Y-96949000D01*
X127887208Y-96944321D01*
X127843863Y-96931172D01*
X127803921Y-96909823D01*
X127768910Y-96881090D01*
X127740177Y-96846079D01*
X127718828Y-96806137D01*
X127705679Y-96762792D01*
X127701000Y-96715283D01*
X127701000Y-95484717D01*
X127705679Y-95437208D01*
X127718828Y-95393863D01*
X127740177Y-95353921D01*
X127768910Y-95318910D01*
X127803921Y-95290177D01*
X127843863Y-95268828D01*
X127887208Y-95255679D01*
X127934717Y-95251000D01*
X130565283Y-95251000D01*
X130612792Y-95255679D01*
G37*
G36*
X164535933Y-96014064D02*
G01*
X164563510Y-96022430D01*
X164588923Y-96036014D01*
X164611202Y-96054298D01*
X164629486Y-96076577D01*
X164643070Y-96101990D01*
X164651436Y-96129567D01*
X164654500Y-96160684D01*
X164654500Y-96599316D01*
X164651436Y-96630433D01*
X164643070Y-96658010D01*
X164629486Y-96683423D01*
X164611202Y-96705702D01*
X164588923Y-96723986D01*
X164563510Y-96737570D01*
X164535933Y-96745936D01*
X164504816Y-96749000D01*
X164116184Y-96749000D01*
X164085067Y-96745936D01*
X164057490Y-96737570D01*
X164032077Y-96723986D01*
X164009798Y-96705702D01*
X163991514Y-96683423D01*
X163977930Y-96658010D01*
X163969564Y-96630433D01*
X163966500Y-96599316D01*
X163966500Y-96160684D01*
X163969564Y-96129567D01*
X163977930Y-96101990D01*
X163991514Y-96076577D01*
X164009798Y-96054298D01*
X164032077Y-96036014D01*
X164057490Y-96022430D01*
X164085067Y-96014064D01*
X164116184Y-96011000D01*
X164504816Y-96011000D01*
X164535933Y-96014064D01*
G37*
G36*
X163565933Y-96014064D02*
G01*
X163593510Y-96022430D01*
X163618923Y-96036014D01*
X163641202Y-96054298D01*
X163659486Y-96076577D01*
X163673070Y-96101990D01*
X163681436Y-96129567D01*
X163684500Y-96160684D01*
X163684500Y-96599316D01*
X163681436Y-96630433D01*
X163673070Y-96658010D01*
X163659486Y-96683423D01*
X163641202Y-96705702D01*
X163618923Y-96723986D01*
X163593510Y-96737570D01*
X163565933Y-96745936D01*
X163534816Y-96749000D01*
X163146184Y-96749000D01*
X163115067Y-96745936D01*
X163087490Y-96737570D01*
X163062077Y-96723986D01*
X163039798Y-96705702D01*
X163021514Y-96683423D01*
X163007930Y-96658010D01*
X162999564Y-96630433D01*
X162996500Y-96599316D01*
X162996500Y-96160684D01*
X162999564Y-96129567D01*
X163007930Y-96101990D01*
X163021514Y-96076577D01*
X163039798Y-96054298D01*
X163062077Y-96036014D01*
X163087490Y-96022430D01*
X163115067Y-96014064D01*
X163146184Y-96011000D01*
X163534816Y-96011000D01*
X163565933Y-96014064D01*
G37*
G36*
X153856933Y-95924064D02*
G01*
X153884510Y-95932430D01*
X153909923Y-95946014D01*
X153932202Y-95964298D01*
X153950486Y-95986577D01*
X153964070Y-96011990D01*
X153972436Y-96039567D01*
X153975500Y-96070684D01*
X153975500Y-96459316D01*
X153972436Y-96490433D01*
X153964070Y-96518010D01*
X153950486Y-96543423D01*
X153932202Y-96565702D01*
X153909923Y-96583986D01*
X153884510Y-96597570D01*
X153856933Y-96605936D01*
X153825816Y-96609000D01*
X153387184Y-96609000D01*
X153356067Y-96605936D01*
X153328490Y-96597570D01*
X153303077Y-96583986D01*
X153280798Y-96565702D01*
X153262514Y-96543423D01*
X153248930Y-96518010D01*
X153240564Y-96490433D01*
X153237500Y-96459316D01*
X153237500Y-96070684D01*
X153240564Y-96039567D01*
X153248930Y-96011990D01*
X153262514Y-95986577D01*
X153280798Y-95964298D01*
X153303077Y-95946014D01*
X153328490Y-95932430D01*
X153356067Y-95924064D01*
X153387184Y-95921000D01*
X153825816Y-95921000D01*
X153856933Y-95924064D01*
G37*
G36*
X154999933Y-95914724D02*
G01*
X155027510Y-95923090D01*
X155052923Y-95936674D01*
X155075202Y-95954958D01*
X155093486Y-95977237D01*
X155107070Y-96002650D01*
X155115436Y-96030227D01*
X155118500Y-96061344D01*
X155118500Y-96449976D01*
X155115436Y-96481093D01*
X155107070Y-96508670D01*
X155093486Y-96534083D01*
X155075202Y-96556362D01*
X155052923Y-96574646D01*
X155027510Y-96588230D01*
X154999933Y-96596596D01*
X154968816Y-96599660D01*
X154530184Y-96599660D01*
X154499067Y-96596596D01*
X154471490Y-96588230D01*
X154446077Y-96574646D01*
X154423798Y-96556362D01*
X154405514Y-96534083D01*
X154391930Y-96508670D01*
X154383564Y-96481093D01*
X154380500Y-96449976D01*
X154380500Y-96061344D01*
X154383564Y-96030227D01*
X154391930Y-96002650D01*
X154405514Y-95977237D01*
X154423798Y-95954958D01*
X154446077Y-95936674D01*
X154471490Y-95923090D01*
X154499067Y-95914724D01*
X154530184Y-95911660D01*
X154968816Y-95911660D01*
X154999933Y-95914724D01*
G37*
G36*
X156304082Y-95377434D02*
G01*
X156345026Y-95389854D01*
X156382759Y-95410023D01*
X156415834Y-95437166D01*
X156442977Y-95470241D01*
X156463146Y-95507974D01*
X156475566Y-95548918D01*
X156480000Y-95593936D01*
X156480000Y-96125064D01*
X156475566Y-96170082D01*
X156463146Y-96211026D01*
X156442977Y-96248759D01*
X156415834Y-96281834D01*
X156382759Y-96308977D01*
X156345026Y-96329146D01*
X156304082Y-96341566D01*
X156259064Y-96346000D01*
X155652936Y-96346000D01*
X155607918Y-96341566D01*
X155566974Y-96329146D01*
X155529241Y-96308977D01*
X155496166Y-96281834D01*
X155469023Y-96248759D01*
X155448854Y-96211026D01*
X155436434Y-96170082D01*
X155432000Y-96125064D01*
X155432000Y-95593936D01*
X155436434Y-95548918D01*
X155448854Y-95507974D01*
X155469023Y-95470241D01*
X155496166Y-95437166D01*
X155529241Y-95410023D01*
X155566974Y-95389854D01*
X155607918Y-95377434D01*
X155652936Y-95373000D01*
X156259064Y-95373000D01*
X156304082Y-95377434D01*
G37*
G36*
X163565933Y-94984064D02*
G01*
X163593510Y-94992430D01*
X163618923Y-95006014D01*
X163641202Y-95024298D01*
X163659486Y-95046577D01*
X163673070Y-95071990D01*
X163681436Y-95099567D01*
X163684500Y-95130684D01*
X163684500Y-95569316D01*
X163681436Y-95600433D01*
X163673070Y-95628010D01*
X163659486Y-95653423D01*
X163641202Y-95675702D01*
X163618923Y-95693986D01*
X163593510Y-95707570D01*
X163565933Y-95715936D01*
X163534816Y-95719000D01*
X163146184Y-95719000D01*
X163115067Y-95715936D01*
X163087490Y-95707570D01*
X163062077Y-95693986D01*
X163039798Y-95675702D01*
X163021514Y-95653423D01*
X163007930Y-95628010D01*
X162999564Y-95600433D01*
X162996500Y-95569316D01*
X162996500Y-95130684D01*
X162999564Y-95099567D01*
X163007930Y-95071990D01*
X163021514Y-95046577D01*
X163039798Y-95024298D01*
X163062077Y-95006014D01*
X163087490Y-94992430D01*
X163115067Y-94984064D01*
X163146184Y-94981000D01*
X163534816Y-94981000D01*
X163565933Y-94984064D01*
G37*
G36*
X164535933Y-94984064D02*
G01*
X164563510Y-94992430D01*
X164588923Y-95006014D01*
X164611202Y-95024298D01*
X164629486Y-95046577D01*
X164643070Y-95071990D01*
X164651436Y-95099567D01*
X164654500Y-95130684D01*
X164654500Y-95569316D01*
X164651436Y-95600433D01*
X164643070Y-95628010D01*
X164629486Y-95653423D01*
X164611202Y-95675702D01*
X164588923Y-95693986D01*
X164563510Y-95707570D01*
X164535933Y-95715936D01*
X164504816Y-95719000D01*
X164116184Y-95719000D01*
X164085067Y-95715936D01*
X164057490Y-95707570D01*
X164032077Y-95693986D01*
X164009798Y-95675702D01*
X163991514Y-95653423D01*
X163977930Y-95628010D01*
X163969564Y-95600433D01*
X163966500Y-95569316D01*
X163966500Y-95130684D01*
X163969564Y-95099567D01*
X163977930Y-95071990D01*
X163991514Y-95046577D01*
X164009798Y-95024298D01*
X164032077Y-95006014D01*
X164057490Y-94992430D01*
X164085067Y-94984064D01*
X164116184Y-94981000D01*
X164504816Y-94981000D01*
X164535933Y-94984064D01*
G37*
G36*
X157069100Y-94894100D02*
G01*
X152547900Y-94894100D01*
X152547900Y-93332000D01*
X157069100Y-93332000D01*
X157069100Y-94894100D01*
G37*
G36*
X163590433Y-93984064D02*
G01*
X163618010Y-93992430D01*
X163643423Y-94006014D01*
X163665702Y-94024298D01*
X163683986Y-94046577D01*
X163697570Y-94071990D01*
X163705936Y-94099567D01*
X163709000Y-94130684D01*
X163709000Y-94569316D01*
X163705936Y-94600433D01*
X163697570Y-94628010D01*
X163683986Y-94653423D01*
X163665702Y-94675702D01*
X163643423Y-94693986D01*
X163618010Y-94707570D01*
X163590433Y-94715936D01*
X163559316Y-94719000D01*
X163170684Y-94719000D01*
X163139567Y-94715936D01*
X163111990Y-94707570D01*
X163086577Y-94693986D01*
X163064298Y-94675702D01*
X163046014Y-94653423D01*
X163032430Y-94628010D01*
X163024064Y-94600433D01*
X163021000Y-94569316D01*
X163021000Y-94130684D01*
X163024064Y-94099567D01*
X163032430Y-94071990D01*
X163046014Y-94046577D01*
X163064298Y-94024298D01*
X163086577Y-94006014D01*
X163111990Y-93992430D01*
X163139567Y-93984064D01*
X163170684Y-93981000D01*
X163559316Y-93981000D01*
X163590433Y-93984064D01*
G37*
G36*
X164560433Y-93984064D02*
G01*
X164588010Y-93992430D01*
X164613423Y-94006014D01*
X164635702Y-94024298D01*
X164653986Y-94046577D01*
X164667570Y-94071990D01*
X164675936Y-94099567D01*
X164679000Y-94130684D01*
X164679000Y-94569316D01*
X164675936Y-94600433D01*
X164667570Y-94628010D01*
X164653986Y-94653423D01*
X164635702Y-94675702D01*
X164613423Y-94693986D01*
X164588010Y-94707570D01*
X164560433Y-94715936D01*
X164529316Y-94719000D01*
X164140684Y-94719000D01*
X164109567Y-94715936D01*
X164081990Y-94707570D01*
X164056577Y-94693986D01*
X164034298Y-94675702D01*
X164016014Y-94653423D01*
X164002430Y-94628010D01*
X163994064Y-94600433D01*
X163991000Y-94569316D01*
X163991000Y-94130684D01*
X163994064Y-94099567D01*
X164002430Y-94071990D01*
X164016014Y-94046577D01*
X164034298Y-94024298D01*
X164056577Y-94006014D01*
X164081990Y-93992430D01*
X164109567Y-93984064D01*
X164140684Y-93981000D01*
X164529316Y-93981000D01*
X164560433Y-93984064D01*
G37*
G36*
X160460933Y-92968064D02*
G01*
X160488510Y-92976430D01*
X160513923Y-92990014D01*
X160536202Y-93008298D01*
X160554486Y-93030577D01*
X160568070Y-93055990D01*
X160576436Y-93083567D01*
X160579500Y-93114684D01*
X160579500Y-93503316D01*
X160576436Y-93534433D01*
X160568070Y-93562010D01*
X160554486Y-93587423D01*
X160536202Y-93609702D01*
X160513923Y-93627986D01*
X160488510Y-93641570D01*
X160460933Y-93649936D01*
X160429816Y-93653000D01*
X159991184Y-93653000D01*
X159960067Y-93649936D01*
X159932490Y-93641570D01*
X159907077Y-93627986D01*
X159884798Y-93609702D01*
X159866514Y-93587423D01*
X159852930Y-93562010D01*
X159844564Y-93534433D01*
X159841500Y-93503316D01*
X159841500Y-93114684D01*
X159844564Y-93083567D01*
X159852930Y-93055990D01*
X159866514Y-93030577D01*
X159884798Y-93008298D01*
X159907077Y-92990014D01*
X159932490Y-92976430D01*
X159960067Y-92968064D01*
X159991184Y-92965000D01*
X160429816Y-92965000D01*
X160460933Y-92968064D01*
G37*
G36*
X161662933Y-92968064D02*
G01*
X161690510Y-92976430D01*
X161715923Y-92990014D01*
X161738202Y-93008298D01*
X161756486Y-93030577D01*
X161770070Y-93055990D01*
X161778436Y-93083567D01*
X161781500Y-93114684D01*
X161781500Y-93503316D01*
X161778436Y-93534433D01*
X161770070Y-93562010D01*
X161756486Y-93587423D01*
X161738202Y-93609702D01*
X161715923Y-93627986D01*
X161690510Y-93641570D01*
X161662933Y-93649936D01*
X161631816Y-93653000D01*
X161193184Y-93653000D01*
X161162067Y-93649936D01*
X161134490Y-93641570D01*
X161109077Y-93627986D01*
X161086798Y-93609702D01*
X161068514Y-93587423D01*
X161054930Y-93562010D01*
X161046564Y-93534433D01*
X161043500Y-93503316D01*
X161043500Y-93114684D01*
X161046564Y-93083567D01*
X161054930Y-93055990D01*
X161068514Y-93030577D01*
X161086798Y-93008298D01*
X161109077Y-92990014D01*
X161134490Y-92976430D01*
X161162067Y-92968064D01*
X161193184Y-92965000D01*
X161631816Y-92965000D01*
X161662933Y-92968064D01*
G37*
G36*
X159122933Y-92968064D02*
G01*
X159150510Y-92976430D01*
X159175923Y-92990014D01*
X159198202Y-93008298D01*
X159216486Y-93030577D01*
X159230070Y-93055990D01*
X159238436Y-93083567D01*
X159241500Y-93114684D01*
X159241500Y-93503316D01*
X159238436Y-93534433D01*
X159230070Y-93562010D01*
X159216486Y-93587423D01*
X159198202Y-93609702D01*
X159175923Y-93627986D01*
X159150510Y-93641570D01*
X159122933Y-93649936D01*
X159091816Y-93653000D01*
X158653184Y-93653000D01*
X158622067Y-93649936D01*
X158594490Y-93641570D01*
X158569077Y-93627986D01*
X158546798Y-93609702D01*
X158528514Y-93587423D01*
X158514930Y-93562010D01*
X158506564Y-93534433D01*
X158503500Y-93503316D01*
X158503500Y-93114684D01*
X158506564Y-93083567D01*
X158514930Y-93055990D01*
X158528514Y-93030577D01*
X158546798Y-93008298D01*
X158569077Y-92990014D01*
X158594490Y-92976430D01*
X158622067Y-92968064D01*
X158653184Y-92965000D01*
X159091816Y-92965000D01*
X159122933Y-92968064D01*
G37*
G36*
X163953433Y-92944064D02*
G01*
X163981010Y-92952430D01*
X164006423Y-92966014D01*
X164028702Y-92984298D01*
X164046986Y-93006577D01*
X164060570Y-93031990D01*
X164068936Y-93059567D01*
X164072000Y-93090684D01*
X164072000Y-93479316D01*
X164068936Y-93510433D01*
X164060570Y-93538010D01*
X164046986Y-93563423D01*
X164028702Y-93585702D01*
X164006423Y-93603986D01*
X163981010Y-93617570D01*
X163953433Y-93625936D01*
X163922316Y-93629000D01*
X163483684Y-93629000D01*
X163452567Y-93625936D01*
X163424990Y-93617570D01*
X163399577Y-93603986D01*
X163377298Y-93585702D01*
X163359014Y-93563423D01*
X163345430Y-93538010D01*
X163337064Y-93510433D01*
X163334000Y-93479316D01*
X163334000Y-93090684D01*
X163337064Y-93059567D01*
X163345430Y-93031990D01*
X163359014Y-93006577D01*
X163377298Y-92984298D01*
X163399577Y-92966014D01*
X163424990Y-92952430D01*
X163452567Y-92944064D01*
X163483684Y-92941000D01*
X163922316Y-92941000D01*
X163953433Y-92944064D01*
G37*
G36*
X162810433Y-92944064D02*
G01*
X162838010Y-92952430D01*
X162863423Y-92966014D01*
X162885702Y-92984298D01*
X162903986Y-93006577D01*
X162917570Y-93031990D01*
X162925936Y-93059567D01*
X162929000Y-93090684D01*
X162929000Y-93479316D01*
X162925936Y-93510433D01*
X162917570Y-93538010D01*
X162903986Y-93563423D01*
X162885702Y-93585702D01*
X162863423Y-93603986D01*
X162838010Y-93617570D01*
X162810433Y-93625936D01*
X162779316Y-93629000D01*
X162340684Y-93629000D01*
X162309567Y-93625936D01*
X162281990Y-93617570D01*
X162256577Y-93603986D01*
X162234298Y-93585702D01*
X162216014Y-93563423D01*
X162202430Y-93538010D01*
X162194064Y-93510433D01*
X162191000Y-93479316D01*
X162191000Y-93090684D01*
X162194064Y-93059567D01*
X162202430Y-93031990D01*
X162216014Y-93006577D01*
X162234298Y-92984298D01*
X162256577Y-92966014D01*
X162281990Y-92952430D01*
X162309567Y-92944064D01*
X162340684Y-92941000D01*
X162779316Y-92941000D01*
X162810433Y-92944064D01*
G37*
G36*
X159122933Y-91998064D02*
G01*
X159150510Y-92006430D01*
X159175923Y-92020014D01*
X159198202Y-92038298D01*
X159216486Y-92060577D01*
X159230070Y-92085990D01*
X159238436Y-92113567D01*
X159241500Y-92144684D01*
X159241500Y-92533316D01*
X159238436Y-92564433D01*
X159230070Y-92592010D01*
X159216486Y-92617423D01*
X159198202Y-92639702D01*
X159175923Y-92657986D01*
X159150510Y-92671570D01*
X159122933Y-92679936D01*
X159091816Y-92683000D01*
X158653184Y-92683000D01*
X158622067Y-92679936D01*
X158594490Y-92671570D01*
X158569077Y-92657986D01*
X158546798Y-92639702D01*
X158528514Y-92617423D01*
X158514930Y-92592010D01*
X158506564Y-92564433D01*
X158503500Y-92533316D01*
X158503500Y-92144684D01*
X158506564Y-92113567D01*
X158514930Y-92085990D01*
X158528514Y-92060577D01*
X158546798Y-92038298D01*
X158569077Y-92020014D01*
X158594490Y-92006430D01*
X158622067Y-91998064D01*
X158653184Y-91995000D01*
X159091816Y-91995000D01*
X159122933Y-91998064D01*
G37*
G36*
X161662933Y-91998064D02*
G01*
X161690510Y-92006430D01*
X161715923Y-92020014D01*
X161738202Y-92038298D01*
X161756486Y-92060577D01*
X161770070Y-92085990D01*
X161778436Y-92113567D01*
X161781500Y-92144684D01*
X161781500Y-92533316D01*
X161778436Y-92564433D01*
X161770070Y-92592010D01*
X161756486Y-92617423D01*
X161738202Y-92639702D01*
X161715923Y-92657986D01*
X161690510Y-92671570D01*
X161662933Y-92679936D01*
X161631816Y-92683000D01*
X161193184Y-92683000D01*
X161162067Y-92679936D01*
X161134490Y-92671570D01*
X161109077Y-92657986D01*
X161086798Y-92639702D01*
X161068514Y-92617423D01*
X161054930Y-92592010D01*
X161046564Y-92564433D01*
X161043500Y-92533316D01*
X161043500Y-92144684D01*
X161046564Y-92113567D01*
X161054930Y-92085990D01*
X161068514Y-92060577D01*
X161086798Y-92038298D01*
X161109077Y-92020014D01*
X161134490Y-92006430D01*
X161162067Y-91998064D01*
X161193184Y-91995000D01*
X161631816Y-91995000D01*
X161662933Y-91998064D01*
G37*
G36*
X160460933Y-91998064D02*
G01*
X160488510Y-92006430D01*
X160513923Y-92020014D01*
X160536202Y-92038298D01*
X160554486Y-92060577D01*
X160568070Y-92085990D01*
X160576436Y-92113567D01*
X160579500Y-92144684D01*
X160579500Y-92533316D01*
X160576436Y-92564433D01*
X160568070Y-92592010D01*
X160554486Y-92617423D01*
X160536202Y-92639702D01*
X160513923Y-92657986D01*
X160488510Y-92671570D01*
X160460933Y-92679936D01*
X160429816Y-92683000D01*
X159991184Y-92683000D01*
X159960067Y-92679936D01*
X159932490Y-92671570D01*
X159907077Y-92657986D01*
X159884798Y-92639702D01*
X159866514Y-92617423D01*
X159852930Y-92592010D01*
X159844564Y-92564433D01*
X159841500Y-92533316D01*
X159841500Y-92144684D01*
X159844564Y-92113567D01*
X159852930Y-92085990D01*
X159866514Y-92060577D01*
X159884798Y-92038298D01*
X159907077Y-92020014D01*
X159932490Y-92006430D01*
X159960067Y-91998064D01*
X159991184Y-91995000D01*
X160429816Y-91995000D01*
X160460933Y-91998064D01*
G37*
G36*
X163953433Y-91974064D02*
G01*
X163981010Y-91982430D01*
X164006423Y-91996014D01*
X164028702Y-92014298D01*
X164046986Y-92036577D01*
X164060570Y-92061990D01*
X164068936Y-92089567D01*
X164072000Y-92120684D01*
X164072000Y-92509316D01*
X164068936Y-92540433D01*
X164060570Y-92568010D01*
X164046986Y-92593423D01*
X164028702Y-92615702D01*
X164006423Y-92633986D01*
X163981010Y-92647570D01*
X163953433Y-92655936D01*
X163922316Y-92659000D01*
X163483684Y-92659000D01*
X163452567Y-92655936D01*
X163424990Y-92647570D01*
X163399577Y-92633986D01*
X163377298Y-92615702D01*
X163359014Y-92593423D01*
X163345430Y-92568010D01*
X163337064Y-92540433D01*
X163334000Y-92509316D01*
X163334000Y-92120684D01*
X163337064Y-92089567D01*
X163345430Y-92061990D01*
X163359014Y-92036577D01*
X163377298Y-92014298D01*
X163399577Y-91996014D01*
X163424990Y-91982430D01*
X163452567Y-91974064D01*
X163483684Y-91971000D01*
X163922316Y-91971000D01*
X163953433Y-91974064D01*
G37*
G36*
X162810433Y-91974064D02*
G01*
X162838010Y-91982430D01*
X162863423Y-91996014D01*
X162885702Y-92014298D01*
X162903986Y-92036577D01*
X162917570Y-92061990D01*
X162925936Y-92089567D01*
X162929000Y-92120684D01*
X162929000Y-92509316D01*
X162925936Y-92540433D01*
X162917570Y-92568010D01*
X162903986Y-92593423D01*
X162885702Y-92615702D01*
X162863423Y-92633986D01*
X162838010Y-92647570D01*
X162810433Y-92655936D01*
X162779316Y-92659000D01*
X162340684Y-92659000D01*
X162309567Y-92655936D01*
X162281990Y-92647570D01*
X162256577Y-92633986D01*
X162234298Y-92615702D01*
X162216014Y-92593423D01*
X162202430Y-92568010D01*
X162194064Y-92540433D01*
X162191000Y-92509316D01*
X162191000Y-92120684D01*
X162194064Y-92089567D01*
X162202430Y-92061990D01*
X162216014Y-92036577D01*
X162234298Y-92014298D01*
X162256577Y-91996014D01*
X162281990Y-91982430D01*
X162309567Y-91974064D01*
X162340684Y-91971000D01*
X162779316Y-91971000D01*
X162810433Y-91974064D01*
G37*
G36*
X157069100Y-91935000D02*
G01*
X152547900Y-91935000D01*
X152547900Y-90372900D01*
X157069100Y-90372900D01*
X157069100Y-91935000D01*
G37*
G36*
X159413000Y-91359500D02*
G01*
X158586000Y-91359500D01*
X158586000Y-90732500D01*
X159413000Y-90732500D01*
X159413000Y-91359500D01*
G37*
G36*
X160713000Y-91359500D02*
G01*
X159886000Y-91359500D01*
X159886000Y-90732500D01*
X160713000Y-90732500D01*
X160713000Y-91359500D01*
G37*
G36*
X152000433Y-89644064D02*
G01*
X152028010Y-89652430D01*
X152053423Y-89666014D01*
X152075702Y-89684298D01*
X152093986Y-89706577D01*
X152107570Y-89731990D01*
X152115936Y-89759567D01*
X152119000Y-89790684D01*
X152119000Y-90179316D01*
X152115936Y-90210433D01*
X152107570Y-90238010D01*
X152093986Y-90263423D01*
X152075702Y-90285702D01*
X152053423Y-90303986D01*
X152028010Y-90317570D01*
X152000433Y-90325936D01*
X151969316Y-90329000D01*
X151530684Y-90329000D01*
X151499567Y-90325936D01*
X151471990Y-90317570D01*
X151446577Y-90303986D01*
X151424298Y-90285702D01*
X151406014Y-90263423D01*
X151392430Y-90238010D01*
X151384064Y-90210433D01*
X151381000Y-90179316D01*
X151381000Y-89790684D01*
X151384064Y-89759567D01*
X151392430Y-89731990D01*
X151406014Y-89706577D01*
X151424298Y-89684298D01*
X151446577Y-89666014D01*
X151471990Y-89652430D01*
X151499567Y-89644064D01*
X151530684Y-89641000D01*
X151969316Y-89641000D01*
X152000433Y-89644064D01*
G37*
G36*
X161348308Y-89229735D02*
G01*
X161427860Y-89245558D01*
X161527768Y-89286942D01*
X161617688Y-89347024D01*
X161694156Y-89423492D01*
X161754238Y-89513412D01*
X161795622Y-89613320D01*
X161816720Y-89719389D01*
X161816720Y-89827531D01*
X161795622Y-89933600D01*
X161754238Y-90033508D01*
X161694156Y-90123428D01*
X161617688Y-90199896D01*
X161527768Y-90259978D01*
X161427860Y-90301362D01*
X161354736Y-90315907D01*
X161321792Y-90322460D01*
X161213648Y-90322460D01*
X161180704Y-90315907D01*
X161107580Y-90301362D01*
X161007672Y-90259978D01*
X160917752Y-90199896D01*
X160841284Y-90123428D01*
X160781202Y-90033508D01*
X160739818Y-89933600D01*
X160718720Y-89827531D01*
X160718720Y-89719389D01*
X160739818Y-89613320D01*
X160781202Y-89513412D01*
X160841284Y-89423492D01*
X160917752Y-89347024D01*
X161007672Y-89286942D01*
X161107580Y-89245558D01*
X161187132Y-89229735D01*
X161213648Y-89224460D01*
X161321792Y-89224460D01*
X161348308Y-89229735D01*
G37*
G36*
X154572500Y-89599000D02*
G01*
X152474500Y-89599000D01*
X152474500Y-88401000D01*
X154572500Y-88401000D01*
X154572500Y-89599000D01*
G37*
G36*
X155872500Y-89449000D02*
G01*
X154974500Y-89449000D01*
X154974500Y-88551000D01*
X155872500Y-88551000D01*
X155872500Y-89449000D01*
G37*
G36*
X152000433Y-88674064D02*
G01*
X152028010Y-88682430D01*
X152053423Y-88696014D01*
X152075702Y-88714298D01*
X152093986Y-88736577D01*
X152107570Y-88761990D01*
X152115936Y-88789567D01*
X152119000Y-88820684D01*
X152119000Y-89209316D01*
X152115936Y-89240433D01*
X152107570Y-89268010D01*
X152093986Y-89293423D01*
X152075702Y-89315702D01*
X152053423Y-89333986D01*
X152028010Y-89347570D01*
X152000433Y-89355936D01*
X151969316Y-89359000D01*
X151530684Y-89359000D01*
X151499567Y-89355936D01*
X151471990Y-89347570D01*
X151446577Y-89333986D01*
X151424298Y-89315702D01*
X151406014Y-89293423D01*
X151392430Y-89268010D01*
X151384064Y-89240433D01*
X151381000Y-89209316D01*
X151381000Y-88820684D01*
X151384064Y-88789567D01*
X151392430Y-88761990D01*
X151406014Y-88736577D01*
X151424298Y-88714298D01*
X151446577Y-88696014D01*
X151471990Y-88682430D01*
X151499567Y-88674064D01*
X151530684Y-88671000D01*
X151969316Y-88671000D01*
X152000433Y-88674064D01*
G37*
G36*
X138232105Y-87299389D02*
G01*
X138336562Y-87320166D01*
X138484151Y-87381300D01*
X138484153Y-87381301D01*
X138528629Y-87411019D01*
X138616983Y-87470055D01*
X138729945Y-87583017D01*
X138818700Y-87715849D01*
X138879834Y-87863438D01*
X138911000Y-88020124D01*
X138911000Y-88179876D01*
X138879834Y-88336562D01*
X138818700Y-88484151D01*
X138818699Y-88484153D01*
X138816150Y-88487968D01*
X138729945Y-88616983D01*
X138616983Y-88729945D01*
X138569024Y-88761990D01*
X138484153Y-88818699D01*
X138484152Y-88818700D01*
X138484151Y-88818700D01*
X138336562Y-88879834D01*
X138232105Y-88900611D01*
X138179877Y-88911000D01*
X138020123Y-88911000D01*
X137967895Y-88900611D01*
X137863438Y-88879834D01*
X137715849Y-88818700D01*
X137715848Y-88818700D01*
X137715847Y-88818699D01*
X137630976Y-88761990D01*
X137583017Y-88729945D01*
X137470055Y-88616983D01*
X137383850Y-88487968D01*
X137381301Y-88484153D01*
X137381300Y-88484151D01*
X137320166Y-88336562D01*
X137289000Y-88179876D01*
X137289000Y-88020124D01*
X137320166Y-87863438D01*
X137381300Y-87715849D01*
X137470055Y-87583017D01*
X137583017Y-87470055D01*
X137671371Y-87411019D01*
X137715847Y-87381301D01*
X137715849Y-87381300D01*
X137863438Y-87320166D01*
X137967895Y-87299389D01*
X138020123Y-87289000D01*
X138179877Y-87289000D01*
X138232105Y-87299389D01*
G37*
G36*
X148432105Y-87299389D02*
G01*
X148536562Y-87320166D01*
X148684151Y-87381300D01*
X148684153Y-87381301D01*
X148728629Y-87411019D01*
X148816983Y-87470055D01*
X148929945Y-87583017D01*
X149018700Y-87715849D01*
X149079834Y-87863438D01*
X149111000Y-88020124D01*
X149111000Y-88179876D01*
X149079834Y-88336562D01*
X149018700Y-88484151D01*
X149018699Y-88484153D01*
X149016150Y-88487968D01*
X148929945Y-88616983D01*
X148816983Y-88729945D01*
X148769024Y-88761990D01*
X148684153Y-88818699D01*
X148684152Y-88818700D01*
X148684151Y-88818700D01*
X148536562Y-88879834D01*
X148432105Y-88900611D01*
X148379877Y-88911000D01*
X148220123Y-88911000D01*
X148167895Y-88900611D01*
X148063438Y-88879834D01*
X147915849Y-88818700D01*
X147915848Y-88818700D01*
X147915847Y-88818699D01*
X147830976Y-88761990D01*
X147783017Y-88729945D01*
X147670055Y-88616983D01*
X147583850Y-88487968D01*
X147581301Y-88484153D01*
X147581300Y-88484151D01*
X147520166Y-88336562D01*
X147489000Y-88179876D01*
X147489000Y-88020124D01*
X147520166Y-87863438D01*
X147581300Y-87715849D01*
X147670055Y-87583017D01*
X147783017Y-87470055D01*
X147871371Y-87411019D01*
X147915847Y-87381301D01*
X147915849Y-87381300D01*
X148063438Y-87320166D01*
X148167895Y-87299389D01*
X148220123Y-87289000D01*
X148379877Y-87289000D01*
X148432105Y-87299389D01*
G37*
G36*
X143332105Y-87299389D02*
G01*
X143436562Y-87320166D01*
X143584151Y-87381300D01*
X143584153Y-87381301D01*
X143628629Y-87411019D01*
X143716983Y-87470055D01*
X143829945Y-87583017D01*
X143918700Y-87715849D01*
X143979834Y-87863438D01*
X144011000Y-88020124D01*
X144011000Y-88179876D01*
X143979834Y-88336562D01*
X143918700Y-88484151D01*
X143918699Y-88484153D01*
X143916150Y-88487968D01*
X143829945Y-88616983D01*
X143716983Y-88729945D01*
X143669024Y-88761990D01*
X143584153Y-88818699D01*
X143584152Y-88818700D01*
X143584151Y-88818700D01*
X143436562Y-88879834D01*
X143332105Y-88900611D01*
X143279877Y-88911000D01*
X143120123Y-88911000D01*
X143067895Y-88900611D01*
X142963438Y-88879834D01*
X142815849Y-88818700D01*
X142815848Y-88818700D01*
X142815847Y-88818699D01*
X142730976Y-88761990D01*
X142683017Y-88729945D01*
X142570055Y-88616983D01*
X142483850Y-88487968D01*
X142481301Y-88484153D01*
X142481300Y-88484151D01*
X142420166Y-88336562D01*
X142389000Y-88179876D01*
X142389000Y-88020124D01*
X142420166Y-87863438D01*
X142481300Y-87715849D01*
X142570055Y-87583017D01*
X142683017Y-87470055D01*
X142771371Y-87411019D01*
X142815847Y-87381301D01*
X142815849Y-87381300D01*
X142963438Y-87320166D01*
X143067895Y-87299389D01*
X143120123Y-87289000D01*
X143279877Y-87289000D01*
X143332105Y-87299389D01*
G37*
G36*
X130954088Y-87594275D02*
G01*
X131033640Y-87610098D01*
X131133548Y-87651482D01*
X131223468Y-87711564D01*
X131299936Y-87788032D01*
X131360018Y-87877952D01*
X131401402Y-87977860D01*
X131422500Y-88083929D01*
X131422500Y-88192071D01*
X131401402Y-88298140D01*
X131360018Y-88398048D01*
X131299936Y-88487968D01*
X131223468Y-88564436D01*
X131133548Y-88624518D01*
X131033640Y-88665902D01*
X130954088Y-88681725D01*
X130927572Y-88687000D01*
X130819428Y-88687000D01*
X130792912Y-88681725D01*
X130713360Y-88665902D01*
X130613452Y-88624518D01*
X130523532Y-88564436D01*
X130447064Y-88487968D01*
X130386982Y-88398048D01*
X130345598Y-88298140D01*
X130324500Y-88192071D01*
X130324500Y-88083929D01*
X130345598Y-87977860D01*
X130386982Y-87877952D01*
X130447064Y-87788032D01*
X130523532Y-87711564D01*
X130613452Y-87651482D01*
X130713360Y-87610098D01*
X130792912Y-87594275D01*
X130819428Y-87589000D01*
X130927572Y-87589000D01*
X130954088Y-87594275D01*
G37*
G36*
X160395433Y-85613064D02*
G01*
X160423010Y-85621430D01*
X160448423Y-85635014D01*
X160470702Y-85653298D01*
X160488986Y-85675577D01*
X160502570Y-85700990D01*
X160510936Y-85728567D01*
X160514000Y-85759684D01*
X160514000Y-86198316D01*
X160510936Y-86229433D01*
X160502570Y-86257010D01*
X160488986Y-86282423D01*
X160470702Y-86304702D01*
X160448423Y-86322986D01*
X160423010Y-86336570D01*
X160395433Y-86344936D01*
X160364316Y-86348000D01*
X159975684Y-86348000D01*
X159944567Y-86344936D01*
X159916990Y-86336570D01*
X159891577Y-86322986D01*
X159869298Y-86304702D01*
X159851014Y-86282423D01*
X159837430Y-86257010D01*
X159829064Y-86229433D01*
X159826000Y-86198316D01*
X159826000Y-85759684D01*
X159829064Y-85728567D01*
X159837430Y-85700990D01*
X159851014Y-85675577D01*
X159869298Y-85653298D01*
X159891577Y-85635014D01*
X159916990Y-85621430D01*
X159944567Y-85613064D01*
X159975684Y-85610000D01*
X160364316Y-85610000D01*
X160395433Y-85613064D01*
G37*
G36*
X161365433Y-85613064D02*
G01*
X161393010Y-85621430D01*
X161418423Y-85635014D01*
X161440702Y-85653298D01*
X161458986Y-85675577D01*
X161472570Y-85700990D01*
X161480936Y-85728567D01*
X161484000Y-85759684D01*
X161484000Y-86198316D01*
X161480936Y-86229433D01*
X161472570Y-86257010D01*
X161458986Y-86282423D01*
X161440702Y-86304702D01*
X161418423Y-86322986D01*
X161393010Y-86336570D01*
X161365433Y-86344936D01*
X161334316Y-86348000D01*
X160945684Y-86348000D01*
X160914567Y-86344936D01*
X160886990Y-86336570D01*
X160861577Y-86322986D01*
X160839298Y-86304702D01*
X160821014Y-86282423D01*
X160807430Y-86257010D01*
X160799064Y-86229433D01*
X160796000Y-86198316D01*
X160796000Y-85759684D01*
X160799064Y-85728567D01*
X160807430Y-85700990D01*
X160821014Y-85675577D01*
X160839298Y-85653298D01*
X160861577Y-85635014D01*
X160886990Y-85621430D01*
X160914567Y-85613064D01*
X160945684Y-85610000D01*
X161334316Y-85610000D01*
X161365433Y-85613064D01*
G37*
G36*
X157358882Y-84214834D02*
G01*
X157399826Y-84227254D01*
X157437559Y-84247423D01*
X157470634Y-84274566D01*
X157497777Y-84307641D01*
X157517946Y-84345374D01*
X157530366Y-84386318D01*
X157534800Y-84431336D01*
X157534800Y-85037464D01*
X157530366Y-85082482D01*
X157517946Y-85123426D01*
X157497777Y-85161159D01*
X157470634Y-85194234D01*
X157437559Y-85221377D01*
X157399826Y-85241546D01*
X157358882Y-85253966D01*
X157313864Y-85258400D01*
X156782736Y-85258400D01*
X156737718Y-85253966D01*
X156696774Y-85241546D01*
X156659041Y-85221377D01*
X156625966Y-85194234D01*
X156598823Y-85161159D01*
X156578654Y-85123426D01*
X156566234Y-85082482D01*
X156561800Y-85037464D01*
X156561800Y-84431336D01*
X156566234Y-84386318D01*
X156578654Y-84345374D01*
X156598823Y-84307641D01*
X156625966Y-84274566D01*
X156659041Y-84247423D01*
X156696774Y-84227254D01*
X156737718Y-84214834D01*
X156782736Y-84210400D01*
X157313864Y-84210400D01*
X157358882Y-84214834D01*
G37*
G36*
X155783882Y-84214834D02*
G01*
X155824826Y-84227254D01*
X155862559Y-84247423D01*
X155895634Y-84274566D01*
X155922777Y-84307641D01*
X155942946Y-84345374D01*
X155955366Y-84386318D01*
X155959800Y-84431336D01*
X155959800Y-85037464D01*
X155955366Y-85082482D01*
X155942946Y-85123426D01*
X155922777Y-85161159D01*
X155895634Y-85194234D01*
X155862559Y-85221377D01*
X155824826Y-85241546D01*
X155783882Y-85253966D01*
X155738864Y-85258400D01*
X155207736Y-85258400D01*
X155162718Y-85253966D01*
X155121774Y-85241546D01*
X155084041Y-85221377D01*
X155050966Y-85194234D01*
X155023823Y-85161159D01*
X155003654Y-85123426D01*
X154991234Y-85082482D01*
X154986800Y-85037464D01*
X154986800Y-84431336D01*
X154991234Y-84386318D01*
X155003654Y-84345374D01*
X155023823Y-84307641D01*
X155050966Y-84274566D01*
X155084041Y-84247423D01*
X155121774Y-84227254D01*
X155162718Y-84214834D01*
X155207736Y-84210400D01*
X155738864Y-84210400D01*
X155783882Y-84214834D01*
G37*
G36*
X162127433Y-84343064D02*
G01*
X162155010Y-84351430D01*
X162180423Y-84365014D01*
X162202702Y-84383298D01*
X162220986Y-84405577D01*
X162234570Y-84430990D01*
X162242936Y-84458567D01*
X162246000Y-84489684D01*
X162246000Y-84928316D01*
X162242936Y-84959433D01*
X162234570Y-84987010D01*
X162220986Y-85012423D01*
X162202702Y-85034702D01*
X162180423Y-85052986D01*
X162155010Y-85066570D01*
X162127433Y-85074936D01*
X162096316Y-85078000D01*
X161707684Y-85078000D01*
X161676567Y-85074936D01*
X161648990Y-85066570D01*
X161623577Y-85052986D01*
X161601298Y-85034702D01*
X161583014Y-85012423D01*
X161569430Y-84987010D01*
X161561064Y-84959433D01*
X161558000Y-84928316D01*
X161558000Y-84489684D01*
X161561064Y-84458567D01*
X161569430Y-84430990D01*
X161583014Y-84405577D01*
X161601298Y-84383298D01*
X161623577Y-84365014D01*
X161648990Y-84351430D01*
X161676567Y-84343064D01*
X161707684Y-84340000D01*
X162096316Y-84340000D01*
X162127433Y-84343064D01*
G37*
G36*
X161157433Y-84343064D02*
G01*
X161185010Y-84351430D01*
X161210423Y-84365014D01*
X161232702Y-84383298D01*
X161250986Y-84405577D01*
X161264570Y-84430990D01*
X161272936Y-84458567D01*
X161276000Y-84489684D01*
X161276000Y-84928316D01*
X161272936Y-84959433D01*
X161264570Y-84987010D01*
X161250986Y-85012423D01*
X161232702Y-85034702D01*
X161210423Y-85052986D01*
X161185010Y-85066570D01*
X161157433Y-85074936D01*
X161126316Y-85078000D01*
X160737684Y-85078000D01*
X160706567Y-85074936D01*
X160678990Y-85066570D01*
X160653577Y-85052986D01*
X160631298Y-85034702D01*
X160613014Y-85012423D01*
X160599430Y-84987010D01*
X160591064Y-84959433D01*
X160588000Y-84928316D01*
X160588000Y-84489684D01*
X160591064Y-84458567D01*
X160599430Y-84430990D01*
X160613014Y-84405577D01*
X160631298Y-84383298D01*
X160653577Y-84365014D01*
X160678990Y-84351430D01*
X160706567Y-84343064D01*
X160737684Y-84340000D01*
X161126316Y-84340000D01*
X161157433Y-84343064D01*
G37*
G36*
X174173267Y-76782822D02*
G01*
X174309758Y-76839359D01*
X174432597Y-76921437D01*
X174537063Y-77025903D01*
X174619141Y-77148742D01*
X174675678Y-77285233D01*
X174704500Y-77430131D01*
X174704500Y-77577869D01*
X174675678Y-77722767D01*
X174619141Y-77859258D01*
X174537063Y-77982097D01*
X174432597Y-78086563D01*
X174309758Y-78168641D01*
X174173267Y-78225178D01*
X174028369Y-78254000D01*
X173880631Y-78254000D01*
X173735733Y-78225178D01*
X173599242Y-78168641D01*
X173476403Y-78086563D01*
X173371937Y-77982097D01*
X173289859Y-77859258D01*
X173233322Y-77722767D01*
X173204500Y-77577869D01*
X173204500Y-77430131D01*
X173233322Y-77285233D01*
X173289859Y-77148742D01*
X173371937Y-77025903D01*
X173476403Y-76921437D01*
X173599242Y-76839359D01*
X173735733Y-76782822D01*
X173880631Y-76754000D01*
X174028369Y-76754000D01*
X174173267Y-76782822D01*
G37*
G36*
X116899267Y-76782822D02*
G01*
X117035758Y-76839359D01*
X117158597Y-76921437D01*
X117263063Y-77025903D01*
X117345141Y-77148742D01*
X117401678Y-77285233D01*
X117430500Y-77430131D01*
X117430500Y-77577869D01*
X117401678Y-77722767D01*
X117345141Y-77859258D01*
X117263063Y-77982097D01*
X117158597Y-78086563D01*
X117035758Y-78168641D01*
X116899267Y-78225178D01*
X116754369Y-78254000D01*
X116606631Y-78254000D01*
X116461733Y-78225178D01*
X116325242Y-78168641D01*
X116202403Y-78086563D01*
X116097937Y-77982097D01*
X116015859Y-77859258D01*
X115959322Y-77722767D01*
X115930500Y-77577869D01*
X115930500Y-77430131D01*
X115959322Y-77285233D01*
X116015859Y-77148742D01*
X116097937Y-77025903D01*
X116202403Y-76921437D01*
X116325242Y-76839359D01*
X116461733Y-76782822D01*
X116606631Y-76754000D01*
X116754369Y-76754000D01*
X116899267Y-76782822D01*
G37*
M02*
