M48
; DRILL file {KiCad (5.1.5)-3} date 8/30/2020 11:50:20 AM
; FORMAT={-:-/ absolute / inch / decimal}
; #@! TF.CreationDate,2020-08-30T11:50:20-07:00
; #@! TF.GenerationSoftware,Kicad,Pcbnew,(5.1.5)-3
FMAT,2
INCH
T1C0.0118
T2C0.0197
T3C0.0394
T4C0.0472
%
G90
G05
T1
X4.7323Y-3.5945
X4.7323Y-3.622
X4.735Y-3.475
X4.746Y-4.2913
X4.7618Y-3.4075
X4.7736Y-4.2913
X4.7756Y-4.425
X4.7992Y-3.9075
X4.8524Y-5.0157
X4.8976Y-5.0177
X4.98Y-4.41
X4.9843Y-4.255
X5.0157Y-4.3366
X5.021Y-4.256
X5.1004Y-4.4114
X5.1401Y-4.2122
X5.189Y-3.1339
X5.2224Y-3.1339
X5.745Y-4.33
X5.785Y-4.38
X5.805Y-4.445
X5.85Y-4.4
X5.875Y-4.46
X5.905Y-4.405
X5.9133Y-3.3887
X5.935Y-4.45
X5.95Y-4.21
X5.975Y-4.36
X5.985Y-4.305
X5.99Y-4.25
X6.005Y-4.405
X6.0195Y-3.3595
X6.02Y-4.34
X6.03Y-4.28
X6.037Y-3.416
X6.037Y-3.3018
X6.059Y-3.3595
X6.0925Y-3.7618
X6.1536Y-4.149
X6.167Y-3.504
X6.1763Y-3.8087
X6.1831Y-3.3386
X6.2001Y-3.586
X6.201Y-3.504
X6.2677Y-3.8209
X6.2848Y-3.7995
X6.2863Y-3.6997
X6.2925Y-3.9975
X6.3012Y-3.8248
X6.313Y-3.7854
X6.3425Y-3.4311
X6.3728Y-3.4342
X6.3825Y-4.0
X6.3839Y-3.7489
X6.3957Y-3.6024
X6.3975Y-3.8
X6.4213Y-4.3209
X6.4252Y-4.3563
X6.4252Y-4.3898
X6.426Y-4.424
X6.4725Y-3.6625
X6.5Y-3.7146
X6.5433Y-4.4193
X6.563Y-4.2736
X6.563Y-4.3031
X6.5787Y-4.4213
T2
X6.4975Y-3.92
X5.1525Y-3.47
X6.3491Y-3.5344
T3
X6.0335Y-4.5177
T4
X4.912Y-3.8461
X4.912Y-3.9979
X5.1937Y-4.3268
X5.3937Y-4.3268
X5.5937Y-4.3268
X5.437Y-3.4685
X5.6378Y-3.4685
X5.8386Y-3.4685
T0
M30
