%TF.GenerationSoftware,KiCad,Pcbnew,(5.1.5)-3*%
%TF.CreationDate,2020-08-30T11:50:14-07:00*%
%TF.ProjectId,ypanel,7970616e-656c-42e6-9b69-6361645f7063,rev?*%
%TF.SameCoordinates,Original*%
%TF.FileFunction,Copper,L5,Inr*%
%TF.FilePolarity,Positive*%
%FSLAX46Y46*%
G04 Gerber Fmt 4.6, Leading zero omitted, Abs format (unit mm)*
G04 Created by KiCad (PCBNEW (5.1.5)-3) date 2020-08-30 11:50:14*
%MOMM*%
%LPD*%
G04 APERTURE LIST*
%ADD10C,0.100000*%
%ADD11C,0.050000*%
%ADD12C,2.032000*%
%ADD13R,2.032000X2.032000*%
%ADD14C,1.000000*%
%ADD15C,1.524000*%
%ADD16C,0.600000*%
%ADD17C,0.500000*%
%ADD18C,0.127000*%
%ADD19C,0.190000*%
%ADD20C,0.320000*%
%ADD21C,0.600000*%
%ADD22C,0.160000*%
G04 APERTURE END LIST*
D10*
X151587000Y-99000001D02*
G75*
G03X151587000Y-99000001I-8000000J0D01*
G01*
X134779564Y-114100000D02*
G75*
G03X134779564Y-114100000I-1029564J0D01*
G01*
X141279564Y-114100000D02*
G75*
G03X141279564Y-114100000I-1029564J0D01*
G01*
X126375000Y-118900000D02*
G75*
G03X126375000Y-118900000I-1300000J0D01*
G01*
X140979564Y-83920436D02*
G75*
G03X140979564Y-83920436I-1029564J0D01*
G01*
X147479564Y-83920436D02*
G75*
G03X147479564Y-83920436I-1029564J0D01*
G01*
X176975000Y-70000000D02*
X176975000Y-128000000D01*
X166200000Y-118900000D02*
G75*
G03X166200000Y-118900000I-1300000J0D01*
G01*
D11*
X126372800Y-79100000D02*
G75*
G03X126372800Y-79100000I-1300000J0D01*
G01*
D10*
X166195000Y-79102480D02*
G75*
G03X166195000Y-79102480I-1300000J0D01*
G01*
X176975000Y-70000000D02*
X113000000Y-70000000D01*
X113000000Y-128000000D02*
X176975000Y-128000000D01*
X113000000Y-70000000D02*
X113000000Y-128000000D01*
D12*
X124764800Y-97691060D03*
D13*
X124764800Y-101546660D03*
D14*
X161267720Y-89773460D03*
X130873500Y-88138000D03*
X165036500Y-99568000D03*
D15*
X142080000Y-109900000D03*
X137000000Y-109900000D03*
X131920000Y-109900000D03*
X148300000Y-88100000D03*
X143200000Y-88100000D03*
X138100000Y-88100000D03*
D16*
X150197820Y-86072980D03*
X159634500Y-96507000D03*
X160350000Y-96150000D03*
X159200000Y-97050000D03*
X160050000Y-97150000D03*
X163220400Y-112369600D03*
X165100000Y-94350000D03*
X121900000Y-99250000D03*
X130558000Y-106991000D03*
X131800000Y-79600000D03*
X132650000Y-79600000D03*
X120200000Y-91300000D03*
X120200000Y-92000000D03*
X121250000Y-109000000D03*
X152146000Y-107950000D03*
X145923000Y-109982000D03*
X146939000Y-111252000D03*
X149987000Y-111887000D03*
X150749000Y-113030000D03*
X151765000Y-110744000D03*
X152527000Y-111887000D03*
X152019000Y-109347000D03*
X148590000Y-111760000D03*
X151130000Y-106934000D03*
X149225000Y-113284000D03*
X147447000Y-112903000D03*
X152908000Y-110236000D03*
X153162000Y-108712000D03*
X126492000Y-112014000D03*
X127532575Y-108101584D03*
X120549010Y-109000000D03*
X162149946Y-95220946D03*
X159829500Y-101536494D03*
X157483120Y-91084100D03*
X163200000Y-111500000D03*
X156301440Y-105384600D03*
X126600000Y-108077020D03*
X157050000Y-84800000D03*
X156876844Y-96740660D03*
X162450000Y-91500000D03*
X154750000Y-95550000D03*
X163200000Y-110650000D03*
X129550000Y-112050000D03*
X127400000Y-110150000D03*
X163100000Y-109750000D03*
X166200000Y-112250000D03*
X153340597Y-83865157D03*
X161100000Y-87150000D03*
X166700000Y-109300000D03*
X166700000Y-108550000D03*
X161870307Y-87229693D03*
X167100000Y-112300000D03*
X153339000Y-86767200D03*
X124400000Y-127450000D03*
X123250000Y-127400000D03*
X121300000Y-112395000D03*
X120269000Y-88265000D03*
X152894500Y-85332100D03*
X120950000Y-86550000D03*
X153897800Y-85332100D03*
X162115500Y-101600000D03*
X162496500Y-96520000D03*
X159670844Y-93971156D03*
X164401500Y-93027500D03*
X156641703Y-89002155D03*
X157504833Y-89002155D03*
D17*
X158300000Y-92300000D02*
X156876844Y-93723156D01*
X156876844Y-93723156D02*
X156876844Y-96740660D01*
X158300000Y-88100000D02*
X158300000Y-92300000D01*
X157050000Y-86850000D02*
X158300000Y-88100000D01*
X157050000Y-84800000D02*
X157050000Y-86850000D01*
D18*
X153340597Y-83865157D02*
X153640596Y-83565158D01*
D19*
X166200000Y-112250000D02*
X168500000Y-109950000D01*
X168500000Y-109950000D02*
X168500000Y-90300000D01*
X168500000Y-90300000D02*
X161650000Y-83450000D01*
X153755754Y-83450000D02*
X153340597Y-83865157D01*
X161650000Y-83450000D02*
X153755754Y-83450000D01*
D20*
X166700000Y-109300000D02*
X166818762Y-109300000D01*
D21*
X161100000Y-87150000D02*
X161100000Y-86725736D01*
X167052000Y-109300000D02*
X166700000Y-109300000D01*
X167478011Y-91809249D02*
X167478011Y-108873989D01*
X162028762Y-86360000D02*
X167478011Y-91809249D01*
X167478011Y-108873989D02*
X167052000Y-109300000D01*
X161465736Y-86360000D02*
X162028762Y-86360000D01*
X161100000Y-86725736D02*
X161465736Y-86360000D01*
D20*
X166700000Y-108534000D02*
X166700000Y-108550000D01*
D21*
X166751000Y-92110386D02*
X161870307Y-87229693D01*
X166700000Y-108550000D02*
X166751000Y-108499000D01*
X166751000Y-108499000D02*
X166751000Y-92110386D01*
D19*
X165400000Y-111944227D02*
X168035010Y-109309225D01*
X165900000Y-113000000D02*
X165400000Y-112500000D01*
X168035010Y-90585010D02*
X161350000Y-83900000D01*
X168035010Y-109309225D02*
X168035010Y-90585010D01*
X166824264Y-113000000D02*
X165900000Y-113000000D01*
X167100000Y-112724264D02*
X166824264Y-113000000D01*
X153782800Y-86767200D02*
X153339000Y-86767200D01*
X156650000Y-83900000D02*
X153782800Y-86767200D01*
X165400000Y-112500000D02*
X165400000Y-111944227D01*
X161350000Y-83900000D02*
X156650000Y-83900000D01*
X167100000Y-112300000D02*
X167100000Y-112724264D01*
X121323000Y-72127000D02*
X121373000Y-72127000D01*
X170623000Y-76327000D02*
X119327000Y-76327000D01*
X170623000Y-121673000D02*
X170623000Y-76327000D01*
X126623000Y-121673000D02*
X170623000Y-121673000D01*
X126073000Y-121123000D02*
X126623000Y-121673000D01*
X121273000Y-121123000D02*
X126073000Y-121123000D01*
X120373000Y-122023000D02*
X121273000Y-121123000D01*
X118977000Y-122023000D02*
X120373000Y-122023000D01*
X118977000Y-75977000D02*
X118977000Y-122023000D01*
X126523000Y-122023000D02*
X170973000Y-122023000D01*
X125973000Y-121473000D02*
X126523000Y-122023000D01*
X121373000Y-121473000D02*
X125973000Y-121473000D01*
X171323000Y-122373000D02*
X171323000Y-75627000D01*
X126423000Y-122373000D02*
X171323000Y-122373000D01*
X121473000Y-121823000D02*
X125873000Y-121823000D01*
X120573000Y-122723000D02*
X121473000Y-121823000D01*
X118277000Y-122723000D02*
X120573000Y-122723000D01*
X118277000Y-75277000D02*
X118277000Y-122723000D01*
X171673000Y-75277000D02*
X118277000Y-75277000D01*
X171673000Y-122723000D02*
X171673000Y-75277000D01*
X126323000Y-122723000D02*
X171673000Y-122723000D01*
X125773000Y-122173000D02*
X126323000Y-122723000D01*
X121573000Y-122173000D02*
X125773000Y-122173000D01*
X120673000Y-123073000D02*
X121573000Y-122173000D01*
X117927000Y-123073000D02*
X120673000Y-123073000D01*
X117927000Y-74927000D02*
X117927000Y-123073000D01*
X172023000Y-74927000D02*
X117927000Y-74927000D01*
X172023000Y-123073000D02*
X172023000Y-74927000D01*
X126223000Y-123073000D02*
X172023000Y-123073000D01*
X125673000Y-122523000D02*
X126223000Y-123073000D01*
X121673000Y-122523000D02*
X125673000Y-122523000D01*
X120773000Y-123423000D02*
X121673000Y-122523000D01*
X117577000Y-123423000D02*
X120773000Y-123423000D01*
X117577000Y-74577000D02*
X117577000Y-123423000D01*
X172373000Y-74577000D02*
X117577000Y-74577000D01*
X118627000Y-75627000D02*
X118627000Y-122373000D01*
X125573000Y-122873000D02*
X126123000Y-123423000D01*
X125873000Y-121823000D02*
X126423000Y-122373000D01*
X121773000Y-122873000D02*
X125573000Y-122873000D01*
X120873000Y-123773000D02*
X121773000Y-122873000D01*
X117227000Y-123773000D02*
X120873000Y-123773000D01*
X117227000Y-74227000D02*
X117227000Y-123773000D01*
X172723000Y-74227000D02*
X117227000Y-74227000D01*
X172723000Y-123773000D02*
X172723000Y-74227000D01*
X125173000Y-124273000D02*
X125723000Y-124823000D01*
X115827000Y-125173000D02*
X121273000Y-125173000D01*
X125623000Y-125173000D02*
X174123000Y-125173000D01*
X122173000Y-124273000D02*
X125173000Y-124273000D01*
X172373000Y-123423000D02*
X172373000Y-74577000D01*
X115127000Y-125873000D02*
X121473000Y-125873000D01*
X125073000Y-124623000D02*
X125623000Y-125173000D01*
X116177000Y-124823000D02*
X121173000Y-124823000D01*
X115127000Y-72127000D02*
X115127000Y-125873000D01*
X126023000Y-123773000D02*
X172723000Y-123773000D01*
X121273000Y-125173000D02*
X122173000Y-124273000D01*
X174123000Y-125173000D02*
X174123000Y-72827000D01*
X115477000Y-125523000D02*
X121373000Y-125523000D01*
X125723000Y-124823000D02*
X173773000Y-124823000D01*
X116177000Y-73177000D02*
X116177000Y-124823000D01*
X122373000Y-124973000D02*
X124973000Y-124973000D01*
X122273000Y-124623000D02*
X125073000Y-124623000D01*
X170973000Y-122023000D02*
X170973000Y-75977000D01*
X121973000Y-123573000D02*
X125373000Y-123573000D01*
X121473000Y-125873000D02*
X122373000Y-124973000D01*
X121373000Y-125523000D02*
X122273000Y-124623000D01*
X124973000Y-124973000D02*
X125523000Y-125523000D01*
X122073000Y-123923000D02*
X125273000Y-123923000D01*
X174123000Y-72827000D02*
X115827000Y-72827000D01*
X116527000Y-73527000D02*
X116527000Y-124473000D01*
X115827000Y-72827000D02*
X115827000Y-125173000D01*
X126123000Y-123423000D02*
X172373000Y-123423000D01*
X115477000Y-72477000D02*
X115477000Y-125523000D01*
X125523000Y-125523000D02*
X174473000Y-125523000D01*
X125923000Y-124123000D02*
X173073000Y-124123000D01*
X120473000Y-122373000D02*
X121373000Y-121473000D01*
X173773000Y-124823000D02*
X173773000Y-73177000D01*
X170973000Y-75977000D02*
X118977000Y-75977000D01*
X173773000Y-73177000D02*
X116177000Y-73177000D01*
X174473000Y-72477000D02*
X115477000Y-72477000D01*
X125473000Y-123223000D02*
X126023000Y-123773000D01*
X121173000Y-124823000D02*
X122073000Y-123923000D01*
X125273000Y-123923000D02*
X125823000Y-124473000D01*
X173423000Y-124473000D02*
X173423000Y-73527000D01*
X125823000Y-124473000D02*
X173423000Y-124473000D01*
X173423000Y-73527000D02*
X116527000Y-73527000D01*
X116527000Y-124473000D02*
X121073000Y-124473000D01*
X118627000Y-122373000D02*
X120473000Y-122373000D01*
X121073000Y-124473000D02*
X121973000Y-123573000D01*
X125373000Y-123573000D02*
X125923000Y-124123000D01*
X173073000Y-124123000D02*
X173073000Y-73877000D01*
X173073000Y-73877000D02*
X116877000Y-73877000D01*
X174473000Y-125523000D02*
X174473000Y-72477000D01*
X116877000Y-73877000D02*
X116877000Y-124123000D01*
X116877000Y-124123000D02*
X120973000Y-124123000D01*
X120973000Y-124123000D02*
X121873000Y-123223000D01*
X171323000Y-75627000D02*
X118627000Y-75627000D01*
X121873000Y-123223000D02*
X125473000Y-123223000D01*
X119327000Y-76327000D02*
X119327000Y-121673000D01*
X119327000Y-121673000D02*
X120273000Y-121673000D01*
X120273000Y-121673000D02*
X121173000Y-120773000D01*
X121173000Y-120773000D02*
X126173000Y-120773000D01*
X126173000Y-120773000D02*
X126723000Y-121323000D01*
X126723000Y-121323000D02*
X170273000Y-121323000D01*
X170273000Y-121323000D02*
X170273000Y-76677000D01*
X170273000Y-76677000D02*
X119677000Y-76677000D01*
X119677000Y-76677000D02*
X119677000Y-121323000D01*
X119677000Y-121323000D02*
X120180200Y-121323000D01*
X120180200Y-121323000D02*
X121158000Y-120345200D01*
X121158000Y-120345200D02*
X123037600Y-120345200D01*
X123037600Y-120345200D02*
X123291600Y-120091200D01*
X123291600Y-120091200D02*
X123291600Y-118110000D01*
X123291600Y-118110000D02*
X124256800Y-117144800D01*
X124256800Y-117144800D02*
X125933200Y-117144800D01*
X125933200Y-117144800D02*
X126898400Y-118110000D01*
X126898400Y-118110000D02*
X126898400Y-120973000D01*
X126898400Y-120973000D02*
X169923000Y-120973000D01*
X169923000Y-120973000D02*
X169923000Y-77027000D01*
X169923000Y-77027000D02*
X120027000Y-77027000D01*
X120027000Y-77027000D02*
X120027000Y-87523000D01*
X120027000Y-87523000D02*
X120269000Y-87765000D01*
X120269000Y-87765000D02*
X120269000Y-88265000D01*
X122042000Y-87000000D02*
X126250000Y-87000000D01*
X130750000Y-82500000D02*
X150062400Y-82500000D01*
X126250000Y-87000000D02*
X130750000Y-82500000D01*
X120269000Y-88265000D02*
X120777000Y-88265000D01*
X120777000Y-88265000D02*
X122042000Y-87000000D01*
X150062400Y-82500000D02*
X152894500Y-85332100D01*
X121323000Y-72127000D02*
X115127000Y-72127000D01*
X121077000Y-86423000D02*
X126077000Y-86423000D01*
X124373000Y-127323000D02*
X124273000Y-127323000D01*
X113399010Y-127600990D02*
X113399010Y-70399010D01*
X125023000Y-127273000D02*
X124473000Y-126723000D01*
X113727000Y-127273000D02*
X113727000Y-70727000D01*
X121873000Y-127273000D02*
X113727000Y-127273000D01*
X122773000Y-126373000D02*
X121873000Y-127273000D01*
X124573000Y-126373000D02*
X122773000Y-126373000D01*
X125123000Y-126923000D02*
X124573000Y-126373000D01*
X124650990Y-127600990D02*
X124373000Y-127323000D01*
X175873000Y-126923000D02*
X125123000Y-126923000D01*
X175873000Y-71077000D02*
X175873000Y-126923000D01*
X114077000Y-71077000D02*
X175873000Y-71077000D01*
X113399010Y-70399010D02*
X176573000Y-70399010D01*
X114077000Y-126923000D02*
X114077000Y-71077000D01*
X175523000Y-126573000D02*
X125223000Y-126573000D01*
X121573000Y-126223000D02*
X114777000Y-126223000D01*
X121673000Y-126573000D02*
X114427000Y-126573000D01*
X114777000Y-71777000D02*
X175173000Y-71777000D01*
X114427000Y-126573000D02*
X114427000Y-71427000D01*
X175523000Y-71427000D02*
X175523000Y-126573000D01*
X176495010Y-127600990D02*
X124650990Y-127600990D01*
X174823000Y-72127000D02*
X174823000Y-125873000D01*
X122473000Y-125323000D02*
X121573000Y-126223000D01*
X176223000Y-127273000D02*
X125023000Y-127273000D01*
X124873000Y-125323000D02*
X122473000Y-125323000D01*
X176573000Y-127523000D02*
X176495010Y-127600990D01*
X121773000Y-126923000D02*
X114077000Y-126923000D01*
X124473000Y-126723000D02*
X122873000Y-126723000D01*
X114777000Y-126223000D02*
X114777000Y-71777000D01*
X121323000Y-72127000D02*
X174823000Y-72127000D01*
X175173000Y-71777000D02*
X175173000Y-126223000D01*
X122873000Y-126723000D02*
X121995010Y-127600990D01*
X175173000Y-126223000D02*
X125323000Y-126223000D01*
X174823000Y-125873000D02*
X125423000Y-125873000D01*
X125423000Y-125873000D02*
X124873000Y-125323000D01*
X114427000Y-71427000D02*
X175523000Y-71427000D01*
X125323000Y-126223000D02*
X124773000Y-125673000D01*
X124773000Y-125673000D02*
X122573000Y-125673000D01*
X122573000Y-125673000D02*
X121673000Y-126573000D01*
X113727000Y-70727000D02*
X176223000Y-70727000D01*
X125223000Y-126573000D02*
X124673000Y-126023000D01*
X176573000Y-70399010D02*
X176573000Y-127523000D01*
X176223000Y-70727000D02*
X176223000Y-127273000D01*
X124673000Y-126023000D02*
X122673000Y-126023000D01*
X121995010Y-127600990D02*
X113399010Y-127600990D01*
X122673000Y-126023000D02*
X121773000Y-126923000D01*
X150565700Y-82000000D02*
X153897800Y-85332100D01*
X130500000Y-82000000D02*
X150565700Y-82000000D01*
X126390400Y-86106000D02*
X126394000Y-86106000D01*
X126394000Y-86106000D02*
X130500000Y-82000000D01*
X126390400Y-86109600D02*
X126077000Y-86423000D01*
X126390400Y-86106000D02*
X126390400Y-86109600D01*
D22*
G36*
X162162500Y-108637899D02*
G01*
X162162500Y-119998500D01*
X144351238Y-119998500D01*
X144300317Y-114677116D01*
X152510000Y-114677116D01*
X152510000Y-114822884D01*
X152538437Y-114965850D01*
X152594220Y-115100522D01*
X152675204Y-115221723D01*
X152778277Y-115324796D01*
X152899478Y-115405780D01*
X153034150Y-115461563D01*
X153177116Y-115490000D01*
X153322884Y-115490000D01*
X153465850Y-115461563D01*
X153600522Y-115405780D01*
X153721723Y-115324796D01*
X153824796Y-115221723D01*
X153905780Y-115100522D01*
X153961563Y-114965850D01*
X153990000Y-114822884D01*
X153990000Y-114677116D01*
X153961563Y-114534150D01*
X153905780Y-114399478D01*
X153824796Y-114278277D01*
X153721723Y-114175204D01*
X153600522Y-114094220D01*
X153465850Y-114038437D01*
X153322884Y-114010000D01*
X153177116Y-114010000D01*
X153034150Y-114038437D01*
X152899478Y-114094220D01*
X152778277Y-114175204D01*
X152675204Y-114278277D01*
X152594220Y-114399478D01*
X152538437Y-114534150D01*
X152510000Y-114677116D01*
X144300317Y-114677116D01*
X144244029Y-108795067D01*
X147781040Y-108795067D01*
X147782925Y-108810636D01*
X147787812Y-108825538D01*
X147795512Y-108839200D01*
X149057892Y-110640060D01*
X149068172Y-110652018D01*
X149080525Y-110661681D01*
X149094525Y-110668747D01*
X149109635Y-110672947D01*
X149125274Y-110674118D01*
X149140841Y-110672216D01*
X149155738Y-110667313D01*
X149169392Y-110659598D01*
X150723872Y-109567398D01*
X150735682Y-109557247D01*
X150745362Y-109544908D01*
X150752448Y-109530917D01*
X150756668Y-109515813D01*
X150757861Y-109500176D01*
X150755980Y-109484606D01*
X150751097Y-109469703D01*
X150743401Y-109456038D01*
X149483561Y-107657718D01*
X149473375Y-107645845D01*
X149461041Y-107636159D01*
X149447054Y-107629067D01*
X149431951Y-107624839D01*
X149416315Y-107623639D01*
X149400744Y-107625512D01*
X149385838Y-107630387D01*
X149372170Y-107638076D01*
X147815150Y-108727736D01*
X147803202Y-108737989D01*
X147793526Y-108750331D01*
X147786444Y-108764324D01*
X147782228Y-108779429D01*
X147781040Y-108795067D01*
X144244029Y-108795067D01*
X144229546Y-107281680D01*
X145353418Y-107120091D01*
X146491047Y-106786053D01*
X147569559Y-106293513D01*
X148566997Y-105652499D01*
X149463057Y-104876058D01*
X150239498Y-103979998D01*
X150449290Y-103653554D01*
X162162500Y-108637899D01*
G37*
X162162500Y-108637899D02*
X162162500Y-119998500D01*
X144351238Y-119998500D01*
X144300317Y-114677116D01*
X152510000Y-114677116D01*
X152510000Y-114822884D01*
X152538437Y-114965850D01*
X152594220Y-115100522D01*
X152675204Y-115221723D01*
X152778277Y-115324796D01*
X152899478Y-115405780D01*
X153034150Y-115461563D01*
X153177116Y-115490000D01*
X153322884Y-115490000D01*
X153465850Y-115461563D01*
X153600522Y-115405780D01*
X153721723Y-115324796D01*
X153824796Y-115221723D01*
X153905780Y-115100522D01*
X153961563Y-114965850D01*
X153990000Y-114822884D01*
X153990000Y-114677116D01*
X153961563Y-114534150D01*
X153905780Y-114399478D01*
X153824796Y-114278277D01*
X153721723Y-114175204D01*
X153600522Y-114094220D01*
X153465850Y-114038437D01*
X153322884Y-114010000D01*
X153177116Y-114010000D01*
X153034150Y-114038437D01*
X152899478Y-114094220D01*
X152778277Y-114175204D01*
X152675204Y-114278277D01*
X152594220Y-114399478D01*
X152538437Y-114534150D01*
X152510000Y-114677116D01*
X144300317Y-114677116D01*
X144244029Y-108795067D01*
X147781040Y-108795067D01*
X147782925Y-108810636D01*
X147787812Y-108825538D01*
X147795512Y-108839200D01*
X149057892Y-110640060D01*
X149068172Y-110652018D01*
X149080525Y-110661681D01*
X149094525Y-110668747D01*
X149109635Y-110672947D01*
X149125274Y-110674118D01*
X149140841Y-110672216D01*
X149155738Y-110667313D01*
X149169392Y-110659598D01*
X150723872Y-109567398D01*
X150735682Y-109557247D01*
X150745362Y-109544908D01*
X150752448Y-109530917D01*
X150756668Y-109515813D01*
X150757861Y-109500176D01*
X150755980Y-109484606D01*
X150751097Y-109469703D01*
X150743401Y-109456038D01*
X149483561Y-107657718D01*
X149473375Y-107645845D01*
X149461041Y-107636159D01*
X149447054Y-107629067D01*
X149431951Y-107624839D01*
X149416315Y-107623639D01*
X149400744Y-107625512D01*
X149385838Y-107630387D01*
X149372170Y-107638076D01*
X147815150Y-108727736D01*
X147803202Y-108737989D01*
X147793526Y-108750331D01*
X147786444Y-108764324D01*
X147782228Y-108779429D01*
X147781040Y-108795067D01*
X144244029Y-108795067D01*
X144229546Y-107281680D01*
X145353418Y-107120091D01*
X146491047Y-106786053D01*
X147569559Y-106293513D01*
X148566997Y-105652499D01*
X149463057Y-104876058D01*
X150239498Y-103979998D01*
X150449290Y-103653554D01*
X162162500Y-108637899D01*
M02*
