0
SECTION
2
HEADER
9
$INSUNITS
70
4
9
$ACADVER
1
AC1014
9
$HANDSEED
5
FFFF
0
ENDSEC
0
SECTION
2
TABLES
0
TABLE
2
VPORT
5
8
100
AcDbSymbolTable
0
ENDTAB
0
TABLE
2
LTYPE
5
5
100
AcDbSymbolTable
0
LTYPE
5
14
100
AcDbSymbolTableRecord
100
AcDbLinetypeTableRecord
2
BYBLOCK
70
0
0
LTYPE
5
15
100
AcDbSymbolTableRecord
100
AcDbLinetypeTableRecord
2
BYLAYER
70
0
0
ENDTAB
0
TABLE
2
LAYER
5
2
100
AcDbSymbolTable
70
2
0
LAYER
5
50
100
AcDbSymbolTableRecord
100
AcDbLayerTableRecord
2
0
70
0
6
CONTINUOUS
0
ENDTAB
0
TABLE
2
STYLE
5
3
100
AcDbSymbolTable
70
1
0
STYLE
5
11
100
AcDbSymbolTableRecord
100
AcDbTextStyleTableRecord
2
STANDARD
70
0
0
ENDTAB
0
TABLE
2
VIEW
5
6
100
AcDbSymbolTable
70
0
0
ENDTAB
0
TABLE
2
UCS
5
7
100
AcDbSymbolTable
70
0
0
ENDTAB
0
TABLE
2
APPID
5
9
100
AcDbSymbolTable
70
2
0
APPID
5
12
100
AcDbSymbolTableRecord
100
AcDbRegAppTableRecord
2
ACAD
70
0
0
ENDTAB
0
TABLE
2
DIMSTYLE
5
A
100
AcDbSymbolTable
70
1
0
ENDTAB
0
TABLE
2
BLOCK_RECORD
5
1
100
AcDbSymbolTable
70
1
0
BLOCK_RECORD
5
1F
100
AcDbSymbolTableRecord
100
AcDbBlockTableRecord
2
*MODEL_SPACE
0
BLOCK_RECORD
5
1B
100
AcDbSymbolTableRecord
100
AcDbBlockTableRecord
2
*PAPER_SPACE
0
ENDTAB
0
ENDSEC
0
SECTION
2
BLOCKS
0
BLOCK
5
20
100
AcDbEntity
100
AcDbBlockBegin
2
*MODEL_SPACE
0
ENDBLK
5
21
100
AcDbEntity
100
AcDbBlockEnd
0
BLOCK
5
1C
100
AcDbEntity
100
AcDbBlockBegin
2
*PAPER_SPACE
0
ENDBLK
5
1D
100
AcDbEntity
100
AcDbBlockEnd
0
ENDSEC
0
SECTION
2
ENTITIES
0
CIRCLE
5
100
100
AcDbEntity
8
0
100
AcDbCircle
10
17.709139999999941
20
157.69034100000016
30
0
40
1.3000000000000003
210
2.1524968080077913e-46
220
2.4651903288156619e-32
230
1
0
CIRCLE
5
101
100
AcDbEntity
8
0
100
AcDbCircle
10
57.531339999999958
20
157.69282099999984
30
0
40
1.3000000000000003
210
2.1524968080077913e-46
220
2.4651903288156619e-32
230
1
0
CIRCLE
5
102
100
AcDbEntity
8
0
100
AcDbCircle
10
17.711340000000266
20
197.49034100000017
30
0
40
1.3000000000000003
210
2.1524968080077913e-46
220
2.4651903288156619e-32
230
1
0
CIRCLE
5
103
100
AcDbEntity
8
0
100
AcDbCircle
10
57.536340000000266
20
197.49034099999983
30
0
40
1.3000000000000003
210
2.1524968080077913e-46
220
2.4651903288156619e-32
230
1
0
CIRCLE
5
104
100
AcDbEntity
8
0
100
AcDbCircle
10
17.709139999999948
20
157.69034100000013
30
0
40
0.75000000000000155
210
-2.167591716529954e-46
220
-2.4651903288156624e-32
230
1
0
LWPOLYLINE
5
105
100
AcDbEntity
8
0
100
AcDbPolyline
90
4
70
1
43
0.0
10
21.109139999999925
20
154.19034100006638
10
21.109139999999989
20
161.19034100006641
10
14.309139999999971
20
161.19034100006644
10
14.30913999999991
20
154.19034100444077
0
LWPOLYLINE
5
106
100
AcDbEntity
8
0
100
AcDbPolyline
90
4
70
1
43
0.0
10
12.71134000000081
20
154.19034100000022
10
14.311340000000815
20
154.19034100000025
10
14.311340000000396
20
202.59034100000031
10
12.711340000000392
20
202.59034100000031
0
CIRCLE
5
107
100
AcDbEntity
8
0
100
AcDbCircle
10
17.711340000000153
20
197.4903410000002
30
0
40
0.75000000000000355
210
1.2325951644078309e-32
220
-1.0413317738584212e-46
230
1
0
LWPOLYLINE
5
108
100
AcDbEntity
8
0
100
AcDbPolyline
90
4
70
1
43
0.0
10
21.111340000000137
20
193.99034100000017
10
21.111340000000194
20
200.99034100000017
10
14.311340000000172
20
200.99034100000026
10
14.311340000000108
20
193.99034100000023
0
LWPOLYLINE
5
109
100
AcDbEntity
8
0
100
AcDbPolyline
90
4
70
1
43
0.0
10
62.811340000000328
20
200.99034099999994
10
62.811340000000335
20
202.59034099999994
10
14.411340000000308
20
202.59034100000011
10
14.41134000000031
20
200.99034100000011
0
CIRCLE
5
110
100
AcDbEntity
8
0
100
AcDbCircle
10
57.711340000000249
20
197.49034099993355
30
0
40
0.75000000000000133
210
2.1374018211819656e-46
220
2.4651903288156619e-32
230
1
0
LWPOLYLINE
5
111
100
AcDbEntity
8
0
100
AcDbPolyline
90
4
70
1
43
0.0
10
54.311340000000271
20
200.99034099986736
10
54.311340000000207
20
193.99034099986733
10
61.111340000000226
20
193.99034099986724
10
61.111340000000283
20
200.99034099549289
0
LWPOLYLINE
5
112
100
AcDbEntity
8
0
100
AcDbPolyline
90
4
70
1
43
0.0
10
62.709140000000019
20
200.99034099993355
10
61.109140000000018
20
200.99034099993355
10
61.109139999999854
20
152.59034099993355
10
62.709139999999849
20
152.59034099993355
0
CIRCLE
5
113
100
AcDbEntity
8
0
100
AcDbCircle
10
57.709140000000048
20
157.69034099993351
30
0
40
0.75000000000000355
210
-1.2325951644078312e-32
220
1.0564267084818065e-46
230
1
0
LWPOLYLINE
5
114
100
AcDbEntity
8
0
100
AcDbPolyline
90
4
70
1
43
0.0
10
54.309140000000077
20
161.19034099993354
10
54.309140000000014
20
154.19034099993351
10
61.109140000000025
20
154.19034099993348
10
61.109140000000089
20
161.19034099993345
0
LWPOLYLINE
5
115
100
AcDbEntity
8
0
100
AcDbPolyline
90
4
70
1
43
0.0
10
12.609140000000066
20
154.1903410022536
10
12.609140000000094
20
152.59034100225361
10
61.009140000000137
20
152.59034100225449
10
61.009140000000109
20
154.19034100225448
0
LWPOLYLINE
5
116
100
AcDbEntity
8
0
100
AcDbPolyline
90
8
70
1
43
0.0
10
26.509139925130441
20
190.14034099993376
10
49.309139925130381
20
190.14034099993367
42
-0.4142135623731002
10
50.309139925130388
20
189.14034099993361
10
50.309139925130175
20
166.34034099993372
42
-0.41421356237310802
10
49.309139925130189
20
165.34034099993369
10
26.509139925130242
20
165.34034099993377
42
-0.41421356237311718
10
25.509139925130249
20
166.34034099993383
10
25.509139925130455
20
189.14034099993373
42
-0.41421356237310802
0
CIRCLE
5
117
100
AcDbEntity
8
0
100
AcDbCircle
10
17.809139999999925
20
157.69034099993394
30
0
40
1.9000000000000057
210
-2.1675916904287353e-46
220
-2.4651903288156624e-32
230
1
0
CIRCLE
5
118
100
AcDbEntity
8
0
100
AcDbCircle
10
17.811340000000204
20
197.49034100000011
30
0
40
1.9000000000000044
210
2.4651903288156619e-32
220
5.4575264051172218e-46
230
1
0
CIRCLE
5
119
100
AcDbEntity
8
0
100
AcDbCircle
10
57.611340000000261
20
197.49034099999975
30
0
40
1.900000000000005
210
2.1374018472831827e-46
220
2.4651903288156619e-32
230
1
0
CIRCLE
5
120
100
AcDbEntity
8
0
100
AcDbCircle
10
57.609139999999982
20
157.69034099993351
30
0
40
1.9000000000000048
210
0
220
-0
230
1
0
ENDSEC
0
SECTION
2
OBJECTS
0
DICTIONARY
5
C
100
AcDbDictionary
3
ACAD_GROUP
350
D
3
ACAD_MLINESTYLE
350
17
0
DICTIONARY
5
D
100
AcDbDictionary
0
DICTIONARY
5
1A
330
C
100
AcDbDictionary
0
DICTIONARY
5
17
100
AcDbDictionary
0
ENDSEC
0
EOF
