0
SECTION
2
HEADER
9
$INSUNITS
70
4
9
$ACADVER
1
AC1014
9
$HANDSEED
5
FFFF
0
ENDSEC
0
SECTION
2
TABLES
0
TABLE
2
VPORT
5
8
100
AcDbSymbolTable
0
ENDTAB
0
TABLE
2
LTYPE
5
5
100
AcDbSymbolTable
0
LTYPE
5
14
100
AcDbSymbolTableRecord
100
AcDbLinetypeTableRecord
2
BYBLOCK
70
0
0
LTYPE
5
15
100
AcDbSymbolTableRecord
100
AcDbLinetypeTableRecord
2
BYLAYER
70
0
0
ENDTAB
0
TABLE
2
LAYER
5
2
100
AcDbSymbolTable
70
2
0
LAYER
5
50
100
AcDbSymbolTableRecord
100
AcDbLayerTableRecord
2
0
70
0
6
CONTINUOUS
0
ENDTAB
0
TABLE
2
STYLE
5
3
100
AcDbSymbolTable
70
1
0
STYLE
5
11
100
AcDbSymbolTableRecord
100
AcDbTextStyleTableRecord
2
STANDARD
70
0
0
ENDTAB
0
TABLE
2
VIEW
5
6
100
AcDbSymbolTable
70
0
0
ENDTAB
0
TABLE
2
UCS
5
7
100
AcDbSymbolTable
70
0
0
ENDTAB
0
TABLE
2
APPID
5
9
100
AcDbSymbolTable
70
2
0
APPID
5
12
100
AcDbSymbolTableRecord
100
AcDbRegAppTableRecord
2
ACAD
70
0
0
ENDTAB
0
TABLE
2
DIMSTYLE
5
A
100
AcDbSymbolTable
70
1
0
ENDTAB
0
TABLE
2
BLOCK_RECORD
5
1
100
AcDbSymbolTable
70
1
0
BLOCK_RECORD
5
1F
100
AcDbSymbolTableRecord
100
AcDbBlockTableRecord
2
*MODEL_SPACE
0
BLOCK_RECORD
5
1B
100
AcDbSymbolTableRecord
100
AcDbBlockTableRecord
2
*PAPER_SPACE
0
ENDTAB
0
ENDSEC
0
SECTION
2
BLOCKS
0
BLOCK
5
20
100
AcDbEntity
100
AcDbBlockBegin
2
*MODEL_SPACE
0
ENDBLK
5
21
100
AcDbEntity
100
AcDbBlockEnd
0
BLOCK
5
1C
100
AcDbEntity
100
AcDbBlockBegin
2
*PAPER_SPACE
0
ENDBLK
5
1D
100
AcDbEntity
100
AcDbBlockEnd
0
ENDSEC
0
SECTION
2
ENTITIES
0
CIRCLE
5
100
100
AcDbEntity
8
0
100
AcDbCircle
10
-27.812999999999999
20
-27.324999999999999
30
0
40
6.0000000000000009
210
0
220
-0
230
1
0
CIRCLE
5
101
100
AcDbEntity
8
0
100
AcDbCircle
10
-51.887499999999974
20
-48.899999999999963
30
0
40
1.749999999999998
210
0
220
-0
230
1
0
CIRCLE
5
102
100
AcDbEntity
8
0
100
AcDbCircle
10
-12.087499999999958
20
-9.0999999999999659
30
0
40
1.7500000000000004
210
0
220
-0
230
1
0
CIRCLE
5
103
100
AcDbEntity
8
0
100
AcDbCircle
10
-12.087499999999967
20
-48.899999999999963
30
0
40
1.7500000000000004
210
0
220
-0
230
1
0
CIRCLE
5
104
100
AcDbEntity
8
0
100
AcDbCircle
10
-51.88749999999996
20
-9.099999999999957
30
0
40
1.749999999999998
210
0
220
-0
230
1
0
LWPOLYLINE
5
105
100
AcDbEntity
8
0
100
AcDbPolyline
90
4
70
1
43
0.0
10
0
20
0
10
0
20
-58.000000000000007
10
-63.975000000000009
20
-58.000000000000007
10
-63.975000000000009
20
0
0
CIRCLE
5
106
100
AcDbEntity
8
0
100
AcDbCircle
10
-27.812999999999999
20
-27.324999999999999
30
0
40
6.0000000000000009
210
0
220
0
230
1
0
CIRCLE
5
107
100
AcDbEntity
8
0
100
AcDbCircle
10
-51.887499999999974
20
-48.899999999999963
30
0
40
1.7499999999999982
210
0
220
0
230
1
0
CIRCLE
5
108
100
AcDbEntity
8
0
100
AcDbCircle
10
-12.087499999999958
20
-9.0999999999999659
30
0
40
1.7500000000000004
210
0
220
0
230
1
0
CIRCLE
5
109
100
AcDbEntity
8
0
100
AcDbCircle
10
-12.087499999999967
20
-48.899999999999963
30
0
40
1.7500000000000004
210
0
220
0
230
1
0
CIRCLE
5
110
100
AcDbEntity
8
0
100
AcDbCircle
10
-51.88749999999996
20
-9.099999999999957
30
0
40
1.7499999999999982
210
0
220
0
230
1
0
LWPOLYLINE
5
111
100
AcDbEntity
8
0
100
AcDbPolyline
90
4
70
1
43
0.0
10
0
20
-58.000000000000007
10
-63.975000000000009
20
-58.000000000000007
10
-63.975000000000009
20
0
10
0
20
0
0
LWPOLYLINE
5
112
100
AcDbEntity
8
0
100
AcDbPolyline
90
12
70
1
43
0.0
10
-15.587499999999961
20
-45.399999999999956
10
-15.587499999999963
20
-48.399999999999963
10
-48.38749999999996
20
-48.399999999999956
10
-48.38749999999996
20
-45.399999999999956
10
-51.387499999999946
20
-45.399999999999956
10
-51.387499999999946
20
-12.599999999999962
10
-48.38749999999996
20
-12.599999999999966
10
-48.38749999999996
20
-9.5999999999999641
10
-15.587499999999959
20
-9.5999999999999641
10
-15.587499999999959
20
-12.599999999999966
10
-12.587499999999956
20
-12.599999999999966
10
-12.587499999999956
20
-45.399999999999956
0
CIRCLE
5
113
100
AcDbEntity
8
0
100
AcDbCircle
10
-12.087499999999959
20
-48.89999999999997
30
0
40
2.0000000000000018
210
0
220
0
230
1
0
CIRCLE
5
114
100
AcDbEntity
8
0
100
AcDbCircle
10
-51.887499999999953
20
-48.89999999999997
30
0
40
2.0000000000000018
210
0
220
0
230
1
0
CIRCLE
5
115
100
AcDbEntity
8
0
100
AcDbCircle
10
-12.087499999999958
20
-9.0999999999999659
30
0
40
2
210
0
220
0
230
1
0
CIRCLE
5
116
100
AcDbEntity
8
0
100
AcDbCircle
10
-51.887499999999953
20
-9.0999999999999623
30
0
40
2
210
0
220
0
230
1
0
CIRCLE
5
117
100
AcDbEntity
8
0
100
AcDbCircle
10
-35.825000000000003
20
-44.100000000000001
30
0
40
0.99999999999999989
210
0
220
-0
230
1
0
CIRCLE
5
118
100
AcDbEntity
8
0
100
AcDbCircle
10
-29.32500000000001
20
-13.900000000000007
30
0
40
0.99999999999999989
210
0
220
-0
230
1
0
CIRCLE
5
119
100
AcDbEntity
8
0
100
AcDbCircle
10
-35.825000000000003
20
-44.100000000000001
30
0
40
1.0000000000000009
210
0
220
0
230
1
0
CIRCLE
5
120
100
AcDbEntity
8
0
100
AcDbCircle
10
-29.325000000001328
20
-44.100000000000009
30
0
40
1.0000000000000009
210
0
220
0
230
1
0
CIRCLE
5
121
100
AcDbEntity
8
0
100
AcDbCircle
10
-29.32500000000001
20
-13.900000000000007
30
0
40
0.99999999999999933
210
0
220
0
230
1
0
CIRCLE
5
122
100
AcDbEntity
8
0
100
AcDbCircle
10
-35.824999999998681
20
-13.900000000000007
30
0
40
0.99999999999999867
210
0
220
0
230
1
0
LWPOLYLINE
5
123
100
AcDbEntity
8
0
100
AcDbPolyline
90
4
70
1
43
0.0
10
-56.987500745058014
20
-53.999999999999972
10
-6.9874999999999554
20
-53.999999999999972
10
-6.987499999999951
20
-3.9999992549419083
10
-56.987500745058014
20
-3.9999992549419083
0
ENDSEC
0
SECTION
2
OBJECTS
0
DICTIONARY
5
C
100
AcDbDictionary
3
ACAD_GROUP
350
D
3
ACAD_MLINESTYLE
350
17
0
DICTIONARY
5
D
100
AcDbDictionary
0
DICTIONARY
5
1A
330
C
100
AcDbDictionary
0
DICTIONARY
5
17
100
AcDbDictionary
0
ENDSEC
0
EOF
