M48
;DRILL file {KiCad 5.0.2-bee76a0~70~ubuntu18.04.1} date Sat 29 Feb 2020 05:21:05 PM PST
;FORMAT={-:-/ absolute / inch / decimal}
FMAT,2
INCH,TZ
T1C0.0118
T2C0.0150
T3C0.0157
T4C0.0197
%
G90
G05
T1
X3.88Y-2.5
X3.88Y-2.55
X3.88Y-2.6
X3.9587Y-1.8996
X4.0525Y-2.31
X4.1002Y-2.0136
X4.1064Y-2.0677
X4.14Y-1.935
X4.1832Y-1.9886
X4.1832Y-2.0376
X4.2075Y-1.9
X4.2092Y-2.1236
X4.2096Y-2.0115
X4.2332Y-2.0376
X4.2335Y-1.9876
X4.3005Y-1.9155
X4.3075Y-2.0675
X4.395Y-2.
X4.47Y-1.885
X4.5256Y-1.9587
X4.5295Y-1.9921
X4.6175Y-1.8675
X4.62Y-2.1025
X4.6275Y-1.9154
X4.6475Y-1.86
X4.7874Y-1.878
X4.7933Y-1.9075
X4.8209Y-1.9331
X4.8878Y-2.
X4.9075Y-1.8777
X4.9587Y-1.9331
X4.9882Y-1.8583
X5.0276Y-1.8543
X5.0492Y-1.878
T2
X4.985Y-3.45
X5.095Y-3.45
T3
X3.878Y-2.1752
X4.7228Y-2.0981
X4.8051Y-2.0492
X4.8996Y-2.1811
T4
X4.72Y-2.48
X4.Y-2.475
X4.72Y-2.31
X4.18Y-2.475
T0
M30
