%TF.GenerationSoftware,KiCad,Pcbnew,5.0.2-bee76a0~70~ubuntu18.04.1*%
%TF.CreationDate,2020-02-29T17:21:03-08:00*%
%TF.ProjectId,SolarCellX_v3,536f6c61-7243-4656-9c6c-585f76332e6b,rev?*%
%TF.SameCoordinates,Original*%
%TF.FileFunction,Copper,L4,Inr*%
%TF.FilePolarity,Positive*%
%FSLAX46Y46*%
G04 Gerber Fmt 4.6, Leading zero omitted, Abs format (unit mm)*
G04 Created by KiCad (PCBNEW 5.0.2-bee76a0~70~ubuntu18.04.1) date Sat 29 Feb 2020 05:21:03 PM PST*
%MOMM*%
%LPD*%
G01*
G04 APERTURE LIST*
%ADD10C,0.050000*%
%ADD11C,1.000000*%
%ADD12C,0.600000*%
%ADD13C,0.800000*%
%ADD14C,0.584200*%
%ADD15C,0.190000*%
%ADD16C,0.088900*%
G04 APERTURE END LIST*
D10*
X96200000Y-47000000D02*
G75*
G03X96200000Y-47000000I-1100000J0D01*
G01*
X96200000Y-81400000D02*
G75*
G03X96200000Y-81400000I-1100000J0D01*
G01*
X136000000Y-81400000D02*
G75*
G03X136000000Y-81400000I-1100000J0D01*
G01*
X136000000Y-47000000D02*
G75*
G03X136000000Y-47000000I-1100000J0D01*
G01*
X90000000Y-88400000D02*
X138400000Y-88400000D01*
X90000000Y-88400000D02*
X90000000Y-40000000D01*
X138400000Y-40000000D02*
X138400000Y-88400000D01*
X90000000Y-40000000D02*
X138400000Y-40000000D01*
D11*
X101600000Y-62865000D03*
X106172000Y-62865000D03*
X119888000Y-58674000D03*
X119888000Y-62992000D03*
D12*
X106253260Y-51754256D03*
X107523260Y-51754256D03*
X106253260Y-50509656D03*
X109410500Y-52514500D03*
X107530900Y-50485040D03*
X106923840Y-51092100D03*
X104302012Y-52519693D03*
D13*
X122050000Y-52050000D03*
X124450000Y-55400000D03*
D12*
X128250000Y-47700000D03*
X124650000Y-47694011D03*
X117537610Y-48650791D03*
X117348000Y-53403500D03*
X121600000Y-47700000D03*
X118047740Y-47243775D03*
X126700000Y-47200000D03*
X117284500Y-47434502D03*
X127700000Y-47100000D03*
X105156000Y-49149000D03*
X111633000Y-50800000D03*
X114950000Y-49750000D03*
X121750000Y-48450000D03*
X124150000Y-50800000D03*
X115050000Y-50600000D03*
X106870500Y-48260000D03*
X109232672Y-48653690D03*
X104144156Y-51144656D03*
X102933500Y-58674000D03*
X100550000Y-48250000D03*
D13*
X119958000Y-53290920D03*
D14*
X126619000Y-87630000D03*
D12*
X98552000Y-64770000D03*
X98552000Y-63500000D03*
X98552000Y-66040000D03*
D14*
X129413000Y-87630000D03*
D12*
X122450000Y-49100000D03*
X125950000Y-49100000D03*
X106913660Y-53938656D03*
X113538000Y-47879000D03*
D13*
X98500000Y-55250000D03*
D15*
X129350000Y-46550000D02*
X98900000Y-46550000D01*
X129350000Y-79650000D02*
X131850000Y-77150000D01*
X124700000Y-81150000D02*
X129350000Y-81150000D01*
X123650000Y-82200000D02*
X124700000Y-81150000D01*
X98550000Y-82200000D02*
X123650000Y-82200000D01*
X98550000Y-80250000D02*
X98550000Y-82200000D01*
X96200000Y-77900000D02*
X98550000Y-80250000D01*
X98550000Y-46200000D02*
X98550000Y-48150000D01*
X129700000Y-46200000D02*
X98550000Y-46200000D01*
X129700000Y-48650000D02*
X129700000Y-46200000D01*
X132200000Y-51150000D02*
X129700000Y-48650000D01*
X132200000Y-77250000D02*
X132200000Y-51150000D01*
X129700000Y-79750000D02*
X132200000Y-77250000D01*
X129700000Y-81500000D02*
X129700000Y-79750000D01*
X123750000Y-82550000D02*
X124800000Y-81500000D01*
X98200000Y-82450000D02*
X98100000Y-82550000D01*
X95850000Y-78250000D02*
X96100000Y-78250000D01*
X96150000Y-50100000D02*
X95850000Y-50100000D01*
X98200000Y-48050000D02*
X96150000Y-50100000D01*
X130050000Y-45850000D02*
X98200000Y-45850000D01*
X98900000Y-48300000D02*
X96550000Y-50650000D01*
X130050000Y-48550000D02*
X130050000Y-45850000D01*
X132550000Y-51050000D02*
X130050000Y-48550000D01*
X130050000Y-81850000D02*
X130050000Y-79850000D01*
X97850000Y-82350000D02*
X97300000Y-82900000D01*
X98200000Y-80350000D02*
X98200000Y-82450000D01*
X132550000Y-77350000D02*
X132550000Y-51050000D01*
X95500000Y-49750000D02*
X95500000Y-78600000D01*
X96050000Y-49750000D02*
X95500000Y-49750000D01*
X97850000Y-46050000D02*
X97850000Y-47950000D01*
X130400000Y-79950000D02*
X132900000Y-77450000D01*
X130400000Y-82200000D02*
X130400000Y-79950000D01*
X125000000Y-82200000D02*
X130400000Y-82200000D01*
X96550000Y-62768000D02*
X98552000Y-64770000D01*
X131850000Y-51250000D02*
X129350000Y-48750000D01*
X96500000Y-83250000D02*
X123950000Y-83250000D01*
X97500000Y-82250000D02*
X96500000Y-83250000D01*
X97500000Y-80550000D02*
X97500000Y-82250000D01*
X95900000Y-78950000D02*
X97500000Y-80550000D01*
X95150000Y-49400000D02*
X95150000Y-78950000D01*
X95950000Y-49400000D02*
X95150000Y-49400000D01*
X97500000Y-47850000D02*
X95950000Y-49400000D01*
X96500000Y-45150000D02*
X97500000Y-46150000D01*
X131250000Y-45150000D02*
X96500000Y-45150000D01*
X130750000Y-45650000D02*
X131250000Y-45150000D01*
X133250000Y-50850000D02*
X130750000Y-48350000D01*
X133250000Y-77550000D02*
X133250000Y-50850000D01*
X98100000Y-82550000D02*
X123750000Y-82550000D01*
X130750000Y-82550000D02*
X130750000Y-80050000D01*
X124050000Y-83600000D02*
X125100000Y-82550000D01*
X95900000Y-83600000D02*
X124050000Y-83600000D01*
X95900000Y-83400000D02*
X95900000Y-83600000D01*
X97150000Y-82150000D02*
X95900000Y-83400000D01*
X94800000Y-49050000D02*
X94800000Y-79300000D01*
X97150000Y-46250000D02*
X97150000Y-47750000D01*
X96050000Y-44800000D02*
X96050000Y-45150000D01*
X131100000Y-45750000D02*
X132050000Y-44800000D01*
X130050000Y-79850000D02*
X132550000Y-77350000D01*
X131100000Y-48250000D02*
X131100000Y-45750000D01*
X132900000Y-50950000D02*
X130400000Y-48450000D01*
X133600000Y-50750000D02*
X131100000Y-48250000D01*
X133600000Y-77650000D02*
X133600000Y-50750000D01*
X131100000Y-80150000D02*
X133600000Y-77650000D01*
X132100000Y-83650000D02*
X131100000Y-82650000D01*
X131550000Y-83650000D02*
X132100000Y-83650000D01*
X130800000Y-82900000D02*
X131550000Y-83650000D01*
X124150000Y-83950000D02*
X125200000Y-82900000D01*
X125100000Y-82550000D02*
X130750000Y-82550000D01*
X95750000Y-48700000D02*
X94450000Y-48700000D01*
X96800000Y-46350000D02*
X96800000Y-47650000D01*
X135350000Y-79250000D02*
X135350000Y-49250000D01*
X131450000Y-45850000D02*
X132850000Y-44450000D01*
X95611409Y-80000000D02*
X96451570Y-80840161D01*
X133950000Y-50650000D02*
X131450000Y-48150000D01*
X131450000Y-82550000D02*
X131450000Y-80250000D01*
X96451570Y-81959838D02*
X95611408Y-82800000D01*
X136050000Y-42350000D02*
X92350000Y-42350000D01*
X132150000Y-80450000D02*
X134050000Y-78550000D01*
X132900000Y-84000000D02*
X131450000Y-82550000D01*
X96451570Y-80840161D02*
X96451570Y-81959838D01*
X96451570Y-46440161D02*
X96451570Y-47559838D01*
X132850000Y-44450000D02*
X94450000Y-44450000D01*
X96800000Y-47650000D02*
X95750000Y-48700000D01*
X133850000Y-77850000D02*
X133950000Y-77850000D01*
X134650000Y-49950000D02*
X134150000Y-49950000D01*
X94100000Y-45650000D02*
X95661409Y-45650000D01*
X133650000Y-44100000D02*
X94100000Y-44100000D01*
X96050000Y-45150000D02*
X97150000Y-46250000D01*
X90600000Y-87800000D02*
X125250000Y-87800000D01*
X132500000Y-82250000D02*
X132500000Y-80550000D01*
X125300000Y-83250000D02*
X130700000Y-83250000D01*
X98900000Y-46550000D02*
X98900000Y-48300000D01*
X131800000Y-48050000D02*
X131800000Y-45950000D01*
X123950000Y-83250000D02*
X125000000Y-82200000D01*
X133200000Y-46350000D02*
X134250000Y-45300000D01*
X93050000Y-43050000D02*
X93050000Y-85350000D01*
X134300000Y-50300000D02*
X134050000Y-50300000D01*
X133950000Y-78200000D02*
X134300000Y-78200000D01*
X131800000Y-80350000D02*
X133950000Y-78200000D01*
X94450000Y-48700000D02*
X94450000Y-79650000D01*
X129900000Y-86050000D02*
X130600000Y-86750000D01*
X133700000Y-84350000D02*
X131800000Y-82450000D01*
X132900000Y-77450000D02*
X132900000Y-50950000D01*
X135700000Y-45300000D02*
X135700000Y-42700000D01*
X134250000Y-49600000D02*
X132500000Y-47850000D01*
X131350000Y-84350000D02*
X133700000Y-84350000D01*
X98550000Y-48150000D02*
X96200000Y-50500000D01*
X130800000Y-86050000D02*
X136050000Y-86050000D01*
X96800000Y-82050000D02*
X95700000Y-83150000D01*
X130600000Y-83600000D02*
X131350000Y-84350000D01*
X131800000Y-82450000D02*
X131800000Y-80350000D01*
X133950000Y-77850000D02*
X133950000Y-50650000D01*
X93750000Y-84650000D02*
X124350000Y-84650000D01*
X97150000Y-47750000D02*
X95850000Y-49050000D01*
X93750000Y-43750000D02*
X93750000Y-84650000D01*
X134650000Y-43750000D02*
X93750000Y-43750000D01*
X97300000Y-45500000D02*
X97850000Y-46050000D01*
X133950000Y-44250000D02*
X134650000Y-44250000D01*
X94450000Y-45300000D02*
X95750000Y-45300000D01*
X135700000Y-85700000D02*
X135700000Y-83350000D01*
X132150000Y-47950000D02*
X132150000Y-46050000D01*
X95661408Y-48350000D02*
X94100000Y-48350000D01*
X132150000Y-82350000D02*
X132150000Y-80450000D01*
X134100000Y-84650000D02*
X134100000Y-84300000D01*
X130500000Y-83950000D02*
X131200000Y-84650000D01*
X95850000Y-49050000D02*
X94800000Y-49050000D01*
X124450000Y-85000000D02*
X125500000Y-83950000D01*
X93400000Y-85000000D02*
X124450000Y-85000000D01*
X135000000Y-43400000D02*
X93400000Y-43400000D01*
X135000000Y-44600000D02*
X135000000Y-43400000D01*
X132500000Y-47850000D02*
X132500000Y-46150000D01*
X135000000Y-78900000D02*
X135000000Y-49600000D01*
X135000000Y-84050000D02*
X134300000Y-84050000D01*
X96100000Y-78250000D02*
X98200000Y-80350000D01*
X135000000Y-85000000D02*
X135000000Y-84050000D01*
X126400000Y-87100000D02*
X129600000Y-87100000D01*
X124850000Y-86400000D02*
X125900000Y-85350000D01*
X125800000Y-85000000D02*
X130200000Y-85000000D01*
X130400000Y-84300000D02*
X131100000Y-85000000D01*
X97850000Y-80450000D02*
X97850000Y-82350000D01*
X125600000Y-84300000D02*
X130400000Y-84300000D01*
X125250000Y-87800000D02*
X126300000Y-86750000D01*
X124550000Y-85350000D02*
X125600000Y-84300000D01*
X135350000Y-44950000D02*
X135350000Y-43050000D01*
X130750000Y-80050000D02*
X133250000Y-77550000D01*
X134150000Y-44950000D02*
X135350000Y-44950000D01*
X131450000Y-84000000D02*
X132900000Y-84000000D01*
X132850000Y-46250000D02*
X134150000Y-44950000D01*
X124800000Y-81500000D02*
X129700000Y-81500000D01*
X134650000Y-78550000D02*
X134650000Y-49950000D01*
X132850000Y-47750000D02*
X132850000Y-46250000D01*
X134350000Y-49250000D02*
X132850000Y-47750000D01*
X132850000Y-82150000D02*
X132850000Y-80650000D01*
X131100000Y-82650000D02*
X131100000Y-80150000D01*
X126100000Y-86050000D02*
X129900000Y-86050000D01*
X134400000Y-83700000D02*
X132850000Y-82150000D01*
X134050000Y-50300000D02*
X131800000Y-48050000D01*
X94450000Y-83950000D02*
X124150000Y-83950000D01*
X125347010Y-88152990D02*
X126400000Y-87100000D01*
X134300000Y-84050000D02*
X132500000Y-82250000D01*
X135350000Y-83700000D02*
X134400000Y-83700000D01*
X96200000Y-50500000D02*
X96200000Y-77900000D01*
X131000000Y-85350000D02*
X135350000Y-85350000D01*
X96550000Y-50650000D02*
X96550000Y-62768000D01*
X124250000Y-84300000D02*
X125300000Y-83250000D01*
X97500000Y-46150000D02*
X97500000Y-47850000D01*
X97150000Y-80650000D02*
X97150000Y-82150000D01*
X134150000Y-49950000D02*
X132150000Y-47950000D01*
X137100000Y-41300000D02*
X91300000Y-41300000D01*
X125700000Y-84650000D02*
X130300000Y-84650000D01*
X135700000Y-42700000D02*
X92700000Y-42700000D01*
X96451570Y-47559838D02*
X95661408Y-48350000D01*
X134250000Y-45300000D02*
X135700000Y-45300000D01*
X93400000Y-43400000D02*
X93400000Y-85000000D01*
X95500000Y-78600000D02*
X96000000Y-78600000D01*
X130300000Y-84650000D02*
X131000000Y-85350000D01*
X133200000Y-47650000D02*
X133200000Y-46350000D01*
X94100000Y-84300000D02*
X124250000Y-84300000D01*
X135350000Y-49250000D02*
X134350000Y-49250000D01*
X134450000Y-48900000D02*
X133200000Y-47650000D01*
X134050000Y-44600000D02*
X135000000Y-44600000D01*
X92000000Y-42000000D02*
X92000000Y-86400000D01*
X125900000Y-85350000D02*
X130100000Y-85350000D01*
X124900000Y-81850000D02*
X130050000Y-81850000D01*
X135700000Y-48900000D02*
X134450000Y-48900000D01*
X134350000Y-79600000D02*
X135700000Y-79600000D01*
X94450000Y-83150000D02*
X94450000Y-83950000D01*
X134500000Y-83350000D02*
X133200000Y-82050000D01*
X133200000Y-80750000D02*
X134350000Y-79600000D01*
X123850000Y-82900000D02*
X124900000Y-81850000D01*
X135700000Y-83350000D02*
X134500000Y-83350000D01*
X130200000Y-85000000D02*
X130900000Y-85700000D01*
X137800000Y-87800000D02*
X137800000Y-40600000D01*
X132850000Y-80650000D02*
X134250000Y-79250000D01*
X124750000Y-86050000D02*
X125800000Y-85000000D01*
X95700000Y-79650000D02*
X96800000Y-80750000D01*
X134650000Y-44250000D02*
X134650000Y-43750000D01*
X98200000Y-45850000D02*
X98200000Y-48050000D01*
X134538591Y-48550000D02*
X133548429Y-47559838D01*
X136050000Y-79950000D02*
X136050000Y-48550000D01*
X134438590Y-79950000D02*
X136050000Y-79950000D01*
X134588591Y-83000000D02*
X133548429Y-81959838D01*
X136050000Y-83000000D02*
X134588591Y-83000000D01*
X133200000Y-82050000D02*
X133200000Y-80750000D01*
X130300000Y-87800000D02*
X137800000Y-87800000D01*
X94100000Y-82800000D02*
X94100000Y-84300000D01*
X130400000Y-45500000D02*
X97300000Y-45500000D01*
X124350000Y-84650000D02*
X125400000Y-83600000D01*
X134150000Y-78900000D02*
X135000000Y-78900000D01*
X95150000Y-78950000D02*
X95900000Y-78950000D01*
X126300000Y-86750000D02*
X129700000Y-86750000D01*
X130900000Y-85700000D02*
X135700000Y-85700000D01*
X131100000Y-85000000D02*
X135000000Y-85000000D01*
X130100000Y-85350000D02*
X130800000Y-86050000D01*
X133548429Y-81959838D02*
X133548429Y-80840161D01*
X136750000Y-41650000D02*
X91650000Y-41650000D01*
X94450000Y-79650000D02*
X95700000Y-79650000D01*
X132150000Y-46050000D02*
X133950000Y-44250000D01*
X94100000Y-44100000D02*
X94100000Y-45650000D01*
X136400000Y-42000000D02*
X92000000Y-42000000D01*
X136050000Y-48550000D02*
X134538591Y-48550000D01*
X130500000Y-87100000D02*
X137100000Y-87100000D01*
X137100000Y-87100000D02*
X137100000Y-41300000D01*
X132500000Y-80550000D02*
X134150000Y-78900000D01*
X130700000Y-86400000D02*
X136400000Y-86400000D01*
X94800000Y-79300000D02*
X95800000Y-79300000D01*
X90600000Y-40600000D02*
X90600000Y-87800000D01*
X131800000Y-45950000D02*
X133650000Y-44100000D01*
X126000000Y-85700000D02*
X130000000Y-85700000D01*
X130700000Y-83250000D02*
X131450000Y-84000000D01*
X125050000Y-87100000D02*
X126100000Y-86050000D01*
X133548429Y-80840161D02*
X134438590Y-79950000D01*
X95800000Y-79300000D02*
X97150000Y-80650000D01*
X90247010Y-40247010D02*
X90247010Y-88152990D01*
X91650000Y-86750000D02*
X124950000Y-86750000D01*
X95750000Y-45300000D02*
X96800000Y-46350000D01*
X90247010Y-88152990D02*
X125347010Y-88152990D01*
X92000000Y-86400000D02*
X124850000Y-86400000D01*
X95850000Y-50100000D02*
X95850000Y-78250000D01*
X134300000Y-78200000D02*
X134300000Y-50300000D01*
X133548429Y-47559838D02*
X133548429Y-46440161D01*
X91300000Y-41300000D02*
X91300000Y-87100000D01*
X138152990Y-88152990D02*
X138152990Y-40247010D01*
X134050000Y-78550000D02*
X134650000Y-78550000D01*
X96800000Y-80750000D02*
X96800000Y-82050000D01*
X131200000Y-84650000D02*
X134100000Y-84650000D01*
X125500000Y-83950000D02*
X130500000Y-83950000D01*
X138152990Y-40247010D02*
X90247010Y-40247010D01*
X93050000Y-85350000D02*
X124550000Y-85350000D01*
X91650000Y-41650000D02*
X91650000Y-86750000D01*
X130600000Y-86750000D02*
X136750000Y-86750000D01*
X94100000Y-48350000D02*
X94100000Y-80000000D01*
X136750000Y-86750000D02*
X136750000Y-41650000D01*
X94450000Y-44450000D02*
X94450000Y-45300000D01*
X124650000Y-85700000D02*
X125700000Y-84650000D01*
X95611408Y-82800000D02*
X94100000Y-82800000D01*
X96000000Y-78600000D02*
X97850000Y-80450000D01*
X130750000Y-48350000D02*
X130750000Y-45650000D01*
X135350000Y-43050000D02*
X93050000Y-43050000D01*
X130000000Y-85700000D02*
X130700000Y-86400000D01*
X125150000Y-87450000D02*
X126200000Y-86400000D01*
X136050000Y-86050000D02*
X136050000Y-83000000D01*
X129350000Y-81150000D02*
X129350000Y-79650000D01*
X129800000Y-86400000D02*
X130500000Y-87100000D01*
X126200000Y-86400000D02*
X129800000Y-86400000D01*
X129700000Y-86750000D02*
X130400000Y-87450000D01*
X132050000Y-44800000D02*
X96050000Y-44800000D01*
X136400000Y-86400000D02*
X136400000Y-42000000D01*
X137450000Y-40950000D02*
X90950000Y-40950000D01*
X134250000Y-79250000D02*
X135350000Y-79250000D01*
X92350000Y-86050000D02*
X124750000Y-86050000D01*
X131850000Y-77150000D02*
X131850000Y-51250000D01*
X125400000Y-83600000D02*
X130600000Y-83600000D01*
X135350000Y-85350000D02*
X135350000Y-83700000D01*
X132500000Y-46150000D02*
X134050000Y-44600000D01*
X130400000Y-87450000D02*
X137450000Y-87450000D01*
X124950000Y-86750000D02*
X126000000Y-85700000D01*
X95661409Y-45650000D02*
X96451570Y-46440161D01*
X92700000Y-85700000D02*
X124650000Y-85700000D01*
X134100000Y-84300000D02*
X132150000Y-82350000D01*
X95700000Y-83150000D02*
X94450000Y-83150000D01*
X94100000Y-80000000D02*
X95611409Y-80000000D01*
X92350000Y-42350000D02*
X92350000Y-86050000D01*
X133548429Y-46440161D02*
X134338590Y-45650000D01*
X135000000Y-49600000D02*
X134250000Y-49600000D01*
X90950000Y-87450000D02*
X125150000Y-87450000D01*
X129350000Y-48750000D02*
X129350000Y-46550000D01*
X90950000Y-40950000D02*
X90950000Y-87450000D01*
X97850000Y-47950000D02*
X96050000Y-49750000D01*
X130400000Y-48450000D02*
X130400000Y-45500000D01*
X137450000Y-87450000D02*
X137450000Y-40950000D01*
X131450000Y-48150000D02*
X131450000Y-45850000D01*
X92700000Y-42700000D02*
X92700000Y-85700000D01*
X134338590Y-45650000D02*
X136050000Y-45650000D01*
X97300000Y-82900000D02*
X123850000Y-82900000D01*
X137800000Y-40600000D02*
X90600000Y-40600000D01*
X126619000Y-87630000D02*
X127141990Y-88152990D01*
X135700000Y-79600000D02*
X135700000Y-48900000D01*
X136050000Y-45650000D02*
X136050000Y-42350000D01*
X131450000Y-80250000D02*
X133850000Y-77850000D01*
X129600000Y-87100000D02*
X130300000Y-87800000D01*
X125200000Y-82900000D02*
X130800000Y-82900000D01*
X91300000Y-87100000D02*
X125050000Y-87100000D01*
X127141990Y-88152990D02*
X138152990Y-88152990D01*
D16*
G36*
X117824425Y-46825982D02*
X117747208Y-46877576D01*
X117681541Y-46943243D01*
X117629947Y-47020460D01*
X117602779Y-47086050D01*
X117585032Y-47068303D01*
X117507815Y-47016709D01*
X117422017Y-46981170D01*
X117330934Y-46963052D01*
X117238066Y-46963052D01*
X117146983Y-46981170D01*
X117061185Y-47016709D01*
X116983968Y-47068303D01*
X116918301Y-47133970D01*
X116866707Y-47211187D01*
X116831168Y-47296985D01*
X116813050Y-47388068D01*
X116813050Y-47480936D01*
X116831168Y-47572019D01*
X116866707Y-47657817D01*
X116918301Y-47735034D01*
X116983968Y-47800701D01*
X117061185Y-47852295D01*
X117146983Y-47887834D01*
X117238066Y-47905952D01*
X117330934Y-47905952D01*
X117422017Y-47887834D01*
X117507815Y-47852295D01*
X117585032Y-47800701D01*
X117650699Y-47735034D01*
X117702293Y-47657817D01*
X117729461Y-47592227D01*
X117747208Y-47609974D01*
X117824425Y-47661568D01*
X117910223Y-47697107D01*
X118001306Y-47715225D01*
X118094174Y-47715225D01*
X118185257Y-47697107D01*
X118271055Y-47661568D01*
X118283031Y-47653566D01*
X121128550Y-47653566D01*
X121128550Y-47746434D01*
X121146668Y-47837517D01*
X121182207Y-47923315D01*
X121233801Y-48000532D01*
X121299468Y-48066199D01*
X121376685Y-48117793D01*
X121404114Y-48129155D01*
X121383801Y-48149468D01*
X121332207Y-48226685D01*
X121296668Y-48312483D01*
X121278550Y-48403566D01*
X121278550Y-48496434D01*
X121296668Y-48587517D01*
X121332207Y-48673315D01*
X121383801Y-48750532D01*
X121449468Y-48816199D01*
X121526685Y-48867793D01*
X121612483Y-48903332D01*
X121703566Y-48921450D01*
X121796434Y-48921450D01*
X121887517Y-48903332D01*
X121973315Y-48867793D01*
X122050532Y-48816199D01*
X122116199Y-48750532D01*
X122167793Y-48673315D01*
X122203332Y-48587517D01*
X122221450Y-48496434D01*
X122221450Y-48403566D01*
X122203332Y-48312483D01*
X122167793Y-48226685D01*
X122116199Y-48149468D01*
X122050532Y-48083801D01*
X121973315Y-48032207D01*
X121945886Y-48020845D01*
X121966199Y-48000532D01*
X122017793Y-47923315D01*
X122053332Y-47837517D01*
X122071450Y-47746434D01*
X122071450Y-47653566D01*
X122053332Y-47562483D01*
X122017793Y-47476685D01*
X121966199Y-47399468D01*
X121900532Y-47333801D01*
X121823315Y-47282207D01*
X121737517Y-47246668D01*
X121646434Y-47228550D01*
X121553566Y-47228550D01*
X121462483Y-47246668D01*
X121376685Y-47282207D01*
X121299468Y-47333801D01*
X121233801Y-47399468D01*
X121182207Y-47476685D01*
X121146668Y-47562483D01*
X121128550Y-47653566D01*
X118283031Y-47653566D01*
X118348272Y-47609974D01*
X118413939Y-47544307D01*
X118465533Y-47467090D01*
X118501072Y-47381292D01*
X118519190Y-47290209D01*
X118519190Y-47197341D01*
X118501072Y-47106258D01*
X118465533Y-47020460D01*
X118413939Y-46943243D01*
X118348272Y-46877576D01*
X118271055Y-46825982D01*
X118248043Y-46816450D01*
X126425436Y-46816450D01*
X126399468Y-46833801D01*
X126333801Y-46899468D01*
X126282207Y-46976685D01*
X126246668Y-47062483D01*
X126228550Y-47153566D01*
X126228550Y-47246434D01*
X126246668Y-47337517D01*
X126282207Y-47423315D01*
X126333801Y-47500532D01*
X126399468Y-47566199D01*
X126476685Y-47617793D01*
X126562483Y-47653332D01*
X126653566Y-47671450D01*
X126746434Y-47671450D01*
X126837517Y-47653332D01*
X126923315Y-47617793D01*
X127000532Y-47566199D01*
X127066199Y-47500532D01*
X127117793Y-47423315D01*
X127153332Y-47337517D01*
X127171450Y-47246434D01*
X127171450Y-47153566D01*
X127153332Y-47062483D01*
X127117793Y-46976685D01*
X127066199Y-46899468D01*
X127000532Y-46833801D01*
X126974564Y-46816450D01*
X127322454Y-46816450D01*
X127282207Y-46876685D01*
X127246668Y-46962483D01*
X127228550Y-47053566D01*
X127228550Y-47146434D01*
X127246668Y-47237517D01*
X127282207Y-47323315D01*
X127333801Y-47400532D01*
X127399468Y-47466199D01*
X127476685Y-47517793D01*
X127562483Y-47553332D01*
X127653566Y-47571450D01*
X127746434Y-47571450D01*
X127837517Y-47553332D01*
X127923315Y-47517793D01*
X128000532Y-47466199D01*
X128066199Y-47400532D01*
X128117793Y-47323315D01*
X128153332Y-47237517D01*
X128171450Y-47146434D01*
X128171450Y-47053566D01*
X128153332Y-46962483D01*
X128117793Y-46876685D01*
X128077546Y-46816450D01*
X128670050Y-46816450D01*
X128670050Y-51736972D01*
X121517566Y-60725050D01*
X98088450Y-60725050D01*
X98088450Y-59167429D01*
X119493354Y-59167429D01*
X119550062Y-59257967D01*
X119670482Y-59312675D01*
X119799260Y-59342839D01*
X119931450Y-59347299D01*
X120061969Y-59325885D01*
X120185803Y-59279420D01*
X120225938Y-59257967D01*
X120282646Y-59167429D01*
X119888000Y-58772783D01*
X119493354Y-59167429D01*
X98088450Y-59167429D01*
X98088450Y-58627566D01*
X102462050Y-58627566D01*
X102462050Y-58720434D01*
X102480168Y-58811517D01*
X102515707Y-58897315D01*
X102567301Y-58974532D01*
X102632968Y-59040199D01*
X102710185Y-59091793D01*
X102795983Y-59127332D01*
X102887066Y-59145450D01*
X102979934Y-59145450D01*
X103071017Y-59127332D01*
X103156815Y-59091793D01*
X103234032Y-59040199D01*
X103299699Y-58974532D01*
X103351293Y-58897315D01*
X103386832Y-58811517D01*
X103404950Y-58720434D01*
X103404950Y-58717450D01*
X119214701Y-58717450D01*
X119236115Y-58847969D01*
X119282580Y-58971803D01*
X119304033Y-59011938D01*
X119394571Y-59068646D01*
X119789217Y-58674000D01*
X119986783Y-58674000D01*
X120381429Y-59068646D01*
X120471967Y-59011938D01*
X120526675Y-58891518D01*
X120556839Y-58762740D01*
X120561299Y-58630550D01*
X120539885Y-58500031D01*
X120493420Y-58376197D01*
X120471967Y-58336062D01*
X120381429Y-58279354D01*
X119986783Y-58674000D01*
X119789217Y-58674000D01*
X119394571Y-58279354D01*
X119304033Y-58336062D01*
X119249325Y-58456482D01*
X119219161Y-58585260D01*
X119214701Y-58717450D01*
X103404950Y-58717450D01*
X103404950Y-58627566D01*
X103386832Y-58536483D01*
X103351293Y-58450685D01*
X103299699Y-58373468D01*
X103234032Y-58307801D01*
X103156815Y-58256207D01*
X103071017Y-58220668D01*
X102979934Y-58202550D01*
X102887066Y-58202550D01*
X102795983Y-58220668D01*
X102710185Y-58256207D01*
X102632968Y-58307801D01*
X102567301Y-58373468D01*
X102515707Y-58450685D01*
X102480168Y-58536483D01*
X102462050Y-58627566D01*
X98088450Y-58627566D01*
X98088450Y-58180571D01*
X119493354Y-58180571D01*
X119888000Y-58575217D01*
X120282646Y-58180571D01*
X120225938Y-58090033D01*
X120105518Y-58035325D01*
X119976740Y-58005161D01*
X119844550Y-58000701D01*
X119714031Y-58022115D01*
X119590197Y-58068580D01*
X119550062Y-58090033D01*
X119493354Y-58180571D01*
X98088450Y-58180571D01*
X98088450Y-55646602D01*
X98135722Y-55693874D01*
X98229317Y-55756412D01*
X98333314Y-55799489D01*
X98443717Y-55821450D01*
X98556283Y-55821450D01*
X98666686Y-55799489D01*
X98770683Y-55756412D01*
X98864278Y-55693874D01*
X98943874Y-55614278D01*
X99006412Y-55520683D01*
X99049489Y-55416686D01*
X99071450Y-55306283D01*
X99071450Y-55193717D01*
X99049489Y-55083314D01*
X99006412Y-54979317D01*
X98943874Y-54885722D01*
X98864278Y-54806126D01*
X98770683Y-54743588D01*
X98666686Y-54700511D01*
X98556283Y-54678550D01*
X98443717Y-54678550D01*
X98333314Y-54700511D01*
X98229317Y-54743588D01*
X98135722Y-54806126D01*
X98088450Y-54853398D01*
X98088450Y-53892222D01*
X106442210Y-53892222D01*
X106442210Y-53985090D01*
X106460328Y-54076173D01*
X106495867Y-54161971D01*
X106547461Y-54239188D01*
X106613128Y-54304855D01*
X106690345Y-54356449D01*
X106776143Y-54391988D01*
X106867226Y-54410106D01*
X106960094Y-54410106D01*
X107051177Y-54391988D01*
X107136975Y-54356449D01*
X107214192Y-54304855D01*
X107279859Y-54239188D01*
X107331453Y-54161971D01*
X107366992Y-54076173D01*
X107385110Y-53985090D01*
X107385110Y-53892222D01*
X107366992Y-53801139D01*
X107331453Y-53715341D01*
X107279859Y-53638124D01*
X107214192Y-53572457D01*
X107136975Y-53520863D01*
X107051177Y-53485324D01*
X106960094Y-53467206D01*
X106867226Y-53467206D01*
X106776143Y-53485324D01*
X106690345Y-53520863D01*
X106613128Y-53572457D01*
X106547461Y-53638124D01*
X106495867Y-53715341D01*
X106460328Y-53801139D01*
X106442210Y-53892222D01*
X98088450Y-53892222D01*
X98088450Y-53803279D01*
X98547411Y-53357066D01*
X116876550Y-53357066D01*
X116876550Y-53449934D01*
X116894668Y-53541017D01*
X116930207Y-53626815D01*
X116981801Y-53704032D01*
X117047468Y-53769699D01*
X117124685Y-53821293D01*
X117210483Y-53856832D01*
X117301566Y-53874950D01*
X117394434Y-53874950D01*
X117485517Y-53856832D01*
X117571315Y-53821293D01*
X117648532Y-53769699D01*
X117714199Y-53704032D01*
X117765793Y-53626815D01*
X117801332Y-53541017D01*
X117819450Y-53449934D01*
X117819450Y-53357066D01*
X117801332Y-53265983D01*
X117788348Y-53234637D01*
X119386550Y-53234637D01*
X119386550Y-53347203D01*
X119408511Y-53457606D01*
X119451588Y-53561603D01*
X119514126Y-53655198D01*
X119593722Y-53734794D01*
X119687317Y-53797332D01*
X119791314Y-53840409D01*
X119901717Y-53862370D01*
X120014283Y-53862370D01*
X120124686Y-53840409D01*
X120228683Y-53797332D01*
X120322278Y-53734794D01*
X120401874Y-53655198D01*
X120464412Y-53561603D01*
X120507489Y-53457606D01*
X120529450Y-53347203D01*
X120529450Y-53234637D01*
X120507489Y-53124234D01*
X120464412Y-53020237D01*
X120401874Y-52926642D01*
X120322278Y-52847046D01*
X120228683Y-52784508D01*
X120124686Y-52741431D01*
X120014283Y-52719470D01*
X119901717Y-52719470D01*
X119791314Y-52741431D01*
X119687317Y-52784508D01*
X119593722Y-52847046D01*
X119514126Y-52926642D01*
X119451588Y-53020237D01*
X119408511Y-53124234D01*
X119386550Y-53234637D01*
X117788348Y-53234637D01*
X117765793Y-53180185D01*
X117714199Y-53102968D01*
X117648532Y-53037301D01*
X117571315Y-52985707D01*
X117485517Y-52950168D01*
X117394434Y-52932050D01*
X117301566Y-52932050D01*
X117210483Y-52950168D01*
X117124685Y-52985707D01*
X117047468Y-53037301D01*
X116981801Y-53102968D01*
X116930207Y-53180185D01*
X116894668Y-53265983D01*
X116876550Y-53357066D01*
X98547411Y-53357066D01*
X100360985Y-51593870D01*
X100366607Y-51587213D01*
X100370823Y-51579587D01*
X100373469Y-51571285D01*
X100374450Y-51562000D01*
X100374450Y-51098222D01*
X103672706Y-51098222D01*
X103672706Y-51191090D01*
X103690824Y-51282173D01*
X103726363Y-51367971D01*
X103777957Y-51445188D01*
X103843624Y-51510855D01*
X103920841Y-51562449D01*
X104006639Y-51597988D01*
X104097722Y-51616106D01*
X104190590Y-51616106D01*
X104281673Y-51597988D01*
X104367471Y-51562449D01*
X104444688Y-51510855D01*
X104510355Y-51445188D01*
X104561949Y-51367971D01*
X104597488Y-51282173D01*
X104615606Y-51191090D01*
X104615606Y-51098222D01*
X104597488Y-51007139D01*
X104561949Y-50921341D01*
X104510355Y-50844124D01*
X104444688Y-50778457D01*
X104407436Y-50753566D01*
X111161550Y-50753566D01*
X111161550Y-50846434D01*
X111179668Y-50937517D01*
X111215207Y-51023315D01*
X111266801Y-51100532D01*
X111332468Y-51166199D01*
X111409685Y-51217793D01*
X111495483Y-51253332D01*
X111586566Y-51271450D01*
X111679434Y-51271450D01*
X111770517Y-51253332D01*
X111856315Y-51217793D01*
X111933532Y-51166199D01*
X111999199Y-51100532D01*
X112050793Y-51023315D01*
X112086332Y-50937517D01*
X112104450Y-50846434D01*
X112104450Y-50753566D01*
X112086332Y-50662483D01*
X112050793Y-50576685D01*
X111999199Y-50499468D01*
X111933532Y-50433801D01*
X111856315Y-50382207D01*
X111770517Y-50346668D01*
X111679434Y-50328550D01*
X111586566Y-50328550D01*
X111495483Y-50346668D01*
X111409685Y-50382207D01*
X111332468Y-50433801D01*
X111266801Y-50499468D01*
X111215207Y-50576685D01*
X111179668Y-50662483D01*
X111161550Y-50753566D01*
X104407436Y-50753566D01*
X104367471Y-50726863D01*
X104281673Y-50691324D01*
X104190590Y-50673206D01*
X104097722Y-50673206D01*
X104006639Y-50691324D01*
X103920841Y-50726863D01*
X103843624Y-50778457D01*
X103777957Y-50844124D01*
X103726363Y-50921341D01*
X103690824Y-51007139D01*
X103672706Y-51098222D01*
X100374450Y-51098222D01*
X100374450Y-49703566D01*
X114478550Y-49703566D01*
X114478550Y-49796434D01*
X114496668Y-49887517D01*
X114532207Y-49973315D01*
X114583801Y-50050532D01*
X114649468Y-50116199D01*
X114726685Y-50167793D01*
X114801733Y-50198879D01*
X114749468Y-50233801D01*
X114683801Y-50299468D01*
X114632207Y-50376685D01*
X114596668Y-50462483D01*
X114578550Y-50553566D01*
X114578550Y-50646434D01*
X114596668Y-50737517D01*
X114632207Y-50823315D01*
X114683801Y-50900532D01*
X114749468Y-50966199D01*
X114826685Y-51017793D01*
X114912483Y-51053332D01*
X115003566Y-51071450D01*
X115096434Y-51071450D01*
X115187517Y-51053332D01*
X115273315Y-51017793D01*
X115350532Y-50966199D01*
X115416199Y-50900532D01*
X115467793Y-50823315D01*
X115496684Y-50753566D01*
X123678550Y-50753566D01*
X123678550Y-50846434D01*
X123696668Y-50937517D01*
X123732207Y-51023315D01*
X123783801Y-51100532D01*
X123849468Y-51166199D01*
X123926685Y-51217793D01*
X124012483Y-51253332D01*
X124103566Y-51271450D01*
X124196434Y-51271450D01*
X124287517Y-51253332D01*
X124373315Y-51217793D01*
X124450532Y-51166199D01*
X124516199Y-51100532D01*
X124567793Y-51023315D01*
X124603332Y-50937517D01*
X124621450Y-50846434D01*
X124621450Y-50753566D01*
X124603332Y-50662483D01*
X124567793Y-50576685D01*
X124516199Y-50499468D01*
X124450532Y-50433801D01*
X124373315Y-50382207D01*
X124287517Y-50346668D01*
X124196434Y-50328550D01*
X124103566Y-50328550D01*
X124012483Y-50346668D01*
X123926685Y-50382207D01*
X123849468Y-50433801D01*
X123783801Y-50499468D01*
X123732207Y-50576685D01*
X123696668Y-50662483D01*
X123678550Y-50753566D01*
X115496684Y-50753566D01*
X115503332Y-50737517D01*
X115521450Y-50646434D01*
X115521450Y-50553566D01*
X115503332Y-50462483D01*
X115467793Y-50376685D01*
X115416199Y-50299468D01*
X115350532Y-50233801D01*
X115273315Y-50182207D01*
X115198267Y-50151121D01*
X115250532Y-50116199D01*
X115316199Y-50050532D01*
X115367793Y-49973315D01*
X115403332Y-49887517D01*
X115421450Y-49796434D01*
X115421450Y-49703566D01*
X115403332Y-49612483D01*
X115367793Y-49526685D01*
X115316199Y-49449468D01*
X115250532Y-49383801D01*
X115173315Y-49332207D01*
X115087517Y-49296668D01*
X114996434Y-49278550D01*
X114903566Y-49278550D01*
X114812483Y-49296668D01*
X114726685Y-49332207D01*
X114649468Y-49383801D01*
X114583801Y-49449468D01*
X114532207Y-49526685D01*
X114496668Y-49612483D01*
X114478550Y-49703566D01*
X100374450Y-49703566D01*
X100374450Y-49102566D01*
X104684550Y-49102566D01*
X104684550Y-49195434D01*
X104702668Y-49286517D01*
X104738207Y-49372315D01*
X104789801Y-49449532D01*
X104855468Y-49515199D01*
X104932685Y-49566793D01*
X105018483Y-49602332D01*
X105109566Y-49620450D01*
X105202434Y-49620450D01*
X105293517Y-49602332D01*
X105379315Y-49566793D01*
X105456532Y-49515199D01*
X105522199Y-49449532D01*
X105573793Y-49372315D01*
X105609332Y-49286517D01*
X105627450Y-49195434D01*
X105627450Y-49102566D01*
X105609332Y-49011483D01*
X105573793Y-48925685D01*
X105522199Y-48848468D01*
X105456532Y-48782801D01*
X105379315Y-48731207D01*
X105293517Y-48695668D01*
X105202434Y-48677550D01*
X105109566Y-48677550D01*
X105018483Y-48695668D01*
X104932685Y-48731207D01*
X104855468Y-48782801D01*
X104789801Y-48848468D01*
X104738207Y-48925685D01*
X104702668Y-49011483D01*
X104684550Y-49102566D01*
X100374450Y-49102566D01*
X100374450Y-48687578D01*
X100412483Y-48703332D01*
X100503566Y-48721450D01*
X100596434Y-48721450D01*
X100687517Y-48703332D01*
X100773315Y-48667793D01*
X100850532Y-48616199D01*
X100916199Y-48550532D01*
X100967793Y-48473315D01*
X101003332Y-48387517D01*
X101021450Y-48296434D01*
X101021450Y-48213566D01*
X106399050Y-48213566D01*
X106399050Y-48306434D01*
X106417168Y-48397517D01*
X106452707Y-48483315D01*
X106504301Y-48560532D01*
X106569968Y-48626199D01*
X106647185Y-48677793D01*
X106732983Y-48713332D01*
X106824066Y-48731450D01*
X106916934Y-48731450D01*
X107008017Y-48713332D01*
X107093815Y-48677793D01*
X107171032Y-48626199D01*
X107189975Y-48607256D01*
X108761222Y-48607256D01*
X108761222Y-48700124D01*
X108779340Y-48791207D01*
X108814879Y-48877005D01*
X108866473Y-48954222D01*
X108932140Y-49019889D01*
X109009357Y-49071483D01*
X109095155Y-49107022D01*
X109186238Y-49125140D01*
X109279106Y-49125140D01*
X109370189Y-49107022D01*
X109455987Y-49071483D01*
X109533204Y-49019889D01*
X109598871Y-48954222D01*
X109650465Y-48877005D01*
X109686004Y-48791207D01*
X109704122Y-48700124D01*
X109704122Y-48607256D01*
X109703546Y-48604357D01*
X117066160Y-48604357D01*
X117066160Y-48697225D01*
X117084278Y-48788308D01*
X117119817Y-48874106D01*
X117171411Y-48951323D01*
X117237078Y-49016990D01*
X117314295Y-49068584D01*
X117400093Y-49104123D01*
X117491176Y-49122241D01*
X117584044Y-49122241D01*
X117675127Y-49104123D01*
X117760925Y-49068584D01*
X117783401Y-49053566D01*
X121978550Y-49053566D01*
X121978550Y-49146434D01*
X121996668Y-49237517D01*
X122032207Y-49323315D01*
X122083801Y-49400532D01*
X122149468Y-49466199D01*
X122226685Y-49517793D01*
X122312483Y-49553332D01*
X122403566Y-49571450D01*
X122496434Y-49571450D01*
X122587517Y-49553332D01*
X122673315Y-49517793D01*
X122750532Y-49466199D01*
X122816199Y-49400532D01*
X122867793Y-49323315D01*
X122903332Y-49237517D01*
X122921450Y-49146434D01*
X122921450Y-49053566D01*
X125478550Y-49053566D01*
X125478550Y-49146434D01*
X125496668Y-49237517D01*
X125532207Y-49323315D01*
X125583801Y-49400532D01*
X125649468Y-49466199D01*
X125726685Y-49517793D01*
X125812483Y-49553332D01*
X125903566Y-49571450D01*
X125996434Y-49571450D01*
X126087517Y-49553332D01*
X126173315Y-49517793D01*
X126250532Y-49466199D01*
X126316199Y-49400532D01*
X126367793Y-49323315D01*
X126403332Y-49237517D01*
X126421450Y-49146434D01*
X126421450Y-49053566D01*
X126403332Y-48962483D01*
X126367793Y-48876685D01*
X126316199Y-48799468D01*
X126250532Y-48733801D01*
X126173315Y-48682207D01*
X126087517Y-48646668D01*
X125996434Y-48628550D01*
X125903566Y-48628550D01*
X125812483Y-48646668D01*
X125726685Y-48682207D01*
X125649468Y-48733801D01*
X125583801Y-48799468D01*
X125532207Y-48876685D01*
X125496668Y-48962483D01*
X125478550Y-49053566D01*
X122921450Y-49053566D01*
X122903332Y-48962483D01*
X122867793Y-48876685D01*
X122816199Y-48799468D01*
X122750532Y-48733801D01*
X122673315Y-48682207D01*
X122587517Y-48646668D01*
X122496434Y-48628550D01*
X122403566Y-48628550D01*
X122312483Y-48646668D01*
X122226685Y-48682207D01*
X122149468Y-48733801D01*
X122083801Y-48799468D01*
X122032207Y-48876685D01*
X121996668Y-48962483D01*
X121978550Y-49053566D01*
X117783401Y-49053566D01*
X117838142Y-49016990D01*
X117903809Y-48951323D01*
X117955403Y-48874106D01*
X117990942Y-48788308D01*
X118009060Y-48697225D01*
X118009060Y-48604357D01*
X117990942Y-48513274D01*
X117955403Y-48427476D01*
X117903809Y-48350259D01*
X117838142Y-48284592D01*
X117760925Y-48232998D01*
X117675127Y-48197459D01*
X117584044Y-48179341D01*
X117491176Y-48179341D01*
X117400093Y-48197459D01*
X117314295Y-48232998D01*
X117237078Y-48284592D01*
X117171411Y-48350259D01*
X117119817Y-48427476D01*
X117084278Y-48513274D01*
X117066160Y-48604357D01*
X109703546Y-48604357D01*
X109686004Y-48516173D01*
X109650465Y-48430375D01*
X109598871Y-48353158D01*
X109533204Y-48287491D01*
X109455987Y-48235897D01*
X109370189Y-48200358D01*
X109279106Y-48182240D01*
X109186238Y-48182240D01*
X109095155Y-48200358D01*
X109009357Y-48235897D01*
X108932140Y-48287491D01*
X108866473Y-48353158D01*
X108814879Y-48430375D01*
X108779340Y-48516173D01*
X108761222Y-48607256D01*
X107189975Y-48607256D01*
X107236699Y-48560532D01*
X107288293Y-48483315D01*
X107323832Y-48397517D01*
X107341950Y-48306434D01*
X107341950Y-48213566D01*
X107323832Y-48122483D01*
X107288293Y-48036685D01*
X107236699Y-47959468D01*
X107171032Y-47893801D01*
X107093815Y-47842207D01*
X107070540Y-47832566D01*
X113066550Y-47832566D01*
X113066550Y-47925434D01*
X113084668Y-48016517D01*
X113120207Y-48102315D01*
X113171801Y-48179532D01*
X113237468Y-48245199D01*
X113314685Y-48296793D01*
X113400483Y-48332332D01*
X113491566Y-48350450D01*
X113584434Y-48350450D01*
X113675517Y-48332332D01*
X113761315Y-48296793D01*
X113838532Y-48245199D01*
X113904199Y-48179532D01*
X113955793Y-48102315D01*
X113991332Y-48016517D01*
X114009450Y-47925434D01*
X114009450Y-47832566D01*
X113991332Y-47741483D01*
X113955793Y-47655685D01*
X113904199Y-47578468D01*
X113838532Y-47512801D01*
X113761315Y-47461207D01*
X113675517Y-47425668D01*
X113584434Y-47407550D01*
X113491566Y-47407550D01*
X113400483Y-47425668D01*
X113314685Y-47461207D01*
X113237468Y-47512801D01*
X113171801Y-47578468D01*
X113120207Y-47655685D01*
X113084668Y-47741483D01*
X113066550Y-47832566D01*
X107070540Y-47832566D01*
X107008017Y-47806668D01*
X106916934Y-47788550D01*
X106824066Y-47788550D01*
X106732983Y-47806668D01*
X106647185Y-47842207D01*
X106569968Y-47893801D01*
X106504301Y-47959468D01*
X106452707Y-48036685D01*
X106417168Y-48122483D01*
X106399050Y-48213566D01*
X101021450Y-48213566D01*
X101021450Y-48203566D01*
X101003332Y-48112483D01*
X100967793Y-48026685D01*
X100916199Y-47949468D01*
X100850532Y-47883801D01*
X100773315Y-47832207D01*
X100687517Y-47796668D01*
X100596434Y-47778550D01*
X100503566Y-47778550D01*
X100412483Y-47796668D01*
X100374450Y-47812422D01*
X100374450Y-46816450D01*
X117847437Y-46816450D01*
X117824425Y-46825982D01*
X117824425Y-46825982D01*
G37*
X117824425Y-46825982D02*
X117747208Y-46877576D01*
X117681541Y-46943243D01*
X117629947Y-47020460D01*
X117602779Y-47086050D01*
X117585032Y-47068303D01*
X117507815Y-47016709D01*
X117422017Y-46981170D01*
X117330934Y-46963052D01*
X117238066Y-46963052D01*
X117146983Y-46981170D01*
X117061185Y-47016709D01*
X116983968Y-47068303D01*
X116918301Y-47133970D01*
X116866707Y-47211187D01*
X116831168Y-47296985D01*
X116813050Y-47388068D01*
X116813050Y-47480936D01*
X116831168Y-47572019D01*
X116866707Y-47657817D01*
X116918301Y-47735034D01*
X116983968Y-47800701D01*
X117061185Y-47852295D01*
X117146983Y-47887834D01*
X117238066Y-47905952D01*
X117330934Y-47905952D01*
X117422017Y-47887834D01*
X117507815Y-47852295D01*
X117585032Y-47800701D01*
X117650699Y-47735034D01*
X117702293Y-47657817D01*
X117729461Y-47592227D01*
X117747208Y-47609974D01*
X117824425Y-47661568D01*
X117910223Y-47697107D01*
X118001306Y-47715225D01*
X118094174Y-47715225D01*
X118185257Y-47697107D01*
X118271055Y-47661568D01*
X118283031Y-47653566D01*
X121128550Y-47653566D01*
X121128550Y-47746434D01*
X121146668Y-47837517D01*
X121182207Y-47923315D01*
X121233801Y-48000532D01*
X121299468Y-48066199D01*
X121376685Y-48117793D01*
X121404114Y-48129155D01*
X121383801Y-48149468D01*
X121332207Y-48226685D01*
X121296668Y-48312483D01*
X121278550Y-48403566D01*
X121278550Y-48496434D01*
X121296668Y-48587517D01*
X121332207Y-48673315D01*
X121383801Y-48750532D01*
X121449468Y-48816199D01*
X121526685Y-48867793D01*
X121612483Y-48903332D01*
X121703566Y-48921450D01*
X121796434Y-48921450D01*
X121887517Y-48903332D01*
X121973315Y-48867793D01*
X122050532Y-48816199D01*
X122116199Y-48750532D01*
X122167793Y-48673315D01*
X122203332Y-48587517D01*
X122221450Y-48496434D01*
X122221450Y-48403566D01*
X122203332Y-48312483D01*
X122167793Y-48226685D01*
X122116199Y-48149468D01*
X122050532Y-48083801D01*
X121973315Y-48032207D01*
X121945886Y-48020845D01*
X121966199Y-48000532D01*
X122017793Y-47923315D01*
X122053332Y-47837517D01*
X122071450Y-47746434D01*
X122071450Y-47653566D01*
X122053332Y-47562483D01*
X122017793Y-47476685D01*
X121966199Y-47399468D01*
X121900532Y-47333801D01*
X121823315Y-47282207D01*
X121737517Y-47246668D01*
X121646434Y-47228550D01*
X121553566Y-47228550D01*
X121462483Y-47246668D01*
X121376685Y-47282207D01*
X121299468Y-47333801D01*
X121233801Y-47399468D01*
X121182207Y-47476685D01*
X121146668Y-47562483D01*
X121128550Y-47653566D01*
X118283031Y-47653566D01*
X118348272Y-47609974D01*
X118413939Y-47544307D01*
X118465533Y-47467090D01*
X118501072Y-47381292D01*
X118519190Y-47290209D01*
X118519190Y-47197341D01*
X118501072Y-47106258D01*
X118465533Y-47020460D01*
X118413939Y-46943243D01*
X118348272Y-46877576D01*
X118271055Y-46825982D01*
X118248043Y-46816450D01*
X126425436Y-46816450D01*
X126399468Y-46833801D01*
X126333801Y-46899468D01*
X126282207Y-46976685D01*
X126246668Y-47062483D01*
X126228550Y-47153566D01*
X126228550Y-47246434D01*
X126246668Y-47337517D01*
X126282207Y-47423315D01*
X126333801Y-47500532D01*
X126399468Y-47566199D01*
X126476685Y-47617793D01*
X126562483Y-47653332D01*
X126653566Y-47671450D01*
X126746434Y-47671450D01*
X126837517Y-47653332D01*
X126923315Y-47617793D01*
X127000532Y-47566199D01*
X127066199Y-47500532D01*
X127117793Y-47423315D01*
X127153332Y-47337517D01*
X127171450Y-47246434D01*
X127171450Y-47153566D01*
X127153332Y-47062483D01*
X127117793Y-46976685D01*
X127066199Y-46899468D01*
X127000532Y-46833801D01*
X126974564Y-46816450D01*
X127322454Y-46816450D01*
X127282207Y-46876685D01*
X127246668Y-46962483D01*
X127228550Y-47053566D01*
X127228550Y-47146434D01*
X127246668Y-47237517D01*
X127282207Y-47323315D01*
X127333801Y-47400532D01*
X127399468Y-47466199D01*
X127476685Y-47517793D01*
X127562483Y-47553332D01*
X127653566Y-47571450D01*
X127746434Y-47571450D01*
X127837517Y-47553332D01*
X127923315Y-47517793D01*
X128000532Y-47466199D01*
X128066199Y-47400532D01*
X128117793Y-47323315D01*
X128153332Y-47237517D01*
X128171450Y-47146434D01*
X128171450Y-47053566D01*
X128153332Y-46962483D01*
X128117793Y-46876685D01*
X128077546Y-46816450D01*
X128670050Y-46816450D01*
X128670050Y-51736972D01*
X121517566Y-60725050D01*
X98088450Y-60725050D01*
X98088450Y-59167429D01*
X119493354Y-59167429D01*
X119550062Y-59257967D01*
X119670482Y-59312675D01*
X119799260Y-59342839D01*
X119931450Y-59347299D01*
X120061969Y-59325885D01*
X120185803Y-59279420D01*
X120225938Y-59257967D01*
X120282646Y-59167429D01*
X119888000Y-58772783D01*
X119493354Y-59167429D01*
X98088450Y-59167429D01*
X98088450Y-58627566D01*
X102462050Y-58627566D01*
X102462050Y-58720434D01*
X102480168Y-58811517D01*
X102515707Y-58897315D01*
X102567301Y-58974532D01*
X102632968Y-59040199D01*
X102710185Y-59091793D01*
X102795983Y-59127332D01*
X102887066Y-59145450D01*
X102979934Y-59145450D01*
X103071017Y-59127332D01*
X103156815Y-59091793D01*
X103234032Y-59040199D01*
X103299699Y-58974532D01*
X103351293Y-58897315D01*
X103386832Y-58811517D01*
X103404950Y-58720434D01*
X103404950Y-58717450D01*
X119214701Y-58717450D01*
X119236115Y-58847969D01*
X119282580Y-58971803D01*
X119304033Y-59011938D01*
X119394571Y-59068646D01*
X119789217Y-58674000D01*
X119986783Y-58674000D01*
X120381429Y-59068646D01*
X120471967Y-59011938D01*
X120526675Y-58891518D01*
X120556839Y-58762740D01*
X120561299Y-58630550D01*
X120539885Y-58500031D01*
X120493420Y-58376197D01*
X120471967Y-58336062D01*
X120381429Y-58279354D01*
X119986783Y-58674000D01*
X119789217Y-58674000D01*
X119394571Y-58279354D01*
X119304033Y-58336062D01*
X119249325Y-58456482D01*
X119219161Y-58585260D01*
X119214701Y-58717450D01*
X103404950Y-58717450D01*
X103404950Y-58627566D01*
X103386832Y-58536483D01*
X103351293Y-58450685D01*
X103299699Y-58373468D01*
X103234032Y-58307801D01*
X103156815Y-58256207D01*
X103071017Y-58220668D01*
X102979934Y-58202550D01*
X102887066Y-58202550D01*
X102795983Y-58220668D01*
X102710185Y-58256207D01*
X102632968Y-58307801D01*
X102567301Y-58373468D01*
X102515707Y-58450685D01*
X102480168Y-58536483D01*
X102462050Y-58627566D01*
X98088450Y-58627566D01*
X98088450Y-58180571D01*
X119493354Y-58180571D01*
X119888000Y-58575217D01*
X120282646Y-58180571D01*
X120225938Y-58090033D01*
X120105518Y-58035325D01*
X119976740Y-58005161D01*
X119844550Y-58000701D01*
X119714031Y-58022115D01*
X119590197Y-58068580D01*
X119550062Y-58090033D01*
X119493354Y-58180571D01*
X98088450Y-58180571D01*
X98088450Y-55646602D01*
X98135722Y-55693874D01*
X98229317Y-55756412D01*
X98333314Y-55799489D01*
X98443717Y-55821450D01*
X98556283Y-55821450D01*
X98666686Y-55799489D01*
X98770683Y-55756412D01*
X98864278Y-55693874D01*
X98943874Y-55614278D01*
X99006412Y-55520683D01*
X99049489Y-55416686D01*
X99071450Y-55306283D01*
X99071450Y-55193717D01*
X99049489Y-55083314D01*
X99006412Y-54979317D01*
X98943874Y-54885722D01*
X98864278Y-54806126D01*
X98770683Y-54743588D01*
X98666686Y-54700511D01*
X98556283Y-54678550D01*
X98443717Y-54678550D01*
X98333314Y-54700511D01*
X98229317Y-54743588D01*
X98135722Y-54806126D01*
X98088450Y-54853398D01*
X98088450Y-53892222D01*
X106442210Y-53892222D01*
X106442210Y-53985090D01*
X106460328Y-54076173D01*
X106495867Y-54161971D01*
X106547461Y-54239188D01*
X106613128Y-54304855D01*
X106690345Y-54356449D01*
X106776143Y-54391988D01*
X106867226Y-54410106D01*
X106960094Y-54410106D01*
X107051177Y-54391988D01*
X107136975Y-54356449D01*
X107214192Y-54304855D01*
X107279859Y-54239188D01*
X107331453Y-54161971D01*
X107366992Y-54076173D01*
X107385110Y-53985090D01*
X107385110Y-53892222D01*
X107366992Y-53801139D01*
X107331453Y-53715341D01*
X107279859Y-53638124D01*
X107214192Y-53572457D01*
X107136975Y-53520863D01*
X107051177Y-53485324D01*
X106960094Y-53467206D01*
X106867226Y-53467206D01*
X106776143Y-53485324D01*
X106690345Y-53520863D01*
X106613128Y-53572457D01*
X106547461Y-53638124D01*
X106495867Y-53715341D01*
X106460328Y-53801139D01*
X106442210Y-53892222D01*
X98088450Y-53892222D01*
X98088450Y-53803279D01*
X98547411Y-53357066D01*
X116876550Y-53357066D01*
X116876550Y-53449934D01*
X116894668Y-53541017D01*
X116930207Y-53626815D01*
X116981801Y-53704032D01*
X117047468Y-53769699D01*
X117124685Y-53821293D01*
X117210483Y-53856832D01*
X117301566Y-53874950D01*
X117394434Y-53874950D01*
X117485517Y-53856832D01*
X117571315Y-53821293D01*
X117648532Y-53769699D01*
X117714199Y-53704032D01*
X117765793Y-53626815D01*
X117801332Y-53541017D01*
X117819450Y-53449934D01*
X117819450Y-53357066D01*
X117801332Y-53265983D01*
X117788348Y-53234637D01*
X119386550Y-53234637D01*
X119386550Y-53347203D01*
X119408511Y-53457606D01*
X119451588Y-53561603D01*
X119514126Y-53655198D01*
X119593722Y-53734794D01*
X119687317Y-53797332D01*
X119791314Y-53840409D01*
X119901717Y-53862370D01*
X120014283Y-53862370D01*
X120124686Y-53840409D01*
X120228683Y-53797332D01*
X120322278Y-53734794D01*
X120401874Y-53655198D01*
X120464412Y-53561603D01*
X120507489Y-53457606D01*
X120529450Y-53347203D01*
X120529450Y-53234637D01*
X120507489Y-53124234D01*
X120464412Y-53020237D01*
X120401874Y-52926642D01*
X120322278Y-52847046D01*
X120228683Y-52784508D01*
X120124686Y-52741431D01*
X120014283Y-52719470D01*
X119901717Y-52719470D01*
X119791314Y-52741431D01*
X119687317Y-52784508D01*
X119593722Y-52847046D01*
X119514126Y-52926642D01*
X119451588Y-53020237D01*
X119408511Y-53124234D01*
X119386550Y-53234637D01*
X117788348Y-53234637D01*
X117765793Y-53180185D01*
X117714199Y-53102968D01*
X117648532Y-53037301D01*
X117571315Y-52985707D01*
X117485517Y-52950168D01*
X117394434Y-52932050D01*
X117301566Y-52932050D01*
X117210483Y-52950168D01*
X117124685Y-52985707D01*
X117047468Y-53037301D01*
X116981801Y-53102968D01*
X116930207Y-53180185D01*
X116894668Y-53265983D01*
X116876550Y-53357066D01*
X98547411Y-53357066D01*
X100360985Y-51593870D01*
X100366607Y-51587213D01*
X100370823Y-51579587D01*
X100373469Y-51571285D01*
X100374450Y-51562000D01*
X100374450Y-51098222D01*
X103672706Y-51098222D01*
X103672706Y-51191090D01*
X103690824Y-51282173D01*
X103726363Y-51367971D01*
X103777957Y-51445188D01*
X103843624Y-51510855D01*
X103920841Y-51562449D01*
X104006639Y-51597988D01*
X104097722Y-51616106D01*
X104190590Y-51616106D01*
X104281673Y-51597988D01*
X104367471Y-51562449D01*
X104444688Y-51510855D01*
X104510355Y-51445188D01*
X104561949Y-51367971D01*
X104597488Y-51282173D01*
X104615606Y-51191090D01*
X104615606Y-51098222D01*
X104597488Y-51007139D01*
X104561949Y-50921341D01*
X104510355Y-50844124D01*
X104444688Y-50778457D01*
X104407436Y-50753566D01*
X111161550Y-50753566D01*
X111161550Y-50846434D01*
X111179668Y-50937517D01*
X111215207Y-51023315D01*
X111266801Y-51100532D01*
X111332468Y-51166199D01*
X111409685Y-51217793D01*
X111495483Y-51253332D01*
X111586566Y-51271450D01*
X111679434Y-51271450D01*
X111770517Y-51253332D01*
X111856315Y-51217793D01*
X111933532Y-51166199D01*
X111999199Y-51100532D01*
X112050793Y-51023315D01*
X112086332Y-50937517D01*
X112104450Y-50846434D01*
X112104450Y-50753566D01*
X112086332Y-50662483D01*
X112050793Y-50576685D01*
X111999199Y-50499468D01*
X111933532Y-50433801D01*
X111856315Y-50382207D01*
X111770517Y-50346668D01*
X111679434Y-50328550D01*
X111586566Y-50328550D01*
X111495483Y-50346668D01*
X111409685Y-50382207D01*
X111332468Y-50433801D01*
X111266801Y-50499468D01*
X111215207Y-50576685D01*
X111179668Y-50662483D01*
X111161550Y-50753566D01*
X104407436Y-50753566D01*
X104367471Y-50726863D01*
X104281673Y-50691324D01*
X104190590Y-50673206D01*
X104097722Y-50673206D01*
X104006639Y-50691324D01*
X103920841Y-50726863D01*
X103843624Y-50778457D01*
X103777957Y-50844124D01*
X103726363Y-50921341D01*
X103690824Y-51007139D01*
X103672706Y-51098222D01*
X100374450Y-51098222D01*
X100374450Y-49703566D01*
X114478550Y-49703566D01*
X114478550Y-49796434D01*
X114496668Y-49887517D01*
X114532207Y-49973315D01*
X114583801Y-50050532D01*
X114649468Y-50116199D01*
X114726685Y-50167793D01*
X114801733Y-50198879D01*
X114749468Y-50233801D01*
X114683801Y-50299468D01*
X114632207Y-50376685D01*
X114596668Y-50462483D01*
X114578550Y-50553566D01*
X114578550Y-50646434D01*
X114596668Y-50737517D01*
X114632207Y-50823315D01*
X114683801Y-50900532D01*
X114749468Y-50966199D01*
X114826685Y-51017793D01*
X114912483Y-51053332D01*
X115003566Y-51071450D01*
X115096434Y-51071450D01*
X115187517Y-51053332D01*
X115273315Y-51017793D01*
X115350532Y-50966199D01*
X115416199Y-50900532D01*
X115467793Y-50823315D01*
X115496684Y-50753566D01*
X123678550Y-50753566D01*
X123678550Y-50846434D01*
X123696668Y-50937517D01*
X123732207Y-51023315D01*
X123783801Y-51100532D01*
X123849468Y-51166199D01*
X123926685Y-51217793D01*
X124012483Y-51253332D01*
X124103566Y-51271450D01*
X124196434Y-51271450D01*
X124287517Y-51253332D01*
X124373315Y-51217793D01*
X124450532Y-51166199D01*
X124516199Y-51100532D01*
X124567793Y-51023315D01*
X124603332Y-50937517D01*
X124621450Y-50846434D01*
X124621450Y-50753566D01*
X124603332Y-50662483D01*
X124567793Y-50576685D01*
X124516199Y-50499468D01*
X124450532Y-50433801D01*
X124373315Y-50382207D01*
X124287517Y-50346668D01*
X124196434Y-50328550D01*
X124103566Y-50328550D01*
X124012483Y-50346668D01*
X123926685Y-50382207D01*
X123849468Y-50433801D01*
X123783801Y-50499468D01*
X123732207Y-50576685D01*
X123696668Y-50662483D01*
X123678550Y-50753566D01*
X115496684Y-50753566D01*
X115503332Y-50737517D01*
X115521450Y-50646434D01*
X115521450Y-50553566D01*
X115503332Y-50462483D01*
X115467793Y-50376685D01*
X115416199Y-50299468D01*
X115350532Y-50233801D01*
X115273315Y-50182207D01*
X115198267Y-50151121D01*
X115250532Y-50116199D01*
X115316199Y-50050532D01*
X115367793Y-49973315D01*
X115403332Y-49887517D01*
X115421450Y-49796434D01*
X115421450Y-49703566D01*
X115403332Y-49612483D01*
X115367793Y-49526685D01*
X115316199Y-49449468D01*
X115250532Y-49383801D01*
X115173315Y-49332207D01*
X115087517Y-49296668D01*
X114996434Y-49278550D01*
X114903566Y-49278550D01*
X114812483Y-49296668D01*
X114726685Y-49332207D01*
X114649468Y-49383801D01*
X114583801Y-49449468D01*
X114532207Y-49526685D01*
X114496668Y-49612483D01*
X114478550Y-49703566D01*
X100374450Y-49703566D01*
X100374450Y-49102566D01*
X104684550Y-49102566D01*
X104684550Y-49195434D01*
X104702668Y-49286517D01*
X104738207Y-49372315D01*
X104789801Y-49449532D01*
X104855468Y-49515199D01*
X104932685Y-49566793D01*
X105018483Y-49602332D01*
X105109566Y-49620450D01*
X105202434Y-49620450D01*
X105293517Y-49602332D01*
X105379315Y-49566793D01*
X105456532Y-49515199D01*
X105522199Y-49449532D01*
X105573793Y-49372315D01*
X105609332Y-49286517D01*
X105627450Y-49195434D01*
X105627450Y-49102566D01*
X105609332Y-49011483D01*
X105573793Y-48925685D01*
X105522199Y-48848468D01*
X105456532Y-48782801D01*
X105379315Y-48731207D01*
X105293517Y-48695668D01*
X105202434Y-48677550D01*
X105109566Y-48677550D01*
X105018483Y-48695668D01*
X104932685Y-48731207D01*
X104855468Y-48782801D01*
X104789801Y-48848468D01*
X104738207Y-48925685D01*
X104702668Y-49011483D01*
X104684550Y-49102566D01*
X100374450Y-49102566D01*
X100374450Y-48687578D01*
X100412483Y-48703332D01*
X100503566Y-48721450D01*
X100596434Y-48721450D01*
X100687517Y-48703332D01*
X100773315Y-48667793D01*
X100850532Y-48616199D01*
X100916199Y-48550532D01*
X100967793Y-48473315D01*
X101003332Y-48387517D01*
X101021450Y-48296434D01*
X101021450Y-48213566D01*
X106399050Y-48213566D01*
X106399050Y-48306434D01*
X106417168Y-48397517D01*
X106452707Y-48483315D01*
X106504301Y-48560532D01*
X106569968Y-48626199D01*
X106647185Y-48677793D01*
X106732983Y-48713332D01*
X106824066Y-48731450D01*
X106916934Y-48731450D01*
X107008017Y-48713332D01*
X107093815Y-48677793D01*
X107171032Y-48626199D01*
X107189975Y-48607256D01*
X108761222Y-48607256D01*
X108761222Y-48700124D01*
X108779340Y-48791207D01*
X108814879Y-48877005D01*
X108866473Y-48954222D01*
X108932140Y-49019889D01*
X109009357Y-49071483D01*
X109095155Y-49107022D01*
X109186238Y-49125140D01*
X109279106Y-49125140D01*
X109370189Y-49107022D01*
X109455987Y-49071483D01*
X109533204Y-49019889D01*
X109598871Y-48954222D01*
X109650465Y-48877005D01*
X109686004Y-48791207D01*
X109704122Y-48700124D01*
X109704122Y-48607256D01*
X109703546Y-48604357D01*
X117066160Y-48604357D01*
X117066160Y-48697225D01*
X117084278Y-48788308D01*
X117119817Y-48874106D01*
X117171411Y-48951323D01*
X117237078Y-49016990D01*
X117314295Y-49068584D01*
X117400093Y-49104123D01*
X117491176Y-49122241D01*
X117584044Y-49122241D01*
X117675127Y-49104123D01*
X117760925Y-49068584D01*
X117783401Y-49053566D01*
X121978550Y-49053566D01*
X121978550Y-49146434D01*
X121996668Y-49237517D01*
X122032207Y-49323315D01*
X122083801Y-49400532D01*
X122149468Y-49466199D01*
X122226685Y-49517793D01*
X122312483Y-49553332D01*
X122403566Y-49571450D01*
X122496434Y-49571450D01*
X122587517Y-49553332D01*
X122673315Y-49517793D01*
X122750532Y-49466199D01*
X122816199Y-49400532D01*
X122867793Y-49323315D01*
X122903332Y-49237517D01*
X122921450Y-49146434D01*
X122921450Y-49053566D01*
X125478550Y-49053566D01*
X125478550Y-49146434D01*
X125496668Y-49237517D01*
X125532207Y-49323315D01*
X125583801Y-49400532D01*
X125649468Y-49466199D01*
X125726685Y-49517793D01*
X125812483Y-49553332D01*
X125903566Y-49571450D01*
X125996434Y-49571450D01*
X126087517Y-49553332D01*
X126173315Y-49517793D01*
X126250532Y-49466199D01*
X126316199Y-49400532D01*
X126367793Y-49323315D01*
X126403332Y-49237517D01*
X126421450Y-49146434D01*
X126421450Y-49053566D01*
X126403332Y-48962483D01*
X126367793Y-48876685D01*
X126316199Y-48799468D01*
X126250532Y-48733801D01*
X126173315Y-48682207D01*
X126087517Y-48646668D01*
X125996434Y-48628550D01*
X125903566Y-48628550D01*
X125812483Y-48646668D01*
X125726685Y-48682207D01*
X125649468Y-48733801D01*
X125583801Y-48799468D01*
X125532207Y-48876685D01*
X125496668Y-48962483D01*
X125478550Y-49053566D01*
X122921450Y-49053566D01*
X122903332Y-48962483D01*
X122867793Y-48876685D01*
X122816199Y-48799468D01*
X122750532Y-48733801D01*
X122673315Y-48682207D01*
X122587517Y-48646668D01*
X122496434Y-48628550D01*
X122403566Y-48628550D01*
X122312483Y-48646668D01*
X122226685Y-48682207D01*
X122149468Y-48733801D01*
X122083801Y-48799468D01*
X122032207Y-48876685D01*
X121996668Y-48962483D01*
X121978550Y-49053566D01*
X117783401Y-49053566D01*
X117838142Y-49016990D01*
X117903809Y-48951323D01*
X117955403Y-48874106D01*
X117990942Y-48788308D01*
X118009060Y-48697225D01*
X118009060Y-48604357D01*
X117990942Y-48513274D01*
X117955403Y-48427476D01*
X117903809Y-48350259D01*
X117838142Y-48284592D01*
X117760925Y-48232998D01*
X117675127Y-48197459D01*
X117584044Y-48179341D01*
X117491176Y-48179341D01*
X117400093Y-48197459D01*
X117314295Y-48232998D01*
X117237078Y-48284592D01*
X117171411Y-48350259D01*
X117119817Y-48427476D01*
X117084278Y-48513274D01*
X117066160Y-48604357D01*
X109703546Y-48604357D01*
X109686004Y-48516173D01*
X109650465Y-48430375D01*
X109598871Y-48353158D01*
X109533204Y-48287491D01*
X109455987Y-48235897D01*
X109370189Y-48200358D01*
X109279106Y-48182240D01*
X109186238Y-48182240D01*
X109095155Y-48200358D01*
X109009357Y-48235897D01*
X108932140Y-48287491D01*
X108866473Y-48353158D01*
X108814879Y-48430375D01*
X108779340Y-48516173D01*
X108761222Y-48607256D01*
X107189975Y-48607256D01*
X107236699Y-48560532D01*
X107288293Y-48483315D01*
X107323832Y-48397517D01*
X107341950Y-48306434D01*
X107341950Y-48213566D01*
X107323832Y-48122483D01*
X107288293Y-48036685D01*
X107236699Y-47959468D01*
X107171032Y-47893801D01*
X107093815Y-47842207D01*
X107070540Y-47832566D01*
X113066550Y-47832566D01*
X113066550Y-47925434D01*
X113084668Y-48016517D01*
X113120207Y-48102315D01*
X113171801Y-48179532D01*
X113237468Y-48245199D01*
X113314685Y-48296793D01*
X113400483Y-48332332D01*
X113491566Y-48350450D01*
X113584434Y-48350450D01*
X113675517Y-48332332D01*
X113761315Y-48296793D01*
X113838532Y-48245199D01*
X113904199Y-48179532D01*
X113955793Y-48102315D01*
X113991332Y-48016517D01*
X114009450Y-47925434D01*
X114009450Y-47832566D01*
X113991332Y-47741483D01*
X113955793Y-47655685D01*
X113904199Y-47578468D01*
X113838532Y-47512801D01*
X113761315Y-47461207D01*
X113675517Y-47425668D01*
X113584434Y-47407550D01*
X113491566Y-47407550D01*
X113400483Y-47425668D01*
X113314685Y-47461207D01*
X113237468Y-47512801D01*
X113171801Y-47578468D01*
X113120207Y-47655685D01*
X113084668Y-47741483D01*
X113066550Y-47832566D01*
X107070540Y-47832566D01*
X107008017Y-47806668D01*
X106916934Y-47788550D01*
X106824066Y-47788550D01*
X106732983Y-47806668D01*
X106647185Y-47842207D01*
X106569968Y-47893801D01*
X106504301Y-47959468D01*
X106452707Y-48036685D01*
X106417168Y-48122483D01*
X106399050Y-48213566D01*
X101021450Y-48213566D01*
X101021450Y-48203566D01*
X101003332Y-48112483D01*
X100967793Y-48026685D01*
X100916199Y-47949468D01*
X100850532Y-47883801D01*
X100773315Y-47832207D01*
X100687517Y-47796668D01*
X100596434Y-47778550D01*
X100503566Y-47778550D01*
X100412483Y-47796668D01*
X100374450Y-47812422D01*
X100374450Y-46816450D01*
X117847437Y-46816450D01*
X117824425Y-46825982D01*
M02*
