%TF.GenerationSoftware,KiCad,Pcbnew,5.0.2-bee76a0~70~ubuntu18.04.1*%
%TF.CreationDate,2020-02-29T17:21:03-08:00*%
%TF.ProjectId,SolarCellX_v3,536f6c61-7243-4656-9c6c-585f76332e6b,rev?*%
%TF.SameCoordinates,Original*%
%TF.FileFunction,Legend,Top*%
%TF.FilePolarity,Positive*%
%FSLAX46Y46*%
G04 Gerber Fmt 4.6, Leading zero omitted, Abs format (unit mm)*
G04 Created by KiCad (PCBNEW 5.0.2-bee76a0~70~ubuntu18.04.1) date Sat 29 Feb 2020 05:21:03 PM PST*
%MOMM*%
%LPD*%
G01*
G04 APERTURE LIST*
%ADD10C,1.200000*%
%ADD11C,0.127000*%
%ADD12C,0.203200*%
%ADD13C,0.120000*%
%ADD14C,0.050000*%
%ADD15C,0.101600*%
%ADD16C,0.100000*%
G04 APERTURE END LIST*
D10*
X126250000Y-80464285D02*
X130250000Y-86464285D01*
X130250000Y-80464285D02*
X126250000Y-86464285D01*
D11*
X121213809Y-62752261D02*
X121606904Y-62752261D01*
X121395238Y-62994166D01*
X121485952Y-62994166D01*
X121546428Y-63024404D01*
X121576666Y-63054642D01*
X121606904Y-63115119D01*
X121606904Y-63266309D01*
X121576666Y-63326785D01*
X121546428Y-63357023D01*
X121485952Y-63387261D01*
X121304523Y-63387261D01*
X121244047Y-63357023D01*
X121213809Y-63326785D01*
X121788333Y-62752261D02*
X122000000Y-63387261D01*
X122211666Y-62752261D01*
X122362857Y-62752261D02*
X122755952Y-62752261D01*
X122544285Y-62994166D01*
X122635000Y-62994166D01*
X122695476Y-63024404D01*
X122725714Y-63054642D01*
X122755952Y-63115119D01*
X122755952Y-63266309D01*
X122725714Y-63326785D01*
X122695476Y-63357023D01*
X122635000Y-63387261D01*
X122453571Y-63387261D01*
X122393095Y-63357023D01*
X122362857Y-63326785D01*
X122766190Y-58432500D02*
X122705714Y-58402261D01*
X122615000Y-58402261D01*
X122524285Y-58432500D01*
X122463809Y-58492976D01*
X122433571Y-58553452D01*
X122403333Y-58674404D01*
X122403333Y-58765119D01*
X122433571Y-58886071D01*
X122463809Y-58946547D01*
X122524285Y-59007023D01*
X122615000Y-59037261D01*
X122675476Y-59037261D01*
X122766190Y-59007023D01*
X122796428Y-58976785D01*
X122796428Y-58765119D01*
X122675476Y-58765119D01*
X123068571Y-59037261D02*
X123068571Y-58402261D01*
X123431428Y-59037261D01*
X123431428Y-58402261D01*
X123733809Y-59037261D02*
X123733809Y-58402261D01*
X123885000Y-58402261D01*
X123975714Y-58432500D01*
X124036190Y-58492976D01*
X124066428Y-58553452D01*
X124096666Y-58674404D01*
X124096666Y-58765119D01*
X124066428Y-58886071D01*
X124036190Y-58946547D01*
X123975714Y-59007023D01*
X123885000Y-59037261D01*
X123733809Y-59037261D01*
D12*
X126281571Y-49127642D02*
X127152428Y-49127642D01*
D11*
X122083690Y-50537261D02*
X122083690Y-49902261D01*
X122325595Y-49902261D01*
X122386071Y-49932500D01*
X122416309Y-49962738D01*
X122446547Y-50023214D01*
X122446547Y-50113928D01*
X122416309Y-50174404D01*
X122386071Y-50204642D01*
X122325595Y-50234880D01*
X122083690Y-50234880D01*
X122181428Y-47712738D02*
X122181428Y-48347738D01*
X121818571Y-47712738D01*
X121818571Y-48347738D01*
D12*
X121646071Y-49127642D02*
X122516928Y-49127642D01*
X122081500Y-49563071D02*
X122081500Y-48692214D01*
D13*
X123288000Y-49109500D02*
X122970500Y-49109500D01*
X124494500Y-49109500D02*
X124177000Y-49109500D01*
X123542000Y-49109500D02*
X123859500Y-49109500D01*
X124875500Y-49109500D02*
X125193000Y-49109500D01*
X125828000Y-49109500D02*
X125510500Y-49109500D01*
D14*
X96200000Y-47000000D02*
G75*
G03X96200000Y-47000000I-1100000J0D01*
G01*
X97100000Y-81400000D02*
G75*
G03X97100000Y-81400000I-2000000J0D01*
G01*
X136900000Y-81400000D02*
G75*
G03X136900000Y-81400000I-2000000J0D01*
G01*
X136900000Y-47000000D02*
G75*
G03X136900000Y-47000000I-2000000J0D01*
G01*
X97100000Y-47000000D02*
G75*
G03X97100000Y-47000000I-2000000J0D01*
G01*
X96200000Y-81400000D02*
G75*
G03X96200000Y-81400000I-1100000J0D01*
G01*
X136000000Y-81400000D02*
G75*
G03X136000000Y-81400000I-1100000J0D01*
G01*
X136000000Y-47000000D02*
G75*
G03X136000000Y-47000000I-1100000J0D01*
G01*
X90000000Y-88400000D02*
X138400000Y-88400000D01*
X90000000Y-88400000D02*
X90000000Y-40000000D01*
X138400000Y-40000000D02*
X138400000Y-88400000D01*
X90000000Y-40000000D02*
X138400000Y-40000000D01*
D12*
X101250000Y-77600000D02*
X99350000Y-77600000D01*
X101250000Y-77600000D02*
X101250000Y-77700000D01*
X101250000Y-77700000D02*
X99350000Y-77700000D01*
X101250000Y-85300000D02*
X101250000Y-85400000D01*
X101250000Y-85400000D02*
X99350000Y-85400000D01*
X101250000Y-85300000D02*
X99350000Y-85300000D01*
D13*
X117250000Y-81500000D02*
X119250000Y-81500000D01*
X101950000Y-81500000D02*
X103950000Y-81500000D01*
X102950000Y-80500000D02*
X102950000Y-82500000D01*
X99250000Y-85500000D02*
X99250000Y-77500000D01*
X122250000Y-85500000D02*
X99250000Y-85500000D01*
X122250000Y-77500000D02*
X122250000Y-85500000D01*
X99250000Y-77500000D02*
X122250000Y-77500000D01*
X114500000Y-68750000D02*
X137500000Y-68750000D01*
X137500000Y-68750000D02*
X137500000Y-76750000D01*
X137500000Y-76750000D02*
X114500000Y-76750000D01*
X114500000Y-76750000D02*
X114500000Y-68750000D01*
X118200000Y-71750000D02*
X118200000Y-73750000D01*
X117200000Y-72750000D02*
X119200000Y-72750000D01*
X132500000Y-72750000D02*
X134500000Y-72750000D01*
D12*
X116500000Y-76550000D02*
X114600000Y-76550000D01*
X116500000Y-76650000D02*
X114600000Y-76650000D01*
X116500000Y-76550000D02*
X116500000Y-76650000D01*
X116500000Y-68950000D02*
X114600000Y-68950000D01*
X116500000Y-68850000D02*
X116500000Y-68950000D01*
X116500000Y-68850000D02*
X114600000Y-68850000D01*
X116500000Y-60100000D02*
X114600000Y-60100000D01*
X116500000Y-60100000D02*
X116500000Y-60200000D01*
X116500000Y-60200000D02*
X114600000Y-60200000D01*
X116500000Y-67800000D02*
X116500000Y-67900000D01*
X116500000Y-67900000D02*
X114600000Y-67900000D01*
X116500000Y-67800000D02*
X114600000Y-67800000D01*
D13*
X132500000Y-64000000D02*
X134500000Y-64000000D01*
X117200000Y-64000000D02*
X119200000Y-64000000D01*
X118200000Y-63000000D02*
X118200000Y-65000000D01*
X114500000Y-68000000D02*
X114500000Y-60000000D01*
X137500000Y-68000000D02*
X114500000Y-68000000D01*
X137500000Y-60000000D02*
X137500000Y-68000000D01*
X114500000Y-60000000D02*
X137500000Y-60000000D01*
D12*
X116500000Y-51350000D02*
X114600000Y-51350000D01*
X116500000Y-51350000D02*
X116500000Y-51450000D01*
X116500000Y-51450000D02*
X114600000Y-51450000D01*
X116500000Y-59050000D02*
X116500000Y-59150000D01*
X116500000Y-59150000D02*
X114600000Y-59150000D01*
X116500000Y-59050000D02*
X114600000Y-59050000D01*
D13*
X132500000Y-55250000D02*
X134500000Y-55250000D01*
X117200000Y-55250000D02*
X119200000Y-55250000D01*
X118200000Y-54250000D02*
X118200000Y-56250000D01*
X114500000Y-59250000D02*
X114500000Y-51250000D01*
X137500000Y-59250000D02*
X114500000Y-59250000D01*
X137500000Y-51250000D02*
X137500000Y-59250000D01*
X114500000Y-51250000D02*
X137500000Y-51250000D01*
D12*
X100000000Y-40850000D02*
X98100000Y-40850000D01*
X100000000Y-40850000D02*
X100000000Y-40950000D01*
X100000000Y-40950000D02*
X98100000Y-40950000D01*
X100000000Y-48550000D02*
X100000000Y-48650000D01*
X100000000Y-48650000D02*
X98100000Y-48650000D01*
X100000000Y-48550000D02*
X98100000Y-48550000D01*
D13*
X116000000Y-44750000D02*
X118000000Y-44750000D01*
X100700000Y-44750000D02*
X102700000Y-44750000D01*
X101700000Y-43750000D02*
X101700000Y-45750000D01*
X98000000Y-48750000D02*
X98000000Y-40750000D01*
X121000000Y-48750000D02*
X98000000Y-48750000D01*
X121000000Y-40750000D02*
X121000000Y-48750000D01*
X98000000Y-40750000D02*
X121000000Y-40750000D01*
D12*
X92750000Y-51350000D02*
X90850000Y-51350000D01*
X92750000Y-51350000D02*
X92750000Y-51450000D01*
X92750000Y-51450000D02*
X90850000Y-51450000D01*
X92750000Y-59050000D02*
X92750000Y-59150000D01*
X92750000Y-59150000D02*
X90850000Y-59150000D01*
X92750000Y-59050000D02*
X90850000Y-59050000D01*
D13*
X108750000Y-55250000D02*
X110750000Y-55250000D01*
X93450000Y-55250000D02*
X95450000Y-55250000D01*
X94450000Y-54250000D02*
X94450000Y-56250000D01*
X90750000Y-59250000D02*
X90750000Y-51250000D01*
X113750000Y-59250000D02*
X90750000Y-59250000D01*
X113750000Y-51250000D02*
X113750000Y-59250000D01*
X90750000Y-51250000D02*
X113750000Y-51250000D01*
D12*
X92750000Y-60100000D02*
X90850000Y-60100000D01*
X92750000Y-60100000D02*
X92750000Y-60200000D01*
X92750000Y-60200000D02*
X90850000Y-60200000D01*
X92750000Y-67800000D02*
X92750000Y-67900000D01*
X92750000Y-67900000D02*
X90850000Y-67900000D01*
X92750000Y-67800000D02*
X90850000Y-67800000D01*
D13*
X108750000Y-64000000D02*
X110750000Y-64000000D01*
X93450000Y-64000000D02*
X95450000Y-64000000D01*
X94450000Y-63000000D02*
X94450000Y-65000000D01*
X90750000Y-68000000D02*
X90750000Y-60000000D01*
X113750000Y-68000000D02*
X90750000Y-68000000D01*
X113750000Y-60000000D02*
X113750000Y-68000000D01*
X90750000Y-60000000D02*
X113750000Y-60000000D01*
D12*
X92750000Y-68850000D02*
X90850000Y-68850000D01*
X92750000Y-68850000D02*
X92750000Y-68950000D01*
X92750000Y-68950000D02*
X90850000Y-68950000D01*
X92750000Y-76550000D02*
X92750000Y-76650000D01*
X92750000Y-76650000D02*
X90850000Y-76650000D01*
X92750000Y-76550000D02*
X90850000Y-76550000D01*
D13*
X108750000Y-72750000D02*
X110750000Y-72750000D01*
X93450000Y-72750000D02*
X95450000Y-72750000D01*
X94450000Y-71750000D02*
X94450000Y-73750000D01*
X90750000Y-76750000D02*
X90750000Y-68750000D01*
X113750000Y-76750000D02*
X90750000Y-76750000D01*
X113750000Y-68750000D02*
X113750000Y-76750000D01*
X90750000Y-68750000D02*
X113750000Y-68750000D01*
D15*
X123950000Y-43500000D02*
G75*
G02X124050000Y-43500000I50000J0D01*
G01*
X124050000Y-43500000D02*
G75*
G02X123950000Y-43500000I-50000J0D01*
G01*
D16*
X123850000Y-43500000D02*
G75*
G02X124150000Y-43500000I150000J0D01*
G01*
X124150000Y-43500000D02*
G75*
G02X123850000Y-43500000I-150000J0D01*
G01*
X125750000Y-46300000D02*
X126750000Y-46307000D01*
X125750000Y-43700000D02*
X126750000Y-43697000D01*
D15*
X109988428Y-81808428D02*
X110097285Y-81844714D01*
X110278714Y-81844714D01*
X110351285Y-81808428D01*
X110387571Y-81772142D01*
X110423857Y-81699571D01*
X110423857Y-81627000D01*
X110387571Y-81554428D01*
X110351285Y-81518142D01*
X110278714Y-81481857D01*
X110133571Y-81445571D01*
X110061000Y-81409285D01*
X110024714Y-81373000D01*
X109988428Y-81300428D01*
X109988428Y-81227857D01*
X110024714Y-81155285D01*
X110061000Y-81119000D01*
X110133571Y-81082714D01*
X110315000Y-81082714D01*
X110423857Y-81119000D01*
X111185857Y-81772142D02*
X111149571Y-81808428D01*
X111040714Y-81844714D01*
X110968142Y-81844714D01*
X110859285Y-81808428D01*
X110786714Y-81735857D01*
X110750428Y-81663285D01*
X110714142Y-81518142D01*
X110714142Y-81409285D01*
X110750428Y-81264142D01*
X110786714Y-81191571D01*
X110859285Y-81119000D01*
X110968142Y-81082714D01*
X111040714Y-81082714D01*
X111149571Y-81119000D01*
X111185857Y-81155285D01*
X111911571Y-81844714D02*
X111476142Y-81844714D01*
X111693857Y-81844714D02*
X111693857Y-81082714D01*
X111621285Y-81191571D01*
X111548714Y-81264142D01*
X111476142Y-81300428D01*
X125238428Y-73058428D02*
X125347285Y-73094714D01*
X125528714Y-73094714D01*
X125601285Y-73058428D01*
X125637571Y-73022142D01*
X125673857Y-72949571D01*
X125673857Y-72877000D01*
X125637571Y-72804428D01*
X125601285Y-72768142D01*
X125528714Y-72731857D01*
X125383571Y-72695571D01*
X125311000Y-72659285D01*
X125274714Y-72623000D01*
X125238428Y-72550428D01*
X125238428Y-72477857D01*
X125274714Y-72405285D01*
X125311000Y-72369000D01*
X125383571Y-72332714D01*
X125565000Y-72332714D01*
X125673857Y-72369000D01*
X126435857Y-73022142D02*
X126399571Y-73058428D01*
X126290714Y-73094714D01*
X126218142Y-73094714D01*
X126109285Y-73058428D01*
X126036714Y-72985857D01*
X126000428Y-72913285D01*
X125964142Y-72768142D01*
X125964142Y-72659285D01*
X126000428Y-72514142D01*
X126036714Y-72441571D01*
X126109285Y-72369000D01*
X126218142Y-72332714D01*
X126290714Y-72332714D01*
X126399571Y-72369000D01*
X126435857Y-72405285D01*
X126871285Y-72659285D02*
X126798714Y-72623000D01*
X126762428Y-72586714D01*
X126726142Y-72514142D01*
X126726142Y-72477857D01*
X126762428Y-72405285D01*
X126798714Y-72369000D01*
X126871285Y-72332714D01*
X127016428Y-72332714D01*
X127089000Y-72369000D01*
X127125285Y-72405285D01*
X127161571Y-72477857D01*
X127161571Y-72514142D01*
X127125285Y-72586714D01*
X127089000Y-72623000D01*
X127016428Y-72659285D01*
X126871285Y-72659285D01*
X126798714Y-72695571D01*
X126762428Y-72731857D01*
X126726142Y-72804428D01*
X126726142Y-72949571D01*
X126762428Y-73022142D01*
X126798714Y-73058428D01*
X126871285Y-73094714D01*
X127016428Y-73094714D01*
X127089000Y-73058428D01*
X127125285Y-73022142D01*
X127161571Y-72949571D01*
X127161571Y-72804428D01*
X127125285Y-72731857D01*
X127089000Y-72695571D01*
X127016428Y-72659285D01*
X125238428Y-64308428D02*
X125347285Y-64344714D01*
X125528714Y-64344714D01*
X125601285Y-64308428D01*
X125637571Y-64272142D01*
X125673857Y-64199571D01*
X125673857Y-64127000D01*
X125637571Y-64054428D01*
X125601285Y-64018142D01*
X125528714Y-63981857D01*
X125383571Y-63945571D01*
X125311000Y-63909285D01*
X125274714Y-63873000D01*
X125238428Y-63800428D01*
X125238428Y-63727857D01*
X125274714Y-63655285D01*
X125311000Y-63619000D01*
X125383571Y-63582714D01*
X125565000Y-63582714D01*
X125673857Y-63619000D01*
X126435857Y-64272142D02*
X126399571Y-64308428D01*
X126290714Y-64344714D01*
X126218142Y-64344714D01*
X126109285Y-64308428D01*
X126036714Y-64235857D01*
X126000428Y-64163285D01*
X125964142Y-64018142D01*
X125964142Y-63909285D01*
X126000428Y-63764142D01*
X126036714Y-63691571D01*
X126109285Y-63619000D01*
X126218142Y-63582714D01*
X126290714Y-63582714D01*
X126399571Y-63619000D01*
X126435857Y-63655285D01*
X126689857Y-63582714D02*
X127197857Y-63582714D01*
X126871285Y-64344714D01*
X125238428Y-55558428D02*
X125347285Y-55594714D01*
X125528714Y-55594714D01*
X125601285Y-55558428D01*
X125637571Y-55522142D01*
X125673857Y-55449571D01*
X125673857Y-55377000D01*
X125637571Y-55304428D01*
X125601285Y-55268142D01*
X125528714Y-55231857D01*
X125383571Y-55195571D01*
X125311000Y-55159285D01*
X125274714Y-55123000D01*
X125238428Y-55050428D01*
X125238428Y-54977857D01*
X125274714Y-54905285D01*
X125311000Y-54869000D01*
X125383571Y-54832714D01*
X125565000Y-54832714D01*
X125673857Y-54869000D01*
X126435857Y-55522142D02*
X126399571Y-55558428D01*
X126290714Y-55594714D01*
X126218142Y-55594714D01*
X126109285Y-55558428D01*
X126036714Y-55485857D01*
X126000428Y-55413285D01*
X125964142Y-55268142D01*
X125964142Y-55159285D01*
X126000428Y-55014142D01*
X126036714Y-54941571D01*
X126109285Y-54869000D01*
X126218142Y-54832714D01*
X126290714Y-54832714D01*
X126399571Y-54869000D01*
X126435857Y-54905285D01*
X127089000Y-54832714D02*
X126943857Y-54832714D01*
X126871285Y-54869000D01*
X126835000Y-54905285D01*
X126762428Y-55014142D01*
X126726142Y-55159285D01*
X126726142Y-55449571D01*
X126762428Y-55522142D01*
X126798714Y-55558428D01*
X126871285Y-55594714D01*
X127016428Y-55594714D01*
X127089000Y-55558428D01*
X127125285Y-55522142D01*
X127161571Y-55449571D01*
X127161571Y-55268142D01*
X127125285Y-55195571D01*
X127089000Y-55159285D01*
X127016428Y-55123000D01*
X126871285Y-55123000D01*
X126798714Y-55159285D01*
X126762428Y-55195571D01*
X126726142Y-55268142D01*
X108738428Y-45058428D02*
X108847285Y-45094714D01*
X109028714Y-45094714D01*
X109101285Y-45058428D01*
X109137571Y-45022142D01*
X109173857Y-44949571D01*
X109173857Y-44877000D01*
X109137571Y-44804428D01*
X109101285Y-44768142D01*
X109028714Y-44731857D01*
X108883571Y-44695571D01*
X108811000Y-44659285D01*
X108774714Y-44623000D01*
X108738428Y-44550428D01*
X108738428Y-44477857D01*
X108774714Y-44405285D01*
X108811000Y-44369000D01*
X108883571Y-44332714D01*
X109065000Y-44332714D01*
X109173857Y-44369000D01*
X109935857Y-45022142D02*
X109899571Y-45058428D01*
X109790714Y-45094714D01*
X109718142Y-45094714D01*
X109609285Y-45058428D01*
X109536714Y-44985857D01*
X109500428Y-44913285D01*
X109464142Y-44768142D01*
X109464142Y-44659285D01*
X109500428Y-44514142D01*
X109536714Y-44441571D01*
X109609285Y-44369000D01*
X109718142Y-44332714D01*
X109790714Y-44332714D01*
X109899571Y-44369000D01*
X109935857Y-44405285D01*
X110625285Y-44332714D02*
X110262428Y-44332714D01*
X110226142Y-44695571D01*
X110262428Y-44659285D01*
X110335000Y-44623000D01*
X110516428Y-44623000D01*
X110589000Y-44659285D01*
X110625285Y-44695571D01*
X110661571Y-44768142D01*
X110661571Y-44949571D01*
X110625285Y-45022142D01*
X110589000Y-45058428D01*
X110516428Y-45094714D01*
X110335000Y-45094714D01*
X110262428Y-45058428D01*
X110226142Y-45022142D01*
X101488428Y-55558428D02*
X101597285Y-55594714D01*
X101778714Y-55594714D01*
X101851285Y-55558428D01*
X101887571Y-55522142D01*
X101923857Y-55449571D01*
X101923857Y-55377000D01*
X101887571Y-55304428D01*
X101851285Y-55268142D01*
X101778714Y-55231857D01*
X101633571Y-55195571D01*
X101561000Y-55159285D01*
X101524714Y-55123000D01*
X101488428Y-55050428D01*
X101488428Y-54977857D01*
X101524714Y-54905285D01*
X101561000Y-54869000D01*
X101633571Y-54832714D01*
X101815000Y-54832714D01*
X101923857Y-54869000D01*
X102685857Y-55522142D02*
X102649571Y-55558428D01*
X102540714Y-55594714D01*
X102468142Y-55594714D01*
X102359285Y-55558428D01*
X102286714Y-55485857D01*
X102250428Y-55413285D01*
X102214142Y-55268142D01*
X102214142Y-55159285D01*
X102250428Y-55014142D01*
X102286714Y-54941571D01*
X102359285Y-54869000D01*
X102468142Y-54832714D01*
X102540714Y-54832714D01*
X102649571Y-54869000D01*
X102685857Y-54905285D01*
X103339000Y-55086714D02*
X103339000Y-55594714D01*
X103157571Y-54796428D02*
X102976142Y-55340714D01*
X103447857Y-55340714D01*
X101488428Y-64308428D02*
X101597285Y-64344714D01*
X101778714Y-64344714D01*
X101851285Y-64308428D01*
X101887571Y-64272142D01*
X101923857Y-64199571D01*
X101923857Y-64127000D01*
X101887571Y-64054428D01*
X101851285Y-64018142D01*
X101778714Y-63981857D01*
X101633571Y-63945571D01*
X101561000Y-63909285D01*
X101524714Y-63873000D01*
X101488428Y-63800428D01*
X101488428Y-63727857D01*
X101524714Y-63655285D01*
X101561000Y-63619000D01*
X101633571Y-63582714D01*
X101815000Y-63582714D01*
X101923857Y-63619000D01*
X102685857Y-64272142D02*
X102649571Y-64308428D01*
X102540714Y-64344714D01*
X102468142Y-64344714D01*
X102359285Y-64308428D01*
X102286714Y-64235857D01*
X102250428Y-64163285D01*
X102214142Y-64018142D01*
X102214142Y-63909285D01*
X102250428Y-63764142D01*
X102286714Y-63691571D01*
X102359285Y-63619000D01*
X102468142Y-63582714D01*
X102540714Y-63582714D01*
X102649571Y-63619000D01*
X102685857Y-63655285D01*
X102939857Y-63582714D02*
X103411571Y-63582714D01*
X103157571Y-63873000D01*
X103266428Y-63873000D01*
X103339000Y-63909285D01*
X103375285Y-63945571D01*
X103411571Y-64018142D01*
X103411571Y-64199571D01*
X103375285Y-64272142D01*
X103339000Y-64308428D01*
X103266428Y-64344714D01*
X103048714Y-64344714D01*
X102976142Y-64308428D01*
X102939857Y-64272142D01*
X101488428Y-73058428D02*
X101597285Y-73094714D01*
X101778714Y-73094714D01*
X101851285Y-73058428D01*
X101887571Y-73022142D01*
X101923857Y-72949571D01*
X101923857Y-72877000D01*
X101887571Y-72804428D01*
X101851285Y-72768142D01*
X101778714Y-72731857D01*
X101633571Y-72695571D01*
X101561000Y-72659285D01*
X101524714Y-72623000D01*
X101488428Y-72550428D01*
X101488428Y-72477857D01*
X101524714Y-72405285D01*
X101561000Y-72369000D01*
X101633571Y-72332714D01*
X101815000Y-72332714D01*
X101923857Y-72369000D01*
X102685857Y-73022142D02*
X102649571Y-73058428D01*
X102540714Y-73094714D01*
X102468142Y-73094714D01*
X102359285Y-73058428D01*
X102286714Y-72985857D01*
X102250428Y-72913285D01*
X102214142Y-72768142D01*
X102214142Y-72659285D01*
X102250428Y-72514142D01*
X102286714Y-72441571D01*
X102359285Y-72369000D01*
X102468142Y-72332714D01*
X102540714Y-72332714D01*
X102649571Y-72369000D01*
X102685857Y-72405285D01*
X102976142Y-72405285D02*
X103012428Y-72369000D01*
X103085000Y-72332714D01*
X103266428Y-72332714D01*
X103339000Y-72369000D01*
X103375285Y-72405285D01*
X103411571Y-72477857D01*
X103411571Y-72550428D01*
X103375285Y-72659285D01*
X102939857Y-73094714D01*
X103411571Y-73094714D01*
X125605928Y-42550714D02*
X125605928Y-43167571D01*
X125642214Y-43240142D01*
X125678500Y-43276428D01*
X125751071Y-43312714D01*
X125896214Y-43312714D01*
X125968785Y-43276428D01*
X126005071Y-43240142D01*
X126041357Y-43167571D01*
X126041357Y-42550714D01*
X126331642Y-42550714D02*
X126803357Y-42550714D01*
X126549357Y-42841000D01*
X126658214Y-42841000D01*
X126730785Y-42877285D01*
X126767071Y-42913571D01*
X126803357Y-42986142D01*
X126803357Y-43167571D01*
X126767071Y-43240142D01*
X126730785Y-43276428D01*
X126658214Y-43312714D01*
X126440500Y-43312714D01*
X126367928Y-43276428D01*
X126331642Y-43240142D01*
X123272142Y-43035500D02*
X123308428Y-43071785D01*
X123344714Y-43180642D01*
X123344714Y-43253214D01*
X123308428Y-43362071D01*
X123235857Y-43434642D01*
X123163285Y-43470928D01*
X123018142Y-43507214D01*
X122909285Y-43507214D01*
X122764142Y-43470928D01*
X122691571Y-43434642D01*
X122619000Y-43362071D01*
X122582714Y-43253214D01*
X122582714Y-43180642D01*
X122619000Y-43071785D01*
X122655285Y-43035500D01*
X122582714Y-42346071D02*
X122582714Y-42708928D01*
X122945571Y-42745214D01*
X122909285Y-42708928D01*
X122873000Y-42636357D01*
X122873000Y-42454928D01*
X122909285Y-42382357D01*
X122945571Y-42346071D01*
X123018142Y-42309785D01*
X123199571Y-42309785D01*
X123272142Y-42346071D01*
X123308428Y-42382357D01*
X123344714Y-42454928D01*
X123344714Y-42636357D01*
X123308428Y-42708928D01*
X123272142Y-42745214D01*
M02*
