%TF.GenerationSoftware,KiCad,Pcbnew,5.0.2-bee76a0~70~ubuntu18.04.1*%
%TF.CreationDate,2020-02-29T17:21:03-08:00*%
%TF.ProjectId,SolarCellX_v3,536f6c61-7243-4656-9c6c-585f76332e6b,rev?*%
%TF.SameCoordinates,Original*%
%TF.FileFunction,Legend,Bot*%
%TF.FilePolarity,Positive*%
%FSLAX46Y46*%
G04 Gerber Fmt 4.6, Leading zero omitted, Abs format (unit mm)*
G04 Created by KiCad (PCBNEW 5.0.2-bee76a0~70~ubuntu18.04.1) date Sat 29 Feb 2020 05:21:03 PM PST*
%MOMM*%
%LPD*%
G01*
G04 APERTURE LIST*
%ADD10C,0.120000*%
%ADD11C,0.152400*%
%ADD12C,0.101600*%
%ADD13C,0.076200*%
%ADD14C,0.150000*%
%ADD15C,0.050000*%
%ADD16C,0.250000*%
%ADD17C,0.200000*%
%ADD18C,0.254000*%
%ADD19C,0.127000*%
G04 APERTURE END LIST*
D10*
X100761800Y-51282600D02*
X101676200Y-51282600D01*
D11*
X116370368Y-43144714D02*
X116805797Y-43144714D01*
X116588082Y-43144714D02*
X116588082Y-42382714D01*
X116660654Y-42491571D01*
X116733225Y-42564142D01*
X116805797Y-42600428D01*
D12*
X118570102Y-62701714D02*
X118098388Y-62701714D01*
X118352388Y-62992000D01*
X118243531Y-62992000D01*
X118170960Y-63028285D01*
X118134674Y-63064571D01*
X118098388Y-63137142D01*
X118098388Y-63318571D01*
X118134674Y-63391142D01*
X118170960Y-63427428D01*
X118243531Y-63463714D01*
X118461245Y-63463714D01*
X118533817Y-63427428D01*
X118570102Y-63391142D01*
X117880674Y-62701714D02*
X117626674Y-63463714D01*
X117372674Y-62701714D01*
X117191245Y-62701714D02*
X116719531Y-62701714D01*
X116973531Y-62992000D01*
X116864674Y-62992000D01*
X116792102Y-63028285D01*
X116755817Y-63064571D01*
X116719531Y-63137142D01*
X116719531Y-63318571D01*
X116755817Y-63391142D01*
X116792102Y-63427428D01*
X116864674Y-63463714D01*
X117082388Y-63463714D01*
X117154960Y-63427428D01*
X117191245Y-63391142D01*
X107303388Y-64225714D02*
X107049388Y-64987714D01*
X106795388Y-64225714D01*
X106287388Y-64588571D02*
X106178531Y-64624857D01*
X106142245Y-64661142D01*
X106105960Y-64733714D01*
X106105960Y-64842571D01*
X106142245Y-64915142D01*
X106178531Y-64951428D01*
X106251102Y-64987714D01*
X106541388Y-64987714D01*
X106541388Y-64225714D01*
X106287388Y-64225714D01*
X106214817Y-64262000D01*
X106178531Y-64298285D01*
X106142245Y-64370857D01*
X106142245Y-64443428D01*
X106178531Y-64516000D01*
X106214817Y-64552285D01*
X106287388Y-64588571D01*
X106541388Y-64588571D01*
X105815674Y-64770000D02*
X105452817Y-64770000D01*
X105888245Y-64987714D02*
X105634245Y-64225714D01*
X105380245Y-64987714D01*
X105235102Y-64225714D02*
X104799674Y-64225714D01*
X105017388Y-64987714D02*
X105017388Y-64225714D01*
X103493388Y-64225714D02*
X103239388Y-64987714D01*
X102985388Y-64225714D01*
X102767674Y-64951428D02*
X102658817Y-64987714D01*
X102477388Y-64987714D01*
X102404817Y-64951428D01*
X102368531Y-64915142D01*
X102332245Y-64842571D01*
X102332245Y-64770000D01*
X102368531Y-64697428D01*
X102404817Y-64661142D01*
X102477388Y-64624857D01*
X102622531Y-64588571D01*
X102695102Y-64552285D01*
X102731388Y-64516000D01*
X102767674Y-64443428D01*
X102767674Y-64370857D01*
X102731388Y-64298285D01*
X102695102Y-64262000D01*
X102622531Y-64225714D01*
X102441102Y-64225714D01*
X102332245Y-64262000D01*
X101860531Y-64225714D02*
X101715388Y-64225714D01*
X101642817Y-64262000D01*
X101570245Y-64334571D01*
X101533960Y-64479714D01*
X101533960Y-64733714D01*
X101570245Y-64878857D01*
X101642817Y-64951428D01*
X101715388Y-64987714D01*
X101860531Y-64987714D01*
X101933102Y-64951428D01*
X102005674Y-64878857D01*
X102041960Y-64733714D01*
X102041960Y-64479714D01*
X102005674Y-64334571D01*
X101933102Y-64262000D01*
X101860531Y-64225714D01*
X100844531Y-64987714D02*
X101207388Y-64987714D01*
X101207388Y-64225714D01*
X100626817Y-64770000D02*
X100263960Y-64770000D01*
X100699388Y-64987714D02*
X100445388Y-64225714D01*
X100191388Y-64987714D01*
X99501960Y-64987714D02*
X99755960Y-64624857D01*
X99937388Y-64987714D02*
X99937388Y-64225714D01*
X99647102Y-64225714D01*
X99574531Y-64262000D01*
X99538245Y-64298285D01*
X99501960Y-64370857D01*
X99501960Y-64479714D01*
X99538245Y-64552285D01*
X99574531Y-64588571D01*
X99647102Y-64624857D01*
X99937388Y-64624857D01*
X118316103Y-58293000D02*
X118388675Y-58256714D01*
X118497532Y-58256714D01*
X118606389Y-58293000D01*
X118678960Y-58365571D01*
X118715246Y-58438142D01*
X118751532Y-58583285D01*
X118751532Y-58692142D01*
X118715246Y-58837285D01*
X118678960Y-58909857D01*
X118606389Y-58982428D01*
X118497532Y-59018714D01*
X118424960Y-59018714D01*
X118316103Y-58982428D01*
X118279817Y-58946142D01*
X118279817Y-58692142D01*
X118424960Y-58692142D01*
X117953246Y-59018714D02*
X117953246Y-58256714D01*
X117517817Y-59018714D01*
X117517817Y-58256714D01*
X117154960Y-59018714D02*
X117154960Y-58256714D01*
X116973532Y-58256714D01*
X116864675Y-58293000D01*
X116792103Y-58365571D01*
X116755817Y-58438142D01*
X116719532Y-58583285D01*
X116719532Y-58692142D01*
X116755817Y-58837285D01*
X116792103Y-58909857D01*
X116864675Y-58982428D01*
X116973532Y-59018714D01*
X117154960Y-59018714D01*
D13*
X128468422Y-54519285D02*
X128498660Y-54549523D01*
X128589374Y-54579761D01*
X128649850Y-54579761D01*
X128740565Y-54549523D01*
X128801041Y-54489047D01*
X128831279Y-54428571D01*
X128861517Y-54307619D01*
X128861517Y-54216904D01*
X128831279Y-54095952D01*
X128801041Y-54035476D01*
X128740565Y-53975000D01*
X128649850Y-53944761D01*
X128589374Y-53944761D01*
X128498660Y-53975000D01*
X128468422Y-54005238D01*
X127924136Y-54579761D02*
X127924136Y-54247142D01*
X127954374Y-54186666D01*
X128014850Y-54156428D01*
X128135803Y-54156428D01*
X128196279Y-54186666D01*
X127924136Y-54549523D02*
X127984612Y-54579761D01*
X128135803Y-54579761D01*
X128196279Y-54549523D01*
X128226517Y-54489047D01*
X128226517Y-54428571D01*
X128196279Y-54368095D01*
X128135803Y-54337857D01*
X127984612Y-54337857D01*
X127924136Y-54307619D01*
X127621755Y-54579761D02*
X127621755Y-53944761D01*
X127621755Y-54186666D02*
X127561279Y-54156428D01*
X127440327Y-54156428D01*
X127379850Y-54186666D01*
X127349612Y-54216904D01*
X127319374Y-54277380D01*
X127319374Y-54458809D01*
X127349612Y-54519285D01*
X127379850Y-54549523D01*
X127440327Y-54579761D01*
X127561279Y-54579761D01*
X127621755Y-54549523D01*
X126956517Y-54579761D02*
X127016993Y-54549523D01*
X127047231Y-54489047D01*
X127047231Y-53944761D01*
X126472708Y-54549523D02*
X126533184Y-54579761D01*
X126654136Y-54579761D01*
X126714612Y-54549523D01*
X126744850Y-54489047D01*
X126744850Y-54247142D01*
X126714612Y-54186666D01*
X126654136Y-54156428D01*
X126533184Y-54156428D01*
X126472708Y-54186666D01*
X126442470Y-54247142D01*
X126442470Y-54307619D01*
X126744850Y-54368095D01*
X125686517Y-54579761D02*
X125686517Y-53944761D01*
X125444612Y-53944761D01*
X125384136Y-53975000D01*
X125353898Y-54005238D01*
X125323660Y-54065714D01*
X125323660Y-54156428D01*
X125353898Y-54216904D01*
X125384136Y-54247142D01*
X125444612Y-54277380D01*
X125686517Y-54277380D01*
X125051517Y-54579761D02*
X125051517Y-54156428D01*
X125051517Y-53944761D02*
X125081755Y-53975000D01*
X125051517Y-54005238D01*
X125021279Y-53975000D01*
X125051517Y-53944761D01*
X125051517Y-54005238D01*
X124749136Y-54156428D02*
X124749136Y-54579761D01*
X124749136Y-54216904D02*
X124718898Y-54186666D01*
X124658422Y-54156428D01*
X124567708Y-54156428D01*
X124507231Y-54186666D01*
X124476993Y-54247142D01*
X124476993Y-54579761D01*
X124083898Y-54579761D02*
X124144374Y-54549523D01*
X124174612Y-54519285D01*
X124204850Y-54458809D01*
X124204850Y-54277380D01*
X124174612Y-54216904D01*
X124144374Y-54186666D01*
X124083898Y-54156428D01*
X123993184Y-54156428D01*
X123932708Y-54186666D01*
X123902470Y-54216904D01*
X123872231Y-54277380D01*
X123872231Y-54458809D01*
X123902470Y-54519285D01*
X123932708Y-54549523D01*
X123993184Y-54579761D01*
X124083898Y-54579761D01*
X123327946Y-54156428D02*
X123327946Y-54579761D01*
X123600089Y-54156428D02*
X123600089Y-54489047D01*
X123569850Y-54549523D01*
X123509374Y-54579761D01*
X123418660Y-54579761D01*
X123358184Y-54549523D01*
X123327946Y-54519285D01*
X123116279Y-54156428D02*
X122874374Y-54156428D01*
X123025565Y-53944761D02*
X123025565Y-54489047D01*
X122995327Y-54549523D01*
X122934850Y-54579761D01*
X122874374Y-54579761D01*
X128498660Y-55608461D02*
X128861517Y-55608461D01*
X128680089Y-55608461D02*
X128680089Y-54973461D01*
X128740565Y-55064176D01*
X128801041Y-55124652D01*
X128861517Y-55154890D01*
X128226517Y-55547985D02*
X128196279Y-55578223D01*
X128226517Y-55608461D01*
X128256755Y-55578223D01*
X128226517Y-55547985D01*
X128226517Y-55608461D01*
X127712470Y-55275842D02*
X127621755Y-55306080D01*
X127591517Y-55336319D01*
X127561279Y-55396795D01*
X127561279Y-55487509D01*
X127591517Y-55547985D01*
X127621755Y-55578223D01*
X127682231Y-55608461D01*
X127924136Y-55608461D01*
X127924136Y-54973461D01*
X127712470Y-54973461D01*
X127651993Y-55003700D01*
X127621755Y-55033938D01*
X127591517Y-55094414D01*
X127591517Y-55154890D01*
X127621755Y-55215366D01*
X127651993Y-55245604D01*
X127712470Y-55275842D01*
X127924136Y-55275842D01*
X127319374Y-55427033D02*
X127016993Y-55427033D01*
X127379850Y-55608461D02*
X127168184Y-54973461D01*
X126956517Y-55608461D01*
X126835565Y-54973461D02*
X126472708Y-54973461D01*
X126654136Y-55608461D02*
X126654136Y-54973461D01*
X126351755Y-54973461D02*
X125988898Y-54973461D01*
X126170327Y-55608461D02*
X126170327Y-54973461D01*
X125928422Y-55668938D02*
X125444612Y-55668938D01*
X125293422Y-55608461D02*
X125293422Y-54973461D01*
X125051517Y-54973461D01*
X124991041Y-55003700D01*
X124960803Y-55033938D01*
X124930565Y-55094414D01*
X124930565Y-55185128D01*
X124960803Y-55245604D01*
X124991041Y-55275842D01*
X125051517Y-55306080D01*
X125293422Y-55306080D01*
X128861517Y-56062638D02*
X128831279Y-56032400D01*
X128770803Y-56002161D01*
X128619612Y-56002161D01*
X128559136Y-56032400D01*
X128528898Y-56062638D01*
X128498660Y-56123114D01*
X128498660Y-56183590D01*
X128528898Y-56274304D01*
X128891755Y-56637161D01*
X128498660Y-56637161D01*
X128226517Y-56576685D02*
X128196279Y-56606923D01*
X128226517Y-56637161D01*
X128256755Y-56606923D01*
X128226517Y-56576685D01*
X128226517Y-56637161D01*
X127712470Y-56304542D02*
X127621755Y-56334780D01*
X127591517Y-56365019D01*
X127561279Y-56425495D01*
X127561279Y-56516209D01*
X127591517Y-56576685D01*
X127621755Y-56606923D01*
X127682231Y-56637161D01*
X127924136Y-56637161D01*
X127924136Y-56002161D01*
X127712470Y-56002161D01*
X127651993Y-56032400D01*
X127621755Y-56062638D01*
X127591517Y-56123114D01*
X127591517Y-56183590D01*
X127621755Y-56244066D01*
X127651993Y-56274304D01*
X127712470Y-56304542D01*
X127924136Y-56304542D01*
X127319374Y-56455733D02*
X127016993Y-56455733D01*
X127379850Y-56637161D02*
X127168184Y-56002161D01*
X126956517Y-56637161D01*
X126835565Y-56002161D02*
X126472708Y-56002161D01*
X126654136Y-56637161D02*
X126654136Y-56002161D01*
X126351755Y-56002161D02*
X125988898Y-56002161D01*
X126170327Y-56637161D02*
X126170327Y-56002161D01*
X125928422Y-56697638D02*
X125444612Y-56697638D01*
X125293422Y-56637161D02*
X125293422Y-56002161D01*
X124930565Y-56637161D01*
X124930565Y-56002161D01*
X128891755Y-57030861D02*
X128498660Y-57030861D01*
X128710327Y-57272766D01*
X128619612Y-57272766D01*
X128559136Y-57303004D01*
X128528898Y-57333242D01*
X128498660Y-57393719D01*
X128498660Y-57544909D01*
X128528898Y-57605385D01*
X128559136Y-57635623D01*
X128619612Y-57665861D01*
X128801041Y-57665861D01*
X128861517Y-57635623D01*
X128891755Y-57605385D01*
X128226517Y-57605385D02*
X128196279Y-57635623D01*
X128226517Y-57665861D01*
X128256755Y-57635623D01*
X128226517Y-57605385D01*
X128226517Y-57665861D01*
X127954374Y-57635623D02*
X127863660Y-57665861D01*
X127712470Y-57665861D01*
X127651993Y-57635623D01*
X127621755Y-57605385D01*
X127591517Y-57544909D01*
X127591517Y-57484433D01*
X127621755Y-57423957D01*
X127651993Y-57393719D01*
X127712470Y-57363480D01*
X127833422Y-57333242D01*
X127893898Y-57303004D01*
X127924136Y-57272766D01*
X127954374Y-57212290D01*
X127954374Y-57151814D01*
X127924136Y-57091338D01*
X127893898Y-57061100D01*
X127833422Y-57030861D01*
X127682231Y-57030861D01*
X127591517Y-57061100D01*
X127319374Y-57665861D02*
X127319374Y-57030861D01*
X127168184Y-57030861D01*
X127077470Y-57061100D01*
X127016993Y-57121576D01*
X126986755Y-57182052D01*
X126956517Y-57303004D01*
X126956517Y-57393719D01*
X126986755Y-57514671D01*
X127016993Y-57575147D01*
X127077470Y-57635623D01*
X127168184Y-57665861D01*
X127319374Y-57665861D01*
X126714612Y-57484433D02*
X126412231Y-57484433D01*
X126775089Y-57665861D02*
X126563422Y-57030861D01*
X126351755Y-57665861D01*
X128559136Y-58271228D02*
X128559136Y-58694561D01*
X128710327Y-58029323D02*
X128861517Y-58482895D01*
X128468422Y-58482895D01*
X128226517Y-58634085D02*
X128196279Y-58664323D01*
X128226517Y-58694561D01*
X128256755Y-58664323D01*
X128226517Y-58634085D01*
X128226517Y-58694561D01*
X127954374Y-58664323D02*
X127863660Y-58694561D01*
X127712470Y-58694561D01*
X127651993Y-58664323D01*
X127621755Y-58634085D01*
X127591517Y-58573609D01*
X127591517Y-58513133D01*
X127621755Y-58452657D01*
X127651993Y-58422419D01*
X127712470Y-58392180D01*
X127833422Y-58361942D01*
X127893898Y-58331704D01*
X127924136Y-58301466D01*
X127954374Y-58240990D01*
X127954374Y-58180514D01*
X127924136Y-58120038D01*
X127893898Y-58089800D01*
X127833422Y-58059561D01*
X127682231Y-58059561D01*
X127591517Y-58089800D01*
X126956517Y-58634085D02*
X126986755Y-58664323D01*
X127077469Y-58694561D01*
X127137946Y-58694561D01*
X127228660Y-58664323D01*
X127289136Y-58603847D01*
X127319374Y-58543371D01*
X127349612Y-58422419D01*
X127349612Y-58331704D01*
X127319374Y-58210752D01*
X127289136Y-58150276D01*
X127228660Y-58089800D01*
X127137946Y-58059561D01*
X127077469Y-58059561D01*
X126986755Y-58089800D01*
X126956517Y-58120038D01*
X126381993Y-58694561D02*
X126684374Y-58694561D01*
X126684374Y-58059561D01*
X128528898Y-59088261D02*
X128831279Y-59088261D01*
X128861517Y-59390642D01*
X128831279Y-59360404D01*
X128770803Y-59330166D01*
X128619612Y-59330166D01*
X128559136Y-59360404D01*
X128528898Y-59390642D01*
X128498660Y-59451119D01*
X128498660Y-59602309D01*
X128528898Y-59662785D01*
X128559136Y-59693023D01*
X128619612Y-59723261D01*
X128770803Y-59723261D01*
X128831279Y-59693023D01*
X128861517Y-59662785D01*
X128226517Y-59662785D02*
X128196279Y-59693023D01*
X128226517Y-59723261D01*
X128256755Y-59693023D01*
X128226517Y-59662785D01*
X128226517Y-59723261D01*
X127712470Y-59390642D02*
X127621755Y-59420880D01*
X127591517Y-59451119D01*
X127561279Y-59511595D01*
X127561279Y-59602309D01*
X127591517Y-59662785D01*
X127621755Y-59693023D01*
X127682231Y-59723261D01*
X127924136Y-59723261D01*
X127924136Y-59088261D01*
X127712470Y-59088261D01*
X127651993Y-59118500D01*
X127621755Y-59148738D01*
X127591517Y-59209214D01*
X127591517Y-59269690D01*
X127621755Y-59330166D01*
X127651993Y-59360404D01*
X127712470Y-59390642D01*
X127924136Y-59390642D01*
X127289136Y-59088261D02*
X127289136Y-59602309D01*
X127258898Y-59662785D01*
X127228660Y-59693023D01*
X127168184Y-59723261D01*
X127047231Y-59723261D01*
X126986755Y-59693023D01*
X126956517Y-59662785D01*
X126926279Y-59602309D01*
X126926279Y-59088261D01*
X126261041Y-59723261D02*
X126472708Y-59420880D01*
X126623898Y-59723261D02*
X126623898Y-59088261D01*
X126381993Y-59088261D01*
X126321517Y-59118500D01*
X126291279Y-59148738D01*
X126261041Y-59209214D01*
X126261041Y-59299928D01*
X126291279Y-59360404D01*
X126321517Y-59390642D01*
X126381993Y-59420880D01*
X126623898Y-59420880D01*
X125988898Y-59723261D02*
X125988898Y-59088261D01*
X125626041Y-59723261D01*
X125626041Y-59088261D01*
X128559136Y-60116961D02*
X128680089Y-60116961D01*
X128740565Y-60147200D01*
X128770803Y-60177438D01*
X128831279Y-60268152D01*
X128861517Y-60389104D01*
X128861517Y-60631009D01*
X128831279Y-60691485D01*
X128801041Y-60721723D01*
X128740565Y-60751961D01*
X128619612Y-60751961D01*
X128559136Y-60721723D01*
X128528898Y-60691485D01*
X128498660Y-60631009D01*
X128498660Y-60479819D01*
X128528898Y-60419342D01*
X128559136Y-60389104D01*
X128619612Y-60358866D01*
X128740565Y-60358866D01*
X128801041Y-60389104D01*
X128831279Y-60419342D01*
X128861517Y-60479819D01*
X128226517Y-60691485D02*
X128196279Y-60721723D01*
X128226517Y-60751961D01*
X128256755Y-60721723D01*
X128226517Y-60691485D01*
X128226517Y-60751961D01*
X127984612Y-60116961D02*
X127591517Y-60116961D01*
X127803184Y-60358866D01*
X127712470Y-60358866D01*
X127651993Y-60389104D01*
X127621755Y-60419342D01*
X127591517Y-60479819D01*
X127591517Y-60631009D01*
X127621755Y-60691485D01*
X127651993Y-60721723D01*
X127712470Y-60751961D01*
X127893898Y-60751961D01*
X127954374Y-60721723D01*
X127984612Y-60691485D01*
X127410089Y-60116961D02*
X127198422Y-60751961D01*
X126986755Y-60116961D01*
X126835565Y-60116961D02*
X126442469Y-60116961D01*
X126654136Y-60358866D01*
X126563422Y-60358866D01*
X126502946Y-60389104D01*
X126472708Y-60419342D01*
X126442469Y-60479819D01*
X126442469Y-60631009D01*
X126472708Y-60691485D01*
X126502946Y-60721723D01*
X126563422Y-60751961D01*
X126744850Y-60751961D01*
X126805327Y-60721723D01*
X126835565Y-60691485D01*
X128891755Y-61145661D02*
X128468422Y-61145661D01*
X128740565Y-61780661D01*
X128226517Y-61720185D02*
X128196279Y-61750423D01*
X128226517Y-61780661D01*
X128256755Y-61750423D01*
X128226517Y-61720185D01*
X128226517Y-61780661D01*
X127591517Y-61175900D02*
X127651993Y-61145661D01*
X127742708Y-61145661D01*
X127833422Y-61175900D01*
X127893898Y-61236376D01*
X127924136Y-61296852D01*
X127954374Y-61417804D01*
X127954374Y-61508519D01*
X127924136Y-61629471D01*
X127893898Y-61689947D01*
X127833422Y-61750423D01*
X127742708Y-61780661D01*
X127682231Y-61780661D01*
X127591517Y-61750423D01*
X127561279Y-61720185D01*
X127561279Y-61508519D01*
X127682231Y-61508519D01*
X127289136Y-61780661D02*
X127289136Y-61145661D01*
X126926279Y-61780661D01*
X126926279Y-61145661D01*
X126623898Y-61780661D02*
X126623898Y-61145661D01*
X126472708Y-61145661D01*
X126381993Y-61175900D01*
X126321517Y-61236376D01*
X126291279Y-61296852D01*
X126261041Y-61417804D01*
X126261041Y-61508519D01*
X126291279Y-61629471D01*
X126321517Y-61689947D01*
X126381993Y-61750423D01*
X126472708Y-61780661D01*
X126623898Y-61780661D01*
X128740565Y-62446504D02*
X128801041Y-62416266D01*
X128831279Y-62386028D01*
X128861517Y-62325552D01*
X128861517Y-62295314D01*
X128831279Y-62234838D01*
X128801041Y-62204600D01*
X128740565Y-62174361D01*
X128619612Y-62174361D01*
X128559136Y-62204600D01*
X128528898Y-62234838D01*
X128498660Y-62295314D01*
X128498660Y-62325552D01*
X128528898Y-62386028D01*
X128559136Y-62416266D01*
X128619612Y-62446504D01*
X128740565Y-62446504D01*
X128801041Y-62476742D01*
X128831279Y-62506980D01*
X128861517Y-62567457D01*
X128861517Y-62688409D01*
X128831279Y-62748885D01*
X128801041Y-62779123D01*
X128740565Y-62809361D01*
X128619612Y-62809361D01*
X128559136Y-62779123D01*
X128528898Y-62748885D01*
X128498660Y-62688409D01*
X128498660Y-62567457D01*
X128528898Y-62506980D01*
X128559136Y-62476742D01*
X128619612Y-62446504D01*
X128226517Y-62748885D02*
X128196279Y-62779123D01*
X128226517Y-62809361D01*
X128256755Y-62779123D01*
X128226517Y-62748885D01*
X128226517Y-62809361D01*
X127591517Y-62204600D02*
X127651993Y-62174361D01*
X127742708Y-62174361D01*
X127833422Y-62204600D01*
X127893898Y-62265076D01*
X127924136Y-62325552D01*
X127954374Y-62446504D01*
X127954374Y-62537219D01*
X127924136Y-62658171D01*
X127893898Y-62718647D01*
X127833422Y-62779123D01*
X127742708Y-62809361D01*
X127682231Y-62809361D01*
X127591517Y-62779123D01*
X127561279Y-62748885D01*
X127561279Y-62537219D01*
X127682231Y-62537219D01*
X127289136Y-62809361D02*
X127289136Y-62174361D01*
X126926279Y-62809361D01*
X126926279Y-62174361D01*
X126623898Y-62809361D02*
X126623898Y-62174361D01*
X126472708Y-62174361D01*
X126381993Y-62204600D01*
X126321517Y-62265076D01*
X126291279Y-62325552D01*
X126261041Y-62446504D01*
X126261041Y-62537219D01*
X126291279Y-62658171D01*
X126321517Y-62718647D01*
X126381993Y-62779123D01*
X126472708Y-62809361D01*
X126623898Y-62809361D01*
X128801041Y-63838061D02*
X128680089Y-63838061D01*
X128619612Y-63807823D01*
X128589374Y-63777585D01*
X128528898Y-63686871D01*
X128498660Y-63565919D01*
X128498660Y-63324014D01*
X128528898Y-63263538D01*
X128559136Y-63233300D01*
X128619612Y-63203061D01*
X128740565Y-63203061D01*
X128801041Y-63233300D01*
X128831279Y-63263538D01*
X128861517Y-63324014D01*
X128861517Y-63475204D01*
X128831279Y-63535680D01*
X128801041Y-63565919D01*
X128740565Y-63596157D01*
X128619612Y-63596157D01*
X128559136Y-63565919D01*
X128528898Y-63535680D01*
X128498660Y-63475204D01*
X128226517Y-63777585D02*
X128196279Y-63807823D01*
X128226517Y-63838061D01*
X128256755Y-63807823D01*
X128226517Y-63777585D01*
X128226517Y-63838061D01*
X127561279Y-63777585D02*
X127591517Y-63807823D01*
X127682231Y-63838061D01*
X127742708Y-63838061D01*
X127833422Y-63807823D01*
X127893898Y-63747347D01*
X127924136Y-63686871D01*
X127954374Y-63565919D01*
X127954374Y-63475204D01*
X127924136Y-63354252D01*
X127893898Y-63293776D01*
X127833422Y-63233300D01*
X127742708Y-63203061D01*
X127682231Y-63203061D01*
X127591517Y-63233300D01*
X127561279Y-63263538D01*
X127168184Y-63203061D02*
X127047231Y-63203061D01*
X126986755Y-63233300D01*
X126926279Y-63293776D01*
X126896041Y-63414728D01*
X126896041Y-63626395D01*
X126926279Y-63747347D01*
X126986755Y-63807823D01*
X127047231Y-63838061D01*
X127168184Y-63838061D01*
X127228660Y-63807823D01*
X127289136Y-63747347D01*
X127319374Y-63626395D01*
X127319374Y-63414728D01*
X127289136Y-63293776D01*
X127228660Y-63233300D01*
X127168184Y-63203061D01*
X126623898Y-63838061D02*
X126623898Y-63203061D01*
X126019136Y-63838061D02*
X126321517Y-63838061D01*
X126321517Y-63203061D01*
X125958660Y-63898538D02*
X125474850Y-63898538D01*
X125323660Y-63838061D02*
X125323660Y-63203061D01*
X124960803Y-63838061D01*
X124960803Y-63203061D01*
X128498660Y-64866761D02*
X128861517Y-64866761D01*
X128680089Y-64866761D02*
X128680089Y-64231761D01*
X128740565Y-64322476D01*
X128801041Y-64382952D01*
X128861517Y-64413190D01*
X128105565Y-64231761D02*
X128045089Y-64231761D01*
X127984612Y-64262000D01*
X127954374Y-64292238D01*
X127924136Y-64352714D01*
X127893898Y-64473666D01*
X127893898Y-64624857D01*
X127924136Y-64745809D01*
X127954374Y-64806285D01*
X127984612Y-64836523D01*
X128045089Y-64866761D01*
X128105565Y-64866761D01*
X128166041Y-64836523D01*
X128196279Y-64806285D01*
X128226517Y-64745809D01*
X128256755Y-64624857D01*
X128256755Y-64473666D01*
X128226517Y-64352714D01*
X128196279Y-64292238D01*
X128166041Y-64262000D01*
X128105565Y-64231761D01*
X127621755Y-64806285D02*
X127591517Y-64836523D01*
X127621755Y-64866761D01*
X127651993Y-64836523D01*
X127621755Y-64806285D01*
X127621755Y-64866761D01*
X126956517Y-64806285D02*
X126986755Y-64836523D01*
X127077470Y-64866761D01*
X127137946Y-64866761D01*
X127228660Y-64836523D01*
X127289136Y-64776047D01*
X127319374Y-64715571D01*
X127349612Y-64594619D01*
X127349612Y-64503904D01*
X127319374Y-64382952D01*
X127289136Y-64322476D01*
X127228660Y-64262000D01*
X127137946Y-64231761D01*
X127077470Y-64231761D01*
X126986755Y-64262000D01*
X126956517Y-64292238D01*
X126563422Y-64231761D02*
X126442470Y-64231761D01*
X126381993Y-64262000D01*
X126321517Y-64322476D01*
X126291279Y-64443428D01*
X126291279Y-64655095D01*
X126321517Y-64776047D01*
X126381993Y-64836523D01*
X126442470Y-64866761D01*
X126563422Y-64866761D01*
X126623898Y-64836523D01*
X126684374Y-64776047D01*
X126714612Y-64655095D01*
X126714612Y-64443428D01*
X126684374Y-64322476D01*
X126623898Y-64262000D01*
X126563422Y-64231761D01*
X126019136Y-64866761D02*
X126019136Y-64231761D01*
X125414374Y-64866761D02*
X125716755Y-64866761D01*
X125716755Y-64231761D01*
X125353898Y-64927238D02*
X124870089Y-64927238D01*
X124718898Y-64866761D02*
X124718898Y-64231761D01*
X124476993Y-64231761D01*
X124416517Y-64262000D01*
X124386279Y-64292238D01*
X124356041Y-64352714D01*
X124356041Y-64443428D01*
X124386279Y-64503904D01*
X124416517Y-64534142D01*
X124476993Y-64564380D01*
X124718898Y-64564380D01*
D10*
X104013000Y-51054000D02*
X101981000Y-51054000D01*
X104013000Y-49911000D02*
X104013000Y-51054000D01*
X101981000Y-49911000D02*
X104013000Y-49911000D01*
X101981000Y-51054000D02*
X101981000Y-49911000D01*
X102806500Y-59880500D02*
X100774500Y-59880500D01*
X102806500Y-58674000D02*
X102806500Y-59880500D01*
X100774500Y-58674000D02*
X102806500Y-58674000D01*
X100774500Y-59880500D02*
X100774500Y-58674000D01*
D14*
X97146857Y-66397142D02*
X97194476Y-66444761D01*
X97337333Y-66492380D01*
X97432571Y-66492380D01*
X97575428Y-66444761D01*
X97670666Y-66349523D01*
X97718285Y-66254285D01*
X97765904Y-66063809D01*
X97765904Y-65920952D01*
X97718285Y-65730476D01*
X97670666Y-65635238D01*
X97575428Y-65540000D01*
X97432571Y-65492380D01*
X97337333Y-65492380D01*
X97194476Y-65540000D01*
X97146857Y-65587619D01*
X96575428Y-66492380D02*
X96670666Y-66444761D01*
X96718285Y-66397142D01*
X96765904Y-66301904D01*
X96765904Y-66016190D01*
X96718285Y-65920952D01*
X96670666Y-65873333D01*
X96575428Y-65825714D01*
X96432571Y-65825714D01*
X96337333Y-65873333D01*
X96289714Y-65920952D01*
X96242095Y-66016190D01*
X96242095Y-66301904D01*
X96289714Y-66397142D01*
X96337333Y-66444761D01*
X96432571Y-66492380D01*
X96575428Y-66492380D01*
X95813523Y-66492380D02*
X95813523Y-65825714D01*
X95813523Y-65492380D02*
X95861142Y-65540000D01*
X95813523Y-65587619D01*
X95765904Y-65540000D01*
X95813523Y-65492380D01*
X95813523Y-65587619D01*
X95194476Y-66492380D02*
X95289714Y-66444761D01*
X95337333Y-66349523D01*
X95337333Y-65492380D01*
X94051619Y-66111428D02*
X93289714Y-66111428D01*
X97146857Y-63857142D02*
X97194476Y-63904761D01*
X97337333Y-63952380D01*
X97432571Y-63952380D01*
X97575428Y-63904761D01*
X97670666Y-63809523D01*
X97718285Y-63714285D01*
X97765904Y-63523809D01*
X97765904Y-63380952D01*
X97718285Y-63190476D01*
X97670666Y-63095238D01*
X97575428Y-63000000D01*
X97432571Y-62952380D01*
X97337333Y-62952380D01*
X97194476Y-63000000D01*
X97146857Y-63047619D01*
X96575428Y-63952380D02*
X96670666Y-63904761D01*
X96718285Y-63857142D01*
X96765904Y-63761904D01*
X96765904Y-63476190D01*
X96718285Y-63380952D01*
X96670666Y-63333333D01*
X96575428Y-63285714D01*
X96432571Y-63285714D01*
X96337333Y-63333333D01*
X96289714Y-63380952D01*
X96242095Y-63476190D01*
X96242095Y-63761904D01*
X96289714Y-63857142D01*
X96337333Y-63904761D01*
X96432571Y-63952380D01*
X96575428Y-63952380D01*
X95813523Y-63952380D02*
X95813523Y-63285714D01*
X95813523Y-62952380D02*
X95861142Y-63000000D01*
X95813523Y-63047619D01*
X95765904Y-63000000D01*
X95813523Y-62952380D01*
X95813523Y-63047619D01*
X95194476Y-63952380D02*
X95289714Y-63904761D01*
X95337333Y-63809523D01*
X95337333Y-62952380D01*
X94051619Y-63571428D02*
X93289714Y-63571428D01*
X93670666Y-63952380D02*
X93670666Y-63190476D01*
D15*
X96200000Y-47000000D02*
G75*
G03X96200000Y-47000000I-1100000J0D01*
G01*
X96200000Y-81400000D02*
G75*
G03X96200000Y-81400000I-1100000J0D01*
G01*
X136000000Y-81400000D02*
G75*
G03X136000000Y-81400000I-1100000J0D01*
G01*
X136000000Y-47000000D02*
G75*
G03X136000000Y-47000000I-1100000J0D01*
G01*
X90000000Y-88400000D02*
X138400000Y-88400000D01*
X90000000Y-88400000D02*
X90000000Y-40000000D01*
X138400000Y-40000000D02*
X138400000Y-88400000D01*
X90000000Y-40000000D02*
X138400000Y-40000000D01*
D10*
X102300000Y-62865000D02*
G75*
G03X102300000Y-62865000I-700000J0D01*
G01*
X106872000Y-62865000D02*
G75*
G03X106872000Y-62865000I-700000J0D01*
G01*
X120588000Y-58674000D02*
G75*
G03X120588000Y-58674000I-700000J0D01*
G01*
X120588000Y-62992000D02*
G75*
G03X120588000Y-62992000I-700000J0D01*
G01*
X111758000Y-47843221D02*
X111758000Y-48168779D01*
X112778000Y-47843221D02*
X112778000Y-48168779D01*
X118010721Y-53846000D02*
X118336279Y-53846000D01*
X118010721Y-54866000D02*
X118336279Y-54866000D01*
D16*
X104868660Y-52894656D02*
G75*
G03X104868660Y-52894656I-125000J0D01*
G01*
D17*
X99795000Y-58346000D02*
G75*
G03X99795000Y-58346000I-19000J0D01*
G01*
D10*
X98500000Y-52050000D02*
X98500000Y-51650000D01*
X100400000Y-52650000D02*
X100400000Y-49850000D01*
X98600000Y-52650000D02*
X100400000Y-52650000D01*
X98600000Y-49850000D02*
X98600000Y-52650000D01*
X100400000Y-49850000D02*
X98600000Y-49850000D01*
X122500000Y-54950000D02*
X122500000Y-55350000D01*
X120600000Y-54350000D02*
X120600000Y-57150000D01*
X122400000Y-54350000D02*
X120600000Y-54350000D01*
X122400000Y-57150000D02*
X122400000Y-54350000D01*
X120600000Y-57150000D02*
X122400000Y-57150000D01*
D17*
X114102500Y-53668000D02*
G75*
G03X114102500Y-53668000I-19000J0D01*
G01*
X121085000Y-43756000D02*
X121085000Y-52256000D01*
X116205000Y-43756000D02*
X119055000Y-43756000D01*
X116205000Y-52256000D02*
X119055000Y-52256000D01*
X116205000Y-43756000D02*
X116205000Y-45306000D01*
X116205000Y-52256000D02*
X116205000Y-50706000D01*
D10*
X117883721Y-56259000D02*
X118209279Y-56259000D01*
X117883721Y-57279000D02*
X118209279Y-57279000D01*
D18*
X108282740Y-55973980D02*
G75*
G03X108282740Y-55973980I-127000J0D01*
G01*
D19*
X111375190Y-57923430D02*
X110016290Y-57923430D01*
X110016290Y-54024530D02*
X111375190Y-54024530D01*
X102320550Y-54057550D02*
X103679450Y-54057550D01*
X103679450Y-57956450D02*
X102320550Y-57956450D01*
D18*
X100587000Y-56007000D02*
G75*
G03X100587000Y-56007000I-127000J0D01*
G01*
D10*
X106707721Y-58799000D02*
X107033279Y-58799000D01*
X106707721Y-59819000D02*
X107033279Y-59819000D01*
D12*
X112603642Y-45720000D02*
X112639928Y-45683714D01*
X112676214Y-45574857D01*
X112676214Y-45502285D01*
X112639928Y-45393428D01*
X112567357Y-45320857D01*
X112494785Y-45284571D01*
X112349642Y-45248285D01*
X112240785Y-45248285D01*
X112095642Y-45284571D01*
X112023071Y-45320857D01*
X111950500Y-45393428D01*
X111914214Y-45502285D01*
X111914214Y-45574857D01*
X111950500Y-45683714D01*
X111986785Y-45720000D01*
X111914214Y-46373142D02*
X111914214Y-46228000D01*
X111950500Y-46155428D01*
X111986785Y-46119142D01*
X112095642Y-46046571D01*
X112240785Y-46010285D01*
X112531071Y-46010285D01*
X112603642Y-46046571D01*
X112639928Y-46082857D01*
X112676214Y-46155428D01*
X112676214Y-46300571D01*
X112639928Y-46373142D01*
X112603642Y-46409428D01*
X112531071Y-46445714D01*
X112349642Y-46445714D01*
X112277071Y-46409428D01*
X112240785Y-46373142D01*
X112204500Y-46300571D01*
X112204500Y-46155428D01*
X112240785Y-46082857D01*
X112277071Y-46046571D01*
X112349642Y-46010285D01*
X107061000Y-57104642D02*
X107097285Y-57140928D01*
X107206142Y-57177214D01*
X107278714Y-57177214D01*
X107387571Y-57140928D01*
X107460142Y-57068357D01*
X107496428Y-56995785D01*
X107532714Y-56850642D01*
X107532714Y-56741785D01*
X107496428Y-56596642D01*
X107460142Y-56524071D01*
X107387571Y-56451500D01*
X107278714Y-56415214D01*
X107206142Y-56415214D01*
X107097285Y-56451500D01*
X107061000Y-56487785D01*
X106698142Y-57177214D02*
X106553000Y-57177214D01*
X106480428Y-57140928D01*
X106444142Y-57104642D01*
X106371571Y-56995785D01*
X106335285Y-56850642D01*
X106335285Y-56560357D01*
X106371571Y-56487785D01*
X106407857Y-56451500D01*
X106480428Y-56415214D01*
X106625571Y-56415214D01*
X106698142Y-56451500D01*
X106734428Y-56487785D01*
X106770714Y-56560357D01*
X106770714Y-56741785D01*
X106734428Y-56814357D01*
X106698142Y-56850642D01*
X106625571Y-56886928D01*
X106480428Y-56886928D01*
X106407857Y-56850642D01*
X106371571Y-56814357D01*
X106335285Y-56741785D01*
X119139857Y-53622142D02*
X119176142Y-53658428D01*
X119285000Y-53694714D01*
X119357571Y-53694714D01*
X119466428Y-53658428D01*
X119539000Y-53585857D01*
X119575285Y-53513285D01*
X119611571Y-53368142D01*
X119611571Y-53259285D01*
X119575285Y-53114142D01*
X119539000Y-53041571D01*
X119466428Y-52969000D01*
X119357571Y-52932714D01*
X119285000Y-52932714D01*
X119176142Y-52969000D01*
X119139857Y-53005285D01*
X118414142Y-53694714D02*
X118849571Y-53694714D01*
X118631857Y-53694714D02*
X118631857Y-52932714D01*
X118704428Y-53041571D01*
X118777000Y-53114142D01*
X118849571Y-53150428D01*
X117761000Y-53186714D02*
X117761000Y-53694714D01*
X117942428Y-52896428D02*
X118123857Y-53440714D01*
X117652142Y-53440714D01*
X101822325Y-53275714D02*
X101822325Y-52513714D01*
X101640897Y-52513714D01*
X101532040Y-52550000D01*
X101459468Y-52622571D01*
X101423182Y-52695142D01*
X101386897Y-52840285D01*
X101386897Y-52949142D01*
X101423182Y-53094285D01*
X101459468Y-53166857D01*
X101532040Y-53239428D01*
X101640897Y-53275714D01*
X101822325Y-53275714D01*
X100661182Y-53275714D02*
X101096611Y-53275714D01*
X100878897Y-53275714D02*
X100878897Y-52513714D01*
X100951468Y-52622571D01*
X101024040Y-52695142D01*
X101096611Y-52731428D01*
X108657571Y-47969714D02*
X108657571Y-48586571D01*
X108621285Y-48659142D01*
X108585000Y-48695428D01*
X108512428Y-48731714D01*
X108367285Y-48731714D01*
X108294714Y-48695428D01*
X108258428Y-48659142D01*
X108222142Y-48586571D01*
X108222142Y-47969714D01*
X107895571Y-48042285D02*
X107859285Y-48006000D01*
X107786714Y-47969714D01*
X107605285Y-47969714D01*
X107532714Y-48006000D01*
X107496428Y-48042285D01*
X107460142Y-48114857D01*
X107460142Y-48187428D01*
X107496428Y-48296285D01*
X107931857Y-48731714D01*
X107460142Y-48731714D01*
X98697714Y-55952571D02*
X97935714Y-55952571D01*
X97935714Y-56134000D01*
X97972000Y-56242857D01*
X98044571Y-56315428D01*
X98117142Y-56351714D01*
X98262285Y-56388000D01*
X98371142Y-56388000D01*
X98516285Y-56351714D01*
X98588857Y-56315428D01*
X98661428Y-56242857D01*
X98697714Y-56134000D01*
X98697714Y-55952571D01*
X97935714Y-56642000D02*
X97935714Y-57113714D01*
X98226000Y-56859714D01*
X98226000Y-56968571D01*
X98262285Y-57041142D01*
X98298571Y-57077428D01*
X98371142Y-57113714D01*
X98552571Y-57113714D01*
X98625142Y-57077428D01*
X98661428Y-57041142D01*
X98697714Y-56968571D01*
X98697714Y-56750857D01*
X98661428Y-56678285D01*
X98625142Y-56642000D01*
X99844714Y-46437571D02*
X99082714Y-46437571D01*
X99082714Y-46619000D01*
X99119000Y-46727857D01*
X99191571Y-46800428D01*
X99264142Y-46836714D01*
X99409285Y-46873000D01*
X99518142Y-46873000D01*
X99663285Y-46836714D01*
X99735857Y-46800428D01*
X99808428Y-46727857D01*
X99844714Y-46619000D01*
X99844714Y-46437571D01*
X99336714Y-47526142D02*
X99844714Y-47526142D01*
X99046428Y-47344714D02*
X99590714Y-47163285D01*
X99590714Y-47635000D01*
X123544714Y-56737571D02*
X122782714Y-56737571D01*
X122782714Y-56919000D01*
X122819000Y-57027857D01*
X122891571Y-57100428D01*
X122964142Y-57136714D01*
X123109285Y-57173000D01*
X123218142Y-57173000D01*
X123363285Y-57136714D01*
X123435857Y-57100428D01*
X123508428Y-57027857D01*
X123544714Y-56919000D01*
X123544714Y-56737571D01*
X122782714Y-57862428D02*
X122782714Y-57499571D01*
X123145571Y-57463285D01*
X123109285Y-57499571D01*
X123073000Y-57572142D01*
X123073000Y-57753571D01*
X123109285Y-57826142D01*
X123145571Y-57862428D01*
X123218142Y-57898714D01*
X123399571Y-57898714D01*
X123472142Y-57862428D01*
X123508428Y-57826142D01*
X123544714Y-57753571D01*
X123544714Y-57572142D01*
X123508428Y-57499571D01*
X123472142Y-57463285D01*
X114073214Y-52142571D02*
X113311214Y-52142571D01*
X113311214Y-52324000D01*
X113347500Y-52432857D01*
X113420071Y-52505428D01*
X113492642Y-52541714D01*
X113637785Y-52578000D01*
X113746642Y-52578000D01*
X113891785Y-52541714D01*
X113964357Y-52505428D01*
X114036928Y-52432857D01*
X114073214Y-52324000D01*
X114073214Y-52142571D01*
X113383785Y-52868285D02*
X113347500Y-52904571D01*
X113311214Y-52977142D01*
X113311214Y-53158571D01*
X113347500Y-53231142D01*
X113383785Y-53267428D01*
X113456357Y-53303714D01*
X113528928Y-53303714D01*
X113637785Y-53267428D01*
X114073214Y-52832000D01*
X114073214Y-53303714D01*
X103632000Y-46826714D02*
X103886000Y-46463857D01*
X104067428Y-46826714D02*
X104067428Y-46064714D01*
X103777142Y-46064714D01*
X103704571Y-46101000D01*
X103668285Y-46137285D01*
X103632000Y-46209857D01*
X103632000Y-46318714D01*
X103668285Y-46391285D01*
X103704571Y-46427571D01*
X103777142Y-46463857D01*
X104067428Y-46463857D01*
X102978857Y-46064714D02*
X103124000Y-46064714D01*
X103196571Y-46101000D01*
X103232857Y-46137285D01*
X103305428Y-46246142D01*
X103341714Y-46391285D01*
X103341714Y-46681571D01*
X103305428Y-46754142D01*
X103269142Y-46790428D01*
X103196571Y-46826714D01*
X103051428Y-46826714D01*
X102978857Y-46790428D01*
X102942571Y-46754142D01*
X102906285Y-46681571D01*
X102906285Y-46500142D01*
X102942571Y-46427571D01*
X102978857Y-46391285D01*
X103051428Y-46355000D01*
X103196571Y-46355000D01*
X103269142Y-46391285D01*
X103305428Y-46427571D01*
X103341714Y-46500142D01*
X105564214Y-44958000D02*
X105201357Y-44704000D01*
X105564214Y-44522571D02*
X104802214Y-44522571D01*
X104802214Y-44812857D01*
X104838500Y-44885428D01*
X104874785Y-44921714D01*
X104947357Y-44958000D01*
X105056214Y-44958000D01*
X105128785Y-44921714D01*
X105165071Y-44885428D01*
X105201357Y-44812857D01*
X105201357Y-44522571D01*
X104802214Y-45647428D02*
X104802214Y-45284571D01*
X105165071Y-45248285D01*
X105128785Y-45284571D01*
X105092500Y-45357142D01*
X105092500Y-45538571D01*
X105128785Y-45611142D01*
X105165071Y-45647428D01*
X105237642Y-45683714D01*
X105419071Y-45683714D01*
X105491642Y-45647428D01*
X105527928Y-45611142D01*
X105564214Y-45538571D01*
X105564214Y-45357142D01*
X105527928Y-45284571D01*
X105491642Y-45248285D01*
X104883857Y-61050714D02*
X105137857Y-60687857D01*
X105319285Y-61050714D02*
X105319285Y-60288714D01*
X105029000Y-60288714D01*
X104956428Y-60325000D01*
X104920142Y-60361285D01*
X104883857Y-60433857D01*
X104883857Y-60542714D01*
X104920142Y-60615285D01*
X104956428Y-60651571D01*
X105029000Y-60687857D01*
X105319285Y-60687857D01*
X104158142Y-61050714D02*
X104593571Y-61050714D01*
X104375857Y-61050714D02*
X104375857Y-60288714D01*
X104448428Y-60397571D01*
X104521000Y-60470142D01*
X104593571Y-60506428D01*
X103505000Y-60288714D02*
X103650142Y-60288714D01*
X103722714Y-60325000D01*
X103759000Y-60361285D01*
X103831571Y-60470142D01*
X103867857Y-60615285D01*
X103867857Y-60905571D01*
X103831571Y-60978142D01*
X103795285Y-61014428D01*
X103722714Y-61050714D01*
X103577571Y-61050714D01*
X103505000Y-61014428D01*
X103468714Y-60978142D01*
X103432428Y-60905571D01*
X103432428Y-60724142D01*
X103468714Y-60651571D01*
X103505000Y-60615285D01*
X103577571Y-60579000D01*
X103722714Y-60579000D01*
X103795285Y-60615285D01*
X103831571Y-60651571D01*
X103867857Y-60724142D01*
X107061000Y-55136142D02*
X107097285Y-55172428D01*
X107206142Y-55208714D01*
X107278714Y-55208714D01*
X107387571Y-55172428D01*
X107460142Y-55099857D01*
X107496428Y-55027285D01*
X107532714Y-54882142D01*
X107532714Y-54773285D01*
X107496428Y-54628142D01*
X107460142Y-54555571D01*
X107387571Y-54483000D01*
X107278714Y-54446714D01*
X107206142Y-54446714D01*
X107097285Y-54483000D01*
X107061000Y-54519285D01*
X106625571Y-54773285D02*
X106698142Y-54737000D01*
X106734428Y-54700714D01*
X106770714Y-54628142D01*
X106770714Y-54591857D01*
X106734428Y-54519285D01*
X106698142Y-54483000D01*
X106625571Y-54446714D01*
X106480428Y-54446714D01*
X106407857Y-54483000D01*
X106371571Y-54519285D01*
X106335285Y-54591857D01*
X106335285Y-54628142D01*
X106371571Y-54700714D01*
X106407857Y-54737000D01*
X106480428Y-54773285D01*
X106625571Y-54773285D01*
X106698142Y-54809571D01*
X106734428Y-54845857D01*
X106770714Y-54918428D01*
X106770714Y-55063571D01*
X106734428Y-55136142D01*
X106698142Y-55172428D01*
X106625571Y-55208714D01*
X106480428Y-55208714D01*
X106407857Y-55172428D01*
X106371571Y-55136142D01*
X106335285Y-55063571D01*
X106335285Y-54918428D01*
X106371571Y-54845857D01*
X106407857Y-54809571D01*
X106480428Y-54773285D01*
X118471754Y-47380140D02*
X119016040Y-47380140D01*
X119124897Y-47343854D01*
X119197468Y-47271282D01*
X119233754Y-47162425D01*
X119233754Y-47089854D01*
X119233754Y-48142140D02*
X119233754Y-47706711D01*
X119233754Y-47924425D02*
X118471754Y-47924425D01*
X118580611Y-47851854D01*
X118653182Y-47779282D01*
X118689468Y-47706711D01*
X118739857Y-55922142D02*
X118776142Y-55958428D01*
X118885000Y-55994714D01*
X118957571Y-55994714D01*
X119066428Y-55958428D01*
X119139000Y-55885857D01*
X119175285Y-55813285D01*
X119211571Y-55668142D01*
X119211571Y-55559285D01*
X119175285Y-55414142D01*
X119139000Y-55341571D01*
X119066428Y-55269000D01*
X118957571Y-55232714D01*
X118885000Y-55232714D01*
X118776142Y-55269000D01*
X118739857Y-55305285D01*
X118014142Y-55994714D02*
X118449571Y-55994714D01*
X118231857Y-55994714D02*
X118231857Y-55232714D01*
X118304428Y-55341571D01*
X118377000Y-55414142D01*
X118449571Y-55450428D01*
X117723857Y-55305285D02*
X117687571Y-55269000D01*
X117615000Y-55232714D01*
X117433571Y-55232714D01*
X117361000Y-55269000D01*
X117324714Y-55305285D01*
X117288428Y-55377857D01*
X117288428Y-55450428D01*
X117324714Y-55559285D01*
X117760142Y-55994714D01*
X117288428Y-55994714D01*
X115143642Y-51961142D02*
X115179928Y-51924857D01*
X115216214Y-51816000D01*
X115216214Y-51743428D01*
X115179928Y-51634571D01*
X115107357Y-51562000D01*
X115034785Y-51525714D01*
X114889642Y-51489428D01*
X114780785Y-51489428D01*
X114635642Y-51525714D01*
X114563071Y-51562000D01*
X114490500Y-51634571D01*
X114454214Y-51743428D01*
X114454214Y-51816000D01*
X114490500Y-51924857D01*
X114526785Y-51961142D01*
X115216214Y-52686857D02*
X115216214Y-52251428D01*
X115216214Y-52469142D02*
X114454214Y-52469142D01*
X114563071Y-52396571D01*
X114635642Y-52324000D01*
X114671928Y-52251428D01*
X114454214Y-52940857D02*
X114454214Y-53412571D01*
X114744500Y-53158571D01*
X114744500Y-53267428D01*
X114780785Y-53340000D01*
X114817071Y-53376285D01*
X114889642Y-53412571D01*
X115071071Y-53412571D01*
X115143642Y-53376285D01*
X115179928Y-53340000D01*
X115216214Y-53267428D01*
X115216214Y-53049714D01*
X115179928Y-52977142D01*
X115143642Y-52940857D01*
X106834214Y-44958000D02*
X106471357Y-44704000D01*
X106834214Y-44522571D02*
X106072214Y-44522571D01*
X106072214Y-44812857D01*
X106108500Y-44885428D01*
X106144785Y-44921714D01*
X106217357Y-44958000D01*
X106326214Y-44958000D01*
X106398785Y-44921714D01*
X106435071Y-44885428D01*
X106471357Y-44812857D01*
X106471357Y-44522571D01*
X106072214Y-45212000D02*
X106072214Y-45720000D01*
X106834214Y-45393428D01*
X110852857Y-46736214D02*
X111106857Y-46373357D01*
X111288285Y-46736214D02*
X111288285Y-45974214D01*
X110998000Y-45974214D01*
X110925428Y-46010500D01*
X110889142Y-46046785D01*
X110852857Y-46119357D01*
X110852857Y-46228214D01*
X110889142Y-46300785D01*
X110925428Y-46337071D01*
X110998000Y-46373357D01*
X111288285Y-46373357D01*
X110127142Y-46736214D02*
X110562571Y-46736214D01*
X110344857Y-46736214D02*
X110344857Y-45974214D01*
X110417428Y-46083071D01*
X110490000Y-46155642D01*
X110562571Y-46191928D01*
X109401428Y-46736214D02*
X109836857Y-46736214D01*
X109619142Y-46736214D02*
X109619142Y-45974214D01*
X109691714Y-46083071D01*
X109764285Y-46155642D01*
X109836857Y-46191928D01*
X110490000Y-44196214D02*
X110744000Y-43833357D01*
X110925428Y-44196214D02*
X110925428Y-43434214D01*
X110635142Y-43434214D01*
X110562571Y-43470500D01*
X110526285Y-43506785D01*
X110490000Y-43579357D01*
X110490000Y-43688214D01*
X110526285Y-43760785D01*
X110562571Y-43797071D01*
X110635142Y-43833357D01*
X110925428Y-43833357D01*
X110127142Y-44196214D02*
X109982000Y-44196214D01*
X109909428Y-44159928D01*
X109873142Y-44123642D01*
X109800571Y-44014785D01*
X109764285Y-43869642D01*
X109764285Y-43579357D01*
X109800571Y-43506785D01*
X109836857Y-43470500D01*
X109909428Y-43434214D01*
X110054571Y-43434214D01*
X110127142Y-43470500D01*
X110163428Y-43506785D01*
X110199714Y-43579357D01*
X110199714Y-43760785D01*
X110163428Y-43833357D01*
X110127142Y-43869642D01*
X110054571Y-43905928D01*
X109909428Y-43905928D01*
X109836857Y-43869642D01*
X109800571Y-43833357D01*
X109764285Y-43760785D01*
X110852857Y-45466214D02*
X111106857Y-45103357D01*
X111288285Y-45466214D02*
X111288285Y-44704214D01*
X110998000Y-44704214D01*
X110925428Y-44740500D01*
X110889142Y-44776785D01*
X110852857Y-44849357D01*
X110852857Y-44958214D01*
X110889142Y-45030785D01*
X110925428Y-45067071D01*
X110998000Y-45103357D01*
X111288285Y-45103357D01*
X110127142Y-45466214D02*
X110562571Y-45466214D01*
X110344857Y-45466214D02*
X110344857Y-44704214D01*
X110417428Y-44813071D01*
X110490000Y-44885642D01*
X110562571Y-44921928D01*
X109655428Y-44704214D02*
X109582857Y-44704214D01*
X109510285Y-44740500D01*
X109474000Y-44776785D01*
X109437714Y-44849357D01*
X109401428Y-44994500D01*
X109401428Y-45175928D01*
X109437714Y-45321071D01*
X109474000Y-45393642D01*
X109510285Y-45429928D01*
X109582857Y-45466214D01*
X109655428Y-45466214D01*
X109728000Y-45429928D01*
X109764285Y-45393642D01*
X109800571Y-45321071D01*
X109836857Y-45175928D01*
X109836857Y-44994500D01*
X109800571Y-44849357D01*
X109764285Y-44776785D01*
X109728000Y-44740500D01*
X109655428Y-44704214D01*
X108267500Y-46609214D02*
X108521500Y-46246357D01*
X108702928Y-46609214D02*
X108702928Y-45847214D01*
X108412642Y-45847214D01*
X108340071Y-45883500D01*
X108303785Y-45919785D01*
X108267500Y-45992357D01*
X108267500Y-46101214D01*
X108303785Y-46173785D01*
X108340071Y-46210071D01*
X108412642Y-46246357D01*
X108702928Y-46246357D01*
X107832071Y-46173785D02*
X107904642Y-46137500D01*
X107940928Y-46101214D01*
X107977214Y-46028642D01*
X107977214Y-45992357D01*
X107940928Y-45919785D01*
X107904642Y-45883500D01*
X107832071Y-45847214D01*
X107686928Y-45847214D01*
X107614357Y-45883500D01*
X107578071Y-45919785D01*
X107541785Y-45992357D01*
X107541785Y-46028642D01*
X107578071Y-46101214D01*
X107614357Y-46137500D01*
X107686928Y-46173785D01*
X107832071Y-46173785D01*
X107904642Y-46210071D01*
X107940928Y-46246357D01*
X107977214Y-46318928D01*
X107977214Y-46464071D01*
X107940928Y-46536642D01*
X107904642Y-46572928D01*
X107832071Y-46609214D01*
X107686928Y-46609214D01*
X107614357Y-46572928D01*
X107578071Y-46536642D01*
X107541785Y-46464071D01*
X107541785Y-46318928D01*
X107578071Y-46246357D01*
X107614357Y-46210071D01*
X107686928Y-46173785D01*
X101391357Y-49747714D02*
X101645357Y-49384857D01*
X101826785Y-49747714D02*
X101826785Y-48985714D01*
X101536500Y-48985714D01*
X101463928Y-49022000D01*
X101427642Y-49058285D01*
X101391357Y-49130857D01*
X101391357Y-49239714D01*
X101427642Y-49312285D01*
X101463928Y-49348571D01*
X101536500Y-49384857D01*
X101826785Y-49384857D01*
X100665642Y-49747714D02*
X101101071Y-49747714D01*
X100883357Y-49747714D02*
X100883357Y-48985714D01*
X100955928Y-49094571D01*
X101028500Y-49167142D01*
X101101071Y-49203428D01*
X100012500Y-49239714D02*
X100012500Y-49747714D01*
X100193928Y-48949428D02*
X100375357Y-49493714D01*
X99903642Y-49493714D01*
X102280357Y-61050714D02*
X102534357Y-60687857D01*
X102715785Y-61050714D02*
X102715785Y-60288714D01*
X102425500Y-60288714D01*
X102352928Y-60325000D01*
X102316642Y-60361285D01*
X102280357Y-60433857D01*
X102280357Y-60542714D01*
X102316642Y-60615285D01*
X102352928Y-60651571D01*
X102425500Y-60687857D01*
X102715785Y-60687857D01*
X101554642Y-61050714D02*
X101990071Y-61050714D01*
X101772357Y-61050714D02*
X101772357Y-60288714D01*
X101844928Y-60397571D01*
X101917500Y-60470142D01*
X101990071Y-60506428D01*
X100865214Y-60288714D02*
X101228071Y-60288714D01*
X101264357Y-60651571D01*
X101228071Y-60615285D01*
X101155500Y-60579000D01*
X100974071Y-60579000D01*
X100901500Y-60615285D01*
X100865214Y-60651571D01*
X100828928Y-60724142D01*
X100828928Y-60905571D01*
X100865214Y-60978142D01*
X100901500Y-61014428D01*
X100974071Y-61050714D01*
X101155500Y-61050714D01*
X101228071Y-61014428D01*
X101264357Y-60978142D01*
X113882714Y-44087142D02*
X113519857Y-43833142D01*
X113882714Y-43651714D02*
X113120714Y-43651714D01*
X113120714Y-43942000D01*
X113157000Y-44014571D01*
X113193285Y-44050857D01*
X113265857Y-44087142D01*
X113374714Y-44087142D01*
X113447285Y-44050857D01*
X113483571Y-44014571D01*
X113519857Y-43942000D01*
X113519857Y-43651714D01*
X113882714Y-44812857D02*
X113882714Y-44377428D01*
X113882714Y-44595142D02*
X113120714Y-44595142D01*
X113229571Y-44522571D01*
X113302142Y-44450000D01*
X113338428Y-44377428D01*
X113120714Y-45066857D02*
X113120714Y-45574857D01*
X113882714Y-45248285D01*
X115089214Y-44087142D02*
X114726357Y-43833142D01*
X115089214Y-43651714D02*
X114327214Y-43651714D01*
X114327214Y-43942000D01*
X114363500Y-44014571D01*
X114399785Y-44050857D01*
X114472357Y-44087142D01*
X114581214Y-44087142D01*
X114653785Y-44050857D01*
X114690071Y-44014571D01*
X114726357Y-43942000D01*
X114726357Y-43651714D01*
X115089214Y-44812857D02*
X115089214Y-44377428D01*
X115089214Y-44595142D02*
X114327214Y-44595142D01*
X114436071Y-44522571D01*
X114508642Y-44450000D01*
X114544928Y-44377428D01*
X114653785Y-45248285D02*
X114617500Y-45175714D01*
X114581214Y-45139428D01*
X114508642Y-45103142D01*
X114472357Y-45103142D01*
X114399785Y-45139428D01*
X114363500Y-45175714D01*
X114327214Y-45248285D01*
X114327214Y-45393428D01*
X114363500Y-45466000D01*
X114399785Y-45502285D01*
X114472357Y-45538571D01*
X114508642Y-45538571D01*
X114581214Y-45502285D01*
X114617500Y-45466000D01*
X114653785Y-45393428D01*
X114653785Y-45248285D01*
X114690071Y-45175714D01*
X114726357Y-45139428D01*
X114798928Y-45103142D01*
X114944071Y-45103142D01*
X115016642Y-45139428D01*
X115052928Y-45175714D01*
X115089214Y-45248285D01*
X115089214Y-45393428D01*
X115052928Y-45466000D01*
X115016642Y-45502285D01*
X114944071Y-45538571D01*
X114798928Y-45538571D01*
X114726357Y-45502285D01*
X114690071Y-45466000D01*
X114653785Y-45393428D01*
X110490000Y-52160714D02*
X110744000Y-51797857D01*
X110925428Y-52160714D02*
X110925428Y-51398714D01*
X110635142Y-51398714D01*
X110562571Y-51435000D01*
X110526285Y-51471285D01*
X110490000Y-51543857D01*
X110490000Y-51652714D01*
X110526285Y-51725285D01*
X110562571Y-51761571D01*
X110635142Y-51797857D01*
X110925428Y-51797857D01*
X109764285Y-52160714D02*
X110199714Y-52160714D01*
X109982000Y-52160714D02*
X109982000Y-51398714D01*
X110054571Y-51507571D01*
X110127142Y-51580142D01*
X110199714Y-51616428D01*
X109836857Y-59708142D02*
X109873142Y-59744428D01*
X109982000Y-59780714D01*
X110054571Y-59780714D01*
X110163428Y-59744428D01*
X110236000Y-59671857D01*
X110272285Y-59599285D01*
X110308571Y-59454142D01*
X110308571Y-59345285D01*
X110272285Y-59200142D01*
X110236000Y-59127571D01*
X110163428Y-59055000D01*
X110054571Y-59018714D01*
X109982000Y-59018714D01*
X109873142Y-59055000D01*
X109836857Y-59091285D01*
X109111142Y-59780714D02*
X109546571Y-59780714D01*
X109328857Y-59780714D02*
X109328857Y-59018714D01*
X109401428Y-59127571D01*
X109474000Y-59200142D01*
X109546571Y-59236428D01*
X108385428Y-59780714D02*
X108820857Y-59780714D01*
X108603142Y-59780714D02*
X108603142Y-59018714D01*
X108675714Y-59127571D01*
X108748285Y-59200142D01*
X108820857Y-59236428D01*
X109728000Y-53485142D02*
X109764285Y-53521428D01*
X109873142Y-53557714D01*
X109945714Y-53557714D01*
X110054571Y-53521428D01*
X110127142Y-53448857D01*
X110163428Y-53376285D01*
X110199714Y-53231142D01*
X110199714Y-53122285D01*
X110163428Y-52977142D01*
X110127142Y-52904571D01*
X110054571Y-52832000D01*
X109945714Y-52795714D01*
X109873142Y-52795714D01*
X109764285Y-52832000D01*
X109728000Y-52868285D01*
X109474000Y-52795714D02*
X108966000Y-52795714D01*
X109292571Y-53557714D01*
X101473000Y-48595642D02*
X101509285Y-48631928D01*
X101618142Y-48668214D01*
X101690714Y-48668214D01*
X101799571Y-48631928D01*
X101872142Y-48559357D01*
X101908428Y-48486785D01*
X101944714Y-48341642D01*
X101944714Y-48232785D01*
X101908428Y-48087642D01*
X101872142Y-48015071D01*
X101799571Y-47942500D01*
X101690714Y-47906214D01*
X101618142Y-47906214D01*
X101509285Y-47942500D01*
X101473000Y-47978785D01*
X100819857Y-48160214D02*
X100819857Y-48668214D01*
X101001285Y-47869928D02*
X101182714Y-48414214D01*
X100711000Y-48414214D01*
X98044000Y-59581142D02*
X98080285Y-59617428D01*
X98189142Y-59653714D01*
X98261714Y-59653714D01*
X98370571Y-59617428D01*
X98443142Y-59544857D01*
X98479428Y-59472285D01*
X98515714Y-59327142D01*
X98515714Y-59218285D01*
X98479428Y-59073142D01*
X98443142Y-59000571D01*
X98370571Y-58928000D01*
X98261714Y-58891714D01*
X98189142Y-58891714D01*
X98080285Y-58928000D01*
X98044000Y-58964285D01*
X97753714Y-58964285D02*
X97717428Y-58928000D01*
X97644857Y-58891714D01*
X97463428Y-58891714D01*
X97390857Y-58928000D01*
X97354571Y-58964285D01*
X97318285Y-59036857D01*
X97318285Y-59109428D01*
X97354571Y-59218285D01*
X97790000Y-59653714D01*
X97318285Y-59653714D01*
X115972142Y-57860142D02*
X116008428Y-57823857D01*
X116044714Y-57715000D01*
X116044714Y-57642428D01*
X116008428Y-57533571D01*
X115935857Y-57461000D01*
X115863285Y-57424714D01*
X115718142Y-57388428D01*
X115609285Y-57388428D01*
X115464142Y-57424714D01*
X115391571Y-57461000D01*
X115319000Y-57533571D01*
X115282714Y-57642428D01*
X115282714Y-57715000D01*
X115319000Y-57823857D01*
X115355285Y-57860142D01*
X116044714Y-58585857D02*
X116044714Y-58150428D01*
X116044714Y-58368142D02*
X115282714Y-58368142D01*
X115391571Y-58295571D01*
X115464142Y-58223000D01*
X115500428Y-58150428D01*
X115282714Y-59057571D02*
X115282714Y-59130142D01*
X115319000Y-59202714D01*
X115355285Y-59239000D01*
X115427857Y-59275285D01*
X115573000Y-59311571D01*
X115754428Y-59311571D01*
X115899571Y-59275285D01*
X115972142Y-59239000D01*
X116008428Y-59202714D01*
X116044714Y-59130142D01*
X116044714Y-59057571D01*
X116008428Y-58985000D01*
X115972142Y-58948714D01*
X115899571Y-58912428D01*
X115754428Y-58876142D01*
X115573000Y-58876142D01*
X115427857Y-58912428D01*
X115355285Y-58948714D01*
X115319000Y-58985000D01*
X115282714Y-59057571D01*
X103124000Y-53294642D02*
X103160285Y-53330928D01*
X103269142Y-53367214D01*
X103341714Y-53367214D01*
X103450571Y-53330928D01*
X103523142Y-53258357D01*
X103559428Y-53185785D01*
X103595714Y-53040642D01*
X103595714Y-52931785D01*
X103559428Y-52786642D01*
X103523142Y-52714071D01*
X103450571Y-52641500D01*
X103341714Y-52605214D01*
X103269142Y-52605214D01*
X103160285Y-52641500D01*
X103124000Y-52677785D01*
X102870000Y-52605214D02*
X102398285Y-52605214D01*
X102652285Y-52895500D01*
X102543428Y-52895500D01*
X102470857Y-52931785D01*
X102434571Y-52968071D01*
X102398285Y-53040642D01*
X102398285Y-53222071D01*
X102434571Y-53294642D01*
X102470857Y-53330928D01*
X102543428Y-53367214D01*
X102761142Y-53367214D01*
X102833714Y-53330928D01*
X102870000Y-53294642D01*
X112777000Y-51072142D02*
X112813285Y-51108428D01*
X112922142Y-51144714D01*
X112994714Y-51144714D01*
X113103571Y-51108428D01*
X113176142Y-51035857D01*
X113212428Y-50963285D01*
X113248714Y-50818142D01*
X113248714Y-50709285D01*
X113212428Y-50564142D01*
X113176142Y-50491571D01*
X113103571Y-50419000D01*
X112994714Y-50382714D01*
X112922142Y-50382714D01*
X112813285Y-50419000D01*
X112777000Y-50455285D01*
X112051285Y-51144714D02*
X112486714Y-51144714D01*
X112269000Y-51144714D02*
X112269000Y-50382714D01*
X112341571Y-50491571D01*
X112414142Y-50564142D01*
X112486714Y-50600428D01*
M02*
