%TF.GenerationSoftware,KiCad,Pcbnew,5.0.2-bee76a0~70~ubuntu18.04.1*%
%TF.CreationDate,2020-02-29T17:21:03-08:00*%
%TF.ProjectId,SolarCellX_v3,536f6c61-7243-4656-9c6c-585f76332e6b,rev?*%
%TF.SameCoordinates,Original*%
%TF.FileFunction,Soldermask,Bot*%
%TF.FilePolarity,Negative*%
%FSLAX46Y46*%
G04 Gerber Fmt 4.6, Leading zero omitted, Abs format (unit mm)*
G04 Created by KiCad (PCBNEW 5.0.2-bee76a0~70~ubuntu18.04.1) date Sat 29 Feb 2020 05:21:03 PM PST*
%MOMM*%
%LPD*%
G01*
G04 APERTURE LIST*
%ADD10C,0.300000*%
%ADD11C,0.050000*%
%ADD12C,0.100000*%
G04 APERTURE END LIST*
D10*
X136723214Y-86229071D02*
X136366071Y-87229071D01*
X136008928Y-86229071D01*
X135151785Y-85729071D02*
X135008928Y-85729071D01*
X134866071Y-85800500D01*
X134794642Y-85871928D01*
X134723214Y-86014785D01*
X134651785Y-86300500D01*
X134651785Y-86657642D01*
X134723214Y-86943357D01*
X134794642Y-87086214D01*
X134866071Y-87157642D01*
X135008928Y-87229071D01*
X135151785Y-87229071D01*
X135294642Y-87157642D01*
X135366071Y-87086214D01*
X135437500Y-86943357D01*
X135508928Y-86657642D01*
X135508928Y-86300500D01*
X135437500Y-86014785D01*
X135366071Y-85871928D01*
X135294642Y-85800500D01*
X135151785Y-85729071D01*
X134080357Y-85871928D02*
X134008928Y-85800500D01*
X133866071Y-85729071D01*
X133508928Y-85729071D01*
X133366071Y-85800500D01*
X133294642Y-85871928D01*
X133223214Y-86014785D01*
X133223214Y-86157642D01*
X133294642Y-86371928D01*
X134151785Y-87229071D01*
X133223214Y-87229071D01*
D11*
X96200000Y-47000000D02*
G75*
G03X96200000Y-47000000I-1100000J0D01*
G01*
X96200000Y-81400000D02*
G75*
G03X96200000Y-81400000I-1100000J0D01*
G01*
X136000000Y-81400000D02*
G75*
G03X136000000Y-81400000I-1100000J0D01*
G01*
X136000000Y-47000000D02*
G75*
G03X136000000Y-47000000I-1100000J0D01*
G01*
X90000000Y-88400000D02*
X138400000Y-88400000D01*
X90000000Y-88400000D02*
X90000000Y-40000000D01*
X138400000Y-40000000D02*
X138400000Y-88400000D01*
X90000000Y-40000000D02*
X138400000Y-40000000D01*
D12*
G36*
X91068767Y-86828822D02*
X91205258Y-86885359D01*
X91328097Y-86967437D01*
X91432563Y-87071903D01*
X91514641Y-87194742D01*
X91571178Y-87331233D01*
X91600000Y-87476131D01*
X91600000Y-87623869D01*
X91571178Y-87768767D01*
X91514641Y-87905258D01*
X91432563Y-88028097D01*
X91328097Y-88132563D01*
X91205258Y-88214641D01*
X91068767Y-88271178D01*
X90923869Y-88300000D01*
X90776131Y-88300000D01*
X90631233Y-88271178D01*
X90494742Y-88214641D01*
X90371903Y-88132563D01*
X90267437Y-88028097D01*
X90185359Y-87905258D01*
X90128822Y-87768767D01*
X90100000Y-87623869D01*
X90100000Y-87476131D01*
X90128822Y-87331233D01*
X90185359Y-87194742D01*
X90267437Y-87071903D01*
X90371903Y-86967437D01*
X90494742Y-86885359D01*
X90631233Y-86828822D01*
X90776131Y-86800000D01*
X90923869Y-86800000D01*
X91068767Y-86828822D01*
X91068767Y-86828822D01*
G37*
G36*
X119995104Y-62453549D02*
X120048138Y-62464098D01*
X120148047Y-62505482D01*
X120148049Y-62505483D01*
X120237967Y-62565564D01*
X120314436Y-62642033D01*
X120356417Y-62704862D01*
X120374518Y-62731953D01*
X120415902Y-62831862D01*
X120437000Y-62937929D01*
X120437000Y-63046071D01*
X120415902Y-63152138D01*
X120374518Y-63252047D01*
X120374517Y-63252049D01*
X120314436Y-63341967D01*
X120237967Y-63418436D01*
X120148049Y-63478517D01*
X120148048Y-63478518D01*
X120148047Y-63478518D01*
X120048138Y-63519902D01*
X119995104Y-63530451D01*
X119942072Y-63541000D01*
X119833928Y-63541000D01*
X119780896Y-63530451D01*
X119727862Y-63519902D01*
X119627953Y-63478518D01*
X119627952Y-63478518D01*
X119627951Y-63478517D01*
X119538033Y-63418436D01*
X119461564Y-63341967D01*
X119401483Y-63252049D01*
X119401482Y-63252047D01*
X119360098Y-63152138D01*
X119339000Y-63046071D01*
X119339000Y-62937929D01*
X119360098Y-62831862D01*
X119401482Y-62731953D01*
X119419584Y-62704862D01*
X119461564Y-62642033D01*
X119538033Y-62565564D01*
X119627951Y-62505483D01*
X119627953Y-62505482D01*
X119727862Y-62464098D01*
X119780896Y-62453549D01*
X119833928Y-62443000D01*
X119942072Y-62443000D01*
X119995104Y-62453549D01*
X119995104Y-62453549D01*
G37*
G36*
X101707104Y-62326549D02*
X101760138Y-62337098D01*
X101860047Y-62378482D01*
X101860049Y-62378483D01*
X101949967Y-62438564D01*
X102026436Y-62515033D01*
X102060200Y-62565564D01*
X102086518Y-62604953D01*
X102127902Y-62704862D01*
X102149000Y-62810929D01*
X102149000Y-62919071D01*
X102127902Y-63025138D01*
X102086518Y-63125047D01*
X102086517Y-63125049D01*
X102026436Y-63214967D01*
X101949967Y-63291436D01*
X101860049Y-63351517D01*
X101860048Y-63351518D01*
X101860047Y-63351518D01*
X101760138Y-63392902D01*
X101654072Y-63414000D01*
X101545928Y-63414000D01*
X101439862Y-63392902D01*
X101339953Y-63351518D01*
X101339952Y-63351518D01*
X101339951Y-63351517D01*
X101250033Y-63291436D01*
X101173564Y-63214967D01*
X101113483Y-63125049D01*
X101113482Y-63125047D01*
X101072098Y-63025138D01*
X101051000Y-62919071D01*
X101051000Y-62810929D01*
X101072098Y-62704862D01*
X101113482Y-62604953D01*
X101139801Y-62565564D01*
X101173564Y-62515033D01*
X101250033Y-62438564D01*
X101339951Y-62378483D01*
X101339953Y-62378482D01*
X101439862Y-62337098D01*
X101492896Y-62326549D01*
X101545928Y-62316000D01*
X101654072Y-62316000D01*
X101707104Y-62326549D01*
X101707104Y-62326549D01*
G37*
G36*
X106279104Y-62326549D02*
X106332138Y-62337098D01*
X106432047Y-62378482D01*
X106432049Y-62378483D01*
X106521967Y-62438564D01*
X106598436Y-62515033D01*
X106632200Y-62565564D01*
X106658518Y-62604953D01*
X106699902Y-62704862D01*
X106721000Y-62810929D01*
X106721000Y-62919071D01*
X106699902Y-63025138D01*
X106658518Y-63125047D01*
X106658517Y-63125049D01*
X106598436Y-63214967D01*
X106521967Y-63291436D01*
X106432049Y-63351517D01*
X106432048Y-63351518D01*
X106432047Y-63351518D01*
X106332138Y-63392902D01*
X106226072Y-63414000D01*
X106117928Y-63414000D01*
X106011862Y-63392902D01*
X105911953Y-63351518D01*
X105911952Y-63351518D01*
X105911951Y-63351517D01*
X105822033Y-63291436D01*
X105745564Y-63214967D01*
X105685483Y-63125049D01*
X105685482Y-63125047D01*
X105644098Y-63025138D01*
X105623000Y-62919071D01*
X105623000Y-62810929D01*
X105644098Y-62704862D01*
X105685482Y-62604953D01*
X105711801Y-62565564D01*
X105745564Y-62515033D01*
X105822033Y-62438564D01*
X105911951Y-62378483D01*
X105911953Y-62378482D01*
X106011862Y-62337098D01*
X106064896Y-62326549D01*
X106117928Y-62316000D01*
X106226072Y-62316000D01*
X106279104Y-62326549D01*
X106279104Y-62326549D01*
G37*
G36*
X106393582Y-58789434D02*
X106434526Y-58801854D01*
X106472260Y-58822023D01*
X106505334Y-58849166D01*
X106532477Y-58882240D01*
X106552646Y-58919974D01*
X106565066Y-58960918D01*
X106569500Y-59005936D01*
X106569500Y-59612064D01*
X106565066Y-59657082D01*
X106552646Y-59698026D01*
X106532477Y-59735760D01*
X106505334Y-59768834D01*
X106472260Y-59795977D01*
X106434526Y-59816146D01*
X106393582Y-59828566D01*
X106348564Y-59833000D01*
X105817436Y-59833000D01*
X105772418Y-59828566D01*
X105731474Y-59816146D01*
X105693740Y-59795977D01*
X105660666Y-59768834D01*
X105633523Y-59735760D01*
X105613354Y-59698026D01*
X105600934Y-59657082D01*
X105596500Y-59612064D01*
X105596500Y-59005936D01*
X105600934Y-58960918D01*
X105613354Y-58919974D01*
X105633523Y-58882240D01*
X105660666Y-58849166D01*
X105693740Y-58822023D01*
X105731474Y-58801854D01*
X105772418Y-58789434D01*
X105817436Y-58785000D01*
X106348564Y-58785000D01*
X106393582Y-58789434D01*
X106393582Y-58789434D01*
G37*
G36*
X107968582Y-58789434D02*
X108009526Y-58801854D01*
X108047260Y-58822023D01*
X108080334Y-58849166D01*
X108107477Y-58882240D01*
X108127646Y-58919974D01*
X108140066Y-58960918D01*
X108144500Y-59005936D01*
X108144500Y-59612064D01*
X108140066Y-59657082D01*
X108127646Y-59698026D01*
X108107477Y-59735760D01*
X108080334Y-59768834D01*
X108047260Y-59795977D01*
X108009526Y-59816146D01*
X107968582Y-59828566D01*
X107923564Y-59833000D01*
X107392436Y-59833000D01*
X107347418Y-59828566D01*
X107306474Y-59816146D01*
X107268740Y-59795977D01*
X107235666Y-59768834D01*
X107208523Y-59735760D01*
X107188354Y-59698026D01*
X107175934Y-59657082D01*
X107171500Y-59612064D01*
X107171500Y-59005936D01*
X107175934Y-58960918D01*
X107188354Y-58919974D01*
X107208523Y-58882240D01*
X107235666Y-58849166D01*
X107268740Y-58822023D01*
X107306474Y-58801854D01*
X107347418Y-58789434D01*
X107392436Y-58785000D01*
X107923564Y-58785000D01*
X107968582Y-58789434D01*
X107968582Y-58789434D01*
G37*
G36*
X104723433Y-58943064D02*
X104751008Y-58951430D01*
X104776422Y-58965014D01*
X104798702Y-58983298D01*
X104816986Y-59005578D01*
X104830570Y-59030992D01*
X104838936Y-59058567D01*
X104842000Y-59089684D01*
X104842000Y-59528316D01*
X104838936Y-59559433D01*
X104830570Y-59587008D01*
X104816986Y-59612422D01*
X104798702Y-59634702D01*
X104776422Y-59652986D01*
X104751008Y-59666570D01*
X104723433Y-59674936D01*
X104692316Y-59678000D01*
X104303684Y-59678000D01*
X104272567Y-59674936D01*
X104244992Y-59666570D01*
X104219578Y-59652986D01*
X104197298Y-59634702D01*
X104179014Y-59612422D01*
X104165430Y-59587008D01*
X104157064Y-59559433D01*
X104154000Y-59528316D01*
X104154000Y-59089684D01*
X104157064Y-59058567D01*
X104165430Y-59030992D01*
X104179014Y-59005578D01*
X104197298Y-58983298D01*
X104219578Y-58965014D01*
X104244992Y-58951430D01*
X104272567Y-58943064D01*
X104303684Y-58940000D01*
X104692316Y-58940000D01*
X104723433Y-58943064D01*
X104723433Y-58943064D01*
G37*
G36*
X99435433Y-58943064D02*
X99463008Y-58951430D01*
X99488422Y-58965014D01*
X99510702Y-58983298D01*
X99528986Y-59005578D01*
X99542570Y-59030992D01*
X99550936Y-59058567D01*
X99554000Y-59089684D01*
X99554000Y-59528316D01*
X99550936Y-59559433D01*
X99542570Y-59587008D01*
X99528986Y-59612422D01*
X99510702Y-59634702D01*
X99488422Y-59652986D01*
X99463008Y-59666570D01*
X99435433Y-59674936D01*
X99404316Y-59678000D01*
X99015684Y-59678000D01*
X98984567Y-59674936D01*
X98956992Y-59666570D01*
X98931578Y-59652986D01*
X98909298Y-59634702D01*
X98891014Y-59612422D01*
X98877430Y-59587008D01*
X98869064Y-59559433D01*
X98866000Y-59528316D01*
X98866000Y-59089684D01*
X98869064Y-59058567D01*
X98877430Y-59030992D01*
X98891014Y-59005578D01*
X98909298Y-58983298D01*
X98931578Y-58965014D01*
X98956992Y-58951430D01*
X98984567Y-58943064D01*
X99015684Y-58940000D01*
X99404316Y-58940000D01*
X99435433Y-58943064D01*
X99435433Y-58943064D01*
G37*
G36*
X100405433Y-58943064D02*
X100433008Y-58951430D01*
X100458422Y-58965014D01*
X100480702Y-58983298D01*
X100498986Y-59005578D01*
X100512570Y-59030992D01*
X100520936Y-59058567D01*
X100524000Y-59089684D01*
X100524000Y-59528316D01*
X100520936Y-59559433D01*
X100512570Y-59587008D01*
X100498986Y-59612422D01*
X100480702Y-59634702D01*
X100458422Y-59652986D01*
X100433008Y-59666570D01*
X100405433Y-59674936D01*
X100374316Y-59678000D01*
X99985684Y-59678000D01*
X99954567Y-59674936D01*
X99926992Y-59666570D01*
X99901578Y-59652986D01*
X99879298Y-59634702D01*
X99861014Y-59612422D01*
X99847430Y-59587008D01*
X99839064Y-59559433D01*
X99836000Y-59528316D01*
X99836000Y-59089684D01*
X99839064Y-59058567D01*
X99847430Y-59030992D01*
X99861014Y-59005578D01*
X99879298Y-58983298D01*
X99901578Y-58965014D01*
X99926992Y-58951430D01*
X99954567Y-58943064D01*
X99985684Y-58940000D01*
X100374316Y-58940000D01*
X100405433Y-58943064D01*
X100405433Y-58943064D01*
G37*
G36*
X101530933Y-58943064D02*
X101558508Y-58951430D01*
X101583922Y-58965014D01*
X101606202Y-58983298D01*
X101624486Y-59005578D01*
X101638070Y-59030992D01*
X101646436Y-59058567D01*
X101649500Y-59089684D01*
X101649500Y-59528316D01*
X101646436Y-59559433D01*
X101638070Y-59587008D01*
X101624486Y-59612422D01*
X101606202Y-59634702D01*
X101583922Y-59652986D01*
X101558508Y-59666570D01*
X101530933Y-59674936D01*
X101499816Y-59678000D01*
X101111184Y-59678000D01*
X101080067Y-59674936D01*
X101052492Y-59666570D01*
X101027078Y-59652986D01*
X101004798Y-59634702D01*
X100986514Y-59612422D01*
X100972930Y-59587008D01*
X100964564Y-59559433D01*
X100961500Y-59528316D01*
X100961500Y-59089684D01*
X100964564Y-59058567D01*
X100972930Y-59030992D01*
X100986514Y-59005578D01*
X101004798Y-58983298D01*
X101027078Y-58965014D01*
X101052492Y-58951430D01*
X101080067Y-58943064D01*
X101111184Y-58940000D01*
X101499816Y-58940000D01*
X101530933Y-58943064D01*
X101530933Y-58943064D01*
G37*
G36*
X102500933Y-58943064D02*
X102528508Y-58951430D01*
X102553922Y-58965014D01*
X102576202Y-58983298D01*
X102594486Y-59005578D01*
X102608070Y-59030992D01*
X102616436Y-59058567D01*
X102619500Y-59089684D01*
X102619500Y-59528316D01*
X102616436Y-59559433D01*
X102608070Y-59587008D01*
X102594486Y-59612422D01*
X102576202Y-59634702D01*
X102553922Y-59652986D01*
X102528508Y-59666570D01*
X102500933Y-59674936D01*
X102469816Y-59678000D01*
X102081184Y-59678000D01*
X102050067Y-59674936D01*
X102022492Y-59666570D01*
X101997078Y-59652986D01*
X101974798Y-59634702D01*
X101956514Y-59612422D01*
X101942930Y-59587008D01*
X101934564Y-59559433D01*
X101931500Y-59528316D01*
X101931500Y-59089684D01*
X101934564Y-59058567D01*
X101942930Y-59030992D01*
X101956514Y-59005578D01*
X101974798Y-58983298D01*
X101997078Y-58965014D01*
X102022492Y-58951430D01*
X102050067Y-58943064D01*
X102081184Y-58940000D01*
X102469816Y-58940000D01*
X102500933Y-58943064D01*
X102500933Y-58943064D01*
G37*
G36*
X103753433Y-58943064D02*
X103781008Y-58951430D01*
X103806422Y-58965014D01*
X103828702Y-58983298D01*
X103846986Y-59005578D01*
X103860570Y-59030992D01*
X103868936Y-59058567D01*
X103872000Y-59089684D01*
X103872000Y-59528316D01*
X103868936Y-59559433D01*
X103860570Y-59587008D01*
X103846986Y-59612422D01*
X103828702Y-59634702D01*
X103806422Y-59652986D01*
X103781008Y-59666570D01*
X103753433Y-59674936D01*
X103722316Y-59678000D01*
X103333684Y-59678000D01*
X103302567Y-59674936D01*
X103274992Y-59666570D01*
X103249578Y-59652986D01*
X103227298Y-59634702D01*
X103209014Y-59612422D01*
X103195430Y-59587008D01*
X103187064Y-59559433D01*
X103184000Y-59528316D01*
X103184000Y-59089684D01*
X103187064Y-59058567D01*
X103195430Y-59030992D01*
X103209014Y-59005578D01*
X103227298Y-58983298D01*
X103249578Y-58965014D01*
X103274992Y-58951430D01*
X103302567Y-58943064D01*
X103333684Y-58940000D01*
X103722316Y-58940000D01*
X103753433Y-58943064D01*
X103753433Y-58943064D01*
G37*
G36*
X119995104Y-58135549D02*
X120048138Y-58146098D01*
X120148047Y-58187482D01*
X120148049Y-58187483D01*
X120237967Y-58247564D01*
X120314435Y-58324032D01*
X120374518Y-58413953D01*
X120415902Y-58513862D01*
X120437000Y-58619929D01*
X120437000Y-58728071D01*
X120415902Y-58834138D01*
X120380347Y-58919974D01*
X120374517Y-58934049D01*
X120314436Y-59023967D01*
X120237967Y-59100436D01*
X120148049Y-59160517D01*
X120148048Y-59160518D01*
X120148047Y-59160518D01*
X120048138Y-59201902D01*
X119995104Y-59212451D01*
X119942072Y-59223000D01*
X119833928Y-59223000D01*
X119780896Y-59212451D01*
X119727862Y-59201902D01*
X119627953Y-59160518D01*
X119627952Y-59160518D01*
X119627951Y-59160517D01*
X119538033Y-59100436D01*
X119461564Y-59023967D01*
X119401483Y-58934049D01*
X119395653Y-58919974D01*
X119360098Y-58834138D01*
X119339000Y-58728071D01*
X119339000Y-58619929D01*
X119360098Y-58513862D01*
X119401482Y-58413953D01*
X119461565Y-58324032D01*
X119538033Y-58247564D01*
X119627951Y-58187483D01*
X119627953Y-58187482D01*
X119727862Y-58146098D01*
X119780896Y-58135549D01*
X119833928Y-58125000D01*
X119942072Y-58125000D01*
X119995104Y-58135549D01*
X119995104Y-58135549D01*
G37*
G36*
X122249000Y-58349000D02*
X120751000Y-58349000D01*
X120751000Y-56851000D01*
X122249000Y-56851000D01*
X122249000Y-58349000D01*
X122249000Y-58349000D01*
G37*
G36*
X105260600Y-58267600D02*
X103698500Y-58267600D01*
X103698500Y-53746400D01*
X105260600Y-53746400D01*
X105260600Y-58267600D01*
X105260600Y-58267600D01*
G37*
G36*
X102301500Y-58267600D02*
X100739400Y-58267600D01*
X100739400Y-53746400D01*
X102301500Y-53746400D01*
X102301500Y-58267600D01*
X102301500Y-58267600D01*
G37*
G36*
X109997240Y-58234580D02*
X108435140Y-58234580D01*
X108435140Y-53713380D01*
X109997240Y-53713380D01*
X109997240Y-58234580D01*
X109997240Y-58234580D01*
G37*
G36*
X112956340Y-58234580D02*
X111394240Y-58234580D01*
X111394240Y-53713380D01*
X112956340Y-53713380D01*
X112956340Y-58234580D01*
X112956340Y-58234580D01*
G37*
G36*
X100349000Y-58214000D02*
X99151000Y-58214000D01*
X99151000Y-56116000D01*
X100349000Y-56116000D01*
X100349000Y-58214000D01*
X100349000Y-58214000D01*
G37*
G36*
X107624093Y-57382720D02*
X107651668Y-57391086D01*
X107677082Y-57404670D01*
X107699362Y-57422954D01*
X107717646Y-57445234D01*
X107731230Y-57470648D01*
X107739596Y-57498223D01*
X107742660Y-57529340D01*
X107742660Y-57967972D01*
X107739596Y-57999089D01*
X107731230Y-58026664D01*
X107717646Y-58052078D01*
X107699362Y-58074358D01*
X107677082Y-58092642D01*
X107651668Y-58106226D01*
X107624093Y-58114592D01*
X107592976Y-58117656D01*
X107204344Y-58117656D01*
X107173227Y-58114592D01*
X107145652Y-58106226D01*
X107120238Y-58092642D01*
X107097958Y-58074358D01*
X107079674Y-58052078D01*
X107066090Y-58026664D01*
X107057724Y-57999089D01*
X107054660Y-57967972D01*
X107054660Y-57529340D01*
X107057724Y-57498223D01*
X107066090Y-57470648D01*
X107079674Y-57445234D01*
X107097958Y-57422954D01*
X107120238Y-57404670D01*
X107145652Y-57391086D01*
X107173227Y-57382720D01*
X107204344Y-57379656D01*
X107592976Y-57379656D01*
X107624093Y-57382720D01*
X107624093Y-57382720D01*
G37*
G36*
X106654093Y-57382720D02*
X106681668Y-57391086D01*
X106707082Y-57404670D01*
X106729362Y-57422954D01*
X106747646Y-57445234D01*
X106761230Y-57470648D01*
X106769596Y-57498223D01*
X106772660Y-57529340D01*
X106772660Y-57967972D01*
X106769596Y-57999089D01*
X106761230Y-58026664D01*
X106747646Y-58052078D01*
X106729362Y-58074358D01*
X106707082Y-58092642D01*
X106681668Y-58106226D01*
X106654093Y-58114592D01*
X106622976Y-58117656D01*
X106234344Y-58117656D01*
X106203227Y-58114592D01*
X106175652Y-58106226D01*
X106150238Y-58092642D01*
X106127958Y-58074358D01*
X106109674Y-58052078D01*
X106096090Y-58026664D01*
X106087724Y-57999089D01*
X106084660Y-57967972D01*
X106084660Y-57529340D01*
X106087724Y-57498223D01*
X106096090Y-57470648D01*
X106109674Y-57445234D01*
X106127958Y-57422954D01*
X106150238Y-57404670D01*
X106175652Y-57391086D01*
X106203227Y-57382720D01*
X106234344Y-57379656D01*
X106622976Y-57379656D01*
X106654093Y-57382720D01*
X106654093Y-57382720D01*
G37*
G36*
X117569582Y-56249434D02*
X117610526Y-56261854D01*
X117648260Y-56282023D01*
X117681334Y-56309166D01*
X117708477Y-56342240D01*
X117728646Y-56379974D01*
X117741066Y-56420918D01*
X117745500Y-56465936D01*
X117745500Y-57072064D01*
X117741066Y-57117082D01*
X117728646Y-57158026D01*
X117708477Y-57195760D01*
X117681334Y-57228834D01*
X117648260Y-57255977D01*
X117610526Y-57276146D01*
X117569582Y-57288566D01*
X117524564Y-57293000D01*
X116993436Y-57293000D01*
X116948418Y-57288566D01*
X116907474Y-57276146D01*
X116869740Y-57255977D01*
X116836666Y-57228834D01*
X116809523Y-57195760D01*
X116789354Y-57158026D01*
X116776934Y-57117082D01*
X116772500Y-57072064D01*
X116772500Y-56465936D01*
X116776934Y-56420918D01*
X116789354Y-56379974D01*
X116809523Y-56342240D01*
X116836666Y-56309166D01*
X116869740Y-56282023D01*
X116907474Y-56261854D01*
X116948418Y-56249434D01*
X116993436Y-56245000D01*
X117524564Y-56245000D01*
X117569582Y-56249434D01*
X117569582Y-56249434D01*
G37*
G36*
X119144582Y-56249434D02*
X119185526Y-56261854D01*
X119223260Y-56282023D01*
X119256334Y-56309166D01*
X119283477Y-56342240D01*
X119303646Y-56379974D01*
X119316066Y-56420918D01*
X119320500Y-56465936D01*
X119320500Y-57072064D01*
X119316066Y-57117082D01*
X119303646Y-57158026D01*
X119283477Y-57195760D01*
X119256334Y-57228834D01*
X119223260Y-57255977D01*
X119185526Y-57276146D01*
X119144582Y-57288566D01*
X119099564Y-57293000D01*
X118568436Y-57293000D01*
X118523418Y-57288566D01*
X118482474Y-57276146D01*
X118444740Y-57255977D01*
X118411666Y-57228834D01*
X118384523Y-57195760D01*
X118364354Y-57158026D01*
X118351934Y-57117082D01*
X118347500Y-57072064D01*
X118347500Y-56465936D01*
X118351934Y-56420918D01*
X118364354Y-56379974D01*
X118384523Y-56342240D01*
X118411666Y-56309166D01*
X118444740Y-56282023D01*
X118482474Y-56261854D01*
X118523418Y-56249434D01*
X118568436Y-56245000D01*
X119099564Y-56245000D01*
X119144582Y-56249434D01*
X119144582Y-56249434D01*
G37*
G36*
X114558500Y-57198000D02*
X113660500Y-57198000D01*
X113660500Y-56300000D01*
X114558500Y-56300000D01*
X114558500Y-57198000D01*
X114558500Y-57198000D01*
G37*
G36*
X116010933Y-56468564D02*
X116038508Y-56476930D01*
X116063922Y-56490514D01*
X116086202Y-56508798D01*
X116104486Y-56531078D01*
X116118070Y-56556492D01*
X116126436Y-56584067D01*
X116129500Y-56615184D01*
X116129500Y-57003816D01*
X116126436Y-57034933D01*
X116118070Y-57062508D01*
X116104486Y-57087922D01*
X116086202Y-57110202D01*
X116063922Y-57128486D01*
X116038508Y-57142070D01*
X116010933Y-57150436D01*
X115979816Y-57153500D01*
X115541184Y-57153500D01*
X115510067Y-57150436D01*
X115482492Y-57142070D01*
X115457078Y-57128486D01*
X115434798Y-57110202D01*
X115416514Y-57087922D01*
X115402930Y-57062508D01*
X115394564Y-57034933D01*
X115391500Y-57003816D01*
X115391500Y-56615184D01*
X115394564Y-56584067D01*
X115402930Y-56556492D01*
X115416514Y-56531078D01*
X115434798Y-56508798D01*
X115457078Y-56490514D01*
X115482492Y-56476930D01*
X115510067Y-56468564D01*
X115541184Y-56465500D01*
X115979816Y-56465500D01*
X116010933Y-56468564D01*
X116010933Y-56468564D01*
G37*
G36*
X107624093Y-55450564D02*
X107651668Y-55458930D01*
X107677082Y-55472514D01*
X107699362Y-55490798D01*
X107717646Y-55513078D01*
X107731230Y-55538492D01*
X107739596Y-55566067D01*
X107742660Y-55597184D01*
X107742660Y-56035816D01*
X107739596Y-56066933D01*
X107731230Y-56094508D01*
X107717646Y-56119922D01*
X107699362Y-56142202D01*
X107677082Y-56160486D01*
X107651668Y-56174070D01*
X107624093Y-56182436D01*
X107592976Y-56185500D01*
X107204344Y-56185500D01*
X107173227Y-56182436D01*
X107145652Y-56174070D01*
X107120238Y-56160486D01*
X107097958Y-56142202D01*
X107079674Y-56119922D01*
X107066090Y-56094508D01*
X107057724Y-56066933D01*
X107054660Y-56035816D01*
X107054660Y-55597184D01*
X107057724Y-55566067D01*
X107066090Y-55538492D01*
X107079674Y-55513078D01*
X107097958Y-55490798D01*
X107120238Y-55472514D01*
X107145652Y-55458930D01*
X107173227Y-55450564D01*
X107204344Y-55447500D01*
X107592976Y-55447500D01*
X107624093Y-55450564D01*
X107624093Y-55450564D01*
G37*
G36*
X106654093Y-55450564D02*
X106681668Y-55458930D01*
X106707082Y-55472514D01*
X106729362Y-55490798D01*
X106747646Y-55513078D01*
X106761230Y-55538492D01*
X106769596Y-55566067D01*
X106772660Y-55597184D01*
X106772660Y-56035816D01*
X106769596Y-56066933D01*
X106761230Y-56094508D01*
X106747646Y-56119922D01*
X106729362Y-56142202D01*
X106707082Y-56160486D01*
X106681668Y-56174070D01*
X106654093Y-56182436D01*
X106622976Y-56185500D01*
X106234344Y-56185500D01*
X106203227Y-56182436D01*
X106175652Y-56174070D01*
X106150238Y-56160486D01*
X106127958Y-56142202D01*
X106109674Y-56119922D01*
X106096090Y-56094508D01*
X106087724Y-56066933D01*
X106084660Y-56035816D01*
X106084660Y-55597184D01*
X106087724Y-55566067D01*
X106096090Y-55538492D01*
X106109674Y-55513078D01*
X106127958Y-55490798D01*
X106150238Y-55472514D01*
X106175652Y-55458930D01*
X106203227Y-55450564D01*
X106234344Y-55447500D01*
X106622976Y-55447500D01*
X106654093Y-55450564D01*
X106654093Y-55450564D01*
G37*
G36*
X116010933Y-55498564D02*
X116038508Y-55506930D01*
X116063922Y-55520514D01*
X116086202Y-55538798D01*
X116104486Y-55561078D01*
X116118070Y-55586492D01*
X116126436Y-55614067D01*
X116129500Y-55645184D01*
X116129500Y-56033816D01*
X116126436Y-56064933D01*
X116118070Y-56092508D01*
X116104486Y-56117922D01*
X116086202Y-56140202D01*
X116063922Y-56158486D01*
X116038508Y-56172070D01*
X116010933Y-56180436D01*
X115979816Y-56183500D01*
X115541184Y-56183500D01*
X115510067Y-56180436D01*
X115482492Y-56172070D01*
X115457078Y-56158486D01*
X115434798Y-56140202D01*
X115416514Y-56117922D01*
X115402930Y-56092508D01*
X115394564Y-56064933D01*
X115391500Y-56033816D01*
X115391500Y-55645184D01*
X115394564Y-55614067D01*
X115402930Y-55586492D01*
X115416514Y-55561078D01*
X115434798Y-55538798D01*
X115457078Y-55520514D01*
X115482492Y-55506930D01*
X115510067Y-55498564D01*
X115541184Y-55495500D01*
X115979816Y-55495500D01*
X116010933Y-55498564D01*
X116010933Y-55498564D01*
G37*
G36*
X122249000Y-55949000D02*
X120751000Y-55949000D01*
X120751000Y-53151000D01*
X122249000Y-53151000D01*
X122249000Y-55949000D01*
X122249000Y-55949000D01*
G37*
G36*
X114708500Y-55898000D02*
X113510500Y-55898000D01*
X113510500Y-53800000D01*
X114708500Y-53800000D01*
X114708500Y-55898000D01*
X114708500Y-55898000D01*
G37*
G36*
X100199000Y-55714000D02*
X99301000Y-55714000D01*
X99301000Y-54816000D01*
X100199000Y-54816000D01*
X100199000Y-55714000D01*
X100199000Y-55714000D01*
G37*
G36*
X119271582Y-53836434D02*
X119312526Y-53848854D01*
X119350260Y-53869023D01*
X119383334Y-53896166D01*
X119410477Y-53929240D01*
X119430646Y-53966974D01*
X119443066Y-54007918D01*
X119447500Y-54052936D01*
X119447500Y-54659064D01*
X119443066Y-54704082D01*
X119430646Y-54745026D01*
X119410477Y-54782760D01*
X119383334Y-54815834D01*
X119350260Y-54842977D01*
X119312526Y-54863146D01*
X119271582Y-54875566D01*
X119226564Y-54880000D01*
X118695436Y-54880000D01*
X118650418Y-54875566D01*
X118609474Y-54863146D01*
X118571740Y-54842977D01*
X118538666Y-54815834D01*
X118511523Y-54782760D01*
X118491354Y-54745026D01*
X118478934Y-54704082D01*
X118474500Y-54659064D01*
X118474500Y-54052936D01*
X118478934Y-54007918D01*
X118491354Y-53966974D01*
X118511523Y-53929240D01*
X118538666Y-53896166D01*
X118571740Y-53869023D01*
X118609474Y-53848854D01*
X118650418Y-53836434D01*
X118695436Y-53832000D01*
X119226564Y-53832000D01*
X119271582Y-53836434D01*
X119271582Y-53836434D01*
G37*
G36*
X117696582Y-53836434D02*
X117737526Y-53848854D01*
X117775260Y-53869023D01*
X117808334Y-53896166D01*
X117835477Y-53929240D01*
X117855646Y-53966974D01*
X117868066Y-54007918D01*
X117872500Y-54052936D01*
X117872500Y-54659064D01*
X117868066Y-54704082D01*
X117855646Y-54745026D01*
X117835477Y-54782760D01*
X117808334Y-54815834D01*
X117775260Y-54842977D01*
X117737526Y-54863146D01*
X117696582Y-54875566D01*
X117651564Y-54880000D01*
X117120436Y-54880000D01*
X117075418Y-54875566D01*
X117034474Y-54863146D01*
X116996740Y-54842977D01*
X116963666Y-54815834D01*
X116936523Y-54782760D01*
X116916354Y-54745026D01*
X116903934Y-54704082D01*
X116899500Y-54659064D01*
X116899500Y-54052936D01*
X116903934Y-54007918D01*
X116916354Y-53966974D01*
X116936523Y-53929240D01*
X116963666Y-53896166D01*
X116996740Y-53869023D01*
X117034474Y-53848854D01*
X117075418Y-53836434D01*
X117120436Y-53832000D01*
X117651564Y-53832000D01*
X117696582Y-53836434D01*
X117696582Y-53836434D01*
G37*
G36*
X116010933Y-54055564D02*
X116038508Y-54063930D01*
X116063922Y-54077514D01*
X116086202Y-54095798D01*
X116104486Y-54118078D01*
X116118070Y-54143492D01*
X116126436Y-54171067D01*
X116129500Y-54202184D01*
X116129500Y-54590816D01*
X116126436Y-54621933D01*
X116118070Y-54649508D01*
X116104486Y-54674922D01*
X116086202Y-54697202D01*
X116063922Y-54715486D01*
X116038508Y-54729070D01*
X116010933Y-54737436D01*
X115979816Y-54740500D01*
X115541184Y-54740500D01*
X115510067Y-54737436D01*
X115482492Y-54729070D01*
X115457078Y-54715486D01*
X115434798Y-54697202D01*
X115416514Y-54674922D01*
X115402930Y-54649508D01*
X115394564Y-54621933D01*
X115391500Y-54590816D01*
X115391500Y-54202184D01*
X115394564Y-54171067D01*
X115402930Y-54143492D01*
X115416514Y-54118078D01*
X115434798Y-54095798D01*
X115457078Y-54077514D01*
X115482492Y-54063930D01*
X115510067Y-54055564D01*
X115541184Y-54052500D01*
X115979816Y-54052500D01*
X116010933Y-54055564D01*
X116010933Y-54055564D01*
G37*
G36*
X100249000Y-53849000D02*
X98751000Y-53849000D01*
X98751000Y-51051000D01*
X100249000Y-51051000D01*
X100249000Y-53849000D01*
X100249000Y-53849000D01*
G37*
G36*
X116010933Y-53085564D02*
X116038508Y-53093930D01*
X116063922Y-53107514D01*
X116086202Y-53125798D01*
X116104486Y-53148078D01*
X116118070Y-53173492D01*
X116126436Y-53201067D01*
X116129500Y-53232184D01*
X116129500Y-53620816D01*
X116126436Y-53651933D01*
X116118070Y-53679508D01*
X116104486Y-53704922D01*
X116086202Y-53727202D01*
X116063922Y-53745486D01*
X116038508Y-53759070D01*
X116010933Y-53767436D01*
X115979816Y-53770500D01*
X115541184Y-53770500D01*
X115510067Y-53767436D01*
X115482492Y-53759070D01*
X115457078Y-53745486D01*
X115434798Y-53727202D01*
X115416514Y-53704922D01*
X115402930Y-53679508D01*
X115394564Y-53651933D01*
X115391500Y-53620816D01*
X115391500Y-53232184D01*
X115394564Y-53201067D01*
X115402930Y-53173492D01*
X115416514Y-53148078D01*
X115434798Y-53125798D01*
X115457078Y-53107514D01*
X115482492Y-53093930D01*
X115510067Y-53085564D01*
X115541184Y-53082500D01*
X115979816Y-53082500D01*
X116010933Y-53085564D01*
X116010933Y-53085564D01*
G37*
G36*
X106092660Y-49971156D02*
X106093611Y-49980813D01*
X106096428Y-49990099D01*
X106101002Y-49998657D01*
X106107158Y-50006158D01*
X106114659Y-50012314D01*
X106123217Y-50016888D01*
X106132503Y-50019705D01*
X106142160Y-50020656D01*
X106145160Y-50020656D01*
X106154817Y-50019705D01*
X106164103Y-50016888D01*
X106172661Y-50012314D01*
X106180162Y-50006158D01*
X106186318Y-49998657D01*
X106190892Y-49990099D01*
X106193709Y-49980813D01*
X106194660Y-49971156D01*
X106194660Y-48945656D01*
X106592660Y-48945656D01*
X106592660Y-49971156D01*
X106593611Y-49980813D01*
X106596428Y-49990099D01*
X106601002Y-49998657D01*
X106607158Y-50006158D01*
X106614659Y-50012314D01*
X106623217Y-50016888D01*
X106632503Y-50019705D01*
X106642160Y-50020656D01*
X106645160Y-50020656D01*
X106654817Y-50019705D01*
X106664103Y-50016888D01*
X106672661Y-50012314D01*
X106680162Y-50006158D01*
X106686318Y-49998657D01*
X106690892Y-49990099D01*
X106693709Y-49980813D01*
X106694660Y-49971156D01*
X106694660Y-48945656D01*
X107092660Y-48945656D01*
X107092660Y-49971156D01*
X107093611Y-49980813D01*
X107096428Y-49990099D01*
X107101002Y-49998657D01*
X107107158Y-50006158D01*
X107114659Y-50012314D01*
X107123217Y-50016888D01*
X107132503Y-50019705D01*
X107142160Y-50020656D01*
X107145160Y-50020656D01*
X107154817Y-50019705D01*
X107164103Y-50016888D01*
X107172661Y-50012314D01*
X107180162Y-50006158D01*
X107186318Y-49998657D01*
X107190892Y-49990099D01*
X107193709Y-49980813D01*
X107194660Y-49971156D01*
X107194660Y-48945656D01*
X107592660Y-48945656D01*
X107592660Y-49971156D01*
X107593611Y-49980813D01*
X107596428Y-49990099D01*
X107601002Y-49998657D01*
X107607158Y-50006158D01*
X107614659Y-50012314D01*
X107623217Y-50016888D01*
X107632503Y-50019705D01*
X107642160Y-50020656D01*
X107645160Y-50020656D01*
X107654817Y-50019705D01*
X107664103Y-50016888D01*
X107672661Y-50012314D01*
X107680162Y-50006158D01*
X107686318Y-49998657D01*
X107690892Y-49990099D01*
X107693709Y-49980813D01*
X107694660Y-49971156D01*
X107694660Y-48945656D01*
X108092660Y-48945656D01*
X108092660Y-49896156D01*
X108093611Y-49905813D01*
X108096428Y-49915099D01*
X108101002Y-49923657D01*
X108107158Y-49931158D01*
X108114659Y-49937314D01*
X108123217Y-49941888D01*
X108132503Y-49944705D01*
X108142160Y-49945656D01*
X109092660Y-49945656D01*
X109092660Y-50343656D01*
X108067160Y-50343656D01*
X108057503Y-50344607D01*
X108048217Y-50347424D01*
X108039659Y-50351998D01*
X108032158Y-50358154D01*
X108026002Y-50365655D01*
X108021428Y-50374213D01*
X108018611Y-50383499D01*
X108017660Y-50393156D01*
X108017660Y-50396156D01*
X108018611Y-50405813D01*
X108021428Y-50415099D01*
X108026002Y-50423657D01*
X108032158Y-50431158D01*
X108039659Y-50437314D01*
X108048217Y-50441888D01*
X108057503Y-50444705D01*
X108067160Y-50445656D01*
X109092660Y-50445656D01*
X109092660Y-50843656D01*
X108067160Y-50843656D01*
X108057503Y-50844607D01*
X108048217Y-50847424D01*
X108039659Y-50851998D01*
X108032158Y-50858154D01*
X108026002Y-50865655D01*
X108021428Y-50874213D01*
X108018611Y-50883499D01*
X108017660Y-50893156D01*
X108017660Y-50896156D01*
X108018611Y-50905813D01*
X108021428Y-50915099D01*
X108026002Y-50923657D01*
X108032158Y-50931158D01*
X108039659Y-50937314D01*
X108048217Y-50941888D01*
X108057503Y-50944705D01*
X108067160Y-50945656D01*
X109092660Y-50945656D01*
X109092660Y-51343656D01*
X108067160Y-51343656D01*
X108057503Y-51344607D01*
X108048217Y-51347424D01*
X108039659Y-51351998D01*
X108032158Y-51358154D01*
X108026002Y-51365655D01*
X108021428Y-51374213D01*
X108018611Y-51383499D01*
X108017660Y-51393156D01*
X108017660Y-51396156D01*
X108018611Y-51405813D01*
X108021428Y-51415099D01*
X108026002Y-51423657D01*
X108032158Y-51431158D01*
X108039659Y-51437314D01*
X108048217Y-51441888D01*
X108057503Y-51444705D01*
X108067160Y-51445656D01*
X109092660Y-51445656D01*
X109092660Y-51843656D01*
X108067160Y-51843656D01*
X108057503Y-51844607D01*
X108048217Y-51847424D01*
X108039659Y-51851998D01*
X108032158Y-51858154D01*
X108026002Y-51865655D01*
X108021428Y-51874213D01*
X108018611Y-51883499D01*
X108017660Y-51893156D01*
X108017660Y-51896156D01*
X108018611Y-51905813D01*
X108021428Y-51915099D01*
X108026002Y-51923657D01*
X108032158Y-51931158D01*
X108039659Y-51937314D01*
X108048217Y-51941888D01*
X108057503Y-51944705D01*
X108067160Y-51945656D01*
X109092660Y-51945656D01*
X109092660Y-52343656D01*
X108142160Y-52343656D01*
X108132503Y-52344607D01*
X108123217Y-52347424D01*
X108114659Y-52351998D01*
X108107158Y-52358154D01*
X108101002Y-52365655D01*
X108096428Y-52374213D01*
X108093611Y-52383499D01*
X108092660Y-52393156D01*
X108092660Y-53343656D01*
X107694660Y-53343656D01*
X107694660Y-52318156D01*
X107693709Y-52308499D01*
X107690892Y-52299213D01*
X107686318Y-52290655D01*
X107680162Y-52283154D01*
X107672661Y-52276998D01*
X107664103Y-52272424D01*
X107654817Y-52269607D01*
X107645160Y-52268656D01*
X107642160Y-52268656D01*
X107632503Y-52269607D01*
X107623217Y-52272424D01*
X107614659Y-52276998D01*
X107607158Y-52283154D01*
X107601002Y-52290655D01*
X107596428Y-52299213D01*
X107593611Y-52308499D01*
X107592660Y-52318156D01*
X107592660Y-53343656D01*
X107194660Y-53343656D01*
X107194660Y-52318156D01*
X107193709Y-52308499D01*
X107190892Y-52299213D01*
X107186318Y-52290655D01*
X107180162Y-52283154D01*
X107172661Y-52276998D01*
X107164103Y-52272424D01*
X107154817Y-52269607D01*
X107145160Y-52268656D01*
X107142160Y-52268656D01*
X107132503Y-52269607D01*
X107123217Y-52272424D01*
X107114659Y-52276998D01*
X107107158Y-52283154D01*
X107101002Y-52290655D01*
X107096428Y-52299213D01*
X107093611Y-52308499D01*
X107092660Y-52318156D01*
X107092660Y-53343656D01*
X106694660Y-53343656D01*
X106694660Y-52318156D01*
X106693709Y-52308499D01*
X106690892Y-52299213D01*
X106686318Y-52290655D01*
X106680162Y-52283154D01*
X106672661Y-52276998D01*
X106664103Y-52272424D01*
X106654817Y-52269607D01*
X106645160Y-52268656D01*
X106642160Y-52268656D01*
X106632503Y-52269607D01*
X106623217Y-52272424D01*
X106614659Y-52276998D01*
X106607158Y-52283154D01*
X106601002Y-52290655D01*
X106596428Y-52299213D01*
X106593611Y-52308499D01*
X106592660Y-52318156D01*
X106592660Y-53343656D01*
X106194660Y-53343656D01*
X106194660Y-52318156D01*
X106193709Y-52308499D01*
X106190892Y-52299213D01*
X106186318Y-52290655D01*
X106180162Y-52283154D01*
X106172661Y-52276998D01*
X106164103Y-52272424D01*
X106154817Y-52269607D01*
X106145160Y-52268656D01*
X106142160Y-52268656D01*
X106132503Y-52269607D01*
X106123217Y-52272424D01*
X106114659Y-52276998D01*
X106107158Y-52283154D01*
X106101002Y-52290655D01*
X106096428Y-52299213D01*
X106093611Y-52308499D01*
X106092660Y-52318156D01*
X106092660Y-53343656D01*
X105694660Y-53343656D01*
X105694660Y-52393156D01*
X105693709Y-52383499D01*
X105690892Y-52374213D01*
X105686318Y-52365655D01*
X105680162Y-52358154D01*
X105672661Y-52351998D01*
X105664103Y-52347424D01*
X105654817Y-52344607D01*
X105645160Y-52343656D01*
X104694660Y-52343656D01*
X104694660Y-51945656D01*
X105720160Y-51945656D01*
X105729817Y-51944705D01*
X105739103Y-51941888D01*
X105747661Y-51937314D01*
X105755162Y-51931158D01*
X105761318Y-51923657D01*
X105765892Y-51915099D01*
X105768709Y-51905813D01*
X105769660Y-51896156D01*
X105769660Y-51893156D01*
X105768709Y-51883499D01*
X105765892Y-51874213D01*
X105761318Y-51865655D01*
X105755162Y-51858154D01*
X105747661Y-51851998D01*
X105739103Y-51847424D01*
X105729817Y-51844607D01*
X105720160Y-51843656D01*
X104694660Y-51843656D01*
X104694660Y-51445656D01*
X105720160Y-51445656D01*
X105729817Y-51444705D01*
X105739103Y-51441888D01*
X105747661Y-51437314D01*
X105755162Y-51431158D01*
X105761318Y-51423657D01*
X105765892Y-51415099D01*
X105768709Y-51405813D01*
X105769660Y-51396156D01*
X105769660Y-51393156D01*
X105768709Y-51383499D01*
X105765892Y-51374213D01*
X105761318Y-51365655D01*
X105755162Y-51358154D01*
X105747661Y-51351998D01*
X105739103Y-51347424D01*
X105729817Y-51344607D01*
X105720160Y-51343656D01*
X104694660Y-51343656D01*
X104694660Y-50945656D01*
X105720160Y-50945656D01*
X105729817Y-50944705D01*
X105739103Y-50941888D01*
X105747661Y-50937314D01*
X105755162Y-50931158D01*
X105761318Y-50923657D01*
X105765892Y-50915099D01*
X105768709Y-50905813D01*
X105769660Y-50896156D01*
X105769660Y-50893156D01*
X105768709Y-50883499D01*
X105765892Y-50874213D01*
X105761318Y-50865655D01*
X105755162Y-50858154D01*
X105747661Y-50851998D01*
X105739103Y-50847424D01*
X105729817Y-50844607D01*
X105720160Y-50843656D01*
X104694660Y-50843656D01*
X104694660Y-50445656D01*
X105720160Y-50445656D01*
X105729817Y-50444705D01*
X105739103Y-50441888D01*
X105747661Y-50437314D01*
X105755162Y-50431158D01*
X105761318Y-50423657D01*
X105765892Y-50415099D01*
X105768709Y-50405813D01*
X105769660Y-50396156D01*
X105769660Y-50393156D01*
X105768709Y-50383499D01*
X105765892Y-50374213D01*
X105761318Y-50365655D01*
X105755162Y-50358154D01*
X105747661Y-50351998D01*
X105739103Y-50347424D01*
X105729817Y-50344607D01*
X105720160Y-50343656D01*
X104694660Y-50343656D01*
X104694660Y-49945656D01*
X105645160Y-49945656D01*
X105654817Y-49944705D01*
X105664103Y-49941888D01*
X105672661Y-49937314D01*
X105680162Y-49931158D01*
X105686318Y-49923657D01*
X105690892Y-49915099D01*
X105693709Y-49905813D01*
X105694660Y-49896156D01*
X105694660Y-48945656D01*
X106092660Y-48945656D01*
X106092660Y-49971156D01*
X106092660Y-49971156D01*
G37*
G36*
X111898933Y-52402564D02*
X111926508Y-52410930D01*
X111951922Y-52424514D01*
X111974202Y-52442798D01*
X111992486Y-52465078D01*
X112006070Y-52490492D01*
X112014436Y-52518067D01*
X112017500Y-52549184D01*
X112017500Y-52987816D01*
X112014436Y-53018933D01*
X112006070Y-53046508D01*
X111992486Y-53071922D01*
X111974202Y-53094202D01*
X111951922Y-53112486D01*
X111926508Y-53126070D01*
X111898933Y-53134436D01*
X111867816Y-53137500D01*
X111479184Y-53137500D01*
X111448067Y-53134436D01*
X111420492Y-53126070D01*
X111395078Y-53112486D01*
X111372798Y-53094202D01*
X111354514Y-53071922D01*
X111340930Y-53046508D01*
X111332564Y-53018933D01*
X111329500Y-52987816D01*
X111329500Y-52549184D01*
X111332564Y-52518067D01*
X111340930Y-52490492D01*
X111354514Y-52465078D01*
X111372798Y-52442798D01*
X111395078Y-52424514D01*
X111420492Y-52410930D01*
X111448067Y-52402564D01*
X111479184Y-52399500D01*
X111867816Y-52399500D01*
X111898933Y-52402564D01*
X111898933Y-52402564D01*
G37*
G36*
X110928933Y-52402564D02*
X110956508Y-52410930D01*
X110981922Y-52424514D01*
X111004202Y-52442798D01*
X111022486Y-52465078D01*
X111036070Y-52490492D01*
X111044436Y-52518067D01*
X111047500Y-52549184D01*
X111047500Y-52987816D01*
X111044436Y-53018933D01*
X111036070Y-53046508D01*
X111022486Y-53071922D01*
X111004202Y-53094202D01*
X110981922Y-53112486D01*
X110956508Y-53126070D01*
X110928933Y-53134436D01*
X110897816Y-53137500D01*
X110509184Y-53137500D01*
X110478067Y-53134436D01*
X110450492Y-53126070D01*
X110425078Y-53112486D01*
X110402798Y-53094202D01*
X110384514Y-53071922D01*
X110370930Y-53046508D01*
X110362564Y-53018933D01*
X110359500Y-52987816D01*
X110359500Y-52549184D01*
X110362564Y-52518067D01*
X110370930Y-52490492D01*
X110384514Y-52465078D01*
X110402798Y-52442798D01*
X110425078Y-52424514D01*
X110450492Y-52410930D01*
X110478067Y-52402564D01*
X110509184Y-52399500D01*
X110897816Y-52399500D01*
X110928933Y-52402564D01*
X110928933Y-52402564D01*
G37*
G36*
X120904000Y-52805000D02*
X119306000Y-52805000D01*
X119306000Y-51007000D01*
X120904000Y-51007000D01*
X120904000Y-52805000D01*
X120904000Y-52805000D01*
G37*
G36*
X103707433Y-51577064D02*
X103735008Y-51585430D01*
X103760422Y-51599014D01*
X103782702Y-51617298D01*
X103800986Y-51639578D01*
X103814570Y-51664992D01*
X103822936Y-51692567D01*
X103826000Y-51723684D01*
X103826000Y-52162316D01*
X103822936Y-52193433D01*
X103814570Y-52221008D01*
X103800986Y-52246422D01*
X103782702Y-52268702D01*
X103760422Y-52286986D01*
X103735008Y-52300570D01*
X103707433Y-52308936D01*
X103676316Y-52312000D01*
X103287684Y-52312000D01*
X103256567Y-52308936D01*
X103228992Y-52300570D01*
X103203578Y-52286986D01*
X103181298Y-52268702D01*
X103163014Y-52246422D01*
X103149430Y-52221008D01*
X103141064Y-52193433D01*
X103138000Y-52162316D01*
X103138000Y-51723684D01*
X103141064Y-51692567D01*
X103149430Y-51664992D01*
X103163014Y-51639578D01*
X103181298Y-51617298D01*
X103203578Y-51599014D01*
X103228992Y-51585430D01*
X103256567Y-51577064D01*
X103287684Y-51574000D01*
X103676316Y-51574000D01*
X103707433Y-51577064D01*
X103707433Y-51577064D01*
G37*
G36*
X102737433Y-51577064D02*
X102765008Y-51585430D01*
X102790422Y-51599014D01*
X102812702Y-51617298D01*
X102830986Y-51639578D01*
X102844570Y-51664992D01*
X102852936Y-51692567D01*
X102856000Y-51723684D01*
X102856000Y-52162316D01*
X102852936Y-52193433D01*
X102844570Y-52221008D01*
X102830986Y-52246422D01*
X102812702Y-52268702D01*
X102790422Y-52286986D01*
X102765008Y-52300570D01*
X102737433Y-52308936D01*
X102706316Y-52312000D01*
X102317684Y-52312000D01*
X102286567Y-52308936D01*
X102258992Y-52300570D01*
X102233578Y-52286986D01*
X102211298Y-52268702D01*
X102193014Y-52246422D01*
X102179430Y-52221008D01*
X102171064Y-52193433D01*
X102168000Y-52162316D01*
X102168000Y-51723684D01*
X102171064Y-51692567D01*
X102179430Y-51664992D01*
X102193014Y-51639578D01*
X102211298Y-51617298D01*
X102233578Y-51599014D01*
X102258992Y-51585430D01*
X102286567Y-51577064D01*
X102317684Y-51574000D01*
X102706316Y-51574000D01*
X102737433Y-51577064D01*
X102737433Y-51577064D01*
G37*
G36*
X101532500Y-52229500D02*
X100905500Y-52229500D01*
X100905500Y-51402500D01*
X101532500Y-51402500D01*
X101532500Y-52229500D01*
X101532500Y-52229500D01*
G37*
G36*
X110166933Y-50624564D02*
X110194508Y-50632930D01*
X110219922Y-50646514D01*
X110242202Y-50664798D01*
X110260486Y-50687078D01*
X110274070Y-50712492D01*
X110282436Y-50740067D01*
X110285500Y-50771184D01*
X110285500Y-51209816D01*
X110282436Y-51240933D01*
X110274070Y-51268508D01*
X110260486Y-51293922D01*
X110242202Y-51316202D01*
X110219922Y-51334486D01*
X110194508Y-51348070D01*
X110166933Y-51356436D01*
X110135816Y-51359500D01*
X109747184Y-51359500D01*
X109716067Y-51356436D01*
X109688492Y-51348070D01*
X109663078Y-51334486D01*
X109640798Y-51316202D01*
X109622514Y-51293922D01*
X109608930Y-51268508D01*
X109600564Y-51240933D01*
X109597500Y-51209816D01*
X109597500Y-50771184D01*
X109600564Y-50740067D01*
X109608930Y-50712492D01*
X109622514Y-50687078D01*
X109640798Y-50664798D01*
X109663078Y-50646514D01*
X109688492Y-50632930D01*
X109716067Y-50624564D01*
X109747184Y-50621500D01*
X110135816Y-50621500D01*
X110166933Y-50624564D01*
X110166933Y-50624564D01*
G37*
G36*
X111136933Y-50624564D02*
X111164508Y-50632930D01*
X111189922Y-50646514D01*
X111212202Y-50664798D01*
X111230486Y-50687078D01*
X111244070Y-50712492D01*
X111252436Y-50740067D01*
X111255500Y-50771184D01*
X111255500Y-51209816D01*
X111252436Y-51240933D01*
X111244070Y-51268508D01*
X111230486Y-51293922D01*
X111212202Y-51316202D01*
X111189922Y-51334486D01*
X111164508Y-51348070D01*
X111136933Y-51356436D01*
X111105816Y-51359500D01*
X110717184Y-51359500D01*
X110686067Y-51356436D01*
X110658492Y-51348070D01*
X110633078Y-51334486D01*
X110610798Y-51316202D01*
X110592514Y-51293922D01*
X110578930Y-51268508D01*
X110570564Y-51240933D01*
X110567500Y-51209816D01*
X110567500Y-50771184D01*
X110570564Y-50740067D01*
X110578930Y-50712492D01*
X110592514Y-50687078D01*
X110610798Y-50664798D01*
X110633078Y-50646514D01*
X110658492Y-50632930D01*
X110686067Y-50624564D01*
X110717184Y-50621500D01*
X111105816Y-50621500D01*
X111136933Y-50624564D01*
X111136933Y-50624564D01*
G37*
G36*
X101532500Y-50929500D02*
X100905500Y-50929500D01*
X100905500Y-50102500D01*
X101532500Y-50102500D01*
X101532500Y-50929500D01*
X101532500Y-50929500D01*
G37*
G36*
X103707433Y-50116564D02*
X103735008Y-50124930D01*
X103760422Y-50138514D01*
X103782702Y-50156798D01*
X103800986Y-50179078D01*
X103814570Y-50204492D01*
X103822936Y-50232067D01*
X103826000Y-50263184D01*
X103826000Y-50701816D01*
X103822936Y-50732933D01*
X103814570Y-50760508D01*
X103800986Y-50785922D01*
X103782702Y-50808202D01*
X103760422Y-50826486D01*
X103735008Y-50840070D01*
X103707433Y-50848436D01*
X103676316Y-50851500D01*
X103287684Y-50851500D01*
X103256567Y-50848436D01*
X103228992Y-50840070D01*
X103203578Y-50826486D01*
X103181298Y-50808202D01*
X103163014Y-50785922D01*
X103149430Y-50760508D01*
X103141064Y-50732933D01*
X103138000Y-50701816D01*
X103138000Y-50263184D01*
X103141064Y-50232067D01*
X103149430Y-50204492D01*
X103163014Y-50179078D01*
X103181298Y-50156798D01*
X103203578Y-50138514D01*
X103228992Y-50124930D01*
X103256567Y-50116564D01*
X103287684Y-50113500D01*
X103676316Y-50113500D01*
X103707433Y-50116564D01*
X103707433Y-50116564D01*
G37*
G36*
X102737433Y-50116564D02*
X102765008Y-50124930D01*
X102790422Y-50138514D01*
X102812702Y-50156798D01*
X102830986Y-50179078D01*
X102844570Y-50204492D01*
X102852936Y-50232067D01*
X102856000Y-50263184D01*
X102856000Y-50701816D01*
X102852936Y-50732933D01*
X102844570Y-50760508D01*
X102830986Y-50785922D01*
X102812702Y-50808202D01*
X102790422Y-50826486D01*
X102765008Y-50840070D01*
X102737433Y-50848436D01*
X102706316Y-50851500D01*
X102317684Y-50851500D01*
X102286567Y-50848436D01*
X102258992Y-50840070D01*
X102233578Y-50826486D01*
X102211298Y-50808202D01*
X102193014Y-50785922D01*
X102179430Y-50760508D01*
X102171064Y-50732933D01*
X102168000Y-50701816D01*
X102168000Y-50263184D01*
X102171064Y-50232067D01*
X102179430Y-50204492D01*
X102193014Y-50179078D01*
X102211298Y-50156798D01*
X102233578Y-50138514D01*
X102258992Y-50124930D01*
X102286567Y-50116564D01*
X102317684Y-50113500D01*
X102706316Y-50113500D01*
X102737433Y-50116564D01*
X102737433Y-50116564D01*
G37*
G36*
X116804000Y-50430000D02*
X115606000Y-50430000D01*
X115606000Y-50082000D01*
X116804000Y-50082000D01*
X116804000Y-50430000D01*
X116804000Y-50430000D01*
G37*
G36*
X110166933Y-49608564D02*
X110194508Y-49616930D01*
X110219922Y-49630514D01*
X110242202Y-49648798D01*
X110260486Y-49671078D01*
X110274070Y-49696492D01*
X110282436Y-49724067D01*
X110285500Y-49755184D01*
X110285500Y-50193816D01*
X110282436Y-50224933D01*
X110274070Y-50252508D01*
X110260486Y-50277922D01*
X110242202Y-50300202D01*
X110219922Y-50318486D01*
X110194508Y-50332070D01*
X110166933Y-50340436D01*
X110135816Y-50343500D01*
X109747184Y-50343500D01*
X109716067Y-50340436D01*
X109688492Y-50332070D01*
X109663078Y-50318486D01*
X109640798Y-50300202D01*
X109622514Y-50277922D01*
X109608930Y-50252508D01*
X109600564Y-50224933D01*
X109597500Y-50193816D01*
X109597500Y-49755184D01*
X109600564Y-49724067D01*
X109608930Y-49696492D01*
X109622514Y-49671078D01*
X109640798Y-49648798D01*
X109663078Y-49630514D01*
X109688492Y-49616930D01*
X109716067Y-49608564D01*
X109747184Y-49605500D01*
X110135816Y-49605500D01*
X110166933Y-49608564D01*
X110166933Y-49608564D01*
G37*
G36*
X113105433Y-49608564D02*
X113133008Y-49616930D01*
X113158422Y-49630514D01*
X113180702Y-49648798D01*
X113198986Y-49671078D01*
X113212570Y-49696492D01*
X113220936Y-49724067D01*
X113224000Y-49755184D01*
X113224000Y-50193816D01*
X113220936Y-50224933D01*
X113212570Y-50252508D01*
X113198986Y-50277922D01*
X113180702Y-50300202D01*
X113158422Y-50318486D01*
X113133008Y-50332070D01*
X113105433Y-50340436D01*
X113074316Y-50343500D01*
X112685684Y-50343500D01*
X112654567Y-50340436D01*
X112626992Y-50332070D01*
X112601578Y-50318486D01*
X112579298Y-50300202D01*
X112561014Y-50277922D01*
X112547430Y-50252508D01*
X112539064Y-50224933D01*
X112536000Y-50193816D01*
X112536000Y-49755184D01*
X112539064Y-49724067D01*
X112547430Y-49696492D01*
X112561014Y-49671078D01*
X112579298Y-49648798D01*
X112601578Y-49630514D01*
X112626992Y-49616930D01*
X112654567Y-49608564D01*
X112685684Y-49605500D01*
X113074316Y-49605500D01*
X113105433Y-49608564D01*
X113105433Y-49608564D01*
G37*
G36*
X112135433Y-49608564D02*
X112163008Y-49616930D01*
X112188422Y-49630514D01*
X112210702Y-49648798D01*
X112228986Y-49671078D01*
X112242570Y-49696492D01*
X112250936Y-49724067D01*
X112254000Y-49755184D01*
X112254000Y-50193816D01*
X112250936Y-50224933D01*
X112242570Y-50252508D01*
X112228986Y-50277922D01*
X112210702Y-50300202D01*
X112188422Y-50318486D01*
X112163008Y-50332070D01*
X112135433Y-50340436D01*
X112104316Y-50343500D01*
X111715684Y-50343500D01*
X111684567Y-50340436D01*
X111656992Y-50332070D01*
X111631578Y-50318486D01*
X111609298Y-50300202D01*
X111591014Y-50277922D01*
X111577430Y-50252508D01*
X111569064Y-50224933D01*
X111566000Y-50193816D01*
X111566000Y-49755184D01*
X111569064Y-49724067D01*
X111577430Y-49696492D01*
X111591014Y-49671078D01*
X111609298Y-49648798D01*
X111631578Y-49630514D01*
X111656992Y-49616930D01*
X111684567Y-49608564D01*
X111715684Y-49605500D01*
X112104316Y-49605500D01*
X112135433Y-49608564D01*
X112135433Y-49608564D01*
G37*
G36*
X111136933Y-49608564D02*
X111164508Y-49616930D01*
X111189922Y-49630514D01*
X111212202Y-49648798D01*
X111230486Y-49671078D01*
X111244070Y-49696492D01*
X111252436Y-49724067D01*
X111255500Y-49755184D01*
X111255500Y-50193816D01*
X111252436Y-50224933D01*
X111244070Y-50252508D01*
X111230486Y-50277922D01*
X111212202Y-50300202D01*
X111189922Y-50318486D01*
X111164508Y-50332070D01*
X111136933Y-50340436D01*
X111105816Y-50343500D01*
X110717184Y-50343500D01*
X110686067Y-50340436D01*
X110658492Y-50332070D01*
X110633078Y-50318486D01*
X110610798Y-50300202D01*
X110592514Y-50277922D01*
X110578930Y-50252508D01*
X110570564Y-50224933D01*
X110567500Y-50193816D01*
X110567500Y-49755184D01*
X110570564Y-49724067D01*
X110578930Y-49696492D01*
X110592514Y-49671078D01*
X110610798Y-49648798D01*
X110633078Y-49630514D01*
X110658492Y-49616930D01*
X110686067Y-49608564D01*
X110717184Y-49605500D01*
X111105816Y-49605500D01*
X111136933Y-49608564D01*
X111136933Y-49608564D01*
G37*
G36*
X100249000Y-50149000D02*
X98751000Y-50149000D01*
X98751000Y-48651000D01*
X100249000Y-48651000D01*
X100249000Y-50149000D01*
X100249000Y-50149000D01*
G37*
G36*
X116804000Y-49930000D02*
X115606000Y-49930000D01*
X115606000Y-49582000D01*
X116804000Y-49582000D01*
X116804000Y-49930000D01*
X116804000Y-49930000D01*
G37*
G36*
X103707433Y-49037064D02*
X103735008Y-49045430D01*
X103760422Y-49059014D01*
X103782702Y-49077298D01*
X103800986Y-49099578D01*
X103814570Y-49124992D01*
X103822936Y-49152567D01*
X103826000Y-49183684D01*
X103826000Y-49622316D01*
X103822936Y-49653433D01*
X103814570Y-49681008D01*
X103800986Y-49706422D01*
X103782702Y-49728702D01*
X103760422Y-49746986D01*
X103735008Y-49760570D01*
X103707433Y-49768936D01*
X103676316Y-49772000D01*
X103287684Y-49772000D01*
X103256567Y-49768936D01*
X103228992Y-49760570D01*
X103203578Y-49746986D01*
X103181298Y-49728702D01*
X103163014Y-49706422D01*
X103149430Y-49681008D01*
X103141064Y-49653433D01*
X103138000Y-49622316D01*
X103138000Y-49183684D01*
X103141064Y-49152567D01*
X103149430Y-49124992D01*
X103163014Y-49099578D01*
X103181298Y-49077298D01*
X103203578Y-49059014D01*
X103228992Y-49045430D01*
X103256567Y-49037064D01*
X103287684Y-49034000D01*
X103676316Y-49034000D01*
X103707433Y-49037064D01*
X103707433Y-49037064D01*
G37*
G36*
X102737433Y-49037064D02*
X102765008Y-49045430D01*
X102790422Y-49059014D01*
X102812702Y-49077298D01*
X102830986Y-49099578D01*
X102844570Y-49124992D01*
X102852936Y-49152567D01*
X102856000Y-49183684D01*
X102856000Y-49622316D01*
X102852936Y-49653433D01*
X102844570Y-49681008D01*
X102830986Y-49706422D01*
X102812702Y-49728702D01*
X102790422Y-49746986D01*
X102765008Y-49760570D01*
X102737433Y-49768936D01*
X102706316Y-49772000D01*
X102317684Y-49772000D01*
X102286567Y-49768936D01*
X102258992Y-49760570D01*
X102233578Y-49746986D01*
X102211298Y-49728702D01*
X102193014Y-49706422D01*
X102179430Y-49681008D01*
X102171064Y-49653433D01*
X102168000Y-49622316D01*
X102168000Y-49183684D01*
X102171064Y-49152567D01*
X102179430Y-49124992D01*
X102193014Y-49099578D01*
X102211298Y-49077298D01*
X102233578Y-49059014D01*
X102258992Y-49045430D01*
X102286567Y-49037064D01*
X102317684Y-49034000D01*
X102706316Y-49034000D01*
X102737433Y-49037064D01*
X102737433Y-49037064D01*
G37*
G36*
X116804000Y-49430000D02*
X115606000Y-49430000D01*
X115606000Y-49082000D01*
X116804000Y-49082000D01*
X116804000Y-49430000D01*
X116804000Y-49430000D01*
G37*
G36*
X112616082Y-48311434D02*
X112657026Y-48323854D01*
X112694760Y-48344023D01*
X112727834Y-48371166D01*
X112754977Y-48404240D01*
X112775146Y-48441974D01*
X112787566Y-48482918D01*
X112792000Y-48527936D01*
X112792000Y-49059064D01*
X112787566Y-49104082D01*
X112775146Y-49145026D01*
X112754977Y-49182760D01*
X112727834Y-49215834D01*
X112694760Y-49242977D01*
X112657026Y-49263146D01*
X112616082Y-49275566D01*
X112571064Y-49280000D01*
X111964936Y-49280000D01*
X111919918Y-49275566D01*
X111878974Y-49263146D01*
X111841240Y-49242977D01*
X111808166Y-49215834D01*
X111781023Y-49182760D01*
X111760854Y-49145026D01*
X111748434Y-49104082D01*
X111744000Y-49059064D01*
X111744000Y-48527936D01*
X111748434Y-48482918D01*
X111760854Y-48441974D01*
X111781023Y-48404240D01*
X111808166Y-48371166D01*
X111841240Y-48344023D01*
X111878974Y-48323854D01*
X111919918Y-48311434D01*
X111964936Y-48307000D01*
X112571064Y-48307000D01*
X112616082Y-48311434D01*
X112616082Y-48311434D01*
G37*
G36*
X110166933Y-48338564D02*
X110194508Y-48346930D01*
X110219922Y-48360514D01*
X110242202Y-48378798D01*
X110260486Y-48401078D01*
X110274070Y-48426492D01*
X110282436Y-48454067D01*
X110285500Y-48485184D01*
X110285500Y-48923816D01*
X110282436Y-48954933D01*
X110274070Y-48982508D01*
X110260486Y-49007922D01*
X110242202Y-49030202D01*
X110219922Y-49048486D01*
X110194508Y-49062070D01*
X110166933Y-49070436D01*
X110135816Y-49073500D01*
X109747184Y-49073500D01*
X109716067Y-49070436D01*
X109688492Y-49062070D01*
X109663078Y-49048486D01*
X109640798Y-49030202D01*
X109622514Y-49007922D01*
X109608930Y-48982508D01*
X109600564Y-48954933D01*
X109597500Y-48923816D01*
X109597500Y-48485184D01*
X109600564Y-48454067D01*
X109608930Y-48426492D01*
X109622514Y-48401078D01*
X109640798Y-48378798D01*
X109663078Y-48360514D01*
X109688492Y-48346930D01*
X109716067Y-48338564D01*
X109747184Y-48335500D01*
X110135816Y-48335500D01*
X110166933Y-48338564D01*
X110166933Y-48338564D01*
G37*
G36*
X111136933Y-48338564D02*
X111164508Y-48346930D01*
X111189922Y-48360514D01*
X111212202Y-48378798D01*
X111230486Y-48401078D01*
X111244070Y-48426492D01*
X111252436Y-48454067D01*
X111255500Y-48485184D01*
X111255500Y-48923816D01*
X111252436Y-48954933D01*
X111244070Y-48982508D01*
X111230486Y-49007922D01*
X111212202Y-49030202D01*
X111189922Y-49048486D01*
X111164508Y-49062070D01*
X111136933Y-49070436D01*
X111105816Y-49073500D01*
X110717184Y-49073500D01*
X110686067Y-49070436D01*
X110658492Y-49062070D01*
X110633078Y-49048486D01*
X110610798Y-49030202D01*
X110592514Y-49007922D01*
X110578930Y-48982508D01*
X110570564Y-48954933D01*
X110567500Y-48923816D01*
X110567500Y-48485184D01*
X110570564Y-48454067D01*
X110578930Y-48426492D01*
X110592514Y-48401078D01*
X110610798Y-48378798D01*
X110633078Y-48360514D01*
X110658492Y-48346930D01*
X110686067Y-48338564D01*
X110717184Y-48335500D01*
X111105816Y-48335500D01*
X111136933Y-48338564D01*
X111136933Y-48338564D01*
G37*
G36*
X116804000Y-48930000D02*
X115606000Y-48930000D01*
X115606000Y-48582000D01*
X116804000Y-48582000D01*
X116804000Y-48930000D01*
X116804000Y-48930000D01*
G37*
G36*
X116804000Y-48430000D02*
X115606000Y-48430000D01*
X115606000Y-48082000D01*
X116804000Y-48082000D01*
X116804000Y-48430000D01*
X116804000Y-48430000D01*
G37*
G36*
X114931433Y-47324564D02*
X114959008Y-47332930D01*
X114984422Y-47346514D01*
X115006702Y-47364798D01*
X115024986Y-47387078D01*
X115038570Y-47412492D01*
X115046936Y-47440067D01*
X115050000Y-47471184D01*
X115050000Y-47859816D01*
X115046936Y-47890933D01*
X115038570Y-47918508D01*
X115024986Y-47943922D01*
X115006702Y-47966202D01*
X114984422Y-47984486D01*
X114959008Y-47998070D01*
X114931433Y-48006436D01*
X114900316Y-48009500D01*
X114461684Y-48009500D01*
X114430567Y-48006436D01*
X114402992Y-47998070D01*
X114377578Y-47984486D01*
X114355298Y-47966202D01*
X114337014Y-47943922D01*
X114323430Y-47918508D01*
X114315064Y-47890933D01*
X114312000Y-47859816D01*
X114312000Y-47471184D01*
X114315064Y-47440067D01*
X114323430Y-47412492D01*
X114337014Y-47387078D01*
X114355298Y-47364798D01*
X114377578Y-47346514D01*
X114402992Y-47332930D01*
X114430567Y-47324564D01*
X114461684Y-47321500D01*
X114900316Y-47321500D01*
X114931433Y-47324564D01*
X114931433Y-47324564D01*
G37*
G36*
X116804000Y-47930000D02*
X115606000Y-47930000D01*
X115606000Y-47582000D01*
X116804000Y-47582000D01*
X116804000Y-47930000D01*
X116804000Y-47930000D01*
G37*
G36*
X106803433Y-47134064D02*
X106831008Y-47142430D01*
X106856422Y-47156014D01*
X106878702Y-47174298D01*
X106896986Y-47196578D01*
X106910570Y-47221992D01*
X106918936Y-47249567D01*
X106922000Y-47280684D01*
X106922000Y-47669316D01*
X106918936Y-47700433D01*
X106910570Y-47728008D01*
X106896986Y-47753422D01*
X106878702Y-47775702D01*
X106856422Y-47793986D01*
X106831008Y-47807570D01*
X106803433Y-47815936D01*
X106772316Y-47819000D01*
X106333684Y-47819000D01*
X106302567Y-47815936D01*
X106274992Y-47807570D01*
X106249578Y-47793986D01*
X106227298Y-47775702D01*
X106209014Y-47753422D01*
X106195430Y-47728008D01*
X106187064Y-47700433D01*
X106184000Y-47669316D01*
X106184000Y-47280684D01*
X106187064Y-47249567D01*
X106195430Y-47221992D01*
X106209014Y-47196578D01*
X106227298Y-47174298D01*
X106249578Y-47156014D01*
X106274992Y-47142430D01*
X106302567Y-47134064D01*
X106333684Y-47131000D01*
X106772316Y-47131000D01*
X106803433Y-47134064D01*
X106803433Y-47134064D01*
G37*
G36*
X105533433Y-47134064D02*
X105561008Y-47142430D01*
X105586422Y-47156014D01*
X105608702Y-47174298D01*
X105626986Y-47196578D01*
X105640570Y-47221992D01*
X105648936Y-47249567D01*
X105652000Y-47280684D01*
X105652000Y-47669316D01*
X105648936Y-47700433D01*
X105640570Y-47728008D01*
X105626986Y-47753422D01*
X105608702Y-47775702D01*
X105586422Y-47793986D01*
X105561008Y-47807570D01*
X105533433Y-47815936D01*
X105502316Y-47819000D01*
X105063684Y-47819000D01*
X105032567Y-47815936D01*
X105004992Y-47807570D01*
X104979578Y-47793986D01*
X104957298Y-47775702D01*
X104939014Y-47753422D01*
X104925430Y-47728008D01*
X104917064Y-47700433D01*
X104914000Y-47669316D01*
X104914000Y-47280684D01*
X104917064Y-47249567D01*
X104925430Y-47221992D01*
X104939014Y-47196578D01*
X104957298Y-47174298D01*
X104979578Y-47156014D01*
X105004992Y-47142430D01*
X105032567Y-47134064D01*
X105063684Y-47131000D01*
X105502316Y-47131000D01*
X105533433Y-47134064D01*
X105533433Y-47134064D01*
G37*
G36*
X108850933Y-47068564D02*
X108878508Y-47076930D01*
X108903922Y-47090514D01*
X108926202Y-47108798D01*
X108944486Y-47131078D01*
X108958070Y-47156492D01*
X108966436Y-47184067D01*
X108969500Y-47215184D01*
X108969500Y-47653816D01*
X108966436Y-47684933D01*
X108958070Y-47712508D01*
X108944486Y-47737922D01*
X108926202Y-47760202D01*
X108903922Y-47778486D01*
X108878508Y-47792070D01*
X108850933Y-47800436D01*
X108819816Y-47803500D01*
X108431184Y-47803500D01*
X108400067Y-47800436D01*
X108372492Y-47792070D01*
X108347078Y-47778486D01*
X108324798Y-47760202D01*
X108306514Y-47737922D01*
X108292930Y-47712508D01*
X108284564Y-47684933D01*
X108281500Y-47653816D01*
X108281500Y-47215184D01*
X108284564Y-47184067D01*
X108292930Y-47156492D01*
X108306514Y-47131078D01*
X108324798Y-47108798D01*
X108347078Y-47090514D01*
X108372492Y-47076930D01*
X108400067Y-47068564D01*
X108431184Y-47065500D01*
X108819816Y-47065500D01*
X108850933Y-47068564D01*
X108850933Y-47068564D01*
G37*
G36*
X107880933Y-47068564D02*
X107908508Y-47076930D01*
X107933922Y-47090514D01*
X107956202Y-47108798D01*
X107974486Y-47131078D01*
X107988070Y-47156492D01*
X107996436Y-47184067D01*
X107999500Y-47215184D01*
X107999500Y-47653816D01*
X107996436Y-47684933D01*
X107988070Y-47712508D01*
X107974486Y-47737922D01*
X107956202Y-47760202D01*
X107933922Y-47778486D01*
X107908508Y-47792070D01*
X107880933Y-47800436D01*
X107849816Y-47803500D01*
X107461184Y-47803500D01*
X107430067Y-47800436D01*
X107402492Y-47792070D01*
X107377078Y-47778486D01*
X107354798Y-47760202D01*
X107336514Y-47737922D01*
X107322930Y-47712508D01*
X107314564Y-47684933D01*
X107311500Y-47653816D01*
X107311500Y-47215184D01*
X107314564Y-47184067D01*
X107322930Y-47156492D01*
X107336514Y-47131078D01*
X107354798Y-47108798D01*
X107377078Y-47090514D01*
X107402492Y-47076930D01*
X107430067Y-47068564D01*
X107461184Y-47065500D01*
X107849816Y-47065500D01*
X107880933Y-47068564D01*
X107880933Y-47068564D01*
G37*
G36*
X110166933Y-47068564D02*
X110194508Y-47076930D01*
X110219922Y-47090514D01*
X110242202Y-47108798D01*
X110260486Y-47131078D01*
X110274070Y-47156492D01*
X110282436Y-47184067D01*
X110285500Y-47215184D01*
X110285500Y-47653816D01*
X110282436Y-47684933D01*
X110274070Y-47712508D01*
X110260486Y-47737922D01*
X110242202Y-47760202D01*
X110219922Y-47778486D01*
X110194508Y-47792070D01*
X110166933Y-47800436D01*
X110135816Y-47803500D01*
X109747184Y-47803500D01*
X109716067Y-47800436D01*
X109688492Y-47792070D01*
X109663078Y-47778486D01*
X109640798Y-47760202D01*
X109622514Y-47737922D01*
X109608930Y-47712508D01*
X109600564Y-47684933D01*
X109597500Y-47653816D01*
X109597500Y-47215184D01*
X109600564Y-47184067D01*
X109608930Y-47156492D01*
X109622514Y-47131078D01*
X109640798Y-47108798D01*
X109663078Y-47090514D01*
X109688492Y-47076930D01*
X109716067Y-47068564D01*
X109747184Y-47065500D01*
X110135816Y-47065500D01*
X110166933Y-47068564D01*
X110166933Y-47068564D01*
G37*
G36*
X111136933Y-47068564D02*
X111164508Y-47076930D01*
X111189922Y-47090514D01*
X111212202Y-47108798D01*
X111230486Y-47131078D01*
X111244070Y-47156492D01*
X111252436Y-47184067D01*
X111255500Y-47215184D01*
X111255500Y-47653816D01*
X111252436Y-47684933D01*
X111244070Y-47712508D01*
X111230486Y-47737922D01*
X111212202Y-47760202D01*
X111189922Y-47778486D01*
X111164508Y-47792070D01*
X111136933Y-47800436D01*
X111105816Y-47803500D01*
X110717184Y-47803500D01*
X110686067Y-47800436D01*
X110658492Y-47792070D01*
X110633078Y-47778486D01*
X110610798Y-47760202D01*
X110592514Y-47737922D01*
X110578930Y-47712508D01*
X110570564Y-47684933D01*
X110567500Y-47653816D01*
X110567500Y-47215184D01*
X110570564Y-47184067D01*
X110578930Y-47156492D01*
X110592514Y-47131078D01*
X110610798Y-47108798D01*
X110633078Y-47090514D01*
X110658492Y-47076930D01*
X110686067Y-47068564D01*
X110717184Y-47065500D01*
X111105816Y-47065500D01*
X111136933Y-47068564D01*
X111136933Y-47068564D01*
G37*
G36*
X104215433Y-47068564D02*
X104243008Y-47076930D01*
X104268422Y-47090514D01*
X104290702Y-47108798D01*
X104308986Y-47131078D01*
X104322570Y-47156492D01*
X104330936Y-47184067D01*
X104334000Y-47215184D01*
X104334000Y-47653816D01*
X104330936Y-47684933D01*
X104322570Y-47712508D01*
X104308986Y-47737922D01*
X104290702Y-47760202D01*
X104268422Y-47778486D01*
X104243008Y-47792070D01*
X104215433Y-47800436D01*
X104184316Y-47803500D01*
X103795684Y-47803500D01*
X103764567Y-47800436D01*
X103736992Y-47792070D01*
X103711578Y-47778486D01*
X103689298Y-47760202D01*
X103671014Y-47737922D01*
X103657430Y-47712508D01*
X103649064Y-47684933D01*
X103646000Y-47653816D01*
X103646000Y-47215184D01*
X103649064Y-47184067D01*
X103657430Y-47156492D01*
X103671014Y-47131078D01*
X103689298Y-47108798D01*
X103711578Y-47090514D01*
X103736992Y-47076930D01*
X103764567Y-47068564D01*
X103795684Y-47065500D01*
X104184316Y-47065500D01*
X104215433Y-47068564D01*
X104215433Y-47068564D01*
G37*
G36*
X103245433Y-47068564D02*
X103273008Y-47076930D01*
X103298422Y-47090514D01*
X103320702Y-47108798D01*
X103338986Y-47131078D01*
X103352570Y-47156492D01*
X103360936Y-47184067D01*
X103364000Y-47215184D01*
X103364000Y-47653816D01*
X103360936Y-47684933D01*
X103352570Y-47712508D01*
X103338986Y-47737922D01*
X103320702Y-47760202D01*
X103298422Y-47778486D01*
X103273008Y-47792070D01*
X103245433Y-47800436D01*
X103214316Y-47803500D01*
X102825684Y-47803500D01*
X102794567Y-47800436D01*
X102766992Y-47792070D01*
X102741578Y-47778486D01*
X102719298Y-47760202D01*
X102701014Y-47737922D01*
X102687430Y-47712508D01*
X102679064Y-47684933D01*
X102676000Y-47653816D01*
X102676000Y-47215184D01*
X102679064Y-47184067D01*
X102687430Y-47156492D01*
X102701014Y-47131078D01*
X102719298Y-47108798D01*
X102741578Y-47090514D01*
X102766992Y-47076930D01*
X102794567Y-47068564D01*
X102825684Y-47065500D01*
X103214316Y-47065500D01*
X103245433Y-47068564D01*
X103245433Y-47068564D01*
G37*
G36*
X112616082Y-46736434D02*
X112657026Y-46748854D01*
X112694760Y-46769023D01*
X112727834Y-46796166D01*
X112754977Y-46829240D01*
X112775146Y-46866974D01*
X112787566Y-46907918D01*
X112792000Y-46952936D01*
X112792000Y-47484064D01*
X112787566Y-47529082D01*
X112775146Y-47570026D01*
X112754977Y-47607760D01*
X112727834Y-47640834D01*
X112694760Y-47667977D01*
X112657026Y-47688146D01*
X112616082Y-47700566D01*
X112571064Y-47705000D01*
X111964936Y-47705000D01*
X111919918Y-47700566D01*
X111878974Y-47688146D01*
X111841240Y-47667977D01*
X111808166Y-47640834D01*
X111781023Y-47607760D01*
X111760854Y-47570026D01*
X111748434Y-47529082D01*
X111744000Y-47484064D01*
X111744000Y-46952936D01*
X111748434Y-46907918D01*
X111760854Y-46866974D01*
X111781023Y-46829240D01*
X111808166Y-46796166D01*
X111841240Y-46769023D01*
X111878974Y-46748854D01*
X111919918Y-46736434D01*
X111964936Y-46732000D01*
X112571064Y-46732000D01*
X112616082Y-46736434D01*
X112616082Y-46736434D01*
G37*
G36*
X113788433Y-46880064D02*
X113816008Y-46888430D01*
X113841422Y-46902014D01*
X113863702Y-46920298D01*
X113881986Y-46942578D01*
X113895570Y-46967992D01*
X113903936Y-46995567D01*
X113907000Y-47026684D01*
X113907000Y-47415316D01*
X113903936Y-47446433D01*
X113895570Y-47474008D01*
X113881986Y-47499422D01*
X113863702Y-47521702D01*
X113841422Y-47539986D01*
X113816008Y-47553570D01*
X113788433Y-47561936D01*
X113757316Y-47565000D01*
X113318684Y-47565000D01*
X113287567Y-47561936D01*
X113259992Y-47553570D01*
X113234578Y-47539986D01*
X113212298Y-47521702D01*
X113194014Y-47499422D01*
X113180430Y-47474008D01*
X113172064Y-47446433D01*
X113169000Y-47415316D01*
X113169000Y-47026684D01*
X113172064Y-46995567D01*
X113180430Y-46967992D01*
X113194014Y-46942578D01*
X113212298Y-46920298D01*
X113234578Y-46902014D01*
X113259992Y-46888430D01*
X113287567Y-46880064D01*
X113318684Y-46877000D01*
X113757316Y-46877000D01*
X113788433Y-46880064D01*
X113788433Y-46880064D01*
G37*
G36*
X116804000Y-47430000D02*
X115606000Y-47430000D01*
X115606000Y-47082000D01*
X116804000Y-47082000D01*
X116804000Y-47430000D01*
X116804000Y-47430000D01*
G37*
G36*
X114931433Y-46354564D02*
X114959008Y-46362930D01*
X114984422Y-46376514D01*
X115006702Y-46394798D01*
X115024986Y-46417078D01*
X115038570Y-46442492D01*
X115046936Y-46470067D01*
X115050000Y-46501184D01*
X115050000Y-46889816D01*
X115046936Y-46920933D01*
X115038570Y-46948508D01*
X115024986Y-46973922D01*
X115006702Y-46996202D01*
X114984422Y-47014486D01*
X114959008Y-47028070D01*
X114931433Y-47036436D01*
X114900316Y-47039500D01*
X114461684Y-47039500D01*
X114430567Y-47036436D01*
X114402992Y-47028070D01*
X114377578Y-47014486D01*
X114355298Y-46996202D01*
X114337014Y-46973922D01*
X114323430Y-46948508D01*
X114315064Y-46920933D01*
X114312000Y-46889816D01*
X114312000Y-46501184D01*
X114315064Y-46470067D01*
X114323430Y-46442492D01*
X114337014Y-46417078D01*
X114355298Y-46394798D01*
X114377578Y-46376514D01*
X114402992Y-46362930D01*
X114430567Y-46354564D01*
X114461684Y-46351500D01*
X114900316Y-46351500D01*
X114931433Y-46354564D01*
X114931433Y-46354564D01*
G37*
G36*
X116804000Y-46930000D02*
X115606000Y-46930000D01*
X115606000Y-46582000D01*
X116804000Y-46582000D01*
X116804000Y-46930000D01*
X116804000Y-46930000D01*
G37*
G36*
X105533433Y-46164064D02*
X105561008Y-46172430D01*
X105586422Y-46186014D01*
X105608702Y-46204298D01*
X105626986Y-46226578D01*
X105640570Y-46251992D01*
X105648936Y-46279567D01*
X105652000Y-46310684D01*
X105652000Y-46699316D01*
X105648936Y-46730433D01*
X105640570Y-46758008D01*
X105626986Y-46783422D01*
X105608702Y-46805702D01*
X105586422Y-46823986D01*
X105561008Y-46837570D01*
X105533433Y-46845936D01*
X105502316Y-46849000D01*
X105063684Y-46849000D01*
X105032567Y-46845936D01*
X105004992Y-46837570D01*
X104979578Y-46823986D01*
X104957298Y-46805702D01*
X104939014Y-46783422D01*
X104925430Y-46758008D01*
X104917064Y-46730433D01*
X104914000Y-46699316D01*
X104914000Y-46310684D01*
X104917064Y-46279567D01*
X104925430Y-46251992D01*
X104939014Y-46226578D01*
X104957298Y-46204298D01*
X104979578Y-46186014D01*
X105004992Y-46172430D01*
X105032567Y-46164064D01*
X105063684Y-46161000D01*
X105502316Y-46161000D01*
X105533433Y-46164064D01*
X105533433Y-46164064D01*
G37*
G36*
X106803433Y-46164064D02*
X106831008Y-46172430D01*
X106856422Y-46186014D01*
X106878702Y-46204298D01*
X106896986Y-46226578D01*
X106910570Y-46251992D01*
X106918936Y-46279567D01*
X106922000Y-46310684D01*
X106922000Y-46699316D01*
X106918936Y-46730433D01*
X106910570Y-46758008D01*
X106896986Y-46783422D01*
X106878702Y-46805702D01*
X106856422Y-46823986D01*
X106831008Y-46837570D01*
X106803433Y-46845936D01*
X106772316Y-46849000D01*
X106333684Y-46849000D01*
X106302567Y-46845936D01*
X106274992Y-46837570D01*
X106249578Y-46823986D01*
X106227298Y-46805702D01*
X106209014Y-46783422D01*
X106195430Y-46758008D01*
X106187064Y-46730433D01*
X106184000Y-46699316D01*
X106184000Y-46310684D01*
X106187064Y-46279567D01*
X106195430Y-46251992D01*
X106209014Y-46226578D01*
X106227298Y-46204298D01*
X106249578Y-46186014D01*
X106274992Y-46172430D01*
X106302567Y-46164064D01*
X106333684Y-46161000D01*
X106772316Y-46161000D01*
X106803433Y-46164064D01*
X106803433Y-46164064D01*
G37*
G36*
X113788433Y-45910064D02*
X113816008Y-45918430D01*
X113841422Y-45932014D01*
X113863702Y-45950298D01*
X113881986Y-45972578D01*
X113895570Y-45997992D01*
X113903936Y-46025567D01*
X113907000Y-46056684D01*
X113907000Y-46445316D01*
X113903936Y-46476433D01*
X113895570Y-46504008D01*
X113881986Y-46529422D01*
X113863702Y-46551702D01*
X113841422Y-46569986D01*
X113816008Y-46583570D01*
X113788433Y-46591936D01*
X113757316Y-46595000D01*
X113318684Y-46595000D01*
X113287567Y-46591936D01*
X113259992Y-46583570D01*
X113234578Y-46569986D01*
X113212298Y-46551702D01*
X113194014Y-46529422D01*
X113180430Y-46504008D01*
X113172064Y-46476433D01*
X113169000Y-46445316D01*
X113169000Y-46056684D01*
X113172064Y-46025567D01*
X113180430Y-45997992D01*
X113194014Y-45972578D01*
X113212298Y-45950298D01*
X113234578Y-45932014D01*
X113259992Y-45918430D01*
X113287567Y-45910064D01*
X113318684Y-45907000D01*
X113757316Y-45907000D01*
X113788433Y-45910064D01*
X113788433Y-45910064D01*
G37*
G36*
X116804000Y-46430000D02*
X115606000Y-46430000D01*
X115606000Y-46082000D01*
X116804000Y-46082000D01*
X116804000Y-46430000D01*
X116804000Y-46430000D01*
G37*
G36*
X116804000Y-45930000D02*
X115606000Y-45930000D01*
X115606000Y-45582000D01*
X116804000Y-45582000D01*
X116804000Y-45930000D01*
X116804000Y-45930000D01*
G37*
G36*
X120904000Y-45005000D02*
X119306000Y-45005000D01*
X119306000Y-43207000D01*
X120904000Y-43207000D01*
X120904000Y-45005000D01*
X120904000Y-45005000D01*
G37*
G36*
X137768767Y-40128822D02*
X137905258Y-40185359D01*
X138028097Y-40267437D01*
X138132563Y-40371903D01*
X138214641Y-40494742D01*
X138271178Y-40631233D01*
X138300000Y-40776131D01*
X138300000Y-40923869D01*
X138271178Y-41068767D01*
X138214641Y-41205258D01*
X138132563Y-41328097D01*
X138028097Y-41432563D01*
X137905258Y-41514641D01*
X137768767Y-41571178D01*
X137623869Y-41600000D01*
X137476131Y-41600000D01*
X137331233Y-41571178D01*
X137194742Y-41514641D01*
X137071903Y-41432563D01*
X136967437Y-41328097D01*
X136885359Y-41205258D01*
X136828822Y-41068767D01*
X136800000Y-40923869D01*
X136800000Y-40776131D01*
X136828822Y-40631233D01*
X136885359Y-40494742D01*
X136967437Y-40371903D01*
X137071903Y-40267437D01*
X137194742Y-40185359D01*
X137331233Y-40128822D01*
X137476131Y-40100000D01*
X137623869Y-40100000D01*
X137768767Y-40128822D01*
X137768767Y-40128822D01*
G37*
G36*
X91068767Y-40128822D02*
X91205258Y-40185359D01*
X91328097Y-40267437D01*
X91432563Y-40371903D01*
X91514641Y-40494742D01*
X91571178Y-40631233D01*
X91600000Y-40776131D01*
X91600000Y-40923869D01*
X91571178Y-41068767D01*
X91514641Y-41205258D01*
X91432563Y-41328097D01*
X91328097Y-41432563D01*
X91205258Y-41514641D01*
X91068767Y-41571178D01*
X90923869Y-41600000D01*
X90776131Y-41600000D01*
X90631233Y-41571178D01*
X90494742Y-41514641D01*
X90371903Y-41432563D01*
X90267437Y-41328097D01*
X90185359Y-41205258D01*
X90128822Y-41068767D01*
X90100000Y-40923869D01*
X90100000Y-40776131D01*
X90128822Y-40631233D01*
X90185359Y-40494742D01*
X90267437Y-40371903D01*
X90371903Y-40267437D01*
X90494742Y-40185359D01*
X90631233Y-40128822D01*
X90776131Y-40100000D01*
X90923869Y-40100000D01*
X91068767Y-40128822D01*
X91068767Y-40128822D01*
G37*
M02*
