%TF.GenerationSoftware,KiCad,Pcbnew,5.0.2-bee76a0~70~ubuntu18.04.1*%
%TF.CreationDate,2020-02-29T17:21:03-08:00*%
%TF.ProjectId,SolarCellX_v3,536f6c61-7243-4656-9c6c-585f76332e6b,rev?*%
%TF.SameCoordinates,Original*%
%TF.FileFunction,Copper,L3,Inr*%
%TF.FilePolarity,Positive*%
%FSLAX46Y46*%
G04 Gerber Fmt 4.6, Leading zero omitted, Abs format (unit mm)*
G04 Created by KiCad (PCBNEW 5.0.2-bee76a0~70~ubuntu18.04.1) date Sat 29 Feb 2020 05:21:03 PM PST*
%MOMM*%
%LPD*%
G01*
G04 APERTURE LIST*
%ADD10C,0.050000*%
%ADD11C,1.000000*%
%ADD12C,0.600000*%
%ADD13C,0.800000*%
%ADD14C,0.584200*%
%ADD15C,0.190000*%
G04 APERTURE END LIST*
D10*
X96200000Y-47000000D02*
G75*
G03X96200000Y-47000000I-1100000J0D01*
G01*
X96200000Y-81400000D02*
G75*
G03X96200000Y-81400000I-1100000J0D01*
G01*
X136000000Y-81400000D02*
G75*
G03X136000000Y-81400000I-1100000J0D01*
G01*
X136000000Y-47000000D02*
G75*
G03X136000000Y-47000000I-1100000J0D01*
G01*
X90000000Y-88400000D02*
X138400000Y-88400000D01*
X90000000Y-88400000D02*
X90000000Y-40000000D01*
X138400000Y-40000000D02*
X138400000Y-88400000D01*
X90000000Y-40000000D02*
X138400000Y-40000000D01*
D11*
X101600000Y-62865000D03*
X106172000Y-62865000D03*
X119888000Y-58674000D03*
X119888000Y-62992000D03*
D12*
X106253260Y-51754256D03*
X107523260Y-51754256D03*
X106253260Y-50509656D03*
X109410500Y-52514500D03*
X107530900Y-50485040D03*
X106923840Y-51092100D03*
X104302012Y-52519693D03*
D13*
X122050000Y-52050000D03*
X124450000Y-55400000D03*
D12*
X128250000Y-47700000D03*
X124650000Y-47694011D03*
X117537610Y-48650791D03*
X117348000Y-53403500D03*
X121600000Y-47700000D03*
X118047740Y-47243775D03*
X126700000Y-47200000D03*
X117284500Y-47434502D03*
X127700000Y-47100000D03*
X105156000Y-49149000D03*
X111633000Y-50800000D03*
X114950000Y-49750000D03*
X121750000Y-48450000D03*
X124150000Y-50800000D03*
X115050000Y-50600000D03*
X106870500Y-48260000D03*
X109232672Y-48653690D03*
X104144156Y-51144656D03*
X102933500Y-58674000D03*
X100550000Y-48250000D03*
D13*
X119958000Y-53290920D03*
D14*
X126619000Y-87630000D03*
D12*
X98552000Y-64770000D03*
X98552000Y-63500000D03*
X98552000Y-66040000D03*
D14*
X129413000Y-87630000D03*
D12*
X122450000Y-49100000D03*
X125950000Y-49100000D03*
X106913660Y-53938656D03*
X113538000Y-47879000D03*
D13*
X98500000Y-55250000D03*
D15*
X98900000Y-48300000D02*
X98900000Y-46550000D01*
X124000000Y-81850000D02*
X98900000Y-81850000D01*
X124700000Y-81150000D02*
X124000000Y-81850000D01*
X129700000Y-81150000D02*
X124700000Y-81150000D01*
X129700000Y-79750000D02*
X129700000Y-81150000D01*
X132200000Y-77250000D02*
X129700000Y-79750000D01*
X96550000Y-77800000D02*
X96550000Y-50650000D01*
X98550000Y-46200000D02*
X129700000Y-46200000D01*
X129350000Y-46550000D02*
X129350000Y-48750000D01*
X98550000Y-48150000D02*
X98550000Y-46200000D01*
X96200000Y-50500000D02*
X98550000Y-48150000D01*
X98550000Y-80250000D02*
X96200000Y-77900000D01*
X124100000Y-82200000D02*
X98550000Y-82200000D01*
X96550000Y-50650000D02*
X98900000Y-48300000D01*
X130050000Y-79850000D02*
X130050000Y-81500000D01*
X130050000Y-45850000D02*
X130050000Y-48550000D01*
X95850000Y-50100000D02*
X96150000Y-50100000D01*
X98900000Y-80150000D02*
X96550000Y-77800000D01*
X95850000Y-78250000D02*
X95850000Y-50100000D01*
X98200000Y-82450000D02*
X98200000Y-80350000D01*
X98100000Y-82550000D02*
X98200000Y-82450000D01*
X130050000Y-48550000D02*
X132550000Y-51050000D01*
X124900000Y-81850000D02*
X124200000Y-82550000D01*
X130400000Y-79950000D02*
X130400000Y-81850000D01*
X132900000Y-77450000D02*
X130400000Y-79950000D01*
X132900000Y-50950000D02*
X132900000Y-77450000D01*
X130400000Y-48450000D02*
X132900000Y-50950000D01*
X130400000Y-45500000D02*
X130400000Y-48450000D01*
X97300000Y-45500000D02*
X130400000Y-45500000D01*
X132550000Y-77350000D02*
X130050000Y-79850000D01*
X97850000Y-46050000D02*
X97300000Y-45500000D01*
X95500000Y-49750000D02*
X96050000Y-49750000D01*
X96200000Y-77900000D02*
X96200000Y-50500000D01*
X95500000Y-78600000D02*
X95500000Y-49750000D01*
X97850000Y-82350000D02*
X97850000Y-80450000D01*
X124300000Y-82900000D02*
X97300000Y-82900000D01*
X130750000Y-82200000D02*
X125000000Y-82200000D01*
X130750000Y-80050000D02*
X130750000Y-82200000D01*
X133250000Y-77550000D02*
X130750000Y-80050000D01*
X96050000Y-49750000D02*
X97850000Y-47950000D01*
X133250000Y-50850000D02*
X133250000Y-77550000D01*
X130750000Y-48350000D02*
X133250000Y-50850000D01*
X124200000Y-82550000D02*
X98100000Y-82550000D01*
X131250000Y-45150000D02*
X130750000Y-45650000D01*
X97500000Y-47850000D02*
X97500000Y-46150000D01*
X95950000Y-49400000D02*
X97500000Y-47850000D01*
X95150000Y-49400000D02*
X95950000Y-49400000D01*
X97500000Y-80550000D02*
X95900000Y-78950000D01*
X97500000Y-82250000D02*
X97500000Y-80550000D01*
X124400000Y-83250000D02*
X96500000Y-83250000D01*
X133600000Y-77650000D02*
X131100000Y-80150000D01*
X131100000Y-48250000D02*
X133600000Y-50750000D01*
X132050000Y-44800000D02*
X131100000Y-45750000D01*
X124800000Y-81500000D02*
X124100000Y-82200000D01*
X96050000Y-44800000D02*
X132050000Y-44800000D01*
X97150000Y-46250000D02*
X96050000Y-45150000D01*
X97850000Y-80450000D02*
X96000000Y-78600000D01*
X97150000Y-47750000D02*
X97150000Y-46250000D01*
X95850000Y-49050000D02*
X97150000Y-47750000D01*
X129700000Y-46200000D02*
X129700000Y-48650000D01*
X95800000Y-79300000D02*
X94800000Y-79300000D01*
X96150000Y-50100000D02*
X98200000Y-48050000D01*
X97150000Y-80650000D02*
X95800000Y-79300000D01*
X95900000Y-83600000D02*
X95900000Y-83400000D01*
X124500000Y-83600000D02*
X95900000Y-83600000D01*
X125200000Y-82900000D02*
X124500000Y-83600000D01*
X130800000Y-82900000D02*
X125200000Y-82900000D01*
X131850000Y-83950000D02*
X130800000Y-82900000D01*
X132850000Y-83950000D02*
X131850000Y-83950000D01*
X131450000Y-82550000D02*
X132850000Y-83950000D01*
X133850000Y-77850000D02*
X131450000Y-80250000D01*
X132150000Y-80450000D02*
X132150000Y-82350000D01*
X132150000Y-47950000D02*
X134150000Y-49950000D01*
X133950000Y-77850000D02*
X133850000Y-77850000D01*
X135350000Y-49250000D02*
X135350000Y-79250000D01*
X131450000Y-48150000D02*
X133950000Y-50650000D01*
X95750000Y-48700000D02*
X96800000Y-47650000D01*
X94450000Y-45300000D02*
X94450000Y-44450000D01*
X94450000Y-48700000D02*
X95750000Y-48700000D01*
X98900000Y-81850000D02*
X98900000Y-80150000D01*
X97150000Y-82150000D02*
X97150000Y-80650000D01*
X96451570Y-47559838D02*
X96451570Y-46440161D01*
X95700000Y-79650000D02*
X94450000Y-79650000D01*
X96800000Y-80750000D02*
X95700000Y-79650000D01*
X135350000Y-43050000D02*
X135350000Y-44950000D01*
X96800000Y-82050000D02*
X96800000Y-80750000D01*
X97500000Y-46150000D02*
X96500000Y-45150000D01*
X125400000Y-86750000D02*
X91650000Y-86750000D01*
X95700000Y-83150000D02*
X96800000Y-82050000D01*
X96500000Y-45150000D02*
X131250000Y-45150000D01*
X94450000Y-83150000D02*
X95700000Y-83150000D01*
X94450000Y-83950000D02*
X94450000Y-83150000D01*
X124600000Y-83950000D02*
X94450000Y-83950000D01*
X133650000Y-84300000D02*
X131750000Y-84300000D01*
X130700000Y-83250000D02*
X125300000Y-83250000D01*
X131100000Y-80150000D02*
X131100000Y-82550000D01*
X131800000Y-80350000D02*
X131800000Y-82450000D01*
X133950000Y-78200000D02*
X131800000Y-80350000D01*
X134300000Y-78200000D02*
X133950000Y-78200000D01*
X94100000Y-45650000D02*
X94100000Y-44100000D01*
X96451570Y-46440161D02*
X95661409Y-45650000D01*
X95661408Y-48350000D02*
X96451570Y-47559838D01*
X134650000Y-49950000D02*
X134650000Y-78550000D01*
X133950000Y-44250000D02*
X132150000Y-46050000D01*
X94100000Y-48350000D02*
X95661408Y-48350000D01*
X131450000Y-80250000D02*
X131450000Y-82550000D01*
X95611409Y-80000000D02*
X94100000Y-80000000D01*
X135000000Y-84050000D02*
X135000000Y-85000000D01*
X96451570Y-80840161D02*
X95611409Y-80000000D01*
X134300000Y-50300000D02*
X134300000Y-78200000D01*
X136400000Y-42000000D02*
X136400000Y-86400000D01*
X95611408Y-82800000D02*
X96451570Y-81959838D01*
X125400000Y-83600000D02*
X124700000Y-84300000D01*
X134150000Y-84650000D02*
X131650000Y-84650000D01*
X134150000Y-84350000D02*
X134150000Y-84650000D01*
X134050000Y-78550000D02*
X132150000Y-80450000D01*
X133200000Y-46350000D02*
X133200000Y-47650000D01*
X134150000Y-49950000D02*
X134650000Y-49950000D01*
X134050000Y-50300000D02*
X134300000Y-50300000D01*
X125100000Y-82550000D02*
X124400000Y-83250000D01*
X136050000Y-79950000D02*
X134438590Y-79950000D01*
X132150000Y-46050000D02*
X132150000Y-47950000D01*
X134650000Y-44250000D02*
X133950000Y-44250000D01*
X98200000Y-80350000D02*
X96100000Y-78250000D01*
X93750000Y-84650000D02*
X93750000Y-43750000D01*
X93750000Y-43750000D02*
X134650000Y-43750000D01*
X134650000Y-78550000D02*
X134050000Y-78550000D01*
X124800000Y-84650000D02*
X93750000Y-84650000D01*
X125000000Y-82200000D02*
X124300000Y-82900000D01*
X130500000Y-83950000D02*
X125500000Y-83950000D01*
X131550000Y-85000000D02*
X130500000Y-83950000D01*
X90600000Y-87800000D02*
X90600000Y-40600000D01*
X124700000Y-84300000D02*
X94100000Y-84300000D01*
X134300000Y-84050000D02*
X135000000Y-84050000D01*
X132500000Y-82250000D02*
X134300000Y-84050000D01*
X133950000Y-50650000D02*
X133950000Y-77850000D01*
X130050000Y-81500000D02*
X124800000Y-81500000D01*
X134150000Y-78900000D02*
X132500000Y-80550000D01*
X135000000Y-78900000D02*
X134150000Y-78900000D01*
X135000000Y-49600000D02*
X135000000Y-78900000D01*
X94100000Y-82800000D02*
X95611408Y-82800000D01*
X135000000Y-85000000D02*
X131550000Y-85000000D01*
X134650000Y-43750000D02*
X134650000Y-44250000D01*
X134250000Y-49600000D02*
X135000000Y-49600000D01*
X133650000Y-44100000D02*
X131800000Y-45950000D01*
X95150000Y-78950000D02*
X95150000Y-49400000D01*
X132500000Y-47850000D02*
X134250000Y-49600000D01*
X134050000Y-44600000D02*
X132500000Y-46150000D01*
X134250000Y-45300000D02*
X133200000Y-46350000D01*
X135000000Y-43400000D02*
X135000000Y-44600000D01*
X98550000Y-82200000D02*
X98550000Y-80250000D01*
X132550000Y-51050000D02*
X132550000Y-77350000D01*
X90247010Y-40247010D02*
X138152990Y-40247010D01*
X135000000Y-44600000D02*
X134050000Y-44600000D01*
X93400000Y-43400000D02*
X135000000Y-43400000D01*
X93400000Y-85000000D02*
X93400000Y-43400000D01*
X124900000Y-85000000D02*
X93400000Y-85000000D01*
X131450000Y-85350000D02*
X130400000Y-84300000D01*
X125500000Y-83950000D02*
X124800000Y-84650000D01*
X135350000Y-85350000D02*
X131450000Y-85350000D01*
X135350000Y-83700000D02*
X135350000Y-85350000D01*
X131450000Y-45850000D02*
X131450000Y-48150000D01*
X132850000Y-44450000D02*
X131450000Y-45850000D01*
X94800000Y-79300000D02*
X94800000Y-49050000D01*
X130300000Y-84650000D02*
X125700000Y-84650000D01*
X132850000Y-80650000D02*
X132850000Y-82150000D01*
X131150000Y-86400000D02*
X130100000Y-85350000D01*
X135350000Y-79250000D02*
X134250000Y-79250000D01*
X92350000Y-86050000D02*
X92350000Y-42350000D01*
X130600000Y-83600000D02*
X125400000Y-83600000D01*
X134350000Y-49250000D02*
X135350000Y-49250000D01*
X125200000Y-86050000D02*
X92350000Y-86050000D01*
X132850000Y-46250000D02*
X132850000Y-47750000D01*
X134150000Y-44950000D02*
X132850000Y-46250000D01*
X137100000Y-87100000D02*
X130950000Y-87100000D01*
X93050000Y-43050000D02*
X135350000Y-43050000D01*
X131750000Y-84300000D02*
X130700000Y-83250000D01*
X93050000Y-85350000D02*
X93050000Y-43050000D01*
X133548429Y-46440161D02*
X133548429Y-47559838D01*
X90247010Y-88152990D02*
X90247010Y-40247010D01*
X125700000Y-84650000D02*
X125000000Y-85350000D01*
X94450000Y-44450000D02*
X132850000Y-44450000D01*
X132850000Y-47750000D02*
X134350000Y-49250000D01*
X132500000Y-80550000D02*
X132500000Y-82250000D01*
X131350000Y-85700000D02*
X130300000Y-84650000D01*
X133600000Y-50750000D02*
X133600000Y-77650000D01*
X135350000Y-44950000D02*
X134150000Y-44950000D01*
X134350000Y-79600000D02*
X133200000Y-80750000D01*
X90950000Y-87450000D02*
X90950000Y-40950000D01*
X135700000Y-85700000D02*
X131350000Y-85700000D01*
X134250000Y-79250000D02*
X132850000Y-80650000D01*
X96500000Y-83250000D02*
X97500000Y-82250000D01*
X133200000Y-80750000D02*
X133200000Y-82050000D01*
X134450000Y-48900000D02*
X135700000Y-48900000D01*
X133200000Y-47650000D02*
X134450000Y-48900000D01*
X132150000Y-82350000D02*
X134150000Y-84350000D01*
X131850000Y-51250000D02*
X131850000Y-77150000D01*
X131800000Y-82450000D02*
X133650000Y-84300000D01*
X135700000Y-42700000D02*
X135700000Y-45300000D01*
X130750000Y-45650000D02*
X130750000Y-48350000D01*
X91650000Y-86750000D02*
X91650000Y-41650000D01*
X92700000Y-85700000D02*
X92700000Y-42700000D01*
X130400000Y-84300000D02*
X125600000Y-84300000D01*
X125600000Y-87450000D02*
X90950000Y-87450000D01*
X137100000Y-41300000D02*
X137100000Y-87100000D01*
X130200000Y-85000000D02*
X125800000Y-85000000D01*
X131650000Y-84650000D02*
X130600000Y-83600000D01*
X131250000Y-86050000D02*
X130200000Y-85000000D01*
X131050000Y-86750000D02*
X130000000Y-85700000D01*
X131100000Y-82550000D02*
X125100000Y-82550000D01*
X136050000Y-86050000D02*
X131250000Y-86050000D01*
X92000000Y-86400000D02*
X92000000Y-42000000D01*
X98900000Y-46550000D02*
X129350000Y-46550000D01*
X125100000Y-85700000D02*
X92700000Y-85700000D01*
X134338590Y-45650000D02*
X133548429Y-46440161D01*
X136050000Y-83000000D02*
X136050000Y-86050000D01*
X133548429Y-81959838D02*
X134588591Y-83000000D01*
X126400000Y-87100000D02*
X125700000Y-87800000D01*
X133548429Y-80840161D02*
X133548429Y-81959838D01*
X131800000Y-48050000D02*
X134050000Y-50300000D01*
X95661409Y-45650000D02*
X94100000Y-45650000D01*
X134438590Y-79950000D02*
X133548429Y-80840161D01*
X132500000Y-46150000D02*
X132500000Y-47850000D01*
X91300000Y-87100000D02*
X91300000Y-41300000D01*
X125700000Y-87800000D02*
X90600000Y-87800000D01*
X94800000Y-49050000D02*
X95850000Y-49050000D01*
X134538591Y-48550000D02*
X136050000Y-48550000D01*
X97300000Y-82900000D02*
X97850000Y-82350000D01*
X96451570Y-81959838D02*
X96451570Y-80840161D01*
X133200000Y-82050000D02*
X134500000Y-83350000D01*
X135700000Y-45300000D02*
X134250000Y-45300000D01*
X137800000Y-40600000D02*
X137800000Y-87800000D01*
X126200000Y-86400000D02*
X125500000Y-87100000D01*
X94100000Y-80000000D02*
X94100000Y-48350000D01*
X132850000Y-82150000D02*
X134400000Y-83700000D01*
X96100000Y-78250000D02*
X95850000Y-78250000D01*
X136050000Y-42350000D02*
X136050000Y-45650000D01*
X126000000Y-85700000D02*
X125300000Y-86400000D01*
X92350000Y-42350000D02*
X136050000Y-42350000D01*
X125900000Y-85350000D02*
X125200000Y-86050000D01*
X130100000Y-85350000D02*
X125900000Y-85350000D01*
X134588591Y-83000000D02*
X136050000Y-83000000D01*
X129413000Y-87630000D02*
X128890010Y-88152990D01*
X130000000Y-85700000D02*
X126000000Y-85700000D01*
X131850000Y-77150000D02*
X129350000Y-79650000D01*
X131800000Y-45950000D02*
X131800000Y-48050000D01*
X95900000Y-78950000D02*
X95150000Y-78950000D01*
X128890010Y-88152990D02*
X90247010Y-88152990D01*
X136750000Y-41650000D02*
X136750000Y-86750000D01*
X125600000Y-84300000D02*
X124900000Y-85000000D01*
X136400000Y-86400000D02*
X131150000Y-86400000D01*
X95750000Y-45300000D02*
X94450000Y-45300000D01*
X96800000Y-46350000D02*
X95750000Y-45300000D01*
X129350000Y-48750000D02*
X131850000Y-51250000D01*
X136050000Y-45650000D02*
X134338590Y-45650000D01*
X136750000Y-86750000D02*
X131050000Y-86750000D01*
X132200000Y-51150000D02*
X132200000Y-77250000D01*
X125300000Y-83250000D02*
X124600000Y-83950000D01*
X126100000Y-86050000D02*
X125400000Y-86750000D01*
X94100000Y-84300000D02*
X94100000Y-82800000D01*
X130950000Y-87100000D02*
X129900000Y-86050000D01*
X135700000Y-83350000D02*
X135700000Y-85700000D01*
X125300000Y-86400000D02*
X92000000Y-86400000D01*
X90600000Y-40600000D02*
X137800000Y-40600000D01*
X96050000Y-45150000D02*
X96050000Y-44800000D01*
X135700000Y-48900000D02*
X135700000Y-79600000D01*
X125500000Y-87100000D02*
X91300000Y-87100000D01*
X125800000Y-85000000D02*
X125100000Y-85700000D01*
X98200000Y-45850000D02*
X130050000Y-45850000D01*
X94450000Y-79650000D02*
X94450000Y-48700000D01*
X129800000Y-86400000D02*
X126200000Y-86400000D01*
X129700000Y-48650000D02*
X132200000Y-51150000D01*
X137450000Y-87450000D02*
X130850000Y-87450000D01*
X129700000Y-86750000D02*
X126300000Y-86750000D01*
X134500000Y-83350000D02*
X135700000Y-83350000D01*
X126300000Y-86750000D02*
X125600000Y-87450000D01*
X90950000Y-40950000D02*
X137450000Y-40950000D01*
X130400000Y-81850000D02*
X124900000Y-81850000D01*
X125000000Y-85350000D02*
X93050000Y-85350000D01*
X137450000Y-40950000D02*
X137450000Y-87450000D01*
X96000000Y-78600000D02*
X95500000Y-78600000D01*
X131100000Y-45750000D02*
X131100000Y-48250000D01*
X136050000Y-48550000D02*
X136050000Y-79950000D01*
X138152990Y-40247010D02*
X138152990Y-88152990D01*
X91650000Y-41650000D02*
X136750000Y-41650000D01*
X129900000Y-86050000D02*
X126100000Y-86050000D01*
X137800000Y-87800000D02*
X130750000Y-87800000D01*
X130750000Y-87800000D02*
X129700000Y-86750000D01*
X96800000Y-47650000D02*
X96800000Y-46350000D01*
X133548429Y-47559838D02*
X134538591Y-48550000D01*
X91300000Y-41300000D02*
X137100000Y-41300000D01*
X129600000Y-87100000D02*
X126400000Y-87100000D01*
X135700000Y-79600000D02*
X134350000Y-79600000D01*
X134400000Y-83700000D02*
X135350000Y-83700000D01*
X95900000Y-83400000D02*
X97150000Y-82150000D01*
X92700000Y-42700000D02*
X135700000Y-42700000D01*
X130652990Y-88152990D02*
X129600000Y-87100000D01*
X98200000Y-48050000D02*
X98200000Y-45850000D01*
X94100000Y-44100000D02*
X133650000Y-44100000D01*
X130850000Y-87450000D02*
X129800000Y-86400000D01*
X97850000Y-47950000D02*
X97850000Y-46050000D01*
X138152990Y-88152990D02*
X130652990Y-88152990D01*
X92000000Y-42000000D02*
X136400000Y-42000000D01*
X129350000Y-79650000D02*
X129350000Y-80800000D01*
X129350000Y-80800000D02*
X124600000Y-80800000D01*
X124600000Y-80800000D02*
X123900000Y-81500000D01*
X123900000Y-81500000D02*
X99250000Y-81500000D01*
X99250000Y-81500000D02*
X99250000Y-80050000D01*
X99250000Y-80050000D02*
X96900000Y-77700000D01*
X96900000Y-66422000D02*
X98552000Y-64770000D01*
X96900000Y-77700000D02*
X96900000Y-66422000D01*
M02*
