%TF.GenerationSoftware,KiCad,Pcbnew,(5.0.1-3-g963ef8bb5)*%
%TF.CreationDate,2020-03-04T19:54:40-08:00*%
%TF.ProjectId,SolarCell+Y,536F6C617243656C6C2B592E6B696361,rev?*%
%TF.SameCoordinates,Original*%
%TF.FileFunction,Soldermask,Top*%
%TF.FilePolarity,Negative*%
%FSLAX46Y46*%
G04 Gerber Fmt 4.6, Leading zero omitted, Abs format (unit mm)*
G04 Created by KiCad (PCBNEW (5.0.1-3-g963ef8bb5)) date Wednesday, March 04, 2020 at 07:54:40 PM*
%MOMM*%
%LPD*%
G01*
G04 APERTURE LIST*
%ADD10C,0.050000*%
%ADD11C,0.300000*%
%ADD12C,0.250000*%
%ADD13C,0.100000*%
G04 APERTURE END LIST*
D10*
X160500000Y-65600000D02*
X160500000Y-64100000D01*
X164000000Y-65600000D02*
X160500000Y-65600000D01*
X164000000Y-64100000D02*
X164000000Y-65600000D01*
X160500000Y-64100000D02*
X164000000Y-64100000D01*
X159000000Y-64100000D02*
X157500000Y-64100000D01*
X159000000Y-65650000D02*
X159000000Y-64100000D01*
X157500000Y-65650000D02*
X159000000Y-65650000D01*
X157500000Y-64100000D02*
X157500000Y-65650000D01*
D11*
X152086428Y-76954285D02*
X151086428Y-77311428D01*
X152086428Y-77668571D01*
X152586428Y-78525714D02*
X152586428Y-78668571D01*
X152515000Y-78811428D01*
X152443571Y-78882857D01*
X152300714Y-78954285D01*
X152015000Y-79025714D01*
X151657857Y-79025714D01*
X151372142Y-78954285D01*
X151229285Y-78882857D01*
X151157857Y-78811428D01*
X151086428Y-78668571D01*
X151086428Y-78525714D01*
X151157857Y-78382857D01*
X151229285Y-78311428D01*
X151372142Y-78240000D01*
X151657857Y-78168571D01*
X152015000Y-78168571D01*
X152300714Y-78240000D01*
X152443571Y-78311428D01*
X152515000Y-78382857D01*
X152586428Y-78525714D01*
X152443571Y-79597142D02*
X152515000Y-79668571D01*
X152586428Y-79811428D01*
X152586428Y-80168571D01*
X152515000Y-80311428D01*
X152443571Y-80382857D01*
X152300714Y-80454285D01*
X152157857Y-80454285D01*
X151943571Y-80382857D01*
X151086428Y-79525714D01*
X151086428Y-80454285D01*
D12*
X200000000Y-40000000D02*
X150000000Y-40000000D01*
X150000000Y-90000000D02*
X200000000Y-90000000D01*
X150000000Y-40000000D02*
X150000000Y-90000000D01*
X195900000Y-45100000D02*
G75*
G03X195900000Y-45100000I-1000000J0D01*
G01*
X156100000Y-84900000D02*
G75*
G03X156100000Y-84900000I-1000000J0D01*
G01*
X156100000Y-45100000D02*
G75*
G03X156100000Y-45100000I-1000000J0D01*
G01*
X195900000Y-84900000D02*
G75*
G03X195900000Y-84900000I-1000000J0D01*
G01*
X200000000Y-90000000D02*
X200000000Y-40000000D01*
D11*
X344733785Y-217737571D02*
X345090928Y-218737571D01*
X345448071Y-217737571D01*
X346305214Y-217237571D02*
X346448071Y-217237571D01*
X346590928Y-217309000D01*
X346662357Y-217380428D01*
X346733785Y-217523285D01*
X346805214Y-217809000D01*
X346805214Y-218166142D01*
X346733785Y-218451857D01*
X346662357Y-218594714D01*
X346590928Y-218666142D01*
X346448071Y-218737571D01*
X346305214Y-218737571D01*
X346162357Y-218666142D01*
X346090928Y-218594714D01*
X346019500Y-218451857D01*
X345948071Y-218166142D01*
X345948071Y-217809000D01*
X346019500Y-217523285D01*
X346090928Y-217380428D01*
X346162357Y-217309000D01*
X346305214Y-217237571D01*
X347733785Y-217237571D02*
X347876642Y-217237571D01*
X348019500Y-217309000D01*
X348090928Y-217380428D01*
X348162357Y-217523285D01*
X348233785Y-217809000D01*
X348233785Y-218166142D01*
X348162357Y-218451857D01*
X348090928Y-218594714D01*
X348019500Y-218666142D01*
X347876642Y-218737571D01*
X347733785Y-218737571D01*
X347590928Y-218666142D01*
X347519500Y-218594714D01*
X347448071Y-218451857D01*
X347376642Y-218166142D01*
X347376642Y-217809000D01*
X347448071Y-217523285D01*
X347519500Y-217380428D01*
X347590928Y-217309000D01*
X347733785Y-217237571D01*
D13*
G36*
X198973767Y-88051822D02*
X199110258Y-88108359D01*
X199233097Y-88190437D01*
X199337563Y-88294903D01*
X199419641Y-88417742D01*
X199476178Y-88554233D01*
X199505000Y-88699131D01*
X199505000Y-88846869D01*
X199476178Y-88991767D01*
X199419641Y-89128258D01*
X199337563Y-89251097D01*
X199233097Y-89355563D01*
X199110258Y-89437641D01*
X198973767Y-89494178D01*
X198828869Y-89523000D01*
X198681131Y-89523000D01*
X198536233Y-89494178D01*
X198399742Y-89437641D01*
X198276903Y-89355563D01*
X198172437Y-89251097D01*
X198090359Y-89128258D01*
X198033822Y-88991767D01*
X198005000Y-88846869D01*
X198005000Y-88699131D01*
X198033822Y-88554233D01*
X198090359Y-88417742D01*
X198172437Y-88294903D01*
X198276903Y-88190437D01*
X198399742Y-88108359D01*
X198536233Y-88051822D01*
X198681131Y-88023000D01*
X198828869Y-88023000D01*
X198973767Y-88051822D01*
X198973767Y-88051822D01*
G37*
G36*
X151475767Y-88051822D02*
X151612258Y-88108359D01*
X151735097Y-88190437D01*
X151839563Y-88294903D01*
X151921641Y-88417742D01*
X151978178Y-88554233D01*
X152007000Y-88699131D01*
X152007000Y-88846869D01*
X151978178Y-88991767D01*
X151921641Y-89128258D01*
X151839563Y-89251097D01*
X151735097Y-89355563D01*
X151612258Y-89437641D01*
X151475767Y-89494178D01*
X151330869Y-89523000D01*
X151183131Y-89523000D01*
X151038233Y-89494178D01*
X150901742Y-89437641D01*
X150778903Y-89355563D01*
X150674437Y-89251097D01*
X150592359Y-89128258D01*
X150535822Y-88991767D01*
X150507000Y-88846869D01*
X150507000Y-88699131D01*
X150535822Y-88554233D01*
X150592359Y-88417742D01*
X150674437Y-88294903D01*
X150778903Y-88190437D01*
X150901742Y-88108359D01*
X151038233Y-88051822D01*
X151183131Y-88023000D01*
X151330869Y-88023000D01*
X151475767Y-88051822D01*
X151475767Y-88051822D01*
G37*
G36*
X165039000Y-89105000D02*
X157541000Y-89105000D01*
X157541000Y-87007000D01*
X165039000Y-87007000D01*
X165039000Y-89105000D01*
X165039000Y-89105000D01*
G37*
G36*
X191709000Y-89105000D02*
X184211000Y-89105000D01*
X184211000Y-87007000D01*
X191709000Y-87007000D01*
X191709000Y-89105000D01*
X191709000Y-89105000D01*
G37*
G36*
X182819000Y-89105000D02*
X175321000Y-89105000D01*
X175321000Y-87007000D01*
X182819000Y-87007000D01*
X182819000Y-89105000D01*
X182819000Y-89105000D01*
G37*
G36*
X173929000Y-89060000D02*
X166431000Y-89060000D01*
X166431000Y-86962000D01*
X173929000Y-86962000D01*
X173929000Y-89060000D01*
X173929000Y-89060000D01*
G37*
G36*
X195456009Y-77437428D02*
X195865301Y-77606962D01*
X196233654Y-77853088D01*
X196546912Y-78166346D01*
X196793038Y-78534699D01*
X196962572Y-78943991D01*
X197049000Y-79378493D01*
X197049000Y-79821507D01*
X196962572Y-80256009D01*
X196793038Y-80665301D01*
X196546912Y-81033654D01*
X196233654Y-81346912D01*
X195865301Y-81593038D01*
X195456009Y-81762572D01*
X195021507Y-81849000D01*
X194578493Y-81849000D01*
X194143991Y-81762572D01*
X193734699Y-81593038D01*
X193366346Y-81346912D01*
X193053088Y-81033654D01*
X192806962Y-80665301D01*
X192637428Y-80256009D01*
X192551000Y-79821507D01*
X192551000Y-79378493D01*
X192637428Y-78943991D01*
X192806962Y-78534699D01*
X193053088Y-78166346D01*
X193366346Y-77853088D01*
X193734699Y-77606962D01*
X194143991Y-77437428D01*
X194578493Y-77351000D01*
X195021507Y-77351000D01*
X195456009Y-77437428D01*
X195456009Y-77437428D01*
G37*
G36*
X195456009Y-70937428D02*
X195865301Y-71106962D01*
X196233654Y-71353088D01*
X196546912Y-71666346D01*
X196793038Y-72034699D01*
X196962572Y-72443991D01*
X197049000Y-72878493D01*
X197049000Y-73321507D01*
X196962572Y-73756009D01*
X196793038Y-74165301D01*
X196546912Y-74533654D01*
X196233654Y-74846912D01*
X195865301Y-75093038D01*
X195456009Y-75262572D01*
X195021507Y-75349000D01*
X194578493Y-75349000D01*
X194143991Y-75262572D01*
X193734699Y-75093038D01*
X193366346Y-74846912D01*
X193053088Y-74533654D01*
X192806962Y-74165301D01*
X192637428Y-73756009D01*
X192551000Y-73321507D01*
X192551000Y-72878493D01*
X192637428Y-72443991D01*
X192806962Y-72034699D01*
X193053088Y-71666346D01*
X193366346Y-71353088D01*
X193734699Y-71106962D01*
X194143991Y-70937428D01*
X194578493Y-70851000D01*
X195021507Y-70851000D01*
X195456009Y-70937428D01*
X195456009Y-70937428D01*
G37*
G36*
X184995938Y-71735098D02*
X185095847Y-71776482D01*
X185095849Y-71776483D01*
X185185767Y-71836564D01*
X185262235Y-71913032D01*
X185322318Y-72002953D01*
X185363702Y-72102862D01*
X185384800Y-72208929D01*
X185384800Y-72317071D01*
X185363702Y-72423138D01*
X185355064Y-72443991D01*
X185322317Y-72523049D01*
X185262236Y-72612967D01*
X185185767Y-72689436D01*
X185095849Y-72749517D01*
X185095848Y-72749518D01*
X185095847Y-72749518D01*
X184995938Y-72790902D01*
X184889872Y-72812000D01*
X184781728Y-72812000D01*
X184675662Y-72790902D01*
X184575753Y-72749518D01*
X184575752Y-72749518D01*
X184575751Y-72749517D01*
X184485833Y-72689436D01*
X184409364Y-72612967D01*
X184349283Y-72523049D01*
X184316536Y-72443991D01*
X184307898Y-72423138D01*
X184286800Y-72317071D01*
X184286800Y-72208929D01*
X184307898Y-72102862D01*
X184349282Y-72002953D01*
X184409365Y-71913032D01*
X184485833Y-71836564D01*
X184575751Y-71776483D01*
X184575753Y-71776482D01*
X184675662Y-71735098D01*
X184781728Y-71714000D01*
X184889872Y-71714000D01*
X184995938Y-71735098D01*
X184995938Y-71735098D01*
G37*
G36*
X180584804Y-71735098D02*
X180684713Y-71776482D01*
X180684715Y-71776483D01*
X180774633Y-71836564D01*
X180851101Y-71913032D01*
X180911184Y-72002953D01*
X180952568Y-72102862D01*
X180973666Y-72208929D01*
X180973666Y-72317071D01*
X180952568Y-72423138D01*
X180943930Y-72443991D01*
X180911183Y-72523049D01*
X180851102Y-72612967D01*
X180774633Y-72689436D01*
X180684715Y-72749517D01*
X180684714Y-72749518D01*
X180684713Y-72749518D01*
X180584804Y-72790902D01*
X180478738Y-72812000D01*
X180370594Y-72812000D01*
X180264528Y-72790902D01*
X180164619Y-72749518D01*
X180164618Y-72749518D01*
X180164617Y-72749517D01*
X180074699Y-72689436D01*
X179998230Y-72612967D01*
X179938149Y-72523049D01*
X179905402Y-72443991D01*
X179896764Y-72423138D01*
X179875666Y-72317071D01*
X179875666Y-72208929D01*
X179896764Y-72102862D01*
X179938148Y-72002953D01*
X179998231Y-71913032D01*
X180074699Y-71836564D01*
X180164617Y-71776483D01*
X180164619Y-71776482D01*
X180264528Y-71735098D01*
X180370594Y-71714000D01*
X180478738Y-71714000D01*
X180584804Y-71735098D01*
X180584804Y-71735098D01*
G37*
G36*
X171762538Y-71735098D02*
X171862447Y-71776482D01*
X171862449Y-71776483D01*
X171952367Y-71836564D01*
X172028835Y-71913032D01*
X172088918Y-72002953D01*
X172130302Y-72102862D01*
X172151400Y-72208929D01*
X172151400Y-72317071D01*
X172130302Y-72423138D01*
X172121664Y-72443991D01*
X172088917Y-72523049D01*
X172028836Y-72612967D01*
X171952367Y-72689436D01*
X171862449Y-72749517D01*
X171862448Y-72749518D01*
X171862447Y-72749518D01*
X171762538Y-72790902D01*
X171656472Y-72812000D01*
X171548328Y-72812000D01*
X171442262Y-72790902D01*
X171342353Y-72749518D01*
X171342352Y-72749518D01*
X171342351Y-72749517D01*
X171252433Y-72689436D01*
X171175964Y-72612967D01*
X171115883Y-72523049D01*
X171083136Y-72443991D01*
X171074498Y-72423138D01*
X171053400Y-72317071D01*
X171053400Y-72208929D01*
X171074498Y-72102862D01*
X171115882Y-72002953D01*
X171175965Y-71913032D01*
X171252433Y-71836564D01*
X171342351Y-71776483D01*
X171342353Y-71776482D01*
X171442262Y-71735098D01*
X171548328Y-71714000D01*
X171656472Y-71714000D01*
X171762538Y-71735098D01*
X171762538Y-71735098D01*
G37*
G36*
X177147338Y-71735098D02*
X177247247Y-71776482D01*
X177247249Y-71776483D01*
X177337167Y-71836564D01*
X177413635Y-71913032D01*
X177473718Y-72002953D01*
X177515102Y-72102862D01*
X177536200Y-72208929D01*
X177536200Y-72317071D01*
X177515102Y-72423138D01*
X177506464Y-72443991D01*
X177473717Y-72523049D01*
X177413636Y-72612967D01*
X177337167Y-72689436D01*
X177247249Y-72749517D01*
X177247248Y-72749518D01*
X177247247Y-72749518D01*
X177147338Y-72790902D01*
X177041272Y-72812000D01*
X176933128Y-72812000D01*
X176827062Y-72790902D01*
X176727153Y-72749518D01*
X176727152Y-72749518D01*
X176727151Y-72749517D01*
X176637233Y-72689436D01*
X176560764Y-72612967D01*
X176500683Y-72523049D01*
X176467936Y-72443991D01*
X176459298Y-72423138D01*
X176438200Y-72317071D01*
X176438200Y-72208929D01*
X176459298Y-72102862D01*
X176500682Y-72002953D01*
X176560765Y-71913032D01*
X176637233Y-71836564D01*
X176727151Y-71776483D01*
X176727153Y-71776482D01*
X176827062Y-71735098D01*
X176933128Y-71714000D01*
X177041272Y-71714000D01*
X177147338Y-71735098D01*
X177147338Y-71735098D01*
G37*
G36*
X155435000Y-71560000D02*
X153937000Y-71560000D01*
X153937000Y-68762000D01*
X155435000Y-68762000D01*
X155435000Y-71560000D01*
X155435000Y-71560000D01*
G37*
G36*
X198674666Y-66883703D02*
X198728472Y-66894405D01*
X198829837Y-66936392D01*
X198921067Y-66997350D01*
X198998650Y-67074933D01*
X199059608Y-67166163D01*
X199101595Y-67267528D01*
X199123000Y-67375141D01*
X199123000Y-67484859D01*
X199101595Y-67592472D01*
X199059608Y-67693837D01*
X198998650Y-67785067D01*
X198921065Y-67862652D01*
X198919284Y-67863842D01*
X198911783Y-67869998D01*
X198905627Y-67877498D01*
X198901052Y-67886056D01*
X198898235Y-67895342D01*
X198897284Y-67904999D01*
X198898235Y-67914656D01*
X198901052Y-67923942D01*
X198905626Y-67932500D01*
X198911782Y-67940001D01*
X198919284Y-67946158D01*
X198921065Y-67947348D01*
X198998650Y-68024933D01*
X199059608Y-68116163D01*
X199101595Y-68217528D01*
X199123000Y-68325141D01*
X199123000Y-68434859D01*
X199101595Y-68542472D01*
X199059608Y-68643837D01*
X198998650Y-68735067D01*
X198921065Y-68812652D01*
X198919284Y-68813842D01*
X198911783Y-68819998D01*
X198905627Y-68827498D01*
X198901052Y-68836056D01*
X198898235Y-68845342D01*
X198897284Y-68854999D01*
X198898235Y-68864656D01*
X198901052Y-68873942D01*
X198905626Y-68882500D01*
X198911782Y-68890001D01*
X198919284Y-68896158D01*
X198921065Y-68897348D01*
X198998650Y-68974933D01*
X199059608Y-69066163D01*
X199101595Y-69167528D01*
X199123000Y-69275141D01*
X199123000Y-69384859D01*
X199101595Y-69492472D01*
X199059608Y-69593837D01*
X198998650Y-69685067D01*
X198921067Y-69762650D01*
X198829837Y-69823608D01*
X198728472Y-69865595D01*
X198674666Y-69876297D01*
X198620860Y-69887000D01*
X198511140Y-69887000D01*
X198457334Y-69876297D01*
X198403528Y-69865595D01*
X198302163Y-69823608D01*
X198210933Y-69762650D01*
X198133350Y-69685067D01*
X198072392Y-69593837D01*
X198030405Y-69492472D01*
X198009000Y-69384859D01*
X198009000Y-69275141D01*
X198030405Y-69167528D01*
X198072392Y-69066163D01*
X198133350Y-68974933D01*
X198210935Y-68897348D01*
X198212716Y-68896158D01*
X198220217Y-68890002D01*
X198226373Y-68882502D01*
X198230948Y-68873944D01*
X198233765Y-68864658D01*
X198234716Y-68855001D01*
X198233765Y-68845344D01*
X198230948Y-68836058D01*
X198226374Y-68827500D01*
X198220218Y-68819999D01*
X198212716Y-68813842D01*
X198210935Y-68812652D01*
X198133350Y-68735067D01*
X198072392Y-68643837D01*
X198030405Y-68542472D01*
X198009000Y-68434859D01*
X198009000Y-68325141D01*
X198030405Y-68217528D01*
X198072392Y-68116163D01*
X198133350Y-68024933D01*
X198210935Y-67947348D01*
X198212716Y-67946158D01*
X198220217Y-67940002D01*
X198226373Y-67932502D01*
X198230948Y-67923944D01*
X198233765Y-67914658D01*
X198234716Y-67905001D01*
X198233765Y-67895344D01*
X198230948Y-67886058D01*
X198226374Y-67877500D01*
X198220218Y-67869999D01*
X198212716Y-67863842D01*
X198210935Y-67862652D01*
X198133350Y-67785067D01*
X198072392Y-67693837D01*
X198030405Y-67592472D01*
X198009000Y-67484859D01*
X198009000Y-67375141D01*
X198030405Y-67267528D01*
X198072392Y-67166163D01*
X198133350Y-67074933D01*
X198210933Y-66997350D01*
X198302163Y-66936392D01*
X198403528Y-66894405D01*
X198457334Y-66883703D01*
X198511140Y-66873000D01*
X198620860Y-66873000D01*
X198674666Y-66883703D01*
X198674666Y-66883703D01*
G37*
G36*
X165039000Y-68105000D02*
X157541000Y-68105000D01*
X157541000Y-66007000D01*
X165039000Y-66007000D01*
X165039000Y-68105000D01*
X165039000Y-68105000D01*
G37*
G36*
X191709000Y-68105000D02*
X184211000Y-68105000D01*
X184211000Y-66007000D01*
X191709000Y-66007000D01*
X191709000Y-68105000D01*
X191709000Y-68105000D01*
G37*
G36*
X182819000Y-68105000D02*
X175321000Y-68105000D01*
X175321000Y-66007000D01*
X182819000Y-66007000D01*
X182819000Y-68105000D01*
X182819000Y-68105000D01*
G37*
G36*
X173929000Y-68060000D02*
X166431000Y-68060000D01*
X166431000Y-65962000D01*
X173929000Y-65962000D01*
X173929000Y-68060000D01*
X173929000Y-68060000D01*
G37*
G36*
X155435000Y-67860000D02*
X153937000Y-67860000D01*
X153937000Y-66362000D01*
X155435000Y-66362000D01*
X155435000Y-67860000D01*
X155435000Y-67860000D01*
G37*
G36*
X165039000Y-63787000D02*
X157541000Y-63787000D01*
X157541000Y-61689000D01*
X165039000Y-61689000D01*
X165039000Y-63787000D01*
X165039000Y-63787000D01*
G37*
G36*
X191709000Y-63787000D02*
X184211000Y-63787000D01*
X184211000Y-61689000D01*
X191709000Y-61689000D01*
X191709000Y-63787000D01*
X191709000Y-63787000D01*
G37*
G36*
X182819000Y-63787000D02*
X175321000Y-63787000D01*
X175321000Y-61689000D01*
X182819000Y-61689000D01*
X182819000Y-63787000D01*
X182819000Y-63787000D01*
G37*
G36*
X173929000Y-63787000D02*
X166431000Y-63787000D01*
X166431000Y-61689000D01*
X173929000Y-61689000D01*
X173929000Y-63787000D01*
X173929000Y-63787000D01*
G37*
G36*
X198674666Y-59983703D02*
X198728472Y-59994405D01*
X198829837Y-60036392D01*
X198921067Y-60097350D01*
X198998650Y-60174933D01*
X199059608Y-60266163D01*
X199101595Y-60367528D01*
X199123000Y-60475141D01*
X199123000Y-60584859D01*
X199101595Y-60692472D01*
X199059608Y-60793837D01*
X198998650Y-60885067D01*
X198921065Y-60962652D01*
X198919284Y-60963842D01*
X198911783Y-60969998D01*
X198905627Y-60977498D01*
X198901052Y-60986056D01*
X198898235Y-60995342D01*
X198897284Y-61004999D01*
X198898235Y-61014656D01*
X198901052Y-61023942D01*
X198905626Y-61032500D01*
X198911782Y-61040001D01*
X198919284Y-61046158D01*
X198921065Y-61047348D01*
X198998650Y-61124933D01*
X199059608Y-61216163D01*
X199081617Y-61269298D01*
X199101595Y-61317529D01*
X199117602Y-61398000D01*
X199123000Y-61425141D01*
X199123000Y-61534859D01*
X199101595Y-61642472D01*
X199059608Y-61743837D01*
X198998650Y-61835067D01*
X198921065Y-61912652D01*
X198919284Y-61913842D01*
X198911783Y-61919998D01*
X198905627Y-61927498D01*
X198901052Y-61936056D01*
X198898235Y-61945342D01*
X198897284Y-61954999D01*
X198898235Y-61964656D01*
X198901052Y-61973942D01*
X198905626Y-61982500D01*
X198911782Y-61990001D01*
X198919284Y-61996158D01*
X198921065Y-61997348D01*
X198998650Y-62074933D01*
X199059608Y-62166163D01*
X199101595Y-62267528D01*
X199123000Y-62375141D01*
X199123000Y-62484859D01*
X199101595Y-62592472D01*
X199059608Y-62693837D01*
X198998650Y-62785067D01*
X198921067Y-62862650D01*
X198829837Y-62923608D01*
X198728472Y-62965595D01*
X198674665Y-62976298D01*
X198620860Y-62987000D01*
X198511140Y-62987000D01*
X198457335Y-62976298D01*
X198403528Y-62965595D01*
X198302163Y-62923608D01*
X198210933Y-62862650D01*
X198133350Y-62785067D01*
X198072392Y-62693837D01*
X198030405Y-62592472D01*
X198009000Y-62484859D01*
X198009000Y-62375141D01*
X198030405Y-62267528D01*
X198072392Y-62166163D01*
X198133350Y-62074933D01*
X198210935Y-61997348D01*
X198212716Y-61996158D01*
X198220217Y-61990002D01*
X198226373Y-61982502D01*
X198230948Y-61973944D01*
X198233765Y-61964658D01*
X198234716Y-61955001D01*
X198233765Y-61945344D01*
X198230948Y-61936058D01*
X198226374Y-61927500D01*
X198220218Y-61919999D01*
X198212716Y-61913842D01*
X198210935Y-61912652D01*
X198133350Y-61835067D01*
X198072392Y-61743837D01*
X198030405Y-61642472D01*
X198009000Y-61534859D01*
X198009000Y-61425141D01*
X198014399Y-61398000D01*
X198030405Y-61317529D01*
X198050383Y-61269298D01*
X198072392Y-61216163D01*
X198133350Y-61124933D01*
X198210935Y-61047348D01*
X198212716Y-61046158D01*
X198220217Y-61040002D01*
X198226373Y-61032502D01*
X198230948Y-61023944D01*
X198233765Y-61014658D01*
X198234716Y-61005001D01*
X198233765Y-60995344D01*
X198230948Y-60986058D01*
X198226374Y-60977500D01*
X198220218Y-60969999D01*
X198212716Y-60963842D01*
X198210935Y-60962652D01*
X198133350Y-60885067D01*
X198072392Y-60793837D01*
X198030405Y-60692472D01*
X198009000Y-60584859D01*
X198009000Y-60475141D01*
X198030405Y-60367528D01*
X198072392Y-60266163D01*
X198133350Y-60174933D01*
X198210933Y-60097350D01*
X198302163Y-60036392D01*
X198403528Y-59994405D01*
X198457334Y-59983703D01*
X198511140Y-59973000D01*
X198620860Y-59973000D01*
X198674666Y-59983703D01*
X198674666Y-59983703D01*
G37*
G36*
X154172433Y-61229064D02*
X154200008Y-61237430D01*
X154225422Y-61251014D01*
X154247702Y-61269298D01*
X154265986Y-61291578D01*
X154279570Y-61316992D01*
X154287936Y-61344567D01*
X154291000Y-61375684D01*
X154291000Y-61814316D01*
X154287936Y-61845433D01*
X154279570Y-61873008D01*
X154265986Y-61898422D01*
X154247702Y-61920702D01*
X154225422Y-61938986D01*
X154200008Y-61952570D01*
X154172433Y-61960936D01*
X154141316Y-61964000D01*
X153752684Y-61964000D01*
X153721567Y-61960936D01*
X153693992Y-61952570D01*
X153668578Y-61938986D01*
X153646298Y-61920702D01*
X153628014Y-61898422D01*
X153614430Y-61873008D01*
X153606064Y-61845433D01*
X153603000Y-61814316D01*
X153603000Y-61375684D01*
X153606064Y-61344567D01*
X153614430Y-61316992D01*
X153628014Y-61291578D01*
X153646298Y-61269298D01*
X153668578Y-61251014D01*
X153693992Y-61237430D01*
X153721567Y-61229064D01*
X153752684Y-61226000D01*
X154141316Y-61226000D01*
X154172433Y-61229064D01*
X154172433Y-61229064D01*
G37*
G36*
X155142433Y-61229064D02*
X155170008Y-61237430D01*
X155195422Y-61251014D01*
X155217702Y-61269298D01*
X155235986Y-61291578D01*
X155249570Y-61316992D01*
X155257936Y-61344567D01*
X155261000Y-61375684D01*
X155261000Y-61814316D01*
X155257936Y-61845433D01*
X155249570Y-61873008D01*
X155235986Y-61898422D01*
X155217702Y-61920702D01*
X155195422Y-61938986D01*
X155170008Y-61952570D01*
X155142433Y-61960936D01*
X155111316Y-61964000D01*
X154722684Y-61964000D01*
X154691567Y-61960936D01*
X154663992Y-61952570D01*
X154638578Y-61938986D01*
X154616298Y-61920702D01*
X154598014Y-61898422D01*
X154584430Y-61873008D01*
X154576064Y-61845433D01*
X154573000Y-61814316D01*
X154573000Y-61375684D01*
X154576064Y-61344567D01*
X154584430Y-61316992D01*
X154598014Y-61291578D01*
X154616298Y-61269298D01*
X154638578Y-61251014D01*
X154663992Y-61237430D01*
X154691567Y-61229064D01*
X154722684Y-61226000D01*
X155111316Y-61226000D01*
X155142433Y-61229064D01*
X155142433Y-61229064D01*
G37*
G36*
X154685233Y-60136864D02*
X154712808Y-60145230D01*
X154738222Y-60158814D01*
X154760502Y-60177098D01*
X154778786Y-60199378D01*
X154792370Y-60224792D01*
X154800736Y-60252367D01*
X154803800Y-60283484D01*
X154803800Y-60722116D01*
X154800736Y-60753233D01*
X154792370Y-60780808D01*
X154778786Y-60806222D01*
X154760502Y-60828502D01*
X154738222Y-60846786D01*
X154712808Y-60860370D01*
X154685233Y-60868736D01*
X154654116Y-60871800D01*
X154260684Y-60871800D01*
X154229567Y-60868736D01*
X154201992Y-60860370D01*
X154176578Y-60846786D01*
X154154298Y-60828502D01*
X154136014Y-60806222D01*
X154122430Y-60780808D01*
X154114064Y-60753233D01*
X154111000Y-60722116D01*
X154111000Y-60283484D01*
X154114064Y-60252367D01*
X154122430Y-60224792D01*
X154136014Y-60199378D01*
X154154298Y-60177098D01*
X154176578Y-60158814D01*
X154201992Y-60145230D01*
X154229567Y-60136864D01*
X154260684Y-60133800D01*
X154654116Y-60133800D01*
X154685233Y-60136864D01*
X154685233Y-60136864D01*
G37*
G36*
X153715233Y-60136864D02*
X153742808Y-60145230D01*
X153768222Y-60158814D01*
X153790502Y-60177098D01*
X153808786Y-60199378D01*
X153822370Y-60224792D01*
X153830736Y-60252367D01*
X153833800Y-60283484D01*
X153833800Y-60722116D01*
X153830736Y-60753233D01*
X153822370Y-60780808D01*
X153808786Y-60806222D01*
X153790502Y-60828502D01*
X153768222Y-60846786D01*
X153742808Y-60860370D01*
X153715233Y-60868736D01*
X153684116Y-60871800D01*
X153295484Y-60871800D01*
X153264367Y-60868736D01*
X153236792Y-60860370D01*
X153211378Y-60846786D01*
X153189098Y-60828502D01*
X153170814Y-60806222D01*
X153157230Y-60780808D01*
X153148864Y-60753233D01*
X153145800Y-60722116D01*
X153145800Y-60283484D01*
X153148864Y-60252367D01*
X153157230Y-60224792D01*
X153170814Y-60199378D01*
X153189098Y-60177098D01*
X153211378Y-60158814D01*
X153236792Y-60145230D01*
X153264367Y-60136864D01*
X153295484Y-60133800D01*
X153684116Y-60133800D01*
X153715233Y-60136864D01*
X153715233Y-60136864D01*
G37*
G36*
X155650433Y-60136864D02*
X155678008Y-60145230D01*
X155703422Y-60158814D01*
X155725702Y-60177098D01*
X155743986Y-60199378D01*
X155757570Y-60224792D01*
X155765936Y-60252367D01*
X155769000Y-60283484D01*
X155769000Y-60722116D01*
X155765936Y-60753233D01*
X155757570Y-60780808D01*
X155743986Y-60806222D01*
X155725702Y-60828502D01*
X155703422Y-60846786D01*
X155678008Y-60860370D01*
X155650433Y-60868736D01*
X155619316Y-60871800D01*
X155230684Y-60871800D01*
X155199567Y-60868736D01*
X155171992Y-60860370D01*
X155146578Y-60846786D01*
X155124298Y-60828502D01*
X155106014Y-60806222D01*
X155092430Y-60780808D01*
X155084064Y-60753233D01*
X155081000Y-60722116D01*
X155081000Y-60283484D01*
X155084064Y-60252367D01*
X155092430Y-60224792D01*
X155106014Y-60199378D01*
X155124298Y-60177098D01*
X155146578Y-60158814D01*
X155171992Y-60145230D01*
X155199567Y-60136864D01*
X155230684Y-60133800D01*
X155619316Y-60133800D01*
X155650433Y-60136864D01*
X155650433Y-60136864D01*
G37*
G36*
X185857304Y-58973749D02*
X185910338Y-58984298D01*
X186010247Y-59025682D01*
X186010249Y-59025683D01*
X186100167Y-59085764D01*
X186176636Y-59162233D01*
X186236717Y-59252151D01*
X186278102Y-59352063D01*
X186299200Y-59458128D01*
X186299200Y-59566272D01*
X186278102Y-59672337D01*
X186236717Y-59772249D01*
X186176636Y-59862167D01*
X186100167Y-59938636D01*
X186010249Y-59998717D01*
X186010248Y-59998718D01*
X186010247Y-59998718D01*
X185910338Y-60040102D01*
X185857304Y-60050651D01*
X185804272Y-60061200D01*
X185696128Y-60061200D01*
X185643096Y-60050651D01*
X185590062Y-60040102D01*
X185490153Y-59998718D01*
X185490152Y-59998718D01*
X185490151Y-59998717D01*
X185400233Y-59938636D01*
X185323764Y-59862167D01*
X185263683Y-59772249D01*
X185222298Y-59672337D01*
X185201200Y-59566272D01*
X185201200Y-59458128D01*
X185222298Y-59352063D01*
X185263683Y-59252151D01*
X185323764Y-59162233D01*
X185400233Y-59085764D01*
X185490151Y-59025683D01*
X185490153Y-59025682D01*
X185590062Y-58984298D01*
X185643096Y-58973749D01*
X185696128Y-58963200D01*
X185804272Y-58963200D01*
X185857304Y-58973749D01*
X185857304Y-58973749D01*
G37*
G36*
X153881000Y-59657000D02*
X153083000Y-59657000D01*
X153083000Y-58559000D01*
X153881000Y-58559000D01*
X153881000Y-59657000D01*
X153881000Y-59657000D01*
G37*
G36*
X155781000Y-59657000D02*
X154983000Y-59657000D01*
X154983000Y-58559000D01*
X155781000Y-58559000D01*
X155781000Y-59657000D01*
X155781000Y-59657000D01*
G37*
G36*
X154831000Y-59657000D02*
X154033000Y-59657000D01*
X154033000Y-58559000D01*
X154831000Y-58559000D01*
X154831000Y-59657000D01*
X154831000Y-59657000D01*
G37*
G36*
X153881000Y-56757000D02*
X153083000Y-56757000D01*
X153083000Y-55659000D01*
X153881000Y-55659000D01*
X153881000Y-56757000D01*
X153881000Y-56757000D01*
G37*
G36*
X154831000Y-56757000D02*
X154033000Y-56757000D01*
X154033000Y-55659000D01*
X154831000Y-55659000D01*
X154831000Y-56757000D01*
X154831000Y-56757000D01*
G37*
G36*
X155781000Y-56757000D02*
X154983000Y-56757000D01*
X154983000Y-55659000D01*
X155781000Y-55659000D01*
X155781000Y-56757000D01*
X155781000Y-56757000D01*
G37*
G36*
X195059000Y-55939000D02*
X193561000Y-55939000D01*
X193561000Y-53141000D01*
X195059000Y-53141000D01*
X195059000Y-55939000D01*
X195059000Y-55939000D01*
G37*
G36*
X195059000Y-52239000D02*
X193561000Y-52239000D01*
X193561000Y-50741000D01*
X195059000Y-50741000D01*
X195059000Y-52239000D01*
X195059000Y-52239000D01*
G37*
G36*
X182819000Y-42787000D02*
X175321000Y-42787000D01*
X175321000Y-40689000D01*
X182819000Y-40689000D01*
X182819000Y-42787000D01*
X182819000Y-42787000D01*
G37*
G36*
X191709000Y-42787000D02*
X184211000Y-42787000D01*
X184211000Y-40689000D01*
X191709000Y-40689000D01*
X191709000Y-42787000D01*
X191709000Y-42787000D01*
G37*
G36*
X165039000Y-42787000D02*
X157541000Y-42787000D01*
X157541000Y-40689000D01*
X165039000Y-40689000D01*
X165039000Y-42787000D01*
X165039000Y-42787000D01*
G37*
G36*
X173929000Y-42787000D02*
X166431000Y-42787000D01*
X166431000Y-40689000D01*
X173929000Y-40689000D01*
X173929000Y-42787000D01*
X173929000Y-42787000D01*
G37*
G36*
X198973767Y-40426822D02*
X199110258Y-40483359D01*
X199233097Y-40565437D01*
X199337563Y-40669903D01*
X199419641Y-40792742D01*
X199476178Y-40929233D01*
X199505000Y-41074131D01*
X199505000Y-41221869D01*
X199476178Y-41366767D01*
X199419641Y-41503258D01*
X199337563Y-41626097D01*
X199233097Y-41730563D01*
X199110258Y-41812641D01*
X198973767Y-41869178D01*
X198828869Y-41898000D01*
X198681131Y-41898000D01*
X198536233Y-41869178D01*
X198399742Y-41812641D01*
X198276903Y-41730563D01*
X198172437Y-41626097D01*
X198090359Y-41503258D01*
X198033822Y-41366767D01*
X198005000Y-41221869D01*
X198005000Y-41074131D01*
X198033822Y-40929233D01*
X198090359Y-40792742D01*
X198172437Y-40669903D01*
X198276903Y-40565437D01*
X198399742Y-40483359D01*
X198536233Y-40426822D01*
X198681131Y-40398000D01*
X198828869Y-40398000D01*
X198973767Y-40426822D01*
X198973767Y-40426822D01*
G37*
M02*
