M48
;DRILL file {KiCad (5.0.1-3-g963ef8bb5)} date Wednesday, March 04, 2020 at 07:54:45 PM
;FORMAT={-:-/ absolute / inch / decimal}
FMAT,2
INCH,TZ
T1C0.0118
T2C0.0157
T3C0.0197
T4C0.0236
T5C0.0866
%
G90
G05
M72
T1
X5.9449Y-1.7913
X5.945Y-1.7325
X6.335Y-1.855
X6.3377Y-1.8963
X6.34Y-1.94
X6.34Y-1.98
X6.3921Y-1.8755
X6.3925Y-1.9193
X6.4006Y-2.28
X6.45Y-1.8975
X6.47Y-2.28
X6.495Y-2.065
X6.5Y-2.34
X6.5Y-2.375
X6.5005Y-2.21
X6.523Y-2.47
X6.523Y-2.689
X6.5236Y-2.248
X6.53Y-2.325
X6.62Y-2.3
X6.62Y-2.555
X6.645Y-2.4074
X6.6756Y-2.3236
X6.7531Y-2.2111
X6.7881Y-1.9411
X6.79Y-2.555
X6.8456Y-2.302
X6.9121Y-2.221
X6.9124Y-2.171
X6.936Y-2.1971
X6.9364Y-2.085
X6.9377Y-2.3091
X6.9624Y-2.171
X6.9624Y-2.22
X7.0056Y-2.2736
X7.035Y-2.3
X7.0392Y-2.1409
X7.0454Y-2.195
X7.0931Y-1.8986
X7.2281Y-2.0636
X7.2281Y-2.0886
T2
X7.4528Y-2.3898
T3
X7.277Y-2.845
X7.1033Y-2.845
X6.968Y-2.845
X7.313Y-2.343
X6.756Y-2.845
T4
X7.8176Y-2.3831
X7.8176Y-2.4205
X7.8176Y-2.4579
X7.8176Y-2.6547
X7.8176Y-2.6921
X7.8176Y-2.7295
T5
X7.6693Y-3.1339
X7.6693Y-2.878
T0
M30
