%TF.GenerationSoftware,KiCad,Pcbnew,(5.0.1-3-g963ef8bb5)*%
%TF.CreationDate,2020-03-04T19:54:40-08:00*%
%TF.ProjectId,SolarCell+Y,536F6C617243656C6C2B592E6B696361,rev?*%
%TF.SameCoordinates,Original*%
%TF.FileFunction,Legend,Bot*%
%TF.FilePolarity,Positive*%
%FSLAX46Y46*%
G04 Gerber Fmt 4.6, Leading zero omitted, Abs format (unit mm)*
G04 Created by KiCad (PCBNEW (5.0.1-3-g963ef8bb5)) date Wednesday, March 04, 2020 at 07:54:40 PM*
%MOMM*%
%LPD*%
G01*
G04 APERTURE LIST*
%ADD10C,0.050000*%
%ADD11C,0.177800*%
%ADD12C,0.120000*%
%ADD13C,0.150000*%
%ADD14C,0.250000*%
%ADD15C,0.203200*%
%ADD16C,0.127000*%
%ADD17C,0.200000*%
%ADD18C,0.100000*%
%ADD19C,0.254000*%
%ADD20C,0.101600*%
G04 APERTURE END LIST*
D10*
X160500000Y-65600000D02*
X160500000Y-64100000D01*
X164000000Y-65600000D02*
X160500000Y-65600000D01*
X164000000Y-64100000D02*
X164000000Y-65600000D01*
X160500000Y-64100000D02*
X164000000Y-64100000D01*
X159000000Y-64100000D02*
X157500000Y-64100000D01*
X159000000Y-65650000D02*
X159000000Y-64100000D01*
X157500000Y-65650000D02*
X159000000Y-65650000D01*
X157500000Y-64100000D02*
X157500000Y-65650000D01*
D11*
X185704171Y-61342198D02*
X185751790Y-61485055D01*
X185799409Y-61532674D01*
X185894647Y-61580293D01*
X186037504Y-61580293D01*
X186132742Y-61532674D01*
X186180361Y-61485055D01*
X186227980Y-61389817D01*
X186227980Y-61008865D01*
X185227980Y-61008865D01*
X185227980Y-61342198D01*
X185275600Y-61437436D01*
X185323219Y-61485055D01*
X185418457Y-61532674D01*
X185513695Y-61532674D01*
X185608933Y-61485055D01*
X185656552Y-61437436D01*
X185704171Y-61342198D01*
X185704171Y-61008865D01*
X185227980Y-62008865D02*
X186037504Y-62008865D01*
X186132742Y-62056484D01*
X186180361Y-62104103D01*
X186227980Y-62199341D01*
X186227980Y-62389817D01*
X186180361Y-62485055D01*
X186132742Y-62532674D01*
X186037504Y-62580293D01*
X185227980Y-62580293D01*
X186227980Y-63627912D02*
X185751790Y-63294579D01*
X186227980Y-63056484D02*
X185227980Y-63056484D01*
X185227980Y-63437436D01*
X185275600Y-63532674D01*
X185323219Y-63580293D01*
X185418457Y-63627912D01*
X185561314Y-63627912D01*
X185656552Y-63580293D01*
X185704171Y-63532674D01*
X185751790Y-63437436D01*
X185751790Y-63056484D01*
X186227980Y-64056484D02*
X185227980Y-64056484D01*
X186227980Y-64627912D01*
X185227980Y-64627912D01*
D12*
X182651400Y-55397400D02*
X182651400Y-54330600D01*
D11*
X184313580Y-73794608D02*
X185313580Y-74127941D01*
X184313580Y-74461274D01*
X184789771Y-75127941D02*
X184837390Y-75270798D01*
X184885009Y-75318417D01*
X184980247Y-75366036D01*
X185123104Y-75366036D01*
X185218342Y-75318417D01*
X185265961Y-75270798D01*
X185313580Y-75175560D01*
X185313580Y-74794608D01*
X184313580Y-74794608D01*
X184313580Y-75127941D01*
X184361200Y-75223179D01*
X184408819Y-75270798D01*
X184504057Y-75318417D01*
X184599295Y-75318417D01*
X184694533Y-75270798D01*
X184742152Y-75223179D01*
X184789771Y-75127941D01*
X184789771Y-74794608D01*
X185027866Y-75746989D02*
X185027866Y-76223179D01*
X185313580Y-75651750D02*
X184313580Y-75985084D01*
X185313580Y-76318417D01*
X184313580Y-76508893D02*
X184313580Y-77080322D01*
X185313580Y-76794608D02*
X184313580Y-76794608D01*
X179995580Y-73870808D02*
X180995580Y-74204141D01*
X179995580Y-74537474D01*
X180947961Y-74823189D02*
X180995580Y-74966046D01*
X180995580Y-75204141D01*
X180947961Y-75299379D01*
X180900342Y-75346998D01*
X180805104Y-75394617D01*
X180709866Y-75394617D01*
X180614628Y-75346998D01*
X180567009Y-75299379D01*
X180519390Y-75204141D01*
X180471771Y-75013665D01*
X180424152Y-74918427D01*
X180376533Y-74870808D01*
X180281295Y-74823189D01*
X180186057Y-74823189D01*
X180090819Y-74870808D01*
X180043200Y-74918427D01*
X179995580Y-75013665D01*
X179995580Y-75251760D01*
X180043200Y-75394617D01*
X179995580Y-76013665D02*
X179995580Y-76204141D01*
X180043200Y-76299379D01*
X180138438Y-76394617D01*
X180328914Y-76442236D01*
X180662247Y-76442236D01*
X180852723Y-76394617D01*
X180947961Y-76299379D01*
X180995580Y-76204141D01*
X180995580Y-76013665D01*
X180947961Y-75918427D01*
X180852723Y-75823189D01*
X180662247Y-75775570D01*
X180328914Y-75775570D01*
X180138438Y-75823189D01*
X180043200Y-75918427D01*
X179995580Y-76013665D01*
X180995580Y-77346998D02*
X180995580Y-76870808D01*
X179995580Y-76870808D01*
X180709866Y-77632712D02*
X180709866Y-78108903D01*
X180995580Y-77537474D02*
X179995580Y-77870808D01*
X180995580Y-78204141D01*
X180995580Y-79108903D02*
X180519390Y-78775570D01*
X180995580Y-78537474D02*
X179995580Y-78537474D01*
X179995580Y-78918427D01*
X180043200Y-79013665D01*
X180090819Y-79061284D01*
X180186057Y-79108903D01*
X180328914Y-79108903D01*
X180424152Y-79061284D01*
X180471771Y-79013665D01*
X180519390Y-78918427D01*
X180519390Y-78537474D01*
X176487200Y-74537474D02*
X176439580Y-74442236D01*
X176439580Y-74299379D01*
X176487200Y-74156522D01*
X176582438Y-74061284D01*
X176677676Y-74013665D01*
X176868152Y-73966046D01*
X177011009Y-73966046D01*
X177201485Y-74013665D01*
X177296723Y-74061284D01*
X177391961Y-74156522D01*
X177439580Y-74299379D01*
X177439580Y-74394617D01*
X177391961Y-74537474D01*
X177344342Y-74585093D01*
X177011009Y-74585093D01*
X177011009Y-74394617D01*
X177439580Y-75013665D02*
X176439580Y-75013665D01*
X177439580Y-75585093D01*
X176439580Y-75585093D01*
X177439580Y-76061284D02*
X176439580Y-76061284D01*
X176439580Y-76299379D01*
X176487200Y-76442236D01*
X176582438Y-76537474D01*
X176677676Y-76585093D01*
X176868152Y-76632712D01*
X177011009Y-76632712D01*
X177201485Y-76585093D01*
X177296723Y-76537474D01*
X177391961Y-76442236D01*
X177439580Y-76299379D01*
X177439580Y-76061284D01*
X171054780Y-74121627D02*
X171054780Y-74740674D01*
X171435733Y-74407341D01*
X171435733Y-74550198D01*
X171483352Y-74645436D01*
X171530971Y-74693055D01*
X171626209Y-74740674D01*
X171864304Y-74740674D01*
X171959542Y-74693055D01*
X172007161Y-74645436D01*
X172054780Y-74550198D01*
X172054780Y-74264484D01*
X172007161Y-74169246D01*
X171959542Y-74121627D01*
X171054780Y-75026389D02*
X172054780Y-75359722D01*
X171054780Y-75693055D01*
X171054780Y-75931150D02*
X171054780Y-76550198D01*
X171435733Y-76216865D01*
X171435733Y-76359722D01*
X171483352Y-76454960D01*
X171530971Y-76502579D01*
X171626209Y-76550198D01*
X171864304Y-76550198D01*
X171959542Y-76502579D01*
X172007161Y-76454960D01*
X172054780Y-76359722D01*
X172054780Y-76074008D01*
X172007161Y-75978770D01*
X171959542Y-75931150D01*
X160572525Y-63402380D02*
X161143953Y-63402380D01*
X160858239Y-63402380D02*
X160858239Y-62402380D01*
X160953477Y-62545238D01*
X161048715Y-62640476D01*
X161143953Y-62688095D01*
D13*
X166275776Y-67164142D02*
X166323395Y-67211761D01*
X166466252Y-67259380D01*
X166561490Y-67259380D01*
X166704347Y-67211761D01*
X166799585Y-67116523D01*
X166847204Y-67021285D01*
X166894823Y-66830809D01*
X166894823Y-66687952D01*
X166847204Y-66497476D01*
X166799585Y-66402238D01*
X166704347Y-66307000D01*
X166561490Y-66259380D01*
X166466252Y-66259380D01*
X166323395Y-66307000D01*
X166275776Y-66354619D01*
X165418633Y-67259380D02*
X165418633Y-66735571D01*
X165466252Y-66640333D01*
X165561490Y-66592714D01*
X165751966Y-66592714D01*
X165847204Y-66640333D01*
X165418633Y-67211761D02*
X165513871Y-67259380D01*
X165751966Y-67259380D01*
X165847204Y-67211761D01*
X165894823Y-67116523D01*
X165894823Y-67021285D01*
X165847204Y-66926047D01*
X165751966Y-66878428D01*
X165513871Y-66878428D01*
X165418633Y-66830809D01*
X164942442Y-67259380D02*
X164942442Y-66259380D01*
X164942442Y-66640333D02*
X164847204Y-66592714D01*
X164656728Y-66592714D01*
X164561490Y-66640333D01*
X164513871Y-66687952D01*
X164466252Y-66783190D01*
X164466252Y-67068904D01*
X164513871Y-67164142D01*
X164561490Y-67211761D01*
X164656728Y-67259380D01*
X164847204Y-67259380D01*
X164942442Y-67211761D01*
X163894823Y-67259380D02*
X163990061Y-67211761D01*
X164037680Y-67116523D01*
X164037680Y-66259380D01*
X163132919Y-67211761D02*
X163228157Y-67259380D01*
X163418633Y-67259380D01*
X163513871Y-67211761D01*
X163561490Y-67116523D01*
X163561490Y-66735571D01*
X163513871Y-66640333D01*
X163418633Y-66592714D01*
X163228157Y-66592714D01*
X163132919Y-66640333D01*
X163085300Y-66735571D01*
X163085300Y-66830809D01*
X163561490Y-66926047D01*
X161894823Y-67259380D02*
X161894823Y-66259380D01*
X161513871Y-66259380D01*
X161418633Y-66307000D01*
X161371014Y-66354619D01*
X161323395Y-66449857D01*
X161323395Y-66592714D01*
X161371014Y-66687952D01*
X161418633Y-66735571D01*
X161513871Y-66783190D01*
X161894823Y-66783190D01*
X160894823Y-67259380D02*
X160894823Y-66592714D01*
X160894823Y-66259380D02*
X160942442Y-66307000D01*
X160894823Y-66354619D01*
X160847204Y-66307000D01*
X160894823Y-66259380D01*
X160894823Y-66354619D01*
X160418633Y-66592714D02*
X160418633Y-67259380D01*
X160418633Y-66687952D02*
X160371014Y-66640333D01*
X160275776Y-66592714D01*
X160132919Y-66592714D01*
X160037680Y-66640333D01*
X159990061Y-66735571D01*
X159990061Y-67259380D01*
X159371014Y-67259380D02*
X159466252Y-67211761D01*
X159513871Y-67164142D01*
X159561490Y-67068904D01*
X159561490Y-66783190D01*
X159513871Y-66687952D01*
X159466252Y-66640333D01*
X159371014Y-66592714D01*
X159228157Y-66592714D01*
X159132919Y-66640333D01*
X159085300Y-66687952D01*
X159037680Y-66783190D01*
X159037680Y-67068904D01*
X159085300Y-67164142D01*
X159132919Y-67211761D01*
X159228157Y-67259380D01*
X159371014Y-67259380D01*
X158180538Y-66592714D02*
X158180538Y-67259380D01*
X158609109Y-66592714D02*
X158609109Y-67116523D01*
X158561490Y-67211761D01*
X158466252Y-67259380D01*
X158323395Y-67259380D01*
X158228157Y-67211761D01*
X158180538Y-67164142D01*
X157847204Y-66592714D02*
X157466252Y-66592714D01*
X157704347Y-66259380D02*
X157704347Y-67116523D01*
X157656728Y-67211761D01*
X157561490Y-67259380D01*
X157466252Y-67259380D01*
X166323395Y-68909380D02*
X166894823Y-68909380D01*
X166609109Y-68909380D02*
X166609109Y-67909380D01*
X166704347Y-68052238D01*
X166799585Y-68147476D01*
X166894823Y-68195095D01*
X165894823Y-68814142D02*
X165847204Y-68861761D01*
X165894823Y-68909380D01*
X165942442Y-68861761D01*
X165894823Y-68814142D01*
X165894823Y-68909380D01*
X165085300Y-68385571D02*
X164942442Y-68433190D01*
X164894823Y-68480809D01*
X164847204Y-68576047D01*
X164847204Y-68718904D01*
X164894823Y-68814142D01*
X164942442Y-68861761D01*
X165037680Y-68909380D01*
X165418633Y-68909380D01*
X165418633Y-67909380D01*
X165085300Y-67909380D01*
X164990061Y-67957000D01*
X164942442Y-68004619D01*
X164894823Y-68099857D01*
X164894823Y-68195095D01*
X164942442Y-68290333D01*
X164990061Y-68337952D01*
X165085300Y-68385571D01*
X165418633Y-68385571D01*
X164466252Y-68623666D02*
X163990061Y-68623666D01*
X164561490Y-68909380D02*
X164228157Y-67909380D01*
X163894823Y-68909380D01*
X163704347Y-67909380D02*
X163132919Y-67909380D01*
X163418633Y-68909380D02*
X163418633Y-67909380D01*
X162942442Y-67909380D02*
X162371014Y-67909380D01*
X162656728Y-68909380D02*
X162656728Y-67909380D01*
X162275776Y-69004619D02*
X161513871Y-69004619D01*
X161275776Y-68909380D02*
X161275776Y-67909380D01*
X160894823Y-67909380D01*
X160799585Y-67957000D01*
X160751966Y-68004619D01*
X160704347Y-68099857D01*
X160704347Y-68242714D01*
X160751966Y-68337952D01*
X160799585Y-68385571D01*
X160894823Y-68433190D01*
X161275776Y-68433190D01*
X166894823Y-69654619D02*
X166847204Y-69607000D01*
X166751966Y-69559380D01*
X166513871Y-69559380D01*
X166418633Y-69607000D01*
X166371014Y-69654619D01*
X166323395Y-69749857D01*
X166323395Y-69845095D01*
X166371014Y-69987952D01*
X166942442Y-70559380D01*
X166323395Y-70559380D01*
X165894823Y-70464142D02*
X165847204Y-70511761D01*
X165894823Y-70559380D01*
X165942442Y-70511761D01*
X165894823Y-70464142D01*
X165894823Y-70559380D01*
X165085300Y-70035571D02*
X164942442Y-70083190D01*
X164894823Y-70130809D01*
X164847204Y-70226047D01*
X164847204Y-70368904D01*
X164894823Y-70464142D01*
X164942442Y-70511761D01*
X165037680Y-70559380D01*
X165418633Y-70559380D01*
X165418633Y-69559380D01*
X165085300Y-69559380D01*
X164990061Y-69607000D01*
X164942442Y-69654619D01*
X164894823Y-69749857D01*
X164894823Y-69845095D01*
X164942442Y-69940333D01*
X164990061Y-69987952D01*
X165085300Y-70035571D01*
X165418633Y-70035571D01*
X164466252Y-70273666D02*
X163990061Y-70273666D01*
X164561490Y-70559380D02*
X164228157Y-69559380D01*
X163894823Y-70559380D01*
X163704347Y-69559380D02*
X163132919Y-69559380D01*
X163418633Y-70559380D02*
X163418633Y-69559380D01*
X162942442Y-69559380D02*
X162371014Y-69559380D01*
X162656728Y-70559380D02*
X162656728Y-69559380D01*
X162275776Y-70654619D02*
X161513871Y-70654619D01*
X161275776Y-70559380D02*
X161275776Y-69559380D01*
X160704347Y-70559380D01*
X160704347Y-69559380D01*
X166942442Y-71209380D02*
X166323395Y-71209380D01*
X166656728Y-71590333D01*
X166513871Y-71590333D01*
X166418633Y-71637952D01*
X166371014Y-71685571D01*
X166323395Y-71780809D01*
X166323395Y-72018904D01*
X166371014Y-72114142D01*
X166418633Y-72161761D01*
X166513871Y-72209380D01*
X166799585Y-72209380D01*
X166894823Y-72161761D01*
X166942442Y-72114142D01*
X165894823Y-72114142D02*
X165847204Y-72161761D01*
X165894823Y-72209380D01*
X165942442Y-72161761D01*
X165894823Y-72114142D01*
X165894823Y-72209380D01*
X165466252Y-72161761D02*
X165323395Y-72209380D01*
X165085300Y-72209380D01*
X164990061Y-72161761D01*
X164942442Y-72114142D01*
X164894823Y-72018904D01*
X164894823Y-71923666D01*
X164942442Y-71828428D01*
X164990061Y-71780809D01*
X165085300Y-71733190D01*
X165275776Y-71685571D01*
X165371014Y-71637952D01*
X165418633Y-71590333D01*
X165466252Y-71495095D01*
X165466252Y-71399857D01*
X165418633Y-71304619D01*
X165371014Y-71257000D01*
X165275776Y-71209380D01*
X165037680Y-71209380D01*
X164894823Y-71257000D01*
X164466252Y-72209380D02*
X164466252Y-71209380D01*
X164228157Y-71209380D01*
X164085300Y-71257000D01*
X163990061Y-71352238D01*
X163942442Y-71447476D01*
X163894823Y-71637952D01*
X163894823Y-71780809D01*
X163942442Y-71971285D01*
X163990061Y-72066523D01*
X164085300Y-72161761D01*
X164228157Y-72209380D01*
X164466252Y-72209380D01*
X163513871Y-71923666D02*
X163037680Y-71923666D01*
X163609109Y-72209380D02*
X163275776Y-71209380D01*
X162942442Y-72209380D01*
X166418633Y-73192714D02*
X166418633Y-73859380D01*
X166656728Y-72811761D02*
X166894823Y-73526047D01*
X166275776Y-73526047D01*
X165894823Y-73764142D02*
X165847204Y-73811761D01*
X165894823Y-73859380D01*
X165942442Y-73811761D01*
X165894823Y-73764142D01*
X165894823Y-73859380D01*
X165466252Y-73811761D02*
X165323395Y-73859380D01*
X165085300Y-73859380D01*
X164990061Y-73811761D01*
X164942442Y-73764142D01*
X164894823Y-73668904D01*
X164894823Y-73573666D01*
X164942442Y-73478428D01*
X164990061Y-73430809D01*
X165085300Y-73383190D01*
X165275776Y-73335571D01*
X165371014Y-73287952D01*
X165418633Y-73240333D01*
X165466252Y-73145095D01*
X165466252Y-73049857D01*
X165418633Y-72954619D01*
X165371014Y-72907000D01*
X165275776Y-72859380D01*
X165037680Y-72859380D01*
X164894823Y-72907000D01*
X163894823Y-73764142D02*
X163942442Y-73811761D01*
X164085300Y-73859380D01*
X164180538Y-73859380D01*
X164323395Y-73811761D01*
X164418633Y-73716523D01*
X164466252Y-73621285D01*
X164513871Y-73430809D01*
X164513871Y-73287952D01*
X164466252Y-73097476D01*
X164418633Y-73002238D01*
X164323395Y-72907000D01*
X164180538Y-72859380D01*
X164085300Y-72859380D01*
X163942442Y-72907000D01*
X163894823Y-72954619D01*
X162990061Y-73859380D02*
X163466252Y-73859380D01*
X163466252Y-72859380D01*
X166371014Y-74509380D02*
X166847204Y-74509380D01*
X166894823Y-74985571D01*
X166847204Y-74937952D01*
X166751966Y-74890333D01*
X166513871Y-74890333D01*
X166418633Y-74937952D01*
X166371014Y-74985571D01*
X166323395Y-75080809D01*
X166323395Y-75318904D01*
X166371014Y-75414142D01*
X166418633Y-75461761D01*
X166513871Y-75509380D01*
X166751966Y-75509380D01*
X166847204Y-75461761D01*
X166894823Y-75414142D01*
X165894823Y-75414142D02*
X165847204Y-75461761D01*
X165894823Y-75509380D01*
X165942442Y-75461761D01*
X165894823Y-75414142D01*
X165894823Y-75509380D01*
X165085300Y-74985571D02*
X164942442Y-75033190D01*
X164894823Y-75080809D01*
X164847204Y-75176047D01*
X164847204Y-75318904D01*
X164894823Y-75414142D01*
X164942442Y-75461761D01*
X165037680Y-75509380D01*
X165418633Y-75509380D01*
X165418633Y-74509380D01*
X165085300Y-74509380D01*
X164990061Y-74557000D01*
X164942442Y-74604619D01*
X164894823Y-74699857D01*
X164894823Y-74795095D01*
X164942442Y-74890333D01*
X164990061Y-74937952D01*
X165085300Y-74985571D01*
X165418633Y-74985571D01*
X164418633Y-74509380D02*
X164418633Y-75318904D01*
X164371014Y-75414142D01*
X164323395Y-75461761D01*
X164228157Y-75509380D01*
X164037680Y-75509380D01*
X163942442Y-75461761D01*
X163894823Y-75414142D01*
X163847204Y-75318904D01*
X163847204Y-74509380D01*
X162799585Y-75509380D02*
X163132919Y-75033190D01*
X163371014Y-75509380D02*
X163371014Y-74509380D01*
X162990061Y-74509380D01*
X162894823Y-74557000D01*
X162847204Y-74604619D01*
X162799585Y-74699857D01*
X162799585Y-74842714D01*
X162847204Y-74937952D01*
X162894823Y-74985571D01*
X162990061Y-75033190D01*
X163371014Y-75033190D01*
X162371014Y-75509380D02*
X162371014Y-74509380D01*
X161799585Y-75509380D01*
X161799585Y-74509380D01*
X166418633Y-76159380D02*
X166609109Y-76159380D01*
X166704347Y-76207000D01*
X166751966Y-76254619D01*
X166847204Y-76397476D01*
X166894823Y-76587952D01*
X166894823Y-76968904D01*
X166847204Y-77064142D01*
X166799585Y-77111761D01*
X166704347Y-77159380D01*
X166513871Y-77159380D01*
X166418633Y-77111761D01*
X166371014Y-77064142D01*
X166323395Y-76968904D01*
X166323395Y-76730809D01*
X166371014Y-76635571D01*
X166418633Y-76587952D01*
X166513871Y-76540333D01*
X166704347Y-76540333D01*
X166799585Y-76587952D01*
X166847204Y-76635571D01*
X166894823Y-76730809D01*
X165894823Y-77064142D02*
X165847204Y-77111761D01*
X165894823Y-77159380D01*
X165942442Y-77111761D01*
X165894823Y-77064142D01*
X165894823Y-77159380D01*
X165513871Y-76159380D02*
X164894823Y-76159380D01*
X165228157Y-76540333D01*
X165085300Y-76540333D01*
X164990061Y-76587952D01*
X164942442Y-76635571D01*
X164894823Y-76730809D01*
X164894823Y-76968904D01*
X164942442Y-77064142D01*
X164990061Y-77111761D01*
X165085300Y-77159380D01*
X165371014Y-77159380D01*
X165466252Y-77111761D01*
X165513871Y-77064142D01*
X164609109Y-76159380D02*
X164275776Y-77159380D01*
X163942442Y-76159380D01*
X163704347Y-76159380D02*
X163085300Y-76159380D01*
X163418633Y-76540333D01*
X163275776Y-76540333D01*
X163180538Y-76587952D01*
X163132919Y-76635571D01*
X163085300Y-76730809D01*
X163085300Y-76968904D01*
X163132919Y-77064142D01*
X163180538Y-77111761D01*
X163275776Y-77159380D01*
X163561490Y-77159380D01*
X163656728Y-77111761D01*
X163704347Y-77064142D01*
X166942442Y-77809380D02*
X166275776Y-77809380D01*
X166704347Y-78809380D01*
X165894823Y-78714142D02*
X165847204Y-78761761D01*
X165894823Y-78809380D01*
X165942442Y-78761761D01*
X165894823Y-78714142D01*
X165894823Y-78809380D01*
X164894823Y-77857000D02*
X164990061Y-77809380D01*
X165132919Y-77809380D01*
X165275776Y-77857000D01*
X165371014Y-77952238D01*
X165418633Y-78047476D01*
X165466252Y-78237952D01*
X165466252Y-78380809D01*
X165418633Y-78571285D01*
X165371014Y-78666523D01*
X165275776Y-78761761D01*
X165132919Y-78809380D01*
X165037680Y-78809380D01*
X164894823Y-78761761D01*
X164847204Y-78714142D01*
X164847204Y-78380809D01*
X165037680Y-78380809D01*
X164418633Y-78809380D02*
X164418633Y-77809380D01*
X163847204Y-78809380D01*
X163847204Y-77809380D01*
X163371014Y-78809380D02*
X163371014Y-77809380D01*
X163132919Y-77809380D01*
X162990061Y-77857000D01*
X162894823Y-77952238D01*
X162847204Y-78047476D01*
X162799585Y-78237952D01*
X162799585Y-78380809D01*
X162847204Y-78571285D01*
X162894823Y-78666523D01*
X162990061Y-78761761D01*
X163132919Y-78809380D01*
X163371014Y-78809380D01*
X166704347Y-79887952D02*
X166799585Y-79840333D01*
X166847204Y-79792714D01*
X166894823Y-79697476D01*
X166894823Y-79649857D01*
X166847204Y-79554619D01*
X166799585Y-79507000D01*
X166704347Y-79459380D01*
X166513871Y-79459380D01*
X166418633Y-79507000D01*
X166371014Y-79554619D01*
X166323395Y-79649857D01*
X166323395Y-79697476D01*
X166371014Y-79792714D01*
X166418633Y-79840333D01*
X166513871Y-79887952D01*
X166704347Y-79887952D01*
X166799585Y-79935571D01*
X166847204Y-79983190D01*
X166894823Y-80078428D01*
X166894823Y-80268904D01*
X166847204Y-80364142D01*
X166799585Y-80411761D01*
X166704347Y-80459380D01*
X166513871Y-80459380D01*
X166418633Y-80411761D01*
X166371014Y-80364142D01*
X166323395Y-80268904D01*
X166323395Y-80078428D01*
X166371014Y-79983190D01*
X166418633Y-79935571D01*
X166513871Y-79887952D01*
X165894823Y-80364142D02*
X165847204Y-80411761D01*
X165894823Y-80459380D01*
X165942442Y-80411761D01*
X165894823Y-80364142D01*
X165894823Y-80459380D01*
X164894823Y-79507000D02*
X164990061Y-79459380D01*
X165132919Y-79459380D01*
X165275776Y-79507000D01*
X165371014Y-79602238D01*
X165418633Y-79697476D01*
X165466252Y-79887952D01*
X165466252Y-80030809D01*
X165418633Y-80221285D01*
X165371014Y-80316523D01*
X165275776Y-80411761D01*
X165132919Y-80459380D01*
X165037680Y-80459380D01*
X164894823Y-80411761D01*
X164847204Y-80364142D01*
X164847204Y-80030809D01*
X165037680Y-80030809D01*
X164418633Y-80459380D02*
X164418633Y-79459380D01*
X163847204Y-80459380D01*
X163847204Y-79459380D01*
X163371014Y-80459380D02*
X163371014Y-79459380D01*
X163132919Y-79459380D01*
X162990061Y-79507000D01*
X162894823Y-79602238D01*
X162847204Y-79697476D01*
X162799585Y-79887952D01*
X162799585Y-80030809D01*
X162847204Y-80221285D01*
X162894823Y-80316523D01*
X162990061Y-80411761D01*
X163132919Y-80459380D01*
X163371014Y-80459380D01*
X166799585Y-82109380D02*
X166609109Y-82109380D01*
X166513871Y-82061761D01*
X166466252Y-82014142D01*
X166371014Y-81871285D01*
X166323395Y-81680809D01*
X166323395Y-81299857D01*
X166371014Y-81204619D01*
X166418633Y-81157000D01*
X166513871Y-81109380D01*
X166704347Y-81109380D01*
X166799585Y-81157000D01*
X166847204Y-81204619D01*
X166894823Y-81299857D01*
X166894823Y-81537952D01*
X166847204Y-81633190D01*
X166799585Y-81680809D01*
X166704347Y-81728428D01*
X166513871Y-81728428D01*
X166418633Y-81680809D01*
X166371014Y-81633190D01*
X166323395Y-81537952D01*
X165894823Y-82014142D02*
X165847204Y-82061761D01*
X165894823Y-82109380D01*
X165942442Y-82061761D01*
X165894823Y-82014142D01*
X165894823Y-82109380D01*
X164847204Y-82014142D02*
X164894823Y-82061761D01*
X165037680Y-82109380D01*
X165132919Y-82109380D01*
X165275776Y-82061761D01*
X165371014Y-81966523D01*
X165418633Y-81871285D01*
X165466252Y-81680809D01*
X165466252Y-81537952D01*
X165418633Y-81347476D01*
X165371014Y-81252238D01*
X165275776Y-81157000D01*
X165132919Y-81109380D01*
X165037680Y-81109380D01*
X164894823Y-81157000D01*
X164847204Y-81204619D01*
X164228157Y-81109380D02*
X164037680Y-81109380D01*
X163942442Y-81157000D01*
X163847204Y-81252238D01*
X163799585Y-81442714D01*
X163799585Y-81776047D01*
X163847204Y-81966523D01*
X163942442Y-82061761D01*
X164037680Y-82109380D01*
X164228157Y-82109380D01*
X164323395Y-82061761D01*
X164418633Y-81966523D01*
X164466252Y-81776047D01*
X164466252Y-81442714D01*
X164418633Y-81252238D01*
X164323395Y-81157000D01*
X164228157Y-81109380D01*
X163371014Y-82109380D02*
X163371014Y-81109380D01*
X162418633Y-82109380D02*
X162894823Y-82109380D01*
X162894823Y-81109380D01*
X162323395Y-82204619D02*
X161561490Y-82204619D01*
X161323395Y-82109380D02*
X161323395Y-81109380D01*
X160751966Y-82109380D01*
X160751966Y-81109380D01*
X166323395Y-83759380D02*
X166894823Y-83759380D01*
X166609109Y-83759380D02*
X166609109Y-82759380D01*
X166704347Y-82902238D01*
X166799585Y-82997476D01*
X166894823Y-83045095D01*
X165704347Y-82759380D02*
X165609109Y-82759380D01*
X165513871Y-82807000D01*
X165466252Y-82854619D01*
X165418633Y-82949857D01*
X165371014Y-83140333D01*
X165371014Y-83378428D01*
X165418633Y-83568904D01*
X165466252Y-83664142D01*
X165513871Y-83711761D01*
X165609109Y-83759380D01*
X165704347Y-83759380D01*
X165799585Y-83711761D01*
X165847204Y-83664142D01*
X165894823Y-83568904D01*
X165942442Y-83378428D01*
X165942442Y-83140333D01*
X165894823Y-82949857D01*
X165847204Y-82854619D01*
X165799585Y-82807000D01*
X165704347Y-82759380D01*
X164942442Y-83664142D02*
X164894823Y-83711761D01*
X164942442Y-83759380D01*
X164990061Y-83711761D01*
X164942442Y-83664142D01*
X164942442Y-83759380D01*
X163894823Y-83664142D02*
X163942442Y-83711761D01*
X164085300Y-83759380D01*
X164180538Y-83759380D01*
X164323395Y-83711761D01*
X164418633Y-83616523D01*
X164466252Y-83521285D01*
X164513871Y-83330809D01*
X164513871Y-83187952D01*
X164466252Y-82997476D01*
X164418633Y-82902238D01*
X164323395Y-82807000D01*
X164180538Y-82759380D01*
X164085300Y-82759380D01*
X163942442Y-82807000D01*
X163894823Y-82854619D01*
X163275776Y-82759380D02*
X163085300Y-82759380D01*
X162990061Y-82807000D01*
X162894823Y-82902238D01*
X162847204Y-83092714D01*
X162847204Y-83426047D01*
X162894823Y-83616523D01*
X162990061Y-83711761D01*
X163085300Y-83759380D01*
X163275776Y-83759380D01*
X163371014Y-83711761D01*
X163466252Y-83616523D01*
X163513871Y-83426047D01*
X163513871Y-83092714D01*
X163466252Y-82902238D01*
X163371014Y-82807000D01*
X163275776Y-82759380D01*
X162418633Y-83759380D02*
X162418633Y-82759380D01*
X161466252Y-83759380D02*
X161942442Y-83759380D01*
X161942442Y-82759380D01*
X161371014Y-83854619D02*
X160609109Y-83854619D01*
X160371014Y-83759380D02*
X160371014Y-82759380D01*
X159990061Y-82759380D01*
X159894823Y-82807000D01*
X159847204Y-82854619D01*
X159799585Y-82949857D01*
X159799585Y-83092714D01*
X159847204Y-83187952D01*
X159894823Y-83235571D01*
X159990061Y-83283190D01*
X160371014Y-83283190D01*
D12*
X180314600Y-47066200D02*
X182245000Y-47066200D01*
X180314600Y-48082200D02*
X180314600Y-47066200D01*
X182245000Y-48082200D02*
X180314600Y-48082200D01*
X182245000Y-47066200D02*
X182245000Y-48082200D01*
X181025800Y-56743600D02*
X181025800Y-55753000D01*
X179171600Y-56743600D02*
X181025800Y-56743600D01*
X179171600Y-55753000D02*
X179171600Y-56743600D01*
X181025800Y-55753000D02*
X179171600Y-55753000D01*
D14*
X200000000Y-40000000D02*
X150000000Y-40000000D01*
X150000000Y-90000000D02*
X200000000Y-90000000D01*
X150000000Y-40000000D02*
X150000000Y-90000000D01*
X195900000Y-45100000D02*
G75*
G03X195900000Y-45100000I-1000000J0D01*
G01*
X156100000Y-84900000D02*
G75*
G03X156100000Y-84900000I-1000000J0D01*
G01*
X156100000Y-45100000D02*
G75*
G03X156100000Y-45100000I-1000000J0D01*
G01*
X195900000Y-84900000D02*
G75*
G03X195900000Y-84900000I-1000000J0D01*
G01*
X200000000Y-90000000D02*
X200000000Y-40000000D01*
D15*
X162336842Y-50034371D02*
X162336842Y-50905228D01*
X162772271Y-50469800D02*
X161901414Y-50469800D01*
D16*
X164355538Y-48365228D02*
X164990538Y-48365228D01*
X164355538Y-48002371D01*
X164990538Y-48002371D01*
X160307261Y-47992090D02*
X159672261Y-47992090D01*
X159672261Y-48233995D01*
X159702500Y-48294471D01*
X159732738Y-48324709D01*
X159793214Y-48354947D01*
X159883928Y-48354947D01*
X159944404Y-48324709D01*
X159974642Y-48294471D01*
X160004880Y-48233995D01*
X160004880Y-47992090D01*
D15*
X162336842Y-45487771D02*
X162336842Y-46358628D01*
D12*
X162347910Y-48133000D02*
X162347910Y-48450500D01*
X162347910Y-49085500D02*
X162347910Y-48768000D01*
X162347910Y-49339500D02*
X162347910Y-49657000D01*
X162347910Y-46799500D02*
X162347910Y-47117000D01*
X162347910Y-47752000D02*
X162347910Y-47434500D01*
X186450200Y-59512200D02*
G75*
G03X186450200Y-59512200I-700000J0D01*
G01*
X185535800Y-72263000D02*
G75*
G03X185535800Y-72263000I-700000J0D01*
G01*
X177687200Y-72263000D02*
G75*
G03X177687200Y-72263000I-700000J0D01*
G01*
X172302400Y-72263000D02*
G75*
G03X172302400Y-72263000I-700000J0D01*
G01*
X181124666Y-72263000D02*
G75*
G03X181124666Y-72263000I-700000J0D01*
G01*
D17*
X166893240Y-54647520D02*
X166893240Y-56197520D01*
X166893240Y-63147520D02*
X166893240Y-61597520D01*
X166893240Y-54647520D02*
X164043240Y-54647520D01*
X166893240Y-63147520D02*
X164043240Y-63147520D01*
X162013240Y-63147520D02*
X162013240Y-54647520D01*
X191305000Y-75954000D02*
G75*
G03X191305000Y-75954000I-100000J0D01*
G01*
D12*
X193030000Y-76954000D02*
X191780000Y-76954000D01*
X193030000Y-75954000D02*
X193030000Y-76954000D01*
X191780000Y-75954000D02*
X191780000Y-76954000D01*
X193030000Y-75954000D02*
X191780000Y-75954000D01*
D18*
X189641000Y-77500000D02*
X189641000Y-76881330D01*
X189641000Y-74900000D02*
X189641000Y-75518670D01*
X187041000Y-74900000D02*
X187041000Y-77500000D01*
D15*
X190302200Y-63915400D02*
G75*
G03X190302200Y-63915400I-143600J0D01*
G01*
D12*
X194812000Y-59570000D02*
X194812000Y-58110000D01*
X191652000Y-59570000D02*
X191652000Y-57410000D01*
X191652000Y-59570000D02*
X192582000Y-59570000D01*
X194812000Y-59570000D02*
X193882000Y-59570000D01*
D17*
X183584200Y-48537200D02*
G75*
G03X183584200Y-48537200I-19000J0D01*
G01*
D12*
X170320240Y-59055219D02*
X170320240Y-58729661D01*
X171340240Y-59055219D02*
X171340240Y-58729661D01*
X163103779Y-52961000D02*
X162778221Y-52961000D01*
X163103779Y-51941000D02*
X162778221Y-51941000D01*
D14*
X178479580Y-54003784D02*
G75*
G03X178479580Y-54003784I-125000J0D01*
G01*
D17*
X169033740Y-53230440D02*
G75*
G03X169033740Y-53230440I-19000J0D01*
G01*
D12*
X165352000Y-49438779D02*
X165352000Y-49113221D01*
X166372000Y-49438779D02*
X166372000Y-49113221D01*
D19*
X175069500Y-50924460D02*
G75*
G03X175069500Y-50924460I-127000J0D01*
G01*
D16*
X171723050Y-48975010D02*
X173081950Y-48975010D01*
X173081950Y-52873910D02*
X171723050Y-52873910D01*
D19*
X182958740Y-50891440D02*
G75*
G03X182958740Y-50891440I-127000J0D01*
G01*
D16*
X179612290Y-48941990D02*
X180971190Y-48941990D01*
X180971190Y-52840890D02*
X179612290Y-52840890D01*
D12*
X176390519Y-48099440D02*
X176064961Y-48099440D01*
X176390519Y-47079440D02*
X176064961Y-47079440D01*
D16*
X163722366Y-58973046D02*
X164357366Y-58973046D01*
X164484366Y-58930713D01*
X164569033Y-58846046D01*
X164611366Y-58719046D01*
X164611366Y-58634380D01*
X164611366Y-59862046D02*
X164611366Y-59354046D01*
X164611366Y-59608046D02*
X163722366Y-59608046D01*
X163849366Y-59523380D01*
X163934033Y-59438713D01*
X163976366Y-59354046D01*
X192955333Y-74747966D02*
X192955333Y-75467633D01*
X192913000Y-75552300D01*
X192870666Y-75594633D01*
X192786000Y-75636966D01*
X192616666Y-75636966D01*
X192532000Y-75594633D01*
X192489666Y-75552300D01*
X192447333Y-75467633D01*
X192447333Y-74747966D01*
X191558333Y-75636966D02*
X192066333Y-75636966D01*
X191812333Y-75636966D02*
X191812333Y-74747966D01*
X191897000Y-74874966D01*
X191981666Y-74959633D01*
X192066333Y-75001966D01*
X188263166Y-79053666D02*
X188898166Y-79053666D01*
X189025166Y-79011333D01*
X189109833Y-78926666D01*
X189152166Y-78799666D01*
X189152166Y-78715000D01*
X188347833Y-79434666D02*
X188305500Y-79477000D01*
X188263166Y-79561666D01*
X188263166Y-79773333D01*
X188305500Y-79858000D01*
X188347833Y-79900333D01*
X188432500Y-79942666D01*
X188517166Y-79942666D01*
X188644166Y-79900333D01*
X189152166Y-79392333D01*
X189152166Y-79942666D01*
X192385333Y-69422966D02*
X192385333Y-70142633D01*
X192343000Y-70227300D01*
X192300666Y-70269633D01*
X192216000Y-70311966D01*
X192046666Y-70311966D01*
X191962000Y-70269633D01*
X191919666Y-70227300D01*
X191877333Y-70142633D01*
X191877333Y-69422966D01*
X191496333Y-69507633D02*
X191454000Y-69465300D01*
X191369333Y-69422966D01*
X191157666Y-69422966D01*
X191073000Y-69465300D01*
X191030666Y-69507633D01*
X190988333Y-69592300D01*
X190988333Y-69676966D01*
X191030666Y-69803966D01*
X191538666Y-70311966D01*
X190988333Y-70311966D01*
D13*
X188216666Y-60352380D02*
X188550000Y-59876190D01*
X188788095Y-60352380D02*
X188788095Y-59352380D01*
X188407142Y-59352380D01*
X188311904Y-59400000D01*
X188264285Y-59447619D01*
X188216666Y-59542857D01*
X188216666Y-59685714D01*
X188264285Y-59780952D01*
X188311904Y-59828571D01*
X188407142Y-59876190D01*
X188788095Y-59876190D01*
X187883333Y-59352380D02*
X187216666Y-59352380D01*
X187645238Y-60352380D01*
X188141666Y-59046380D02*
X188475000Y-58570190D01*
X188713095Y-59046380D02*
X188713095Y-58046380D01*
X188332142Y-58046380D01*
X188236904Y-58094000D01*
X188189285Y-58141619D01*
X188141666Y-58236857D01*
X188141666Y-58379714D01*
X188189285Y-58474952D01*
X188236904Y-58522571D01*
X188332142Y-58570190D01*
X188713095Y-58570190D01*
X187284523Y-58046380D02*
X187475000Y-58046380D01*
X187570238Y-58094000D01*
X187617857Y-58141619D01*
X187713095Y-58284476D01*
X187760714Y-58474952D01*
X187760714Y-58855904D01*
X187713095Y-58951142D01*
X187665476Y-58998761D01*
X187570238Y-59046380D01*
X187379761Y-59046380D01*
X187284523Y-58998761D01*
X187236904Y-58951142D01*
X187189285Y-58855904D01*
X187189285Y-58617809D01*
X187236904Y-58522571D01*
X187284523Y-58474952D01*
X187379761Y-58427333D01*
X187570238Y-58427333D01*
X187665476Y-58474952D01*
X187713095Y-58522571D01*
X187760714Y-58617809D01*
X188266666Y-57752380D02*
X188600000Y-57276190D01*
X188838095Y-57752380D02*
X188838095Y-56752380D01*
X188457142Y-56752380D01*
X188361904Y-56800000D01*
X188314285Y-56847619D01*
X188266666Y-56942857D01*
X188266666Y-57085714D01*
X188314285Y-57180952D01*
X188361904Y-57228571D01*
X188457142Y-57276190D01*
X188838095Y-57276190D01*
X187361904Y-56752380D02*
X187838095Y-56752380D01*
X187885714Y-57228571D01*
X187838095Y-57180952D01*
X187742857Y-57133333D01*
X187504761Y-57133333D01*
X187409523Y-57180952D01*
X187361904Y-57228571D01*
X187314285Y-57323809D01*
X187314285Y-57561904D01*
X187361904Y-57657142D01*
X187409523Y-57704761D01*
X187504761Y-57752380D01*
X187742857Y-57752380D01*
X187838095Y-57704761D01*
X187885714Y-57657142D01*
X169602380Y-57633333D02*
X169126190Y-57300000D01*
X169602380Y-57061904D02*
X168602380Y-57061904D01*
X168602380Y-57442857D01*
X168650000Y-57538095D01*
X168697619Y-57585714D01*
X168792857Y-57633333D01*
X168935714Y-57633333D01*
X169030952Y-57585714D01*
X169078571Y-57538095D01*
X169126190Y-57442857D01*
X169126190Y-57061904D01*
X168935714Y-58490476D02*
X169602380Y-58490476D01*
X168554761Y-58252380D02*
X169269047Y-58014285D01*
X169269047Y-58633333D01*
X193276438Y-56995419D02*
X193371676Y-56947800D01*
X193466914Y-56852561D01*
X193609771Y-56709704D01*
X193705009Y-56662085D01*
X193800247Y-56662085D01*
X193752628Y-56900180D02*
X193847866Y-56852561D01*
X193943104Y-56757323D01*
X193990723Y-56566847D01*
X193990723Y-56233514D01*
X193943104Y-56043038D01*
X193847866Y-55947800D01*
X193752628Y-55900180D01*
X193562152Y-55900180D01*
X193466914Y-55947800D01*
X193371676Y-56043038D01*
X193324057Y-56233514D01*
X193324057Y-56566847D01*
X193371676Y-56757323D01*
X193466914Y-56852561D01*
X193562152Y-56900180D01*
X193752628Y-56900180D01*
X192371676Y-56900180D02*
X192943104Y-56900180D01*
X192657390Y-56900180D02*
X192657390Y-55900180D01*
X192752628Y-56043038D01*
X192847866Y-56138276D01*
X192943104Y-56185895D01*
D20*
X185485314Y-49805771D02*
X184723314Y-49805771D01*
X184723314Y-49987200D01*
X184759600Y-50096057D01*
X184832171Y-50168628D01*
X184904742Y-50204914D01*
X185049885Y-50241200D01*
X185158742Y-50241200D01*
X185303885Y-50204914D01*
X185376457Y-50168628D01*
X185449028Y-50096057D01*
X185485314Y-49987200D01*
X185485314Y-49805771D01*
X184723314Y-50495200D02*
X184723314Y-50966914D01*
X185013600Y-50712914D01*
X185013600Y-50821771D01*
X185049885Y-50894342D01*
X185086171Y-50930628D01*
X185158742Y-50966914D01*
X185340171Y-50966914D01*
X185412742Y-50930628D01*
X185449028Y-50894342D01*
X185485314Y-50821771D01*
X185485314Y-50604057D01*
X185449028Y-50531485D01*
X185412742Y-50495200D01*
D16*
X167830500Y-52387500D02*
X167872833Y-52429833D01*
X167999833Y-52472166D01*
X168084500Y-52472166D01*
X168211500Y-52429833D01*
X168296166Y-52345166D01*
X168338500Y-52260500D01*
X168380833Y-52091166D01*
X168380833Y-51964166D01*
X168338500Y-51794833D01*
X168296166Y-51710166D01*
X168211500Y-51625500D01*
X168084500Y-51583166D01*
X167999833Y-51583166D01*
X167872833Y-51625500D01*
X167830500Y-51667833D01*
X166983833Y-52472166D02*
X167491833Y-52472166D01*
X167237833Y-52472166D02*
X167237833Y-51583166D01*
X167322500Y-51710166D01*
X167407166Y-51794833D01*
X167491833Y-51837166D01*
X166179500Y-51583166D02*
X166602833Y-51583166D01*
X166645166Y-52006500D01*
X166602833Y-51964166D01*
X166518166Y-51921833D01*
X166306500Y-51921833D01*
X166221833Y-51964166D01*
X166179500Y-52006500D01*
X166137166Y-52091166D01*
X166137166Y-52302833D01*
X166179500Y-52387500D01*
X166221833Y-52429833D01*
X166306500Y-52472166D01*
X166518166Y-52472166D01*
X166602833Y-52429833D01*
X166645166Y-52387500D01*
X171084240Y-60903273D02*
X171126573Y-60860940D01*
X171168906Y-60733940D01*
X171168906Y-60649273D01*
X171126573Y-60522273D01*
X171041906Y-60437606D01*
X170957240Y-60395273D01*
X170787906Y-60352940D01*
X170660906Y-60352940D01*
X170491573Y-60395273D01*
X170406906Y-60437606D01*
X170322240Y-60522273D01*
X170279906Y-60649273D01*
X170279906Y-60733940D01*
X170322240Y-60860940D01*
X170364573Y-60903273D01*
X170279906Y-61665273D02*
X170279906Y-61495940D01*
X170322240Y-61411273D01*
X170364573Y-61368940D01*
X170491573Y-61284273D01*
X170660906Y-61241940D01*
X170999573Y-61241940D01*
X171084240Y-61284273D01*
X171126573Y-61326606D01*
X171168906Y-61411273D01*
X171168906Y-61580606D01*
X171126573Y-61665273D01*
X171084240Y-61707606D01*
X170999573Y-61749940D01*
X170787906Y-61749940D01*
X170703240Y-61707606D01*
X170660906Y-61665273D01*
X170618573Y-61580606D01*
X170618573Y-61411273D01*
X170660906Y-61326606D01*
X170703240Y-61284273D01*
X170787906Y-61241940D01*
X176312406Y-50467500D02*
X176354740Y-50509833D01*
X176481740Y-50552166D01*
X176566406Y-50552166D01*
X176693406Y-50509833D01*
X176778073Y-50425166D01*
X176820406Y-50340500D01*
X176862740Y-50171166D01*
X176862740Y-50044166D01*
X176820406Y-49874833D01*
X176778073Y-49790166D01*
X176693406Y-49705500D01*
X176566406Y-49663166D01*
X176481740Y-49663166D01*
X176354740Y-49705500D01*
X176312406Y-49747833D01*
X175889073Y-50552166D02*
X175719740Y-50552166D01*
X175635073Y-50509833D01*
X175592740Y-50467500D01*
X175508073Y-50340500D01*
X175465740Y-50171166D01*
X175465740Y-49832500D01*
X175508073Y-49747833D01*
X175550406Y-49705500D01*
X175635073Y-49663166D01*
X175804406Y-49663166D01*
X175889073Y-49705500D01*
X175931406Y-49747833D01*
X175973740Y-49832500D01*
X175973740Y-50044166D01*
X175931406Y-50128833D01*
X175889073Y-50171166D01*
X175804406Y-50213500D01*
X175635073Y-50213500D01*
X175550406Y-50171166D01*
X175508073Y-50128833D01*
X175465740Y-50044166D01*
X160769300Y-52768500D02*
X160811633Y-52810833D01*
X160938633Y-52853166D01*
X161023300Y-52853166D01*
X161150300Y-52810833D01*
X161234966Y-52726166D01*
X161277300Y-52641500D01*
X161319633Y-52472166D01*
X161319633Y-52345166D01*
X161277300Y-52175833D01*
X161234966Y-52091166D01*
X161150300Y-52006500D01*
X161023300Y-51964166D01*
X160938633Y-51964166D01*
X160811633Y-52006500D01*
X160769300Y-52048833D01*
X159922633Y-52853166D02*
X160430633Y-52853166D01*
X160176633Y-52853166D02*
X160176633Y-51964166D01*
X160261300Y-52091166D01*
X160345966Y-52175833D01*
X160430633Y-52218166D01*
X159160633Y-52260500D02*
X159160633Y-52853166D01*
X159372300Y-51921833D02*
X159583966Y-52556833D01*
X159033633Y-52556833D01*
X185629550Y-55228066D02*
X185629550Y-54339066D01*
X185417883Y-54339066D01*
X185290883Y-54381400D01*
X185206216Y-54466066D01*
X185163883Y-54550733D01*
X185121550Y-54720066D01*
X185121550Y-54847066D01*
X185163883Y-55016400D01*
X185206216Y-55101066D01*
X185290883Y-55185733D01*
X185417883Y-55228066D01*
X185629550Y-55228066D01*
X184317216Y-54339066D02*
X184740550Y-54339066D01*
X184782883Y-54762400D01*
X184740550Y-54720066D01*
X184655883Y-54677733D01*
X184444216Y-54677733D01*
X184359550Y-54720066D01*
X184317216Y-54762400D01*
X184274883Y-54847066D01*
X184274883Y-55058733D01*
X184317216Y-55143400D01*
X184359550Y-55185733D01*
X184444216Y-55228066D01*
X184655883Y-55228066D01*
X184740550Y-55185733D01*
X184782883Y-55143400D01*
X178985333Y-57374366D02*
X178985333Y-58094033D01*
X178943000Y-58178700D01*
X178900666Y-58221033D01*
X178816000Y-58263366D01*
X178646666Y-58263366D01*
X178562000Y-58221033D01*
X178519666Y-58178700D01*
X178477333Y-58094033D01*
X178477333Y-57374366D01*
X177673000Y-57670700D02*
X177673000Y-58263366D01*
X177884666Y-57332033D02*
X178096333Y-57967033D01*
X177546000Y-57967033D01*
X169439166Y-47654633D02*
X168550166Y-47654633D01*
X168550166Y-47866300D01*
X168592500Y-47993300D01*
X168677166Y-48077966D01*
X168761833Y-48120300D01*
X168931166Y-48162633D01*
X169058166Y-48162633D01*
X169227500Y-48120300D01*
X169312166Y-48077966D01*
X169396833Y-47993300D01*
X169439166Y-47866300D01*
X169439166Y-47654633D01*
X168846500Y-48924633D02*
X169439166Y-48924633D01*
X168507833Y-48712966D02*
X169142833Y-48501300D01*
X169142833Y-49051633D01*
X182156100Y-59863566D02*
X182452433Y-59440233D01*
X182664100Y-59863566D02*
X182664100Y-58974566D01*
X182325433Y-58974566D01*
X182240766Y-59016900D01*
X182198433Y-59059233D01*
X182156100Y-59143900D01*
X182156100Y-59270900D01*
X182198433Y-59355566D01*
X182240766Y-59397900D01*
X182325433Y-59440233D01*
X182664100Y-59440233D01*
X181309433Y-59863566D02*
X181817433Y-59863566D01*
X181563433Y-59863566D02*
X181563433Y-58974566D01*
X181648100Y-59101566D01*
X181732766Y-59186233D01*
X181817433Y-59228566D01*
X180547433Y-58974566D02*
X180716766Y-58974566D01*
X180801433Y-59016900D01*
X180843766Y-59059233D01*
X180928433Y-59186233D01*
X180970766Y-59355566D01*
X180970766Y-59694233D01*
X180928433Y-59778900D01*
X180886100Y-59821233D01*
X180801433Y-59863566D01*
X180632100Y-59863566D01*
X180547433Y-59821233D01*
X180505100Y-59778900D01*
X180462766Y-59694233D01*
X180462766Y-59482566D01*
X180505100Y-59397900D01*
X180547433Y-59355566D01*
X180632100Y-59313233D01*
X180801433Y-59313233D01*
X180886100Y-59355566D01*
X180928433Y-59397900D01*
X180970766Y-59482566D01*
X178602166Y-61578500D02*
X178178833Y-61282166D01*
X178602166Y-61070500D02*
X177713166Y-61070500D01*
X177713166Y-61409166D01*
X177755500Y-61493833D01*
X177797833Y-61536166D01*
X177882500Y-61578500D01*
X178009500Y-61578500D01*
X178094166Y-61536166D01*
X178136500Y-61493833D01*
X178178833Y-61409166D01*
X178178833Y-61070500D01*
X178602166Y-62425166D02*
X178602166Y-61917166D01*
X178602166Y-62171166D02*
X177713166Y-62171166D01*
X177840166Y-62086500D01*
X177924833Y-62001833D01*
X177967166Y-61917166D01*
X177713166Y-63229500D02*
X177713166Y-62806166D01*
X178136500Y-62763833D01*
X178094166Y-62806166D01*
X178051833Y-62890833D01*
X178051833Y-63102500D01*
X178094166Y-63187166D01*
X178136500Y-63229500D01*
X178221166Y-63271833D01*
X178432833Y-63271833D01*
X178517500Y-63229500D01*
X178559833Y-63187166D01*
X178602166Y-63102500D01*
X178602166Y-62890833D01*
X178559833Y-62806166D01*
X178517500Y-62763833D01*
X179387500Y-46477766D02*
X179683833Y-46054433D01*
X179895500Y-46477766D02*
X179895500Y-45588766D01*
X179556833Y-45588766D01*
X179472166Y-45631100D01*
X179429833Y-45673433D01*
X179387500Y-45758100D01*
X179387500Y-45885100D01*
X179429833Y-45969766D01*
X179472166Y-46012100D01*
X179556833Y-46054433D01*
X179895500Y-46054433D01*
X178540833Y-46477766D02*
X179048833Y-46477766D01*
X178794833Y-46477766D02*
X178794833Y-45588766D01*
X178879500Y-45715766D01*
X178964166Y-45800433D01*
X179048833Y-45842766D01*
X177778833Y-45885100D02*
X177778833Y-46477766D01*
X177990500Y-45546433D02*
X178202166Y-46181433D01*
X177651833Y-46181433D01*
X176312406Y-52367500D02*
X176354740Y-52409833D01*
X176481740Y-52452166D01*
X176566406Y-52452166D01*
X176693406Y-52409833D01*
X176778073Y-52325166D01*
X176820406Y-52240500D01*
X176862740Y-52071166D01*
X176862740Y-51944166D01*
X176820406Y-51774833D01*
X176778073Y-51690166D01*
X176693406Y-51605500D01*
X176566406Y-51563166D01*
X176481740Y-51563166D01*
X176354740Y-51605500D01*
X176312406Y-51647833D01*
X175804406Y-51944166D02*
X175889073Y-51901833D01*
X175931406Y-51859500D01*
X175973740Y-51774833D01*
X175973740Y-51732500D01*
X175931406Y-51647833D01*
X175889073Y-51605500D01*
X175804406Y-51563166D01*
X175635073Y-51563166D01*
X175550406Y-51605500D01*
X175508073Y-51647833D01*
X175465740Y-51732500D01*
X175465740Y-51774833D01*
X175508073Y-51859500D01*
X175550406Y-51901833D01*
X175635073Y-51944166D01*
X175804406Y-51944166D01*
X175889073Y-51986500D01*
X175931406Y-52028833D01*
X175973740Y-52113500D01*
X175973740Y-52282833D01*
X175931406Y-52367500D01*
X175889073Y-52409833D01*
X175804406Y-52452166D01*
X175635073Y-52452166D01*
X175550406Y-52409833D01*
X175508073Y-52367500D01*
X175465740Y-52282833D01*
X175465740Y-52113500D01*
X175508073Y-52028833D01*
X175550406Y-51986500D01*
X175635073Y-51944166D01*
X166179500Y-45783500D02*
X166221833Y-45741166D01*
X166264166Y-45614166D01*
X166264166Y-45529500D01*
X166221833Y-45402500D01*
X166137166Y-45317833D01*
X166052500Y-45275500D01*
X165883166Y-45233166D01*
X165756166Y-45233166D01*
X165586833Y-45275500D01*
X165502166Y-45317833D01*
X165417500Y-45402500D01*
X165375166Y-45529500D01*
X165375166Y-45614166D01*
X165417500Y-45741166D01*
X165459833Y-45783500D01*
X166264166Y-46630166D02*
X166264166Y-46122166D01*
X166264166Y-46376166D02*
X165375166Y-46376166D01*
X165502166Y-46291500D01*
X165586833Y-46206833D01*
X165629166Y-46122166D01*
X165459833Y-46968833D02*
X165417500Y-47011166D01*
X165375166Y-47095833D01*
X165375166Y-47307500D01*
X165417500Y-47392166D01*
X165459833Y-47434500D01*
X165544500Y-47476833D01*
X165629166Y-47476833D01*
X165756166Y-47434500D01*
X166264166Y-46926500D01*
X166264166Y-47476833D01*
X177352166Y-61728500D02*
X176928833Y-61432166D01*
X177352166Y-61220500D02*
X176463166Y-61220500D01*
X176463166Y-61559166D01*
X176505500Y-61643833D01*
X176547833Y-61686166D01*
X176632500Y-61728500D01*
X176759500Y-61728500D01*
X176844166Y-61686166D01*
X176886500Y-61643833D01*
X176928833Y-61559166D01*
X176928833Y-61220500D01*
X177352166Y-62575166D02*
X177352166Y-62067166D01*
X177352166Y-62321166D02*
X176463166Y-62321166D01*
X176590166Y-62236500D01*
X176674833Y-62151833D01*
X176717166Y-62067166D01*
X176463166Y-62871500D02*
X176463166Y-63464166D01*
X177352166Y-63083166D01*
X173071500Y-60902166D02*
X173367833Y-60478833D01*
X173579500Y-60902166D02*
X173579500Y-60013166D01*
X173240833Y-60013166D01*
X173156166Y-60055500D01*
X173113833Y-60097833D01*
X173071500Y-60182500D01*
X173071500Y-60309500D01*
X173113833Y-60394166D01*
X173156166Y-60436500D01*
X173240833Y-60478833D01*
X173579500Y-60478833D01*
X172224833Y-60902166D02*
X172732833Y-60902166D01*
X172478833Y-60902166D02*
X172478833Y-60013166D01*
X172563500Y-60140166D01*
X172648166Y-60224833D01*
X172732833Y-60267166D01*
X171378166Y-60902166D02*
X171886166Y-60902166D01*
X171632166Y-60902166D02*
X171632166Y-60013166D01*
X171716833Y-60140166D01*
X171801500Y-60224833D01*
X171886166Y-60267166D01*
X173306740Y-63449106D02*
X173603073Y-63025773D01*
X173814740Y-63449106D02*
X173814740Y-62560106D01*
X173476073Y-62560106D01*
X173391406Y-62602440D01*
X173349073Y-62644773D01*
X173306740Y-62729440D01*
X173306740Y-62856440D01*
X173349073Y-62941106D01*
X173391406Y-62983440D01*
X173476073Y-63025773D01*
X173814740Y-63025773D01*
X172460073Y-63449106D02*
X172968073Y-63449106D01*
X172714073Y-63449106D02*
X172714073Y-62560106D01*
X172798740Y-62687106D01*
X172883406Y-62771773D01*
X172968073Y-62814106D01*
X172036740Y-63449106D02*
X171867406Y-63449106D01*
X171782740Y-63406773D01*
X171740406Y-63364440D01*
X171655740Y-63237440D01*
X171613406Y-63068106D01*
X171613406Y-62729440D01*
X171655740Y-62644773D01*
X171698073Y-62602440D01*
X171782740Y-62560106D01*
X171952073Y-62560106D01*
X172036740Y-62602440D01*
X172079073Y-62644773D01*
X172121406Y-62729440D01*
X172121406Y-62941106D01*
X172079073Y-63025773D01*
X172036740Y-63068106D01*
X171952073Y-63110440D01*
X171782740Y-63110440D01*
X171698073Y-63068106D01*
X171655740Y-63025773D01*
X171613406Y-62941106D01*
X173306740Y-62179106D02*
X173603073Y-61755773D01*
X173814740Y-62179106D02*
X173814740Y-61290106D01*
X173476073Y-61290106D01*
X173391406Y-61332440D01*
X173349073Y-61374773D01*
X173306740Y-61459440D01*
X173306740Y-61586440D01*
X173349073Y-61671106D01*
X173391406Y-61713440D01*
X173476073Y-61755773D01*
X173814740Y-61755773D01*
X172460073Y-62179106D02*
X172968073Y-62179106D01*
X172714073Y-62179106D02*
X172714073Y-61290106D01*
X172798740Y-61417106D01*
X172883406Y-61501773D01*
X172968073Y-61544106D01*
X172121406Y-61374773D02*
X172079073Y-61332440D01*
X171994406Y-61290106D01*
X171782740Y-61290106D01*
X171698073Y-61332440D01*
X171655740Y-61374773D01*
X171613406Y-61459440D01*
X171613406Y-61544106D01*
X171655740Y-61671106D01*
X172163740Y-62179106D01*
X171613406Y-62179106D01*
X175521500Y-60902166D02*
X175817833Y-60478833D01*
X176029500Y-60902166D02*
X176029500Y-60013166D01*
X175690833Y-60013166D01*
X175606166Y-60055500D01*
X175563833Y-60097833D01*
X175521500Y-60182500D01*
X175521500Y-60309500D01*
X175563833Y-60394166D01*
X175606166Y-60436500D01*
X175690833Y-60478833D01*
X176029500Y-60478833D01*
X174674833Y-60902166D02*
X175182833Y-60902166D01*
X174928833Y-60902166D02*
X174928833Y-60013166D01*
X175013500Y-60140166D01*
X175098166Y-60224833D01*
X175182833Y-60267166D01*
X174166833Y-60394166D02*
X174251500Y-60351833D01*
X174293833Y-60309500D01*
X174336166Y-60224833D01*
X174336166Y-60182500D01*
X174293833Y-60097833D01*
X174251500Y-60055500D01*
X174166833Y-60013166D01*
X173997500Y-60013166D01*
X173912833Y-60055500D01*
X173870500Y-60097833D01*
X173828166Y-60182500D01*
X173828166Y-60224833D01*
X173870500Y-60309500D01*
X173912833Y-60351833D01*
X173997500Y-60394166D01*
X174166833Y-60394166D01*
X174251500Y-60436500D01*
X174293833Y-60478833D01*
X174336166Y-60563500D01*
X174336166Y-60732833D01*
X174293833Y-60817500D01*
X174251500Y-60859833D01*
X174166833Y-60902166D01*
X173997500Y-60902166D01*
X173912833Y-60859833D01*
X173870500Y-60817500D01*
X173828166Y-60732833D01*
X173828166Y-60563500D01*
X173870500Y-60478833D01*
X173912833Y-60436500D01*
X173997500Y-60394166D01*
X183197500Y-56663166D02*
X183493833Y-56239833D01*
X183705500Y-56663166D02*
X183705500Y-55774166D01*
X183366833Y-55774166D01*
X183282166Y-55816500D01*
X183239833Y-55858833D01*
X183197500Y-55943500D01*
X183197500Y-56070500D01*
X183239833Y-56155166D01*
X183282166Y-56197500D01*
X183366833Y-56239833D01*
X183705500Y-56239833D01*
X182858833Y-55858833D02*
X182816500Y-55816500D01*
X182731833Y-55774166D01*
X182520166Y-55774166D01*
X182435500Y-55816500D01*
X182393166Y-55858833D01*
X182350833Y-55943500D01*
X182350833Y-56028166D01*
X182393166Y-56155166D01*
X182901166Y-56663166D01*
X182350833Y-56663166D01*
X181504166Y-56663166D02*
X182012166Y-56663166D01*
X181758166Y-56663166D02*
X181758166Y-55774166D01*
X181842833Y-55901166D01*
X181927500Y-55985833D01*
X182012166Y-56028166D01*
X182105300Y-46477766D02*
X182401633Y-46054433D01*
X182613300Y-46477766D02*
X182613300Y-45588766D01*
X182274633Y-45588766D01*
X182189966Y-45631100D01*
X182147633Y-45673433D01*
X182105300Y-45758100D01*
X182105300Y-45885100D01*
X182147633Y-45969766D01*
X182189966Y-46012100D01*
X182274633Y-46054433D01*
X182613300Y-46054433D01*
X181766633Y-45673433D02*
X181724300Y-45631100D01*
X181639633Y-45588766D01*
X181427966Y-45588766D01*
X181343300Y-45631100D01*
X181300966Y-45673433D01*
X181258633Y-45758100D01*
X181258633Y-45842766D01*
X181300966Y-45969766D01*
X181808966Y-46477766D01*
X181258633Y-46477766D01*
X180708300Y-45588766D02*
X180623633Y-45588766D01*
X180538966Y-45631100D01*
X180496633Y-45673433D01*
X180454300Y-45758100D01*
X180411966Y-45927433D01*
X180411966Y-46139100D01*
X180454300Y-46308433D01*
X180496633Y-46393100D01*
X180538966Y-46435433D01*
X180623633Y-46477766D01*
X180708300Y-46477766D01*
X180792966Y-46435433D01*
X180835300Y-46393100D01*
X180877633Y-46308433D01*
X180919966Y-46139100D01*
X180919966Y-45927433D01*
X180877633Y-45758100D01*
X180835300Y-45673433D01*
X180792966Y-45631100D01*
X180708300Y-45588766D01*
X169962406Y-62039500D02*
X169539073Y-61743166D01*
X169962406Y-61531500D02*
X169073406Y-61531500D01*
X169073406Y-61870166D01*
X169115740Y-61954833D01*
X169158073Y-61997166D01*
X169242740Y-62039500D01*
X169369740Y-62039500D01*
X169454406Y-61997166D01*
X169496740Y-61954833D01*
X169539073Y-61870166D01*
X169539073Y-61531500D01*
X169158073Y-62378166D02*
X169115740Y-62420500D01*
X169073406Y-62505166D01*
X169073406Y-62716833D01*
X169115740Y-62801500D01*
X169158073Y-62843833D01*
X169242740Y-62886166D01*
X169327406Y-62886166D01*
X169454406Y-62843833D01*
X169962406Y-62335833D01*
X169962406Y-62886166D01*
X169073406Y-63690500D02*
X169073406Y-63267166D01*
X169496740Y-63224833D01*
X169454406Y-63267166D01*
X169412073Y-63351833D01*
X169412073Y-63563500D01*
X169454406Y-63648166D01*
X169496740Y-63690500D01*
X169581406Y-63732833D01*
X169793073Y-63732833D01*
X169877740Y-63690500D01*
X169920073Y-63648166D01*
X169962406Y-63563500D01*
X169962406Y-63351833D01*
X169920073Y-63267166D01*
X169877740Y-63224833D01*
X172021500Y-55452166D02*
X172317833Y-55028833D01*
X172529500Y-55452166D02*
X172529500Y-54563166D01*
X172190833Y-54563166D01*
X172106166Y-54605500D01*
X172063833Y-54647833D01*
X172021500Y-54732500D01*
X172021500Y-54859500D01*
X172063833Y-54944166D01*
X172106166Y-54986500D01*
X172190833Y-55028833D01*
X172529500Y-55028833D01*
X171174833Y-55452166D02*
X171682833Y-55452166D01*
X171428833Y-55452166D02*
X171428833Y-54563166D01*
X171513500Y-54690166D01*
X171598166Y-54774833D01*
X171682833Y-54817166D01*
X170878500Y-54563166D02*
X170328166Y-54563166D01*
X170624500Y-54901833D01*
X170497500Y-54901833D01*
X170412833Y-54944166D01*
X170370500Y-54986500D01*
X170328166Y-55071166D01*
X170328166Y-55282833D01*
X170370500Y-55367500D01*
X170412833Y-55409833D01*
X170497500Y-55452166D01*
X170751500Y-55452166D01*
X170836166Y-55409833D01*
X170878500Y-55367500D01*
X172842766Y-50753433D02*
X172842766Y-50330100D01*
X171953766Y-50330100D01*
X172038433Y-51007433D02*
X171996100Y-51049766D01*
X171953766Y-51134433D01*
X171953766Y-51346100D01*
X171996100Y-51430766D01*
X172038433Y-51473100D01*
X172123100Y-51515433D01*
X172207766Y-51515433D01*
X172334766Y-51473100D01*
X172842766Y-50965100D01*
X172842766Y-51515433D01*
X180716766Y-50743273D02*
X180716766Y-50319940D01*
X179827766Y-50319940D01*
X180716766Y-51505273D02*
X180716766Y-50997273D01*
X180716766Y-51251273D02*
X179827766Y-51251273D01*
X179954766Y-51166606D01*
X180039433Y-51081940D01*
X180081766Y-50997273D01*
X174132240Y-47779940D02*
X174174573Y-47822273D01*
X174301573Y-47864606D01*
X174386240Y-47864606D01*
X174513240Y-47822273D01*
X174597906Y-47737606D01*
X174640240Y-47652940D01*
X174682573Y-47483606D01*
X174682573Y-47356606D01*
X174640240Y-47187273D01*
X174597906Y-47102606D01*
X174513240Y-47017940D01*
X174386240Y-46975606D01*
X174301573Y-46975606D01*
X174174573Y-47017940D01*
X174132240Y-47060273D01*
X173285573Y-47864606D02*
X173793573Y-47864606D01*
X173539573Y-47864606D02*
X173539573Y-46975606D01*
X173624240Y-47102606D01*
X173708906Y-47187273D01*
X173793573Y-47229606D01*
X172438906Y-47864606D02*
X172946906Y-47864606D01*
X172692906Y-47864606D02*
X172692906Y-46975606D01*
X172777573Y-47102606D01*
X172862240Y-47187273D01*
X172946906Y-47229606D01*
X173748166Y-54167500D02*
X173790500Y-54209833D01*
X173917500Y-54252166D01*
X174002166Y-54252166D01*
X174129166Y-54209833D01*
X174213833Y-54125166D01*
X174256166Y-54040500D01*
X174298500Y-53871166D01*
X174298500Y-53744166D01*
X174256166Y-53574833D01*
X174213833Y-53490166D01*
X174129166Y-53405500D01*
X174002166Y-53363166D01*
X173917500Y-53363166D01*
X173790500Y-53405500D01*
X173748166Y-53447833D01*
X173451833Y-53363166D02*
X172859166Y-53363166D01*
X173240166Y-54252166D01*
X182266166Y-57848500D02*
X182308500Y-57890833D01*
X182435500Y-57933166D01*
X182520166Y-57933166D01*
X182647166Y-57890833D01*
X182731833Y-57806166D01*
X182774166Y-57721500D01*
X182816500Y-57552166D01*
X182816500Y-57425166D01*
X182774166Y-57255833D01*
X182731833Y-57171166D01*
X182647166Y-57086500D01*
X182520166Y-57044166D01*
X182435500Y-57044166D01*
X182308500Y-57086500D01*
X182266166Y-57128833D01*
X181504166Y-57340500D02*
X181504166Y-57933166D01*
X181715833Y-57001833D02*
X181927500Y-57636833D01*
X181377166Y-57636833D01*
X185392906Y-47906940D02*
X185435240Y-47949273D01*
X185562240Y-47991606D01*
X185646906Y-47991606D01*
X185773906Y-47949273D01*
X185858573Y-47864606D01*
X185900906Y-47779940D01*
X185943240Y-47610606D01*
X185943240Y-47483606D01*
X185900906Y-47314273D01*
X185858573Y-47229606D01*
X185773906Y-47144940D01*
X185646906Y-47102606D01*
X185562240Y-47102606D01*
X185435240Y-47144940D01*
X185392906Y-47187273D01*
X184630906Y-47398940D02*
X184630906Y-47991606D01*
X184842573Y-47060273D02*
X185054240Y-47695273D01*
X184503906Y-47695273D01*
X167655240Y-47716440D02*
X167697573Y-47674106D01*
X167739906Y-47547106D01*
X167739906Y-47462440D01*
X167697573Y-47335440D01*
X167612906Y-47250773D01*
X167528240Y-47208440D01*
X167358906Y-47166106D01*
X167231906Y-47166106D01*
X167062573Y-47208440D01*
X166977906Y-47250773D01*
X166893240Y-47335440D01*
X166850906Y-47462440D01*
X166850906Y-47547106D01*
X166893240Y-47674106D01*
X166935573Y-47716440D01*
X167739906Y-48563106D02*
X167739906Y-48055106D01*
X167739906Y-48309106D02*
X166850906Y-48309106D01*
X166977906Y-48224440D01*
X167062573Y-48139773D01*
X167104906Y-48055106D01*
X166850906Y-49113440D02*
X166850906Y-49198106D01*
X166893240Y-49282773D01*
X166935573Y-49325106D01*
X167020240Y-49367440D01*
X167189573Y-49409773D01*
X167401240Y-49409773D01*
X167570573Y-49367440D01*
X167655240Y-49325106D01*
X167697573Y-49282773D01*
X167739906Y-49198106D01*
X167739906Y-49113440D01*
X167697573Y-49028773D01*
X167655240Y-48986440D01*
X167570573Y-48944106D01*
X167401240Y-48901773D01*
X167189573Y-48901773D01*
X167020240Y-48944106D01*
X166935573Y-48986440D01*
X166893240Y-49028773D01*
X166850906Y-49113440D01*
X180249406Y-54193440D02*
X180291740Y-54235773D01*
X180418740Y-54278106D01*
X180503406Y-54278106D01*
X180630406Y-54235773D01*
X180715073Y-54151106D01*
X180757406Y-54066440D01*
X180799740Y-53897106D01*
X180799740Y-53770106D01*
X180757406Y-53600773D01*
X180715073Y-53516106D01*
X180630406Y-53431440D01*
X180503406Y-53389106D01*
X180418740Y-53389106D01*
X180291740Y-53431440D01*
X180249406Y-53473773D01*
X179953073Y-53389106D02*
X179402740Y-53389106D01*
X179699073Y-53727773D01*
X179572073Y-53727773D01*
X179487406Y-53770106D01*
X179445073Y-53812440D01*
X179402740Y-53897106D01*
X179402740Y-54108773D01*
X179445073Y-54193440D01*
X179487406Y-54235773D01*
X179572073Y-54278106D01*
X179826073Y-54278106D01*
X179910740Y-54235773D01*
X179953073Y-54193440D01*
X170098166Y-56267500D02*
X170140500Y-56309833D01*
X170267500Y-56352166D01*
X170352166Y-56352166D01*
X170479166Y-56309833D01*
X170563833Y-56225166D01*
X170606166Y-56140500D01*
X170648500Y-55971166D01*
X170648500Y-55844166D01*
X170606166Y-55674833D01*
X170563833Y-55590166D01*
X170479166Y-55505500D01*
X170352166Y-55463166D01*
X170267500Y-55463166D01*
X170140500Y-55505500D01*
X170098166Y-55547833D01*
X169759500Y-55547833D02*
X169717166Y-55505500D01*
X169632500Y-55463166D01*
X169420833Y-55463166D01*
X169336166Y-55505500D01*
X169293833Y-55547833D01*
X169251500Y-55632500D01*
X169251500Y-55717166D01*
X169293833Y-55844166D01*
X169801833Y-56352166D01*
X169251500Y-56352166D01*
M02*
