%TF.GenerationSoftware,KiCad,Pcbnew,(5.0.1-3-g963ef8bb5)*%
%TF.CreationDate,2020-03-04T19:54:40-08:00*%
%TF.ProjectId,SolarCell+Y,536F6C617243656C6C2B592E6B696361,rev?*%
%TF.SameCoordinates,Original*%
%TF.FileFunction,Soldermask,Bot*%
%TF.FilePolarity,Negative*%
%FSLAX46Y46*%
G04 Gerber Fmt 4.6, Leading zero omitted, Abs format (unit mm)*
G04 Created by KiCad (PCBNEW (5.0.1-3-g963ef8bb5)) date Wednesday, March 04, 2020 at 07:54:40 PM*
%MOMM*%
%LPD*%
G01*
G04 APERTURE LIST*
%ADD10C,0.050000*%
%ADD11C,0.300000*%
%ADD12C,0.250000*%
%ADD13C,0.100000*%
G04 APERTURE END LIST*
D10*
X160500000Y-65600000D02*
X160500000Y-64100000D01*
X164000000Y-65600000D02*
X160500000Y-65600000D01*
X164000000Y-64100000D02*
X164000000Y-65600000D01*
X160500000Y-64100000D02*
X164000000Y-64100000D01*
X159000000Y-64100000D02*
X157500000Y-64100000D01*
X159000000Y-65650000D02*
X159000000Y-64100000D01*
X157500000Y-65650000D02*
X159000000Y-65650000D01*
X157500000Y-64100000D02*
X157500000Y-65650000D01*
D11*
X172432885Y-42028228D02*
X172790028Y-41028228D01*
X173147171Y-42028228D01*
X174004314Y-42528228D02*
X174147171Y-42528228D01*
X174290028Y-42456800D01*
X174361457Y-42385371D01*
X174432885Y-42242514D01*
X174504314Y-41956800D01*
X174504314Y-41599657D01*
X174432885Y-41313942D01*
X174361457Y-41171085D01*
X174290028Y-41099657D01*
X174147171Y-41028228D01*
X174004314Y-41028228D01*
X173861457Y-41099657D01*
X173790028Y-41171085D01*
X173718600Y-41313942D01*
X173647171Y-41599657D01*
X173647171Y-41956800D01*
X173718600Y-42242514D01*
X173790028Y-42385371D01*
X173861457Y-42456800D01*
X174004314Y-42528228D01*
X175075742Y-42385371D02*
X175147171Y-42456800D01*
X175290028Y-42528228D01*
X175647171Y-42528228D01*
X175790028Y-42456800D01*
X175861457Y-42385371D01*
X175932885Y-42242514D01*
X175932885Y-42099657D01*
X175861457Y-41885371D01*
X175004314Y-41028228D01*
X175932885Y-41028228D01*
D12*
X200000000Y-40000000D02*
X150000000Y-40000000D01*
X150000000Y-90000000D02*
X200000000Y-90000000D01*
X150000000Y-40000000D02*
X150000000Y-90000000D01*
X195900000Y-45100000D02*
G75*
G03X195900000Y-45100000I-1000000J0D01*
G01*
X156100000Y-84900000D02*
G75*
G03X156100000Y-84900000I-1000000J0D01*
G01*
X156100000Y-45100000D02*
G75*
G03X156100000Y-45100000I-1000000J0D01*
G01*
X195900000Y-84900000D02*
G75*
G03X195900000Y-84900000I-1000000J0D01*
G01*
X200000000Y-90000000D02*
X200000000Y-40000000D01*
D11*
X348051214Y-217737571D02*
X347694071Y-218737571D01*
X347336928Y-217737571D01*
X346479785Y-217237571D02*
X346336928Y-217237571D01*
X346194071Y-217309000D01*
X346122642Y-217380428D01*
X346051214Y-217523285D01*
X345979785Y-217809000D01*
X345979785Y-218166142D01*
X346051214Y-218451857D01*
X346122642Y-218594714D01*
X346194071Y-218666142D01*
X346336928Y-218737571D01*
X346479785Y-218737571D01*
X346622642Y-218666142D01*
X346694071Y-218594714D01*
X346765500Y-218451857D01*
X346836928Y-218166142D01*
X346836928Y-217809000D01*
X346765500Y-217523285D01*
X346694071Y-217380428D01*
X346622642Y-217309000D01*
X346479785Y-217237571D01*
X345051214Y-217237571D02*
X344908357Y-217237571D01*
X344765500Y-217309000D01*
X344694071Y-217380428D01*
X344622642Y-217523285D01*
X344551214Y-217809000D01*
X344551214Y-218166142D01*
X344622642Y-218451857D01*
X344694071Y-218594714D01*
X344765500Y-218666142D01*
X344908357Y-218737571D01*
X345051214Y-218737571D01*
X345194071Y-218666142D01*
X345265500Y-218594714D01*
X345336928Y-218451857D01*
X345408357Y-218166142D01*
X345408357Y-217809000D01*
X345336928Y-217523285D01*
X345265500Y-217380428D01*
X345194071Y-217309000D01*
X345051214Y-217237571D01*
D13*
G36*
X198973767Y-88051822D02*
X199110258Y-88108359D01*
X199233097Y-88190437D01*
X199337563Y-88294903D01*
X199419641Y-88417742D01*
X199476178Y-88554233D01*
X199505000Y-88699131D01*
X199505000Y-88846869D01*
X199476178Y-88991767D01*
X199419641Y-89128258D01*
X199337563Y-89251097D01*
X199233097Y-89355563D01*
X199110258Y-89437641D01*
X198973767Y-89494178D01*
X198828869Y-89523000D01*
X198681131Y-89523000D01*
X198536233Y-89494178D01*
X198399742Y-89437641D01*
X198276903Y-89355563D01*
X198172437Y-89251097D01*
X198090359Y-89128258D01*
X198033822Y-88991767D01*
X198005000Y-88846869D01*
X198005000Y-88699131D01*
X198033822Y-88554233D01*
X198090359Y-88417742D01*
X198172437Y-88294903D01*
X198276903Y-88190437D01*
X198399742Y-88108359D01*
X198536233Y-88051822D01*
X198681131Y-88023000D01*
X198828869Y-88023000D01*
X198973767Y-88051822D01*
X198973767Y-88051822D01*
G37*
G36*
X151475767Y-88051822D02*
X151612258Y-88108359D01*
X151735097Y-88190437D01*
X151839563Y-88294903D01*
X151921641Y-88417742D01*
X151978178Y-88554233D01*
X152007000Y-88699131D01*
X152007000Y-88846869D01*
X151978178Y-88991767D01*
X151921641Y-89128258D01*
X151839563Y-89251097D01*
X151735097Y-89355563D01*
X151612258Y-89437641D01*
X151475767Y-89494178D01*
X151330869Y-89523000D01*
X151183131Y-89523000D01*
X151038233Y-89494178D01*
X150901742Y-89437641D01*
X150778903Y-89355563D01*
X150674437Y-89251097D01*
X150592359Y-89128258D01*
X150535822Y-88991767D01*
X150507000Y-88846869D01*
X150507000Y-88699131D01*
X150535822Y-88554233D01*
X150592359Y-88417742D01*
X150674437Y-88294903D01*
X150778903Y-88190437D01*
X150901742Y-88108359D01*
X151038233Y-88051822D01*
X151183131Y-88023000D01*
X151330869Y-88023000D01*
X151475767Y-88051822D01*
X151475767Y-88051822D01*
G37*
G36*
X195456009Y-77437428D02*
X195865301Y-77606962D01*
X196233654Y-77853088D01*
X196546912Y-78166346D01*
X196793038Y-78534699D01*
X196962572Y-78943991D01*
X197049000Y-79378493D01*
X197049000Y-79821507D01*
X196962572Y-80256009D01*
X196793038Y-80665301D01*
X196546912Y-81033654D01*
X196233654Y-81346912D01*
X195865301Y-81593038D01*
X195456009Y-81762572D01*
X195021507Y-81849000D01*
X194578493Y-81849000D01*
X194143991Y-81762572D01*
X193734699Y-81593038D01*
X193366346Y-81346912D01*
X193053088Y-81033654D01*
X192806962Y-80665301D01*
X192637428Y-80256009D01*
X192551000Y-79821507D01*
X192551000Y-79378493D01*
X192637428Y-78943991D01*
X192806962Y-78534699D01*
X193053088Y-78166346D01*
X193366346Y-77853088D01*
X193734699Y-77606962D01*
X194143991Y-77437428D01*
X194578493Y-77351000D01*
X195021507Y-77351000D01*
X195456009Y-77437428D01*
X195456009Y-77437428D01*
G37*
G36*
X189515000Y-78249000D02*
X187167000Y-78249000D01*
X187167000Y-77101000D01*
X189515000Y-77101000D01*
X189515000Y-78249000D01*
X189515000Y-78249000D01*
G37*
G36*
X193454000Y-76928000D02*
X192856000Y-76928000D01*
X192856000Y-76530000D01*
X193454000Y-76530000D01*
X193454000Y-76928000D01*
X193454000Y-76928000D01*
G37*
G36*
X191954000Y-76928000D02*
X191356000Y-76928000D01*
X191356000Y-76530000D01*
X191954000Y-76530000D01*
X191954000Y-76928000D01*
X191954000Y-76928000D01*
G37*
G36*
X190440000Y-76774000D02*
X189292000Y-76774000D01*
X189292000Y-75626000D01*
X190440000Y-75626000D01*
X190440000Y-76774000D01*
X190440000Y-76774000D01*
G37*
G36*
X193454000Y-76378000D02*
X192856000Y-76378000D01*
X192856000Y-75980000D01*
X193454000Y-75980000D01*
X193454000Y-76378000D01*
X193454000Y-76378000D01*
G37*
G36*
X191954000Y-76378000D02*
X191356000Y-76378000D01*
X191356000Y-75980000D01*
X191954000Y-75980000D01*
X191954000Y-76378000D01*
X191954000Y-76378000D01*
G37*
G36*
X195456009Y-70937428D02*
X195865301Y-71106962D01*
X196233654Y-71353088D01*
X196546912Y-71666346D01*
X196793038Y-72034699D01*
X196962572Y-72443991D01*
X197049000Y-72878493D01*
X197049000Y-73321507D01*
X196962572Y-73756009D01*
X196793038Y-74165301D01*
X196546912Y-74533654D01*
X196233654Y-74846912D01*
X195865301Y-75093038D01*
X195456009Y-75262572D01*
X195021507Y-75349000D01*
X194578493Y-75349000D01*
X194143991Y-75262572D01*
X193734699Y-75093038D01*
X193366346Y-74846912D01*
X193053088Y-74533654D01*
X192806962Y-74165301D01*
X192637428Y-73756009D01*
X192551000Y-73321507D01*
X192551000Y-72878493D01*
X192637428Y-72443991D01*
X192806962Y-72034699D01*
X193053088Y-71666346D01*
X193366346Y-71353088D01*
X193734699Y-71106962D01*
X194143991Y-70937428D01*
X194578493Y-70851000D01*
X195021507Y-70851000D01*
X195456009Y-70937428D01*
X195456009Y-70937428D01*
G37*
G36*
X189515000Y-75299000D02*
X187167000Y-75299000D01*
X187167000Y-74151000D01*
X189515000Y-74151000D01*
X189515000Y-75299000D01*
X189515000Y-75299000D01*
G37*
G36*
X184995938Y-71735098D02*
X185095847Y-71776482D01*
X185095849Y-71776483D01*
X185185767Y-71836564D01*
X185262235Y-71913032D01*
X185322318Y-72002953D01*
X185363702Y-72102862D01*
X185384800Y-72208929D01*
X185384800Y-72317071D01*
X185363702Y-72423138D01*
X185355064Y-72443991D01*
X185322317Y-72523049D01*
X185262236Y-72612967D01*
X185185767Y-72689436D01*
X185095849Y-72749517D01*
X185095848Y-72749518D01*
X185095847Y-72749518D01*
X184995938Y-72790902D01*
X184889872Y-72812000D01*
X184781728Y-72812000D01*
X184675662Y-72790902D01*
X184575753Y-72749518D01*
X184575752Y-72749518D01*
X184575751Y-72749517D01*
X184485833Y-72689436D01*
X184409364Y-72612967D01*
X184349283Y-72523049D01*
X184316536Y-72443991D01*
X184307898Y-72423138D01*
X184286800Y-72317071D01*
X184286800Y-72208929D01*
X184307898Y-72102862D01*
X184349282Y-72002953D01*
X184409365Y-71913032D01*
X184485833Y-71836564D01*
X184575751Y-71776483D01*
X184575753Y-71776482D01*
X184675662Y-71735098D01*
X184781728Y-71714000D01*
X184889872Y-71714000D01*
X184995938Y-71735098D01*
X184995938Y-71735098D01*
G37*
G36*
X177147338Y-71735098D02*
X177247247Y-71776482D01*
X177247249Y-71776483D01*
X177337167Y-71836564D01*
X177413635Y-71913032D01*
X177473718Y-72002953D01*
X177515102Y-72102862D01*
X177536200Y-72208929D01*
X177536200Y-72317071D01*
X177515102Y-72423138D01*
X177506464Y-72443991D01*
X177473717Y-72523049D01*
X177413636Y-72612967D01*
X177337167Y-72689436D01*
X177247249Y-72749517D01*
X177247248Y-72749518D01*
X177247247Y-72749518D01*
X177147338Y-72790902D01*
X177041272Y-72812000D01*
X176933128Y-72812000D01*
X176827062Y-72790902D01*
X176727153Y-72749518D01*
X176727152Y-72749518D01*
X176727151Y-72749517D01*
X176637233Y-72689436D01*
X176560764Y-72612967D01*
X176500683Y-72523049D01*
X176467936Y-72443991D01*
X176459298Y-72423138D01*
X176438200Y-72317071D01*
X176438200Y-72208929D01*
X176459298Y-72102862D01*
X176500682Y-72002953D01*
X176560765Y-71913032D01*
X176637233Y-71836564D01*
X176727151Y-71776483D01*
X176727153Y-71776482D01*
X176827062Y-71735098D01*
X176933128Y-71714000D01*
X177041272Y-71714000D01*
X177147338Y-71735098D01*
X177147338Y-71735098D01*
G37*
G36*
X171762538Y-71735098D02*
X171862447Y-71776482D01*
X171862449Y-71776483D01*
X171952367Y-71836564D01*
X172028835Y-71913032D01*
X172088918Y-72002953D01*
X172130302Y-72102862D01*
X172151400Y-72208929D01*
X172151400Y-72317071D01*
X172130302Y-72423138D01*
X172121664Y-72443991D01*
X172088917Y-72523049D01*
X172028836Y-72612967D01*
X171952367Y-72689436D01*
X171862449Y-72749517D01*
X171862448Y-72749518D01*
X171862447Y-72749518D01*
X171762538Y-72790902D01*
X171656472Y-72812000D01*
X171548328Y-72812000D01*
X171442262Y-72790902D01*
X171342353Y-72749518D01*
X171342352Y-72749518D01*
X171342351Y-72749517D01*
X171252433Y-72689436D01*
X171175964Y-72612967D01*
X171115883Y-72523049D01*
X171083136Y-72443991D01*
X171074498Y-72423138D01*
X171053400Y-72317071D01*
X171053400Y-72208929D01*
X171074498Y-72102862D01*
X171115882Y-72002953D01*
X171175965Y-71913032D01*
X171252433Y-71836564D01*
X171342351Y-71776483D01*
X171342353Y-71776482D01*
X171442262Y-71735098D01*
X171548328Y-71714000D01*
X171656472Y-71714000D01*
X171762538Y-71735098D01*
X171762538Y-71735098D01*
G37*
G36*
X180584804Y-71735098D02*
X180684713Y-71776482D01*
X180684715Y-71776483D01*
X180774633Y-71836564D01*
X180851101Y-71913032D01*
X180911184Y-72002953D01*
X180952568Y-72102862D01*
X180973666Y-72208929D01*
X180973666Y-72317071D01*
X180952568Y-72423138D01*
X180943930Y-72443991D01*
X180911183Y-72523049D01*
X180851102Y-72612967D01*
X180774633Y-72689436D01*
X180684715Y-72749517D01*
X180684714Y-72749518D01*
X180684713Y-72749518D01*
X180584804Y-72790902D01*
X180478738Y-72812000D01*
X180370594Y-72812000D01*
X180264528Y-72790902D01*
X180164619Y-72749518D01*
X180164618Y-72749518D01*
X180164617Y-72749517D01*
X180074699Y-72689436D01*
X179998230Y-72612967D01*
X179938149Y-72523049D01*
X179905402Y-72443991D01*
X179896764Y-72423138D01*
X179875666Y-72317071D01*
X179875666Y-72208929D01*
X179896764Y-72102862D01*
X179938148Y-72002953D01*
X179998231Y-71913032D01*
X180074699Y-71836564D01*
X180164617Y-71776483D01*
X180164619Y-71776482D01*
X180264528Y-71735098D01*
X180370594Y-71714000D01*
X180478738Y-71714000D01*
X180584804Y-71735098D01*
X180584804Y-71735098D01*
G37*
G36*
X198674666Y-66883703D02*
X198728472Y-66894405D01*
X198829837Y-66936392D01*
X198921067Y-66997350D01*
X198998650Y-67074933D01*
X199059608Y-67166163D01*
X199101595Y-67267528D01*
X199123000Y-67375141D01*
X199123000Y-67484859D01*
X199101595Y-67592472D01*
X199059608Y-67693837D01*
X198998650Y-67785067D01*
X198921065Y-67862652D01*
X198919284Y-67863842D01*
X198911783Y-67869998D01*
X198905627Y-67877498D01*
X198901052Y-67886056D01*
X198898235Y-67895342D01*
X198897284Y-67904999D01*
X198898235Y-67914656D01*
X198901052Y-67923942D01*
X198905626Y-67932500D01*
X198911782Y-67940001D01*
X198919284Y-67946158D01*
X198921065Y-67947348D01*
X198998650Y-68024933D01*
X199059608Y-68116163D01*
X199101595Y-68217528D01*
X199123000Y-68325141D01*
X199123000Y-68434859D01*
X199101595Y-68542472D01*
X199059608Y-68643837D01*
X198998650Y-68735067D01*
X198921065Y-68812652D01*
X198919284Y-68813842D01*
X198911783Y-68819998D01*
X198905627Y-68827498D01*
X198901052Y-68836056D01*
X198898235Y-68845342D01*
X198897284Y-68854999D01*
X198898235Y-68864656D01*
X198901052Y-68873942D01*
X198905626Y-68882500D01*
X198911782Y-68890001D01*
X198919284Y-68896158D01*
X198921065Y-68897348D01*
X198998650Y-68974933D01*
X199059608Y-69066163D01*
X199101595Y-69167528D01*
X199123000Y-69275141D01*
X199123000Y-69384859D01*
X199101595Y-69492472D01*
X199059608Y-69593837D01*
X198998650Y-69685067D01*
X198921067Y-69762650D01*
X198829837Y-69823608D01*
X198728472Y-69865595D01*
X198674666Y-69876297D01*
X198620860Y-69887000D01*
X198511140Y-69887000D01*
X198457334Y-69876297D01*
X198403528Y-69865595D01*
X198302163Y-69823608D01*
X198210933Y-69762650D01*
X198133350Y-69685067D01*
X198072392Y-69593837D01*
X198030405Y-69492472D01*
X198009000Y-69384859D01*
X198009000Y-69275141D01*
X198030405Y-69167528D01*
X198072392Y-69066163D01*
X198133350Y-68974933D01*
X198210935Y-68897348D01*
X198212716Y-68896158D01*
X198220217Y-68890002D01*
X198226373Y-68882502D01*
X198230948Y-68873944D01*
X198233765Y-68864658D01*
X198234716Y-68855001D01*
X198233765Y-68845344D01*
X198230948Y-68836058D01*
X198226374Y-68827500D01*
X198220218Y-68819999D01*
X198212716Y-68813842D01*
X198210935Y-68812652D01*
X198133350Y-68735067D01*
X198072392Y-68643837D01*
X198030405Y-68542472D01*
X198009000Y-68434859D01*
X198009000Y-68325141D01*
X198030405Y-68217528D01*
X198072392Y-68116163D01*
X198133350Y-68024933D01*
X198210935Y-67947348D01*
X198212716Y-67946158D01*
X198220217Y-67940002D01*
X198226373Y-67932502D01*
X198230948Y-67923944D01*
X198233765Y-67914658D01*
X198234716Y-67905001D01*
X198233765Y-67895344D01*
X198230948Y-67886058D01*
X198226374Y-67877500D01*
X198220218Y-67869999D01*
X198212716Y-67863842D01*
X198210935Y-67862652D01*
X198133350Y-67785067D01*
X198072392Y-67693837D01*
X198030405Y-67592472D01*
X198009000Y-67484859D01*
X198009000Y-67375141D01*
X198030405Y-67267528D01*
X198072392Y-67166163D01*
X198133350Y-67074933D01*
X198210933Y-66997350D01*
X198302163Y-66936392D01*
X198403528Y-66894405D01*
X198457334Y-66883703D01*
X198511140Y-66873000D01*
X198620860Y-66873000D01*
X198674666Y-66883703D01*
X198674666Y-66883703D01*
G37*
G36*
X194220800Y-68676100D02*
X193513200Y-68676100D01*
X193513200Y-66368300D01*
X194220800Y-66368300D01*
X194220800Y-68676100D01*
X194220800Y-68676100D01*
G37*
G36*
X192950800Y-68676100D02*
X192243200Y-68676100D01*
X192243200Y-66368300D01*
X192950800Y-66368300D01*
X192950800Y-68676100D01*
X192950800Y-68676100D01*
G37*
G36*
X191680800Y-68676100D02*
X190973200Y-68676100D01*
X190973200Y-66368300D01*
X191680800Y-66368300D01*
X191680800Y-68676100D01*
X191680800Y-68676100D01*
G37*
G36*
X190410800Y-68676100D02*
X189703200Y-68676100D01*
X189703200Y-66368300D01*
X190410800Y-66368300D01*
X190410800Y-68676100D01*
X190410800Y-68676100D01*
G37*
G36*
X163792240Y-63696520D02*
X162194240Y-63696520D01*
X162194240Y-61898520D01*
X163792240Y-61898520D01*
X163792240Y-63696520D01*
X163792240Y-63696520D01*
G37*
G36*
X194220800Y-63443700D02*
X193513200Y-63443700D01*
X193513200Y-61135900D01*
X194220800Y-61135900D01*
X194220800Y-63443700D01*
X194220800Y-63443700D01*
G37*
G36*
X192950800Y-63443700D02*
X192243200Y-63443700D01*
X192243200Y-61135900D01*
X192950800Y-61135900D01*
X192950800Y-63443700D01*
X192950800Y-63443700D01*
G37*
G36*
X190410800Y-63443700D02*
X189703200Y-63443700D01*
X189703200Y-61135900D01*
X190410800Y-61135900D01*
X190410800Y-63443700D01*
X190410800Y-63443700D01*
G37*
G36*
X191680800Y-63443700D02*
X190973200Y-63443700D01*
X190973200Y-61135900D01*
X191680800Y-61135900D01*
X191680800Y-63443700D01*
X191680800Y-63443700D01*
G37*
G36*
X198674666Y-59983703D02*
X198728472Y-59994405D01*
X198829837Y-60036392D01*
X198921067Y-60097350D01*
X198998650Y-60174933D01*
X199059608Y-60266163D01*
X199101595Y-60367528D01*
X199123000Y-60475141D01*
X199123000Y-60584859D01*
X199101595Y-60692472D01*
X199059608Y-60793837D01*
X198998650Y-60885067D01*
X198921065Y-60962652D01*
X198919284Y-60963842D01*
X198911783Y-60969998D01*
X198905627Y-60977498D01*
X198901052Y-60986056D01*
X198898235Y-60995342D01*
X198897284Y-61004999D01*
X198898235Y-61014656D01*
X198901052Y-61023942D01*
X198905626Y-61032500D01*
X198911782Y-61040001D01*
X198919284Y-61046158D01*
X198921065Y-61047348D01*
X198998650Y-61124933D01*
X199059608Y-61216163D01*
X199101595Y-61317528D01*
X199123000Y-61425141D01*
X199123000Y-61534859D01*
X199101595Y-61642472D01*
X199059608Y-61743837D01*
X198998650Y-61835067D01*
X198921065Y-61912652D01*
X198919284Y-61913842D01*
X198911783Y-61919998D01*
X198905627Y-61927498D01*
X198901052Y-61936056D01*
X198898235Y-61945342D01*
X198897284Y-61954999D01*
X198898235Y-61964656D01*
X198901052Y-61973942D01*
X198905626Y-61982500D01*
X198911782Y-61990001D01*
X198919284Y-61996158D01*
X198921065Y-61997348D01*
X198998650Y-62074933D01*
X199059608Y-62166163D01*
X199101595Y-62267528D01*
X199123000Y-62375141D01*
X199123000Y-62484859D01*
X199101595Y-62592472D01*
X199059608Y-62693837D01*
X198998650Y-62785067D01*
X198921067Y-62862650D01*
X198829837Y-62923608D01*
X198728472Y-62965595D01*
X198674665Y-62976298D01*
X198620860Y-62987000D01*
X198511140Y-62987000D01*
X198457335Y-62976298D01*
X198403528Y-62965595D01*
X198302163Y-62923608D01*
X198210933Y-62862650D01*
X198133350Y-62785067D01*
X198072392Y-62693837D01*
X198030405Y-62592472D01*
X198009000Y-62484859D01*
X198009000Y-62375141D01*
X198030405Y-62267528D01*
X198072392Y-62166163D01*
X198133350Y-62074933D01*
X198210935Y-61997348D01*
X198212716Y-61996158D01*
X198220217Y-61990002D01*
X198226373Y-61982502D01*
X198230948Y-61973944D01*
X198233765Y-61964658D01*
X198234716Y-61955001D01*
X198233765Y-61945344D01*
X198230948Y-61936058D01*
X198226374Y-61927500D01*
X198220218Y-61919999D01*
X198212716Y-61913842D01*
X198210935Y-61912652D01*
X198133350Y-61835067D01*
X198072392Y-61743837D01*
X198030405Y-61642472D01*
X198009000Y-61534859D01*
X198009000Y-61425141D01*
X198030405Y-61317528D01*
X198072392Y-61216163D01*
X198133350Y-61124933D01*
X198210935Y-61047348D01*
X198212716Y-61046158D01*
X198220217Y-61040002D01*
X198226373Y-61032502D01*
X198230948Y-61023944D01*
X198233765Y-61014658D01*
X198234716Y-61005001D01*
X198233765Y-60995344D01*
X198230948Y-60986058D01*
X198226374Y-60977500D01*
X198220218Y-60969999D01*
X198212716Y-60963842D01*
X198210935Y-60962652D01*
X198133350Y-60885067D01*
X198072392Y-60793837D01*
X198030405Y-60692472D01*
X198009000Y-60584859D01*
X198009000Y-60475141D01*
X198030405Y-60367528D01*
X198072392Y-60266163D01*
X198133350Y-60174933D01*
X198210933Y-60097350D01*
X198302163Y-60036392D01*
X198403528Y-59994405D01*
X198457334Y-59983703D01*
X198511140Y-59973000D01*
X198620860Y-59973000D01*
X198674666Y-59983703D01*
X198674666Y-59983703D01*
G37*
G36*
X167492240Y-61321520D02*
X166294240Y-61321520D01*
X166294240Y-60973520D01*
X167492240Y-60973520D01*
X167492240Y-61321520D01*
X167492240Y-61321520D01*
G37*
G36*
X169810673Y-60306504D02*
X169838248Y-60314870D01*
X169863662Y-60328454D01*
X169885942Y-60346738D01*
X169904226Y-60369018D01*
X169917810Y-60394432D01*
X169926176Y-60422007D01*
X169929240Y-60453124D01*
X169929240Y-60841756D01*
X169926176Y-60872873D01*
X169917810Y-60900448D01*
X169904226Y-60925862D01*
X169885942Y-60948142D01*
X169863662Y-60966426D01*
X169838248Y-60980010D01*
X169810673Y-60988376D01*
X169779556Y-60991440D01*
X169340924Y-60991440D01*
X169309807Y-60988376D01*
X169282232Y-60980010D01*
X169256818Y-60966426D01*
X169234538Y-60948142D01*
X169216254Y-60925862D01*
X169202670Y-60900448D01*
X169194304Y-60872873D01*
X169191240Y-60841756D01*
X169191240Y-60453124D01*
X169194304Y-60422007D01*
X169202670Y-60394432D01*
X169216254Y-60369018D01*
X169234538Y-60346738D01*
X169256818Y-60328454D01*
X169282232Y-60314870D01*
X169309807Y-60306504D01*
X169340924Y-60303440D01*
X169779556Y-60303440D01*
X169810673Y-60306504D01*
X169810673Y-60306504D01*
G37*
G36*
X167492240Y-60821520D02*
X166294240Y-60821520D01*
X166294240Y-60473520D01*
X167492240Y-60473520D01*
X167492240Y-60821520D01*
X167492240Y-60821520D01*
G37*
G36*
X176907433Y-60052504D02*
X176935008Y-60060870D01*
X176960422Y-60074454D01*
X176982702Y-60092738D01*
X177000986Y-60115018D01*
X177014570Y-60140432D01*
X177022936Y-60168007D01*
X177026000Y-60199124D01*
X177026000Y-60587756D01*
X177022936Y-60618873D01*
X177014570Y-60646448D01*
X177000986Y-60671862D01*
X176982702Y-60694142D01*
X176960422Y-60712426D01*
X176935008Y-60726010D01*
X176907433Y-60734376D01*
X176876316Y-60737440D01*
X176437684Y-60737440D01*
X176406567Y-60734376D01*
X176378992Y-60726010D01*
X176353578Y-60712426D01*
X176331298Y-60694142D01*
X176313014Y-60671862D01*
X176299430Y-60646448D01*
X176291064Y-60618873D01*
X176288000Y-60587756D01*
X176288000Y-60199124D01*
X176291064Y-60168007D01*
X176299430Y-60140432D01*
X176313014Y-60115018D01*
X176331298Y-60092738D01*
X176353578Y-60074454D01*
X176378992Y-60060870D01*
X176406567Y-60052504D01*
X176437684Y-60049440D01*
X176876316Y-60049440D01*
X176907433Y-60052504D01*
X176907433Y-60052504D01*
G37*
G36*
X178065673Y-60052504D02*
X178093248Y-60060870D01*
X178118662Y-60074454D01*
X178140942Y-60092738D01*
X178159226Y-60115018D01*
X178172810Y-60140432D01*
X178181176Y-60168007D01*
X178184240Y-60199124D01*
X178184240Y-60587756D01*
X178181176Y-60618873D01*
X178172810Y-60646448D01*
X178159226Y-60671862D01*
X178140942Y-60694142D01*
X178118662Y-60712426D01*
X178093248Y-60726010D01*
X178065673Y-60734376D01*
X178034556Y-60737440D01*
X177595924Y-60737440D01*
X177564807Y-60734376D01*
X177537232Y-60726010D01*
X177511818Y-60712426D01*
X177489538Y-60694142D01*
X177471254Y-60671862D01*
X177457670Y-60646448D01*
X177449304Y-60618873D01*
X177446240Y-60587756D01*
X177446240Y-60199124D01*
X177449304Y-60168007D01*
X177457670Y-60140432D01*
X177471254Y-60115018D01*
X177489538Y-60092738D01*
X177511818Y-60074454D01*
X177537232Y-60060870D01*
X177564807Y-60052504D01*
X177595924Y-60049440D01*
X178034556Y-60049440D01*
X178065673Y-60052504D01*
X178065673Y-60052504D01*
G37*
G36*
X168677833Y-59859464D02*
X168705408Y-59867830D01*
X168730822Y-59881414D01*
X168753102Y-59899698D01*
X168771386Y-59921978D01*
X168784970Y-59947392D01*
X168793336Y-59974967D01*
X168796400Y-60006084D01*
X168796400Y-60394716D01*
X168793336Y-60425833D01*
X168784970Y-60453408D01*
X168771386Y-60478822D01*
X168753102Y-60501102D01*
X168730822Y-60519386D01*
X168705408Y-60532970D01*
X168677833Y-60541336D01*
X168646716Y-60544400D01*
X168208084Y-60544400D01*
X168176967Y-60541336D01*
X168149392Y-60532970D01*
X168123978Y-60519386D01*
X168101698Y-60501102D01*
X168083414Y-60478822D01*
X168069830Y-60453408D01*
X168061464Y-60425833D01*
X168058400Y-60394716D01*
X168058400Y-60006084D01*
X168061464Y-59974967D01*
X168069830Y-59947392D01*
X168083414Y-59921978D01*
X168101698Y-59899698D01*
X168123978Y-59881414D01*
X168149392Y-59867830D01*
X168176967Y-59859464D01*
X168208084Y-59856400D01*
X168646716Y-59856400D01*
X168677833Y-59859464D01*
X168677833Y-59859464D01*
G37*
G36*
X167492240Y-60321520D02*
X166294240Y-60321520D01*
X166294240Y-59973520D01*
X167492240Y-59973520D01*
X167492240Y-60321520D01*
X167492240Y-60321520D01*
G37*
G36*
X193681000Y-60309000D02*
X192783000Y-60309000D01*
X192783000Y-59311000D01*
X193681000Y-59311000D01*
X193681000Y-60309000D01*
X193681000Y-60309000D01*
G37*
G36*
X171178322Y-59197874D02*
X171219266Y-59210294D01*
X171257000Y-59230463D01*
X171290074Y-59257606D01*
X171317217Y-59290680D01*
X171337386Y-59328414D01*
X171349806Y-59369358D01*
X171354240Y-59414376D01*
X171354240Y-59945504D01*
X171349806Y-59990522D01*
X171337386Y-60031466D01*
X171317217Y-60069200D01*
X171290074Y-60102274D01*
X171257000Y-60129417D01*
X171219266Y-60149586D01*
X171178322Y-60162006D01*
X171133304Y-60166440D01*
X170527176Y-60166440D01*
X170482158Y-60162006D01*
X170441214Y-60149586D01*
X170403480Y-60129417D01*
X170370406Y-60102274D01*
X170343263Y-60069200D01*
X170323094Y-60031466D01*
X170310674Y-59990522D01*
X170306240Y-59945504D01*
X170306240Y-59414376D01*
X170310674Y-59369358D01*
X170323094Y-59328414D01*
X170343263Y-59290680D01*
X170370406Y-59257606D01*
X170403480Y-59230463D01*
X170441214Y-59210294D01*
X170482158Y-59197874D01*
X170527176Y-59193440D01*
X171133304Y-59193440D01*
X171178322Y-59197874D01*
X171178322Y-59197874D01*
G37*
G36*
X185856153Y-58973520D02*
X185910338Y-58984298D01*
X186010247Y-59025682D01*
X186010249Y-59025683D01*
X186100167Y-59085764D01*
X186176636Y-59162233D01*
X186231688Y-59244624D01*
X186236718Y-59252153D01*
X186275812Y-59346533D01*
X186278102Y-59352063D01*
X186299200Y-59458128D01*
X186299200Y-59566272D01*
X186298193Y-59571336D01*
X186278102Y-59672338D01*
X186240078Y-59764135D01*
X186236717Y-59772249D01*
X186176636Y-59862167D01*
X186100167Y-59938636D01*
X186010249Y-59998717D01*
X186010248Y-59998718D01*
X186010247Y-59998718D01*
X185910338Y-60040102D01*
X185863393Y-60049440D01*
X185804272Y-60061200D01*
X185696128Y-60061200D01*
X185637007Y-60049440D01*
X185590062Y-60040102D01*
X185490153Y-59998718D01*
X185490152Y-59998718D01*
X185490151Y-59998717D01*
X185400233Y-59938636D01*
X185323764Y-59862167D01*
X185263683Y-59772249D01*
X185260322Y-59764135D01*
X185222298Y-59672338D01*
X185202207Y-59571336D01*
X185201200Y-59566272D01*
X185201200Y-59458128D01*
X185222298Y-59352063D01*
X185224589Y-59346533D01*
X185263682Y-59252153D01*
X185268713Y-59244624D01*
X185323764Y-59162233D01*
X185400233Y-59085764D01*
X185490151Y-59025683D01*
X185490153Y-59025682D01*
X185590062Y-58984298D01*
X185644247Y-58973520D01*
X185696128Y-58963200D01*
X185804272Y-58963200D01*
X185856153Y-58973520D01*
X185856153Y-58973520D01*
G37*
G36*
X169810673Y-59336504D02*
X169838248Y-59344870D01*
X169863662Y-59358454D01*
X169885942Y-59376738D01*
X169904226Y-59399018D01*
X169917810Y-59424432D01*
X169926176Y-59452007D01*
X169929240Y-59483124D01*
X169929240Y-59871756D01*
X169926176Y-59902873D01*
X169917810Y-59930448D01*
X169904226Y-59955862D01*
X169885942Y-59978142D01*
X169863662Y-59996426D01*
X169838248Y-60010010D01*
X169810673Y-60018376D01*
X169779556Y-60021440D01*
X169340924Y-60021440D01*
X169309807Y-60018376D01*
X169282232Y-60010010D01*
X169256818Y-59996426D01*
X169234538Y-59978142D01*
X169216254Y-59955862D01*
X169202670Y-59930448D01*
X169194304Y-59902873D01*
X169191240Y-59871756D01*
X169191240Y-59483124D01*
X169194304Y-59452007D01*
X169202670Y-59424432D01*
X169216254Y-59399018D01*
X169234538Y-59376738D01*
X169256818Y-59358454D01*
X169282232Y-59344870D01*
X169309807Y-59336504D01*
X169340924Y-59333440D01*
X169779556Y-59333440D01*
X169810673Y-59336504D01*
X169810673Y-59336504D01*
G37*
G36*
X190128433Y-59284064D02*
X190156008Y-59292430D01*
X190181422Y-59306014D01*
X190203702Y-59324298D01*
X190221986Y-59346578D01*
X190235570Y-59371992D01*
X190243936Y-59399567D01*
X190247000Y-59430684D01*
X190247000Y-59869316D01*
X190243936Y-59900433D01*
X190235570Y-59928008D01*
X190221986Y-59953422D01*
X190203702Y-59975702D01*
X190181422Y-59993986D01*
X190156008Y-60007570D01*
X190128433Y-60015936D01*
X190097316Y-60019000D01*
X189708684Y-60019000D01*
X189677567Y-60015936D01*
X189649992Y-60007570D01*
X189624578Y-59993986D01*
X189602298Y-59975702D01*
X189584014Y-59953422D01*
X189570430Y-59928008D01*
X189562064Y-59900433D01*
X189559000Y-59869316D01*
X189559000Y-59430684D01*
X189562064Y-59399567D01*
X189570430Y-59371992D01*
X189584014Y-59346578D01*
X189602298Y-59324298D01*
X189624578Y-59306014D01*
X189649992Y-59292430D01*
X189677567Y-59284064D01*
X189708684Y-59281000D01*
X190097316Y-59281000D01*
X190128433Y-59284064D01*
X190128433Y-59284064D01*
G37*
G36*
X191098433Y-59284064D02*
X191126008Y-59292430D01*
X191151422Y-59306014D01*
X191173702Y-59324298D01*
X191191986Y-59346578D01*
X191205570Y-59371992D01*
X191213936Y-59399567D01*
X191217000Y-59430684D01*
X191217000Y-59869316D01*
X191213936Y-59900433D01*
X191205570Y-59928008D01*
X191191986Y-59953422D01*
X191173702Y-59975702D01*
X191151422Y-59993986D01*
X191126008Y-60007570D01*
X191098433Y-60015936D01*
X191067316Y-60019000D01*
X190678684Y-60019000D01*
X190647567Y-60015936D01*
X190619992Y-60007570D01*
X190594578Y-59993986D01*
X190572298Y-59975702D01*
X190554014Y-59953422D01*
X190540430Y-59928008D01*
X190532064Y-59900433D01*
X190529000Y-59869316D01*
X190529000Y-59430684D01*
X190532064Y-59399567D01*
X190540430Y-59371992D01*
X190554014Y-59346578D01*
X190572298Y-59324298D01*
X190594578Y-59306014D01*
X190619992Y-59292430D01*
X190647567Y-59284064D01*
X190678684Y-59281000D01*
X191067316Y-59281000D01*
X191098433Y-59284064D01*
X191098433Y-59284064D01*
G37*
G36*
X175668173Y-59098004D02*
X175695748Y-59106370D01*
X175721162Y-59119954D01*
X175743442Y-59138238D01*
X175761726Y-59160518D01*
X175775310Y-59185932D01*
X175783676Y-59213507D01*
X175786740Y-59244624D01*
X175786740Y-59683256D01*
X175783676Y-59714373D01*
X175775310Y-59741948D01*
X175761726Y-59767362D01*
X175743442Y-59789642D01*
X175721162Y-59807926D01*
X175695748Y-59821510D01*
X175668173Y-59829876D01*
X175637056Y-59832940D01*
X175248424Y-59832940D01*
X175217307Y-59829876D01*
X175189732Y-59821510D01*
X175164318Y-59807926D01*
X175142038Y-59789642D01*
X175123754Y-59767362D01*
X175110170Y-59741948D01*
X175101804Y-59714373D01*
X175098740Y-59683256D01*
X175098740Y-59244624D01*
X175101804Y-59213507D01*
X175110170Y-59185932D01*
X175123754Y-59160518D01*
X175142038Y-59138238D01*
X175164318Y-59119954D01*
X175189732Y-59106370D01*
X175217307Y-59098004D01*
X175248424Y-59094940D01*
X175637056Y-59094940D01*
X175668173Y-59098004D01*
X175668173Y-59098004D01*
G37*
G36*
X180303673Y-59098004D02*
X180331248Y-59106370D01*
X180356662Y-59119954D01*
X180378942Y-59138238D01*
X180397226Y-59160518D01*
X180410810Y-59185932D01*
X180419176Y-59213507D01*
X180422240Y-59244624D01*
X180422240Y-59683256D01*
X180419176Y-59714373D01*
X180410810Y-59741948D01*
X180397226Y-59767362D01*
X180378942Y-59789642D01*
X180356662Y-59807926D01*
X180331248Y-59821510D01*
X180303673Y-59829876D01*
X180272556Y-59832940D01*
X179883924Y-59832940D01*
X179852807Y-59829876D01*
X179825232Y-59821510D01*
X179799818Y-59807926D01*
X179777538Y-59789642D01*
X179759254Y-59767362D01*
X179745670Y-59741948D01*
X179737304Y-59714373D01*
X179734240Y-59683256D01*
X179734240Y-59244624D01*
X179737304Y-59213507D01*
X179745670Y-59185932D01*
X179759254Y-59160518D01*
X179777538Y-59138238D01*
X179799818Y-59119954D01*
X179825232Y-59106370D01*
X179852807Y-59098004D01*
X179883924Y-59094940D01*
X180272556Y-59094940D01*
X180303673Y-59098004D01*
X180303673Y-59098004D01*
G37*
G36*
X172412173Y-59098004D02*
X172439748Y-59106370D01*
X172465162Y-59119954D01*
X172487442Y-59138238D01*
X172505726Y-59160518D01*
X172519310Y-59185932D01*
X172527676Y-59213507D01*
X172530740Y-59244624D01*
X172530740Y-59683256D01*
X172527676Y-59714373D01*
X172519310Y-59741948D01*
X172505726Y-59767362D01*
X172487442Y-59789642D01*
X172465162Y-59807926D01*
X172439748Y-59821510D01*
X172412173Y-59829876D01*
X172381056Y-59832940D01*
X171992424Y-59832940D01*
X171961307Y-59829876D01*
X171933732Y-59821510D01*
X171908318Y-59807926D01*
X171886038Y-59789642D01*
X171867754Y-59767362D01*
X171854170Y-59741948D01*
X171845804Y-59714373D01*
X171842740Y-59683256D01*
X171842740Y-59244624D01*
X171845804Y-59213507D01*
X171854170Y-59185932D01*
X171867754Y-59160518D01*
X171886038Y-59138238D01*
X171908318Y-59119954D01*
X171933732Y-59106370D01*
X171961307Y-59098004D01*
X171992424Y-59094940D01*
X172381056Y-59094940D01*
X172412173Y-59098004D01*
X172412173Y-59098004D01*
G37*
G36*
X179333673Y-59098004D02*
X179361248Y-59106370D01*
X179386662Y-59119954D01*
X179408942Y-59138238D01*
X179427226Y-59160518D01*
X179440810Y-59185932D01*
X179449176Y-59213507D01*
X179452240Y-59244624D01*
X179452240Y-59683256D01*
X179449176Y-59714373D01*
X179440810Y-59741948D01*
X179427226Y-59767362D01*
X179408942Y-59789642D01*
X179386662Y-59807926D01*
X179361248Y-59821510D01*
X179333673Y-59829876D01*
X179302556Y-59832940D01*
X178913924Y-59832940D01*
X178882807Y-59829876D01*
X178855232Y-59821510D01*
X178829818Y-59807926D01*
X178807538Y-59789642D01*
X178789254Y-59767362D01*
X178775670Y-59741948D01*
X178767304Y-59714373D01*
X178764240Y-59683256D01*
X178764240Y-59244624D01*
X178767304Y-59213507D01*
X178775670Y-59185932D01*
X178789254Y-59160518D01*
X178807538Y-59138238D01*
X178829818Y-59119954D01*
X178855232Y-59106370D01*
X178882807Y-59098004D01*
X178913924Y-59094940D01*
X179302556Y-59094940D01*
X179333673Y-59098004D01*
X179333673Y-59098004D01*
G37*
G36*
X173382173Y-59098004D02*
X173409748Y-59106370D01*
X173435162Y-59119954D01*
X173457442Y-59138238D01*
X173475726Y-59160518D01*
X173489310Y-59185932D01*
X173497676Y-59213507D01*
X173500740Y-59244624D01*
X173500740Y-59683256D01*
X173497676Y-59714373D01*
X173489310Y-59741948D01*
X173475726Y-59767362D01*
X173457442Y-59789642D01*
X173435162Y-59807926D01*
X173409748Y-59821510D01*
X173382173Y-59829876D01*
X173351056Y-59832940D01*
X172962424Y-59832940D01*
X172931307Y-59829876D01*
X172903732Y-59821510D01*
X172878318Y-59807926D01*
X172856038Y-59789642D01*
X172837754Y-59767362D01*
X172824170Y-59741948D01*
X172815804Y-59714373D01*
X172812740Y-59683256D01*
X172812740Y-59244624D01*
X172815804Y-59213507D01*
X172824170Y-59185932D01*
X172837754Y-59160518D01*
X172856038Y-59138238D01*
X172878318Y-59119954D01*
X172903732Y-59106370D01*
X172931307Y-59098004D01*
X172962424Y-59094940D01*
X173351056Y-59094940D01*
X173382173Y-59098004D01*
X173382173Y-59098004D01*
G37*
G36*
X174698173Y-59098004D02*
X174725748Y-59106370D01*
X174751162Y-59119954D01*
X174773442Y-59138238D01*
X174791726Y-59160518D01*
X174805310Y-59185932D01*
X174813676Y-59213507D01*
X174816740Y-59244624D01*
X174816740Y-59683256D01*
X174813676Y-59714373D01*
X174805310Y-59741948D01*
X174791726Y-59767362D01*
X174773442Y-59789642D01*
X174751162Y-59807926D01*
X174725748Y-59821510D01*
X174698173Y-59829876D01*
X174667056Y-59832940D01*
X174278424Y-59832940D01*
X174247307Y-59829876D01*
X174219732Y-59821510D01*
X174194318Y-59807926D01*
X174172038Y-59789642D01*
X174153754Y-59767362D01*
X174140170Y-59741948D01*
X174131804Y-59714373D01*
X174128740Y-59683256D01*
X174128740Y-59244624D01*
X174131804Y-59213507D01*
X174140170Y-59185932D01*
X174153754Y-59160518D01*
X174172038Y-59138238D01*
X174194318Y-59119954D01*
X174219732Y-59106370D01*
X174247307Y-59098004D01*
X174278424Y-59094940D01*
X174667056Y-59094940D01*
X174698173Y-59098004D01*
X174698173Y-59098004D01*
G37*
G36*
X167492240Y-59821520D02*
X166294240Y-59821520D01*
X166294240Y-59473520D01*
X167492240Y-59473520D01*
X167492240Y-59821520D01*
X167492240Y-59821520D01*
G37*
G36*
X176907433Y-59082504D02*
X176935008Y-59090870D01*
X176960422Y-59104454D01*
X176982702Y-59122738D01*
X177000986Y-59145018D01*
X177014570Y-59170432D01*
X177022936Y-59198007D01*
X177026000Y-59229124D01*
X177026000Y-59617756D01*
X177022936Y-59648873D01*
X177014570Y-59676448D01*
X177000986Y-59701862D01*
X176982702Y-59724142D01*
X176960422Y-59742426D01*
X176935008Y-59756010D01*
X176907433Y-59764376D01*
X176876316Y-59767440D01*
X176437684Y-59767440D01*
X176406567Y-59764376D01*
X176378992Y-59756010D01*
X176353578Y-59742426D01*
X176331298Y-59724142D01*
X176313014Y-59701862D01*
X176299430Y-59676448D01*
X176291064Y-59648873D01*
X176288000Y-59617756D01*
X176288000Y-59229124D01*
X176291064Y-59198007D01*
X176299430Y-59170432D01*
X176313014Y-59145018D01*
X176331298Y-59122738D01*
X176353578Y-59104454D01*
X176378992Y-59090870D01*
X176406567Y-59082504D01*
X176437684Y-59079440D01*
X176876316Y-59079440D01*
X176907433Y-59082504D01*
X176907433Y-59082504D01*
G37*
G36*
X178065673Y-59082504D02*
X178093248Y-59090870D01*
X178118662Y-59104454D01*
X178140942Y-59122738D01*
X178159226Y-59145018D01*
X178172810Y-59170432D01*
X178181176Y-59198007D01*
X178184240Y-59229124D01*
X178184240Y-59617756D01*
X178181176Y-59648873D01*
X178172810Y-59676448D01*
X178159226Y-59701862D01*
X178140942Y-59724142D01*
X178118662Y-59742426D01*
X178093248Y-59756010D01*
X178065673Y-59764376D01*
X178034556Y-59767440D01*
X177595924Y-59767440D01*
X177564807Y-59764376D01*
X177537232Y-59756010D01*
X177511818Y-59742426D01*
X177489538Y-59724142D01*
X177471254Y-59701862D01*
X177457670Y-59676448D01*
X177449304Y-59648873D01*
X177446240Y-59617756D01*
X177446240Y-59229124D01*
X177449304Y-59198007D01*
X177457670Y-59170432D01*
X177471254Y-59145018D01*
X177489538Y-59122738D01*
X177511818Y-59104454D01*
X177537232Y-59090870D01*
X177564807Y-59082504D01*
X177595924Y-59079440D01*
X178034556Y-59079440D01*
X178065673Y-59082504D01*
X178065673Y-59082504D01*
G37*
G36*
X168677833Y-58889464D02*
X168705408Y-58897830D01*
X168730822Y-58911414D01*
X168753102Y-58929698D01*
X168771386Y-58951978D01*
X168784970Y-58977392D01*
X168793336Y-59004967D01*
X168796400Y-59036084D01*
X168796400Y-59424716D01*
X168793336Y-59455833D01*
X168784970Y-59483408D01*
X168771386Y-59508822D01*
X168753102Y-59531102D01*
X168730822Y-59549386D01*
X168705408Y-59562970D01*
X168677833Y-59571336D01*
X168646716Y-59574400D01*
X168208084Y-59574400D01*
X168176967Y-59571336D01*
X168149392Y-59562970D01*
X168123978Y-59549386D01*
X168101698Y-59531102D01*
X168083414Y-59508822D01*
X168069830Y-59483408D01*
X168061464Y-59455833D01*
X168058400Y-59424716D01*
X168058400Y-59036084D01*
X168061464Y-59004967D01*
X168069830Y-58977392D01*
X168083414Y-58951978D01*
X168101698Y-58929698D01*
X168123978Y-58911414D01*
X168149392Y-58897830D01*
X168176967Y-58889464D01*
X168208084Y-58886400D01*
X168646716Y-58886400D01*
X168677833Y-58889464D01*
X168677833Y-58889464D01*
G37*
G36*
X167492240Y-59321520D02*
X166294240Y-59321520D01*
X166294240Y-58973520D01*
X167492240Y-58973520D01*
X167492240Y-59321520D01*
X167492240Y-59321520D01*
G37*
G36*
X191098433Y-58228064D02*
X191126008Y-58236430D01*
X191151422Y-58250014D01*
X191173702Y-58268298D01*
X191191986Y-58290578D01*
X191205570Y-58315992D01*
X191213936Y-58343567D01*
X191217000Y-58374684D01*
X191217000Y-58813316D01*
X191213936Y-58844433D01*
X191205570Y-58872008D01*
X191191986Y-58897422D01*
X191173702Y-58919702D01*
X191151422Y-58937986D01*
X191126008Y-58951570D01*
X191098433Y-58959936D01*
X191067316Y-58963000D01*
X190678684Y-58963000D01*
X190647567Y-58959936D01*
X190619992Y-58951570D01*
X190594578Y-58937986D01*
X190572298Y-58919702D01*
X190554014Y-58897422D01*
X190540430Y-58872008D01*
X190532064Y-58844433D01*
X190529000Y-58813316D01*
X190529000Y-58374684D01*
X190532064Y-58343567D01*
X190540430Y-58315992D01*
X190554014Y-58290578D01*
X190572298Y-58268298D01*
X190594578Y-58250014D01*
X190619992Y-58236430D01*
X190647567Y-58228064D01*
X190678684Y-58225000D01*
X191067316Y-58225000D01*
X191098433Y-58228064D01*
X191098433Y-58228064D01*
G37*
G36*
X190128433Y-58228064D02*
X190156008Y-58236430D01*
X190181422Y-58250014D01*
X190203702Y-58268298D01*
X190221986Y-58290578D01*
X190235570Y-58315992D01*
X190243936Y-58343567D01*
X190247000Y-58374684D01*
X190247000Y-58813316D01*
X190243936Y-58844433D01*
X190235570Y-58872008D01*
X190221986Y-58897422D01*
X190203702Y-58919702D01*
X190181422Y-58937986D01*
X190156008Y-58951570D01*
X190128433Y-58959936D01*
X190097316Y-58963000D01*
X189708684Y-58963000D01*
X189677567Y-58959936D01*
X189649992Y-58951570D01*
X189624578Y-58937986D01*
X189602298Y-58919702D01*
X189584014Y-58897422D01*
X189570430Y-58872008D01*
X189562064Y-58844433D01*
X189559000Y-58813316D01*
X189559000Y-58374684D01*
X189562064Y-58343567D01*
X189570430Y-58315992D01*
X189584014Y-58290578D01*
X189602298Y-58268298D01*
X189624578Y-58250014D01*
X189649992Y-58236430D01*
X189677567Y-58228064D01*
X189708684Y-58225000D01*
X190097316Y-58225000D01*
X190128433Y-58228064D01*
X190128433Y-58228064D01*
G37*
G36*
X167492240Y-58821520D02*
X166294240Y-58821520D01*
X166294240Y-58473520D01*
X167492240Y-58473520D01*
X167492240Y-58821520D01*
X167492240Y-58821520D01*
G37*
G36*
X171178322Y-57622874D02*
X171219266Y-57635294D01*
X171257000Y-57655463D01*
X171290074Y-57682606D01*
X171317217Y-57715680D01*
X171337386Y-57753414D01*
X171349806Y-57794358D01*
X171354240Y-57839376D01*
X171354240Y-58370504D01*
X171349806Y-58415522D01*
X171337386Y-58456466D01*
X171317217Y-58494200D01*
X171290074Y-58527274D01*
X171257000Y-58554417D01*
X171219266Y-58574586D01*
X171178322Y-58587006D01*
X171133304Y-58591440D01*
X170527176Y-58591440D01*
X170482158Y-58587006D01*
X170441214Y-58574586D01*
X170403480Y-58554417D01*
X170370406Y-58527274D01*
X170343263Y-58494200D01*
X170323094Y-58456466D01*
X170310674Y-58415522D01*
X170306240Y-58370504D01*
X170306240Y-57839376D01*
X170310674Y-57794358D01*
X170323094Y-57753414D01*
X170343263Y-57715680D01*
X170370406Y-57682606D01*
X170403480Y-57655463D01*
X170441214Y-57635294D01*
X170482158Y-57622874D01*
X170527176Y-57618440D01*
X171133304Y-57618440D01*
X171178322Y-57622874D01*
X171178322Y-57622874D01*
G37*
G36*
X172412173Y-57828004D02*
X172439748Y-57836370D01*
X172465162Y-57849954D01*
X172487442Y-57868238D01*
X172505726Y-57890518D01*
X172519310Y-57915932D01*
X172527676Y-57943507D01*
X172530740Y-57974624D01*
X172530740Y-58413256D01*
X172527676Y-58444373D01*
X172519310Y-58471948D01*
X172505726Y-58497362D01*
X172487442Y-58519642D01*
X172465162Y-58537926D01*
X172439748Y-58551510D01*
X172412173Y-58559876D01*
X172381056Y-58562940D01*
X171992424Y-58562940D01*
X171961307Y-58559876D01*
X171933732Y-58551510D01*
X171908318Y-58537926D01*
X171886038Y-58519642D01*
X171867754Y-58497362D01*
X171854170Y-58471948D01*
X171845804Y-58444373D01*
X171842740Y-58413256D01*
X171842740Y-57974624D01*
X171845804Y-57943507D01*
X171854170Y-57915932D01*
X171867754Y-57890518D01*
X171886038Y-57868238D01*
X171908318Y-57849954D01*
X171933732Y-57836370D01*
X171961307Y-57828004D01*
X171992424Y-57824940D01*
X172381056Y-57824940D01*
X172412173Y-57828004D01*
X172412173Y-57828004D01*
G37*
G36*
X173382173Y-57828004D02*
X173409748Y-57836370D01*
X173435162Y-57849954D01*
X173457442Y-57868238D01*
X173475726Y-57890518D01*
X173489310Y-57915932D01*
X173497676Y-57943507D01*
X173500740Y-57974624D01*
X173500740Y-58413256D01*
X173497676Y-58444373D01*
X173489310Y-58471948D01*
X173475726Y-58497362D01*
X173457442Y-58519642D01*
X173435162Y-58537926D01*
X173409748Y-58551510D01*
X173382173Y-58559876D01*
X173351056Y-58562940D01*
X172962424Y-58562940D01*
X172931307Y-58559876D01*
X172903732Y-58551510D01*
X172878318Y-58537926D01*
X172856038Y-58519642D01*
X172837754Y-58497362D01*
X172824170Y-58471948D01*
X172815804Y-58444373D01*
X172812740Y-58413256D01*
X172812740Y-57974624D01*
X172815804Y-57943507D01*
X172824170Y-57915932D01*
X172837754Y-57890518D01*
X172856038Y-57868238D01*
X172878318Y-57849954D01*
X172903732Y-57836370D01*
X172931307Y-57828004D01*
X172962424Y-57824940D01*
X173351056Y-57824940D01*
X173382173Y-57828004D01*
X173382173Y-57828004D01*
G37*
G36*
X167492240Y-58321520D02*
X166294240Y-58321520D01*
X166294240Y-57973520D01*
X167492240Y-57973520D01*
X167492240Y-58321520D01*
X167492240Y-58321520D01*
G37*
G36*
X192731000Y-58309000D02*
X191833000Y-58309000D01*
X191833000Y-57311000D01*
X192731000Y-57311000D01*
X192731000Y-58309000D01*
X192731000Y-58309000D01*
G37*
G36*
X194631000Y-58309000D02*
X193733000Y-58309000D01*
X193733000Y-57311000D01*
X194631000Y-57311000D01*
X194631000Y-58309000D01*
X194631000Y-58309000D01*
G37*
G36*
X175403580Y-54580284D02*
X175404531Y-54589941D01*
X175407348Y-54599227D01*
X175411922Y-54607785D01*
X175418078Y-54615286D01*
X175425579Y-54621442D01*
X175434137Y-54626016D01*
X175443423Y-54628833D01*
X175453080Y-54629784D01*
X175456080Y-54629784D01*
X175465737Y-54628833D01*
X175475023Y-54626016D01*
X175483581Y-54621442D01*
X175491082Y-54615286D01*
X175497238Y-54607785D01*
X175501812Y-54599227D01*
X175504629Y-54589941D01*
X175505580Y-54580284D01*
X175505580Y-53554784D01*
X175903580Y-53554784D01*
X175903580Y-54580284D01*
X175904531Y-54589941D01*
X175907348Y-54599227D01*
X175911922Y-54607785D01*
X175918078Y-54615286D01*
X175925579Y-54621442D01*
X175934137Y-54626016D01*
X175943423Y-54628833D01*
X175953080Y-54629784D01*
X175956080Y-54629784D01*
X175965737Y-54628833D01*
X175975023Y-54626016D01*
X175983581Y-54621442D01*
X175991082Y-54615286D01*
X175997238Y-54607785D01*
X176001812Y-54599227D01*
X176004629Y-54589941D01*
X176005580Y-54580284D01*
X176005580Y-53554784D01*
X176403580Y-53554784D01*
X176403580Y-54580284D01*
X176404531Y-54589941D01*
X176407348Y-54599227D01*
X176411922Y-54607785D01*
X176418078Y-54615286D01*
X176425579Y-54621442D01*
X176434137Y-54626016D01*
X176443423Y-54628833D01*
X176453080Y-54629784D01*
X176456080Y-54629784D01*
X176465737Y-54628833D01*
X176475023Y-54626016D01*
X176483581Y-54621442D01*
X176491082Y-54615286D01*
X176497238Y-54607785D01*
X176501812Y-54599227D01*
X176504629Y-54589941D01*
X176505580Y-54580284D01*
X176505580Y-53554784D01*
X176903580Y-53554784D01*
X176903580Y-54580284D01*
X176904531Y-54589941D01*
X176907348Y-54599227D01*
X176911922Y-54607785D01*
X176918078Y-54615286D01*
X176925579Y-54621442D01*
X176934137Y-54626016D01*
X176943423Y-54628833D01*
X176953080Y-54629784D01*
X176956080Y-54629784D01*
X176965737Y-54628833D01*
X176975023Y-54626016D01*
X176983581Y-54621442D01*
X176991082Y-54615286D01*
X176997238Y-54607785D01*
X177001812Y-54599227D01*
X177004629Y-54589941D01*
X177005580Y-54580284D01*
X177005580Y-53554784D01*
X177403580Y-53554784D01*
X177403580Y-54505284D01*
X177404531Y-54514941D01*
X177407348Y-54524227D01*
X177411922Y-54532785D01*
X177418078Y-54540286D01*
X177425579Y-54546442D01*
X177434137Y-54551016D01*
X177443423Y-54553833D01*
X177453080Y-54554784D01*
X178403580Y-54554784D01*
X178403580Y-54952784D01*
X177378080Y-54952784D01*
X177368423Y-54953735D01*
X177359137Y-54956552D01*
X177350579Y-54961126D01*
X177343078Y-54967282D01*
X177336922Y-54974783D01*
X177332348Y-54983341D01*
X177329531Y-54992627D01*
X177328580Y-55002284D01*
X177328580Y-55005284D01*
X177329531Y-55014941D01*
X177332348Y-55024227D01*
X177336922Y-55032785D01*
X177343078Y-55040286D01*
X177350579Y-55046442D01*
X177359137Y-55051016D01*
X177368423Y-55053833D01*
X177378080Y-55054784D01*
X178403580Y-55054784D01*
X178403580Y-55452784D01*
X177378080Y-55452784D01*
X177368423Y-55453735D01*
X177359137Y-55456552D01*
X177350579Y-55461126D01*
X177343078Y-55467282D01*
X177336922Y-55474783D01*
X177332348Y-55483341D01*
X177329531Y-55492627D01*
X177328580Y-55502284D01*
X177328580Y-55505284D01*
X177329531Y-55514941D01*
X177332348Y-55524227D01*
X177336922Y-55532785D01*
X177343078Y-55540286D01*
X177350579Y-55546442D01*
X177359137Y-55551016D01*
X177368423Y-55553833D01*
X177378080Y-55554784D01*
X178403580Y-55554784D01*
X178403580Y-55952784D01*
X177378080Y-55952784D01*
X177368423Y-55953735D01*
X177359137Y-55956552D01*
X177350579Y-55961126D01*
X177343078Y-55967282D01*
X177336922Y-55974783D01*
X177332348Y-55983341D01*
X177329531Y-55992627D01*
X177328580Y-56002284D01*
X177328580Y-56005284D01*
X177329531Y-56014941D01*
X177332348Y-56024227D01*
X177336922Y-56032785D01*
X177343078Y-56040286D01*
X177350579Y-56046442D01*
X177359137Y-56051016D01*
X177368423Y-56053833D01*
X177378080Y-56054784D01*
X178403580Y-56054784D01*
X178403580Y-56452784D01*
X177378080Y-56452784D01*
X177368423Y-56453735D01*
X177359137Y-56456552D01*
X177350579Y-56461126D01*
X177343078Y-56467282D01*
X177336922Y-56474783D01*
X177332348Y-56483341D01*
X177329531Y-56492627D01*
X177328580Y-56502284D01*
X177328580Y-56505284D01*
X177329531Y-56514941D01*
X177332348Y-56524227D01*
X177336922Y-56532785D01*
X177343078Y-56540286D01*
X177350579Y-56546442D01*
X177359137Y-56551016D01*
X177368423Y-56553833D01*
X177378080Y-56554784D01*
X178403580Y-56554784D01*
X178403580Y-56952784D01*
X177453080Y-56952784D01*
X177443423Y-56953735D01*
X177434137Y-56956552D01*
X177425579Y-56961126D01*
X177418078Y-56967282D01*
X177411922Y-56974783D01*
X177407348Y-56983341D01*
X177404531Y-56992627D01*
X177403580Y-57002284D01*
X177403580Y-57952784D01*
X177005580Y-57952784D01*
X177005580Y-56927284D01*
X177004629Y-56917627D01*
X177001812Y-56908341D01*
X176997238Y-56899783D01*
X176991082Y-56892282D01*
X176983581Y-56886126D01*
X176975023Y-56881552D01*
X176965737Y-56878735D01*
X176956080Y-56877784D01*
X176953080Y-56877784D01*
X176943423Y-56878735D01*
X176934137Y-56881552D01*
X176925579Y-56886126D01*
X176918078Y-56892282D01*
X176911922Y-56899783D01*
X176907348Y-56908341D01*
X176904531Y-56917627D01*
X176903580Y-56927284D01*
X176903580Y-57952784D01*
X176505580Y-57952784D01*
X176505580Y-56927284D01*
X176504629Y-56917627D01*
X176501812Y-56908341D01*
X176497238Y-56899783D01*
X176491082Y-56892282D01*
X176483581Y-56886126D01*
X176475023Y-56881552D01*
X176465737Y-56878735D01*
X176456080Y-56877784D01*
X176453080Y-56877784D01*
X176443423Y-56878735D01*
X176434137Y-56881552D01*
X176425579Y-56886126D01*
X176418078Y-56892282D01*
X176411922Y-56899783D01*
X176407348Y-56908341D01*
X176404531Y-56917627D01*
X176403580Y-56927284D01*
X176403580Y-57952784D01*
X176005580Y-57952784D01*
X176005580Y-56927284D01*
X176004629Y-56917627D01*
X176001812Y-56908341D01*
X175997238Y-56899783D01*
X175991082Y-56892282D01*
X175983581Y-56886126D01*
X175975023Y-56881552D01*
X175965737Y-56878735D01*
X175956080Y-56877784D01*
X175953080Y-56877784D01*
X175943423Y-56878735D01*
X175934137Y-56881552D01*
X175925579Y-56886126D01*
X175918078Y-56892282D01*
X175911922Y-56899783D01*
X175907348Y-56908341D01*
X175904531Y-56917627D01*
X175903580Y-56927284D01*
X175903580Y-57952784D01*
X175505580Y-57952784D01*
X175505580Y-56927284D01*
X175504629Y-56917627D01*
X175501812Y-56908341D01*
X175497238Y-56899783D01*
X175491082Y-56892282D01*
X175483581Y-56886126D01*
X175475023Y-56881552D01*
X175465737Y-56878735D01*
X175456080Y-56877784D01*
X175453080Y-56877784D01*
X175443423Y-56878735D01*
X175434137Y-56881552D01*
X175425579Y-56886126D01*
X175418078Y-56892282D01*
X175411922Y-56899783D01*
X175407348Y-56908341D01*
X175404531Y-56917627D01*
X175403580Y-56927284D01*
X175403580Y-57952784D01*
X175005580Y-57952784D01*
X175005580Y-57002284D01*
X175004629Y-56992627D01*
X175001812Y-56983341D01*
X174997238Y-56974783D01*
X174991082Y-56967282D01*
X174983581Y-56961126D01*
X174975023Y-56956552D01*
X174965737Y-56953735D01*
X174956080Y-56952784D01*
X174005580Y-56952784D01*
X174005580Y-56554784D01*
X175031080Y-56554784D01*
X175040737Y-56553833D01*
X175050023Y-56551016D01*
X175058581Y-56546442D01*
X175066082Y-56540286D01*
X175072238Y-56532785D01*
X175076812Y-56524227D01*
X175079629Y-56514941D01*
X175080580Y-56505284D01*
X175080580Y-56502284D01*
X175079629Y-56492627D01*
X175076812Y-56483341D01*
X175072238Y-56474783D01*
X175066082Y-56467282D01*
X175058581Y-56461126D01*
X175050023Y-56456552D01*
X175040737Y-56453735D01*
X175031080Y-56452784D01*
X174005580Y-56452784D01*
X174005580Y-56054784D01*
X175031080Y-56054784D01*
X175040737Y-56053833D01*
X175050023Y-56051016D01*
X175058581Y-56046442D01*
X175066082Y-56040286D01*
X175072238Y-56032785D01*
X175076812Y-56024227D01*
X175079629Y-56014941D01*
X175080580Y-56005284D01*
X175080580Y-56002284D01*
X175079629Y-55992627D01*
X175076812Y-55983341D01*
X175072238Y-55974783D01*
X175066082Y-55967282D01*
X175058581Y-55961126D01*
X175050023Y-55956552D01*
X175040737Y-55953735D01*
X175031080Y-55952784D01*
X174005580Y-55952784D01*
X174005580Y-55554784D01*
X175031080Y-55554784D01*
X175040737Y-55553833D01*
X175050023Y-55551016D01*
X175058581Y-55546442D01*
X175066082Y-55540286D01*
X175072238Y-55532785D01*
X175076812Y-55524227D01*
X175079629Y-55514941D01*
X175080580Y-55505284D01*
X175080580Y-55502284D01*
X175079629Y-55492627D01*
X175076812Y-55483341D01*
X175072238Y-55474783D01*
X175066082Y-55467282D01*
X175058581Y-55461126D01*
X175050023Y-55456552D01*
X175040737Y-55453735D01*
X175031080Y-55452784D01*
X174005580Y-55452784D01*
X174005580Y-55054784D01*
X175031080Y-55054784D01*
X175040737Y-55053833D01*
X175050023Y-55051016D01*
X175058581Y-55046442D01*
X175066082Y-55040286D01*
X175072238Y-55032785D01*
X175076812Y-55024227D01*
X175079629Y-55014941D01*
X175080580Y-55005284D01*
X175080580Y-55002284D01*
X175079629Y-54992627D01*
X175076812Y-54983341D01*
X175072238Y-54974783D01*
X175066082Y-54967282D01*
X175058581Y-54961126D01*
X175050023Y-54956552D01*
X175040737Y-54953735D01*
X175031080Y-54952784D01*
X174005580Y-54952784D01*
X174005580Y-54554784D01*
X174956080Y-54554784D01*
X174965737Y-54553833D01*
X174975023Y-54551016D01*
X174983581Y-54546442D01*
X174991082Y-54540286D01*
X174997238Y-54532785D01*
X175001812Y-54524227D01*
X175004629Y-54514941D01*
X175005580Y-54505284D01*
X175005580Y-53554784D01*
X175403580Y-53554784D01*
X175403580Y-54580284D01*
X175403580Y-54580284D01*
G37*
G36*
X191110433Y-57184064D02*
X191138008Y-57192430D01*
X191163422Y-57206014D01*
X191185702Y-57224298D01*
X191203986Y-57246578D01*
X191217570Y-57271992D01*
X191225936Y-57299567D01*
X191229000Y-57330684D01*
X191229000Y-57769316D01*
X191225936Y-57800433D01*
X191217570Y-57828008D01*
X191203986Y-57853422D01*
X191185702Y-57875702D01*
X191163422Y-57893986D01*
X191138008Y-57907570D01*
X191110433Y-57915936D01*
X191079316Y-57919000D01*
X190690684Y-57919000D01*
X190659567Y-57915936D01*
X190631992Y-57907570D01*
X190606578Y-57893986D01*
X190584298Y-57875702D01*
X190566014Y-57853422D01*
X190552430Y-57828008D01*
X190544064Y-57800433D01*
X190541000Y-57769316D01*
X190541000Y-57330684D01*
X190544064Y-57299567D01*
X190552430Y-57271992D01*
X190566014Y-57246578D01*
X190584298Y-57224298D01*
X190606578Y-57206014D01*
X190631992Y-57192430D01*
X190659567Y-57184064D01*
X190690684Y-57181000D01*
X191079316Y-57181000D01*
X191110433Y-57184064D01*
X191110433Y-57184064D01*
G37*
G36*
X190140433Y-57184064D02*
X190168008Y-57192430D01*
X190193422Y-57206014D01*
X190215702Y-57224298D01*
X190233986Y-57246578D01*
X190247570Y-57271992D01*
X190255936Y-57299567D01*
X190259000Y-57330684D01*
X190259000Y-57769316D01*
X190255936Y-57800433D01*
X190247570Y-57828008D01*
X190233986Y-57853422D01*
X190215702Y-57875702D01*
X190193422Y-57893986D01*
X190168008Y-57907570D01*
X190140433Y-57915936D01*
X190109316Y-57919000D01*
X189720684Y-57919000D01*
X189689567Y-57915936D01*
X189661992Y-57907570D01*
X189636578Y-57893986D01*
X189614298Y-57875702D01*
X189596014Y-57853422D01*
X189582430Y-57828008D01*
X189574064Y-57800433D01*
X189571000Y-57769316D01*
X189571000Y-57330684D01*
X189574064Y-57299567D01*
X189582430Y-57271992D01*
X189596014Y-57246578D01*
X189614298Y-57224298D01*
X189636578Y-57206014D01*
X189661992Y-57192430D01*
X189689567Y-57184064D01*
X189720684Y-57181000D01*
X190109316Y-57181000D01*
X190140433Y-57184064D01*
X190140433Y-57184064D01*
G37*
G36*
X179841673Y-57129504D02*
X179869248Y-57137870D01*
X179894662Y-57151454D01*
X179916942Y-57169738D01*
X179935226Y-57192018D01*
X179948810Y-57217432D01*
X179957176Y-57245007D01*
X179960240Y-57276124D01*
X179960240Y-57714756D01*
X179957176Y-57745873D01*
X179948810Y-57773448D01*
X179935226Y-57798862D01*
X179916942Y-57821142D01*
X179894662Y-57839426D01*
X179869248Y-57853010D01*
X179841673Y-57861376D01*
X179810556Y-57864440D01*
X179421924Y-57864440D01*
X179390807Y-57861376D01*
X179363232Y-57853010D01*
X179337818Y-57839426D01*
X179315538Y-57821142D01*
X179297254Y-57798862D01*
X179283670Y-57773448D01*
X179275304Y-57745873D01*
X179272240Y-57714756D01*
X179272240Y-57276124D01*
X179275304Y-57245007D01*
X179283670Y-57217432D01*
X179297254Y-57192018D01*
X179315538Y-57169738D01*
X179337818Y-57151454D01*
X179363232Y-57137870D01*
X179390807Y-57129504D01*
X179421924Y-57126440D01*
X179810556Y-57126440D01*
X179841673Y-57129504D01*
X179841673Y-57129504D01*
G37*
G36*
X180811673Y-57129504D02*
X180839248Y-57137870D01*
X180864662Y-57151454D01*
X180886942Y-57169738D01*
X180905226Y-57192018D01*
X180918810Y-57217432D01*
X180927176Y-57245007D01*
X180930240Y-57276124D01*
X180930240Y-57714756D01*
X180927176Y-57745873D01*
X180918810Y-57773448D01*
X180905226Y-57798862D01*
X180886942Y-57821142D01*
X180864662Y-57839426D01*
X180839248Y-57853010D01*
X180811673Y-57861376D01*
X180780556Y-57864440D01*
X180391924Y-57864440D01*
X180360807Y-57861376D01*
X180333232Y-57853010D01*
X180307818Y-57839426D01*
X180285538Y-57821142D01*
X180267254Y-57798862D01*
X180253670Y-57773448D01*
X180245304Y-57745873D01*
X180242240Y-57714756D01*
X180242240Y-57276124D01*
X180245304Y-57245007D01*
X180253670Y-57217432D01*
X180267254Y-57192018D01*
X180285538Y-57169738D01*
X180307818Y-57151454D01*
X180333232Y-57137870D01*
X180360807Y-57129504D01*
X180391924Y-57126440D01*
X180780556Y-57126440D01*
X180811673Y-57129504D01*
X180811673Y-57129504D01*
G37*
G36*
X167492240Y-57821520D02*
X166294240Y-57821520D01*
X166294240Y-57473520D01*
X167492240Y-57473520D01*
X167492240Y-57821520D01*
X167492240Y-57821520D01*
G37*
G36*
X167492240Y-57321520D02*
X166294240Y-57321520D01*
X166294240Y-56973520D01*
X167492240Y-56973520D01*
X167492240Y-57321520D01*
X167492240Y-57321520D01*
G37*
G36*
X172412173Y-56558004D02*
X172439748Y-56566370D01*
X172465162Y-56579954D01*
X172487442Y-56598238D01*
X172505726Y-56620518D01*
X172519310Y-56645932D01*
X172527676Y-56673507D01*
X172530740Y-56704624D01*
X172530740Y-57143256D01*
X172527676Y-57174373D01*
X172519310Y-57201948D01*
X172505726Y-57227362D01*
X172487442Y-57249642D01*
X172465162Y-57267926D01*
X172439748Y-57281510D01*
X172412173Y-57289876D01*
X172381056Y-57292940D01*
X171992424Y-57292940D01*
X171961307Y-57289876D01*
X171933732Y-57281510D01*
X171908318Y-57267926D01*
X171886038Y-57249642D01*
X171867754Y-57227362D01*
X171854170Y-57201948D01*
X171845804Y-57174373D01*
X171842740Y-57143256D01*
X171842740Y-56704624D01*
X171845804Y-56673507D01*
X171854170Y-56645932D01*
X171867754Y-56620518D01*
X171886038Y-56598238D01*
X171908318Y-56579954D01*
X171933732Y-56566370D01*
X171961307Y-56558004D01*
X171992424Y-56554940D01*
X172381056Y-56554940D01*
X172412173Y-56558004D01*
X172412173Y-56558004D01*
G37*
G36*
X170443673Y-56558004D02*
X170471248Y-56566370D01*
X170496662Y-56579954D01*
X170518942Y-56598238D01*
X170537226Y-56620518D01*
X170550810Y-56645932D01*
X170559176Y-56673507D01*
X170562240Y-56704624D01*
X170562240Y-57143256D01*
X170559176Y-57174373D01*
X170550810Y-57201948D01*
X170537226Y-57227362D01*
X170518942Y-57249642D01*
X170496662Y-57267926D01*
X170471248Y-57281510D01*
X170443673Y-57289876D01*
X170412556Y-57292940D01*
X170023924Y-57292940D01*
X169992807Y-57289876D01*
X169965232Y-57281510D01*
X169939818Y-57267926D01*
X169917538Y-57249642D01*
X169899254Y-57227362D01*
X169885670Y-57201948D01*
X169877304Y-57174373D01*
X169874240Y-57143256D01*
X169874240Y-56704624D01*
X169877304Y-56673507D01*
X169885670Y-56645932D01*
X169899254Y-56620518D01*
X169917538Y-56598238D01*
X169939818Y-56579954D01*
X169965232Y-56566370D01*
X169992807Y-56558004D01*
X170023924Y-56554940D01*
X170412556Y-56554940D01*
X170443673Y-56558004D01*
X170443673Y-56558004D01*
G37*
G36*
X171413673Y-56558004D02*
X171441248Y-56566370D01*
X171466662Y-56579954D01*
X171488942Y-56598238D01*
X171507226Y-56620518D01*
X171520810Y-56645932D01*
X171529176Y-56673507D01*
X171532240Y-56704624D01*
X171532240Y-57143256D01*
X171529176Y-57174373D01*
X171520810Y-57201948D01*
X171507226Y-57227362D01*
X171488942Y-57249642D01*
X171466662Y-57267926D01*
X171441248Y-57281510D01*
X171413673Y-57289876D01*
X171382556Y-57292940D01*
X170993924Y-57292940D01*
X170962807Y-57289876D01*
X170935232Y-57281510D01*
X170909818Y-57267926D01*
X170887538Y-57249642D01*
X170869254Y-57227362D01*
X170855670Y-57201948D01*
X170847304Y-57174373D01*
X170844240Y-57143256D01*
X170844240Y-56704624D01*
X170847304Y-56673507D01*
X170855670Y-56645932D01*
X170869254Y-56620518D01*
X170887538Y-56598238D01*
X170909818Y-56579954D01*
X170935232Y-56566370D01*
X170962807Y-56558004D01*
X170993924Y-56554940D01*
X171382556Y-56554940D01*
X171413673Y-56558004D01*
X171413673Y-56558004D01*
G37*
G36*
X173382173Y-56558004D02*
X173409748Y-56566370D01*
X173435162Y-56579954D01*
X173457442Y-56598238D01*
X173475726Y-56620518D01*
X173489310Y-56645932D01*
X173497676Y-56673507D01*
X173500740Y-56704624D01*
X173500740Y-57143256D01*
X173497676Y-57174373D01*
X173489310Y-57201948D01*
X173475726Y-57227362D01*
X173457442Y-57249642D01*
X173435162Y-57267926D01*
X173409748Y-57281510D01*
X173382173Y-57289876D01*
X173351056Y-57292940D01*
X172962424Y-57292940D01*
X172931307Y-57289876D01*
X172903732Y-57281510D01*
X172878318Y-57267926D01*
X172856038Y-57249642D01*
X172837754Y-57227362D01*
X172824170Y-57201948D01*
X172815804Y-57174373D01*
X172812740Y-57143256D01*
X172812740Y-56704624D01*
X172815804Y-56673507D01*
X172824170Y-56645932D01*
X172837754Y-56620518D01*
X172856038Y-56598238D01*
X172878318Y-56579954D01*
X172903732Y-56566370D01*
X172931307Y-56558004D01*
X172962424Y-56554940D01*
X173351056Y-56554940D01*
X173382173Y-56558004D01*
X173382173Y-56558004D01*
G37*
G36*
X167492240Y-56821520D02*
X166294240Y-56821520D01*
X166294240Y-56473520D01*
X167492240Y-56473520D01*
X167492240Y-56821520D01*
X167492240Y-56821520D01*
G37*
G36*
X179841673Y-55895064D02*
X179869248Y-55903430D01*
X179894662Y-55917014D01*
X179916942Y-55935298D01*
X179935226Y-55957578D01*
X179948810Y-55982992D01*
X179957176Y-56010567D01*
X179960240Y-56041684D01*
X179960240Y-56480316D01*
X179957176Y-56511433D01*
X179948810Y-56539008D01*
X179935226Y-56564422D01*
X179916942Y-56586702D01*
X179894662Y-56604986D01*
X179869248Y-56618570D01*
X179841673Y-56626936D01*
X179810556Y-56630000D01*
X179421924Y-56630000D01*
X179390807Y-56626936D01*
X179363232Y-56618570D01*
X179337818Y-56604986D01*
X179315538Y-56586702D01*
X179297254Y-56564422D01*
X179283670Y-56539008D01*
X179275304Y-56511433D01*
X179272240Y-56480316D01*
X179272240Y-56041684D01*
X179275304Y-56010567D01*
X179283670Y-55982992D01*
X179297254Y-55957578D01*
X179315538Y-55935298D01*
X179337818Y-55917014D01*
X179363232Y-55903430D01*
X179390807Y-55895064D01*
X179421924Y-55892000D01*
X179810556Y-55892000D01*
X179841673Y-55895064D01*
X179841673Y-55895064D01*
G37*
G36*
X180811673Y-55895064D02*
X180839248Y-55903430D01*
X180864662Y-55917014D01*
X180886942Y-55935298D01*
X180905226Y-55957578D01*
X180918810Y-55982992D01*
X180927176Y-56010567D01*
X180930240Y-56041684D01*
X180930240Y-56480316D01*
X180927176Y-56511433D01*
X180918810Y-56539008D01*
X180905226Y-56564422D01*
X180886942Y-56586702D01*
X180864662Y-56604986D01*
X180839248Y-56618570D01*
X180811673Y-56626936D01*
X180780556Y-56630000D01*
X180391924Y-56630000D01*
X180360807Y-56626936D01*
X180333232Y-56618570D01*
X180307818Y-56604986D01*
X180285538Y-56586702D01*
X180267254Y-56564422D01*
X180253670Y-56539008D01*
X180245304Y-56511433D01*
X180242240Y-56480316D01*
X180242240Y-56041684D01*
X180245304Y-56010567D01*
X180253670Y-55982992D01*
X180267254Y-55957578D01*
X180285538Y-55935298D01*
X180307818Y-55917014D01*
X180333232Y-55903430D01*
X180360807Y-55895064D01*
X180391924Y-55892000D01*
X180780556Y-55892000D01*
X180811673Y-55895064D01*
X180811673Y-55895064D01*
G37*
G36*
X173382173Y-55542004D02*
X173409748Y-55550370D01*
X173435162Y-55563954D01*
X173457442Y-55582238D01*
X173475726Y-55604518D01*
X173489310Y-55629932D01*
X173497676Y-55657507D01*
X173500740Y-55688624D01*
X173500740Y-56127256D01*
X173497676Y-56158373D01*
X173489310Y-56185948D01*
X173475726Y-56211362D01*
X173457442Y-56233642D01*
X173435162Y-56251926D01*
X173409748Y-56265510D01*
X173382173Y-56273876D01*
X173351056Y-56276940D01*
X172962424Y-56276940D01*
X172931307Y-56273876D01*
X172903732Y-56265510D01*
X172878318Y-56251926D01*
X172856038Y-56233642D01*
X172837754Y-56211362D01*
X172824170Y-56185948D01*
X172815804Y-56158373D01*
X172812740Y-56127256D01*
X172812740Y-55688624D01*
X172815804Y-55657507D01*
X172824170Y-55629932D01*
X172837754Y-55604518D01*
X172856038Y-55582238D01*
X172878318Y-55563954D01*
X172903732Y-55550370D01*
X172931307Y-55542004D01*
X172962424Y-55538940D01*
X173351056Y-55538940D01*
X173382173Y-55542004D01*
X173382173Y-55542004D01*
G37*
G36*
X172412173Y-55542004D02*
X172439748Y-55550370D01*
X172465162Y-55563954D01*
X172487442Y-55582238D01*
X172505726Y-55604518D01*
X172519310Y-55629932D01*
X172527676Y-55657507D01*
X172530740Y-55688624D01*
X172530740Y-56127256D01*
X172527676Y-56158373D01*
X172519310Y-56185948D01*
X172505726Y-56211362D01*
X172487442Y-56233642D01*
X172465162Y-56251926D01*
X172439748Y-56265510D01*
X172412173Y-56273876D01*
X172381056Y-56276940D01*
X171992424Y-56276940D01*
X171961307Y-56273876D01*
X171933732Y-56265510D01*
X171908318Y-56251926D01*
X171886038Y-56233642D01*
X171867754Y-56211362D01*
X171854170Y-56185948D01*
X171845804Y-56158373D01*
X171842740Y-56127256D01*
X171842740Y-55688624D01*
X171845804Y-55657507D01*
X171854170Y-55629932D01*
X171867754Y-55604518D01*
X171886038Y-55582238D01*
X171908318Y-55563954D01*
X171933732Y-55550370D01*
X171961307Y-55542004D01*
X171992424Y-55538940D01*
X172381056Y-55538940D01*
X172412173Y-55542004D01*
X172412173Y-55542004D01*
G37*
G36*
X163792240Y-55896520D02*
X162194240Y-55896520D01*
X162194240Y-54098520D01*
X163792240Y-54098520D01*
X163792240Y-55896520D01*
X163792240Y-55896520D01*
G37*
G36*
X179841673Y-54589504D02*
X179869248Y-54597870D01*
X179894662Y-54611454D01*
X179916942Y-54629738D01*
X179935226Y-54652018D01*
X179948810Y-54677432D01*
X179957176Y-54705007D01*
X179960240Y-54736124D01*
X179960240Y-55174756D01*
X179957176Y-55205873D01*
X179948810Y-55233448D01*
X179935226Y-55258862D01*
X179916942Y-55281142D01*
X179894662Y-55299426D01*
X179869248Y-55313010D01*
X179841673Y-55321376D01*
X179810556Y-55324440D01*
X179421924Y-55324440D01*
X179390807Y-55321376D01*
X179363232Y-55313010D01*
X179337818Y-55299426D01*
X179315538Y-55281142D01*
X179297254Y-55258862D01*
X179283670Y-55233448D01*
X179275304Y-55205873D01*
X179272240Y-55174756D01*
X179272240Y-54736124D01*
X179275304Y-54705007D01*
X179283670Y-54677432D01*
X179297254Y-54652018D01*
X179315538Y-54629738D01*
X179337818Y-54611454D01*
X179363232Y-54597870D01*
X179390807Y-54589504D01*
X179421924Y-54586440D01*
X179810556Y-54586440D01*
X179841673Y-54589504D01*
X179841673Y-54589504D01*
G37*
G36*
X180811673Y-54589504D02*
X180839248Y-54597870D01*
X180864662Y-54611454D01*
X180886942Y-54629738D01*
X180905226Y-54652018D01*
X180918810Y-54677432D01*
X180927176Y-54705007D01*
X180930240Y-54736124D01*
X180930240Y-55174756D01*
X180927176Y-55205873D01*
X180918810Y-55233448D01*
X180905226Y-55258862D01*
X180886942Y-55281142D01*
X180864662Y-55299426D01*
X180839248Y-55313010D01*
X180811673Y-55321376D01*
X180780556Y-55324440D01*
X180391924Y-55324440D01*
X180360807Y-55321376D01*
X180333232Y-55313010D01*
X180307818Y-55299426D01*
X180285538Y-55281142D01*
X180267254Y-55258862D01*
X180253670Y-55233448D01*
X180245304Y-55205873D01*
X180242240Y-55174756D01*
X180242240Y-54736124D01*
X180245304Y-54705007D01*
X180253670Y-54677432D01*
X180267254Y-54652018D01*
X180285538Y-54629738D01*
X180307818Y-54611454D01*
X180333232Y-54597870D01*
X180360807Y-54589504D01*
X180391924Y-54586440D01*
X180780556Y-54586440D01*
X180811673Y-54589504D01*
X180811673Y-54589504D01*
G37*
G36*
X182566500Y-55177500D02*
X181739500Y-55177500D01*
X181739500Y-54550500D01*
X182566500Y-54550500D01*
X182566500Y-55177500D01*
X182566500Y-55177500D01*
G37*
G36*
X183866500Y-55177500D02*
X183039500Y-55177500D01*
X183039500Y-54550500D01*
X183866500Y-54550500D01*
X183866500Y-55177500D01*
X183866500Y-55177500D01*
G37*
G36*
X171650173Y-53764004D02*
X171677748Y-53772370D01*
X171703162Y-53785954D01*
X171725442Y-53804238D01*
X171743726Y-53826518D01*
X171757310Y-53851932D01*
X171765676Y-53879507D01*
X171768740Y-53910624D01*
X171768740Y-54349256D01*
X171765676Y-54380373D01*
X171757310Y-54407948D01*
X171743726Y-54433362D01*
X171725442Y-54455642D01*
X171703162Y-54473926D01*
X171677748Y-54487510D01*
X171650173Y-54495876D01*
X171619056Y-54498940D01*
X171230424Y-54498940D01*
X171199307Y-54495876D01*
X171171732Y-54487510D01*
X171146318Y-54473926D01*
X171124038Y-54455642D01*
X171105754Y-54433362D01*
X171092170Y-54407948D01*
X171083804Y-54380373D01*
X171080740Y-54349256D01*
X171080740Y-53910624D01*
X171083804Y-53879507D01*
X171092170Y-53851932D01*
X171105754Y-53826518D01*
X171124038Y-53804238D01*
X171146318Y-53785954D01*
X171171732Y-53772370D01*
X171199307Y-53764004D01*
X171230424Y-53760940D01*
X171619056Y-53760940D01*
X171650173Y-53764004D01*
X171650173Y-53764004D01*
G37*
G36*
X172620173Y-53764004D02*
X172647748Y-53772370D01*
X172673162Y-53785954D01*
X172695442Y-53804238D01*
X172713726Y-53826518D01*
X172727310Y-53851932D01*
X172735676Y-53879507D01*
X172738740Y-53910624D01*
X172738740Y-54349256D01*
X172735676Y-54380373D01*
X172727310Y-54407948D01*
X172713726Y-54433362D01*
X172695442Y-54455642D01*
X172673162Y-54473926D01*
X172647748Y-54487510D01*
X172620173Y-54495876D01*
X172589056Y-54498940D01*
X172200424Y-54498940D01*
X172169307Y-54495876D01*
X172141732Y-54487510D01*
X172116318Y-54473926D01*
X172094038Y-54455642D01*
X172075754Y-54433362D01*
X172062170Y-54407948D01*
X172053804Y-54380373D01*
X172050740Y-54349256D01*
X172050740Y-53910624D01*
X172053804Y-53879507D01*
X172062170Y-53851932D01*
X172075754Y-53826518D01*
X172094038Y-53804238D01*
X172116318Y-53785954D01*
X172141732Y-53772370D01*
X172169307Y-53764004D01*
X172200424Y-53760940D01*
X172589056Y-53760940D01*
X172620173Y-53764004D01*
X172620173Y-53764004D01*
G37*
G36*
X166239433Y-53103064D02*
X166267008Y-53111430D01*
X166292422Y-53125014D01*
X166314702Y-53143298D01*
X166332986Y-53165578D01*
X166346570Y-53190992D01*
X166354936Y-53218567D01*
X166358000Y-53249684D01*
X166358000Y-53638316D01*
X166354936Y-53669433D01*
X166346570Y-53697008D01*
X166332986Y-53722422D01*
X166314702Y-53744702D01*
X166292422Y-53762986D01*
X166267008Y-53776570D01*
X166239433Y-53784936D01*
X166208316Y-53788000D01*
X165769684Y-53788000D01*
X165738567Y-53784936D01*
X165710992Y-53776570D01*
X165685578Y-53762986D01*
X165663298Y-53744702D01*
X165645014Y-53722422D01*
X165631430Y-53697008D01*
X165623064Y-53669433D01*
X165620000Y-53638316D01*
X165620000Y-53249684D01*
X165623064Y-53218567D01*
X165631430Y-53190992D01*
X165645014Y-53165578D01*
X165663298Y-53143298D01*
X165685578Y-53125014D01*
X165710992Y-53111430D01*
X165738567Y-53103064D01*
X165769684Y-53100000D01*
X166208316Y-53100000D01*
X166239433Y-53103064D01*
X166239433Y-53103064D01*
G37*
G36*
X174663100Y-53185060D02*
X173101000Y-53185060D01*
X173101000Y-48663860D01*
X174663100Y-48663860D01*
X174663100Y-53185060D01*
X174663100Y-53185060D01*
G37*
G36*
X171704000Y-53185060D02*
X170141900Y-53185060D01*
X170141900Y-48663860D01*
X171704000Y-48663860D01*
X171704000Y-53185060D01*
X171704000Y-53185060D01*
G37*
G36*
X182552340Y-53152040D02*
X180990240Y-53152040D01*
X180990240Y-48630840D01*
X182552340Y-48630840D01*
X182552340Y-53152040D01*
X182552340Y-53152040D01*
G37*
G36*
X179593240Y-53152040D02*
X178031140Y-53152040D01*
X178031140Y-48630840D01*
X179593240Y-48630840D01*
X179593240Y-53152040D01*
X179593240Y-53152040D01*
G37*
G36*
X169587740Y-53098440D02*
X168389740Y-53098440D01*
X168389740Y-51000440D01*
X169587740Y-51000440D01*
X169587740Y-53098440D01*
X169587740Y-53098440D01*
G37*
G36*
X164039082Y-51931434D02*
X164080026Y-51943854D01*
X164117760Y-51964023D01*
X164150834Y-51991166D01*
X164177977Y-52024240D01*
X164198146Y-52061974D01*
X164210566Y-52102918D01*
X164215000Y-52147936D01*
X164215000Y-52754064D01*
X164210566Y-52799082D01*
X164198146Y-52840026D01*
X164177977Y-52877760D01*
X164150834Y-52910834D01*
X164117760Y-52937977D01*
X164080026Y-52958146D01*
X164039082Y-52970566D01*
X163994064Y-52975000D01*
X163462936Y-52975000D01*
X163417918Y-52970566D01*
X163376974Y-52958146D01*
X163339240Y-52937977D01*
X163306166Y-52910834D01*
X163279023Y-52877760D01*
X163258854Y-52840026D01*
X163246434Y-52799082D01*
X163242000Y-52754064D01*
X163242000Y-52147936D01*
X163246434Y-52102918D01*
X163258854Y-52061974D01*
X163279023Y-52024240D01*
X163306166Y-51991166D01*
X163339240Y-51964023D01*
X163376974Y-51943854D01*
X163417918Y-51931434D01*
X163462936Y-51927000D01*
X163994064Y-51927000D01*
X164039082Y-51931434D01*
X164039082Y-51931434D01*
G37*
G36*
X162464082Y-51931434D02*
X162505026Y-51943854D01*
X162542760Y-51964023D01*
X162575834Y-51991166D01*
X162602977Y-52024240D01*
X162623146Y-52061974D01*
X162635566Y-52102918D01*
X162640000Y-52147936D01*
X162640000Y-52754064D01*
X162635566Y-52799082D01*
X162623146Y-52840026D01*
X162602977Y-52877760D01*
X162575834Y-52910834D01*
X162542760Y-52937977D01*
X162505026Y-52958146D01*
X162464082Y-52970566D01*
X162419064Y-52975000D01*
X161887936Y-52975000D01*
X161842918Y-52970566D01*
X161801974Y-52958146D01*
X161764240Y-52937977D01*
X161731166Y-52910834D01*
X161704023Y-52877760D01*
X161683854Y-52840026D01*
X161671434Y-52799082D01*
X161667000Y-52754064D01*
X161667000Y-52147936D01*
X161671434Y-52102918D01*
X161683854Y-52061974D01*
X161704023Y-52024240D01*
X161731166Y-51991166D01*
X161764240Y-51964023D01*
X161801974Y-51943854D01*
X161842918Y-51931434D01*
X161887936Y-51927000D01*
X162419064Y-51927000D01*
X162464082Y-51931434D01*
X162464082Y-51931434D01*
G37*
G36*
X166239433Y-52133064D02*
X166267008Y-52141430D01*
X166292422Y-52155014D01*
X166314702Y-52173298D01*
X166332986Y-52195578D01*
X166346570Y-52220992D01*
X166354936Y-52248567D01*
X166358000Y-52279684D01*
X166358000Y-52668316D01*
X166354936Y-52699433D01*
X166346570Y-52727008D01*
X166332986Y-52752422D01*
X166314702Y-52774702D01*
X166292422Y-52792986D01*
X166267008Y-52806570D01*
X166239433Y-52814936D01*
X166208316Y-52818000D01*
X165769684Y-52818000D01*
X165738567Y-52814936D01*
X165710992Y-52806570D01*
X165685578Y-52792986D01*
X165663298Y-52774702D01*
X165645014Y-52752422D01*
X165631430Y-52727008D01*
X165623064Y-52699433D01*
X165620000Y-52668316D01*
X165620000Y-52279684D01*
X165623064Y-52248567D01*
X165631430Y-52220992D01*
X165645014Y-52195578D01*
X165663298Y-52173298D01*
X165685578Y-52155014D01*
X165710992Y-52141430D01*
X165738567Y-52133064D01*
X165769684Y-52130000D01*
X166208316Y-52130000D01*
X166239433Y-52133064D01*
X166239433Y-52133064D01*
G37*
G36*
X184040200Y-52067200D02*
X183142200Y-52067200D01*
X183142200Y-51169200D01*
X184040200Y-51169200D01*
X184040200Y-52067200D01*
X184040200Y-52067200D01*
G37*
G36*
X176895013Y-50716004D02*
X176922588Y-50724370D01*
X176948002Y-50737954D01*
X176970282Y-50756238D01*
X176988566Y-50778518D01*
X177002150Y-50803932D01*
X177010516Y-50831507D01*
X177013580Y-50862624D01*
X177013580Y-51301256D01*
X177010516Y-51332373D01*
X177002150Y-51359948D01*
X176988566Y-51385362D01*
X176970282Y-51407642D01*
X176948002Y-51425926D01*
X176922588Y-51439510D01*
X176895013Y-51447876D01*
X176863896Y-51450940D01*
X176475264Y-51450940D01*
X176444147Y-51447876D01*
X176416572Y-51439510D01*
X176391158Y-51425926D01*
X176368878Y-51407642D01*
X176350594Y-51385362D01*
X176337010Y-51359948D01*
X176328644Y-51332373D01*
X176325580Y-51301256D01*
X176325580Y-50862624D01*
X176328644Y-50831507D01*
X176337010Y-50803932D01*
X176350594Y-50778518D01*
X176368878Y-50756238D01*
X176391158Y-50737954D01*
X176416572Y-50724370D01*
X176444147Y-50716004D01*
X176475264Y-50712940D01*
X176863896Y-50712940D01*
X176895013Y-50716004D01*
X176895013Y-50716004D01*
G37*
G36*
X175925013Y-50716004D02*
X175952588Y-50724370D01*
X175978002Y-50737954D01*
X176000282Y-50756238D01*
X176018566Y-50778518D01*
X176032150Y-50803932D01*
X176040516Y-50831507D01*
X176043580Y-50862624D01*
X176043580Y-51301256D01*
X176040516Y-51332373D01*
X176032150Y-51359948D01*
X176018566Y-51385362D01*
X176000282Y-51407642D01*
X175978002Y-51425926D01*
X175952588Y-51439510D01*
X175925013Y-51447876D01*
X175893896Y-51450940D01*
X175505264Y-51450940D01*
X175474147Y-51447876D01*
X175446572Y-51439510D01*
X175421158Y-51425926D01*
X175398878Y-51407642D01*
X175380594Y-51385362D01*
X175367010Y-51359948D01*
X175358644Y-51332373D01*
X175355580Y-51301256D01*
X175355580Y-50862624D01*
X175358644Y-50831507D01*
X175367010Y-50803932D01*
X175380594Y-50778518D01*
X175398878Y-50756238D01*
X175421158Y-50737954D01*
X175446572Y-50724370D01*
X175474147Y-50716004D01*
X175505264Y-50712940D01*
X175893896Y-50712940D01*
X175925013Y-50716004D01*
X175925013Y-50716004D01*
G37*
G36*
X167588173Y-50718004D02*
X167615748Y-50726370D01*
X167641162Y-50739954D01*
X167663442Y-50758238D01*
X167681726Y-50780518D01*
X167695310Y-50805932D01*
X167703676Y-50833507D01*
X167706740Y-50864624D01*
X167706740Y-51253256D01*
X167703676Y-51284373D01*
X167695310Y-51311948D01*
X167681726Y-51337362D01*
X167663442Y-51359642D01*
X167641162Y-51377926D01*
X167615748Y-51391510D01*
X167588173Y-51399876D01*
X167557056Y-51402940D01*
X167118424Y-51402940D01*
X167087307Y-51399876D01*
X167059732Y-51391510D01*
X167034318Y-51377926D01*
X167012038Y-51359642D01*
X166993754Y-51337362D01*
X166980170Y-51311948D01*
X166971804Y-51284373D01*
X166968740Y-51253256D01*
X166968740Y-50864624D01*
X166971804Y-50833507D01*
X166980170Y-50805932D01*
X166993754Y-50780518D01*
X167012038Y-50758238D01*
X167034318Y-50739954D01*
X167059732Y-50726370D01*
X167087307Y-50718004D01*
X167118424Y-50714940D01*
X167557056Y-50714940D01*
X167588173Y-50718004D01*
X167588173Y-50718004D01*
G37*
G36*
X184190200Y-50767200D02*
X182992200Y-50767200D01*
X182992200Y-48669200D01*
X184190200Y-48669200D01*
X184190200Y-50767200D01*
X184190200Y-50767200D01*
G37*
G36*
X169437740Y-50598440D02*
X168539740Y-50598440D01*
X168539740Y-49700440D01*
X169437740Y-49700440D01*
X169437740Y-50598440D01*
X169437740Y-50598440D01*
G37*
G36*
X166210082Y-49581434D02*
X166251026Y-49593854D01*
X166288760Y-49614023D01*
X166321834Y-49641166D01*
X166348977Y-49674240D01*
X166369146Y-49711974D01*
X166381566Y-49752918D01*
X166386000Y-49797936D01*
X166386000Y-50329064D01*
X166381566Y-50374082D01*
X166369146Y-50415026D01*
X166348977Y-50452760D01*
X166321834Y-50485834D01*
X166288760Y-50512977D01*
X166251026Y-50533146D01*
X166210082Y-50545566D01*
X166165064Y-50550000D01*
X165558936Y-50550000D01*
X165513918Y-50545566D01*
X165472974Y-50533146D01*
X165435240Y-50512977D01*
X165402166Y-50485834D01*
X165375023Y-50452760D01*
X165354854Y-50415026D01*
X165342434Y-50374082D01*
X165338000Y-50329064D01*
X165338000Y-49797936D01*
X165342434Y-49752918D01*
X165354854Y-49711974D01*
X165375023Y-49674240D01*
X165402166Y-49641166D01*
X165435240Y-49614023D01*
X165472974Y-49593854D01*
X165513918Y-49581434D01*
X165558936Y-49577000D01*
X166165064Y-49577000D01*
X166210082Y-49581434D01*
X166210082Y-49581434D01*
G37*
G36*
X167588173Y-49748004D02*
X167615748Y-49756370D01*
X167641162Y-49769954D01*
X167663442Y-49788238D01*
X167681726Y-49810518D01*
X167695310Y-49835932D01*
X167703676Y-49863507D01*
X167706740Y-49894624D01*
X167706740Y-50283256D01*
X167703676Y-50314373D01*
X167695310Y-50341948D01*
X167681726Y-50367362D01*
X167663442Y-50389642D01*
X167641162Y-50407926D01*
X167615748Y-50421510D01*
X167588173Y-50429876D01*
X167557056Y-50432940D01*
X167118424Y-50432940D01*
X167087307Y-50429876D01*
X167059732Y-50421510D01*
X167034318Y-50407926D01*
X167012038Y-50389642D01*
X166993754Y-50367362D01*
X166980170Y-50341948D01*
X166971804Y-50314373D01*
X166968740Y-50283256D01*
X166968740Y-49894624D01*
X166971804Y-49863507D01*
X166980170Y-49835932D01*
X166993754Y-49810518D01*
X167012038Y-49788238D01*
X167034318Y-49769954D01*
X167059732Y-49756370D01*
X167087307Y-49748004D01*
X167118424Y-49744940D01*
X167557056Y-49744940D01*
X167588173Y-49748004D01*
X167588173Y-49748004D01*
G37*
G36*
X176895013Y-48783848D02*
X176922588Y-48792214D01*
X176948002Y-48805798D01*
X176970282Y-48824082D01*
X176988566Y-48846362D01*
X177002150Y-48871776D01*
X177010516Y-48899351D01*
X177013580Y-48930468D01*
X177013580Y-49369100D01*
X177010516Y-49400217D01*
X177002150Y-49427792D01*
X176988566Y-49453206D01*
X176970282Y-49475486D01*
X176948002Y-49493770D01*
X176922588Y-49507354D01*
X176895013Y-49515720D01*
X176863896Y-49518784D01*
X176475264Y-49518784D01*
X176444147Y-49515720D01*
X176416572Y-49507354D01*
X176391158Y-49493770D01*
X176368878Y-49475486D01*
X176350594Y-49453206D01*
X176337010Y-49427792D01*
X176328644Y-49400217D01*
X176325580Y-49369100D01*
X176325580Y-48930468D01*
X176328644Y-48899351D01*
X176337010Y-48871776D01*
X176350594Y-48846362D01*
X176368878Y-48824082D01*
X176391158Y-48805798D01*
X176416572Y-48792214D01*
X176444147Y-48783848D01*
X176475264Y-48780784D01*
X176863896Y-48780784D01*
X176895013Y-48783848D01*
X176895013Y-48783848D01*
G37*
G36*
X175925013Y-48783848D02*
X175952588Y-48792214D01*
X175978002Y-48805798D01*
X176000282Y-48824082D01*
X176018566Y-48846362D01*
X176032150Y-48871776D01*
X176040516Y-48899351D01*
X176043580Y-48930468D01*
X176043580Y-49369100D01*
X176040516Y-49400217D01*
X176032150Y-49427792D01*
X176018566Y-49453206D01*
X176000282Y-49475486D01*
X175978002Y-49493770D01*
X175952588Y-49507354D01*
X175925013Y-49515720D01*
X175893896Y-49518784D01*
X175505264Y-49518784D01*
X175474147Y-49515720D01*
X175446572Y-49507354D01*
X175421158Y-49493770D01*
X175398878Y-49475486D01*
X175380594Y-49453206D01*
X175367010Y-49427792D01*
X175358644Y-49400217D01*
X175355580Y-49369100D01*
X175355580Y-48930468D01*
X175358644Y-48899351D01*
X175367010Y-48871776D01*
X175380594Y-48846362D01*
X175398878Y-48824082D01*
X175421158Y-48805798D01*
X175446572Y-48792214D01*
X175474147Y-48783848D01*
X175505264Y-48780784D01*
X175893896Y-48780784D01*
X175925013Y-48783848D01*
X175925013Y-48783848D01*
G37*
G36*
X161921433Y-48802844D02*
X161949008Y-48811210D01*
X161974422Y-48824794D01*
X161996702Y-48843078D01*
X162014986Y-48865358D01*
X162028570Y-48890772D01*
X162036936Y-48918347D01*
X162040000Y-48949464D01*
X162040000Y-49338096D01*
X162036936Y-49369213D01*
X162028570Y-49396788D01*
X162014986Y-49422202D01*
X161996702Y-49444482D01*
X161974422Y-49462766D01*
X161949008Y-49476350D01*
X161921433Y-49484716D01*
X161890316Y-49487780D01*
X161451684Y-49487780D01*
X161420567Y-49484716D01*
X161392992Y-49476350D01*
X161367578Y-49462766D01*
X161345298Y-49444482D01*
X161327014Y-49422202D01*
X161313430Y-49396788D01*
X161305064Y-49369213D01*
X161302000Y-49338096D01*
X161302000Y-48949464D01*
X161305064Y-48918347D01*
X161313430Y-48890772D01*
X161327014Y-48865358D01*
X161345298Y-48843078D01*
X161367578Y-48824794D01*
X161392992Y-48811210D01*
X161420567Y-48802844D01*
X161451684Y-48799780D01*
X161890316Y-48799780D01*
X161921433Y-48802844D01*
X161921433Y-48802844D01*
G37*
G36*
X163318433Y-48802844D02*
X163346008Y-48811210D01*
X163371422Y-48824794D01*
X163393702Y-48843078D01*
X163411986Y-48865358D01*
X163425570Y-48890772D01*
X163433936Y-48918347D01*
X163437000Y-48949464D01*
X163437000Y-49338096D01*
X163433936Y-49369213D01*
X163425570Y-49396788D01*
X163411986Y-49422202D01*
X163393702Y-49444482D01*
X163371422Y-49462766D01*
X163346008Y-49476350D01*
X163318433Y-49484716D01*
X163287316Y-49487780D01*
X162848684Y-49487780D01*
X162817567Y-49484716D01*
X162789992Y-49476350D01*
X162764578Y-49462766D01*
X162742298Y-49444482D01*
X162724014Y-49422202D01*
X162710430Y-49396788D01*
X162702064Y-49369213D01*
X162699000Y-49338096D01*
X162699000Y-48949464D01*
X162702064Y-48918347D01*
X162710430Y-48890772D01*
X162724014Y-48865358D01*
X162742298Y-48843078D01*
X162764578Y-48824794D01*
X162789992Y-48811210D01*
X162817567Y-48802844D01*
X162848684Y-48799780D01*
X163287316Y-48799780D01*
X163318433Y-48802844D01*
X163318433Y-48802844D01*
G37*
G36*
X166210082Y-48006434D02*
X166251026Y-48018854D01*
X166288760Y-48039023D01*
X166321834Y-48066166D01*
X166348977Y-48099240D01*
X166369146Y-48136974D01*
X166381566Y-48177918D01*
X166386000Y-48222936D01*
X166386000Y-48754060D01*
X166381566Y-48799082D01*
X166369146Y-48840026D01*
X166348977Y-48877760D01*
X166321834Y-48910834D01*
X166288760Y-48937977D01*
X166251026Y-48958146D01*
X166210082Y-48970566D01*
X166165064Y-48975000D01*
X165558936Y-48975000D01*
X165513918Y-48970566D01*
X165472974Y-48958146D01*
X165435240Y-48937977D01*
X165402166Y-48910834D01*
X165375023Y-48877760D01*
X165354854Y-48840026D01*
X165342434Y-48799082D01*
X165338000Y-48754060D01*
X165338000Y-48222936D01*
X165342434Y-48177918D01*
X165354854Y-48136974D01*
X165375023Y-48099240D01*
X165402166Y-48066166D01*
X165435240Y-48039023D01*
X165472974Y-48018854D01*
X165513918Y-48006434D01*
X165558936Y-48002000D01*
X166165064Y-48002000D01*
X166210082Y-48006434D01*
X166210082Y-48006434D01*
G37*
G36*
X161921433Y-47832564D02*
X161949008Y-47840930D01*
X161974422Y-47854514D01*
X161996702Y-47872798D01*
X162014986Y-47895078D01*
X162028570Y-47920492D01*
X162036936Y-47948067D01*
X162040000Y-47979184D01*
X162040000Y-48368096D01*
X162036936Y-48399213D01*
X162028570Y-48426788D01*
X162014986Y-48452202D01*
X161996702Y-48474482D01*
X161974422Y-48492766D01*
X161949008Y-48506350D01*
X161921433Y-48514716D01*
X161890316Y-48517780D01*
X161451684Y-48517780D01*
X161420567Y-48514716D01*
X161392992Y-48506350D01*
X161367578Y-48492766D01*
X161345298Y-48474482D01*
X161327014Y-48452202D01*
X161313430Y-48426788D01*
X161305064Y-48399213D01*
X161302000Y-48368096D01*
X161302000Y-47979184D01*
X161305064Y-47948067D01*
X161313430Y-47920492D01*
X161327014Y-47895078D01*
X161345298Y-47872798D01*
X161367578Y-47854514D01*
X161392992Y-47840930D01*
X161420567Y-47832564D01*
X161451684Y-47829500D01*
X161890316Y-47829500D01*
X161921433Y-47832564D01*
X161921433Y-47832564D01*
G37*
G36*
X163318433Y-47832564D02*
X163346008Y-47840930D01*
X163371422Y-47854514D01*
X163393702Y-47872798D01*
X163411986Y-47895078D01*
X163425570Y-47920492D01*
X163433936Y-47948067D01*
X163437000Y-47979184D01*
X163437000Y-48368096D01*
X163433936Y-48399213D01*
X163425570Y-48426788D01*
X163411986Y-48452202D01*
X163393702Y-48474482D01*
X163371422Y-48492766D01*
X163346008Y-48506350D01*
X163318433Y-48514716D01*
X163287316Y-48517780D01*
X162848684Y-48517780D01*
X162817567Y-48514716D01*
X162789992Y-48506350D01*
X162764578Y-48492766D01*
X162742298Y-48474482D01*
X162724014Y-48452202D01*
X162710430Y-48426788D01*
X162702064Y-48399213D01*
X162699000Y-48368096D01*
X162699000Y-47979184D01*
X162702064Y-47948067D01*
X162710430Y-47920492D01*
X162724014Y-47895078D01*
X162742298Y-47872798D01*
X162764578Y-47854514D01*
X162789992Y-47840930D01*
X162817567Y-47832564D01*
X162848684Y-47829500D01*
X163287316Y-47829500D01*
X163318433Y-47832564D01*
X163318433Y-47832564D01*
G37*
G36*
X175750822Y-47069874D02*
X175791766Y-47082294D01*
X175829500Y-47102463D01*
X175862574Y-47129606D01*
X175889717Y-47162680D01*
X175909886Y-47200414D01*
X175922306Y-47241358D01*
X175926740Y-47286376D01*
X175926740Y-47892504D01*
X175922306Y-47937522D01*
X175909886Y-47978466D01*
X175889717Y-48016200D01*
X175862574Y-48049274D01*
X175829500Y-48076417D01*
X175791766Y-48096586D01*
X175750822Y-48109006D01*
X175705804Y-48113440D01*
X175174676Y-48113440D01*
X175129658Y-48109006D01*
X175088714Y-48096586D01*
X175050980Y-48076417D01*
X175017906Y-48049274D01*
X174990763Y-48016200D01*
X174970594Y-47978466D01*
X174958174Y-47937522D01*
X174953740Y-47892504D01*
X174953740Y-47286376D01*
X174958174Y-47241358D01*
X174970594Y-47200414D01*
X174990763Y-47162680D01*
X175017906Y-47129606D01*
X175050980Y-47102463D01*
X175088714Y-47082294D01*
X175129658Y-47069874D01*
X175174676Y-47065440D01*
X175705804Y-47065440D01*
X175750822Y-47069874D01*
X175750822Y-47069874D01*
G37*
G36*
X177325822Y-47069874D02*
X177366766Y-47082294D01*
X177404500Y-47102463D01*
X177437574Y-47129606D01*
X177464717Y-47162680D01*
X177484886Y-47200414D01*
X177497306Y-47241358D01*
X177501740Y-47286376D01*
X177501740Y-47892504D01*
X177497306Y-47937522D01*
X177484886Y-47978466D01*
X177464717Y-48016200D01*
X177437574Y-48049274D01*
X177404500Y-48076417D01*
X177366766Y-48096586D01*
X177325822Y-48109006D01*
X177280804Y-48113440D01*
X176749676Y-48113440D01*
X176704658Y-48109006D01*
X176663714Y-48096586D01*
X176625980Y-48076417D01*
X176592906Y-48049274D01*
X176565763Y-48016200D01*
X176545594Y-47978466D01*
X176533174Y-47937522D01*
X176528740Y-47892504D01*
X176528740Y-47286376D01*
X176533174Y-47241358D01*
X176545594Y-47200414D01*
X176565763Y-47162680D01*
X176592906Y-47129606D01*
X176625980Y-47102463D01*
X176663714Y-47082294D01*
X176704658Y-47069874D01*
X176749676Y-47065440D01*
X177280804Y-47065440D01*
X177325822Y-47069874D01*
X177325822Y-47069874D01*
G37*
G36*
X184113673Y-47223504D02*
X184141248Y-47231870D01*
X184166662Y-47245454D01*
X184188942Y-47263738D01*
X184207226Y-47286018D01*
X184220810Y-47311432D01*
X184229176Y-47339007D01*
X184232240Y-47370124D01*
X184232240Y-47808756D01*
X184229176Y-47839873D01*
X184220810Y-47867448D01*
X184207226Y-47892862D01*
X184188942Y-47915142D01*
X184166662Y-47933426D01*
X184141248Y-47947010D01*
X184113673Y-47955376D01*
X184082556Y-47958440D01*
X183693924Y-47958440D01*
X183662807Y-47955376D01*
X183635232Y-47947010D01*
X183609818Y-47933426D01*
X183587538Y-47915142D01*
X183569254Y-47892862D01*
X183555670Y-47867448D01*
X183547304Y-47839873D01*
X183544240Y-47808756D01*
X183544240Y-47370124D01*
X183547304Y-47339007D01*
X183555670Y-47311432D01*
X183569254Y-47286018D01*
X183587538Y-47263738D01*
X183609818Y-47245454D01*
X183635232Y-47231870D01*
X183662807Y-47223504D01*
X183693924Y-47220440D01*
X184082556Y-47220440D01*
X184113673Y-47223504D01*
X184113673Y-47223504D01*
G37*
G36*
X183143673Y-47223504D02*
X183171248Y-47231870D01*
X183196662Y-47245454D01*
X183218942Y-47263738D01*
X183237226Y-47286018D01*
X183250810Y-47311432D01*
X183259176Y-47339007D01*
X183262240Y-47370124D01*
X183262240Y-47808756D01*
X183259176Y-47839873D01*
X183250810Y-47867448D01*
X183237226Y-47892862D01*
X183218942Y-47915142D01*
X183196662Y-47933426D01*
X183171248Y-47947010D01*
X183143673Y-47955376D01*
X183112556Y-47958440D01*
X182723924Y-47958440D01*
X182692807Y-47955376D01*
X182665232Y-47947010D01*
X182639818Y-47933426D01*
X182617538Y-47915142D01*
X182599254Y-47892862D01*
X182585670Y-47867448D01*
X182577304Y-47839873D01*
X182574240Y-47808756D01*
X182574240Y-47370124D01*
X182577304Y-47339007D01*
X182585670Y-47311432D01*
X182599254Y-47286018D01*
X182617538Y-47263738D01*
X182639818Y-47245454D01*
X182665232Y-47231870D01*
X182692807Y-47223504D01*
X182723924Y-47220440D01*
X183112556Y-47220440D01*
X183143673Y-47223504D01*
X183143673Y-47223504D01*
G37*
G36*
X178825673Y-47223504D02*
X178853248Y-47231870D01*
X178878662Y-47245454D01*
X178900942Y-47263738D01*
X178919226Y-47286018D01*
X178932810Y-47311432D01*
X178941176Y-47339007D01*
X178944240Y-47370124D01*
X178944240Y-47808756D01*
X178941176Y-47839873D01*
X178932810Y-47867448D01*
X178919226Y-47892862D01*
X178900942Y-47915142D01*
X178878662Y-47933426D01*
X178853248Y-47947010D01*
X178825673Y-47955376D01*
X178794556Y-47958440D01*
X178405924Y-47958440D01*
X178374807Y-47955376D01*
X178347232Y-47947010D01*
X178321818Y-47933426D01*
X178299538Y-47915142D01*
X178281254Y-47892862D01*
X178267670Y-47867448D01*
X178259304Y-47839873D01*
X178256240Y-47808756D01*
X178256240Y-47370124D01*
X178259304Y-47339007D01*
X178267670Y-47311432D01*
X178281254Y-47286018D01*
X178299538Y-47263738D01*
X178321818Y-47245454D01*
X178347232Y-47231870D01*
X178374807Y-47223504D01*
X178405924Y-47220440D01*
X178794556Y-47220440D01*
X178825673Y-47223504D01*
X178825673Y-47223504D01*
G37*
G36*
X179795673Y-47223504D02*
X179823248Y-47231870D01*
X179848662Y-47245454D01*
X179870942Y-47263738D01*
X179889226Y-47286018D01*
X179902810Y-47311432D01*
X179911176Y-47339007D01*
X179914240Y-47370124D01*
X179914240Y-47808756D01*
X179911176Y-47839873D01*
X179902810Y-47867448D01*
X179889226Y-47892862D01*
X179870942Y-47915142D01*
X179848662Y-47933426D01*
X179823248Y-47947010D01*
X179795673Y-47955376D01*
X179764556Y-47958440D01*
X179375924Y-47958440D01*
X179344807Y-47955376D01*
X179317232Y-47947010D01*
X179291818Y-47933426D01*
X179269538Y-47915142D01*
X179251254Y-47892862D01*
X179237670Y-47867448D01*
X179229304Y-47839873D01*
X179226240Y-47808756D01*
X179226240Y-47370124D01*
X179229304Y-47339007D01*
X179237670Y-47311432D01*
X179251254Y-47286018D01*
X179269538Y-47263738D01*
X179291818Y-47245454D01*
X179317232Y-47231870D01*
X179344807Y-47223504D01*
X179375924Y-47220440D01*
X179764556Y-47220440D01*
X179795673Y-47223504D01*
X179795673Y-47223504D01*
G37*
G36*
X182018173Y-47223504D02*
X182045748Y-47231870D01*
X182071162Y-47245454D01*
X182093442Y-47263738D01*
X182111726Y-47286018D01*
X182125310Y-47311432D01*
X182133676Y-47339007D01*
X182136740Y-47370124D01*
X182136740Y-47808756D01*
X182133676Y-47839873D01*
X182125310Y-47867448D01*
X182111726Y-47892862D01*
X182093442Y-47915142D01*
X182071162Y-47933426D01*
X182045748Y-47947010D01*
X182018173Y-47955376D01*
X181987056Y-47958440D01*
X181598424Y-47958440D01*
X181567307Y-47955376D01*
X181539732Y-47947010D01*
X181514318Y-47933426D01*
X181492038Y-47915142D01*
X181473754Y-47892862D01*
X181460170Y-47867448D01*
X181451804Y-47839873D01*
X181448740Y-47808756D01*
X181448740Y-47370124D01*
X181451804Y-47339007D01*
X181460170Y-47311432D01*
X181473754Y-47286018D01*
X181492038Y-47263738D01*
X181514318Y-47245454D01*
X181539732Y-47231870D01*
X181567307Y-47223504D01*
X181598424Y-47220440D01*
X181987056Y-47220440D01*
X182018173Y-47223504D01*
X182018173Y-47223504D01*
G37*
G36*
X181048173Y-47223504D02*
X181075748Y-47231870D01*
X181101162Y-47245454D01*
X181123442Y-47263738D01*
X181141726Y-47286018D01*
X181155310Y-47311432D01*
X181163676Y-47339007D01*
X181166740Y-47370124D01*
X181166740Y-47808756D01*
X181163676Y-47839873D01*
X181155310Y-47867448D01*
X181141726Y-47892862D01*
X181123442Y-47915142D01*
X181101162Y-47933426D01*
X181075748Y-47947010D01*
X181048173Y-47955376D01*
X181017056Y-47958440D01*
X180628424Y-47958440D01*
X180597307Y-47955376D01*
X180569732Y-47947010D01*
X180544318Y-47933426D01*
X180522038Y-47915142D01*
X180503754Y-47892862D01*
X180490170Y-47867448D01*
X180481804Y-47839873D01*
X180478740Y-47808756D01*
X180478740Y-47370124D01*
X180481804Y-47339007D01*
X180490170Y-47311432D01*
X180503754Y-47286018D01*
X180522038Y-47263738D01*
X180544318Y-47245454D01*
X180569732Y-47231870D01*
X180597307Y-47223504D01*
X180628424Y-47220440D01*
X181017056Y-47220440D01*
X181048173Y-47223504D01*
X181048173Y-47223504D01*
G37*
G36*
X161921433Y-46862564D02*
X161949008Y-46870930D01*
X161974422Y-46884514D01*
X161996702Y-46902798D01*
X162014986Y-46925078D01*
X162028570Y-46950492D01*
X162036936Y-46978067D01*
X162040000Y-47009184D01*
X162040000Y-47397816D01*
X162036936Y-47428933D01*
X162028570Y-47456508D01*
X162014986Y-47481922D01*
X161996702Y-47504202D01*
X161974422Y-47522486D01*
X161949008Y-47536070D01*
X161921433Y-47544436D01*
X161890316Y-47547500D01*
X161451684Y-47547500D01*
X161420567Y-47544436D01*
X161392992Y-47536070D01*
X161367578Y-47522486D01*
X161345298Y-47504202D01*
X161327014Y-47481922D01*
X161313430Y-47456508D01*
X161305064Y-47428933D01*
X161302000Y-47397816D01*
X161302000Y-47009184D01*
X161305064Y-46978067D01*
X161313430Y-46950492D01*
X161327014Y-46925078D01*
X161345298Y-46902798D01*
X161367578Y-46884514D01*
X161392992Y-46870930D01*
X161420567Y-46862564D01*
X161451684Y-46859500D01*
X161890316Y-46859500D01*
X161921433Y-46862564D01*
X161921433Y-46862564D01*
G37*
G36*
X163318433Y-46862564D02*
X163346008Y-46870930D01*
X163371422Y-46884514D01*
X163393702Y-46902798D01*
X163411986Y-46925078D01*
X163425570Y-46950492D01*
X163433936Y-46978067D01*
X163437000Y-47009184D01*
X163437000Y-47397816D01*
X163433936Y-47428933D01*
X163425570Y-47456508D01*
X163411986Y-47481922D01*
X163393702Y-47504202D01*
X163371422Y-47522486D01*
X163346008Y-47536070D01*
X163318433Y-47544436D01*
X163287316Y-47547500D01*
X162848684Y-47547500D01*
X162817567Y-47544436D01*
X162789992Y-47536070D01*
X162764578Y-47522486D01*
X162742298Y-47504202D01*
X162724014Y-47481922D01*
X162710430Y-47456508D01*
X162702064Y-47428933D01*
X162699000Y-47397816D01*
X162699000Y-47009184D01*
X162702064Y-46978067D01*
X162710430Y-46950492D01*
X162724014Y-46925078D01*
X162742298Y-46902798D01*
X162764578Y-46884514D01*
X162789992Y-46870930D01*
X162817567Y-46862564D01*
X162848684Y-46859500D01*
X163287316Y-46859500D01*
X163318433Y-46862564D01*
X163318433Y-46862564D01*
G37*
G36*
X198973767Y-40426822D02*
X199110258Y-40483359D01*
X199233097Y-40565437D01*
X199337563Y-40669903D01*
X199419641Y-40792742D01*
X199476178Y-40929233D01*
X199505000Y-41074131D01*
X199505000Y-41221869D01*
X199476178Y-41366767D01*
X199419641Y-41503258D01*
X199337563Y-41626097D01*
X199233097Y-41730563D01*
X199110258Y-41812641D01*
X198973767Y-41869178D01*
X198828869Y-41898000D01*
X198681131Y-41898000D01*
X198536233Y-41869178D01*
X198399742Y-41812641D01*
X198276903Y-41730563D01*
X198172437Y-41626097D01*
X198090359Y-41503258D01*
X198033822Y-41366767D01*
X198005000Y-41221869D01*
X198005000Y-41074131D01*
X198033822Y-40929233D01*
X198090359Y-40792742D01*
X198172437Y-40669903D01*
X198276903Y-40565437D01*
X198399742Y-40483359D01*
X198536233Y-40426822D01*
X198681131Y-40398000D01*
X198828869Y-40398000D01*
X198973767Y-40426822D01*
X198973767Y-40426822D01*
G37*
M02*
